<?xml version="1.0" encoding="UTF-8" standalone="no"?>
<!-- Generator: Adobe Illustrator 16.0.0, SVG Export Plug-In . SVG Version: 6.00 Build 0)  -->

<svg
   xmlns:dc="http://purl.org/dc/elements/1.1/"
   xmlns:cc="http://creativecommons.org/ns#"
   xmlns:rdf="http://www.w3.org/1999/02/22-rdf-syntax-ns#"
   xmlns:svg="http://www.w3.org/2000/svg"
   xmlns="http://www.w3.org/2000/svg"
   xmlns:sodipodi="http://sodipodi.sourceforge.net/DTD/sodipodi-0.dtd"
   xmlns:inkscape="http://www.inkscape.org/namespaces/inkscape"
   version="1.1"
   id="Capa_1"
   x="0px"
   y="0px"
   width="793.70081"
   height="1122.5197"
   viewBox="0 0 793.70075 1122.5196"
   xml:space="preserve"
   sodipodi:docname="CapivaraWars-logo.svg"
   inkscape:version="0.92.4 (5da689c313, 2019-01-14)"><metadata
   id="metadata49"><rdf:RDF><cc:Work
       rdf:about=""><dc:format>image/svg+xml</dc:format><dc:type
         rdf:resource="http://purl.org/dc/dcmitype/StillImage" /><dc:title /></cc:Work></rdf:RDF></metadata><defs
   id="defs47" /><sodipodi:namedview
   pagecolor="#ffffff"
   bordercolor="#666666"
   borderopacity="1"
   objecttolerance="10"
   gridtolerance="10"
   guidetolerance="10"
   inkscape:pageopacity="0"
   inkscape:pageshadow="2"
   inkscape:window-width="1366"
   inkscape:window-height="705"
   id="namedview45"
   showgrid="false"
   inkscape:pagecheckerboard="true"
   units="px"
   inkscape:zoom="0.25000001"
   inkscape:cx="-3059.1347"
   inkscape:cy="-171.27209"
   inkscape:window-x="-8"
   inkscape:window-y="-8"
   inkscape:window-maximized="1"
   inkscape:current-layer="Capa_1"
   inkscape:snap-global="false"
   showguides="false"
   inkscape:guide-bbox="true"
   inkscape:snap-bbox="true"
   inkscape:bbox-paths="true"
   inkscape:bbox-nodes="true"
   inkscape:snap-bbox-midpoints="true"
   inkscape:snap-bbox-edge-midpoints="true"
   inkscape:object-paths="true"
   inkscape:snap-intersection-paths="true"
   inkscape:snap-smooth-nodes="true" />

<g
   id="g14"
   transform="translate(0,819.51767)">
</g>
<g
   id="g16"
   transform="translate(0,819.51767)">
</g>
<g
   id="g18"
   transform="translate(0,819.51767)">
</g>
<g
   id="g20"
   transform="translate(0,819.51767)">
</g>
<g
   id="g22"
   transform="translate(0,819.51767)">
</g>
<g
   id="g24"
   transform="translate(0,819.51767)">
</g>
<g
   id="g26"
   transform="translate(0,819.51767)">
</g>
<g
   id="g28"
   transform="translate(0,819.51767)">
</g>
<g
   id="g30"
   transform="translate(0,819.51767)">
</g>
<g
   id="g32"
   transform="translate(0,819.51767)">
</g>
<g
   id="g34"
   transform="translate(0,819.51767)">
</g>
<g
   id="g36"
   transform="translate(0,819.51767)">
</g>
<g
   id="g38"
   transform="translate(0,819.51767)">
</g>
<g
   id="g40"
   transform="translate(0,819.51767)">
</g>
<g
   id="g42"
   transform="translate(0,819.51767)">
</g>




































<rect
   y="93.122604"
   x="-465.11414"
   height="204.68205"
   width="290.40555"
   id="rect1158"
   style="opacity:1;vector-effect:none;fill:#000000;fill-opacity:1;fill-rule:evenodd;stroke:none;stroke-width:1.18506289;stroke-linecap:butt;stroke-linejoin:miter;stroke-miterlimit:4;stroke-dasharray:none;stroke-dashoffset:0;stroke-opacity:1" /><rect
   y="199.34802"
   x="52.311504"
   height="82.387772"
   width="478.24142"
   id="rect1038"
   style="opacity:1;vector-effect:none;fill:#aa0000;fill-opacity:1;fill-rule:evenodd;stroke:none;stroke-width:0.96483713;stroke-linecap:butt;stroke-linejoin:miter;stroke-miterlimit:4;stroke-dasharray:none;stroke-dashoffset:0;stroke-opacity:1"
   inkscape:export-xdpi="300"
   inkscape:export-ydpi="300" /><text
   xml:space="preserve"
   style="font-style:normal;font-variant:normal;font-weight:normal;font-stretch:normal;font-size:71.47066498px;line-height:1.25;font-family:'MV Boli';-inkscape-font-specification:'MV Boli, Normal';font-variant-ligatures:normal;font-variant-position:normal;font-variant-caps:normal;font-variant-numeric:normal;font-variant-alternates:normal;font-feature-settings:normal;text-indent:0;text-align:start;text-decoration:none;text-decoration-line:none;text-decoration-style:solid;text-decoration-color:#000000;letter-spacing:0px;word-spacing:0px;text-transform:none;writing-mode:lr-tb;direction:ltr;text-orientation:mixed;dominant-baseline:auto;baseline-shift:baseline;text-anchor:start;white-space:normal;shape-padding:0;opacity:1;vector-effect:none;fill:#ffffff;fill-opacity:1;stroke:#ffffff;stroke-width:3;stroke-linecap:butt;stroke-linejoin:miter;stroke-miterlimit:4;stroke-dasharray:none;stroke-dashoffset:0;stroke-opacity:1"
   x="184.99901"
   y="265.98242"
   id="text1041"
   inkscape:export-xdpi="300"
   inkscape:export-ydpi="300"><tspan
     sodipodi:role="line"
     id="tspan1039"
     x="184.99901"
     y="265.98242">BETA</tspan></text>




<path
   style="fill:#000000"
   d="m -2411.1331,508.6898 c 0.5551,-4.6863 9.5063,-123.213 9.5063,-125.8766 0,-1.1247 4.162,-1.3734 22.9825,-1.3734 h 22.9826 l 0.2674,24.7153 0.2675,24.7153 17.4102,-24.7153 17.4102,-24.7153 h 20.3398 20.3398 v 24.5 c 0,13.475 0.3375,24.4827 0.75,24.4616 0.4125,-0.021 8.4,-11.0337 17.75,-24.4725 l 17,-24.4342 24.8181,-0.028 24.8182,-0.027 -5.1194,7.25 c -2.8157,3.9875 -23.6589,33.6743 -46.3182,65.9707 l -41.1987,58.7206 -23.75,0.029 -23.75,0.029 0.017,-2.25 c 0.01,-1.2375 1.1267,-11.925 2.483,-23.7501 1.3564,-11.825 2.466,-22.4 2.466,-23.5 -10e-5,-1.1 -7.6279,9.5875 -16.9506,23.75 l -16.9505,25.7501 h -24.0669 -24.0669 z m 151.2013,-0.5714 c 2.0927,-2.9267 22.93,-32.6076 46.305,-65.9576 l 42.5,-60.6364 38.7587,-0.042 38.7587,-0.042 -0.5523,5.25 c -0.5286,5.0241 -9.4651,123.7827 -9.4651,125.7828 0,0.5954 -9.0322,0.9672 -23.5,0.9672 h -23.5 v -10 -10 h -24.2962 -24.2962 l -7.4076,10 -7.4076,10 h -24.8513 -24.8512 z m 114.305,-70.1786 c 0,-11.275 -0.3375,-20.4818 -0.75,-20.4594 -0.619,0.034 -20.0214,27.8072 -26.5982,38.0742 l -1.8482,2.8852 h 14.5982 14.5982 z m 54.2995,72.2678 c 0.7376,-1.7973 12.3057,-31.5053 25.7068,-66.0178 l 24.3655,-62.75 52.5641,0.01 c 31.6196,0 53.9847,0.4002 56.1294,0.996 4.693,1.3037 11.4535,7.1813 14.212,12.3559 1.8213,3.4166 2.2004,5.7197 2.1629,13.1425 -0.042,8.3361 -0.362,9.7355 -4.3364,18.9695 -9.3771,21.7868 -21.6996,35.228 -39.3629,42.9367 -2.8825,1.258 -6.3659,2.7758 -7.7409,3.3729 -1.8854,0.8187 3.9533,1.1022 23.75,1.1532 14.4375,0.037 26.25,0.2915 26.25,0.5649 0,0.2735 -3.4212,9.0485 -7.6026,19.5 l -7.6026,19.0028 h -39.663 c -36.7151,0 -39.92,-0.1379 -43.1207,-1.8544 -6.9741,-3.7402 -12.493,-15.2403 -13.8391,-28.8375 l -0.672,-6.7878 -7.1273,18.4898 -7.1273,18.4899 -24.1436,0.2678 -24.1436,0.2678 z m 114.3898,-75.0827 c 4.0414,-2.1209 6.3107,-5.3424 6.3107,-8.9586 0,-4.781 -4.3017,-5.8256 -22.6551,-5.5018 l -15.5984,0.2753 -2.8732,7.4837 c -1.5804,4.1161 -2.8733,7.8852 -2.8733,8.376 0,0.5057 7.472,0.6988 17.25,0.4457 13.5479,-0.3507 17.9344,-0.8058 20.4393,-2.1203 z m 66.1546,58.8893 7.6561,-19.5081 32.75,-0.033 c 18.0125,-0.018 32.75,-0.3823 32.75,-0.809 0,-0.4268 -2.0952,-4.1393 -4.6561,-8.25 -16.1322,-25.8964 -20.0359,-42.4443 -13.2809,-56.2983 5.9927,-12.2908 16.8924,-21.7285 29.6424,-25.6666 6.1065,-1.8861 9.2612,-2.0093 51.4673,-2.0093 42.3702,0 44.9294,0.1009 44.3954,1.75 -0.3117,0.9625 -3.6607,9.625 -7.4423,19.25 l -6.8756,17.5 -28.6251,0.2654 c -15.7438,0.1459 -28.6251,0.5585 -28.6251,0.9168 0,0.3583 2.3376,4.9639 5.1946,10.2346 10.684,19.7101 13.5657,27.0008 14.4598,36.5832 0.6198,6.643 -1.3837,16.0888 -4.8562,22.8955 -3.3909,6.6467 -12.4691,15.3367 -19.7382,18.8941 l -6.56,3.2105 -52.6561,0.2913 -52.6561,0.2912 z"
   id="path7093"
   inkscape:connector-curvature="0" /><path
   style="fill:#000000;stroke-width:1.24525619"
   d="m -1751.6549,333.97077 c -9.7383,-11.9854 -18.1025,-22.0368 -18.5874,-22.3363 -0.4845,-0.2997 -0.4234,3.7253 0.1363,8.9439 0.6666,6.2243 0.5775,9.7599 -0.2607,10.2775 -1.9769,1.2216 -53.462,7.975 -54.3127,7.1242 -0.688,-0.6878 9.3725,-137.94597 10.182,-138.91977 0.5899,-0.7095 27.6322,2.2856 44.128,4.8875 31.6026,4.9847 56.956,13.67 68.8015,23.5691 2.5692,2.1469 6.2115,6.524 8.0942,9.7268 3.0497,5.188 3.4229,7.0455 3.4213,17.0305 -10e-4,6.164 -0.6946,13.48197 -1.5406,16.26197 -3.5844,11.7768 -14.1796,22.6223 -27.0322,27.6709 l -6.0371,2.3714 6.7213,3.7585 c 3.6968,2.0672 11.1189,6.1477 16.4942,9.0678 9.4207,5.118 9.6896,5.3883 7.4715,7.503 -4.9223,4.6919 -39.147,34.8548 -39.5486,34.8548 -0.2335,0 -8.393,-9.8063 -18.1313,-21.7918 z m 4.9028,-74.17277 c 7.8973,-1.2813 11.2501,-2.8084 11.2501,-5.1236 0,-2.7732 -14.9088,-7.2444 -34.5558,-10.3635 l -5.2924,-0.8402 v 8.8262 8.8263 l 10.2734,-0.016 c 5.6504,0 13.8967,-0.5973 18.3247,-1.3158 z m -387.2319,18.31347 V 211.6678 l 22.7259,-1.7658 c 12.4993,-0.9712 22.8556,-1.7155 23.0136,-1.654 0.4724,0.1838 10.1884,125.62377 9.7631,126.04897 -0.5285,0.5282 -51.4952,10.2583 -53.734,10.2583 -1.5059,0 -1.7686,-9.8667 -1.7686,-66.4438 z m -359.5523,59.6606 c -11.8724,-2.7067 -22.2044,-8.7921 -32.8105,-19.3253 -10.7808,-10.7061 -16.2818,-20.5395 -19.1809,-34.2864 -5.2884,-25.07747 1.3166,-47.62477 19.1809,-65.47677 15.7183,-15.7075 33.4722,-22.403 54.6562,-20.6124 23.1354,1.9557 42.1964,14.1528 54.7481,35.0336 7.0761,11.772 8.2047,10.5739 -16.8184,17.8538 -12.1672,3.5397 -22.4815,6.4342 -22.9209,6.4323 -0.4392,0 -1.1478,-1.3942 -1.5744,-3.0939 -1.1538,-4.5973 -8.1347,-11.9358 -13.8045,-14.5114 -16.3988,-7.4499 -35.568,5.573 -35.4731,24.0994 0.071,13.71527 12.2071,25.87897 25.8217,25.87897 7.8372,0 18.9734,-3.5172 30.0067,-9.4771 5.7223,-3.0909 10.5209,-5.4452 10.6636,-5.2315 0.1441,0.2135 6.2652,9.9094 13.6053,21.5463 12.3522,19.5829 13.1807,21.2822 11.1287,22.8219 -4.9651,3.725 -27.728,13.9841 -36.462,16.4329 -12.0976,3.392 -30.4982,4.2567 -40.7665,1.9156 z m 99.4976,-5.0698 c -11.1887,-3.644 -20.5632,-6.8457 -20.832,-7.1148 -0.2684,-0.2688 10.9069,-27.0715 24.835,-59.56107 l 25.3244,-59.0719 18.8371,-0.3437 18.8377,-0.3436 27.4142,54.8182 c 15.0781,30.14987 27.4148,55.13087 27.4148,55.51337 0,1.3545 -46.5154,23.0313 -47.3738,22.0771 -0.4798,-0.5332 -2.7019,-6.1528 -4.9379,-12.488 -4.72,-13.3727 -2.7722,-12.6694 -23.6439,-8.5362 l -14.315,2.8349 -3.5922,9.5439 c -2.5131,6.6781 -4.1973,9.5069 -5.6088,9.4206 -1.1093,-0.067 -11.1709,-3.1048 -22.3596,-6.7488 z m 52.9027,-56.0871 2.6738,-0.5323 -2.3873,-7.7912 c -1.3134,-4.28507 -2.7194,-8.63167 -3.1245,-9.65907 -0.635,-1.611 -3.2065,4.5134 -7.2692,17.31317 -0.8579,2.7035 -0.2995,2.7406 10.1072,0.6694 z m 76.3261,62.0251 c -0.039,-0.5136 -2.1519,-28.7741 -4.6923,-62.801 l -4.6191,-61.86687 3.7587,-0.662 c 15.5435,-2.7369 29.4063,-3.7864 49.8332,-3.7723 26.0566,0.019 38.9458,2.1718 51.7141,8.6419 17.2429,8.7376 27.5352,25.9451 25.621,42.8354 -1.0273,9.06727 -7.1232,21.42857 -12.949,26.25837 -10.6166,8.8013 -27.5958,14.1886 -49.3011,15.6425 -12.1458,0.8137 -13.2136,1.0853 -12.5451,3.1921 0.4019,1.2664 2.0252,7.0058 3.6066,12.7541 l 2.8754,10.4514 -25.6804,5.1309 c -28.1626,5.6269 -27.5166,5.5287 -27.622,4.1955 z m 62.1916,-78.82587 c 9.9401,-1.6129 15.0882,-4.173 15.0882,-7.5036 0,-3.5096 -6.8656,-6.1308 -16.0584,-6.1308 -6.573,0 -26.3885,2.1977 -27.2197,3.0189 -0.1751,0.1723 0.2958,2.2251 1.0432,4.5621 0.7483,2.3369 1.5741,4.9495 1.8344,5.8055 0.5915,1.9423 14.0574,2.0742 25.3123,0.2479 z m 146.2275,30.72447 -24.3095,-48.60637 2.6964,-2.1834 c 1.483,-1.2008 10.8174,-9.0708 20.7437,-17.489 9.9259,-8.418 18.4776,-15.4589 19.0037,-15.6464 0.5262,-0.1875 5.9087,12.981 11.9611,29.2634 6.0523,16.2824 11.6705,30.9385 12.4841,32.56907 1.3325,2.6688 2.0052,1.0524 6.7423,-16.18827 2.8945,-10.5342 6.4828,-23.1389 7.974,-28.0104 l 2.7119,-8.8574 26.9894,7.6122 c 14.8441,4.1866 27.3131,7.94 27.7093,8.3406 0.5055,0.5119 -47.8054,100.78057 -49.5453,102.83067 -0.094,0.1112 -9.325,1.2758 -20.5121,2.5874 l -20.3394,2.3843 z m 101.9277,42.1634 c -11.1887,-3.644 -20.563,-6.8457 -20.832,-7.1148 -0.2685,-0.2688 10.9069,-27.0715 24.835,-59.56107 l 25.3244,-59.0719 18.8371,-0.3437 18.8377,-0.3436 27.4143,54.8182 c 15.0781,30.14987 27.4147,55.13087 27.4147,55.51337 0,1.3545 -46.5154,23.0313 -47.3739,22.0771 -0.4798,-0.5332 -2.7018,-6.1528 -4.9378,-12.488 -4.7198,-13.3727 -2.7722,-12.6694 -23.6439,-8.5362 l -14.315,2.8349 -3.5922,9.5439 c -2.5131,6.6781 -4.1973,9.5069 -5.6086,9.4206 -1.1095,-0.067 -11.1712,-3.1048 -22.3598,-6.7488 z m 52.9027,-56.0871 2.6738,-0.5323 -2.3873,-7.7912 c -1.3134,-4.28507 -2.7194,-8.63167 -3.1245,-9.65907 -0.635,-1.611 -3.2065,4.5134 -7.2691,17.31317 -0.8581,2.7035 -0.2997,2.7406 10.1071,0.6694 z m 229.7704,56.0871 c -11.1886,-3.644 -20.5631,-6.8457 -20.832,-7.1148 -0.2685,-0.2688 10.9069,-27.0715 24.8351,-59.56107 l 25.3242,-59.0719 18.8373,-0.3437 18.8376,-0.3436 27.4143,54.8182 c 15.0781,30.14987 27.4147,55.13087 27.4147,55.51337 0,1.3545 -46.5154,23.0313 -47.3738,22.0771 -0.4798,-0.5332 -2.7018,-6.1528 -4.9378,-12.488 -4.72,-13.3727 -2.7723,-12.6694 -23.6439,-8.5362 l -14.315,2.8349 -3.5922,9.5439 c -2.5131,6.6781 -4.1973,9.5069 -5.6087,9.4206 -1.1095,-0.067 -11.1712,-3.1048 -22.3598,-6.7488 z m 52.9028,-56.0871 2.6738,-0.5323 -2.3874,-7.7912 c -1.3134,-4.28507 -2.7193,-8.63167 -3.1244,-9.65907 -0.6351,-1.611 -3.2066,4.5134 -7.2692,17.31317 -0.8581,2.7035 -0.2997,2.7406 10.1072,0.6694 z"
   id="path7106"
   inkscape:connector-curvature="0" /><path
   inkscape:connector-curvature="0"
   id="path7108"
   d="m -1214.6294,-48.852211 c -3.2976,-0.4995 -6.005,-2.0695 -6.0163,-3.4887 -0.022,-1.4193 -2.4683,-35.3615 -5.46,-75.427099 -2.9917,-40.06565 -5.1752,-73.11065 -4.8528,-73.43335 0.3227,-0.3226 15.6787,1.5636 34.1246,4.1917 23.6681,3.3722 34.0636,5.7342 35.3245,8.0264 1.4132,2.5695 12.9119,73.09185 12.8478,78.79745 0,0.782 -11.7736,3.6133 -26.1442,6.292 l -26.1285,4.870299 1.3908,25.8665 1.391,25.8664 -5.2406,-0.3267 c -2.8823,-0.1796 -7.9387,-0.7353 -11.2363,-1.2349 z m 33.9749,-79.407899 c 6.7951,-1.3646 12.3164,-3.0816 12.2691,-3.8154 -0.2896,-4.4947 -8.3045,-39.88455 -9.2464,-40.82625 -1.8052,-1.8053 -25.9087,-7.7523 -26.9995,-6.6616 -0.989,0.9889 3.2697,46.00635 4.8301,51.05925 1.0362,3.3558 3.4962,3.3871 19.1467,0.244 z m 308.2864,38.831399 c -3.85949,-37.680599 -11.01261,-127.947349 -10.20048,-128.719249 0.53307,-0.5066 4.85189,-0.2789 9.59721,0.506 7.96752,1.318 8.75944,2.093 10.34674,10.1263 4.12929,20.8979 2.69029,20.0884 15.8007,8.8879 l 11.70498,-9.9999 h 17.46565 17.46563 l 1.47162,13.7417 c 0.80938,7.5579 1.13276,15.8505 0.7186,18.428 -0.74034,4.6073 -1.04396,4.5594 -18.01365,-2.8405 -9.49336,-4.1398 -17.88847,-7.5269 -18.65582,-7.5269 -0.76736,0 -4.65329,6.7348 -8.63542,14.9663 l -7.24024,14.9663 1.57289,31.46425 1.5729,31.464199 -11.90809,7.9066 -11.90812,7.9065 z m -416.7436,-6.0495 c -20.2803,-4.664399 -37.3147,-8.921999 -37.8543,-9.461399 -0.9111,-0.9113 3.7563,-24.74 8.3993,-42.87945 2.0113,-7.8578 2.0486,-7.8784 27.0855,-15.0242 13.7893,-3.9355 25.0713,-7.8057 25.0713,-8.6004 0,-0.7948 -3.1886,-4.3866 -7.0857,-7.982 -14.5701,-13.4419 -13.4248,-13.3577 -27.2213,-1.9997 l -12.5045,10.2944 -6.1663,-7.3021 -6.1662,-7.3022 10.495,-9.4207 c 5.7722,-5.1814 13.9367,-12.1888 18.143,-15.5719 l 7.6483,-6.1511 22.8749,18.2826 c 12.5815,10.0554 22.8713,19.5156 22.8665,21.0224 -0.076,23.8775 -5.5402,91.126549 -7.3781,90.807849 -0.7336,-0.1274 -17.9272,-4.0477 -38.2074,-8.7121 z m 20.5216,-30.543299 v -17.68455 l -7.0858,1.2743 c -3.8971,0.7009 -11.2554,1.91665 -16.3517,2.70155 -5.0963,0.785 -9.3087,2.0377 -9.361,2.7838 -0.052,0.7461 -0.9011,5.524 -1.8866,10.6175 l -1.7915,9.261 7.8822,2.0519 c 4.3352,1.1285 11.3161,3.0045 15.513,4.1688 13.3273,3.6972 13.0814,3.9825 13.0814,-15.1743 z m 321.77453,30.543299 c -20.28029,-4.664399 -37.31465,-8.921999 -37.85425,-9.461399 -0.91112,-0.9113 3.75632,-24.74 8.39934,-42.87945 2.01126,-7.8578 2.04854,-7.8784 27.08544,-15.0242 13.7893,-3.9355 25.07134,-7.8057 25.07134,-8.6004 0,-0.7948 -3.18859,-4.3866 -7.08575,-7.982 -14.57004,-13.4419 -13.42477,-13.3577 -27.22127,-1.9997 l -12.50449,10.2944 -6.16635,-7.3021 -6.16613,-7.3022 10.49498,-9.4207 c 5.77216,-5.1814 13.93669,-12.1888 18.14301,-15.5719 l 7.64825,-6.1511 22.87498,18.2826 c 12.58141,10.0554 22.87123,19.5156 22.86643,21.0224 -0.0763,23.8775 -5.54019,91.126549 -7.37812,90.807849 -0.73365,-0.1274 -17.92712,-4.0477 -38.20741,-8.7121 z m 20.52164,-30.543299 v -17.68455 l -7.08575,1.2743 c -3.89716,0.7009 -11.25544,1.91665 -16.35173,2.70155 -5.09629,0.785 -9.30871,2.0377 -9.36104,2.7838 -0.0523,0.7461 -0.90109,5.524 -1.88655,10.6175 l -1.7915,9.261 7.88219,2.0519 c 4.33517,1.1285 11.31605,3.0045 15.513,4.1688 13.32731,3.6972 13.08138,3.9825 13.08138,-15.1743 z m 180.05952,30.543299 c -20.28038,-4.664399 -37.31474,-8.921999 -37.85415,-9.461399 -0.91127,-0.9113 3.75632,-24.74 8.39927,-42.87945 2.01131,-7.8578 2.04844,-7.8784 27.08542,-15.0242 13.78924,-3.9355 25.07135,-7.8057 25.07135,-8.6004 0,-0.7948 -3.18859,-4.3866 -7.08575,-7.982 -14.57011,-13.4419 -13.42475,-13.3577 -27.22121,-1.9997 l -12.50456,10.2944 -6.16628,-7.3021 -6.16628,-7.3022 10.49502,-9.4207 c 5.77227,-5.1814 13.93667,-12.1888 18.14312,-15.5719 l 7.64809,-6.1511 22.87514,18.2826 c 12.58132,10.0554 22.8712,19.5156 22.86639,21.0224 -0.0761,23.8775 -5.54014,91.126549 -7.37808,90.807849 -0.73376,-0.1274 -17.92714,-4.0477 -38.20749,-8.7121 z m 20.52166,-30.543299 v -17.68455 l -7.08575,1.2743 c -3.89717,0.7009 -11.25544,1.91665 -16.35173,2.70155 -5.09629,0.785 -9.30872,2.0377 -9.36093,2.7838 -0.0523,0.7461 -0.90118,5.524 -1.88658,10.6175 l -1.79162,9.261 7.88221,2.0519 c 4.33521,1.1285 11.31607,3.0045 15.51301,4.1688 13.32732,3.6972 13.08139,3.9825 13.08139,-15.1743 z m -660.48485,28.334699 c -16.1196,-3.521799 -29.7092,-6.804199 -30.1991,-7.294199 -0.9102,-0.9103 7.6437,-77.69155 8.7517,-78.55665 1.5349,-1.1983 57.3869,-15.7372 58.087,-15.1207 0.7585,0.6681 6.6055,26.447 6.7635,29.8199 0.041,0.8993 -9.9798,1.6502 -22.2708,1.6685 -12.2911,0.017 -23.3908,0.7542 -24.6661,1.6352 -2.2556,1.5583 -8.1843,44.15115 -6.3946,45.94085 0.493,0.493 12.2627,-0.3281 26.1552,-1.8245 13.8924,-1.4965 25.7365,-2.2431 26.3204,-1.6592 1.3866,1.3866 -10.05,32.241899 -11.8566,31.988199 -0.7602,-0.1068 -14.5711,-3.0757 -30.6906,-6.5974 z m 250.6015,-52.035849 c 0,-59.2682 -0.5945,-56.7248 13.2597,-56.7248 3.7502,0 6.3624,1.1577 6.3624,2.8199 0,1.551 1.9622,21.8663 4.3604,45.1452 2.3983,23.27885 4.3605,44.41035 4.3605,46.95885 0,3.6728 -2.9387,5.7996 -14.1715,10.2563 l -14.1715,5.622599 z m 73.7208,-4.4735 -34.2006,-47.8493 12.3983,-3.4389 c 6.8191,-1.8914 15.2429,-4.3535 18.7193,-5.4713 3.4766,-1.1179 6.5417,-2.0325 6.8114,-2.0325 0.2697,0 6.2292,16.6233 13.2428,36.9406 7.0138,20.3173 13.2555,36.43745 13.8706,35.82245 0.6148,-0.6149 4.2881,-15.89805 8.1628,-33.96245 3.8747,-18.0643 7.5159,-33.3152 8.0915,-33.8909 1.9251,-1.9251 16.53766,8.4829 16.53766,11.7792 0,4.8211 -26.69696,90.15835 -28.17056,90.04735 -0.6944,-0.052 -16.6528,-21.6271 -35.4632,-47.94425 z m -72.3082,-69.096 c -6.0835,-0.9096 -6.1853,-1.1507 -4.7017,-11.1195 0.8342,-5.6044 1.6827,-10.3658 1.8857,-10.5809 0.2028,-0.2152 5.0165,0.6002 10.6971,1.8117 10.9763,2.341 11.7281,3.7247 7.9349,14.6058 -2.4163,6.9315 -3.1502,7.1767 -15.816,5.2829 z"
   style="fill:#000000;stroke:none;stroke-width:11;stroke-miterlimit:4;stroke-dasharray:none" /><path
   sodipodi:nodetypes="ccccccccccccccc"
   inkscape:connector-curvature="0"
   id="path7116"
   d="m -1313.8479,20.939109 -43.9199,37.66406 19.2793,22.83203 28.5547,-23.25976 13.5583,13.63002 -52.0876,23.87779 -6.1919,50.244111 87.0901,21.5452 3.0159,-100.502031 z m 15.1895,86.798831 -4.0153,21.48793 -22.4908,-6.90853 5.3844,-15.72523 z"
   style="color:#000000;font-style:normal;font-variant:normal;font-weight:normal;font-stretch:normal;font-size:medium;line-height:normal;font-family:sans-serif;font-variant-ligatures:normal;font-variant-position:normal;font-variant-caps:normal;font-variant-numeric:normal;font-variant-alternates:normal;font-feature-settings:normal;text-indent:0;text-align:start;text-decoration:none;text-decoration-line:none;text-decoration-style:solid;text-decoration-color:#000000;letter-spacing:normal;word-spacing:normal;text-transform:none;writing-mode:lr-tb;direction:ltr;text-orientation:mixed;dominant-baseline:auto;baseline-shift:baseline;text-anchor:start;white-space:normal;shape-padding:0;clip-rule:nonzero;display:inline;overflow:visible;visibility:visible;opacity:1;isolation:auto;mix-blend-mode:normal;color-interpolation:sRGB;color-interpolation-filters:linearRGB;solid-color:#000000;solid-opacity:1;vector-effect:none;fill:#000000;fill-opacity:1;fill-rule:nonzero;stroke:none;stroke-width:7;stroke-linecap:butt;stroke-linejoin:miter;stroke-miterlimit:4;stroke-dasharray:none;stroke-dashoffset:0;stroke-opacity:1;color-rendering:auto;image-rendering:auto;shape-rendering:auto;text-rendering:auto;enable-background:accumulate" /><path
   sodipodi:nodetypes="ccccccccc"
   inkscape:connector-curvature="0"
   id="path7118"
   d="m -1392.9711,33.565309 -62.4258,16.35742 -8.5405,85.030141 68.2953,14.03861 10.4615,-37.12778 -43.8575,0.39744 7.0205,-34.937451 34.5047,-0.40212 z"
   style="color:#000000;font-style:normal;font-variant:normal;font-weight:normal;font-stretch:normal;font-size:medium;line-height:normal;font-family:sans-serif;font-variant-ligatures:normal;font-variant-position:normal;font-variant-caps:normal;font-variant-numeric:normal;font-variant-alternates:normal;font-feature-settings:normal;text-indent:0;text-align:start;text-decoration:none;text-decoration-line:none;text-decoration-style:solid;text-decoration-color:#000000;letter-spacing:normal;word-spacing:normal;text-transform:none;writing-mode:lr-tb;direction:ltr;text-orientation:mixed;dominant-baseline:auto;baseline-shift:baseline;text-anchor:start;white-space:normal;shape-padding:0;clip-rule:nonzero;display:inline;overflow:visible;visibility:visible;opacity:1;isolation:auto;mix-blend-mode:normal;color-interpolation:sRGB;color-interpolation-filters:linearRGB;solid-color:#000000;solid-opacity:1;vector-effect:none;fill:#000000;fill-opacity:1;fill-rule:nonzero;stroke:none;stroke-width:7;stroke-linecap:butt;stroke-linejoin:miter;stroke-miterlimit:4;stroke-dasharray:none;stroke-dashoffset:0;stroke-opacity:1;color-rendering:auto;image-rendering:auto;shape-rendering:auto;text-rendering:auto;enable-background:accumulate" /><path
   sodipodi:nodetypes="cccccccccccc"
   inkscape:connector-curvature="0"
   id="path7120"
   d="m -1241.2839,18.333479 5.1712,157.116711 32.9539,0.64954 -2.4493,-45.53187 51.0302,-12.21507 -13.0519,-84.101531 z m 31.7773,33.36914 17.1011,5.74383 5.9024,27.96716 -17.0486,7.20795 z"
   style="color:#000000;font-style:normal;font-variant:normal;font-weight:normal;font-stretch:normal;font-size:medium;line-height:normal;font-family:sans-serif;font-variant-ligatures:normal;font-variant-position:normal;font-variant-caps:normal;font-variant-numeric:normal;font-variant-alternates:normal;font-feature-settings:normal;text-indent:0;text-align:start;text-decoration:none;text-decoration-line:none;text-decoration-style:solid;text-decoration-color:#000000;letter-spacing:normal;word-spacing:normal;text-transform:none;writing-mode:lr-tb;direction:ltr;text-orientation:mixed;dominant-baseline:auto;baseline-shift:baseline;text-anchor:start;white-space:normal;shape-padding:0;clip-rule:nonzero;display:inline;overflow:visible;visibility:visible;opacity:1;isolation:auto;mix-blend-mode:normal;color-interpolation:sRGB;color-interpolation-filters:linearRGB;solid-color:#000000;solid-opacity:1;vector-effect:none;fill:#000000;fill-opacity:1;fill-rule:nonzero;stroke:none;stroke-width:7;stroke-linecap:butt;stroke-linejoin:miter;stroke-miterlimit:4;stroke-dasharray:none;stroke-dashoffset:0;stroke-opacity:1;color-rendering:auto;image-rendering:auto;shape-rendering:auto;text-rendering:auto;enable-background:accumulate" /><path
   sodipodi:nodetypes="cccccccccc"
   inkscape:connector-curvature="0"
   id="path7122"
   d="m -1117.6908,-15.560001 -8.4064,18.2506701 21.4923,15.5528699 12.1108,-20.8380299 z m -2.925,42.52492 -1.2078,120.457691 37.8834,-18.90283 -12.7858,-104.598081 z"
   style="color:#000000;font-style:normal;font-variant:normal;font-weight:normal;font-stretch:normal;font-size:medium;line-height:normal;font-family:sans-serif;font-variant-ligatures:normal;font-variant-position:normal;font-variant-caps:normal;font-variant-numeric:normal;font-variant-alternates:normal;font-feature-settings:normal;text-indent:0;text-align:start;text-decoration:none;text-decoration-line:none;text-decoration-style:solid;text-decoration-color:#000000;letter-spacing:normal;word-spacing:normal;text-transform:none;writing-mode:lr-tb;direction:ltr;text-orientation:mixed;dominant-baseline:auto;baseline-shift:baseline;text-anchor:start;white-space:normal;shape-padding:0;clip-rule:nonzero;display:inline;overflow:visible;visibility:visible;opacity:1;isolation:auto;mix-blend-mode:normal;color-interpolation:sRGB;color-interpolation-filters:linearRGB;solid-color:#000000;solid-opacity:1;vector-effect:none;fill:#000000;fill-opacity:1;fill-rule:nonzero;stroke:none;stroke-width:7;stroke-linecap:butt;stroke-linejoin:miter;stroke-miterlimit:4;stroke-dasharray:none;stroke-dashoffset:0;stroke-opacity:1;color-rendering:auto;image-rendering:auto;shape-rendering:auto;text-rendering:auto;enable-background:accumulate" /><path
   sodipodi:nodetypes="ccccccc"
   inkscape:connector-curvature="0"
   id="path7124"
   d="m -1027.5607,30.621389 -46.9766,13.24414 75.78129,103.656251 40.34812,-104.392461 -26.22933,-7.81064 -18.77548,51.84487 z"
   style="color:#000000;font-style:normal;font-variant:normal;font-weight:normal;font-stretch:normal;font-size:medium;line-height:normal;font-family:sans-serif;font-variant-ligatures:normal;font-variant-position:normal;font-variant-caps:normal;font-variant-numeric:normal;font-variant-alternates:normal;font-feature-settings:normal;text-indent:0;text-align:start;text-decoration:none;text-decoration-line:none;text-decoration-style:solid;text-decoration-color:#000000;letter-spacing:normal;word-spacing:normal;text-transform:none;writing-mode:lr-tb;direction:ltr;text-orientation:mixed;dominant-baseline:auto;baseline-shift:baseline;text-anchor:start;white-space:normal;shape-padding:0;clip-rule:nonzero;display:inline;overflow:visible;visibility:visible;opacity:1;isolation:auto;mix-blend-mode:normal;color-interpolation:sRGB;color-interpolation-filters:linearRGB;solid-color:#000000;solid-opacity:1;vector-effect:none;fill:#000000;fill-opacity:1;fill-rule:nonzero;stroke:none;stroke-width:7;stroke-linecap:butt;stroke-linejoin:miter;stroke-miterlimit:4;stroke-dasharray:none;stroke-dashoffset:0;stroke-opacity:1;color-rendering:auto;image-rendering:auto;shape-rendering:auto;text-rendering:auto;enable-background:accumulate" /><path
   style="color:#000000;font-style:normal;font-variant:normal;font-weight:normal;font-stretch:normal;font-size:medium;line-height:normal;font-family:sans-serif;font-variant-ligatures:normal;font-variant-position:normal;font-variant-caps:normal;font-variant-numeric:normal;font-variant-alternates:normal;font-feature-settings:normal;text-indent:0;text-align:start;text-decoration:none;text-decoration-line:none;text-decoration-style:solid;text-decoration-color:#000000;letter-spacing:normal;word-spacing:normal;text-transform:none;writing-mode:lr-tb;direction:ltr;text-orientation:mixed;dominant-baseline:auto;baseline-shift:baseline;text-anchor:start;white-space:normal;shape-padding:0;clip-rule:nonzero;display:inline;overflow:visible;visibility:visible;opacity:1;isolation:auto;mix-blend-mode:normal;color-interpolation:sRGB;color-interpolation-filters:linearRGB;solid-color:#000000;solid-opacity:1;vector-effect:none;fill:#000000;fill-opacity:1;fill-rule:nonzero;stroke:none;stroke-width:7;stroke-linecap:butt;stroke-linejoin:miter;stroke-miterlimit:4;stroke-dasharray:none;stroke-dashoffset:0;stroke-opacity:1;color-rendering:auto;image-rendering:auto;shape-rendering:auto;text-rendering:auto;enable-background:accumulate"
   d="m -907.96855,20.939109 -43.9199,37.66406 19.2793,22.83203 28.5547,-23.25976 13.5583,13.63002 -52.0876,23.87779 -6.1919,50.244111 87.0901,21.5452 3.0159,-100.502031 z m 15.1895,86.798831 -4.0153,21.48793 -22.4908,-6.90853 5.3844,-15.72523 z"
   id="path7126"
   inkscape:connector-curvature="0"
   sodipodi:nodetypes="ccccccccccccccc" /><path
   sodipodi:nodetypes="cccccccccccc"
   inkscape:connector-curvature="0"
   id="path7128"
   d="m -843.69377,13.649609 4.73283,47.62897 9.34722,103.741541 34.00781,-22.58008 -2.57178,-66.012041 5.87351,-20.0071 38.57271,8.11228 4.76379,-43.1392 -39.75749,-1.754 -17.53752,12.84355 -13.32136,-24.3936799 z"
   style="color:#000000;font-style:normal;font-variant:normal;font-weight:normal;font-stretch:normal;font-size:medium;line-height:normal;font-family:sans-serif;font-variant-ligatures:normal;font-variant-position:normal;font-variant-caps:normal;font-variant-numeric:normal;font-variant-alternates:normal;font-feature-settings:normal;text-indent:0;text-align:start;text-decoration:none;text-decoration-line:none;text-decoration-style:solid;text-decoration-color:#000000;letter-spacing:normal;word-spacing:normal;text-transform:none;writing-mode:lr-tb;direction:ltr;text-orientation:mixed;dominant-baseline:auto;baseline-shift:baseline;text-anchor:start;white-space:normal;shape-padding:0;clip-rule:nonzero;display:inline;overflow:visible;visibility:visible;opacity:1;isolation:auto;mix-blend-mode:normal;color-interpolation:sRGB;color-interpolation-filters:linearRGB;solid-color:#000000;solid-opacity:1;vector-effect:none;fill:#000000;fill-opacity:1;fill-rule:nonzero;stroke:none;stroke-width:7;stroke-linecap:butt;stroke-linejoin:miter;stroke-miterlimit:4;stroke-dasharray:none;stroke-dashoffset:0;stroke-opacity:1;color-rendering:auto;image-rendering:auto;shape-rendering:auto;text-rendering:auto;enable-background:accumulate" /><path
   sodipodi:nodetypes="ccccccccccccccc"
   inkscape:connector-curvature="0"
   id="path7130"
   d="m -694.4223,20.939109 -43.9199,37.66406 19.2793,22.83203 28.5547,-23.25976 13.5583,13.63002 -52.0876,23.87779 -6.1919,50.244111 87.0901,21.5452 3.0159,-100.502031 z m 15.1895,86.798831 -4.0153,21.48793 -22.4908,-6.90853 5.3844,-15.72523 z"
   style="color:#000000;font-style:normal;font-variant:normal;font-weight:normal;font-stretch:normal;font-size:medium;line-height:normal;font-family:sans-serif;font-variant-ligatures:normal;font-variant-position:normal;font-variant-caps:normal;font-variant-numeric:normal;font-variant-alternates:normal;font-feature-settings:normal;text-indent:0;text-align:start;text-decoration:none;text-decoration-line:none;text-decoration-style:solid;text-decoration-color:#000000;letter-spacing:normal;word-spacing:normal;text-transform:none;writing-mode:lr-tb;direction:ltr;text-orientation:mixed;dominant-baseline:auto;baseline-shift:baseline;text-anchor:start;white-space:normal;shape-padding:0;clip-rule:nonzero;display:inline;overflow:visible;visibility:visible;opacity:1;isolation:auto;mix-blend-mode:normal;color-interpolation:sRGB;color-interpolation-filters:linearRGB;solid-color:#000000;solid-opacity:1;vector-effect:none;fill:#000000;fill-opacity:1;fill-rule:nonzero;stroke:none;stroke-width:7;stroke-linecap:butt;stroke-linejoin:miter;stroke-miterlimit:4;stroke-dasharray:none;stroke-dashoffset:0;stroke-opacity:1;color-rendering:auto;image-rendering:auto;shape-rendering:auto;text-rendering:auto;enable-background:accumulate" /><path
   style="color:#000000;font-style:normal;font-variant:normal;font-weight:normal;font-stretch:normal;font-size:medium;line-height:normal;font-family:sans-serif;font-variant-ligatures:normal;font-variant-position:normal;font-variant-caps:normal;font-variant-numeric:normal;font-variant-alternates:normal;font-feature-settings:normal;text-indent:0;text-align:start;text-decoration:none;text-decoration-line:none;text-decoration-style:solid;text-decoration-color:#000000;letter-spacing:normal;word-spacing:normal;text-transform:none;writing-mode:lr-tb;direction:ltr;text-orientation:mixed;dominant-baseline:auto;baseline-shift:baseline;text-anchor:start;white-space:normal;shape-padding:0;clip-rule:nonzero;display:inline;overflow:visible;visibility:visible;opacity:1;isolation:auto;mix-blend-mode:normal;color-interpolation:sRGB;color-interpolation-filters:linearRGB;solid-color:#000000;solid-opacity:1;vector-effect:none;fill:#ffffff;fill-opacity:1;fill-rule:nonzero;stroke:none;stroke-width:46.23329544;stroke-linecap:butt;stroke-linejoin:miter;stroke-miterlimit:4;stroke-dasharray:none;stroke-dashoffset:0;stroke-opacity:1;color-rendering:auto;image-rendering:auto;shape-rendering:auto;text-rendering:auto;enable-background:accumulate"
   d="m -2736.4798,923.80082 -10.0984,21.93974 -34.9519,75.89364 -0.085,0.1806 -179.1811,-38.72038 1.4899,44.99318 -49.8091,-46.51021 -36.6405,31.40611 -3.6722,3.1485 -25.3982,21.7802 -13.7134,-65.16911 -58.0265,20.42272 -8.1932,2.88356 -172.8932,60.85273 -5.1019,284.3468 262.7261,31.8335 10.6463,-54.625 110.3008,27.2884 0.5808,18.1171 30.7561,0.605 -16.8981,9.7704 23.9263,45.8028 87.6718,167.8426 112.1489,-15.2305 1.9745,-4.5993 80.1557,16.4767 7.9765,-15.5857 66.3159,21.2836 4.7768,-9.8486 7.1908,14.1076 56.9097,-26.5208 c 0.3759,0.1418 0.797,0.334 1.1739,0.4905 3.9011,1.6213 7.678,2.8451 11.2062,3.9011 3.5281,1.0559 6.758,1.9032 9.1654,2.5072 1.2036,0.302 2.1982,0.5417 2.9136,0.7104 0.3577,0.085 0.6473,0.1542 0.8579,0.2016 0.1052,0.025 0.1884,0.042 0.2588,0.057 0.033,0 0.062,0.015 0.096,0.022 l 8.0728,0.3673 55.7328,-7.3114 44.0932,52.9939 53.4482,-47.1033 6.2849,17.1237 58.6344,-3.1363 c 31.326,-1.6748 58.6707,-5.8895 83.3433,-16.8107 26.0141,-11.5152 49.3383,-32.9121 58.0655,-62.9328 5.2938,-18.21 4.873,-35.6104 2.4923,-50.9227 -2.3149,-14.8894 -7.025,-32.5191 -19.4896,-48.861 -0.6081,-0.7973 -1.3636,-1.4841 -2.0047,-2.2545 l -17.9395,-94.5886 201.4129,49.8272 7.6573,-255.1831 -134.3926,-125.4861 -27.3938,23.4808 -122.3647,-5.39685 -14.3155,-26.21392 -39.8551,9.19249 -92.0121,21.21738 0.9512,9.5687 -34.1242,-31.86366 -36.6375,31.43326 -3.6631,3.1394 -25.0761,21.5063 -83.0785,-24.7421 -3.4404,-8.0547 -45.6193,12.8557 -4.5631,1.2852 -14.2432,4.0153 12.9489,-22.2798 z m 174.4434,382.61968 -47.9369,0.8729 -5.3819,12.7261 -45.1497,-24.742 57.1206,-25.8576 z"
   id="path7243"
   inkscape:connector-curvature="0"
   sodipodi:nodetypes="cccccccccccccccccccccccccccccccccccccccccccccssccccccccccccccccccccccccccccc"
   inkscape:export-xdpi="300"
   inkscape:export-ydpi="300" /><path
   style="color:#000000;font-style:normal;font-variant:normal;font-weight:normal;font-stretch:normal;font-size:medium;line-height:normal;font-family:sans-serif;font-variant-ligatures:normal;font-variant-position:normal;font-variant-caps:normal;font-variant-numeric:normal;font-variant-alternates:normal;font-feature-settings:normal;text-indent:0;text-align:start;text-decoration:none;text-decoration-line:none;text-decoration-style:solid;text-decoration-color:#000000;letter-spacing:normal;word-spacing:normal;text-transform:none;writing-mode:lr-tb;direction:ltr;text-orientation:mixed;dominant-baseline:auto;baseline-shift:baseline;text-anchor:start;white-space:normal;shape-padding:0;clip-rule:nonzero;display:inline;overflow:visible;visibility:visible;opacity:1;isolation:auto;mix-blend-mode:normal;color-interpolation:sRGB;color-interpolation-filters:linearRGB;solid-color:#000000;solid-opacity:1;vector-effect:none;fill:#0a5500;fill-opacity:1;fill-rule:nonzero;stroke:none;stroke-width:61.64439011;stroke-linecap:butt;stroke-linejoin:miter;stroke-miterlimit:4;stroke-dasharray:none;stroke-dashoffset:0;stroke-opacity:1;color-rendering:auto;image-rendering:auto;shape-rendering:auto;text-rendering:auto;enable-background:accumulate"
   d="m -2676.828,1312.6932 -17.2532,56.7231 -35.2047,-49.484 -34.997,54.4234 -23.2281,-58.4839 -116.3869,67.2941 13.6713,26.1718 80.1558,153.4547 83.0966,-11.2843 4.247,-9.8937 81.3959,16.7324 8.9126,-17.4128 65.9065,21.1512 16.1877,-33.3656 0.2257,-0.038 18.0569,35.4274 48.8128,-22.7464 c 0.6107,0.7904 0.8673,1.3756 1.7097,2.2876 4.2743,4.6272 26.6577,9.6535 26.6624,9.6529 l 68.3627,-8.9666 37.0287,44.5024 60.9521,-53.716 12.04,32.8087 41.5828,-2.2243 c 29.9231,-1.5998 54.3831,-5.6432 75.2194,-14.8663 20.8364,-9.2232 38.8617,-26.3579 45.225,-48.247 4.138,-14.2347 3.9039,-27.6953 1.8481,-40.9176 -2.0557,-13.2224 -5.5128,-25.9232 -15.0258,-38.3954 -1.4657,-1.9216 -3.2097,-3.8803 -5.1651,-5.7971 l -17.9546,-94.6549 h -25.5246 c -26.8735,0 -50.3081,6.6238 -70.8971,11.8081 l -1.0986,0.2769 -1.0776,0.3582 c -16.2548,5.39 -30.7586,12.6868 -42.525,23.2973 -23.9622,-17.6746 -55.7423,-25.9601 -94.9829,-32.1496 -10.97,-1.7304 -24.6495,-3.4817 -36.0987,-4.7498 -5.7246,-0.634 -10.8191,-1.1423 -14.9777,-1.4628 -2.0793,-0.1603 -3.8447,-0.2805 -5.9116,-0.3281 -1.0334,-0.024 -2.0336,-0.064 -4.0695,0.078 -1.0179,0.071 -2.2162,0.1193 -4.7708,0.6772 -2.5546,0.558 -7.1637,-1.7023 -17.2893,10.4778 v 0 c -6.5175,7.8386 -5.3159,9.1772 -5.7762,10.6673 -0.4602,1.4901 -0.604,2.2143 -0.7314,2.8144 -0.2549,1.2002 -0.328,1.7448 -0.4063,2.2695 -0.1567,1.0494 -0.2379,1.7795 -0.3341,2.6337 -0.1925,1.7084 -0.3916,3.719 -0.6231,6.2186 -0.463,4.9994 -1.0439,11.8319 -1.7097,19.9862 -0.2119,2.5955 -0.5015,6.6014 -0.7284,9.4393 l -28.1162,-56.5785 -86.1426,1.5712 -9.4935,22.4515 z m 389.7955,49.448 0.2919,0.2408 c -0.052,-0.043 -0.1108,-0.077 -0.1625,-0.1202 -0.047,-0.038 -0.082,-0.082 -0.1295,-0.1202 z"
   id="path7214"
   inkscape:connector-curvature="0"
   sodipodi:nodetypes="ccccccccccccccccccccccccccscccsccccccccsccccccccscccccccccc"
   inkscape:export-xdpi="300"
   inkscape:export-ydpi="300" /><path
   style="color:#000000;font-style:normal;font-variant:normal;font-weight:normal;font-stretch:normal;font-size:medium;line-height:normal;font-family:sans-serif;font-variant-ligatures:normal;font-variant-position:normal;font-variant-caps:normal;font-variant-numeric:normal;font-variant-alternates:normal;font-feature-settings:normal;text-indent:0;text-align:start;text-decoration:none;text-decoration-line:none;text-decoration-style:solid;text-decoration-color:#000000;letter-spacing:normal;word-spacing:normal;text-transform:none;writing-mode:lr-tb;direction:ltr;text-orientation:mixed;dominant-baseline:auto;baseline-shift:baseline;text-anchor:start;white-space:normal;shape-padding:0;clip-rule:nonzero;display:inline;overflow:visible;visibility:visible;opacity:1;isolation:auto;mix-blend-mode:normal;color-interpolation:sRGB;color-interpolation-filters:linearRGB;solid-color:#000000;solid-opacity:1;vector-effect:none;fill:#5a2500;fill-opacity:1;fill-rule:nonzero;stroke:none;stroke-width:61.64439011;stroke-linecap:butt;stroke-linejoin:miter;stroke-miterlimit:4;stroke-dasharray:none;stroke-dashoffset:0;stroke-opacity:1;color-rendering:auto;image-rendering:auto;shape-rendering:auto;text-rendering:auto;enable-background:accumulate"
   d="m -2725.5806,955.4056 -13.4667,29.25401 -2.3539,5.11697 -25.4132,55.16092 7.3474,5.3156 -177.2427,-38.302 1.3093,39.4939 0.2258,6.8959 0.7917,24.6427 -75.391,-70.3944 -20.9375,17.9455 -3.6691,3.1454 -55.0285,47.1875 -16.3231,-77.5672 -33.1579,11.6697 -8.1932,2.8836 -157.744,55.5221 -4.4398,247.4324 220.6648,26.7376 11.179,-57.3642 150.8842,37.3268 0.4395,13.6743 68.4199,1.3455 61.3494,-36.9204 -7.2993,-47.9069 52.6476,-12.6028 -0.7012,69.8406 134.242,-66.9811 -8.2925,-67.8359 110.4031,151.0107 31.0058,-80.222 -3.7384,30.3286 191.2361,47.3108 1.6645,18.4663 120.0049,-79.6802 -4.232,-108.6573 34.6328,7.2842 -14.2071,115.2762 208.9408,51.6903 6.4834,-216.1075 -111.6311,-104.2326 -20.9374,17.9455 -3.6692,3.1454 -23.1256,19.8328 2.8835,-26.1146 -112.6395,-4.9695 -3.94,2.8866 -13.873,-25.40422 -22.7735,5.25242 -72.1914,16.6482 3.1515,31.7101 1.8571,18.674 -63.8507,-59.6157 -20.9374,17.9635 -3.6632,3.1394 -34.6418,29.7086 -82.3501,-24.5223 -9.2918,25.663 -13.6382,-31.9298 -26.0694,7.3473 -4.5602,1.2853 -61.1688,17.2442 -1.1648,-9.5266 22.5538,-38.8107 z m -27.3849,99.5521 3.8559,2.7933 -0.1172,12.3499 -0.085,8.4039 z"
   id="path7145"
   inkscape:connector-curvature="0"
   sodipodi:nodetypes="cccccccccccccccccccccccccccccccccccccccccccccccccccccccccccccccccccccc"
   inkscape:export-xdpi="300"
   inkscape:export-ydpi="300" /><g
   style="fill:#ff6600"
   id="g7210"
   transform="matrix(1.5411098,0,0,1.5411098,-1167.8738,-179.32678)"
   inkscape:export-xdpi="300"
   inkscape:export-ydpi="300"><path
     style="color:#000000;font-style:normal;font-variant:normal;font-weight:normal;font-stretch:normal;font-size:medium;line-height:normal;font-family:sans-serif;font-variant-ligatures:normal;font-variant-position:normal;font-variant-caps:normal;font-variant-numeric:normal;font-variant-alternates:normal;font-feature-settings:normal;text-indent:0;text-align:start;text-decoration:none;text-decoration-line:none;text-decoration-style:solid;text-decoration-color:#000000;letter-spacing:normal;word-spacing:normal;text-transform:none;writing-mode:lr-tb;direction:ltr;text-orientation:mixed;dominant-baseline:auto;baseline-shift:baseline;text-anchor:start;white-space:normal;shape-padding:0;clip-rule:nonzero;display:inline;overflow:visible;visibility:visible;opacity:1;isolation:auto;mix-blend-mode:normal;color-interpolation:sRGB;color-interpolation-filters:linearRGB;solid-color:#000000;solid-opacity:1;vector-effect:none;fill:#ff6600;fill-opacity:1;fill-rule:nonzero;stroke:none;stroke-width:7;stroke-linecap:butt;stroke-linejoin:miter;stroke-miterlimit:4;stroke-dasharray:none;stroke-dashoffset:0;stroke-opacity:1;color-rendering:auto;image-rendering:auto;shape-rendering:auto;text-rendering:auto;enable-background:accumulate"
     d="m -1001.3398,763.6543 -1.5293,3.3223 -9.6114,20.8632 24.5039,17.7325 -18.1093,2.3066 -0.029,3.0508 -1.2657,126.1797 45.21488,-22.5606 -13.51171,-110.5429 -8.53517,1.0879 14.59571,-25.1153 z m 301.55464,24.4297 -29.69531,6.8476 0.30469,3.0645 4.73047,47.6133 9.87304,109.5761 40.54102,-26.9179 -2.62695,-67.4043 4.80078,-16.3516 39.18164,8.2403 5.59766,-50.6895 -44.72266,-1.9727 -15.30664,11.209 z m -427.14454,9.8808 0.1485,4.4844 5.2792,164.5606 19.6453,0.38711 23.3907,-14.07585 -5.491,-36.02806 51.332,-12.2871 -13.9141,-89.668 z m -68.8183,2.2793 -2.379,2.0391 -46.5566,39.9238 23.7402,28.1133 28.7637,-23.4297 7.7832,7.8242 -49.3008,22.6016 -6.8105,55.2637 94.3105,23.332 3.1934,-106.4199 z m 405.87886,0 -2.37695,2.0391 -46.55664,39.9238 23.73828,28.1133 28.76367,-23.4297 7.7832,7.8242 -49.30078,22.6016 -6.81055,55.2637 94.3125,23.332 3.19336,-106.4199 z m 213.54687,0 -2.3789,2.0391 -46.55664,39.9238 23.73828,28.1133 28.76562,-23.4297 7.78321,7.8242 -49.30078,22.6016 -6.81055,55.2637 94.31055,23.332 3.19336,-106.4199 z m -331.22851,10.1739 -2.95899,0.834 -51.82617,14.6113 82.53516,112.8945 44.02344,-113.9023 -33.02539,-9.834 -16.87696,46.6035 z m -179.67192,30.414 9.8067,3.295 4.8926,23.1855 -10.2168,4.3203 z m -112.1035,53.3985 14.4942,0.7851 -2.5606,13.7149 -15.291,-4.6993 z m 405.87893,0 14.4961,0.7851 -2.5625,13.7149 -15.29102,-4.6993 z m 213.54688,0 14.49414,0.7851 -2.5625,13.7129 -15.28906,-4.6973 z"
     id="path7206"
     inkscape:connector-curvature="0"
     sodipodi:nodetypes="ccccccccccccccccccccccccccccccccccccccccccccccccccccccccccccccccccccccccccccccccccccccccccccccc" /><path
     sodipodi:nodetypes="cccccccccc"
     inkscape:connector-curvature="0"
     id="path7208"
     d="m -1272.3176,793.82336 -5.3172,1.87209 -89.2494,31.41346 -2.3095,128.61999 106.7959,12.93933 12.5664,-64.48127 -62.2082,5.68999 4.6656,-39.98228 50.0723,-4.71281 z"
     style="color:#000000;font-style:normal;font-variant:normal;font-weight:normal;font-stretch:normal;font-size:medium;line-height:normal;font-family:sans-serif;font-variant-ligatures:normal;font-variant-position:normal;font-variant-caps:normal;font-variant-numeric:normal;font-variant-alternates:normal;font-feature-settings:normal;text-indent:0;text-align:start;text-decoration:none;text-decoration-line:none;text-decoration-style:solid;text-decoration-color:#000000;letter-spacing:normal;word-spacing:normal;text-transform:none;writing-mode:lr-tb;direction:ltr;text-orientation:mixed;dominant-baseline:auto;baseline-shift:baseline;text-anchor:start;white-space:normal;shape-padding:0;clip-rule:nonzero;display:inline;overflow:visible;visibility:visible;opacity:1;isolation:auto;mix-blend-mode:normal;color-interpolation:sRGB;color-interpolation-filters:linearRGB;solid-color:#000000;solid-opacity:1;vector-effect:none;fill:#ff6600;fill-opacity:1;fill-rule:nonzero;stroke:none;stroke-width:9.89025974;stroke-linecap:butt;stroke-linejoin:miter;stroke-miterlimit:4;stroke-dasharray:none;stroke-dashoffset:0;stroke-opacity:1;color-rendering:auto;image-rendering:auto;shape-rendering:auto;text-rendering:auto;enable-background:accumulate" /></g><path
   style="fill:#2eff19;fill-opacity:1;stroke-width:1.5411098"
   d="m -2391.4959,1490.1364 -0.1539,23.7881 -67.2165,8.8168 c -1.1937,0.1566 11.5994,-170.72 12.6014,-171.9251 0.73,-0.8782 34.1969,2.8285 54.6118,6.0486 39.1109,6.1691 70.4881,16.9179 85.1479,29.1688 11.5694,9.4301 15.0522,23.8203 14.2511,33.1145 -2.5539,29.6275 -19.2892,48.0578 -42.8324,57.3054 l 37.9776,25.1593 -48.9447,43.1357 z m 42.9939,-70.4932 c -0.1649,-10.3752 -40.5226,-13.252 -49.3155,-13.8655 v 21.8465 c 9.6842,1.3393 49.4439,0.096 49.3155,-7.981 z m 71.2031,56.5783 c 12.2653,0.6351 24.8235,2.0465 37.6005,2.164 33.8842,0.2303 30.6826,-10.2936 -4.9624,-16.3112 -17.4677,-2.9488 -22.8602,-4.9027 -29.9165,-10.8402 -6.8316,-5.7485 -10.8283,-15.4797 -11.8374,-28.8226 -2.1622,-28.5894 12.2639,-46.4423 46.7749,-57.8859 20.8883,-5.2597 41.8623,-10.8747 63.3718,-10.8747 l 10.7358,56.6 -20.4385,0.78 c -15.6948,0.5989 -21.8158,1.4525 -26.373,3.678 -14.4948,7.0785 -5.0109,12.7427 24.1171,14.4043 21.7388,1.24 29.2856,3.9281 36.0967,12.8579 8.8333,11.5812 12.6694,36.2548 8.0874,52.0166 -7.219,24.8326 -36.8966,37.9693 -92.4922,40.9415 l -18.8485,1.0075 z m -585.6078,-81.1527 59.9257,-34.6495 32.1887,81.0463 42.7948,-66.5506 45.1557,63.4718 24.4658,-80.4376 66.3787,36.3733 -66.0902,129.1122 -54.798,-11.2651 -13.1101,-41.0767 -22.4181,52.2205 -44.3588,6.024 z m 226.8871,112.3355 62.0765,-146.8184 46.6255,-0.8506 67.8557,136.5447 -58.6294,27.3222 -14.894,-29.2246 -38.1943,6.7139 -11.3866,23.47 z m 94.5622,-61.266 -6.8214,-21.5964 -8.9963,21.4267 z"
   id="path7143"
   inkscape:connector-curvature="0"
   sodipodi:nodetypes="ccscscsccccsccsccccccccscsccccccccccccccccccccccccccccccc"
   inkscape:export-xdpi="300"
   inkscape:export-ydpi="300" /><path
   sodipodi:nodetypes="ccscscsccccsccsccccccccscsccccccccccccccccccccccccccccccc"
   inkscape:connector-curvature="0"
   id="path7212"
   d="m -2391.4959,1490.1364 -0.1539,23.7881 -67.2165,8.8168 c -1.1937,0.1566 11.5994,-170.72 12.6014,-171.9251 0.73,-0.8782 34.1969,2.8285 54.6118,6.0486 39.1109,6.1691 70.4881,16.9179 85.1479,29.1688 11.5694,9.4301 15.0522,23.8203 14.2511,33.1145 -2.5539,29.6275 -19.2892,48.0578 -42.8324,57.3054 l 37.9776,25.1593 -48.9447,43.1357 z m 42.9939,-70.4932 c -0.1649,-10.3752 -40.5226,-13.252 -49.3155,-13.8655 v 21.8465 c 9.6842,1.3393 49.4439,0.096 49.3155,-7.981 z m 71.2031,56.5783 c 12.2653,0.6351 24.8235,2.0465 37.6005,2.164 33.8842,0.2303 30.6826,-10.2936 -4.9624,-16.3112 -17.4677,-2.9488 -22.8602,-4.9027 -29.9165,-10.8402 -6.8316,-5.7485 -10.8283,-15.4797 -11.8374,-28.8226 -2.1622,-28.5894 12.2639,-46.4423 46.7749,-57.8859 20.8883,-5.2597 41.8623,-10.8747 63.3718,-10.8747 l 10.7358,56.6 -20.4385,0.78 c -15.6948,0.5989 -21.8158,1.4525 -26.373,3.678 -14.4948,7.0785 -5.0109,12.7427 24.1171,14.4043 21.7388,1.24 29.2856,3.9281 36.0967,12.8579 8.8333,11.5812 12.6694,36.2548 8.0874,52.0166 -7.219,24.8326 -36.8966,37.9693 -92.4922,40.9415 l -18.8485,1.0075 z m -585.6078,-81.1527 59.9257,-34.6495 32.1887,81.0463 42.7948,-66.5506 45.1557,63.4718 24.4658,-80.4376 66.3787,36.3733 -66.0902,129.1122 -54.798,-11.2651 -13.1101,-41.0767 -22.4181,52.2205 -44.3588,6.024 z m 226.8871,112.3355 62.0765,-146.8184 46.6255,-0.8506 67.8557,136.5447 -58.6294,27.3222 -14.894,-29.2246 -38.1943,6.7139 -11.3866,23.47 z m 94.5622,-61.266 -6.8214,-21.5964 -8.9963,21.4267 z"
   style="fill:#3ded2b;fill-opacity:1;stroke-width:1.5411098"
   inkscape:export-xdpi="300"
   inkscape:export-ydpi="300" /><g
   transform="matrix(1.5411098,0,0,1.5411098,368.1262,-179.32678)"
   id="g7282"
   inkscape:export-xdpi="300"
   inkscape:export-ydpi="300"><path
     style="color:#000000;font-style:normal;font-variant:normal;font-weight:normal;font-stretch:normal;font-size:medium;line-height:normal;font-family:sans-serif;font-variant-ligatures:normal;font-variant-position:normal;font-variant-caps:normal;font-variant-numeric:normal;font-variant-alternates:normal;font-feature-settings:normal;text-indent:0;text-align:start;text-decoration:none;text-decoration-line:none;text-decoration-style:solid;text-decoration-color:#000000;letter-spacing:normal;word-spacing:normal;text-transform:none;writing-mode:lr-tb;direction:ltr;text-orientation:mixed;dominant-baseline:auto;baseline-shift:baseline;text-anchor:start;white-space:normal;shape-padding:0;clip-rule:nonzero;display:inline;overflow:visible;visibility:visible;opacity:1;isolation:auto;mix-blend-mode:normal;color-interpolation:sRGB;color-interpolation-filters:linearRGB;solid-color:#000000;solid-opacity:1;vector-effect:none;fill:#0a5500;fill-opacity:1;fill-rule:nonzero;stroke:none;stroke-width:40;stroke-linecap:butt;stroke-linejoin:miter;stroke-miterlimit:4;stroke-dasharray:none;stroke-dashoffset:0;stroke-opacity:1;color-rendering:auto;image-rendering:auto;shape-rendering:auto;text-rendering:auto;enable-background:accumulate"
     d="m -979.13477,968.14648 -11.19531,36.80662 -22.84372,-32.10935 -22.709,35.31445 -15.0723,-37.94922 -75.5215,43.66602 8.8711,16.9824 52.0117,99.5742 53.92,-7.3222 2.7558,-6.4199 52.81644,10.8574 5.7832,-11.2989 42.76563,13.7247 10.5039,-21.6504 0.14649,-0.025 11.71679,22.9883 31.67383,-14.7598 c 0.39624,0.5129 0.56278,0.8926 1.10938,1.4844 2.77352,3.0025 17.29775,6.264 17.30078,6.2636 l 44.35937,-5.8183 24.02735,28.8769 39.55078,-34.8554 7.8125,21.289 26.98242,-1.4433 c 19.4166,-1.0381 35.28825,-3.6618 48.80859,-9.6465 13.52035,-5.9848 25.21666,-17.1032 29.34571,-31.3067 2.68511,-9.2366 2.53316,-17.971 1.19922,-26.5507 -1.33395,-8.5798 -3.57717,-16.8211 -9.75,-24.9141 -0.95104,-1.2469 -2.0827,-2.5179 -3.35157,-3.7617 l -11.65039,-61.41994 h -16.5625 c -17.43777,0 -32.64408,4.29809 -46.0039,7.66211 l -0.7129,0.17968 -0.69921,0.23243 c -10.54746,3.49748 -19.95877,8.23221 -27.59375,15.11718 -15.54866,-11.46874 -36.17028,-16.84502 -61.63282,-20.86133 -7.11826,-1.12278 -15.99464,-2.25919 -23.42382,-3.08203 -3.7146,-0.41141 -7.02032,-0.74123 -9.71875,-0.94922 -1.34922,-0.10399 -2.4948,-0.182 -3.83594,-0.21289 -0.67057,-0.0154 -1.31958,-0.0416 -2.64063,0.0508 -0.66052,0.0462 -1.43805,0.0774 -3.0957,0.43945 -1.65765,0.36204 -4.6484,-1.1046 -11.21875,6.79883 h 0.002 c -4.22906,5.08638 -3.44939,5.95497 -3.74804,6.92187 -0.29866,0.9669 -0.39192,1.43678 -0.47461,1.82617 -0.16538,0.77879 -0.21283,1.13219 -0.26367,1.47266 -0.10169,0.68093 -0.15436,1.15471 -0.2168,1.70898 -0.12489,1.10854 -0.25408,2.41316 -0.4043,4.03516 -0.30043,3.244 -0.67736,7.67749 -1.10937,12.96869 -0.13751,1.6842 -0.32542,4.2835 -0.47266,6.125 l -18.24414,-36.71283 -55.89649,1.01953 -6.16015,14.56836 z m 252.93165,32.08592 0.18945,0.1563 c -0.0335,-0.028 -0.0719,-0.05 -0.10547,-0.078 -0.0306,-0.025 -0.0533,-0.053 -0.084,-0.078 z"
     id="path7264"
     inkscape:connector-curvature="0"
     sodipodi:nodetypes="ccccccccccccccccccccccccccscccsccccccccsccccccccscccccccccc" /><path
     style="color:#000000;font-style:normal;font-variant:normal;font-weight:normal;font-stretch:normal;font-size:medium;line-height:normal;font-family:sans-serif;font-variant-ligatures:normal;font-variant-position:normal;font-variant-caps:normal;font-variant-numeric:normal;font-variant-alternates:normal;font-feature-settings:normal;text-indent:0;text-align:start;text-decoration:none;text-decoration-line:none;text-decoration-style:solid;text-decoration-color:#000000;letter-spacing:normal;word-spacing:normal;text-transform:none;writing-mode:lr-tb;direction:ltr;text-orientation:mixed;dominant-baseline:auto;baseline-shift:baseline;text-anchor:start;white-space:normal;shape-padding:0;clip-rule:nonzero;display:inline;overflow:visible;visibility:visible;opacity:1;isolation:auto;mix-blend-mode:normal;color-interpolation:sRGB;color-interpolation-filters:linearRGB;solid-color:#000000;solid-opacity:1;vector-effect:none;fill:#5a2500;fill-opacity:1;fill-rule:nonzero;stroke:none;stroke-width:40;stroke-linecap:butt;stroke-linejoin:miter;stroke-miterlimit:4;stroke-dasharray:none;stroke-dashoffset:0;stroke-opacity:1;color-rendering:auto;image-rendering:auto;shape-rendering:auto;text-rendering:auto;enable-background:accumulate"
     d="m -1010.7695,736.30859 -8.7383,18.98243 -1.5274,3.32031 -16.4902,35.79297 4.7676,3.44922 L -1147.7676,773 l 0.8496,25.62695 0.1465,4.47461 0.5137,15.99024 -48.9199,-45.67774 -13.586,11.64453 -2.3808,2.04102 -35.7071,30.61914 -10.5918,-50.33203 -21.5156,7.57226 -5.3164,1.8711 -102.3574,36.02734 -2.8809,160.55469 143.1856,17.34961 7.2539,-37.22266 97.9062,24.22071 0.2852,8.87304 44.3965,0.87305 39.8086,-23.95703 -4.7364,-31.08594 34.1621,-8.17773 -0.455,45.31836 87.10739,-43.4629 -5.38086,-44.01757 71.63867,97.98828 20.11914,-52.05469 -2.42578,19.67969 124.08985,30.69922 1.08007,11.98242 77.86914,-51.70313 -2.74609,-70.50586 22.47266,4.72657 -9.21875,74.80078 135.57812,33.54101 4.20703,-140.22851 -72.43554,-67.63477 -13.58594,11.64453 -2.38086,2.04102 -15.00586,12.86914 1.87109,-16.94531 -73.08984,-3.22461 -2.55664,1.87305 -9.00195,-16.48438 -14.77735,3.4082 -46.84375,10.80274 2.04493,20.57617 1.20507,12.11719 -41.43164,-38.6836 -13.58593,11.65625 -2.37696,2.03711 -22.47851,19.27735 -53.43555,-15.91211 -6.0293,16.65234 -8.84961,-20.71875 -16.91601,4.76758 -2.95899,0.83398 -39.6914,11.18946 -0.75586,-6.18164 14.63476,-25.1836 z m -17.7696,64.59766 2.502,1.8125 -0.076,8.01367 -0.055,5.45313 z"
     id="path7266"
     inkscape:connector-curvature="0"
     sodipodi:nodetypes="cccccccccccccccccccccccccccccccccccccccccccccccccccccccccccccccccccccc" /><g
     style="fill:#ff6600"
     id="g7272"><path
       style="color:#000000;font-style:normal;font-variant:normal;font-weight:normal;font-stretch:normal;font-size:medium;line-height:normal;font-family:sans-serif;font-variant-ligatures:normal;font-variant-position:normal;font-variant-caps:normal;font-variant-numeric:normal;font-variant-alternates:normal;font-feature-settings:normal;text-indent:0;text-align:start;text-decoration:none;text-decoration-line:none;text-decoration-style:solid;text-decoration-color:#000000;letter-spacing:normal;word-spacing:normal;text-transform:none;writing-mode:lr-tb;direction:ltr;text-orientation:mixed;dominant-baseline:auto;baseline-shift:baseline;text-anchor:start;white-space:normal;shape-padding:0;clip-rule:nonzero;display:inline;overflow:visible;visibility:visible;opacity:1;isolation:auto;mix-blend-mode:normal;color-interpolation:sRGB;color-interpolation-filters:linearRGB;solid-color:#000000;solid-opacity:1;vector-effect:none;fill:#ff6600;fill-opacity:1;fill-rule:nonzero;stroke:none;stroke-width:7;stroke-linecap:butt;stroke-linejoin:miter;stroke-miterlimit:4;stroke-dasharray:none;stroke-dashoffset:0;stroke-opacity:1;color-rendering:auto;image-rendering:auto;shape-rendering:auto;text-rendering:auto;enable-background:accumulate"
       d="m -1001.3398,763.6543 -1.5293,3.3223 -9.6114,20.8632 24.5039,17.7325 -18.1093,2.3066 -0.029,3.0508 -1.2657,126.1797 45.21488,-22.5606 -13.51171,-110.5429 -8.53517,1.0879 14.59571,-25.1153 z m 301.55464,24.4297 -29.69531,6.8476 0.30469,3.0645 4.73047,47.6133 9.87304,109.5761 40.54102,-26.9179 -2.62695,-67.4043 4.80078,-16.3516 39.18164,8.2403 5.59766,-50.6895 -44.72266,-1.9727 -15.30664,11.209 z m -427.14454,9.8808 0.1485,4.4844 5.2792,164.5606 19.6453,0.38711 23.3907,-14.07585 -5.491,-36.02806 51.332,-12.2871 -13.9141,-89.668 z m -68.8183,2.2793 -2.379,2.0391 -46.5566,39.9238 23.7402,28.1133 28.7637,-23.4297 7.7832,7.8242 -49.3008,22.6016 -6.8105,55.2637 94.3105,23.332 3.1934,-106.4199 z m 405.87886,0 -2.37695,2.0391 -46.55664,39.9238 23.73828,28.1133 28.76367,-23.4297 7.7832,7.8242 -49.30078,22.6016 -6.81055,55.2637 94.3125,23.332 3.19336,-106.4199 z m 213.54687,0 -2.3789,2.0391 -46.55664,39.9238 23.73828,28.1133 28.76562,-23.4297 7.78321,7.8242 -49.30078,22.6016 -6.81055,55.2637 94.31055,23.332 3.19336,-106.4199 z m -331.22851,10.1739 -2.95899,0.834 -51.82617,14.6113 82.53516,112.8945 44.02344,-113.9023 -33.02539,-9.834 -16.87696,46.6035 z m -179.67192,30.414 9.8067,3.295 4.8926,23.1855 -10.2168,4.3203 z m -112.1035,53.3985 14.4942,0.7851 -2.5606,13.7149 -15.291,-4.6993 z m 405.87893,0 14.4961,0.7851 -2.5625,13.7149 -15.29102,-4.6993 z m 213.54688,0 14.49414,0.7851 -2.5625,13.7129 -15.28906,-4.6973 z"
       id="path7268"
       inkscape:connector-curvature="0"
       sodipodi:nodetypes="ccccccccccccccccccccccccccccccccccccccccccccccccccccccccccccccccccccccccccccccccccccccccccccccc" /><path
       sodipodi:nodetypes="cccccccccc"
       inkscape:connector-curvature="0"
       id="path7270"
       d="m -1272.3176,793.82336 -5.3172,1.87209 -89.2494,31.41346 -2.3095,128.61999 106.7959,12.93933 12.5664,-64.48127 -62.2082,5.68999 4.6656,-39.98228 50.0723,-4.71281 z"
       style="color:#000000;font-style:normal;font-variant:normal;font-weight:normal;font-stretch:normal;font-size:medium;line-height:normal;font-family:sans-serif;font-variant-ligatures:normal;font-variant-position:normal;font-variant-caps:normal;font-variant-numeric:normal;font-variant-alternates:normal;font-feature-settings:normal;text-indent:0;text-align:start;text-decoration:none;text-decoration-line:none;text-decoration-style:solid;text-decoration-color:#000000;letter-spacing:normal;word-spacing:normal;text-transform:none;writing-mode:lr-tb;direction:ltr;text-orientation:mixed;dominant-baseline:auto;baseline-shift:baseline;text-anchor:start;white-space:normal;shape-padding:0;clip-rule:nonzero;display:inline;overflow:visible;visibility:visible;opacity:1;isolation:auto;mix-blend-mode:normal;color-interpolation:sRGB;color-interpolation-filters:linearRGB;solid-color:#000000;solid-opacity:1;vector-effect:none;fill:#ff6600;fill-opacity:1;fill-rule:nonzero;stroke:none;stroke-width:9.89025974;stroke-linecap:butt;stroke-linejoin:miter;stroke-miterlimit:4;stroke-dasharray:none;stroke-dashoffset:0;stroke-opacity:1;color-rendering:auto;image-rendering:auto;shape-rendering:auto;text-rendering:auto;enable-background:accumulate" /></g><path
     style="fill:#2eff19;fill-opacity:1"
     d="m -793.9876,1083.2863 -0.0999,15.4357 -43.6156,5.7211 c -0.77458,0.1016 7.5266,-110.77729 8.1768,-111.5593 0.4737,-0.56981 22.1898,1.8354 35.4367,3.92487 25.3784,4.00303 45.7385,10.97773 55.251,18.92713 7.50718,6.119 9.76715,15.4566 9.2473,21.4874 -1.65718,19.2248 -12.51642,31.1839 -27.7932,37.1845 l 24.643,16.3255 -31.7594,27.99 z m 27.898,-45.7418 c -0.10702,-6.7323 -26.29442,-8.599 -32,-8.9971 v 14.1758 c 6.28389,0.8691 32.08331,0.062 32,-5.1787 z m 46.2025,36.7127 c 7.95872,0.4121 16.10752,1.3279 24.3983,1.4042 21.9869,0.1494 19.9094,-6.6794 -3.22,-10.5841 -11.3345,-1.9134 -14.8336,-3.1813 -19.4123,-7.034 -4.4329,-3.7301 -7.0263,-10.0445 -7.6811,-18.7025 -1.403,-18.5512 7.9578,-30.1356 30.3514,-37.5612 13.55409,-3.41293 27.16376,-7.05641 41.1209,-7.05641 l 6.9663,36.72681 -13.2622,0.5061 c -10.1841,0.3886 -14.1559,0.9425 -17.113,2.3866 -9.4054,4.5931 -3.2515,8.2685 15.6492,9.3467 14.1059,0.8046 19.0029,2.5489 23.4225,8.3433 5.7318,7.5148 8.221,23.5251 5.2478,33.7527 -4.6843,16.1134 -23.9416,24.6376 -60.0166,26.5662 l -12.2305,0.6538 z m -379.991,-52.6586 38.8848,-22.48347 20.8867,52.58957 27.7688,-43.1836 29.3008,41.1858 15.8754,-52.19463 43.072,23.60203 -42.8848,83.7787 -35.5575,-7.3097 -8.5069,-26.654 -14.5467,33.885 -28.7837,3.9089 z m 147.2232,72.8926 40.2804,-95.26801 30.2545,-0.55193 44.0304,88.60154 -38.0436,17.7289 -9.66446,-18.9633 -24.78364,4.3565 -7.3886,15.2293 z m 61.3598,-39.7545 -4.4263,-14.0135 -5.8375,13.9034 z"
     id="path7274"
     inkscape:connector-curvature="0"
     sodipodi:nodetypes="ccscscsccccsccsccccccccscsccccccccccccccccccccccccccccccc" /><path
     sodipodi:nodetypes="ccscscsccccsccsccccccccscsccccccccccccccccccccccccccccccc"
     inkscape:connector-curvature="0"
     id="path7276"
     d="m -793.9876,1083.2863 -0.0999,15.4357 -43.6156,5.7211 c -0.77458,0.1016 7.5266,-110.77729 8.1768,-111.5593 0.4737,-0.56981 22.1898,1.8354 35.4367,3.92487 25.3784,4.00303 45.7385,10.97773 55.251,18.92713 7.50718,6.119 9.76715,15.4566 9.2473,21.4874 -1.65718,19.2248 -12.51642,31.1839 -27.7932,37.1845 l 24.643,16.3255 -31.7594,27.99 z m 27.898,-45.7418 c -0.10702,-6.7323 -26.29442,-8.599 -32,-8.9971 v 14.1758 c 6.28389,0.8691 32.08331,0.062 32,-5.1787 z m 46.2025,36.7127 c 7.95872,0.4121 16.10752,1.3279 24.3983,1.4042 21.9869,0.1494 19.9094,-6.6794 -3.22,-10.5841 -11.3345,-1.9134 -14.8336,-3.1813 -19.4123,-7.034 -4.4329,-3.7301 -7.0263,-10.0445 -7.6811,-18.7025 -1.403,-18.5512 7.9578,-30.1356 30.3514,-37.5612 13.55409,-3.41293 27.16376,-7.05641 41.1209,-7.05641 l 6.9663,36.72681 -13.2622,0.5061 c -10.1841,0.3886 -14.1559,0.9425 -17.113,2.3866 -9.4054,4.5931 -3.2515,8.2685 15.6492,9.3467 14.1059,0.8046 19.0029,2.5489 23.4225,8.3433 5.7318,7.5148 8.221,23.5251 5.2478,33.7527 -4.6843,16.1134 -23.9416,24.6376 -60.0166,26.5662 l -12.2305,0.6538 z m -379.991,-52.6586 38.8848,-22.48347 20.8867,52.58957 27.7688,-43.1836 29.3008,41.1858 15.8754,-52.19463 43.072,23.60203 -42.8848,83.7787 -35.5575,-7.3097 -8.5069,-26.654 -14.5467,33.885 -28.7837,3.9089 z m 147.2232,72.8926 40.2804,-95.26801 30.2545,-0.55193 44.0304,88.60154 -38.0436,17.7289 -9.66446,-18.9633 -24.78364,4.3565 -7.3886,15.2293 z m 61.3598,-39.7545 -4.4263,-14.0135 -5.8375,13.9034 z"
     style="fill:#3ded2b;fill-opacity:1" /><path
     inkscape:connector-curvature="0"
     style="color:#000000;font-style:normal;font-variant:normal;font-weight:normal;font-stretch:normal;font-size:medium;line-height:normal;font-family:sans-serif;font-variant-ligatures:normal;font-variant-position:normal;font-variant-caps:normal;font-variant-numeric:normal;font-variant-alternates:normal;font-feature-settings:normal;text-indent:0;text-align:start;text-decoration:none;text-decoration-line:none;text-decoration-style:solid;text-decoration-color:#000000;letter-spacing:normal;word-spacing:normal;text-transform:none;writing-mode:lr-tb;direction:ltr;text-orientation:mixed;dominant-baseline:auto;baseline-shift:baseline;text-anchor:start;white-space:normal;shape-padding:0;clip-rule:nonzero;display:inline;overflow:visible;visibility:visible;opacity:1;isolation:auto;mix-blend-mode:normal;color-interpolation:sRGB;color-interpolation-filters:linearRGB;solid-color:#000000;solid-opacity:1;vector-effect:none;fill:#ff822f;fill-opacity:1;fill-rule:nonzero;stroke:none;stroke-width:7;stroke-linecap:butt;stroke-linejoin:miter;stroke-miterlimit:4;stroke-dasharray:none;stroke-dashoffset:0;stroke-opacity:1;color-rendering:auto;image-rendering:auto;shape-rendering:auto;text-rendering:auto;enable-background:accumulate"
     d="m -965.9043,885.5957 c -13.92434,0.0708 -27.54561,0.24121 -40.9648,0.50391 l -0.5118,51.00977 45.21488,-22.56055 -3.53906,-28.95313 c -0.0654,3.1e-4 -0.13383,-3.3e-4 -0.19922,0 z m -69.541,1.23633 c -30.2986,0.96645 -59.5918,2.542 -88.4707,4.90039 l 2.414,75.27735 19.6446,0.38671 23.3906,-14.07617 -5.4902,-36.02734 51.332,-12.28711 z m 117.9453,0.36133 37.69922,51.56445 18.18359,-47.04883 c -19.48309,-1.84467 -38.23793,-3.4267 -55.88281,-4.51562 z m -226.8262,6.33984 c -13.7244,1.30892 -27.3957,2.81505 -41.0722,4.52149 l -1.9942,10.67578 -15.291,-4.69922 1.334,-3.89453 c -11.8977,1.62589 -23.8257,3.41198 -35.8223,5.37695 l -3.3359,27.06641 94.3105,23.33203 z m 314.34768,1.30664 -4.65039,37.74024 94.3125,23.33203 1.55274,-51.74023 c -13.78975,-1.32897 -27.50156,-2.71765 -41.12695,-4.13086 l -1.62305,8.68945 -15.29102,-4.69922 1.90235,-5.55469 c -11.80813,-1.23473 -23.57858,-2.45935 -35.07618,-3.63672 z m 110.97461,11.17188 4.43164,49.17383 40.54102,-26.91797 -0.72656,-18.66406 c -14.6642,-1.02661 -29.44802,-2.25625 -44.2461,-3.5918 z m -531.52539,1.7539 c -38.0755,6.62306 -77.0329,15.04625 -118.2637,25.67774 l -0.4004,22.28516 106.795,12.93945 z m 725.14844,1.81836 c -28.6208,3.17467 -60.17497,3.81674 -93.22266,2.87696 l -2.47851,20.11914 94.31055,23.33203 z"
     id="path7278" /><path
     inkscape:connector-curvature="0"
     style="fill:#5af049;fill-opacity:1"
     d="m -828.41016,992.80273 c -0.665,-0.0153 -1.05602,0.0108 -1.11523,0.082 -0.31758,0.38196 -2.46139,27.06637 -4.48047,54.21877 35.56546,-1.6335 69.96151,-4.2238 104.22656,-8.0625 0.0715,-0.5989 0.13461,-1.2047 0.1875,-1.8183 0.51985,-6.0308 -1.73891,-15.3674 -9.24609,-21.4864 -9.5125,-7.9494 -29.87355,-14.9247 -55.25195,-18.92775 -11.59104,-1.82828 -29.66527,-3.89864 -34.32032,-4.00586 z m 174.08008,1.91993 c -13.95714,0 -27.567,3.64371 -41.12109,7.05664 -22.09142,7.3254 -31.49161,18.7025 -30.39453,36.8184 25.79828,-2.9635 51.55675,-6.6354 77.7207,-11.168 z m -312.83203,2.78906 -15.26758,50.19528 c 15.51847,0.9882 30.20151,1.6011 43.85352,1.709 l 14.48633,-28.3008 z m 85.04297,1.16016 -30.25586,0.55078 -21.22656,50.20704 c 0.58934,-9e-4 1.19804,0.01 1.7832,0 11.0288,-0.056 21.87863,-0.1672 32.58398,-0.3418 l 3.51368,-8.3691 2.60547,8.2519 c 12.01267,-0.2244 23.8502,-0.5294 35.53125,-0.9277 z m -178.87496,0.44335 -38.8848,22.48247 8.4316,16.1425 c 16.2139,1.6947 32.2224,3.3465 47.7207,4.8516 z m 48.6562,9.40627 -22.457,34.9219 c 17.4226,1.6415 34.2691,3.0737 50.2324,4.1191 z m 214.24806,20.0254 c 5.70558,0.3981 31.89298,2.2657 32,8.998 0.0833,5.2407 -25.71611,6.0469 -32,5.1778 z"
     id="path7280" /></g><g
   inkscape:export-ydpi="300"
   inkscape:export-xdpi="300"
   transform="matrix(1.5411098,0,0,1.5411098,-2723.5087,-179.32678)"
   id="g3995"><path
     style="color:#000000;font-style:normal;font-variant:normal;font-weight:normal;font-stretch:normal;font-size:medium;line-height:normal;font-family:sans-serif;font-variant-ligatures:normal;font-variant-position:normal;font-variant-caps:normal;font-variant-numeric:normal;font-variant-alternates:normal;font-feature-settings:normal;text-indent:0;text-align:start;text-decoration:none;text-decoration-line:none;text-decoration-style:solid;text-decoration-color:#000000;letter-spacing:normal;word-spacing:normal;text-transform:none;writing-mode:lr-tb;direction:ltr;text-orientation:mixed;dominant-baseline:auto;baseline-shift:baseline;text-anchor:start;white-space:normal;shape-padding:0;clip-rule:nonzero;display:inline;overflow:visible;visibility:visible;opacity:1;isolation:auto;mix-blend-mode:normal;color-interpolation:sRGB;color-interpolation-filters:linearRGB;solid-color:#000000;solid-opacity:1;vector-effect:none;fill:#ffffff;fill-opacity:1;fill-rule:nonzero;stroke:none;stroke-width:30;stroke-linecap:butt;stroke-linejoin:miter;stroke-miterlimit:4;stroke-dasharray:none;stroke-dashoffset:0;stroke-opacity:1;color-rendering:auto;image-rendering:auto;shape-rendering:auto;text-rendering:auto;enable-background:accumulate"
     d="m -1017.8418,715.80078 -6.5527,14.23633 -22.6797,49.24609 -0.055,0.11719 -116.2676,-25.125 0.9668,29.19531 -32.3203,-30.17968 -23.7754,20.3789 -2.3828,2.04297 -16.4805,14.13281 -8.8984,-42.28711 -37.6524,13.25196 -5.3164,1.87109 -112.1875,39.48633 -3.3105,184.50781 170.4785,20.65622 6.9082,-35.44528 71.5723,17.70703 0.3769,11.75585 19.9571,0.3926 -10.9649,6.3398 15.5254,29.7207 56.8887,108.9102 72.7715,-9.8828 1.28122,-2.9844 52.01171,10.6914 5.17579,-10.1133 43.03125,13.8106 3.09961,-6.3906 4.66601,9.1542 36.92773,-17.2089 c 0.24389,0.092 0.51714,0.2167 0.76172,0.3183 2.53138,1.052 4.98215,1.8461 7.27149,2.5313 2.28933,0.6852 4.38515,1.235 5.94726,1.6269 0.78106,0.196 1.42639,0.3515 1.89063,0.461 0.23212,0.055 0.42004,0.1 0.55664,0.1308 0.0683,0.016 0.12225,0.027 0.16797,0.037 0.0214,0 0.0404,0.01 0.0625,0.014 l 5.23828,0.2383 36.16406,-4.7442 28.61133,34.3868 34.68164,-30.5645 4.07813,11.1113 38.04687,-2.0351 c 20.32693,-1.0868 38.07042,-3.8216 54.08008,-10.9082 16.88011,-7.472 32.01481,-21.3561 37.67773,-40.836 3.43503,-11.8162 3.16198,-23.107 1.61719,-33.0429 -1.50212,-9.6615 -4.55842,-21.1011 -12.64648,-31.7051 -0.3946,-0.5173 -0.88481,-0.963 -1.30078,-1.4629 l -11.64063,-61.37695 130.69336,32.33205 4.96875,-165.584 -87.20508,-81.42578 -17.77539,15.23632 -79.40039,-3.50195 -9.28906,-17.00977 -25.86133,5.96485 -59.70508,13.76758 0.61719,6.20898 -22.14258,-20.67578 -23.77344,20.39648 -2.37695,2.03711 -16.27148,13.95508 -53.90821,-16.05469 -2.23242,-5.22656 -29.60156,8.3418 -2.96094,0.83398 -9.24219,2.60547 8.40235,-14.45703 z m 113.19336,248.27539 -31.10547,0.56641 -3.49218,8.25781 -29.29688,-16.05469 37.06458,-16.77855 z"
     id="path3975"
     inkscape:connector-curvature="0"
     sodipodi:nodetypes="cccccccccccccccccccccccccccccccccccccccccccccssccccccccccccccccccccccccccccc" /><path
     style="color:#000000;font-style:normal;font-variant:normal;font-weight:normal;font-stretch:normal;font-size:medium;line-height:normal;font-family:sans-serif;font-variant-ligatures:normal;font-variant-position:normal;font-variant-caps:normal;font-variant-numeric:normal;font-variant-alternates:normal;font-feature-settings:normal;text-indent:0;text-align:start;text-decoration:none;text-decoration-line:none;text-decoration-style:solid;text-decoration-color:#000000;letter-spacing:normal;word-spacing:normal;text-transform:none;writing-mode:lr-tb;direction:ltr;text-orientation:mixed;dominant-baseline:auto;baseline-shift:baseline;text-anchor:start;white-space:normal;shape-padding:0;clip-rule:nonzero;display:inline;overflow:visible;visibility:visible;opacity:1;isolation:auto;mix-blend-mode:normal;color-interpolation:sRGB;color-interpolation-filters:linearRGB;solid-color:#000000;solid-opacity:1;vector-effect:none;fill:#0a5500;fill-opacity:1;fill-rule:nonzero;stroke:none;stroke-width:40;stroke-linecap:butt;stroke-linejoin:miter;stroke-miterlimit:4;stroke-dasharray:none;stroke-dashoffset:0;stroke-opacity:1;color-rendering:auto;image-rendering:auto;shape-rendering:auto;text-rendering:auto;enable-background:accumulate"
     d="m -979.13477,968.14648 -11.19531,36.80662 -22.84372,-32.10935 -22.709,35.31445 -15.0723,-37.94922 -75.5215,43.66602 8.8711,16.9824 52.0117,99.5742 53.92,-7.3222 2.7558,-6.4199 52.81644,10.8574 5.7832,-11.2989 42.76563,13.7247 10.5039,-21.6504 0.14649,-0.025 11.71679,22.9883 31.67383,-14.7598 c 0.39624,0.5129 0.56278,0.8926 1.10938,1.4844 2.77352,3.0025 17.29775,6.264 17.30078,6.2636 l 44.35937,-5.8183 24.02735,28.8769 39.55078,-34.8554 7.8125,21.289 26.98242,-1.4433 c 19.4166,-1.0381 35.28825,-3.6618 48.80859,-9.6465 13.52035,-5.9848 25.21666,-17.1032 29.34571,-31.3067 2.68511,-9.2366 2.53316,-17.971 1.19922,-26.5507 -1.33395,-8.5798 -3.57717,-16.8211 -9.75,-24.9141 -0.95104,-1.2469 -2.0827,-2.5179 -3.35157,-3.7617 l -11.65039,-61.41994 h -16.5625 c -17.43777,0 -32.64408,4.29809 -46.0039,7.66211 l -0.7129,0.17968 -0.69921,0.23243 c -10.54746,3.49748 -19.95877,8.23221 -27.59375,15.11718 -15.54866,-11.46874 -36.17028,-16.84502 -61.63282,-20.86133 -7.11826,-1.12278 -15.99464,-2.25919 -23.42382,-3.08203 -3.7146,-0.41141 -7.02032,-0.74123 -9.71875,-0.94922 -1.34922,-0.10399 -2.4948,-0.182 -3.83594,-0.21289 -0.67057,-0.0154 -1.31958,-0.0416 -2.64063,0.0508 -0.66052,0.0462 -1.43805,0.0774 -3.0957,0.43945 -1.65765,0.36204 -4.6484,-1.1046 -11.21875,6.79883 h 0.002 c -4.22906,5.08638 -3.44939,5.95497 -3.74804,6.92187 -0.29866,0.9669 -0.39192,1.43678 -0.47461,1.82617 -0.16538,0.77879 -0.21283,1.13219 -0.26367,1.47266 -0.10169,0.68093 -0.15436,1.15471 -0.2168,1.70898 -0.12489,1.10854 -0.25408,2.41316 -0.4043,4.03516 -0.30043,3.244 -0.67736,7.67749 -1.10937,12.96869 -0.13751,1.6842 -0.32542,4.2835 -0.47266,6.125 l -18.24414,-36.71283 -55.89649,1.01953 -6.16015,14.56836 z m 252.93165,32.08592 0.18945,0.1563 c -0.0335,-0.028 -0.0719,-0.05 -0.10547,-0.078 -0.0306,-0.025 -0.0533,-0.053 -0.084,-0.078 z"
     id="path3977"
     inkscape:connector-curvature="0"
     sodipodi:nodetypes="ccccccccccccccccccccccccccscccsccccccccsccccccccscccccccccc" /><path
     style="color:#000000;font-style:normal;font-variant:normal;font-weight:normal;font-stretch:normal;font-size:medium;line-height:normal;font-family:sans-serif;font-variant-ligatures:normal;font-variant-position:normal;font-variant-caps:normal;font-variant-numeric:normal;font-variant-alternates:normal;font-feature-settings:normal;text-indent:0;text-align:start;text-decoration:none;text-decoration-line:none;text-decoration-style:solid;text-decoration-color:#000000;letter-spacing:normal;word-spacing:normal;text-transform:none;writing-mode:lr-tb;direction:ltr;text-orientation:mixed;dominant-baseline:auto;baseline-shift:baseline;text-anchor:start;white-space:normal;shape-padding:0;clip-rule:nonzero;display:inline;overflow:visible;visibility:visible;opacity:1;isolation:auto;mix-blend-mode:normal;color-interpolation:sRGB;color-interpolation-filters:linearRGB;solid-color:#000000;solid-opacity:1;vector-effect:none;fill:#5a2500;fill-opacity:1;fill-rule:nonzero;stroke:none;stroke-width:40;stroke-linecap:butt;stroke-linejoin:miter;stroke-miterlimit:4;stroke-dasharray:none;stroke-dashoffset:0;stroke-opacity:1;color-rendering:auto;image-rendering:auto;shape-rendering:auto;text-rendering:auto;enable-background:accumulate"
     d="m -1010.7695,736.30859 -8.7383,18.98243 -1.5274,3.32031 -16.4902,35.79297 4.7676,3.44922 L -1147.7676,773 l 0.8496,25.62695 0.1465,4.47461 0.5137,15.99024 -48.9199,-45.67774 -13.586,11.64453 -2.3808,2.04102 -35.7071,30.61914 -10.5918,-50.33203 -21.5156,7.57226 -5.3164,1.8711 -102.3574,36.02734 -2.8809,160.55469 143.1856,17.34961 7.2539,-37.22266 97.9062,24.22071 0.2852,8.87304 44.3965,0.87305 39.8086,-23.95703 -4.7364,-31.08594 34.1621,-8.17773 -0.455,45.31836 87.10739,-43.4629 -5.38086,-44.01757 71.63867,97.98828 20.11914,-52.05469 -2.42578,19.67969 124.08985,30.69922 1.08007,11.98242 77.86914,-51.70313 -2.74609,-70.50586 22.47266,4.72657 -9.21875,74.80078 135.57812,33.54101 4.20703,-140.22851 -72.43554,-67.63477 -13.58594,11.64453 -2.38086,2.04102 -15.00586,12.86914 1.87109,-16.94531 -73.08984,-3.22461 -2.55664,1.87305 -9.00195,-16.48438 -14.77735,3.4082 -46.84375,10.80274 2.04493,20.57617 1.20507,12.11719 -41.43164,-38.6836 -13.58593,11.65625 -2.37696,2.03711 -22.47851,19.27735 -53.43555,-15.91211 -6.0293,16.65234 -8.84961,-20.71875 -16.91601,4.76758 -2.95899,0.83398 -39.6914,11.18946 -0.75586,-6.18164 14.63476,-25.1836 z m -17.7696,64.59766 2.502,1.8125 -0.076,8.01367 -0.055,5.45313 z"
     id="path3979"
     inkscape:connector-curvature="0"
     sodipodi:nodetypes="cccccccccccccccccccccccccccccccccccccccccccccccccccccccccccccccccccccc" /><g
     style="fill:#ff6600"
     id="g3985"><path
       style="color:#000000;font-style:normal;font-variant:normal;font-weight:normal;font-stretch:normal;font-size:medium;line-height:normal;font-family:sans-serif;font-variant-ligatures:normal;font-variant-position:normal;font-variant-caps:normal;font-variant-numeric:normal;font-variant-alternates:normal;font-feature-settings:normal;text-indent:0;text-align:start;text-decoration:none;text-decoration-line:none;text-decoration-style:solid;text-decoration-color:#000000;letter-spacing:normal;word-spacing:normal;text-transform:none;writing-mode:lr-tb;direction:ltr;text-orientation:mixed;dominant-baseline:auto;baseline-shift:baseline;text-anchor:start;white-space:normal;shape-padding:0;clip-rule:nonzero;display:inline;overflow:visible;visibility:visible;opacity:1;isolation:auto;mix-blend-mode:normal;color-interpolation:sRGB;color-interpolation-filters:linearRGB;solid-color:#000000;solid-opacity:1;vector-effect:none;fill:#ff6600;fill-opacity:1;fill-rule:nonzero;stroke:none;stroke-width:7;stroke-linecap:butt;stroke-linejoin:miter;stroke-miterlimit:4;stroke-dasharray:none;stroke-dashoffset:0;stroke-opacity:1;color-rendering:auto;image-rendering:auto;shape-rendering:auto;text-rendering:auto;enable-background:accumulate"
       d="m -1001.3398,763.6543 -1.5293,3.3223 -9.6114,20.8632 24.5039,17.7325 -18.1093,2.3066 -0.029,3.0508 -1.2657,126.1797 45.21488,-22.5606 -13.51171,-110.5429 -8.53517,1.0879 14.59571,-25.1153 z m 301.55464,24.4297 -29.69531,6.8476 0.30469,3.0645 4.73047,47.6133 9.87304,109.5761 40.54102,-26.9179 -2.62695,-67.4043 4.80078,-16.3516 39.18164,8.2403 5.59766,-50.6895 -44.72266,-1.9727 -15.30664,11.209 z m -427.14454,9.8808 0.1485,4.4844 5.2792,164.5606 19.6453,0.38711 23.3907,-14.07585 -5.491,-36.02806 51.332,-12.2871 -13.9141,-89.668 z m -68.8183,2.2793 -2.379,2.0391 -46.5566,39.9238 23.7402,28.1133 28.7637,-23.4297 7.7832,7.8242 -49.3008,22.6016 -6.8105,55.2637 94.3105,23.332 3.1934,-106.4199 z m 405.87886,0 -2.37695,2.0391 -46.55664,39.9238 23.73828,28.1133 28.76367,-23.4297 7.7832,7.8242 -49.30078,22.6016 -6.81055,55.2637 94.3125,23.332 3.19336,-106.4199 z m 213.54687,0 -2.3789,2.0391 -46.55664,39.9238 23.73828,28.1133 28.76562,-23.4297 7.78321,7.8242 -49.30078,22.6016 -6.81055,55.2637 94.31055,23.332 3.19336,-106.4199 z m -331.22851,10.1739 -2.95899,0.834 -51.82617,14.6113 82.53516,112.8945 44.02344,-113.9023 -33.02539,-9.834 -16.87696,46.6035 z m -179.67192,30.414 9.8067,3.295 4.8926,23.1855 -10.2168,4.3203 z m -112.1035,53.3985 14.4942,0.7851 -2.5606,13.7149 -15.291,-4.6993 z m 405.87893,0 14.4961,0.7851 -2.5625,13.7149 -15.29102,-4.6993 z m 213.54688,0 14.49414,0.7851 -2.5625,13.7129 -15.28906,-4.6973 z"
       id="path3981"
       inkscape:connector-curvature="0"
       sodipodi:nodetypes="ccccccccccccccccccccccccccccccccccccccccccccccccccccccccccccccccccccccccccccccccccccccccccccccc" /><path
       sodipodi:nodetypes="cccccccccc"
       inkscape:connector-curvature="0"
       id="path3983"
       d="m -1272.3176,793.82336 -5.3172,1.87209 -89.2494,31.41346 -2.3095,128.61999 106.7959,12.93933 12.5664,-64.48127 -62.2082,5.68999 4.6656,-39.98228 50.0723,-4.71281 z"
       style="color:#000000;font-style:normal;font-variant:normal;font-weight:normal;font-stretch:normal;font-size:medium;line-height:normal;font-family:sans-serif;font-variant-ligatures:normal;font-variant-position:normal;font-variant-caps:normal;font-variant-numeric:normal;font-variant-alternates:normal;font-feature-settings:normal;text-indent:0;text-align:start;text-decoration:none;text-decoration-line:none;text-decoration-style:solid;text-decoration-color:#000000;letter-spacing:normal;word-spacing:normal;text-transform:none;writing-mode:lr-tb;direction:ltr;text-orientation:mixed;dominant-baseline:auto;baseline-shift:baseline;text-anchor:start;white-space:normal;shape-padding:0;clip-rule:nonzero;display:inline;overflow:visible;visibility:visible;opacity:1;isolation:auto;mix-blend-mode:normal;color-interpolation:sRGB;color-interpolation-filters:linearRGB;solid-color:#000000;solid-opacity:1;vector-effect:none;fill:#ff6600;fill-opacity:1;fill-rule:nonzero;stroke:none;stroke-width:9.89025974;stroke-linecap:butt;stroke-linejoin:miter;stroke-miterlimit:4;stroke-dasharray:none;stroke-dashoffset:0;stroke-opacity:1;color-rendering:auto;image-rendering:auto;shape-rendering:auto;text-rendering:auto;enable-background:accumulate" /></g><path
     style="fill:#2eff19;fill-opacity:1"
     d="m -793.9876,1083.2863 -0.0999,15.4357 -43.6156,5.7211 c -0.77458,0.1016 7.5266,-110.77729 8.1768,-111.5593 0.4737,-0.56981 22.1898,1.8354 35.4367,3.92487 25.3784,4.00303 45.7385,10.97773 55.251,18.92713 7.50718,6.119 9.76715,15.4566 9.2473,21.4874 -1.65718,19.2248 -12.51642,31.1839 -27.7932,37.1845 l 24.643,16.3255 -31.7594,27.99 z m 27.898,-45.7418 c -0.10702,-6.7323 -26.29442,-8.599 -32,-8.9971 v 14.1758 c 6.28389,0.8691 32.08331,0.062 32,-5.1787 z m 46.2025,36.7127 c 7.95872,0.4121 16.10752,1.3279 24.3983,1.4042 21.9869,0.1494 19.9094,-6.6794 -3.22,-10.5841 -11.3345,-1.9134 -14.8336,-3.1813 -19.4123,-7.034 -4.4329,-3.7301 -7.0263,-10.0445 -7.6811,-18.7025 -1.403,-18.5512 7.9578,-30.1356 30.3514,-37.5612 13.55409,-3.41293 27.16376,-7.05641 41.1209,-7.05641 l 6.9663,36.72681 -13.2622,0.5061 c -10.1841,0.3886 -14.1559,0.9425 -17.113,2.3866 -9.4054,4.5931 -3.2515,8.2685 15.6492,9.3467 14.1059,0.8046 19.0029,2.5489 23.4225,8.3433 5.7318,7.5148 8.221,23.5251 5.2478,33.7527 -4.6843,16.1134 -23.9416,24.6376 -60.0166,26.5662 l -12.2305,0.6538 z m -379.991,-52.6586 38.8848,-22.48347 20.8867,52.58957 27.7688,-43.1836 29.3008,41.1858 15.8754,-52.19463 43.072,23.60203 -42.8848,83.7787 -35.5575,-7.3097 -8.5069,-26.654 -14.5467,33.885 -28.7837,3.9089 z m 147.2232,72.8926 40.2804,-95.26801 30.2545,-0.55193 44.0304,88.60154 -38.0436,17.7289 -9.66446,-18.9633 -24.78364,4.3565 -7.3886,15.2293 z m 61.3598,-39.7545 -4.4263,-14.0135 -5.8375,13.9034 z"
     id="path3987"
     inkscape:connector-curvature="0"
     sodipodi:nodetypes="ccscscsccccsccsccccccccscsccccccccccccccccccccccccccccccc" /><path
     sodipodi:nodetypes="ccscscsccccsccsccccccccscsccccccccccccccccccccccccccccccc"
     inkscape:connector-curvature="0"
     id="path3989"
     d="m -793.9876,1083.2863 -0.0999,15.4357 -43.6156,5.7211 c -0.77458,0.1016 7.5266,-110.77729 8.1768,-111.5593 0.4737,-0.56981 22.1898,1.8354 35.4367,3.92487 25.3784,4.00303 45.7385,10.97773 55.251,18.92713 7.50718,6.119 9.76715,15.4566 9.2473,21.4874 -1.65718,19.2248 -12.51642,31.1839 -27.7932,37.1845 l 24.643,16.3255 -31.7594,27.99 z m 27.898,-45.7418 c -0.10702,-6.7323 -26.29442,-8.599 -32,-8.9971 v 14.1758 c 6.28389,0.8691 32.08331,0.062 32,-5.1787 z m 46.2025,36.7127 c 7.95872,0.4121 16.10752,1.3279 24.3983,1.4042 21.9869,0.1494 19.9094,-6.6794 -3.22,-10.5841 -11.3345,-1.9134 -14.8336,-3.1813 -19.4123,-7.034 -4.4329,-3.7301 -7.0263,-10.0445 -7.6811,-18.7025 -1.403,-18.5512 7.9578,-30.1356 30.3514,-37.5612 13.55409,-3.41293 27.16376,-7.05641 41.1209,-7.05641 l 6.9663,36.72681 -13.2622,0.5061 c -10.1841,0.3886 -14.1559,0.9425 -17.113,2.3866 -9.4054,4.5931 -3.2515,8.2685 15.6492,9.3467 14.1059,0.8046 19.0029,2.5489 23.4225,8.3433 5.7318,7.5148 8.221,23.5251 5.2478,33.7527 -4.6843,16.1134 -23.9416,24.6376 -60.0166,26.5662 l -12.2305,0.6538 z m -379.991,-52.6586 38.8848,-22.48347 20.8867,52.58957 27.7688,-43.1836 29.3008,41.1858 15.8754,-52.19463 43.072,23.60203 -42.8848,83.7787 -35.5575,-7.3097 -8.5069,-26.654 -14.5467,33.885 -28.7837,3.9089 z m 147.2232,72.8926 40.2804,-95.26801 30.2545,-0.55193 44.0304,88.60154 -38.0436,17.7289 -9.66446,-18.9633 -24.78364,4.3565 -7.3886,15.2293 z m 61.3598,-39.7545 -4.4263,-14.0135 -5.8375,13.9034 z"
     style="fill:#3ded2b;fill-opacity:1" /><path
     inkscape:connector-curvature="0"
     style="color:#000000;font-style:normal;font-variant:normal;font-weight:normal;font-stretch:normal;font-size:medium;line-height:normal;font-family:sans-serif;font-variant-ligatures:normal;font-variant-position:normal;font-variant-caps:normal;font-variant-numeric:normal;font-variant-alternates:normal;font-feature-settings:normal;text-indent:0;text-align:start;text-decoration:none;text-decoration-line:none;text-decoration-style:solid;text-decoration-color:#000000;letter-spacing:normal;word-spacing:normal;text-transform:none;writing-mode:lr-tb;direction:ltr;text-orientation:mixed;dominant-baseline:auto;baseline-shift:baseline;text-anchor:start;white-space:normal;shape-padding:0;clip-rule:nonzero;display:inline;overflow:visible;visibility:visible;opacity:1;isolation:auto;mix-blend-mode:normal;color-interpolation:sRGB;color-interpolation-filters:linearRGB;solid-color:#000000;solid-opacity:1;vector-effect:none;fill:#ff822f;fill-opacity:1;fill-rule:nonzero;stroke:none;stroke-width:7;stroke-linecap:butt;stroke-linejoin:miter;stroke-miterlimit:4;stroke-dasharray:none;stroke-dashoffset:0;stroke-opacity:1;color-rendering:auto;image-rendering:auto;shape-rendering:auto;text-rendering:auto;enable-background:accumulate"
     d="m -965.9043,885.5957 c -13.92434,0.0708 -27.54561,0.24121 -40.9648,0.50391 l -0.5118,51.00977 45.21488,-22.56055 -3.53906,-28.95313 c -0.0654,3.1e-4 -0.13383,-3.3e-4 -0.19922,0 z m -69.541,1.23633 c -30.2986,0.96645 -59.5918,2.542 -88.4707,4.90039 l 2.414,75.27735 19.6446,0.38671 23.3906,-14.07617 -5.4902,-36.02734 51.332,-12.28711 z m 117.9453,0.36133 37.69922,51.56445 18.18359,-47.04883 c -19.48309,-1.84467 -38.23793,-3.4267 -55.88281,-4.51562 z m -226.8262,6.33984 c -13.7244,1.30892 -27.3957,2.81505 -41.0722,4.52149 l -1.9942,10.67578 -15.291,-4.69922 1.334,-3.89453 c -11.8977,1.62589 -23.8257,3.41198 -35.8223,5.37695 l -3.3359,27.06641 94.3105,23.33203 z m 314.34768,1.30664 -4.65039,37.74024 94.3125,23.33203 1.55274,-51.74023 c -13.78975,-1.32897 -27.50156,-2.71765 -41.12695,-4.13086 l -1.62305,8.68945 -15.29102,-4.69922 1.90235,-5.55469 c -11.80813,-1.23473 -23.57858,-2.45935 -35.07618,-3.63672 z m 110.97461,11.17188 4.43164,49.17383 40.54102,-26.91797 -0.72656,-18.66406 c -14.6642,-1.02661 -29.44802,-2.25625 -44.2461,-3.5918 z m -531.52539,1.7539 c -38.0755,6.62306 -77.0329,15.04625 -118.2637,25.67774 l -0.4004,22.28516 106.795,12.93945 z m 725.14844,1.81836 c -28.6208,3.17467 -60.17497,3.81674 -93.22266,2.87696 l -2.47851,20.11914 94.31055,23.33203 z"
     id="path3991" /><path
     inkscape:connector-curvature="0"
     style="fill:#5af049;fill-opacity:1"
     d="m -828.41016,992.80273 c -0.665,-0.0153 -1.05602,0.0108 -1.11523,0.082 -0.31758,0.38196 -2.46139,27.06637 -4.48047,54.21877 35.56546,-1.6335 69.96151,-4.2238 104.22656,-8.0625 0.0715,-0.5989 0.13461,-1.2047 0.1875,-1.8183 0.51985,-6.0308 -1.73891,-15.3674 -9.24609,-21.4864 -9.5125,-7.9494 -29.87355,-14.9247 -55.25195,-18.92775 -11.59104,-1.82828 -29.66527,-3.89864 -34.32032,-4.00586 z m 174.08008,1.91993 c -13.95714,0 -27.567,3.64371 -41.12109,7.05664 -22.09142,7.3254 -31.49161,18.7025 -30.39453,36.8184 25.79828,-2.9635 51.55675,-6.6354 77.7207,-11.168 z m -312.83203,2.78906 -15.26758,50.19528 c 15.51847,0.9882 30.20151,1.6011 43.85352,1.709 l 14.48633,-28.3008 z m 85.04297,1.16016 -30.25586,0.55078 -21.22656,50.20704 c 0.58934,-9e-4 1.19804,0.01 1.7832,0 11.0288,-0.056 21.87863,-0.1672 32.58398,-0.3418 l 3.51368,-8.3691 2.60547,8.2519 c 12.01267,-0.2244 23.8502,-0.5294 35.53125,-0.9277 z m -178.87496,0.44335 -38.8848,22.48247 8.4316,16.1425 c 16.2139,1.6947 32.2224,3.3465 47.7207,4.8516 z m 48.6562,9.40627 -22.457,34.9219 c 17.4226,1.6415 34.2691,3.0737 50.2324,4.1191 z m 214.24806,20.0254 c 5.70558,0.3981 31.89298,2.2657 32,8.998 0.0833,5.2407 -25.71611,6.0469 -32,5.1778 z"
     id="path3993" /></g></svg>