<?xml version="1.0" encoding="UTF-8" standalone="no"?>
<!-- Generator: Adobe Illustrator 16.0.0, SVG Export Plug-In . SVG Version: 6.00 Build 0)  -->

<svg
   xmlns:dc="http://purl.org/dc/elements/1.1/"
   xmlns:cc="http://creativecommons.org/ns#"
   xmlns:rdf="http://www.w3.org/1999/02/22-rdf-syntax-ns#"
   xmlns:svg="http://www.w3.org/2000/svg"
   xmlns="http://www.w3.org/2000/svg"
   xmlns:xlink="http://www.w3.org/1999/xlink"
   xmlns:sodipodi="http://sodipodi.sourceforge.net/DTD/sodipodi-0.dtd"
   xmlns:inkscape="http://www.inkscape.org/namespaces/inkscape"
   version="1.1"
   id="Capa_1"
   x="0px"
   y="0px"
   width="383.84839"
   height="189.69269"
   viewBox="0 0 383.84836 189.69268"
   xml:space="preserve"
   sodipodi:docname="capivaralogo.svg"
   inkscape:version="0.92.4 (5da689c313, 2019-01-14)"><metadata
   id="metadata49"><rdf:RDF><cc:Work
       rdf:about=""><dc:format>image/svg+xml</dc:format><dc:type
         rdf:resource="http://purl.org/dc/dcmitype/StillImage" /><dc:title /></cc:Work></rdf:RDF></metadata><defs
   id="defs47"><linearGradient
     inkscape:collect="always"
     id="linearGradient3961"><stop
       style="stop-color:#6f3e1e;stop-opacity:1"
       offset="0"
       id="stop3957" /><stop
       style="stop-color:#63b6ff;stop-opacity:1"
       offset="1"
       id="stop3959" /></linearGradient><linearGradient
     inkscape:collect="always"
     xlink:href="#linearGradient3961"
     id="linearGradient3963"
     x1="-382"
     y1="337.69269"
     x2="-382"
     y2="120.69269"
     gradientUnits="userSpaceOnUse" /></defs><sodipodi:namedview
   pagecolor="#ffffff"
   bordercolor="#666666"
   borderopacity="1"
   objecttolerance="10"
   gridtolerance="10"
   guidetolerance="10"
   inkscape:pageopacity="0"
   inkscape:pageshadow="2"
   inkscape:window-width="1366"
   inkscape:window-height="705"
   id="namedview45"
   showgrid="false"
   inkscape:pagecheckerboard="true"
   units="px"
   inkscape:zoom="1"
   inkscape:cx="-269.60271"
   inkscape:cy="-21.042375"
   inkscape:window-x="-8"
   inkscape:window-y="-8"
   inkscape:window-maximized="1"
   inkscape:current-layer="Capa_1"
   inkscape:snap-global="false"
   showguides="false"
   inkscape:guide-bbox="true"
   inkscape:snap-bbox="true"
   inkscape:bbox-paths="true"
   inkscape:bbox-nodes="true"
   inkscape:snap-bbox-midpoints="true"
   inkscape:snap-bbox-edge-midpoints="true"
   inkscape:object-paths="true"
   inkscape:snap-intersection-paths="true"
   inkscape:snap-smooth-nodes="true"
   fit-margin-top="0"
   fit-margin-left="0"
   fit-margin-right="0"
   fit-margin-bottom="0" />

<g
   id="g14"
   transform="translate(-68.744321,749.90182)">
</g>
<g
   id="g16"
   transform="translate(-68.744321,749.90182)">
</g>
<g
   id="g18"
   transform="translate(-68.744321,749.90182)">
</g>
<g
   id="g20"
   transform="translate(-68.744321,749.90182)">
</g>
<g
   id="g22"
   transform="translate(-68.744321,749.90182)">
</g>
<g
   id="g24"
   transform="translate(-68.744321,749.90182)">
</g>
<g
   id="g26"
   transform="translate(-68.744321,749.90182)">
</g>
<g
   id="g28"
   transform="translate(-68.744321,749.90182)">
</g>
<g
   id="g30"
   transform="translate(-68.744321,749.90182)">
</g>
<g
   id="g32"
   transform="translate(-68.744321,749.90182)">
</g>
<g
   id="g34"
   transform="translate(-68.744321,749.90182)">
</g>
<g
   id="g36"
   transform="translate(-68.744321,749.90182)">
</g>
<g
   id="g38"
   transform="translate(-68.744321,749.90182)">
</g>
<g
   id="g40"
   transform="translate(-68.744321,749.90182)">
</g>
<g
   id="g42"
   transform="translate(-68.744321,749.90182)">
</g>








































<g
   id="g7260"
   transform="matrix(0.41875827,0,0,0.41875827,588.25244,-299.7475)"
   inkscape:export-xdpi="300"
   inkscape:export-ydpi="300"><path
     sodipodi:nodetypes="cccccccccccccccccccccccccccccccccccccccccccccssccccccccccccccccccccccccccccc"
     inkscape:connector-curvature="0"
     id="path7243"
     d="m -1017.8418,715.80078 -6.5527,14.23633 -22.6797,49.24609 -0.055,0.11719 -116.2676,-25.125 0.9668,29.19531 -32.3203,-30.17968 -23.7754,20.3789 -2.3828,2.04297 -16.4805,14.13281 -8.8984,-42.28711 -37.6524,13.25196 -5.3164,1.87109 -112.1875,39.48633 -3.3105,184.50781 170.4785,20.65622 6.9082,-35.44528 71.5723,17.70703 0.3769,11.75585 19.9571,0.3926 -10.9649,6.3398 15.5254,29.7207 56.8887,108.9102 72.7715,-9.8828 1.28122,-2.9844 52.01171,10.6914 5.17579,-10.1133 43.03125,13.8106 3.09961,-6.3906 4.66601,9.1542 36.92773,-17.2089 c 0.24389,0.092 0.51714,0.2167 0.76172,0.3183 2.53138,1.052 4.98215,1.8461 7.27149,2.5313 2.28933,0.6852 4.38515,1.235 5.94726,1.6269 0.78106,0.196 1.42639,0.3515 1.89063,0.461 0.23212,0.055 0.42004,0.1 0.55664,0.1308 0.0683,0.016 0.12225,0.027 0.16797,0.037 0.0214,0 0.0404,0.01 0.0625,0.014 l 5.23828,0.2383 36.16406,-4.7442 28.61133,34.3868 34.68164,-30.5645 4.07813,11.1113 38.04687,-2.0351 c 20.32693,-1.0868 38.07042,-3.8216 54.08008,-10.9082 16.88011,-7.472 32.01481,-21.3561 37.67773,-40.836 3.43503,-11.8162 3.16198,-23.107 1.61719,-33.0429 -1.50212,-9.6615 -4.55842,-21.1011 -12.64648,-31.7051 -0.3946,-0.5173 -0.88481,-0.963 -1.30078,-1.4629 l -11.64063,-61.37695 130.69336,32.33205 4.96875,-165.584 -87.20508,-81.42578 -17.77539,15.23632 -79.40039,-3.50195 -9.28906,-17.00977 -25.86133,5.96485 -59.70508,13.76758 0.61719,6.20898 -22.14258,-20.67578 -23.77344,20.39648 -2.37695,2.03711 -16.27148,13.95508 -53.90821,-16.05469 -2.23242,-5.22656 -29.60156,8.3418 -2.96094,0.83398 -9.24219,2.60547 8.40235,-14.45703 z m 113.19336,248.27539 -31.10547,0.56641 -3.49218,8.25781 -29.29688,-16.05469 37.06458,-16.77855 z"
     style="color:#000000;font-style:normal;font-variant:normal;font-weight:normal;font-stretch:normal;font-size:medium;line-height:normal;font-family:sans-serif;font-variant-ligatures:normal;font-variant-position:normal;font-variant-caps:normal;font-variant-numeric:normal;font-variant-alternates:normal;font-feature-settings:normal;text-indent:0;text-align:start;text-decoration:none;text-decoration-line:none;text-decoration-style:solid;text-decoration-color:#000000;letter-spacing:normal;word-spacing:normal;text-transform:none;writing-mode:lr-tb;direction:ltr;text-orientation:mixed;dominant-baseline:auto;baseline-shift:baseline;text-anchor:start;white-space:normal;shape-padding:0;clip-rule:nonzero;display:inline;overflow:visible;visibility:visible;opacity:1;isolation:auto;mix-blend-mode:normal;color-interpolation:sRGB;color-interpolation-filters:linearRGB;solid-color:#000000;solid-opacity:1;vector-effect:none;fill:#ffffff;fill-opacity:1;fill-rule:nonzero;stroke:none;stroke-width:30;stroke-linecap:butt;stroke-linejoin:miter;stroke-miterlimit:4;stroke-dasharray:none;stroke-dashoffset:0;stroke-opacity:1;color-rendering:auto;image-rendering:auto;shape-rendering:auto;text-rendering:auto;enable-background:accumulate" /><path
     sodipodi:nodetypes="ccccccccccccccccccccccccccscccsccccccccsccccccccscccccccccc"
     inkscape:connector-curvature="0"
     id="path7214"
     d="m -979.13477,968.14648 -11.19531,36.80662 -22.84372,-32.10935 -22.709,35.31445 -15.0723,-37.94922 -75.5215,43.66602 8.8711,16.9824 52.0117,99.5742 53.92,-7.3222 2.7558,-6.4199 52.81644,10.8574 5.7832,-11.2989 42.76563,13.7247 10.5039,-21.6504 0.14649,-0.025 11.71679,22.9883 31.67383,-14.7598 c 0.39624,0.5129 0.56278,0.8926 1.10938,1.4844 2.77352,3.0025 17.29775,6.264 17.30078,6.2636 l 44.35937,-5.8183 24.02735,28.8769 39.55078,-34.8554 7.8125,21.289 26.98242,-1.4433 c 19.4166,-1.0381 35.28825,-3.6618 48.80859,-9.6465 13.52035,-5.9848 25.21666,-17.1032 29.34571,-31.3067 2.68511,-9.2366 2.53316,-17.971 1.19922,-26.5507 -1.33395,-8.5798 -3.57717,-16.8211 -9.75,-24.9141 -0.95104,-1.2469 -2.0827,-2.5179 -3.35157,-3.7617 l -11.65039,-61.41994 h -16.5625 c -17.43777,0 -32.64408,4.29809 -46.0039,7.66211 l -0.7129,0.17968 -0.69921,0.23243 c -10.54746,3.49748 -19.95877,8.23221 -27.59375,15.11718 -15.54866,-11.46874 -36.17028,-16.84502 -61.63282,-20.86133 -7.11826,-1.12278 -15.99464,-2.25919 -23.42382,-3.08203 -3.7146,-0.41141 -7.02032,-0.74123 -9.71875,-0.94922 -1.34922,-0.10399 -2.4948,-0.182 -3.83594,-0.21289 -0.67057,-0.0154 -1.31958,-0.0416 -2.64063,0.0508 -0.66052,0.0462 -1.43805,0.0774 -3.0957,0.43945 -1.65765,0.36204 -4.6484,-1.1046 -11.21875,6.79883 h 0.002 c -4.22906,5.08638 -3.44939,5.95497 -3.74804,6.92187 -0.29866,0.9669 -0.39192,1.43678 -0.47461,1.82617 -0.16538,0.77879 -0.21283,1.13219 -0.26367,1.47266 -0.10169,0.68093 -0.15436,1.15471 -0.2168,1.70898 -0.12489,1.10854 -0.25408,2.41316 -0.4043,4.03516 -0.30043,3.244 -0.67736,7.67749 -1.10937,12.96869 -0.13751,1.6842 -0.32542,4.2835 -0.47266,6.125 l -18.24414,-36.71283 -55.89649,1.01953 -6.16015,14.56836 z m 252.93165,32.08592 0.18945,0.1563 c -0.0335,-0.028 -0.0719,-0.05 -0.10547,-0.078 -0.0306,-0.025 -0.0533,-0.053 -0.084,-0.078 z"
     style="color:#000000;font-style:normal;font-variant:normal;font-weight:normal;font-stretch:normal;font-size:medium;line-height:normal;font-family:sans-serif;font-variant-ligatures:normal;font-variant-position:normal;font-variant-caps:normal;font-variant-numeric:normal;font-variant-alternates:normal;font-feature-settings:normal;text-indent:0;text-align:start;text-decoration:none;text-decoration-line:none;text-decoration-style:solid;text-decoration-color:#000000;letter-spacing:normal;word-spacing:normal;text-transform:none;writing-mode:lr-tb;direction:ltr;text-orientation:mixed;dominant-baseline:auto;baseline-shift:baseline;text-anchor:start;white-space:normal;shape-padding:0;clip-rule:nonzero;display:inline;overflow:visible;visibility:visible;opacity:1;isolation:auto;mix-blend-mode:normal;color-interpolation:sRGB;color-interpolation-filters:linearRGB;solid-color:#000000;solid-opacity:1;vector-effect:none;fill:#0a5500;fill-opacity:1;fill-rule:nonzero;stroke:none;stroke-width:40;stroke-linecap:butt;stroke-linejoin:miter;stroke-miterlimit:4;stroke-dasharray:none;stroke-dashoffset:0;stroke-opacity:1;color-rendering:auto;image-rendering:auto;shape-rendering:auto;text-rendering:auto;enable-background:accumulate" /><path
     sodipodi:nodetypes="cccccccccccccccccccccccccccccccccccccccccccccccccccccccccccccccccccccc"
     inkscape:connector-curvature="0"
     id="path7145"
     d="m -1010.7695,736.30859 -8.7383,18.98243 -1.5274,3.32031 -16.4902,35.79297 4.7676,3.44922 L -1147.7676,773 l 0.8496,25.62695 0.1465,4.47461 0.5137,15.99024 -48.9199,-45.67774 -13.586,11.64453 -2.3808,2.04102 -35.7071,30.61914 -10.5918,-50.33203 -21.5156,7.57226 -5.3164,1.8711 -102.3574,36.02734 -2.8809,160.55469 143.1856,17.34961 7.2539,-37.22266 97.9062,24.22071 0.2852,8.87304 44.3965,0.87305 39.8086,-23.95703 -4.7364,-31.08594 34.1621,-8.17773 -0.455,45.31836 87.10739,-43.4629 -5.38086,-44.01757 71.63867,97.98828 20.11914,-52.05469 -2.42578,19.67969 124.08985,30.69922 1.08007,11.98242 77.86914,-51.70313 -2.74609,-70.50586 22.47266,4.72657 -9.21875,74.80078 135.57812,33.54101 4.20703,-140.22851 -72.43554,-67.63477 -13.58594,11.64453 -2.38086,2.04102 -15.00586,12.86914 1.87109,-16.94531 -73.08984,-3.22461 -2.55664,1.87305 -9.00195,-16.48438 -14.77735,3.4082 -46.84375,10.80274 2.04493,20.57617 1.20507,12.11719 -41.43164,-38.6836 -13.58593,11.65625 -2.37696,2.03711 -22.47851,19.27735 -53.43555,-15.91211 -6.0293,16.65234 -8.84961,-20.71875 -16.91601,4.76758 -2.95899,0.83398 -39.6914,11.18946 -0.75586,-6.18164 14.63476,-25.1836 z m -17.7696,64.59766 2.502,1.8125 -0.076,8.01367 -0.055,5.45313 z"
     style="color:#000000;font-style:normal;font-variant:normal;font-weight:normal;font-stretch:normal;font-size:medium;line-height:normal;font-family:sans-serif;font-variant-ligatures:normal;font-variant-position:normal;font-variant-caps:normal;font-variant-numeric:normal;font-variant-alternates:normal;font-feature-settings:normal;text-indent:0;text-align:start;text-decoration:none;text-decoration-line:none;text-decoration-style:solid;text-decoration-color:#000000;letter-spacing:normal;word-spacing:normal;text-transform:none;writing-mode:lr-tb;direction:ltr;text-orientation:mixed;dominant-baseline:auto;baseline-shift:baseline;text-anchor:start;white-space:normal;shape-padding:0;clip-rule:nonzero;display:inline;overflow:visible;visibility:visible;opacity:1;isolation:auto;mix-blend-mode:normal;color-interpolation:sRGB;color-interpolation-filters:linearRGB;solid-color:#000000;solid-opacity:1;vector-effect:none;fill:#5a2500;fill-opacity:1;fill-rule:nonzero;stroke:none;stroke-width:40;stroke-linecap:butt;stroke-linejoin:miter;stroke-miterlimit:4;stroke-dasharray:none;stroke-dashoffset:0;stroke-opacity:1;color-rendering:auto;image-rendering:auto;shape-rendering:auto;text-rendering:auto;enable-background:accumulate" /><g
     id="g7210"
     style="fill:#ff6600"><path
       sodipodi:nodetypes="ccccccccccccccccccccccccccccccccccccccccccccccccccccccccccccccccccccccccccccccccccccccccccccccc"
       inkscape:connector-curvature="0"
       id="path7206"
       d="m -1001.3398,763.6543 -1.5293,3.3223 -9.6114,20.8632 24.5039,17.7325 -18.1093,2.3066 -0.029,3.0508 -1.2657,126.1797 45.21488,-22.5606 -13.51171,-110.5429 -8.53517,1.0879 14.59571,-25.1153 z m 301.55464,24.4297 -29.69531,6.8476 0.30469,3.0645 4.73047,47.6133 9.87304,109.5761 40.54102,-26.9179 -2.62695,-67.4043 4.80078,-16.3516 39.18164,8.2403 5.59766,-50.6895 -44.72266,-1.9727 -15.30664,11.209 z m -427.14454,9.8808 0.1485,4.4844 5.2792,164.5606 19.6453,0.38711 23.3907,-14.07585 -5.491,-36.02806 51.332,-12.2871 -13.9141,-89.668 z m -68.8183,2.2793 -2.379,2.0391 -46.5566,39.9238 23.7402,28.1133 28.7637,-23.4297 7.7832,7.8242 -49.3008,22.6016 -6.8105,55.2637 94.3105,23.332 3.1934,-106.4199 z m 405.87886,0 -2.37695,2.0391 -46.55664,39.9238 23.73828,28.1133 28.76367,-23.4297 7.7832,7.8242 -49.30078,22.6016 -6.81055,55.2637 94.3125,23.332 3.19336,-106.4199 z m 213.54687,0 -2.3789,2.0391 -46.55664,39.9238 23.73828,28.1133 28.76562,-23.4297 7.78321,7.8242 -49.30078,22.6016 -6.81055,55.2637 94.31055,23.332 3.19336,-106.4199 z m -331.22851,10.1739 -2.95899,0.834 -51.82617,14.6113 82.53516,112.8945 44.02344,-113.9023 -33.02539,-9.834 -16.87696,46.6035 z m -179.67192,30.414 9.8067,3.295 4.8926,23.1855 -10.2168,4.3203 z m -112.1035,53.3985 14.4942,0.7851 -2.5606,13.7149 -15.291,-4.6993 z m 405.87893,0 14.4961,0.7851 -2.5625,13.7149 -15.29102,-4.6993 z m 213.54688,0 14.49414,0.7851 -2.5625,13.7129 -15.28906,-4.6973 z"
       style="color:#000000;font-style:normal;font-variant:normal;font-weight:normal;font-stretch:normal;font-size:medium;line-height:normal;font-family:sans-serif;font-variant-ligatures:normal;font-variant-position:normal;font-variant-caps:normal;font-variant-numeric:normal;font-variant-alternates:normal;font-feature-settings:normal;text-indent:0;text-align:start;text-decoration:none;text-decoration-line:none;text-decoration-style:solid;text-decoration-color:#000000;letter-spacing:normal;word-spacing:normal;text-transform:none;writing-mode:lr-tb;direction:ltr;text-orientation:mixed;dominant-baseline:auto;baseline-shift:baseline;text-anchor:start;white-space:normal;shape-padding:0;clip-rule:nonzero;display:inline;overflow:visible;visibility:visible;opacity:1;isolation:auto;mix-blend-mode:normal;color-interpolation:sRGB;color-interpolation-filters:linearRGB;solid-color:#000000;solid-opacity:1;vector-effect:none;fill:#ff6600;fill-opacity:1;fill-rule:nonzero;stroke:none;stroke-width:7;stroke-linecap:butt;stroke-linejoin:miter;stroke-miterlimit:4;stroke-dasharray:none;stroke-dashoffset:0;stroke-opacity:1;color-rendering:auto;image-rendering:auto;shape-rendering:auto;text-rendering:auto;enable-background:accumulate" /><path
       style="color:#000000;font-style:normal;font-variant:normal;font-weight:normal;font-stretch:normal;font-size:medium;line-height:normal;font-family:sans-serif;font-variant-ligatures:normal;font-variant-position:normal;font-variant-caps:normal;font-variant-numeric:normal;font-variant-alternates:normal;font-feature-settings:normal;text-indent:0;text-align:start;text-decoration:none;text-decoration-line:none;text-decoration-style:solid;text-decoration-color:#000000;letter-spacing:normal;word-spacing:normal;text-transform:none;writing-mode:lr-tb;direction:ltr;text-orientation:mixed;dominant-baseline:auto;baseline-shift:baseline;text-anchor:start;white-space:normal;shape-padding:0;clip-rule:nonzero;display:inline;overflow:visible;visibility:visible;opacity:1;isolation:auto;mix-blend-mode:normal;color-interpolation:sRGB;color-interpolation-filters:linearRGB;solid-color:#000000;solid-opacity:1;vector-effect:none;fill:#ff6600;fill-opacity:1;fill-rule:nonzero;stroke:none;stroke-width:9.89025974;stroke-linecap:butt;stroke-linejoin:miter;stroke-miterlimit:4;stroke-dasharray:none;stroke-dashoffset:0;stroke-opacity:1;color-rendering:auto;image-rendering:auto;shape-rendering:auto;text-rendering:auto;enable-background:accumulate"
       d="m -1272.3176,793.82336 -5.3172,1.87209 -89.2494,31.41346 -2.3095,128.61999 106.7959,12.93933 12.5664,-64.48127 -62.2082,5.68999 4.6656,-39.98228 50.0723,-4.71281 z"
       id="path7208"
       inkscape:connector-curvature="0"
       sodipodi:nodetypes="cccccccccc" /></g><path
     sodipodi:nodetypes="ccscscsccccsccsccccccccscsccccccccccccccccccccccccccccccc"
     inkscape:connector-curvature="0"
     id="path7143"
     d="m -793.9876,1083.2863 -0.0999,15.4357 -43.6156,5.7211 c -0.77458,0.1016 7.5266,-110.77729 8.1768,-111.5593 0.4737,-0.56981 22.1898,1.8354 35.4367,3.92487 25.3784,4.00303 45.7385,10.97773 55.251,18.92713 7.50718,6.119 9.76715,15.4566 9.2473,21.4874 -1.65718,19.2248 -12.51642,31.1839 -27.7932,37.1845 l 24.643,16.3255 -31.7594,27.99 z m 27.898,-45.7418 c -0.10702,-6.7323 -26.29442,-8.599 -32,-8.9971 v 14.1758 c 6.28389,0.8691 32.08331,0.062 32,-5.1787 z m 46.2025,36.7127 c 7.95872,0.4121 16.10752,1.3279 24.3983,1.4042 21.9869,0.1494 19.9094,-6.6794 -3.22,-10.5841 -11.3345,-1.9134 -14.8336,-3.1813 -19.4123,-7.034 -4.4329,-3.7301 -7.0263,-10.0445 -7.6811,-18.7025 -1.403,-18.5512 7.9578,-30.1356 30.3514,-37.5612 13.55409,-3.41293 27.16376,-7.05641 41.1209,-7.05641 l 6.9663,36.72681 -13.2622,0.5061 c -10.1841,0.3886 -14.1559,0.9425 -17.113,2.3866 -9.4054,4.5931 -3.2515,8.2685 15.6492,9.3467 14.1059,0.8046 19.0029,2.5489 23.4225,8.3433 5.7318,7.5148 8.221,23.5251 5.2478,33.7527 -4.6843,16.1134 -23.9416,24.6376 -60.0166,26.5662 l -12.2305,0.6538 z m -379.991,-52.6586 38.8848,-22.48347 20.8867,52.58957 27.7688,-43.1836 29.3008,41.1858 15.8754,-52.19463 43.072,23.60203 -42.8848,83.7787 -35.5575,-7.3097 -8.5069,-26.654 -14.5467,33.885 -28.7837,3.9089 z m 147.2232,72.8926 40.2804,-95.26801 30.2545,-0.55193 44.0304,88.60154 -38.0436,17.7289 -9.66446,-18.9633 -24.78364,4.3565 -7.3886,15.2293 z m 61.3598,-39.7545 -4.4263,-14.0135 -5.8375,13.9034 z"
     style="fill:#2eff19;fill-opacity:1" /><path
     style="fill:#3ded2b;fill-opacity:1"
     d="m -793.9876,1083.2863 -0.0999,15.4357 -43.6156,5.7211 c -0.77458,0.1016 7.5266,-110.77729 8.1768,-111.5593 0.4737,-0.56981 22.1898,1.8354 35.4367,3.92487 25.3784,4.00303 45.7385,10.97773 55.251,18.92713 7.50718,6.119 9.76715,15.4566 9.2473,21.4874 -1.65718,19.2248 -12.51642,31.1839 -27.7932,37.1845 l 24.643,16.3255 -31.7594,27.99 z m 27.898,-45.7418 c -0.10702,-6.7323 -26.29442,-8.599 -32,-8.9971 v 14.1758 c 6.28389,0.8691 32.08331,0.062 32,-5.1787 z m 46.2025,36.7127 c 7.95872,0.4121 16.10752,1.3279 24.3983,1.4042 21.9869,0.1494 19.9094,-6.6794 -3.22,-10.5841 -11.3345,-1.9134 -14.8336,-3.1813 -19.4123,-7.034 -4.4329,-3.7301 -7.0263,-10.0445 -7.6811,-18.7025 -1.403,-18.5512 7.9578,-30.1356 30.3514,-37.5612 13.55409,-3.41293 27.16376,-7.05641 41.1209,-7.05641 l 6.9663,36.72681 -13.2622,0.5061 c -10.1841,0.3886 -14.1559,0.9425 -17.113,2.3866 -9.4054,4.5931 -3.2515,8.2685 15.6492,9.3467 14.1059,0.8046 19.0029,2.5489 23.4225,8.3433 5.7318,7.5148 8.221,23.5251 5.2478,33.7527 -4.6843,16.1134 -23.9416,24.6376 -60.0166,26.5662 l -12.2305,0.6538 z m -379.991,-52.6586 38.8848,-22.48347 20.8867,52.58957 27.7688,-43.1836 29.3008,41.1858 15.8754,-52.19463 43.072,23.60203 -42.8848,83.7787 -35.5575,-7.3097 -8.5069,-26.654 -14.5467,33.885 -28.7837,3.9089 z m 147.2232,72.8926 40.2804,-95.26801 30.2545,-0.55193 44.0304,88.60154 -38.0436,17.7289 -9.66446,-18.9633 -24.78364,4.3565 -7.3886,15.2293 z m 61.3598,-39.7545 -4.4263,-14.0135 -5.8375,13.9034 z"
     id="path7212"
     inkscape:connector-curvature="0"
     sodipodi:nodetypes="ccscscsccccsccsccccccccscsccccccccccccccccccccccccccccccc" /><path
     id="path7216"
     d="m -965.9043,885.5957 c -13.92434,0.0708 -27.54561,0.24121 -40.9648,0.50391 l -0.5118,51.00977 45.21488,-22.56055 -3.53906,-28.95313 c -0.0654,3.1e-4 -0.13383,-3.3e-4 -0.19922,0 z m -69.541,1.23633 c -30.2986,0.96645 -59.5918,2.542 -88.4707,4.90039 l 2.414,75.27735 19.6446,0.38671 23.3906,-14.07617 -5.4902,-36.02734 51.332,-12.28711 z m 117.9453,0.36133 37.69922,51.56445 18.18359,-47.04883 c -19.48309,-1.84467 -38.23793,-3.4267 -55.88281,-4.51562 z m -226.8262,6.33984 c -13.7244,1.30892 -27.3957,2.81505 -41.0722,4.52149 l -1.9942,10.67578 -15.291,-4.69922 1.334,-3.89453 c -11.8977,1.62589 -23.8257,3.41198 -35.8223,5.37695 l -3.3359,27.06641 94.3105,23.33203 z m 314.34768,1.30664 -4.65039,37.74024 94.3125,23.33203 1.55274,-51.74023 c -13.78975,-1.32897 -27.50156,-2.71765 -41.12695,-4.13086 l -1.62305,8.68945 -15.29102,-4.69922 1.90235,-5.55469 c -11.80813,-1.23473 -23.57858,-2.45935 -35.07618,-3.63672 z m 110.97461,11.17188 4.43164,49.17383 40.54102,-26.91797 -0.72656,-18.66406 c -14.6642,-1.02661 -29.44802,-2.25625 -44.2461,-3.5918 z m -531.52539,1.7539 c -38.0755,6.62306 -77.0329,15.04625 -118.2637,25.67774 l -0.4004,22.28516 106.795,12.93945 z m 725.14844,1.81836 c -28.6208,3.17467 -60.17497,3.81674 -93.22266,2.87696 l -2.47851,20.11914 94.31055,23.33203 z"
     style="color:#000000;font-style:normal;font-variant:normal;font-weight:normal;font-stretch:normal;font-size:medium;line-height:normal;font-family:sans-serif;font-variant-ligatures:normal;font-variant-position:normal;font-variant-caps:normal;font-variant-numeric:normal;font-variant-alternates:normal;font-feature-settings:normal;text-indent:0;text-align:start;text-decoration:none;text-decoration-line:none;text-decoration-style:solid;text-decoration-color:#000000;letter-spacing:normal;word-spacing:normal;text-transform:none;writing-mode:lr-tb;direction:ltr;text-orientation:mixed;dominant-baseline:auto;baseline-shift:baseline;text-anchor:start;white-space:normal;shape-padding:0;clip-rule:nonzero;display:inline;overflow:visible;visibility:visible;opacity:1;isolation:auto;mix-blend-mode:normal;color-interpolation:sRGB;color-interpolation-filters:linearRGB;solid-color:#000000;solid-opacity:1;vector-effect:none;fill:#ff822f;fill-opacity:1;fill-rule:nonzero;stroke:none;stroke-width:7;stroke-linecap:butt;stroke-linejoin:miter;stroke-miterlimit:4;stroke-dasharray:none;stroke-dashoffset:0;stroke-opacity:1;color-rendering:auto;image-rendering:auto;shape-rendering:auto;text-rendering:auto;enable-background:accumulate"
     inkscape:connector-curvature="0" /><path
     id="path7232"
     d="m -828.41016,992.80273 c -0.665,-0.0153 -1.05602,0.0108 -1.11523,0.082 -0.31758,0.38196 -2.46139,27.06637 -4.48047,54.21877 35.56546,-1.6335 69.96151,-4.2238 104.22656,-8.0625 0.0715,-0.5989 0.13461,-1.2047 0.1875,-1.8183 0.51985,-6.0308 -1.73891,-15.3674 -9.24609,-21.4864 -9.5125,-7.9494 -29.87355,-14.9247 -55.25195,-18.92775 -11.59104,-1.82828 -29.66527,-3.89864 -34.32032,-4.00586 z m 174.08008,1.91993 c -13.95714,0 -27.567,3.64371 -41.12109,7.05664 -22.09142,7.3254 -31.49161,18.7025 -30.39453,36.8184 25.79828,-2.9635 51.55675,-6.6354 77.7207,-11.168 z m -312.83203,2.78906 -15.26758,50.19528 c 15.51847,0.9882 30.20151,1.6011 43.85352,1.709 l 14.48633,-28.3008 z m 85.04297,1.16016 -30.25586,0.55078 -21.22656,50.20704 c 0.58934,-9e-4 1.19804,0.01 1.7832,0 11.0288,-0.056 21.87863,-0.1672 32.58398,-0.3418 l 3.51368,-8.3691 2.60547,8.2519 c 12.01267,-0.2244 23.8502,-0.5294 35.53125,-0.9277 z m -178.87496,0.44335 -38.8848,22.48247 8.4316,16.1425 c 16.2139,1.6947 32.2224,3.3465 47.7207,4.8516 z m 48.6562,9.40627 -22.457,34.9219 c 17.4226,1.6415 34.2691,3.0737 50.2324,4.1191 z m 214.24806,20.0254 c 5.70558,0.3981 31.89298,2.2657 32,8.998 0.0833,5.2407 -25.71611,6.0469 -32,5.1778 z"
     style="fill:#5af049;fill-opacity:1"
     inkscape:connector-curvature="0" /></g><rect
   style="opacity:1;fill:url(#linearGradient3963);fill-opacity:1;stroke:none;stroke-width:1.84500194;stroke-miterlimit:4;stroke-dasharray:none;stroke-opacity:1"
   id="rect3953"
   width="335"
   height="294"
   x="-382"
   y="119.69269" /><rect
   y="72.692688"
   x="-793"
   height="294"
   width="335"
   id="rect3955"
   style="opacity:1;fill:#60361b;fill-opacity:1;stroke:none;stroke-width:1.84500194;stroke-miterlimit:4;stroke-dasharray:none;stroke-opacity:1" /></svg>