<?xml version="1.0" encoding="UTF-8" standalone="no"?>
<!-- Created with Inkscape (http://www.inkscape.org/) -->

<svg
   xmlns:dc="http://purl.org/dc/elements/1.1/"
   xmlns:cc="http://creativecommons.org/ns#"
   xmlns:rdf="http://www.w3.org/1999/02/22-rdf-syntax-ns#"
   xmlns:svg="http://www.w3.org/2000/svg"
   xmlns="http://www.w3.org/2000/svg"
   xmlns:sodipodi="http://sodipodi.sourceforge.net/DTD/sodipodi-0.dtd"
   xmlns:inkscape="http://www.inkscape.org/namespaces/inkscape"
   width="229.089"
   height="219.6644"
   viewBox="0 0 60.613132 58.11954"
   version="1.1"
   id="svg8"
   inkscape:version="0.92.4 (5da689c313, 2019-01-14)"
   sodipodi:docname="capii-icon-yellow.svg">
  <defs
     id="defs2">
    <clipPath
       id="clipPath4773"
       clipPathUnits="userSpaceOnUse">
      <path
         inkscape:connector-curvature="0"
         id="path4771"
         d="m 305.925,416.681 c 0,-51.956 42.119,-94.074 94.075,-94.074 v 0 c 51.956,0 94.074,42.118 94.074,94.074 v 0 c 0,51.955 -42.118,94.074 -94.074,94.074 v 0 c -51.956,0 -94.075,-42.119 -94.075,-94.074" />
    </clipPath>
    <clipPath
       id="clipPath4981"
       clipPathUnits="userSpaceOnUse">
      <path
         inkscape:connector-curvature="0"
         id="path4979"
         d="m 339.313,507.324 h 60.691 V 313.119 h -60.691 z" />
    </clipPath>
    <clipPath
       id="clipPath4761"
       clipPathUnits="userSpaceOnUse">
      <path
         inkscape:connector-curvature="0"
         id="path4759"
         d="M 0,800 H 800 V 0 H 0 Z" />
    </clipPath>
    <clipPath
       clipPathUnits="userSpaceOnUse"
       id="clipPath4089">
      <path
         d="m 2.9178143,67.206199 c 0,14.773696 -11.9762509,26.749955 -26.7499543,26.749955 -14.773699,0 -26.750238,-11.976259 -26.750238,-26.749955 0,-14.773694 11.976539,-26.749951 26.750238,-26.749951 14.7737034,0 26.7499543,11.976257 26.7499543,26.749951"
         style="fill:#6eff6e;fill-opacity:1;fill-rule:nonzero;stroke:none;stroke-width:0.28435013"
         id="path4091"
         inkscape:connector-curvature="0" />
    </clipPath>
  </defs>
  <sodipodi:namedview
     id="base"
     pagecolor="#ffffff"
     bordercolor="#666666"
     borderopacity="1.0"
     inkscape:pageopacity="0.0"
     inkscape:pageshadow="2"
     inkscape:zoom="0.7"
     inkscape:cx="164.12484"
     inkscape:cy="123.67996"
     inkscape:document-units="px"
     inkscape:current-layer="layer1"
     showgrid="false"
     inkscape:pagecheckerboard="true"
     inkscape:window-width="1366"
     inkscape:window-height="705"
     inkscape:window-x="-8"
     inkscape:window-y="-8"
     inkscape:window-maximized="1"
     units="px"
     showborder="true"
     fit-margin-top="0"
     fit-margin-left="0"
     fit-margin-right="0"
     fit-margin-bottom="0"
     inkscape:snap-global="false" />
  <metadata
     id="metadata5">
    <rdf:RDF>
      <cc:Work
         rdf:about="">
        <dc:format>image/svg+xml</dc:format>
        <dc:type
           rdf:resource="http://purl.org/dc/dcmitype/StillImage" />
        <dc:title />
      </cc:Work>
    </rdf:RDF>
  </metadata>
  <g
     inkscape:label="Camada 1"
     inkscape:groupmode="layer"
     id="layer1"
     transform="translate(-37.948649,-23.865835)">
    <text
       xml:space="preserve"
       style="font-style:normal;font-variant:normal;font-weight:normal;font-stretch:normal;font-size:18.90994835px;line-height:1.25;font-family:'Arial Rounded MT Bold';-inkscape-font-specification:'Arial Rounded MT Bold, Normal';font-variant-ligatures:normal;font-variant-position:normal;font-variant-caps:normal;font-variant-numeric:normal;font-variant-alternates:normal;font-feature-settings:normal;text-indent:0;text-align:start;text-decoration:none;text-decoration-line:none;text-decoration-style:solid;text-decoration-color:#000000;letter-spacing:0px;word-spacing:0px;text-transform:none;writing-mode:lr-tb;direction:ltr;text-orientation:mixed;dominant-baseline:auto;baseline-shift:baseline;text-anchor:start;white-space:normal;shape-padding:0;opacity:1;vector-effect:none;fill:#4d4d4d;fill-opacity:1;stroke:none;stroke-width:0.4727506;stroke-linecap:butt;stroke-linejoin:miter;stroke-miterlimit:4;stroke-dasharray:none;stroke-dashoffset:0;stroke-opacity:1"
       x="68.420998"
       y="131.29288"
       id="text3995"><tspan
         sodipodi:role="line"
         id="tspan3993"
         x="68.420998"
         y="148.33374"
         style="stroke-width:0.4727506" /></text>
    <rect
       style="opacity:1;fill:#bcdba1;fill-opacity:1;stroke:#0c3806;stroke-width:1.85208333;stroke-miterlimit:4;stroke-dasharray:none;stroke-opacity:1"
       id="rect4165"
       width="58.761051"
       height="45.855247"
       x="38.874691"
       y="35.204086"
       ry="2.3812499" />
    <path
       inkscape:connector-curvature="0"
       style="fill:#ffd42a;stroke-width:0.05066591;fill-opacity:1"
       d="m 80.176053,23.865835 v 0.759643 0.760161 h -0.75965 -0.76016 v 0.760161 0.759642 h -0.76016 -0.75964 v 0.760162 0.760158 h -0.76016 -0.76016 v 1.519806 1.519804 h -1.51981 -1.5198 v 0.760159 0.760161 h -2.27996 -2.279968 v 0.759642 0.760162 h -1.52032 -1.519804 v 0.760161 0.759642 h -1.519804 -1.520323 v 0.760161 0.760159 h -1.519803 -1.519804 v 0.759645 0.760159 h -1.52032 -1.519803 v 0.760161 0.759645 H 55.096442 54.3368 v 0.760159 0.760161 h -0.760161 -0.760161 v 0.759642 0.760161 h -0.759643 -0.760161 v 0.760162 0.759642 H 50.536515 49.77687 v 0.760161 0.760159 H 49.016712 48.25655 v 3.799768 3.799769 h 0.760162 0.760158 v 0.760161 0.760159 h 0.759645 0.760159 v 1.519803 1.519807 h 0.760161 0.759643 v 0.760158 0.760161 h 0.760161 0.760161 v 0.759643 0.760161 h 0.759642 0.760162 v 0.760161 0.759643 h 6.839892 6.839893 v -0.759643 -0.760161 h 1.519804 1.52032 v 8.359696 8.360218 h 0.75964 0.76016 v 1.54822 h 22.79965 V 77.064656 55.785333 h -1.51981 -1.52032 v -0.760159 -0.760161 h -0.75964 -0.76016 V 53.50537 52.745209 h -0.76016 -0.75965 v -7.600053 -7.599537 h -0.76016 -0.76016 v -2.279962 -2.279965 h 0.76016 0.76016 v -2.279965 -2.279965 h -2.27996 -2.27996 v 0.759645 0.760161 h -0.76016 -0.76016 v 0.760159 0.759645 h -0.75965 -0.76016 v -3.03961 -3.040123 h -0.76016 -0.75964 v -0.760161 -0.759643 h -0.76016 z"
       id="path4142" />
    <path
       inkscape:connector-curvature="0"
       style="fill:#d4aa00;stroke-width:0.05066591;fill-opacity:1"
       d="m 81.696373,25.385639 v 0.760161 0.759642 h -0.76016 -0.76016 v 0.760162 0.760158 h -0.75965 -0.76016 v 1.519806 1.519804 h -0.76016 v 1.52032 h 6.8399 v -0.760161 -0.760159 h -0.75965 -0.76016 v -3.03961 -3.040123 h -0.76016 z m 3.03961,7.600053 v 0.759642 0.760162 h -4.55993 -4.55993 v 0.760161 0.759642 h 1.52032 1.5198 v 0.760161 0.760159 h 0.76016 0.75965 v 0.759645 0.760159 h -0.75965 -0.76016 v -0.760159 -0.759645 h -2.27996 -2.27997 v 0.759645 0.760159 h -0.76016 -0.75964 v 0.760161 0.759645 h -0.76016 -0.76016 v -0.759645 -0.760161 h -0.75964 -0.760164 V 38.305264 37.545619 H 68.77623 68.016585 v 0.759645 0.760159 h -1.52032 -1.519804 v 0.760161 0.759645 h -1.519804 -1.520323 v 0.760159 0.760161 h -1.519803 -1.519804 v 0.759642 0.760161 h -0.760159 -0.760161 v 0.760162 0.759642 h -0.759642 -0.760161 v 0.760161 0.760159 h 0.760161 0.759642 v 0.759645 0.760161 H 55.856604 54.3368 v 3.040124 3.039607 h 0.759642 0.760162 v 1.52032 1.519803 h 1.519803 1.52032 v 0.760161 0.759646 h 7.599538 7.600048 v 0.760158 0.760161 h 0.76017 0.75964 v 0.760161 0.759643 h 0.76016 0.76016 v 8.360214 8.3597 h 0.75964 0.76016 v 1.5198 0.0284 h 18.23972 V 75.54485 55.785333 h -1.51981 -1.52032 v -0.760159 -0.760161 h -0.75964 -0.76016 V 53.50537 52.745209 h -0.76016 -0.75965 v -7.600053 -7.599537 h -0.76016 -0.76016 v -2.279962 -2.279965 h 0.76016 0.76016 v -1.52032 h -3.04012 -1.5198 v 0.760159 0.760161 h -0.76016 z"
       id="path4144" />
    <path
       inkscape:connector-curvature="0"
       style="fill:#806600;stroke-width:0.05066591;fill-opacity:1"
       d="m 81.696373,25.385639 v 1.519803 h -0.76016 -0.76016 v 0.760162 0.760158 h -0.75965 -0.76016 v 1.519806 1.519804 h -0.76016 -0.52968 c 7.9e-4,0.07627 -0.0146,0.15575 -0.005,0.230476 5.3e-4,0.163984 -5.3e-4,0.327978 -0.002,0.491958 0,0.21771 0.0148,0.435946 -0.005,0.653191 0.0164,0.04811 0.0326,0.09629 0.0481,0.144695 h 1.25315 6.07973 v -0.760161 -0.760159 h -0.75954 -0.76016 v -3.03961 -3.040123 h -0.76016 z m 3.03961,7.600053 v 3.039607 3.040124 h 0.76016 0.76016 v 5.320091 5.319572 h 0.75964 0.76016 v 2.279962 2.279965 h 0.76016 0.75964 v 1.52032 1.519803 h 0.76016 0.76016 v 0.760161 0.759646 h 0.75965 0.76016 v 0.760158 0.760161 h 1.5198 1.52032 v 0.760161 0.759643 h 0.75965 0.76016 v -3.040123 -3.03961 h -1.51981 -1.52032 v -0.760159 -0.760161 h -0.75964 -0.76016 V 53.50537 52.745209 h -0.76016 -0.75965 v -7.600053 -7.599537 h -0.76016 -0.76016 v -2.279962 -2.279965 h 1.52032 v -1.52032 h -3.04012 -1.5198 v 0.760159 0.760161 h -0.76016 z m -10.63967,4.559927 v 0.759645 0.760159 h -0.76016 -0.75964 v 1.519806 1.52032 h 3.03961 3.04012 v 0.759642 0.760161 h 1.51981 1.52032 v -2.279964 -2.279965 h -1.52032 -1.51981 v -0.760159 -0.759645 h -2.27996 z M 54.3368,48.185282 v 2.279962 2.279965 h 2.279965 2.279962 v -1.519803 -1.52032 h -0.760159 -0.760161 v -0.759645 -0.760159 h -1.519803 z m 36.479423,24.319961 v 1.519803 1.519804 h -0.76016 -0.76016 v 4.58835 h 4.55993 v -1.54822 h 0.76016 0.76016 v -3.04013 -3.039607 h -2.27996 z"
       id="path4146" />
    <g
       transform="matrix(0.05066591,0,0,0.05066591,307.30798,36.794927)"
       id="g4152">
      <path
         id="path4148"
         style="fill:#38cd06"
         d="m -4751.8184,74.814453 v 29.999997 30 h 15 15 v 15 15 h 15 15 v 15 15 h 15 15 v 15 15 h 15 15 v 30 30 h 15 15 v 15 15 h 15 15 v 15 15 h 15 15 v -30 -30 h -15 -15 v -30 -30 h -15 -15 v -30 -30 h -15 -15 v -15 -15 h -15 -15 v -15 -15 h -15 -15 v -14.999997 -15 h -30 z m -90,59.999997 v 30 30 h 15 15 v 15 15 h 15 15 v 15 15 h 15 15 v 15 15 h 15 15 v 30 30 h 15 15 v 15 15 h 30 30 v -30 -30 h -15 -15 v -30 -30 h -15 -15 v -15 -15 h -15 -15 v -15 -15 h -15 -15 v -15 -15 h -15 -15 v -15 -15 h -30 z"
         inkscape:connector-curvature="0"
         sodipodi:nodetypes="cccccccccccccccccccccccccccccccccccccccccccccccccccccccccccccccccccccccccccccccccccccccccccccccccccccc" />
      <path
         id="path4150"
         style="fill:#2c850f"
         d="m -4751.8184,74.814453 v 15 14.999997 h 15 15 v 15 15 h 15 15 v 15 15 h 15 15 v 15 15 h 15 15 v 15 15 h 15 15 v -30 -30 h -15 -15 v -15 -15 h -15 -15 v -15 -15 h -15 -15 v -14.999997 -15 h -30 z m 150,149.999997 v 30 30 h 15 15 v -30 -30 h -15 z m 30,60 v 15 15 h 15 15 v -15 -15 h -15 z m -270,-150 v 15 15 h 15 15 v 15 15 h 15 15 v 15 15 h 15 15 v 15 15 h 15 15 v 15 15 h 15 15 v 30 30 h 30 30 v -15 -15 h -15 -15 v -30 -30 h -15 -15 v -15 -15 h -15 -15 v -15 -15 h -15 -15 v -15 -15 h -15 -15 v -15 -15 h -30 z"
         inkscape:connector-curvature="0"
         sodipodi:nodetypes="cccccccccccccccccccccccccccccccccccccccccccccccccccccccccccccccccccccccccccccccccccccccccccccccccccccccc" />
    </g>
    <path
       inkscape:connector-curvature="0"
       style="fill:#000000;stroke-width:0.05066591"
       d="m 80.176053,23.865835 v 0.759643 0.760161 h 0.76016 0.76016 v -0.760161 -0.759643 h -0.76016 z m 1.52032,1.519804 v 3.040123 3.03961 h -2.27997 -2.27996 v -1.519804 -1.519806 h -0.76016 -0.76016 v 1.519806 1.519804 h -1.51981 -1.5198 v 0.760159 0.760161 h 6.07973 6.07974 v -0.760161 -0.760159 h -0.75965 -0.76016 v -3.03961 -3.040123 h -0.76016 z m 3.03961,6.079733 h 0.76016 0.76016 v -0.759645 -0.760159 h -0.76016 -0.76016 v 0.760159 z m 1.52032,-1.519804 h 1.5198 1.5198 v 1.519804 1.52032 h 0.76016 0.76016 v -2.279965 -2.279965 h -2.27996 -2.27996 v 0.759645 z m 3.0396,3.040124 h -0.75964 -0.76016 v 2.279965 2.279962 h 0.76016 0.75964 v -2.279962 z m 0,4.559927 v 7.599537 7.600053 h 0.76016 0.76016 v -7.600053 -7.599537 h -0.76016 z m 1.52032,15.19959 v 0.760161 0.759643 h 0.75965 0.76016 V 53.50537 52.745209 h -0.76016 z m 1.51981,1.519804 v 0.760161 0.760159 h 0.76016 0.75964 v -0.760159 -0.760161 h -0.75964 z m 1.5198,1.52032 v 0.759645 0.760158 h 1.52032 1.51981 v -0.760158 -0.759645 h -1.51981 z M 72.576513,32.985692 h -2.27996 -2.279968 v 0.759642 0.760162 h 2.279968 2.27996 v -0.760162 z m -4.559928,1.519804 h -1.52032 -1.519804 v 0.760161 0.759642 h 1.519804 1.52032 v -0.759642 z m -3.040124,1.519803 h -1.519804 -1.520323 v 0.760161 0.760159 h 1.520323 1.519804 V 36.78546 Z m -3.040127,1.52032 h -1.519803 -1.519804 v 0.759645 0.760159 h 1.519804 1.519803 v -0.760159 z m -3.039607,1.519804 h -1.52032 -1.519803 v 0.760161 0.759645 h 1.519803 1.52032 v -0.759645 z m -3.040123,1.519806 H 55.096442 54.3368 v 0.760159 0.760161 h 0.759642 0.760162 v -0.760161 z m -1.519804,1.52032 h -0.760161 -0.760161 v 0.759642 0.760161 h 0.760161 0.760161 v -0.760161 z m -1.520322,1.519803 h -0.759643 -0.760161 v 0.760162 0.759642 h 0.760161 0.759643 v -0.759642 z m -1.519804,1.519804 H 50.536515 49.77687 v 0.760161 0.760159 h 0.759645 0.760159 v -0.760159 z m -1.519804,1.52032 H 49.016712 48.25655 v 3.799768 3.799769 h 0.760162 0.760158 v -3.799769 z m 0,7.599537 v 0.760161 0.760159 h 0.759645 0.760159 v -0.760159 -0.760161 h -0.760159 z m 1.519804,1.52032 v 1.519803 1.519807 h 0.760161 0.759643 v -1.519807 -1.519803 h -0.759643 z m 1.519804,3.03961 v 0.760158 0.760161 h 0.760161 0.760161 v -0.760161 -0.760158 h -0.760161 z m 1.520322,1.520319 v 0.759643 0.760161 h 0.759642 0.760162 v -0.760161 -0.759643 h -0.760162 z m 1.519804,1.519804 v 0.760161 0.759643 h 6.839892 6.839893 v -0.759643 -0.760161 h -6.839893 z m 13.679785,0 h 1.519804 1.52032 v -0.760161 -0.759643 h -1.52032 -1.519804 v 0.759643 z m 3.040124,0 v 8.359696 8.360218 h 0.75964 0.76016 v -8.360218 -8.359696 h -0.76016 z m 1.5198,16.719914 v 1.54822 h 1.51981 v -1.54822 h -0.75964 z m 3.04013,-50.159218 h 0.75964 0.76016 v -0.760158 -0.760162 h -0.76016 -0.75964 v 0.760162 z m 1.5198,-1.52032 h 0.76016 0.75965 V 26.1458 25.385639 h -0.75965 -0.76016 V 26.1458 Z m -4.55993,10.640177 v 0.759645 0.760159 h -0.76016 -0.75964 v 0.760161 0.759645 h 3.03961 3.04012 v 0.760159 0.760161 h 0.76016 0.75965 v -1.52032 -1.519806 h -0.75965 -0.76016 v -0.760159 -0.759645 h -2.27996 z M 54.3368,48.185282 v 1.519804 1.52032 h 1.519804 1.519803 v -1.52032 -1.519804 H 55.856604 Z M 84.735983,67.9448 v 8.360211 3.828189 h 1.52032 V 76.305011 67.9448 h -0.76016 z m 7.60005,4.559927 v 1.520319 1.519804 h 0.76016 0.75964 v -1.519804 -1.520319 h -0.75964 z m 0,3.040123 h -0.76016 -0.75965 v 4.58835 h 1.51981 z"
       id="path4154" />
  </g>
</svg>
