<?xml version="1.0" encoding="UTF-8" standalone="no"?>
<!-- Created with Inkscape (http://www.inkscape.org/) -->

<svg
   xmlns:dc="http://purl.org/dc/elements/1.1/"
   xmlns:cc="http://creativecommons.org/ns#"
   xmlns:rdf="http://www.w3.org/1999/02/22-rdf-syntax-ns#"
   xmlns:svg="http://www.w3.org/2000/svg"
   xmlns="http://www.w3.org/2000/svg"
   xmlns:sodipodi="http://sodipodi.sourceforge.net/DTD/sodipodi-0.dtd"
   xmlns:inkscape="http://www.inkscape.org/namespaces/inkscape"
   width="103.44887"
   height="103.44887"
   viewBox="0 0 27.370846 27.370847"
   version="1.1"
   id="svg8"
   inkscape:version="0.92.4 (5da689c313, 2019-01-14)"
   sodipodi:docname="enemy-icon.svg">
  <defs
     id="defs2">
    <clipPath
       id="clipPath4773"
       clipPathUnits="userSpaceOnUse">
      <path
         inkscape:connector-curvature="0"
         id="path4771"
         d="m 305.925,416.681 c 0,-51.956 42.119,-94.074 94.075,-94.074 v 0 c 51.956,0 94.074,42.118 94.074,94.074 v 0 c 0,51.955 -42.118,94.074 -94.074,94.074 v 0 c -51.956,0 -94.075,-42.119 -94.075,-94.074" />
    </clipPath>
    <clipPath
       id="clipPath4981"
       clipPathUnits="userSpaceOnUse">
      <path
         inkscape:connector-curvature="0"
         id="path4979"
         d="m 339.313,507.324 h 60.691 V 313.119 h -60.691 z" />
    </clipPath>
    <clipPath
       id="clipPath4761"
       clipPathUnits="userSpaceOnUse">
      <path
         inkscape:connector-curvature="0"
         id="path4759"
         d="M 0,800 H 800 V 0 H 0 Z" />
    </clipPath>
    <clipPath
       id="clipPath4709"
       clipPathUnits="userSpaceOnUse">
      <path
         inkscape:connector-curvature="0"
         id="path4707"
         d="m 546.425,417.455 c 0,-51.956 42.118,-94.074 94.074,-94.074 v 0 c 51.957,0 94.075,42.118 94.075,94.074 v 0 c 0,51.955 -42.118,94.074 -94.075,94.074 v 0 c -51.956,0 -94.074,-42.119 -94.074,-94.074" />
    </clipPath>
    <clipPath
       id="clipPath4745"
       clipPathUnits="userSpaceOnUse">
      <path
         inkscape:connector-curvature="0"
         id="path4743"
         d="M 567.667,498.398 H 640.6 V 310.773 h -72.933 z" />
    </clipPath>
    <clipPath
       id="clipPath4697"
       clipPathUnits="userSpaceOnUse">
      <path
         inkscape:connector-curvature="0"
         id="path4695"
         d="M 0,800 H 800 V 0 H 0 Z" />
    </clipPath>
  </defs>
  <sodipodi:namedview
     id="base"
     pagecolor="#ffffff"
     bordercolor="#666666"
     borderopacity="1.0"
     inkscape:pageopacity="0.0"
     inkscape:pageshadow="2"
     inkscape:zoom="1.4"
     inkscape:cx="11.864255"
     inkscape:cy="43.053678"
     inkscape:document-units="px"
     inkscape:current-layer="layer1"
     showgrid="false"
     inkscape:pagecheckerboard="true"
     inkscape:window-width="1366"
     inkscape:window-height="705"
     inkscape:window-x="-8"
     inkscape:window-y="-8"
     inkscape:window-maximized="1"
     units="px"
     showborder="true"
     fit-margin-top="0"
     fit-margin-left="0"
     fit-margin-right="0"
     fit-margin-bottom="0"
     inkscape:snap-global="false" />
  <metadata
     id="metadata5">
    <rdf:RDF>
      <cc:Work
         rdf:about="">
        <dc:format>image/svg+xml</dc:format>
        <dc:type
           rdf:resource="http://purl.org/dc/dcmitype/StillImage" />
        <dc:title />
      </cc:Work>
    </rdf:RDF>
  </metadata>
  <g
     inkscape:label="Camada 1"
     inkscape:groupmode="layer"
     id="layer1"
     transform="translate(-50.948503,-44.433615)">
    <circle
       style="opacity:1;vector-effect:none;fill:#552200;fill-opacity:1;fill-rule:evenodd;stroke:none;stroke-width:0.42576873;stroke-linecap:butt;stroke-linejoin:miter;stroke-miterlimit:4;stroke-dasharray:none;stroke-dashoffset:0;stroke-opacity:1"
       id="path8518"
       cx="64.633926"
       cy="58.119038"
       r="13.685423" />
    <text
       xml:space="preserve"
       style="font-style:normal;font-variant:normal;font-weight:normal;font-stretch:normal;font-size:18.90994835px;line-height:1.25;font-family:'Arial Rounded MT Bold';-inkscape-font-specification:'Arial Rounded MT Bold, Normal';font-variant-ligatures:normal;font-variant-position:normal;font-variant-caps:normal;font-variant-numeric:normal;font-variant-alternates:normal;font-feature-settings:normal;text-indent:0;text-align:start;text-decoration:none;text-decoration-line:none;text-decoration-style:solid;text-decoration-color:#000000;letter-spacing:0px;word-spacing:0px;text-transform:none;writing-mode:lr-tb;direction:ltr;text-orientation:mixed;dominant-baseline:auto;baseline-shift:baseline;text-anchor:start;white-space:normal;shape-padding:0;opacity:1;vector-effect:none;fill:#4d4d4d;fill-opacity:1;stroke:none;stroke-width:0.4727506;stroke-linecap:butt;stroke-linejoin:miter;stroke-miterlimit:4;stroke-dasharray:none;stroke-dashoffset:0;stroke-opacity:1"
       x="68.420998"
       y="131.29288"
       id="text3995"><tspan
         sodipodi:role="line"
         id="tspan3993"
         x="68.420998"
         y="148.545"
         style="stroke-width:0.4727506" /></text>
    <g
       id="g4755"
       transform="matrix(0.13456018,0,0,-0.13456018,10.809883,114.18768)"
       style="fill:#c87137">
      <g
         id="g4757"
         clip-path="url(#clipPath4761)"
         style="fill:#c87137">
        <g
           id="g4763"
           transform="translate(494.0743,416.6808)"
           style="fill:#c87137">
          <path
             d="m 0,0 c 0,-51.956 -42.118,-94.074 -94.074,-94.074 -51.956,0 -94.075,42.118 -94.075,94.074 0,51.956 42.119,94.074 94.075,94.074 C -42.118,94.074 0,51.956 0,0"
             style="fill:#c87137;fill-opacity:1;fill-rule:nonzero;stroke:none"
             id="path4765"
             inkscape:connector-curvature="0" />
        </g>
      </g>
    </g>
    <g
       id="g4140"
       transform="matrix(0.4925326,0,0,0.4925326,67.194215,25.774254)">
      <g
         transform="matrix(0.27101559,0,0,-0.27101559,-178.77504,179.22502)"
         id="g4691">
        <g
           clip-path="url(#clipPath4697)"
           id="g4693">
          <g
             transform="translate(734.5737,417.4549)"
             id="g4699" />
        </g>
      </g>
      <g
         transform="matrix(0.27101559,0,0,-0.27101559,-178.77504,179.22502)"
         id="g4703">
        <g
           clip-path="url(#clipPath4709)"
           id="g4705">
          <g
             transform="translate(695.9857,413.7687)"
             id="g4711">
            <path
               inkscape:connector-curvature="0"
               id="path4713"
               style="fill:#421800;fill-opacity:1;fill-rule:nonzero;stroke:none"
               d="m 0,0 v -87.412 l -110.761,1.885 V 1.885 Z" />
          </g>
          <g
             transform="translate(682.3629,453.2524)"
             id="g4715">
            <path
               inkscape:connector-curvature="0"
               id="path4717"
               style="fill:#f0d0b4;fill-opacity:1;fill-rule:nonzero;stroke:none"
               d="m 0,0 v -25.775 c 0,-0.453 -0.01,-0.905 -0.02,-1.358 -0.011,-0.37 -0.021,-0.729 -0.042,-1.1 -0.01,-0.329 -0.03,-0.658 -0.061,-0.987 -0.011,-0.236 -0.031,-0.473 -0.052,-0.709 -0.01,-0.144 -0.02,-0.278 -0.041,-0.422 -0.02,-0.257 -0.041,-0.524 -0.082,-0.781 -0.041,-0.493 -0.103,-0.977 -0.175,-1.47 -0.01,-0.124 -0.031,-0.247 -0.051,-0.37 -0.031,-0.247 -0.072,-0.494 -0.113,-0.741 v -0.03 c -0.062,-0.36 -0.124,-0.71 -0.185,-1.07 -0.093,-0.493 -0.185,-0.987 -0.288,-1.47 -0.011,-0.02 -0.011,-0.041 -0.021,-0.062 -0.01,-0.072 -0.02,-0.144 -0.041,-0.216 -0.01,-0.02 -0.01,-0.041 -0.021,-0.061 -0.051,-0.267 -0.113,-0.525 -0.174,-0.782 -0.021,-0.113 -0.041,-0.226 -0.083,-0.339 -0.03,-0.185 -0.082,-0.37 -0.123,-0.555 -0.031,-0.103 -0.051,-0.216 -0.092,-0.319 -0.021,-0.092 -0.052,-0.185 -0.072,-0.267 -0.216,-0.843 -0.463,-1.666 -0.72,-2.488 -0.124,-0.391 -0.247,-0.771 -0.381,-1.162 -0.01,-0.041 -0.03,-0.082 -0.041,-0.123 -0.123,-0.35 -0.246,-0.699 -0.37,-1.049 -0.041,-0.103 -0.082,-0.206 -0.123,-0.319 -0.124,-0.329 -0.247,-0.658 -0.381,-0.987 -0.154,-0.401 -0.318,-0.791 -0.483,-1.182 -0.144,-0.35 -0.298,-0.699 -0.452,-1.049 -0.021,-0.062 -0.052,-0.113 -0.072,-0.175 -0.175,-0.37 -0.339,-0.74 -0.514,-1.1 -0.175,-0.38 -0.36,-0.761 -0.555,-1.141 -0.371,-0.75 -0.772,-1.501 -1.173,-2.231 l -0.555,-0.987 c -1.583,-2.725 -3.341,-5.285 -5.253,-7.649 -0.258,-0.34 -0.525,-0.669 -0.802,-0.987 -0.381,-0.463 -0.772,-0.915 -1.162,-1.357 -0.329,-0.371 -0.669,-0.751 -1.018,-1.111 -0.01,-0.02 -0.021,-0.031 -0.041,-0.051 -0.987,-1.059 -1.995,-2.067 -3.023,-3.013 -0.206,-0.205 -0.421,-0.39 -0.637,-0.586 -0.35,-0.318 -0.7,-0.627 -1.059,-0.925 -0.278,-0.247 -0.566,-0.483 -0.854,-0.72 -0.74,-0.606 -1.48,-1.192 -2.231,-1.737 -0.308,-0.237 -0.627,-0.463 -0.946,-0.679 -0.514,-0.37 -1.038,-0.719 -1.562,-1.059 -0.288,-0.195 -0.586,-0.38 -0.885,-0.555 -1.048,-0.648 -2.107,-1.244 -3.156,-1.758 -0.257,-0.134 -0.514,-0.257 -0.771,-0.381 -0.257,-0.123 -0.524,-0.246 -0.802,-0.37 -0.339,-0.154 -0.679,-0.298 -1.018,-0.431 -0.134,-0.062 -0.267,-0.114 -0.401,-0.155 -0.401,-0.164 -0.812,-0.318 -1.213,-0.452 -0.504,-0.185 -1.018,-0.339 -1.522,-0.483 -0.349,-0.103 -0.709,-0.196 -1.059,-0.278 -0.02,-0.01 -0.041,-0.021 -0.072,-0.021 -0.349,-0.082 -0.699,-0.164 -1.048,-0.226 -0.093,-0.02 -0.185,-0.041 -0.278,-0.051 -0.288,-0.052 -0.576,-0.103 -0.864,-0.134 -0.411,-0.061 -0.822,-0.113 -1.233,-0.133 -0.144,-0.021 -0.278,-0.031 -0.422,-0.031 -0.329,-0.021 -0.648,-0.031 -0.966,-0.031 h -0.041 c -0.319,0 -0.638,0.01 -0.957,0.031 -0.123,0 -0.246,0.01 -0.37,0.031 -0.288,0.01 -0.586,0.041 -0.894,0.082 -0.062,0 -0.134,0.01 -0.196,0.02 -0.38,0.052 -0.76,0.113 -1.151,0.185 -0.329,0.052 -0.658,0.124 -0.997,0.206 -1.758,0.401 -3.568,1.008 -5.398,1.82 -1.563,0.689 -3.146,1.522 -4.719,2.488 -0.792,0.483 -1.584,0.997 -2.365,1.542 -0.391,0.278 -0.781,0.555 -1.172,0.843 -1.223,0.895 -2.437,1.871 -3.629,2.92 -0.329,0.298 -0.658,0.596 -0.987,0.905 -0.329,0.298 -0.658,0.607 -0.977,0.905 -0.761,0.73 -1.501,1.48 -2.211,2.272 -0.051,0.041 -0.092,0.093 -0.133,0.134 -0.298,0.318 -0.597,0.647 -0.895,0.987 -0.822,0.925 -1.624,1.881 -2.385,2.878 -0.298,0.36 -0.576,0.73 -0.853,1.1 -1.039,1.378 -2.026,2.818 -2.951,4.308 -0.247,0.401 -0.494,0.813 -0.73,1.214 -0.288,0.483 -0.565,0.976 -0.843,1.47 -1.028,1.85 -1.974,3.773 -2.797,5.757 -0.123,0.288 -0.246,0.576 -0.349,0.864 -0.165,0.37 -0.309,0.75 -0.442,1.121 -0.206,0.545 -0.401,1.089 -0.586,1.634 -0.185,0.545 -0.36,1.1 -0.535,1.656 -0.164,0.534 -0.319,1.069 -0.463,1.614 -0.164,0.576 -0.318,1.162 -0.452,1.758 -0.01,0.062 -0.031,0.123 -0.041,0.185 -0.195,0.822 -0.37,1.655 -0.524,2.498 -0.206,1.111 -0.371,2.242 -0.494,3.383 -0.051,0.36 -0.082,0.72 -0.113,1.079 -0.041,0.381 -0.072,0.751 -0.093,1.131 -0.051,0.689 -0.082,1.388 -0.102,2.087 -0.011,0.453 -0.021,0.905 -0.021,1.358 V 0 c 0,22.341 17.509,40.601 39.563,41.794 0.041,0.01 0.072,0.01 0.113,0.01 0.288,0.01 0.576,0.02 0.863,0.031 0.432,0.01 0.854,0.02 1.286,0.02 h 0.041 c 0.442,0 0.884,-0.01 1.326,-0.02 0.339,-0.011 0.679,-0.021 1.018,-0.041 h 0.031 c 2.354,-0.134 4.667,-0.463 6.898,-0.967 2.725,-0.617 5.347,-1.501 7.835,-2.622 3.393,-1.521 6.549,-3.475 9.387,-5.808 2.385,-1.954 4.554,-4.154 6.446,-6.581 C -3.403,18.794 -0.082,9.973 -0.01,0.37 0,0.247 0,0.123 0,0" />
          </g>
          <g
             transform="translate(695.0399,310.7838)"
             id="g4719">
            <path
               inkscape:connector-curvature="0"
               id="path4721"
               style="fill:#f0d0b4;fill-opacity:1;fill-rule:nonzero;stroke:none"
               d="M 0,0 V -0.01 H -109.075 V 0 c 0,6.097 0.997,11.978 2.858,17.458 0.021,0.051 0.031,0.102 0.052,0.154 0.339,0.997 0.709,1.984 1.11,2.961 v 0.01 c 0.391,0.977 0.823,1.933 1.275,2.879 1.799,3.794 4.041,7.341 6.642,10.59 0.658,0.812 1.326,1.604 2.015,2.364 0.339,0.391 0.699,0.772 1.059,1.152 0.36,0.37 0.72,0.74 1.09,1.11 1.84,1.841 3.814,3.527 5.891,5.079 1.038,0.771 2.087,1.491 3.177,2.19 0.144,0.093 0.288,0.185 0.432,0.268 0.401,0.257 0.802,0.503 1.213,0.74 0.555,0.329 1.121,0.648 1.686,0.956 0.021,0.021 0.041,0.021 0.041,0.021 0.442,0.236 0.874,0.493 1.306,0.76 1.285,0.772 2.519,1.625 3.691,2.571 4.966,3.948 8.811,9.253 11.001,15.34 0.637,1.788 1.141,3.649 1.48,5.562 0.35,1.974 0.535,4.009 0.535,6.086 l 7.948,-0.041 h 0.133 l 8.04,-0.041 c 0,-2.036 0.175,-4.03 0.514,-5.973 0.329,-1.913 0.823,-3.763 1.45,-5.542 2.159,-6.107 5.994,-11.433 10.96,-15.402 0.74,-0.606 1.491,-1.161 2.282,-1.686 0.083,-0.061 0.155,-0.113 0.237,-0.164 0.37,-0.247 0.74,-0.494 1.131,-0.72 0.421,-0.257 0.853,-0.514 1.285,-0.75 0.072,-0.021 0.134,-0.052 0.185,-0.093 0.905,-0.504 1.799,-1.028 2.673,-1.573 0.072,-0.041 0.134,-0.082 0.206,-0.134 0.349,-0.216 0.709,-0.442 1.049,-0.689 0.853,-0.544 1.686,-1.141 2.498,-1.758 0,-0.01 0.01,-0.01 0.01,-0.01 h 0.01 c 1.039,-0.771 2.046,-1.594 3.033,-2.437 0.987,-0.843 1.933,-1.727 2.848,-2.642 C -10.127,32.725 -5.573,25.508 -2.858,17.458 -1.008,11.978 0,6.107 0,0" />
          </g>
          <g
             transform="translate(695.0399,310.7838)"
             id="g4723">
            <path
               inkscape:connector-curvature="0"
               id="path4725"
               style="fill:#b150c5;fill-opacity:1;fill-rule:nonzero;stroke:none"
               d="m 0,0 h -109.075 c 0,6.097 0.997,11.978 2.858,17.458 0.021,0.051 0.031,0.102 0.052,0.154 0.339,0.997 0.709,1.984 1.11,2.961 v 0.01 c 0.391,0.977 0.823,1.933 1.275,2.879 1.799,3.794 4.041,7.341 6.642,10.59 0.658,0.812 1.326,1.604 2.015,2.364 0.339,0.391 0.699,0.772 1.059,1.152 0.36,0.37 0.72,0.74 1.09,1.11 1.84,1.841 3.814,3.527 5.891,5.079 1.038,0.771 2.087,1.491 3.177,2.19 0.144,0.093 0.288,0.185 0.432,0.268 0.401,0.257 0.802,0.503 1.213,0.74 0.555,0.339 1.121,0.658 1.686,0.966 0.021,0.021 0.041,0.011 0.041,0.011 v 0.01 c 0.442,0.247 0.874,0.493 1.306,0.75 1.285,0.782 2.519,1.645 3.67,2.591 0.011,-0.01 0.011,-0.01 0.021,-0.02 5.326,-5.449 12.739,-8.832 20.964,-8.853 h 0.133 c 8.205,0.011 15.628,3.404 20.964,8.842 l 0.01,0.011 c 0.73,-0.607 1.491,-1.172 2.272,-1.697 0.083,-0.061 0.155,-0.113 0.237,-0.164 0.37,-0.247 0.75,-0.483 1.131,-0.72 0.421,-0.257 0.853,-0.504 1.285,-0.74 0.072,-0.021 0.123,-0.062 0.185,-0.093 0.905,-0.503 1.799,-1.028 2.673,-1.583 0.072,-0.041 0.134,-0.082 0.206,-0.134 0.349,-0.216 0.709,-0.442 1.049,-0.689 0.853,-0.544 1.686,-1.141 2.498,-1.758 h 0.02 c 1.039,-0.781 2.057,-1.593 3.033,-2.447 0.987,-0.843 1.933,-1.727 2.848,-2.642 C -10.127,32.725 -5.573,25.508 -2.858,17.458 -1.008,11.978 0,6.107 0,0" />
          </g>
          <g
             transform="translate(696.2222,340.946)"
             id="g4727">
            <path
               inkscape:connector-curvature="0"
               id="path4729"
               style="fill:#421800;fill-opacity:1;fill-rule:nonzero;stroke:none"
               d="m 0,0 c -0.072,-0.031 -0.154,-0.062 -0.237,-0.072 -5.407,-1.408 -26.731,24.288 -26.947,51.225 -0.01,2.169 0.103,4.349 0.381,6.539 0.719,5.809 3.516,11.392 5.839,17.016 1.83,4.451 3.383,8.914 3.383,13.52 0,24.675 -7.156,16.635 -27.112,29.949 -4.822,3.208 -8.246,5.84 -10.929,7.978 -7.413,5.881 -9.294,7.989 -19.463,7.989 -12.934,0 -18.074,-22.465 -19.544,-32.067 -1.584,-10.333 -1.604,-27.082 4.842,-43.028 4.995,-12.357 4.997,-24.469 -4.842,-37.928 -3.692,-5.048 -9.346,-22.105 -16.368,-27.605 -2.19,-1.717 -4.504,-2.314 -6.94,-1.07 -19.185,9.819 -7.639,41.332 -1.882,61.061 6.2,21.231 8.071,42.75 12.574,64.187 5.079,24.141 25.745,38.853 34.093,32.89 2.786,4.997 10.076,6.868 17.53,6.868 5.459,0 11.022,-1.018 14.97,-2.55 30.484,-11.834 30.998,-40.087 32.622,-51.838 1.337,-9.706 6.118,-18.774 7.793,-28.356 V 74.677 C 0.123,72.662 0.339,70.605 0.35,68.528 0.422,57.312 -0.833,49.724 7.69,40.378 14.157,33.294 9.212,4.04 0,0" />
          </g>
          <g
             transform="translate(640.6001,353.1943)"
             id="g4731">
            <path
               inkscape:connector-curvature="0"
               id="path4733"
               style="fill:#e7ecf2;fill-opacity:1;fill-rule:nonzero;stroke:none"
               d="m 0,0 -0.031,-0.051 -0.01,-0.021 c -2.899,-4.503 -7.701,-6.847 -12.543,-6.847 -3.938,0 -7.896,1.552 -10.868,4.739 l -5.582,5.984 c 0.945,0.607 1.912,1.172 2.899,1.707 0.02,0.02 0.041,0.01 0.041,0.01 v 0.01 c 0.442,0.247 0.874,0.494 1.306,0.751 1.285,0.781 2.519,1.645 3.67,2.591 0.01,-0.011 0.01,-0.011 0.021,-0.021 C -15.772,3.403 -8.359,0.021 -0.134,0 Z" />
          </g>
          <g
             transform="translate(669.5626,356.9162)"
             id="g4735">
            <path
               inkscape:connector-curvature="0"
               id="path4737"
               style="fill:#e7ecf2;fill-opacity:1;fill-rule:nonzero;stroke:none"
               d="m 0,0 -5.5,-5.901 c -2.972,-3.188 -6.93,-4.74 -10.878,-4.74 -4.832,0 -9.644,2.344 -12.533,6.847 l -0.01,0.021 -0.041,0.051 c 8.204,0.01 15.627,3.403 20.963,8.842 l 0.011,0.01 C -7.259,4.524 -6.498,3.958 -5.716,3.434 -5.634,3.372 -5.562,3.321 -5.48,3.269 -5.11,3.023 -4.729,2.786 -4.349,2.55 -3.927,2.293 -3.496,2.046 -3.064,1.81 -2.992,1.789 -2.94,1.748 -2.879,1.717 -1.974,1.213 -1.079,0.689 -0.206,0.134 -0.134,0.092 -0.072,0.051 0,0" />
          </g>
          <g
             id="g4739">
            <g
               id="g4741" />
            <g
               id="g4753">
              <g
                 style="opacity:0.5"
                 id="g4751"
                 clip-path="url(#clipPath4745)">
                <g
                   id="g4749"
                   transform="translate(640.6001,498.3979)">
                  <path
                     inkscape:connector-curvature="0"
                     id="path4747"
                     style="fill:#f0d0b4;fill-opacity:1;fill-rule:nonzero;stroke:none"
                     d="m 0,0 v -187.624 h -54.635 v 0.01 c 0,6.097 0.997,11.978 2.858,17.458 h -3.598 v 6.22 c -2.19,-1.717 -4.504,-2.313 -6.94,-1.069 -19.185,9.818 -7.639,41.331 -1.882,61.061 6.2,21.23 8.071,42.749 12.574,64.186 5.079,24.141 25.745,38.853 34.093,32.89 C -14.744,-1.871 -7.454,0 0,0" />
                </g>
              </g>
            </g>
          </g>
        </g>
      </g>
    </g>
  </g>
</svg>
