<?xml version="1.0" encoding="UTF-8" standalone="no"?>
<!-- Created with Inkscape (http://www.inkscape.org/) -->

<svg
   xmlns:dc="http://purl.org/dc/elements/1.1/"
   xmlns:cc="http://creativecommons.org/ns#"
   xmlns:rdf="http://www.w3.org/1999/02/22-rdf-syntax-ns#"
   xmlns:svg="http://www.w3.org/2000/svg"
   xmlns="http://www.w3.org/2000/svg"
   xmlns:sodipodi="http://sodipodi.sourceforge.net/DTD/sodipodi-0.dtd"
   xmlns:inkscape="http://www.inkscape.org/namespaces/inkscape"
   width="103.44887"
   height="103.44887"
   viewBox="0 0 27.370846 27.370847"
   version="1.1"
   id="svg8"
   inkscape:version="0.92.4 (5da689c313, 2019-01-14)"
   sodipodi:docname="user-icon.svg">
  <defs
     id="defs2">
    <clipPath
       id="clipPath4773"
       clipPathUnits="userSpaceOnUse">
      <path
         inkscape:connector-curvature="0"
         id="path4771"
         d="m 305.925,416.681 c 0,-51.956 42.119,-94.074 94.075,-94.074 v 0 c 51.956,0 94.074,42.118 94.074,94.074 v 0 c 0,51.955 -42.118,94.074 -94.074,94.074 v 0 c -51.956,0 -94.075,-42.119 -94.075,-94.074" />
    </clipPath>
    <clipPath
       id="clipPath4981"
       clipPathUnits="userSpaceOnUse">
      <path
         inkscape:connector-curvature="0"
         id="path4979"
         d="m 339.313,507.324 h 60.691 V 313.119 h -60.691 z" />
    </clipPath>
    <clipPath
       id="clipPath4761"
       clipPathUnits="userSpaceOnUse">
      <path
         inkscape:connector-curvature="0"
         id="path4759"
         d="M 0,800 H 800 V 0 H 0 Z" />
    </clipPath>
  </defs>
  <sodipodi:namedview
     id="base"
     pagecolor="#ffffff"
     bordercolor="#666666"
     borderopacity="1.0"
     inkscape:pageopacity="0.0"
     inkscape:pageshadow="2"
     inkscape:zoom="2.8"
     inkscape:cx="47.356095"
     inkscape:cy="47.443685"
     inkscape:document-units="px"
     inkscape:current-layer="layer1"
     showgrid="false"
     inkscape:pagecheckerboard="true"
     inkscape:window-width="1366"
     inkscape:window-height="705"
     inkscape:window-x="-8"
     inkscape:window-y="-8"
     inkscape:window-maximized="1"
     units="px"
     showborder="true"
     fit-margin-top="0"
     fit-margin-left="0"
     fit-margin-right="0"
     fit-margin-bottom="0" />
  <metadata
     id="metadata5">
    <rdf:RDF>
      <cc:Work
         rdf:about="">
        <dc:format>image/svg+xml</dc:format>
        <dc:type
           rdf:resource="http://purl.org/dc/dcmitype/StillImage" />
        <dc:title />
      </cc:Work>
    </rdf:RDF>
  </metadata>
  <g
     inkscape:label="Camada 1"
     inkscape:groupmode="layer"
     id="layer1"
     transform="translate(-50.948503,-44.433615)">
    <circle
       style="opacity:1;vector-effect:none;fill:#552200;fill-opacity:1;fill-rule:evenodd;stroke:none;stroke-width:0.42576873;stroke-linecap:butt;stroke-linejoin:miter;stroke-miterlimit:4;stroke-dasharray:none;stroke-dashoffset:0;stroke-opacity:1"
       id="path8518"
       cx="64.633926"
       cy="58.119038"
       r="13.685423" />
    <text
       xml:space="preserve"
       style="font-style:normal;font-variant:normal;font-weight:normal;font-stretch:normal;font-size:18.90994835px;line-height:1.25;font-family:'Arial Rounded MT Bold';-inkscape-font-specification:'Arial Rounded MT Bold, Normal';font-variant-ligatures:normal;font-variant-position:normal;font-variant-caps:normal;font-variant-numeric:normal;font-variant-alternates:normal;font-feature-settings:normal;text-indent:0;text-align:start;text-decoration:none;text-decoration-line:none;text-decoration-style:solid;text-decoration-color:#000000;letter-spacing:0px;word-spacing:0px;text-transform:none;writing-mode:lr-tb;direction:ltr;text-orientation:mixed;dominant-baseline:auto;baseline-shift:baseline;text-anchor:start;white-space:normal;shape-padding:0;opacity:1;vector-effect:none;fill:#4d4d4d;fill-opacity:1;stroke:none;stroke-width:0.4727506;stroke-linecap:butt;stroke-linejoin:miter;stroke-miterlimit:4;stroke-dasharray:none;stroke-dashoffset:0;stroke-opacity:1"
       x="68.420998"
       y="131.29288"
       id="text3995"><tspan
         sodipodi:role="line"
         id="tspan3993"
         x="68.420998"
         y="148.545"
         style="stroke-width:0.4727506" /></text>
    <g
       id="g4755"
       transform="matrix(0.13456018,0,0,-0.13456018,10.809883,114.18768)"
       style="fill:#536c5d">
      <g
         id="g4757"
         clip-path="url(#clipPath4761)"
         style="fill:#536c5d">
        <g
           id="g4763"
           transform="translate(494.0743,416.6808)"
           style="fill:#536c5d">
          <path
             d="m 0,0 c 0,-51.956 -42.118,-94.074 -94.074,-94.074 -51.956,0 -94.075,42.118 -94.075,94.074 0,51.956 42.119,94.074 94.075,94.074 C -42.118,94.074 0,51.956 0,0"
             style="fill:#536c5d;fill-opacity:1;fill-rule:nonzero;stroke:none"
             id="path4765"
             inkscape:connector-curvature="0" />
        </g>
      </g>
    </g>
    <g
       clip-path="url(#clipPath4773)"
       id="g4769"
       transform="matrix(0.13456018,0,0,-0.13456018,10.809883,114.18768)">
      <g
         transform="translate(457.8779,444.073)"
         id="g4775">
        <path
           inkscape:connector-curvature="0"
           id="path4777"
           style="fill:#141720;fill-opacity:1;fill-rule:nonzero;stroke:none"
           d="m 0,0 c 0,-1.624 -0.072,-3.228 -0.195,-4.822 -0.226,-2.704 -0.638,-5.346 -1.213,-7.927 -0.802,-3.588 -1.944,-7.043 -3.383,-10.333 -1.357,-3.135 -2.992,-6.127 -4.863,-8.934 -1.491,-2.242 -3.136,-4.37 -4.915,-6.375 -0.442,-0.493 -0.884,-0.976 -1.336,-1.449 -1.481,-1.573 -3.054,-3.043 -4.699,-4.421 -0.421,-0.36 -0.843,-0.71 -1.275,-1.049 -2.046,-1.635 -4.215,-3.136 -6.477,-4.472 -0.699,-0.422 -1.419,-0.823 -2.138,-1.213 -5.799,-3.126 -12.194,-5.285 -18.959,-6.262 -2.745,-0.411 -5.563,-0.617 -8.421,-0.617 -2.817,0 -5.582,0.206 -8.286,0.597 -6.827,0.976 -13.274,3.146 -19.113,6.282 -0.957,0.524 -1.903,1.059 -2.818,1.624 -2.786,1.707 -5.408,3.64 -7.854,5.788 -0.268,0.227 -0.545,0.463 -0.802,0.71 -1.83,1.655 -3.558,3.434 -5.162,5.315 -0.298,0.35 -0.596,0.699 -0.884,1.059 -2.416,2.972 -4.544,6.179 -6.343,9.593 -0.175,0.329 -0.34,0.658 -0.504,0.987 -1.399,2.786 -2.581,5.706 -3.527,8.729 -0.185,0.606 -0.36,1.213 -0.524,1.819 -0.864,3.126 -1.47,6.354 -1.789,9.675 -0.051,0.555 -0.103,1.11 -0.144,1.676 -0.082,1.326 -0.134,2.673 -0.134,4.02 0,0.812 0.021,1.614 0.052,2.416 0.01,0.401 0.031,0.792 0.061,1.193 0.155,2.621 0.494,5.202 0.998,7.721 0.113,0.566 0.236,1.131 0.36,1.686 0.462,2.005 1.028,3.979 1.696,5.891 0.236,0.7 0.493,1.399 0.761,2.077 0.812,2.108 1.758,4.154 2.807,6.128 0.832,1.573 1.737,3.105 2.714,4.585 0.627,0.967 1.285,1.902 1.974,2.828 0.75,1.018 1.542,2.005 2.365,2.961 1.439,1.696 2.971,3.3 4.585,4.791 0.555,0.524 1.111,1.028 1.686,1.522 2.17,1.881 4.473,3.598 6.909,5.13 0.823,0.524 1.656,1.028 2.509,1.501 1.234,0.699 2.498,1.357 3.794,1.964 0.802,0.38 1.614,0.74 2.437,1.079 2.426,1.008 4.924,1.851 7.505,2.53 1.295,0.339 2.611,0.627 3.948,0.873 2.015,0.381 4.061,0.658 6.148,0.823 1.049,0.082 2.108,0.134 3.177,0.154 0.463,0.01 0.925,0.021 1.398,0.021 1.111,0 2.211,-0.031 3.301,-0.093 0.699,-0.041 1.398,-0.092 2.087,-0.154 2.909,-0.267 5.747,-0.751 8.502,-1.439 0.638,-0.155 1.265,-0.319 1.892,-0.494 3.115,-0.884 6.118,-2.015 8.996,-3.383 0.823,-0.39 1.625,-0.791 2.427,-1.223 1.501,-0.792 2.95,-1.655 4.369,-2.581 0.247,-0.164 0.504,-0.329 0.751,-0.493 1.974,-1.337 3.876,-2.797 5.665,-4.37 1.193,-1.018 2.323,-2.097 3.413,-3.228 1.707,-1.738 3.301,-3.578 4.761,-5.521 0.298,-0.381 0.586,-0.761 0.853,-1.152 1.439,-1.994 2.745,-4.071 3.917,-6.24 0.216,-0.391 0.422,-0.792 0.617,-1.183 1.923,-3.752 3.444,-7.731 4.513,-11.895 0.545,-2.118 0.967,-4.277 1.265,-6.477 C -0.185,5.346 0,2.694 0,0" />
      </g>
      <g
         transform="translate(364.5644,404.9525)"
         id="g4779">
        <path
           inkscape:connector-curvature="0"
           id="path4781"
           style="fill:#141720;fill-opacity:1;fill-rule:nonzero;stroke:none"
           d="M 0,0 C 0,-0.051 0,-0.103 -0.01,-0.154 -0.062,-2.015 -1.1,-3.619 -2.632,-4.462 -2.827,-4.575 -3.023,-4.678 -3.238,-4.75 -3.814,-4.987 -4.452,-5.11 -5.11,-5.11 c -2.817,0 -5.099,2.293 -5.099,5.11 0,0.483 0.072,0.956 0.195,1.408 0.123,0.432 0.308,0.844 0.535,1.214 0.884,1.48 2.508,2.477 4.369,2.477 0.463,0 0.905,-0.061 1.326,-0.174 C -3.125,4.76 -2.529,4.462 -2.015,4.061 -1.573,3.722 -1.193,3.321 -0.874,2.858 -0.319,2.046 0,1.059 0,0" />
      </g>
      <g
         transform="translate(350.5716,459.9886)"
         id="g4783">
        <path
           inkscape:connector-curvature="0"
           id="path4785"
           style="fill:#141720;fill-opacity:1;fill-rule:nonzero;stroke:none"
           d="M 0,0 C 0,-0.987 -0.288,-1.912 -0.781,-2.694 -1.676,-4.143 -3.28,-5.1 -5.11,-5.1 c -0.802,0 -1.552,0.185 -2.231,0.514 -0.37,0.175 -0.709,0.401 -1.018,0.648 -1.131,0.936 -1.85,2.355 -1.85,3.938 0,2.282 1.49,4.205 3.536,4.863 0.494,0.165 1.018,0.247 1.563,0.247 0.196,0 0.391,-0.01 0.586,-0.041 C -2.241,4.822 -0.422,3.064 -0.072,0.812 -0.021,0.545 0,0.278 0,0" />
      </g>
      <g
         transform="translate(379.1743,494.0918)"
         id="g4787">
        <path
           inkscape:connector-curvature="0"
           id="path4789"
           style="fill:#141720;fill-opacity:1;fill-rule:nonzero;stroke:none"
           d="M 0,0 C 0,-1.11 -0.36,-2.149 -0.956,-2.982 -1.655,-3.958 -2.704,-4.678 -3.907,-4.966 -4.287,-5.058 -4.688,-5.11 -5.1,-5.11 c -2.447,0 -4.492,1.717 -4.986,4.02 -0.082,0.35 -0.124,0.72 -0.124,1.09 0,0.452 0.062,0.884 0.175,1.295 0.566,2.19 2.571,3.805 4.935,3.805 0.545,0 1.059,-0.083 1.553,-0.237 0.853,-0.277 1.604,-0.761 2.2,-1.409 C -0.514,2.55 0,1.337 0,0" />
      </g>
      <g
         transform="translate(432.3374,491.9024)"
         id="g4791">
        <path
           inkscape:connector-curvature="0"
           id="path4793"
           style="fill:#141720;fill-opacity:1;fill-rule:nonzero;stroke:none"
           d="m 0,0 c 0,-2.819 -2.285,-5.104 -5.104,-5.104 -2.819,0 -5.105,2.285 -5.105,5.104 0,2.819 2.286,5.104 5.105,5.104 C -2.285,5.104 0,2.819 0,0" />
      </g>
      <g
         transform="translate(349.5229,443.0757)"
         id="g4795">
        <path
           inkscape:connector-curvature="0"
           id="path4797"
           style="fill:#141720;fill-opacity:1;fill-rule:nonzero;stroke:none"
           d="m 0,0 c 0,-0.648 -0.124,-1.275 -0.35,-1.84 -0.74,-1.913 -2.591,-3.27 -4.76,-3.27 -0.72,0 -1.398,0.144 -2.015,0.411 -0.422,0.185 -0.812,0.432 -1.172,0.71 -1.162,0.935 -1.912,2.375 -1.912,3.989 0,1.738 0.863,3.27 2.189,4.195 0.227,0.154 0.473,0.298 0.73,0.411 0.658,0.319 1.399,0.493 2.18,0.493 2.159,0 4.01,-1.336 4.75,-3.228 C -0.124,1.295 0,0.658 0,0" />
      </g>
      <g
         transform="translate(444.1817,402.8243)"
         id="g4799">
        <path
           inkscape:connector-curvature="0"
           id="path4801"
           style="fill:#141720;fill-opacity:1;fill-rule:nonzero;stroke:none"
           d="m 0,0 c 0,-2.819 -2.285,-5.104 -5.104,-5.104 -2.819,0 -5.105,2.285 -5.105,5.104 0,2.819 2.286,5.104 5.105,5.104 C -2.285,5.104 0,2.819 0,0" />
      </g>
      <g
         transform="translate(449.4312,408.7629)"
         id="g4803">
        <path
           inkscape:connector-curvature="0"
           id="path4805"
           style="fill:#141720;fill-opacity:1;fill-rule:nonzero;stroke:none"
           d="m 0,0 c 0,-2.819 -2.285,-5.104 -5.104,-5.104 -2.819,0 -5.105,2.285 -5.105,5.104 0,2.819 2.286,5.104 5.105,5.104 C -2.285,5.104 0,2.819 0,0" />
      </g>
      <g
         transform="translate(437.4363,398.5543)"
         id="g4807">
        <path
           inkscape:connector-curvature="0"
           id="path4809"
           style="fill:#141720;fill-opacity:1;fill-rule:nonzero;stroke:none"
           d="m 0,0 c 0,-2.819 -2.285,-5.104 -5.104,-5.104 -2.819,0 -5.105,2.285 -5.105,5.104 0,2.819 2.286,5.104 5.105,5.104 C -2.285,5.104 0,2.819 0,0" />
      </g>
      <g
         transform="translate(405.5048,500.6204)"
         id="g4811">
        <path
           inkscape:connector-curvature="0"
           id="path4813"
           style="fill:#141720;fill-opacity:1;fill-rule:nonzero;stroke:none"
           d="m 0,0 c 0,-1.902 -1.038,-3.557 -2.581,-4.431 -0.75,-0.432 -1.614,-0.679 -2.529,-0.679 -0.133,0 -0.257,0 -0.39,0.021 -0.998,0.072 -1.913,0.432 -2.663,1.007 -1.245,0.926 -2.046,2.416 -2.046,4.082 0,0.401 0.041,0.781 0.133,1.152 0.267,1.192 0.967,2.22 1.913,2.919 0.75,0.576 1.665,0.936 2.663,1.008 C -5.367,5.1 -5.243,5.1 -5.11,5.1 -3.362,5.1 -1.82,4.226 -0.905,2.889 -0.535,2.355 -0.257,1.738 -0.113,1.08 -0.041,0.73 0,0.37 0,0" />
      </g>
      <g
         transform="translate(454.5355,475.0353)"
         id="g4815">
        <path
           inkscape:connector-curvature="0"
           id="path4817"
           style="fill:#141720;fill-opacity:1;fill-rule:nonzero;stroke:none"
           d="m 0,0 c 0,-2.819 -2.285,-5.104 -5.104,-5.104 -2.819,0 -5.105,2.285 -5.105,5.104 0,2.819 2.286,5.104 5.105,5.104 C -2.285,5.104 0,2.819 0,0" />
      </g>
      <g
         transform="translate(361.9324,413.8664)"
         id="g4819">
        <path
           inkscape:connector-curvature="0"
           id="path4821"
           style="fill:#141720;fill-opacity:1;fill-rule:nonzero;stroke:none"
           d="m 0,0 c 0,-0.833 -0.134,-1.624 -0.391,-2.375 -0.185,-0.576 -0.442,-1.11 -0.761,-1.614 -1.059,-1.697 -2.786,-2.941 -4.811,-3.362 -0.453,-0.103 -0.936,-0.154 -1.419,-0.154 -0.041,-0.011 -0.093,-0.011 -0.134,-0.011 -4.153,0 -7.526,3.362 -7.526,7.516 0,1.224 0.299,2.385 0.813,3.403 0.154,0.309 0.329,0.607 0.534,0.884 1.357,1.954 3.619,3.239 6.179,3.239 0.216,0 0.432,-0.01 0.648,-0.031 1.552,-0.133 2.971,-0.74 4.113,-1.676 C -1.069,4.441 0,2.344 0,0" />
      </g>
      <g
         transform="translate(376.1103,402.1148)"
         id="g4823">
        <path
           inkscape:connector-curvature="0"
           id="path4825"
           style="fill:#141720;fill-opacity:1;fill-rule:nonzero;stroke:none"
           d="m 0,0 c 0,-3.311 -2.138,-6.117 -5.11,-7.115 -0.39,-0.133 -0.791,-0.236 -1.213,-0.298 -0.391,-0.072 -0.792,-0.103 -1.203,-0.103 -3.496,0 -6.426,2.375 -7.258,5.604 -0.093,0.318 -0.165,0.658 -0.196,0.997 -0.041,0.298 -0.062,0.607 -0.062,0.915 0,2.077 0.844,3.948 2.19,5.305 0.144,0.144 0.288,0.278 0.432,0.391 1.316,1.151 3.023,1.83 4.894,1.83 C -3.372,7.526 0,4.154 0,0" />
      </g>
      <g
         transform="translate(358.0872,468.3267)"
         id="g4827">
        <path
           inkscape:connector-curvature="0"
           id="path4829"
           style="fill:#141720;fill-opacity:1;fill-rule:nonzero;stroke:none"
           d="m 0,0 c 0,-4.154 -3.362,-7.526 -7.516,-7.526 h -0.072 c -2.025,0.021 -3.865,0.843 -5.212,2.18 -0.555,0.534 -1.028,1.172 -1.388,1.871 -0.545,1.038 -0.854,2.221 -0.854,3.475 0,3.115 1.902,5.788 4.606,6.919 0.895,0.391 1.882,0.597 2.92,0.597 0.34,0 0.669,-0.021 0.998,-0.072 C -3.187,7.012 -0.555,4.4 -0.092,1.079 -0.031,0.73 0,0.37 0,0" />
      </g>
      <g
         transform="translate(427.2331,495.5135)"
         id="g4831">
        <path
           inkscape:connector-curvature="0"
           id="path4833"
           style="fill:#141720;fill-opacity:1;fill-rule:nonzero;stroke:none"
           d="m 0,0 c 0,-4.154 -3.367,-7.521 -7.522,-7.521 -4.154,0 -7.521,3.367 -7.521,7.521 0,4.154 3.367,7.522 7.521,7.522 C -3.367,7.522 0,4.154 0,0" />
      </g>
      <g
         transform="translate(390.4015,497.0116)"
         id="g4835">
        <path
           inkscape:connector-curvature="0"
           id="path4837"
           style="fill:#141720;fill-opacity:1;fill-rule:nonzero;stroke:none"
           d="m 0,0 c 0,-0.966 -0.185,-1.892 -0.524,-2.745 -1.09,-2.797 -3.815,-4.781 -7.002,-4.781 -1.758,0 -3.383,0.607 -4.658,1.625 -1.614,1.264 -2.683,3.177 -2.827,5.356 -0.02,0.175 -0.031,0.36 -0.031,0.545 0,0.668 0.093,1.326 0.268,1.943 0.843,3.208 3.763,5.573 7.248,5.573 1.162,0 2.262,-0.268 3.239,-0.74 C -2.971,6.159 -1.871,5.172 -1.121,3.938 -0.411,2.797 0,1.45 0,0" />
      </g>
      <g
         transform="translate(354.3551,434.0898)"
         id="g4839">
        <path
           inkscape:connector-curvature="0"
           id="path4841"
           style="fill:#141720;fill-opacity:1;fill-rule:nonzero;stroke:none"
           d="m 0,0 c 0,-1.789 -0.627,-3.434 -1.676,-4.719 -1.378,-1.707 -3.485,-2.797 -5.85,-2.797 -0.73,0 -1.45,0.103 -2.118,0.309 -0.524,0.144 -1.038,0.36 -1.511,0.627 -2.314,1.275 -3.887,3.742 -3.887,6.58 0,1.923 0.72,3.671 1.913,4.997 0.298,0.36 0.647,0.689 1.028,0.966 1.264,0.987 2.858,1.563 4.575,1.563 0.822,0 1.604,-0.134 2.344,-0.381 C -2.18,6.169 0,3.331 0,0" />
      </g>
      <g
         transform="translate(447.5128,480.4704)"
         id="g4843">
        <path
           inkscape:connector-curvature="0"
           id="path4845"
           style="fill:#141720;fill-opacity:1;fill-rule:nonzero;stroke:none"
           d="m 0,0 c 0,-4.154 -3.367,-7.522 -7.522,-7.522 -4.154,0 -7.521,3.368 -7.521,7.522 0,4.154 3.367,7.522 7.521,7.522 C -3.367,7.522 0,4.154 0,0" />
      </g>
      <g
         transform="translate(458.5582,464.0684)"
         id="g4847">
        <path
           inkscape:connector-curvature="0"
           id="path4849"
           style="fill:#141720;fill-opacity:1;fill-rule:nonzero;stroke:none"
           d="m 0,0 c 0,-4.154 -3.368,-7.522 -7.522,-7.522 -4.154,0 -7.521,3.368 -7.521,7.522 0,4.154 3.367,7.522 7.521,7.522 C -3.368,7.522 0,4.154 0,0" />
      </g>
      <g
         transform="translate(375.3598,487.9949)"
         id="g4851">
        <path
           inkscape:connector-curvature="0"
           id="path4853"
           style="fill:#141720;fill-opacity:1;fill-rule:nonzero;stroke:none"
           d="m 0,0 c 0,-4.154 -3.372,-7.526 -7.526,-7.526 -0.607,0 -1.193,0.072 -1.758,0.216 -2.776,0.658 -4.956,2.869 -5.583,5.665 -0.123,0.524 -0.185,1.08 -0.185,1.645 0,0.134 0,0.267 0.021,0.401 0.195,3.969 3.485,7.115 7.505,7.115 0.442,0 0.884,-0.042 1.306,-0.124 C -5.336,7.248 -4.503,6.94 -3.763,6.508 -1.82,5.387 -0.432,3.434 -0.092,1.131 -0.031,0.761 0,0.391 0,0" />
      </g>
      <g
         transform="translate(355.5476,423.8702)"
         id="g4855">
        <path
           inkscape:connector-curvature="0"
           id="path4857"
           style="fill:#141720;fill-opacity:1;fill-rule:nonzero;stroke:none"
           d="M 0,0 C 0,-0.884 -0.175,-1.738 -0.483,-2.509 -1.48,-4.966 -3.896,-6.704 -6.714,-6.704 h -0.092 c -0.36,0.011 -0.699,0.042 -1.038,0.103 -3.167,0.535 -5.583,3.29 -5.583,6.601 0,1.347 0.39,2.591 1.079,3.639 0.278,0.432 0.607,0.833 0.987,1.193 1.203,1.172 2.838,1.882 4.647,1.882 1.43,0 2.756,-0.453 3.846,-1.214 C -1.131,4.287 0,2.282 0,0" />
      </g>
      <g
         transform="translate(361.0688,475.0404)"
         id="g4859">
        <path
           inkscape:connector-curvature="0"
           id="path4861"
           style="fill:#141720;fill-opacity:1;fill-rule:nonzero;stroke:none"
           d="m 0,0 c 0,-2.365 -1.223,-4.441 -3.074,-5.634 -1.049,-0.689 -2.303,-1.08 -3.64,-1.08 -2.272,0 -4.277,1.131 -5.5,2.859 -0.761,1.089 -1.213,2.426 -1.213,3.855 0,0.072 0,0.134 0.01,0.206 0.082,3.064 2.241,5.603 5.11,6.302 0.503,0.134 1.038,0.195 1.593,0.195 0.535,0 1.059,-0.061 1.553,-0.185 C -2.262,5.83 -0.093,3.27 -0.01,0.195 0,0.134 0,0.062 0,0" />
      </g>
      <g
         transform="translate(415.8886,498.6122)"
         id="g4863">
        <path
           inkscape:connector-curvature="0"
           id="path4865"
           style="fill:#141720;fill-opacity:1;fill-rule:nonzero;stroke:none"
           d="m 0,0 c 0,-3.706 -3.004,-6.71 -6.71,-6.71 -3.705,0 -6.709,3.004 -6.709,6.71 0,3.706 3.004,6.71 6.709,6.71 C -3.004,6.71 0,3.706 0,0" />
      </g>
      <g
         transform="translate(353.6046,451.2596)"
         id="g4867">
        <path
           inkscape:connector-curvature="0"
           id="path4869"
           style="fill:#141720;fill-opacity:1;fill-rule:nonzero;stroke:none"
           d="m 0,0 c 0,-1.121 -0.267,-2.169 -0.751,-3.095 -0.771,-1.49 -2.087,-2.652 -3.691,-3.218 -0.709,-0.257 -1.48,-0.401 -2.272,-0.401 -1.84,0 -3.506,0.741 -4.719,1.943 -0.247,0.247 -0.473,0.504 -0.668,0.782 -0.833,1.11 -1.316,2.488 -1.316,3.989 0,1.882 0.771,3.578 2.025,4.791 0.412,0.411 0.874,0.761 1.378,1.039 0.977,0.555 2.097,0.873 3.3,0.873 1.039,0 2.026,-0.236 2.9,-0.668 0.945,-0.442 1.768,-1.1 2.405,-1.922 C -0.524,2.982 0,1.552 0,0" />
      </g>
      <g
         transform="translate(462.1652,445.5761)"
         id="g4871">
        <path
           inkscape:connector-curvature="0"
           id="path4873"
           style="fill:#141720;fill-opacity:1;fill-rule:nonzero;stroke:none"
           d="m 0,0 c 0,-3.706 -3.004,-6.71 -6.71,-6.71 -3.705,0 -6.709,3.004 -6.709,6.71 0,3.706 3.004,6.71 6.709,6.71 C -3.004,6.71 0,3.706 0,0" />
      </g>
      <g
         transform="translate(457.7463,427.3848)"
         id="g4875">
        <path
           inkscape:connector-curvature="0"
           id="path4877"
           style="fill:#141720;fill-opacity:1;fill-rule:nonzero;stroke:none"
           d="m 0,0 c 0,-3.706 -3.004,-6.71 -6.71,-6.71 -3.705,0 -6.709,3.004 -6.709,6.71 0,3.706 3.004,6.71 6.709,6.71 C -3.004,6.71 0,3.706 0,0" />
      </g>
      <g
         transform="translate(366.1683,481.7439)"
         id="g4879">
        <path
           inkscape:connector-curvature="0"
           id="path4881"
           style="fill:#141720;fill-opacity:1;fill-rule:nonzero;stroke:none"
           d="m 0,0 c 0,-0.36 -0.031,-0.72 -0.092,-1.059 -0.412,-2.673 -2.417,-4.812 -5.018,-5.449 -0.514,-0.134 -1.049,-0.195 -1.604,-0.195 -2.56,0 -4.791,1.439 -5.912,3.557 -0.483,0.884 -0.76,1.881 -0.781,2.951 -0.01,0.061 -0.01,0.133 -0.01,0.195 0,3.712 3.002,6.714 6.703,6.714 0.298,0 0.586,-0.021 0.874,-0.062 C -5.192,6.57 -4.565,6.395 -3.989,6.128 -1.635,5.1 0,2.745 0,0" />
      </g>
      <g
         transform="translate(441.8581,486.9083)"
         id="g4883">
        <path
           inkscape:connector-curvature="0"
           id="path4885"
           style="fill:#141720;fill-opacity:1;fill-rule:nonzero;stroke:none"
           d="m 0,0 c 0,-3.706 -3.004,-6.71 -6.71,-6.71 -3.705,0 -6.709,3.004 -6.709,6.71 0,3.706 3.004,6.71 6.709,6.71 C -3.004,6.71 0,3.706 0,0" />
      </g>
      <g
         transform="translate(398.7293,500.6204)"
         id="g4887">
        <path
           inkscape:connector-curvature="0"
           id="path4889"
           style="fill:#141720;fill-opacity:1;fill-rule:nonzero;stroke:none"
           d="m 0,0 c 0,-1.532 -0.514,-2.951 -1.388,-4.082 -1.223,-1.604 -3.146,-2.632 -5.315,-2.632 -0.751,0 -1.481,0.124 -2.149,0.36 -2.498,0.833 -4.328,3.095 -4.544,5.809 -0.011,0.185 -0.021,0.36 -0.021,0.545 0,1.141 0.288,2.221 0.802,3.167 1.121,2.107 3.352,3.537 5.912,3.537 2.169,0 4.092,-1.029 5.315,-2.633 C -0.771,3.28 -0.329,2.334 -0.123,1.306 -0.041,0.884 0,0.452 0,0" />
      </g>
      <g
         transform="translate(454.5365,313.1297)"
         id="g4891">
        <path
           inkscape:connector-curvature="0"
           id="path4893"
           style="fill:#b08874;fill-opacity:1;fill-rule:nonzero;stroke:none"
           d="M 0,0 V -0.01 H -109.075 V 0 c 0,15.124 6.148,28.798 16.101,38.668 0.37,0.37 0.74,0.73 1.12,1.09 1.522,1.419 3.116,2.755 4.781,4 0.514,0.38 1.039,0.76 1.563,1.12 1.08,0.74 2.19,1.45 3.321,2.108 0.535,0.319 1.08,0.627 1.624,0.925 0.011,0.021 0.031,0.021 0.031,0.021 0.442,0.236 0.874,0.493 1.306,0.761 0.329,0.185 0.648,0.38 0.956,0.596 0.946,0.607 1.871,1.264 2.745,1.964 v 0.01 c 4.966,3.958 8.811,9.253 10.991,15.35 0.812,2.252 1.388,4.616 1.717,7.053 0.195,1.501 0.298,3.033 0.298,4.585 l 7.989,-0.041 8.132,-0.041 c 0,-1.522 0.103,-3.012 0.288,-4.483 0.319,-2.426 0.884,-4.791 1.676,-7.032 2.169,-6.107 5.994,-11.422 10.95,-15.412 0.37,-0.288 0.74,-0.575 1.12,-0.853 0,0 0.011,0 0.021,-0.01 0.288,-0.227 0.586,-0.432 0.884,-0.628 0.082,-0.071 0.175,-0.133 0.267,-0.185 0.083,-0.061 0.155,-0.113 0.237,-0.164 0.031,-0.021 0.062,-0.041 0.092,-0.062 0.34,-0.226 0.689,-0.442 1.039,-0.658 0.421,-0.257 0.853,-0.514 1.285,-0.75 0.072,-0.021 0.134,-0.052 0.185,-0.093 0.483,-0.267 0.967,-0.545 1.439,-0.833 0.628,-0.359 1.245,-0.74 1.851,-1.131 1.08,-0.699 2.118,-1.418 3.146,-2.2 h 0.021 c 2.076,-1.552 4.04,-3.249 5.87,-5.079 C -6.117,28.726 0,15.093 0,0" />
      </g>
      <g
         transform="translate(454.5365,313.1297)"
         id="g4895">
        <path
           inkscape:connector-curvature="0"
           id="path4897"
           style="fill:#eec8a2;fill-opacity:1;fill-rule:nonzero;stroke:none"
           d="m 0,0 h -109.075 c 0,15.124 6.148,28.798 16.101,38.668 0.37,0.37 0.74,0.73 1.12,1.09 1.522,1.419 3.116,2.755 4.781,4 0.514,0.38 1.039,0.76 1.563,1.12 1.08,0.74 2.18,1.45 3.311,2.118 0.534,0.319 1.079,0.627 1.624,0.925 0.021,0.021 0.041,0.011 0.041,0.011 v 0.01 c 0.874,0.483 1.738,1.007 2.571,1.563 0.39,0.257 0.771,0.524 1.151,0.812 0.041,0.02 0.072,0.051 0.113,0.072 0.278,0.206 0.555,0.421 0.833,0.648 0.103,0.082 0.206,0.164 0.308,0.246 h 0.011 l 0.02,-0.02 c 0.658,-0.679 1.357,-1.316 2.077,-1.933 0,-0.01 0,-0.01 0.01,-0.01 1.82,-1.532 3.825,-2.848 5.984,-3.907 3.886,-1.913 8.256,-2.992 12.883,-3.002 h 0.082 c 8.225,0 15.658,3.392 21.005,8.831 l 0.01,0.011 0.01,0.01 c 0.381,-0.319 0.771,-0.617 1.172,-0.915 0.268,-0.206 0.545,-0.401 0.833,-0.597 0.082,-0.061 0.175,-0.123 0.267,-0.185 0.083,-0.061 0.155,-0.113 0.237,-0.164 0.031,-0.021 0.062,-0.041 0.092,-0.062 0.34,-0.226 0.689,-0.442 1.039,-0.658 0.421,-0.257 0.853,-0.504 1.285,-0.74 0.072,-0.021 0.123,-0.062 0.185,-0.093 0.483,-0.267 0.977,-0.544 1.45,-0.832 0.627,-0.37 1.244,-0.751 1.84,-1.142 1.08,-0.688 2.118,-1.418 3.146,-2.19 h 0.021 c 2.076,-1.552 4.04,-3.259 5.87,-5.089 C -6.117,28.726 0,15.093 0,0" />
      </g>
      <g
         transform="translate(427.6303,360.1463)"
         id="g4899">
        <path
           inkscape:connector-curvature="0"
           id="path4901"
           style="fill:#543e36;fill-opacity:1;fill-rule:nonzero;stroke:none"
           d="m 0,0 -0.01,-0.01 -1.121,-1.141 c -7.053,-7.187 -16.46,-11.135 -26.495,-11.145 h -0.021 c -10.147,0.02 -19.544,3.989 -26.567,11.165 l -1.069,1.1 -0.01,0.01 c 0.535,0.319 1.079,0.628 1.624,0.926 0.021,0.02 0.041,0.01 0.041,0.01 v 0.01 c 0.443,0.247 0.874,0.494 1.306,0.751 0.319,0.195 0.638,0.391 0.956,0.596 0.103,0.072 0.206,0.144 0.309,0.216 0.39,0.257 0.781,0.525 1.151,0.812 0.041,0.021 0.072,0.052 0.114,0.072 0.277,0.216 0.565,0.432 0.832,0.648 0.103,0.082 0.206,0.165 0.309,0.247 0.01,-0.01 0.01,-0.01 0.02,-0.021 h 0.01 v -0.01 c 0.659,-0.679 1.347,-1.316 2.077,-1.923 0,-0.01 0,-0.01 0.011,-0.01 1.819,-1.532 3.824,-2.858 5.983,-3.907 3.887,-1.912 8.256,-2.992 12.883,-3.002 h 0.082 c 8.225,0 15.659,3.393 21.005,8.832 l 0.01,0.01 0.011,0.01 C -6.2,3.948 -5.84,3.66 -5.46,3.372 c 0,0 0.011,0 0.021,-0.01 0.01,-0.01 0.031,-0.021 0.052,-0.031 C -5.12,3.126 -4.842,2.93 -4.555,2.735 -4.473,2.673 -4.38,2.612 -4.287,2.55 -4.205,2.488 -4.133,2.437 -4.051,2.385 -4.02,2.365 -3.989,2.344 -3.958,2.324 -3.619,2.098 -3.269,1.882 -2.92,1.666 -2.498,1.409 -2.067,1.162 -1.635,0.925 -1.563,0.905 -1.511,0.864 -1.45,0.833 -0.966,0.566 -0.473,0.288 0,0" />
      </g>
      <g
         transform="translate(441.8596,454.344)"
         id="g4903">
        <path
           inkscape:connector-curvature="0"
           id="path4905"
           style="fill:#b08874;fill-opacity:1;fill-rule:nonzero;stroke:none"
           d="m 0,0 v -24.511 c 0,-2.303 -0.164,-4.575 -0.473,-6.806 -0.751,-5.552 -2.406,-10.826 -4.688,-15.689 -0.669,-1.429 -1.388,-2.828 -2.159,-4.185 -0.175,-0.308 -0.35,-0.617 -0.525,-0.915 -1.562,-2.632 -3.3,-5.12 -5.161,-7.413 -0.473,-0.596 -0.966,-1.182 -1.47,-1.747 -5.274,-6.056 -11.402,-10.673 -17.283,-13.294 -3.526,-1.563 -6.981,-2.416 -10.096,-2.416 -3.095,0 -6.508,0.832 -10.004,2.375 -5.912,2.611 -12.081,7.248 -17.396,13.335 -0.545,0.627 -1.08,1.264 -1.604,1.922 -2.396,2.982 -4.585,6.272 -6.447,9.798 -0.452,0.864 -0.884,1.738 -1.295,2.622 -0.247,0.524 -0.483,1.059 -0.709,1.594 -0.36,0.812 -0.689,1.645 -1.008,2.477 -0.987,2.632 -1.789,5.378 -2.365,8.195 -0.226,1.1 -0.421,2.21 -0.565,3.341 -0.308,2.231 -0.473,4.503 -0.473,6.806 V 0 Z" />
      </g>
      <g
         transform="translate(357.1145,422.817)"
         id="g4907">
        <path
           inkscape:connector-curvature="0"
           id="path4909"
           style="fill:#141720;fill-opacity:1;fill-rule:nonzero;stroke:none"
           d="M 0,0 V 0 C 3.072,0 5.561,2.49 5.561,5.561 V 32.269 H 0 Z" />
      </g>
      <g
         transform="translate(437.3248,455.0856)"
         id="g4911">
        <path
           inkscape:connector-curvature="0"
           id="path4913"
           style="fill:#141720;fill-opacity:1;fill-rule:nonzero;stroke:none"
           d="M 0,0 H 5.561 V -32.269 C 2.49,-32.269 0,-29.779 0,-26.707 Z" />
      </g>
      <g
         transform="translate(396.2958,453.3688)"
         id="g4915">
        <path
           inkscape:connector-curvature="0"
           id="path4917"
           style="fill:#141720;fill-opacity:1;fill-rule:nonzero;stroke:none"
           d="m 0,0 c 0,-3.706 -3.004,-6.71 -6.71,-6.71 -3.705,0 -6.709,3.004 -6.709,6.71 0,3.706 3.004,6.71 6.709,6.71 C -3.004,6.71 0,3.706 0,0" />
      </g>
      <g
         transform="translate(380.7816,454.8879)"
         id="g4919">
        <path
           inkscape:connector-curvature="0"
           id="path4921"
           style="fill:#141720;fill-opacity:1;fill-rule:nonzero;stroke:none"
           d="m 0,0 c 0,-3.706 -3.004,-6.71 -6.71,-6.71 -3.705,0 -6.709,3.004 -6.709,6.71 0,3.706 3.004,6.71 6.709,6.71 C -3.004,6.71 0,3.706 0,0" />
      </g>
      <g
         transform="translate(364.8524,452.2858)"
         id="g4923">
        <path
           inkscape:connector-curvature="0"
           id="path4925"
           style="fill:#141720;fill-opacity:1;fill-rule:nonzero;stroke:none"
           d="m 0,0 c 0,-3.706 -3.004,-6.71 -6.71,-6.71 -3.705,0 -6.709,3.004 -6.709,6.71 0,3.706 3.004,6.71 6.709,6.71 C -3.004,6.71 0,3.706 0,0" />
      </g>
      <g
         transform="translate(415.8886,454.0943)"
         id="g4927">
        <path
           inkscape:connector-curvature="0"
           id="path4929"
           style="fill:#141720;fill-opacity:1;fill-rule:nonzero;stroke:none"
           d="m 0,0 c 0,-3.706 -3.004,-6.71 -6.71,-6.71 -3.705,0 -6.709,3.004 -6.709,6.71 0,3.706 3.004,6.71 6.709,6.71 C -3.004,6.71 0,3.706 0,0" />
      </g>
      <g
         transform="translate(436.1765,454.0943)"
         id="g4931">
        <path
           inkscape:connector-curvature="0"
           id="path4933"
           style="fill:#141720;fill-opacity:1;fill-rule:nonzero;stroke:none"
           d="m 0,0 c 0,-3.706 -3.004,-6.71 -6.71,-6.71 -3.705,0 -6.709,3.004 -6.709,6.71 0,3.706 3.004,6.71 6.709,6.71 C -3.004,6.71 0,3.706 0,0" />
      </g>
      <g
         transform="translate(450.0968,447.7379)"
         id="g4935">
        <path
           inkscape:connector-curvature="0"
           id="path4937"
           style="fill:#141720;fill-opacity:1;fill-rule:nonzero;stroke:none"
           d="m 0,0 c 0,-3.706 -3.004,-6.71 -6.71,-6.71 -3.706,0 -6.71,3.004 -6.71,6.71 0,3.706 3.004,6.71 6.71,6.71 C -3.004,6.71 0,3.706 0,0" />
      </g>
      <g
         transform="translate(405.1041,452.8631)"
         id="g4939">
        <path
           inkscape:connector-curvature="0"
           id="path4941"
           style="fill:#141720;fill-opacity:1;fill-rule:nonzero;stroke:none"
           d="m 0,0 c 0,-2.819 -2.285,-5.104 -5.104,-5.104 -2.819,0 -5.105,2.285 -5.105,5.104 0,2.819 2.286,5.104 5.105,5.104 C -2.285,5.104 0,2.819 0,0" />
      </g>
      <g
         transform="translate(370.5202,453.3688)"
         id="g4943">
        <path
           inkscape:connector-curvature="0"
           id="path4945"
           style="fill:#141720;fill-opacity:1;fill-rule:nonzero;stroke:none"
           d="m 0,0 c 0,-2.819 -2.285,-5.104 -5.104,-5.104 -2.819,0 -5.105,2.285 -5.105,5.104 0,2.819 2.286,5.104 5.105,5.104 C -2.285,5.104 0,2.819 0,0" />
      </g>
      <g
         transform="translate(387.9806,453.3688)"
         id="g4947">
        <path
           inkscape:connector-curvature="0"
           id="path4949"
           style="fill:#141720;fill-opacity:1;fill-rule:nonzero;stroke:none"
           d="m 0,0 c 0,-2.819 -2.285,-5.104 -5.104,-5.104 -2.819,0 -5.105,2.285 -5.105,5.104 0,2.819 2.286,5.104 5.105,5.104 C -2.285,5.104 0,2.819 0,0" />
      </g>
      <g
         transform="translate(424.8159,451.7634)"
         id="g4951">
        <path
           inkscape:connector-curvature="0"
           id="path4953"
           style="fill:#141720;fill-opacity:1;fill-rule:nonzero;stroke:none"
           d="m 0,0 c 0,-2.819 -2.285,-5.104 -5.104,-5.104 -2.819,0 -5.105,2.285 -5.105,5.104 0,2.819 2.286,5.104 5.105,5.104 C -2.285,5.104 0,2.819 0,0" />
      </g>
      <g
         transform="translate(441.2808,451.7634)"
         id="g4955">
        <path
           inkscape:connector-curvature="0"
           id="path4957"
           style="fill:#141720;fill-opacity:1;fill-rule:nonzero;stroke:none"
           d="m 0,0 c 0,-2.819 -2.285,-5.104 -5.104,-5.104 -2.819,0 -5.105,2.285 -5.105,5.104 0,2.819 2.286,5.104 5.105,5.104 C -2.285,5.104 0,2.819 0,0" />
      </g>
      <g
         transform="translate(435.2281,441.6599)"
         id="g4959">
        <path
           inkscape:connector-curvature="0"
           id="path4961"
           style="fill:#1a1a1a;fill-opacity:1;fill-rule:nonzero;stroke:none"
           d="m 0,0 c 0,0.164 -0.123,0.308 -0.288,0.329 -1.419,0.216 -7.783,1.09 -14.62,1.09 -7.773,0 -17.797,-2.437 -19.545,-2.437 h -1.552 c -0.813,0 -3.424,0.535 -6.765,1.09 -3.835,0.648 -8.626,1.347 -12.77,1.347 -5.007,0 -9.767,-0.473 -12.502,-0.802 C -69.049,0.493 -69.779,0.391 -70.16,0.329 -70.335,0.308 -70.458,0.164 -70.458,0 l -0.082,-4.174 c 0,-0.155 0.092,-0.278 0.226,-0.34 l 0.473,-0.164 c 0.699,-0.267 0.637,-12.841 4.39,-15.988 2.231,-1.85 4.215,-2.909 12.564,-2.909 4.842,0 7.886,1.306 10.775,5.202 2.087,2.797 3.927,9.418 3.927,9.418 0.566,2.725 2.591,2.94 2.92,2.961 h 0.041 c 0.062,0 2.354,-0.041 2.951,-2.961 0,0 1.851,-6.621 3.928,-9.418 2.888,-3.896 5.932,-5.202 10.774,-5.202 8.349,0 10.333,1.059 12.564,2.909 3.753,3.147 3.691,15.721 4.39,15.988 l 0.473,0.164 c 0.134,0.062 0.226,0.185 0.226,0.34 z" />
      </g>
      <g
         transform="translate(457.6807,417.843)"
         id="g4963">
        <path
           inkscape:connector-curvature="0"
           id="path4965"
           style="fill:#141720;fill-opacity:1;fill-rule:nonzero;stroke:none"
           d="m 0,0 c 0,-4.154 -3.367,-7.521 -7.522,-7.521 -4.154,0 -7.521,3.367 -7.521,7.521 0,4.154 3.367,7.522 7.521,7.522 C -3.367,7.522 0,4.154 0,0" />
      </g>
      <g
         transform="translate(462.785,454.9925)"
         id="g4967">
        <path
           inkscape:connector-curvature="0"
           id="path4969"
           style="fill:#141720;fill-opacity:1;fill-rule:nonzero;stroke:none"
           d="m 0,0 c 0,-2.819 -2.285,-5.104 -5.104,-5.104 -2.819,0 -5.105,2.285 -5.105,5.104 0,2.819 2.286,5.104 5.105,5.104 C -2.285,5.104 0,2.819 0,0" />
      </g>
      <g
         transform="translate(461.591,435.7755)"
         id="g4971">
        <path
           inkscape:connector-curvature="0"
           id="path4973"
           style="fill:#141720;fill-opacity:1;fill-rule:nonzero;stroke:none"
           d="m 0,0 c 0,-2.819 -2.285,-5.104 -5.104,-5.104 -2.819,0 -5.105,2.285 -5.105,5.104 0,2.819 2.286,5.104 5.105,5.104 C -2.285,5.104 0,2.819 0,0" />
      </g>
      <g
         id="g4975">
        <g
           id="g4977" />
        <g
           id="g4989">
          <g
             style="opacity:0.5"
             id="g4987"
             clip-path="url(#clipPath4981)">
            <g
               id="g4985"
               transform="translate(400.0043,505.6994)">
              <path
                 inkscape:connector-curvature="0"
                 id="path4983"
                 style="fill:#ecc19c;fill-opacity:1;fill-rule:nonzero;stroke:none"
                 d="m 0,0 v -192.58 h -54.543 v 0.01 c 0,15.124 6.149,28.798 16.101,38.669 0.37,0.37 0.74,0.729 1.121,1.089 1.521,1.419 3.115,2.756 4.78,4 0.515,0.38 1.039,0.761 1.563,1.121 1.08,0.74 2.18,1.449 3.311,2.117 0.534,0.319 1.079,0.628 1.624,0.926 0.021,0.02 0.041,0.01 0.041,0.01 v 0.01 c 0.874,0.483 1.738,1.008 2.571,1.563 0.39,0.257 0.771,0.524 1.151,0.812 0.041,0.021 0.072,0.052 0.113,0.072 0.278,0.206 0.556,0.422 0.833,0.648 0.103,0.082 0.206,0.164 0.309,0.247 h 0.01 l 0.02,-0.021 c 4.966,3.958 8.812,9.253 10.991,15.35 -5.912,2.612 -12.081,7.249 -17.396,13.335 -0.956,0.524 -1.902,1.059 -2.817,1.625 -0.391,-0.072 -0.792,-0.103 -1.203,-0.103 -3.496,0 -6.426,2.375 -7.258,5.603 -0.576,-0.236 -1.214,-0.36 -1.872,-0.36 -2.817,0 -5.099,2.293 -5.099,5.11 0,0.483 0.072,0.956 0.195,1.409 -0.041,-0.011 -0.092,-0.011 -0.134,-0.011 -4.153,0 -7.526,3.362 -7.526,7.516 0,1.224 0.299,2.385 0.813,3.403 -3.167,0.535 -5.583,3.29 -5.583,6.601 0,1.347 0.391,2.591 1.079,3.639 -2.313,1.275 -3.886,3.743 -3.886,6.58 0,1.923 0.72,3.671 1.912,4.997 -1.161,0.936 -1.912,2.375 -1.912,3.989 0,1.738 0.864,3.27 2.19,4.195 -0.833,1.11 -1.316,2.488 -1.316,3.989 0,1.882 0.771,3.578 2.025,4.791 -1.13,0.936 -1.85,2.355 -1.85,3.938 0,2.283 1.491,4.205 3.537,4.863 -0.545,1.039 -0.854,2.221 -0.854,3.475 0,3.115 1.902,5.789 4.606,6.92 0.083,3.064 2.242,5.603 5.11,6.302 -0.01,0.062 -0.01,0.134 -0.01,0.195 0,3.712 3.002,6.714 6.703,6.714 0.298,0 0.586,-0.02 0.874,-0.061 0.196,3.968 3.486,7.114 7.506,7.114 0.442,0 0.884,-0.041 1.305,-0.123 0.566,2.19 2.571,3.804 4.935,3.804 0.545,0 1.059,-0.082 1.553,-0.237 0.843,3.208 3.763,5.573 7.248,5.573 1.162,0 2.262,-0.267 3.239,-0.74 1.12,2.107 3.352,3.537 5.912,3.537 2.169,0 4.092,-1.029 5.315,-2.633 C -1.912,-0.432 -0.997,-0.072 0,0" />
            </g>
          </g>
        </g>
      </g>
    </g>
  </g>
</svg>
