<?xml version="1.0" encoding="UTF-8" standalone="no"?>
<!-- Created with Inkscape (http://www.inkscape.org/) -->

<svg
   xmlns:dc="http://purl.org/dc/elements/1.1/"
   xmlns:cc="http://creativecommons.org/ns#"
   xmlns:rdf="http://www.w3.org/1999/02/22-rdf-syntax-ns#"
   xmlns:svg="http://www.w3.org/2000/svg"
   xmlns="http://www.w3.org/2000/svg"
   xmlns:sodipodi="http://sodipodi.sourceforge.net/DTD/sodipodi-0.dtd"
   xmlns:inkscape="http://www.inkscape.org/namespaces/inkscape"
   width="103.44887"
   height="103.44887"
   viewBox="0 0 27.370846 27.370847"
   version="1.1"
   id="svg8"
   inkscape:version="0.92.4 (5da689c313, 2019-01-14)"
   sodipodi:docname="user-enemy-icon.svg">
  <defs
     id="defs2">
    <clipPath
       id="clipPath4773"
       clipPathUnits="userSpaceOnUse">
      <path
         inkscape:connector-curvature="0"
         id="path4771"
         d="m 305.925,416.681 c 0,-51.956 42.119,-94.074 94.075,-94.074 v 0 c 51.956,0 94.074,42.118 94.074,94.074 v 0 c 0,51.955 -42.118,94.074 -94.074,94.074 v 0 c -51.956,0 -94.075,-42.119 -94.075,-94.074" />
    </clipPath>
    <clipPath
       id="clipPath4981"
       clipPathUnits="userSpaceOnUse">
      <path
         inkscape:connector-curvature="0"
         id="path4979"
         d="m 339.313,507.324 h 60.691 V 313.119 h -60.691 z" />
    </clipPath>
    <clipPath
       id="clipPath4761"
       clipPathUnits="userSpaceOnUse">
      <path
         inkscape:connector-curvature="0"
         id="path4759"
         d="M 0,800 H 800 V 0 H 0 Z" />
    </clipPath>
    <clipPath
       id="clipPath4709"
       clipPathUnits="userSpaceOnUse">
      <path
         inkscape:connector-curvature="0"
         id="path4707"
         d="m 546.425,417.455 c 0,-51.956 42.118,-94.074 94.074,-94.074 v 0 c 51.957,0 94.075,42.118 94.075,94.074 v 0 c 0,51.955 -42.118,94.074 -94.075,94.074 v 0 c -51.956,0 -94.074,-42.119 -94.074,-94.074" />
    </clipPath>
    <clipPath
       id="clipPath4745"
       clipPathUnits="userSpaceOnUse">
      <path
         inkscape:connector-curvature="0"
         id="path4743"
         d="M 567.667,498.398 H 640.6 V 310.773 h -72.933 z" />
    </clipPath>
    <clipPath
       id="clipPath4697"
       clipPathUnits="userSpaceOnUse">
      <path
         inkscape:connector-curvature="0"
         id="path4695"
         d="M 0,800 H 800 V 0 H 0 Z" />
    </clipPath>
    <clipPath
       id="clipPath5213"
       clipPathUnits="userSpaceOnUse">
      <path
         inkscape:connector-curvature="0"
         id="path5211"
         d="m 546.425,657.18 c 0,-51.955 42.118,-94.074 94.074,-94.074 v 0 c 51.957,0 94.075,42.119 94.075,94.074 v 0 c 0,51.956 -42.118,94.074 -94.075,94.074 v 0 c -51.956,0 -94.074,-42.118 -94.074,-94.074" />
    </clipPath>
    <clipPath
       id="clipPath5293"
       clipPathUnits="userSpaceOnUse">
      <path
         inkscape:connector-curvature="0"
         id="path5291"
         d="m 585.963,740.327 h 54.501 V 550.503 h -54.501 z" />
    </clipPath>
    <clipPath
       id="clipPath5201"
       clipPathUnits="userSpaceOnUse">
      <path
         inkscape:connector-curvature="0"
         id="path5199"
         d="M 0,800 H 800 V 0 H 0 Z" />
    </clipPath>
  </defs>
  <sodipodi:namedview
     id="base"
     pagecolor="#ffffff"
     bordercolor="#666666"
     borderopacity="1.0"
     inkscape:pageopacity="0.0"
     inkscape:pageshadow="2"
     inkscape:zoom="2.8"
     inkscape:cx="20.643954"
     inkscape:cy="50.990814"
     inkscape:document-units="px"
     inkscape:current-layer="layer1"
     showgrid="false"
     inkscape:pagecheckerboard="true"
     inkscape:window-width="1366"
     inkscape:window-height="705"
     inkscape:window-x="-8"
     inkscape:window-y="-8"
     inkscape:window-maximized="1"
     units="px"
     showborder="true"
     fit-margin-top="0"
     fit-margin-left="0"
     fit-margin-right="0"
     fit-margin-bottom="0"
     inkscape:snap-global="false"
     inkscape:snap-bbox="true"
     inkscape:bbox-paths="true"
     inkscape:bbox-nodes="true"
     inkscape:snap-bbox-edge-midpoints="true"
     inkscape:snap-bbox-midpoints="true"
     inkscape:object-paths="true"
     inkscape:snap-intersection-paths="true"
     inkscape:snap-smooth-nodes="true"
     inkscape:snap-midpoints="true" />
  <metadata
     id="metadata5">
    <rdf:RDF>
      <cc:Work
         rdf:about="">
        <dc:format>image/svg+xml</dc:format>
        <dc:type
           rdf:resource="http://purl.org/dc/dcmitype/StillImage" />
        <dc:title />
      </cc:Work>
    </rdf:RDF>
  </metadata>
  <g
     inkscape:label="Camada 1"
     inkscape:groupmode="layer"
     id="layer1"
     transform="translate(-50.948503,-44.433615)">
    <circle
       style="opacity:1;vector-effect:none;fill:#552200;fill-opacity:1;fill-rule:evenodd;stroke:none;stroke-width:0.42576873;stroke-linecap:butt;stroke-linejoin:miter;stroke-miterlimit:4;stroke-dasharray:none;stroke-dashoffset:0;stroke-opacity:1"
       id="path8518"
       cx="64.633926"
       cy="58.119038"
       r="13.685423" />
    <text
       xml:space="preserve"
       style="font-style:normal;font-variant:normal;font-weight:normal;font-stretch:normal;font-size:18.90994835px;line-height:1.25;font-family:'Arial Rounded MT Bold';-inkscape-font-specification:'Arial Rounded MT Bold, Normal';font-variant-ligatures:normal;font-variant-position:normal;font-variant-caps:normal;font-variant-numeric:normal;font-variant-alternates:normal;font-feature-settings:normal;text-indent:0;text-align:start;text-decoration:none;text-decoration-line:none;text-decoration-style:solid;text-decoration-color:#000000;letter-spacing:0px;word-spacing:0px;text-transform:none;writing-mode:lr-tb;direction:ltr;text-orientation:mixed;dominant-baseline:auto;baseline-shift:baseline;text-anchor:start;white-space:normal;shape-padding:0;opacity:1;vector-effect:none;fill:#4d4d4d;fill-opacity:1;stroke:none;stroke-width:0.4727506;stroke-linecap:butt;stroke-linejoin:miter;stroke-miterlimit:4;stroke-dasharray:none;stroke-dashoffset:0;stroke-opacity:1"
       x="68.420998"
       y="131.29288"
       id="text3995"><tspan
         sodipodi:role="line"
         id="tspan3993"
         x="68.420998"
         y="148.545"
         style="stroke-width:0.4727506" /></text>
    <g
       id="g4755"
       transform="matrix(0.13456018,0,0,-0.13456018,10.809883,114.18768)"
       style="fill:#c83737">
      <g
         id="g4757"
         clip-path="url(#clipPath4761)"
         style="fill:#c83737">
        <g
           id="g4763"
           transform="translate(494.0743,416.6808)"
           style="fill:#c83737">
          <path
             d="m 0,0 c 0,-51.956 -42.118,-94.074 -94.074,-94.074 -51.956,0 -94.075,42.118 -94.075,94.074 0,51.956 42.119,94.074 94.075,94.074 C -42.118,94.074 0,51.956 0,0"
             style="fill:#c83737;fill-opacity:1;fill-rule:nonzero;stroke:none"
             id="path4765"
             inkscape:connector-curvature="0" />
        </g>
      </g>
    </g>
    <path
       inkscape:connector-curvature="0"
       d="m 68.136446,63.307834 h -7.420384 v 6.878417 c 1.394446,0.43291 2.913216,0.615818 3.917933,0.5914 1.772966,-0.04309 2.186988,-0.188221 3.502451,-0.485094 v -6.984723"
       style="fill:#333232;fill-opacity:0.59798997;fill-rule:nonzero;stroke:none;stroke-width:0.01317072"
       id="path2236"
       sodipodi:nodetypes="cccscc" />
    <path
       inkscape:connector-curvature="0"
       d="m 58.34604,47.56725 3.631642,6.983382 -2.277374,1.18463 -1.771291,-7.951725 0.417023,-0.216287"
       style="fill:#4167b0;fill-opacity:1;fill-rule:nonzero;stroke:none;stroke-width:0.0141364"
       id="path2244" />
    <path
       inkscape:connector-curvature="0"
       d="m 64.255381,53.365974 -2.276682,1.184327 -3.63222,-6.982862 0.416,-0.21649 5.492902,6.015025"
       style="fill:#304c9f;fill-opacity:1;fill-rule:nonzero;stroke:none;stroke-width:0.01414967"
       id="path2248" />
    <path
       inkscape:connector-curvature="0"
       d="m 59.942521,46.736482 c 0.459253,0.881425 0.115526,1.969656 -0.765898,2.427483 -0.881424,0.459253 -1.969655,0.115526 -2.428909,-0.765898 -0.457827,-0.882851 -0.115526,-1.969655 0.767324,-2.427483 0.881425,-0.459253 1.969656,-0.116952 2.427483,0.765898"
       style="fill:#2f9ad5;fill-opacity:1;fill-rule:nonzero;stroke:none;stroke-width:0.01426253"
       id="path2252" />
    <path
       inkscape:connector-curvature="0"
       d="m 71.152205,47.56725 -3.631641,6.983382 2.277374,1.18463 1.771291,-7.951725 -0.417024,-0.216287"
       style="fill:#4167b0;fill-opacity:1;fill-rule:nonzero;stroke:none;stroke-width:0.0141364"
       id="path2256" />
    <path
       inkscape:connector-curvature="0"
       d="m 65.243028,53.365974 2.278097,1.184327 3.630806,-6.982862 -0.416001,-0.21649 -5.492902,6.015025"
       style="fill:#304c9f;fill-opacity:1;fill-rule:nonzero;stroke:none;stroke-width:0.01414967"
       id="path2260" />
    <path
       inkscape:connector-curvature="0"
       d="m 74.737157,65.761094 c -0.533731,0.643188 -4.134063,5.221308 -10.242005,4.999283 0.891097,-2.716968 6.246024,-5.245838 10.242005,-4.999283 z"
       style="fill:#84888b;fill-opacity:1;fill-rule:nonzero;stroke:none;stroke-width:0.01367883"
       id="path2272"
       sodipodi:nodetypes="ccc" />
    <path
       inkscape:connector-curvature="0"
       d="m 66.149137,70.687425 c -0.141207,-1.461416 4.585599,-4.630277 7.712207,-4.630277 0.202921,0 0.404103,0.0073 0.603307,0.02156 -0.868001,1.069745 -1.455278,1.734987 -3.462611,2.977252 -2.309163,1.429057 -3.335494,1.416162 -4.852903,1.631465 z"
       style="fill:#3f3b3a;fill-opacity:1;fill-rule:nonzero;stroke:none;stroke-width:0.01341614"
       id="path2276"
       sodipodi:nodetypes="cscsc" />
    <path
       inkscape:connector-curvature="0"
       d="m 70.255039,58.630223 c 0,4.233789 -3.567634,7.6655 -7.968298,7.6655 -4.403357,0 -7.968299,-3.435748 -7.968299,-7.6655 h 15.936597"
       style="fill:#a1a5a8;fill-opacity:1;fill-rule:nonzero;stroke:none;stroke-width:0.01345769"
       id="path2280" />
    <path
       inkscape:connector-curvature="0"
       d="m 58.813311,58.630223 v 0.750939 c 0,1.102185 -0.893591,1.995776 -1.995776,1.995776 h -1.971551 c -0.34048,-0.853218 -0.527542,-1.779107 -0.527542,-2.746715 h 4.494869"
       style="fill:#333232;fill-opacity:1;fill-rule:nonzero;stroke:none;stroke-width:0.01345769"
       id="path2284" />
    <path
       inkscape:connector-curvature="0"
       d="m 70.253808,58.630318 v -4.972301 c 0,-1.102487 -0.89282,-1.996696 -1.995308,-1.996696 h -6.524669 c -1.102487,0 -1.996696,0.894209 -1.996696,1.996696 v 4.972301 h 10.516673"
       style="fill:#84888b;fill-opacity:1;fill-rule:nonzero;stroke:none;stroke-width:0.01388523"
       id="path2288" />
    <path
       inkscape:connector-curvature="0"
       d="m 62.463714,55.687751 c 0,0.97186 -0.78766,1.760894 -1.759519,1.760894 -0.973234,0 -1.760893,-0.789034 -1.760893,-1.760894 0,-0.971859 0.787659,-1.760893 1.760893,-1.760893 0.971859,0 1.759519,0.789034 1.759519,1.760893"
       style="fill:#dededd;fill-opacity:1;fill-rule:nonzero;stroke:none;stroke-width:0.01374624"
       id="path2292" />
    <path
       inkscape:connector-curvature="0"
       d="m 61.493503,55.687083 c 0,0.436605 -0.353117,0.791091 -0.789723,0.791091 -0.436605,0 -0.789722,-0.354486 -0.789722,-0.791091 0,-0.435237 0.353117,-0.789723 0.789722,-0.789723 0.436606,0 0.789723,0.354486 0.789723,0.789723"
       style="fill:#282020;fill-opacity:1;fill-rule:nonzero;stroke:none;stroke-width:0.0136867"
       id="path2296" />
    <path
       inkscape:connector-curvature="0"
       d="m 67.57594,55.687751 c 0,0.97186 -0.787659,1.760894 -1.759518,1.760894 -0.973234,0 -1.762268,-0.789034 -1.762268,-1.760894 0,-0.971859 0.789034,-1.760893 1.762268,-1.760893 0.971859,0 1.759518,0.789034 1.759518,1.760893"
       style="fill:#dededd;fill-opacity:1;fill-rule:nonzero;stroke:none;stroke-width:0.01374624"
       id="path2300" />
    <path
       inkscape:connector-curvature="0"
       d="m 66.605485,55.687083 c 0,0.436605 -0.353116,0.791091 -0.789722,0.791091 -0.436606,0 -0.789723,-0.354486 -0.789723,-0.791091 0,-0.435237 0.353117,-0.789723 0.789723,-0.789723 0.436606,0 0.789722,0.354486 0.789722,0.789723"
       style="fill:#282020;fill-opacity:1;fill-rule:nonzero;stroke:none;stroke-width:0.0136867"
       id="path2304" />
    <path
       inkscape:connector-curvature="0"
       d="m 61.493948,60.003565 c 0,0.371589 -0.301832,0.673421 -0.673421,0.673421 -0.37293,0 -0.674762,-0.301832 -0.674762,-0.673421 0,-0.371588 0.301832,-0.67342 0.674762,-0.67342 0.371589,0 0.673421,0.301832 0.673421,0.67342"
       style="fill:#84888b;fill-opacity:1;fill-rule:nonzero;stroke:none;stroke-width:0.01341475"
       id="path2308" />
    <path
       inkscape:connector-curvature="0"
       d="m 64.309704,60.003565 c 0,0.371589 -0.301832,0.673421 -0.673421,0.673421 -0.371588,0 -0.67342,-0.301832 -0.67342,-0.673421 0,-0.371588 0.301832,-0.67342 0.67342,-0.67342 0.371589,0 0.673421,0.301832 0.673421,0.67342"
       style="fill:#84888b;fill-opacity:1;fill-rule:nonzero;stroke:none;stroke-width:0.01341475"
       id="path2312" />
    <path
       inkscape:connector-curvature="0"
       d="m 67.126801,60.003565 c 0,0.371589 -0.301831,0.673421 -0.67342,0.673421 -0.37293,0 -0.674762,-0.301832 -0.674762,-0.673421 0,-0.371588 0.301832,-0.67342 0.674762,-0.67342 0.371589,0 0.67342,0.301832 0.67342,0.67342"
       style="fill:#84888b;fill-opacity:1;fill-rule:nonzero;stroke:none;stroke-width:0.01341475"
       id="path2316" />
    <path
       inkscape:connector-curvature="0"
       d="m 70.32279,49.163965 c 0.879998,0.459253 1.968229,0.115526 2.427483,-0.765898 0.457827,-0.882851 0.115526,-1.969655 -0.767324,-2.427483 -0.881425,-0.459253 -1.968229,-0.116952 -2.427483,0.765898 -0.459253,0.881425 -0.115526,1.969656 0.767324,2.427483 z"
       style="fill:#2f9ad5;fill-opacity:1;fill-rule:nonzero;stroke:none;stroke-width:0.01426253"
       id="path2264"
       sodipodi:nodetypes="ccccc" />
  </g>
</svg>
