<?xml version="1.0" encoding="UTF-8" standalone="no"?>
<!-- Created with Inkscape (http://www.inkscape.org/) -->

<svg
   xmlns:dc="http://purl.org/dc/elements/1.1/"
   xmlns:cc="http://creativecommons.org/ns#"
   xmlns:rdf="http://www.w3.org/1999/02/22-rdf-syntax-ns#"
   xmlns:svg="http://www.w3.org/2000/svg"
   xmlns="http://www.w3.org/2000/svg"
   xmlns:sodipodi="http://sodipodi.sourceforge.net/DTD/sodipodi-0.dtd"
   xmlns:inkscape="http://www.inkscape.org/namespaces/inkscape"
   width="103.44887"
   height="103.44923"
   viewBox="0 0 27.370846 27.370942"
   version="1.1"
   id="svg8"
   inkscape:version="0.92.4 (5da689c313, 2019-01-14)"
   sodipodi:docname="user-yoshi-icon.svg">
  <defs
     id="defs2">
    <clipPath
       id="clipPath4761"
       clipPathUnits="userSpaceOnUse">
      <path
         inkscape:connector-curvature="0"
         id="path4759"
         d="M 0,800 H 800 V 0 H 0 Z" />
    </clipPath>
  </defs>
  <sodipodi:namedview
     id="base"
     pagecolor="#ffffff"
     bordercolor="#666666"
     borderopacity="1.0"
     inkscape:pageopacity="0.0"
     inkscape:pageshadow="2"
     inkscape:zoom="1.979899"
     inkscape:cx="116.23695"
     inkscape:cy="66.978804"
     inkscape:document-units="px"
     inkscape:current-layer="layer1"
     showgrid="false"
     inkscape:pagecheckerboard="true"
     inkscape:window-width="1366"
     inkscape:window-height="705"
     inkscape:window-x="-8"
     inkscape:window-y="-8"
     inkscape:window-maximized="1"
     units="px"
     showborder="true"
     fit-margin-top="0"
     fit-margin-left="0"
     fit-margin-right="0"
     fit-margin-bottom="0"
     inkscape:snap-global="false"
     inkscape:snap-bbox="true"
     inkscape:bbox-paths="true"
     inkscape:bbox-nodes="true"
     inkscape:snap-bbox-edge-midpoints="true"
     inkscape:snap-bbox-midpoints="true"
     inkscape:object-paths="true"
     inkscape:snap-intersection-paths="true"
     inkscape:snap-smooth-nodes="true"
     inkscape:snap-midpoints="true" />
  <metadata
     id="metadata5">
    <rdf:RDF>
      <cc:Work
         rdf:about="">
        <dc:format>image/svg+xml</dc:format>
        <dc:type
           rdf:resource="http://purl.org/dc/dcmitype/StillImage" />
        <dc:title></dc:title>
      </cc:Work>
    </rdf:RDF>
  </metadata>
  <g
     inkscape:label="Camada 1"
     inkscape:groupmode="layer"
     id="layer1"
     transform="translate(-50.948503,-44.433615)">
    <circle
       r="13.685423"
       cy="58.119038"
       cx="64.633926"
       id="circle3949"
       style="opacity:1;fill:#552200;fill-opacity:1;stroke:none;stroke-width:4.55980301;stroke-miterlimit:4;stroke-dasharray:none;stroke-opacity:1" />
    <circle
       style="opacity:1;fill:#ff7f2a;fill-opacity:1;stroke:none;stroke-width:4.21770716;stroke-miterlimit:4;stroke-dasharray:none;stroke-opacity:1"
       id="path3947"
       cx="64.633926"
       cy="58.119038"
       r="12.658683" />
    <text
       xml:space="preserve"
       style="font-style:normal;font-variant:normal;font-weight:normal;font-stretch:normal;font-size:18.90994835px;line-height:1.25;font-family:'Arial Rounded MT Bold';-inkscape-font-specification:'Arial Rounded MT Bold, Normal';font-variant-ligatures:normal;font-variant-position:normal;font-variant-caps:normal;font-variant-numeric:normal;font-variant-alternates:normal;font-feature-settings:normal;text-indent:0;text-align:start;text-decoration:none;text-decoration-line:none;text-decoration-style:solid;text-decoration-color:#000000;letter-spacing:0px;word-spacing:0px;text-transform:none;writing-mode:lr-tb;direction:ltr;text-orientation:mixed;dominant-baseline:auto;baseline-shift:baseline;text-anchor:start;white-space:normal;shape-padding:0;opacity:1;vector-effect:none;fill:#4d4d4d;fill-opacity:1;stroke:none;stroke-width:0.4727506;stroke-linecap:butt;stroke-linejoin:miter;stroke-miterlimit:4;stroke-dasharray:none;stroke-dashoffset:0;stroke-opacity:1"
       x="68.420998"
       y="131.29288"
       id="text3995"><tspan
         sodipodi:role="line"
         id="tspan3993"
         x="68.420998"
         y="148.33374"
         style="stroke-width:0.4727506" /></text>
    <path
       style="opacity:1;fill:#ffffff;fill-opacity:1;stroke:none;stroke-width:7.4910183;stroke-miterlimit:4;stroke-dasharray:none;stroke-opacity:1"
       d="m 79.726562,49.9375 c -0.485115,-0.0131 -1.004523,0.0063 -1.59375,0.05273 -0.33668,0.02646 -0.695558,0.06403 -1.083984,0.107422 -1.319834,0.147855 -2.522528,0.384579 -3.638672,0.728516 -1.11614,0.343937 -2.146814,0.7945 -3.121094,1.371094 -0.974275,0.576585 -1.892854,1.27919 -2.787109,2.125 -0.894255,0.845805 -1.764557,1.834732 -2.640625,2.986328 -0.791252,1.040107 -1.456962,2.054595 -2.005859,3.068359 -0.548893,1.013771 -0.98152,2.025746 -1.302735,3.060547 -0.321222,1.034804 -0.530456,2.092099 -0.638672,3.195312 -0.108207,1.103218 -0.113428,2.25365 -0.02344,3.472657 0.09831,1.330004 0.210732,2.136321 0.488281,2.74414 0.138747,0.303912 0.319955,0.558759 0.558594,0.802735 0.238677,0.243968 0.536806,0.477764 0.912109,0.742187 0.719588,0.507031 1.106846,0.818098 1.203125,1.011719 0.04815,0.09679 0.02214,0.16387 -0.07031,0.212891 -0.09252,0.04902 -0.251568,0.07998 -0.47461,0.101562 -0.295294,0.02872 -0.721719,-0.03573 -1.169921,-0.160156 -0.448203,-0.12446 -0.918168,-0.309968 -1.302735,-0.527344 -0.333505,-0.188485 -0.596837,-0.324115 -0.84375,-0.376953 -0.246916,-0.05284 -0.477341,-0.02345 -0.75,0.117188 -0.545325,0.281574 -1.255717,1.008253 -2.578125,2.412109 -0.762459,0.809412 -1.790454,1.731197 -2.832031,2.5625 -1.041581,0.831307 -2.096396,1.573522 -2.914062,2.025391 -0.817675,0.451857 -1.55653,0.90787 -2.089844,1.28125 -0.533322,0.373379 -0.859795,0.664418 -0.851563,0.779296 0.01285,0.173405 0.287288,0.332395 0.757813,0.470704 0.470513,0.13833 1.135067,0.255233 1.93164,0.34375 1.593139,0.177033 3.708149,0.239155 5.814454,0.128906 2.182216,-0.114218 3.972079,-0.16767 3.978515,-0.119141 0.0064,0.04857 -0.816847,0.691546 -1.830078,1.429688 -0.367408,0.267666 -0.681842,0.542646 -0.960937,0.859375 -0.279119,0.316724 -0.523927,0.675918 -0.751954,1.113281 -0.456041,0.874722 -0.847107,2.062989 -1.322265,3.849609 -0.335698,1.262211 -0.636968,2.644938 -0.894531,4.066406 -0.257575,1.421469 -0.472092,2.88086 -0.632813,4.296882 -0.122135,1.07616 -0.201049,2.10633 -0.257813,3.0957 a 51.724434,51.724434 0 0 0 15.425782,-3.0918 c -0.08074,-0.2538 -0.148599,-0.489219 -0.25586,-0.78125 -0.263206,-0.716667 -0.557488,-1.879218 -0.84375,-3.242188 -0.286261,-1.362977 -0.56514,-2.925168 -0.798828,-4.443359 -0.233688,-1.518191 -0.421842,-2.991505 -0.527344,-4.173828 -0.105486,-1.18232 -0.129555,-2.074314 -0.03125,-2.429688 0.06629,-0.239735 0.299997,-0.518825 0.621094,-0.77539 0.321109,-0.256555 0.731448,-0.489275 1.152344,-0.638672 0.776848,-0.275755 1.598194,-0.634271 2.449219,-1.056641 0.851021,-0.42237 1.731375,-0.908331 2.61914,-1.447266 1.775543,-1.077856 3.58717,-2.360838 5.285157,-3.724609 1.697979,-1.363771 3.282491,-2.809493 4.603515,-4.21875 0.66051,-0.704632 1.255484,-1.401343 1.765625,-2.072265 0.510127,-0.670923 0.93548,-1.316666 1.257813,-1.923829 0.422827,-0.796475 0.788243,-1.660763 1.09375,-2.566406 0.305499,-0.90565 0.550296,-1.851476 0.728515,-2.8125 0.178243,-0.96102 0.291024,-1.935845 0.332032,-2.898437 0.04097,-0.962597 0.01043,-1.913852 -0.0957,-2.824219 -0.141505,-1.212934 -0.281678,-2.174241 -0.46875,-2.958985 -0.187048,-0.784747 -0.421993,-1.393818 -0.75,-1.896484 -0.327987,-0.502669 -0.75012,-0.89892 -1.314453,-1.265625 -0.564328,-0.366727 -1.269976,-0.70321 -2.166015,-1.080078 -1.175913,-0.494574 -2.075848,-0.804983 -2.976563,-0.96875 -0.450357,-0.08188 -0.901603,-0.127529 -1.386719,-0.140625 z"
       transform="matrix(0.26458334,0,0,0.26458334,50.948503,44.433615)"
       id="path4447"
       inkscape:connector-curvature="0" />
    <path
       style="opacity:1;fill:#3c9539;fill-opacity:1;stroke:none;stroke-width:7.4910183;stroke-miterlimit:4;stroke-dasharray:none;stroke-opacity:1"
       d="m 59.222656,16.449219 c -0.18651,-0.002 -0.367232,0.0047 -0.541015,0.02148 -0.742795,0.07196 -1.519724,0.24577 -2.283203,0.492188 -0.763481,0.246425 -1.5128,0.56706 -2.199219,0.935547 -0.686415,0.368466 -1.310658,0.784556 -1.822266,1.222656 -0.511604,0.438104 -0.911346,0.89823 -1.150391,1.353515 -0.543477,1.035118 -0.776344,1.612722 -0.673828,1.771485 0.102539,0.15874 0.541426,-0.101025 1.339844,-0.742188 0.499839,-0.401389 1.050917,-0.68026 1.748047,-0.857422 0.697123,-0.177146 1.540201,-0.253037 2.623047,-0.253906 0.903133,-6.92e-4 1.752322,0.09581 2.550781,0.289063 0.798456,0.193247 1.546059,0.481342 2.240235,0.86914 0.69417,0.387802 1.335505,0.874054 1.925781,1.457031 0.590267,0.582979 1.130426,1.26419 1.617187,2.042969 0.486754,0.778783 0.921054,1.655651 1.304688,2.63086 0.383633,0.975205 0.715206,2.048448 0.996094,3.220703 0.280894,1.172247 0.510923,2.444533 0.689453,3.814453 0.178545,1.36992 0.306239,2.838045 0.382812,4.40625 0.129789,2.6583 0.199628,4.006481 0.404297,4.673828 0.102312,0.333657 0.238091,0.496356 0.431641,0.568359 0.193549,0.07204 0.446198,0.05376 0.779297,0.02148 0.371792,-0.03591 0.715924,0.0051 0.972656,0.101562 0.256743,0.09653 0.425716,0.247515 0.443359,0.429688 0.02079,0.213732 -0.145455,0.367124 -0.480469,0.457031 -0.334979,0.08988 -0.83909,0.116625 -1.498046,0.07422 -0.58423,-0.0378 -1.429589,0.05168 -2.408204,0.232422 -0.978614,0.180774 -2.091182,0.452947 -3.207031,0.777343 -1.115845,0.324397 -2.23454,0.702435 -3.230469,1.095704 -0.995932,0.393271 -1.869421,0.802062 -2.488281,1.189453 -0.412422,0.258179 -0.722414,0.450507 -0.972656,0.566406 -0.250243,0.11588 -0.439414,0.153746 -0.607422,0.103515 -0.168038,-0.05019 -0.314714,-0.189536 -0.480469,-0.429687 -0.16577,-0.240151 -0.350257,-0.579282 -0.59375,-1.033203 C 54.679918,47.288919 54.108127,46.576772 53.380859,45.855461 52.653595,45.134157 51.769814,44.40211 50.785156,43.703117 49.800499,43.004127 48.715297,42.33747 47.587891,41.74218 46.460488,41.146884 45.290269,40.623094 44.134766,40.212883 42.816493,39.74489 41.471828,39.40815 40.115234,39.195304 38.758641,38.982442 37.39123,38.894642 36.03125,38.92382 c -1.359976,0.0291 -2.712587,0.175505 -4.041016,0.433594 -1.328428,0.258104 -2.632596,0.627678 -3.894531,1.101562 -1.261935,0.473889 -2.482063,1.051962 -3.642578,1.728516 -1.160511,0.676562 -2.262963,1.452247 -3.287109,2.318359 -1.02415,0.866109 -1.969412,1.822697 -2.822266,2.865235 -0.85285,1.042556 -1.611196,2.171098 -2.257812,3.376953 -0.60942,1.136485 -1.106056,2.239789 -1.492188,3.341797 -0.386132,1.102012 -0.663881,2.202119 -0.835938,3.330078 -0.172044,1.127958 -0.237922,2.283719 -0.205078,3.498047 0.03288,1.214324 0.166059,2.486542 0.394532,3.847656 0.306406,1.825527 0.779756,3.540689 1.404296,5.134766 0.624538,1.594072 1.400839,3.067418 2.308594,4.410156 0.907756,1.342741 1.947449,2.555434 3.103516,3.626953 1.15607,1.071515 2.427397,2.002791 3.796875,2.783203 1.369485,0.780401 2.836769,1.409512 4.384765,1.878906 1.547998,0.46941 3.17753,0.777489 4.869141,0.916016 1.691603,0.13852 3.445776,0.108705 5.246094,-0.103516 1.800317,-0.212258 3.645403,-0.606555 5.519531,-1.189453 0.932032,-0.28989 1.970923,-0.711785 3.046875,-1.222656 1.075956,-0.510875 2.189029,-1.111512 3.269531,-1.759766 1.080503,-0.648257 2.128547,-1.342896 3.074219,-2.044922 0.945672,-0.702028 1.789471,-1.409838 2.460938,-2.082031 0.73463,-0.735413 1.218525,-1.339056 1.496093,-1.898437 0.277569,-0.559378 0.348673,-1.075852 0.257813,-1.636719 -0.220914,-1.364043 -0.284534,-2.203864 -0.191406,-2.521484 0.04656,-0.158816 0.131021,-0.187544 0.255859,-0.08398 0.124838,0.103559 0.291161,0.338615 0.494141,0.705078 0.183231,0.330822 0.323554,0.573217 0.435547,0.707032 0.111987,0.133833 0.194632,0.158775 0.261718,0.05469 0.134136,-0.208176 0.204041,-0.932722 0.316406,-2.337891 0.138975,-1.738144 0.451323,-3.399623 0.925782,-4.966796 0.474455,-1.567155 1.111217,-3.040067 1.90039,-4.400391 0.789166,-1.360316 1.731346,-2.608936 2.814454,-3.726563 0.541549,-0.558814 1.119326,-1.084753 1.730468,-1.576171 0.611142,-0.491411 1.255456,-0.947653 1.933594,-1.367188 1.390836,-0.860447 2.782257,-1.540305 4.162109,-2.039062 1.379849,-0.498758 2.747862,-0.816606 4.091797,-0.951172 1.343913,-0.134816 2.664173,-0.08565 3.947266,0.146484 1.283081,0.232139 2.52925,0.646701 3.726562,1.248047 0.684923,0.344013 1.114323,0.452636 1.314454,0.373047 0.100081,-0.0398 0.143432,-0.126763 0.132812,-0.253906 -0.01058,-0.127106 -0.07711,-0.294063 -0.191406,-0.496094 -0.228586,-0.4041 -0.656531,-0.94668 -1.257813,-1.576172 -0.601281,-0.629499 -1.375064,-1.34772 -2.292969,-2.103516 -0.965979,-0.795375 -1.904037,-1.68754 -2.638671,-2.486328 -0.734642,-0.798788 -1.265471,-1.50313 -1.414063,-1.919922 -0.148573,-0.416795 -0.522731,-1.052934 -1.003906,-1.740234 -0.481179,-0.687303 -1.068956,-1.426761 -1.650391,-2.052734 -0.818865,-0.88159 -1.388243,-1.648187 -1.822265,-2.539063 -0.43403,-0.89088 -0.732911,-1.904907 -1.011719,-3.27539 -0.189846,-0.933193 -0.463022,-1.919631 -0.802735,-2.923829 -0.339703,-1.004201 -0.747177,-2.025886 -1.203124,-3.027343 -0.455945,-1.001458 -0.961444,-1.983239 -1.5,-2.908204 -0.538554,-0.924963 -1.109727,-1.793639 -1.697266,-2.568359 -0.485824,-0.640603 -1.134125,-1.259316 -1.876953,-1.822265 -0.742825,-0.562951 -1.579983,-1.071157 -2.44336,-1.490235 -0.86338,-0.419074 -1.752126,-0.748053 -2.599609,-0.957031 -0.63561,-0.156728 -1.249064,-0.245884 -1.808594,-0.251953 z m -12.458984,2.498047 c -0.198109,5.02e-4 -0.401354,0.0093 -0.609375,0.02734 -0.9153,0.07941 -1.905245,0.324245 -2.775391,0.681641 -0.435073,0.178696 -0.839585,0.385707 -1.191406,0.615234 -0.351836,0.229531 -0.650498,0.480139 -0.871094,0.748047 l -1.058594,1.285157 2.310547,-0.539063 c 0.754885,-0.176655 1.486286,-0.247209 2.175782,-0.212891 0.68951,0.03439 1.337597,0.172236 1.921875,0.416016 0.814507,0.339704 1.275077,0.505291 1.605468,0.466797 0.165166,-0.01965 0.298173,-0.08941 0.425782,-0.212891 0.127634,-0.123477 0.248838,-0.301003 0.394531,-0.535156 0.351723,-0.565323 0.6218,-1.23317 0.597656,-1.482422 -0.02419,-0.24926 -0.640619,-0.699175 -1.367187,-1.001953 -0.424934,-0.17708 -0.964266,-0.257367 -1.558594,-0.255859 z m 25.070312,65.515625 c -0.177033,0.02079 -0.398272,0.08863 -0.677734,0.193359 -0.706046,0.264454 -1.745255,0.530645 -2.308594,0.589844 -0.222236,0.02343 -0.39354,0.07961 -0.519531,0.214844 -0.126009,0.135193 -0.205502,0.348496 -0.246094,0.685546 -0.08111,0.674083 -0.0024,1.842349 0.19336,3.863282 0.124044,1.280727 0.344491,2.783744 0.599609,4.173828 0.255118,1.39008 0.543404,2.666171 0.806641,3.49414 l 0.724609,2.275391 a 51.724435,51.724435 0 0 0 0.634766,-0.277344 l 0.478515,-1.207031 c 0.242003,-0.610348 0.618817,-1.314609 1.03125,-1.958984 0.412437,-0.644372 0.860307,-1.228646 1.244141,-1.595704 l 1.396484,-1.333984 -1.208984,-2.982422 c -0.665189,-1.640451 -1.285364,-3.755579 -1.376953,-4.701172 -0.05439,-0.561407 -0.113253,-0.936687 -0.226563,-1.162109 -0.113272,-0.225411 -0.279368,-0.302212 -0.544922,-0.271484 z m 5.373047,11.214843 c -0.364724,0.03515 -0.704601,0.156659 -1.046875,0.404297 -0.342274,0.247635 -0.687611,0.622128 -1.064453,1.164063 -0.171364,0.246433 -0.351977,0.537825 -0.539062,0.857422 a 51.724435,51.724435 0 0 0 3.6875,-2.035157 51.724434,51.724434 0 0 0 0.01172,-0.0059 c -0.0054,-0.0048 -0.01021,-0.01284 -0.01563,-0.01758 -0.310941,-0.272466 -0.655688,-0.403736 -1.033203,-0.367188 z"
       transform="matrix(0.26458334,0,0,0.26458334,50.948503,44.433615)"
       id="path4439"
       inkscape:connector-curvature="0" />
    <path
       style="opacity:1;fill:#d40000;fill-opacity:1;stroke:none;stroke-width:7.4910183;stroke-miterlimit:4;stroke-dasharray:none;stroke-opacity:1"
       d="m 90.669922,85.708984 c -1.852317,0.147679 -3.800058,0.729459 -5.751953,1.576172 -0.07744,0.09407 -0.06217,0.318476 0.0293,0.642578 0.09146,0.324095 0.259089,0.74887 0.482422,1.240235 0.161291,0.354876 0.378304,0.775482 0.591796,1.189453 a 51.724434,51.724434 0 0 0 4.648438,-4.648438 z"
       transform="matrix(0.26458334,0,0,0.26458334,50.948503,44.433615)"
       id="path4433"
       inkscape:connector-curvature="0" />
    <path
       style="opacity:1;fill:#ffffff;fill-opacity:1;stroke:none;stroke-width:7.4910183;stroke-miterlimit:4;stroke-dasharray:none;stroke-opacity:1"
       d="m 75.244141,84.460938 0.658203,2.52539 c 0.212938,0.816461 0.534341,1.574382 0.947265,2.244141 0.412933,0.669755 0.918572,1.251723 1.494141,1.714843 0.521552,0.419653 1.115439,1.141591 1.685547,2.015626 0.290238,0.444966 0.573336,0.929519 0.837891,1.433593 a 51.724434,51.724434 0 0 0 3.58789,-2.660156 c -0.600741,-1.116457 -1.156254,-2.099994 -1.662109,-2.888672 -0.623834,-0.972605 -1.19935,-1.719625 -1.78125,-2.294922 -0.581904,-0.575289 -1.169451,-0.979883 -1.822266,-1.269531 -0.652811,-0.289663 -1.370474,-0.464387 -2.207031,-0.580078 z"
       transform="matrix(0.26458334,0,0,0.26458334,50.948503,44.433615)"
       id="path4431"
       inkscape:connector-curvature="0" />
    <path
       style="opacity:1;fill:#ea5105;fill-opacity:1;stroke:none;stroke-width:1.98199856;stroke-miterlimit:4;stroke-dasharray:none;stroke-opacity:1"
       d="m 71.597304,53.301287 c -0.131711,0.01276 -0.23053,0.02532 -0.29591,0.04601 -0.06538,0.0207 -0.09727,0.04963 -0.09576,0.09544 0.0015,0.04581 0.03654,0.108412 0.105493,0.196509 0.06896,0.0881 0.171795,0.201584 0.308755,0.349142 0.119883,0.129161 0.254608,0.304279 0.375186,0.482122 0.120578,0.177842 0.227008,0.358409 0.290067,0.49904 0.114451,0.255244 0.221749,0.453387 0.318662,0.593503 0.09691,0.140117 0.183383,0.222113 0.256188,0.245037 0.0364,0.01145 0.06952,0.0084 0.09867,-0.0099 0.02915,-0.01822 0.05424,-0.05157 0.0753,-0.09974 0.04213,-0.09634 0.06742,-0.252749 0.07231,-0.470417 0.0069,-0.307301 -0.0264,-0.586878 -0.09466,-0.832098 -0.06826,-0.24522 -0.17161,-0.456098 -0.304429,-0.625696 -0.06641,-0.0848 -0.139965,-0.159409 -0.220525,-0.222762 -0.08056,-0.06335 -0.167911,-0.115474 -0.261296,-0.155689 -0.09338,-0.04021 -0.192817,-0.06827 -0.2977,-0.08365 -0.104881,-0.01538 -0.215297,-0.01804 -0.330352,-0.0069 z m 3.057758,4.295785 c -0.04384,0.007 -0.0574,0.05054 -0.04091,0.130511 0.01649,0.07997 0.06304,0.196368 0.138856,0.349443 0.05611,0.113284 0.123616,0.344405 0.187152,0.625687 0.06354,0.28128 0.123103,0.612722 0.163314,0.926267 0.08042,0.62709 0.161013,1.138896 0.179251,1.137134 0.01824,-0.0018 0.184812,-0.280772 0.37017,-0.619834 0.122271,-0.223664 0.207006,-0.431933 0.253897,-0.628019 0.04689,-0.196085 0.05604,-0.379976 0.02641,-0.555124 -0.02963,-0.175148 -0.09786,-0.341629 -0.205135,-0.502482 -0.107277,-0.160851 -0.253703,-0.316087 -0.439761,-0.469283 -0.168008,-0.138336 -0.304251,-0.24042 -0.409601,-0.306168 -0.105349,-0.06574 -0.179802,-0.09514 -0.22364,-0.08813 z m -0.213494,5.909836 c -0.04132,0.004 -0.253631,0.219964 -0.471689,0.479784 -0.21806,0.259816 -0.621477,0.692154 -0.896599,0.960719 l -0.500488,0.488256 0.745116,-0.146365 c 0.204875,-0.04027 0.412437,-0.103018 0.582023,-0.171556 0.169585,-0.06854 0.301193,-0.142863 0.353654,-0.206576 0.04573,-0.05553 0.09001,-0.171954 0.12833,-0.31519 0.03832,-0.143237 0.07065,-0.313366 0.09241,-0.475956 0.02177,-0.162588 0.03308,-0.317642 0.02913,-0.431232 -0.0039,-0.113591 -0.0231,-0.185642 -0.0619,-0.181884 z"
       id="path4427"
       inkscape:connector-curvature="0" />
    <path
       style="opacity:1;fill:#ffffff;fill-opacity:1;stroke:none;stroke-width:1.98199856;stroke-miterlimit:4;stroke-dasharray:none;stroke-opacity:1"
       d="m 65.805616,50.08226 c -0.05428,0.0037 -0.109167,0.0092 -0.164704,0.01687 -0.157,0.02144 -0.315164,0.06201 -0.468968,0.11872 -0.153803,0.05671 -0.303206,0.129656 -0.442809,0.215811 -0.139606,0.08615 -0.269243,0.18558 -0.38365,0.295344 -0.114405,0.109763 -0.213575,0.229808 -0.291782,0.357348 -0.06657,0.108561 -0.117226,0.228814 -0.156855,0.360435 -0.0388,0.219393 -0.130955,0.346413 -0.17265,-0.191799 0.0085,-0.159971 -0.01462,-0.296259 -0.06572,-0.40978 -0.05111,-0.113518 -0.130138,-0.20429 -0.234325,-0.272583 -0.104189,-0.06829 -0.233302,-0.114122 -0.384078,-0.13841 -0.150777,-0.02429 -0.323327,-0.02702 -0.514203,-0.0085 -0.175699,0.01702 -0.371778,0.0637 -0.546143,0.124999 -0.174363,0.0613 -0.327011,0.137222 -0.415838,0.213199 -0.120819,0.103338 -0.234407,0.248999 -0.336703,0.424823 -0.102297,0.175826 -0.193418,0.381972 -0.269149,0.60646 -0.07573,0.224487 -0.135984,0.467285 -0.177104,0.716613 -0.04112,0.249328 -0.063,0.505029 -0.06146,0.755374 l 0.0054,0.889509 0.474362,0.02346 c 0.199627,0.0098 0.495134,0.05606 0.630336,0.08943 0.545605,0.134645 0.834356,0.225001 1.331517,0.474748 0.432479,0.217255 0.842999,0.50386 1.228812,0.810499 0.385814,0.306638 0.732354,0.635881 0.993691,0.946656 0.293818,0.349401 0.557368,0.632908 0.585483,0.630185 0.02811,-0.0027 0.276766,-0.123841 0.552815,-0.269246 0.138025,-0.0727 0.364215,-0.161052 0.617421,-0.244692 0.253206,-0.08364 0.533427,-0.162569 0.779587,-0.216718 l 0.8952,-0.196803 -0.26087,-2.1126 c -0.117142,-0.948607 -0.194173,-1.495592 -0.294726,-1.887636 -0.05028,-0.196022 -0.106519,-0.353078 -0.176424,-0.50257 -0.0699,-0.14949 -0.153585,-0.291279 -0.258969,-0.455981 -0.132871,-0.207657 -0.274611,-0.387555 -0.425053,-0.539817 -0.150443,-0.152262 -0.309697,-0.276855 -0.477777,-0.373757 -0.168079,-0.0969 -0.345016,-0.166089 -0.530797,-0.207668 -0.185781,-0.04158 -0.3803,-0.05558 -0.583847,-0.04187 z"
       id="path4409"
       inkscape:connector-curvature="0"
       sodipodi:nodetypes="cccccccccccsccccccccsscssccccccccssccc" />
    <path
       style="fill:#183c16;fill-opacity:1;stroke-width:0.58849239"
       d="m 59.765625,14.103516 c -0.510921,0.0012 -1.030424,0.02476 -1.550781,0.07226 -2.081371,0.190035 -4.166828,0.745578 -5.683594,1.611328 -1.890418,1.079018 -2.544496,1.192236 -4.365234,0.75586 -2.27438,-0.545106 -5.798835,0.172475 -7.964844,1.623047 -2.608116,1.746644 -5.429385,8.562453 -6.34961,15.34375 -0.422207,3.111651 -0.449394,3.146376 -2.648437,3.359375 -1.222632,0.118412 -3.84782,0.895474 -5.833984,1.726562 -9.958458,4.167001 -15.078703,12.571062 -14.59961,23.962891 0.434892,10.341955 5.738431,18.485188 14.220703,21.839844 3.489793,1.380204 9.82768,1.899234 14.773438,1.210937 3.696079,-0.514382 4.98278,-0.468413 6.185547,0.21875 0.835306,0.477237 2.952878,1.044029 4.705078,1.261719 1.752196,0.217701 3.204863,0.597609 3.228515,0.841797 0.02381,0.244195 -0.380317,1.770809 -0.898437,3.392578 -0.518177,1.621784 -1.11703,4.561454 -1.330078,6.533203 -0.270954,2.507653 -0.642613,3.568233 -1.238281,3.529293 -0.46831,-0.0306 -2.210494,-0.23708 -3.871094,-0.45703 -2.533101,-0.33551 -4.268747,0.0544 -5.667969,1.34179 a 51.724434,51.724434 0 0 0 10.847656,1.17774 51.724434,51.724434 0 0 0 2.285157,-0.0801 c 0.205851,-3.592706 0.858695,-7.977238 1.785156,-11.460932 0.950351,-3.573245 1.565506,-4.749667 3.035156,-5.820312 1.013242,-0.738142 1.836522,-1.381106 1.830078,-1.429688 -0.0045,-0.04868 -1.796303,0.0048 -3.978515,0.119141 -4.212586,0.22046 -8.453503,-0.249616 -8.503907,-0.94336 -0.01663,-0.229757 1.30605,-1.156827 2.941407,-2.060546 1.63536,-0.903731 4.223173,-2.96907 5.748047,-4.587891 2.644864,-2.807709 2.835922,-2.906348 4.169921,-2.152344 0.769127,0.434733 1.882075,0.742754 2.472657,0.685547 0.89221,-0.0864 0.780991,-0.310164 -0.658204,-1.324219 -1.501201,-1.057735 -1.762358,-1.629057 -1.958984,-4.289062 -0.360453,-4.876025 0.807638,-8.636451 3.972656,-12.796875 3.504265,-4.606383 6.906209,-6.621474 12.185547,-7.212891 0.387721,-0.04346 0.745812,-0.07895 1.082031,-0.105469 0,0 0.002,0 0.002,0 2.355506,-0.185249 3.60402,0.0678 5.955078,1.056641 3.584156,1.507457 4.133234,2.349415 4.699218,7.201172 0.424846,3.641457 -0.36727,7.915674 -2.058593,11.101562 -2.578685,4.857306 -11.765663,12.237272 -17.980469,14.44336 -0.841822,0.298809 -1.640818,0.934607 -1.773438,1.414062 -0.393195,1.421484 1.148204,11.424339 2.201172,14.291016 0.107081,0.291549 0.173271,0.525918 0.253907,0.779288 a 51.724434,51.724434 0 0 0 0.974609,-0.32421 l -0.724609,-2.275391 c -0.526451,-1.655943 -1.158147,-5.106522 -1.40625,-7.667968 -0.391491,-4.041861 -0.316695,-4.670507 0.572265,-4.763672 0.563354,-0.05919 1.602563,-0.325379 2.308594,-0.589844 0.279458,-0.104693 0.500716,-0.172874 0.677734,-0.193359 0.531122,-0.06145 0.662729,0.310771 0.771485,1.433593 0.09158,0.945593 0.711726,3.060721 1.376953,4.701172 l 1.208984,2.982422 -1.396484,1.333984 c -0.767645,0.734117 -1.791369,2.333984 -2.275391,3.554688 l -0.478515,1.207031 a 51.724434,51.724434 0 0 0 3.515625,-1.572265 c 1.009938,-1.725375 1.755103,-2.339065 2.65039,-2.425782 0.383321,-0.03713 0.732226,0.103722 1.046875,0.384766 a 51.724434,51.724434 0 0 0 2.613282,-1.667969 C 80.082707,92.90032 79.130794,91.578611 78.34375,90.945312 77.192627,90.019067 76.328262,88.619243 75.902344,86.986328 l -0.658203,-2.52539 1.738281,0.240234 c 3.18796,0.44086 4.650096,1.786732 7.472656,7.033203 a 51.724434,51.724434 0 0 0 1.566406,-1.376953 c -0.80457,-1.560215 -1.314316,-2.816149 -1.103515,-3.072266 2.055141,-0.721737 3.876207,-1.187326 5.509765,-1.318359 a 51.724434,51.724434 0 0 0 2.146485,-2.615235 c -0.619089,-0.07145 -1.252414,-0.113722 -1.91211,-0.09766 -1.903082,0.04634 -4.235276,0.441691 -5.183593,0.878906 -1.495125,0.689296 -2.067479,0.615328 -4.296875,-0.550781 l -2.570313,-1.34375 4.595703,-0.798828 c 2.527487,-0.439325 5.147934,-1.16572 5.822266,-1.615234 2.058236,-1.372007 2.780004,-4.142696 2.214844,-8.5 l -0.511719,-3.9375 2.824219,-3.189453 c 6.260012,-7.075582 5.110545,-13.321386 -3.109375,-16.900391 -2.557841,-1.113698 -3.693717,-1.934094 -3.671875,-2.652344 0.224504,-7.391168 0.0285,-8.721717 -1.560547,-10.640625 -1.839073,-2.220945 -5.068005,-3.645712 -7.69336,-3.392578 -1.700511,0.164145 -1.904763,-0.02144 -2.794922,-2.539062 -2.29186,-6.48138 -6.452921,-11.587161 -10.853515,-13.320313 -1.124391,-0.442817 -2.57466,-0.651896 -4.107422,-0.648437 z m -0.542969,2.345703 c 2.797528,0.02982 6.906671,2.1192 8.728516,4.521484 2.350144,3.098876 4.443731,7.694975 5.203125,11.427735 0.55762,2.740962 1.196254,4.051269 2.833984,5.814453 1.162874,1.251945 2.357154,2.959375 2.654297,3.792968 0.297222,0.833587 2.120821,2.817449 4.052734,4.408203 3.671626,3.023169 5.034596,5.430689 2.294922,4.054688 -4.78927,-2.405371 -10.364368,-1.84609 -15.927734,1.595703 -5.425122,3.356277 -8.748813,9.084529 -9.304688,16.037109 -0.22473,2.810336 -0.280738,2.899461 -1.013671,1.576172 -0.811858,-1.46584 -1.000394,-0.827698 -0.558594,1.900391 0.18172,1.121726 -0.284672,2.064327 -1.753906,3.535156 -2.68591,2.688752 -8.123437,5.949843 -11.851563,7.109375 C 29.587029,86.885841 16.398629,79.369833 13.947266,64.765625 13.033365,59.32117 13.648275,55.293979 16.085938,50.748047 21.258897,41.1012 33.588595,36.46894 44.134766,40.212891 c 4.62201,1.64084 9.479526,5.089312 10.90039,7.738281 0.97392,1.815708 1.004571,1.82566 2.654297,0.792969 2.475413,-1.549546 8.997091,-3.445434 11.333985,-3.294922 1.317932,0.08489 2.019912,-0.103827 1.978515,-0.53125 -0.03515,-0.364309 -0.672469,-0.603269 -1.416015,-0.53125 -1.332409,0.129071 -1.355695,0.05293 -1.615235,-5.263672 -0.612567,-12.545688 -4.482014,-18.736002 -11.707031,-18.730469 -2.16573,0.0017 -3.371466,0.306615 -4.371094,1.109375 -1.596892,1.282348 -1.75297,1.042893 -0.666016,-1.027344 0.956164,-1.821146 4.483871,-3.716118 7.455079,-4.003906 0.173781,-0.01683 0.354513,-0.02347 0.541015,-0.02148 z m -12.458984,2.498047 c 0.594328,-0.0015 1.133643,0.07872 1.558594,0.255859 0.726587,0.302778 1.343047,0.752697 1.367187,1.001953 0.02419,0.24926 -0.245941,0.917103 -0.597656,1.482422 -0.582747,0.93662 -0.796748,0.960658 -2.425781,0.28125 -1.168551,-0.487574 -2.587936,-0.556443 -4.097657,-0.203125 l -2.310547,0.539063 1.058594,-1.285157 c 0.88235,-1.071621 3.007299,-1.886121 4.837891,-2.044922 0.208026,-0.01805 0.411265,-0.02684 0.609375,-0.02734 z m 9.388672,2.402343 c 3.077253,-0.207231 5.616264,1.257103 7.625,4.396485 1.59321,2.489975 1.874237,3.58529 2.759765,10.755859 l 0.986329,7.984375 -3.382813,0.744141 c -1.860748,0.409315 -4.237934,1.194571 -5.28125,1.74414 -1.04332,0.549563 -1.981614,1.007287 -2.087891,1.017579 -0.10628,0.0102 -1.102423,-1.060289 -2.21289,-2.38086 -1.975499,-2.349165 -5.241345,-4.980909 -8.400391,-6.642578 -0.499601,-0.262828 -1.403543,-0.637994 -1.796875,-0.857422 0.750006,-0.01739 1.334705,-1.470628 1.328125,-2.546875 -0.02343,-3.834206 -1.006059,-5.67356 -2.705078,-5.748047 -1.553843,-0.06811 -2.514114,0.771885 -2.621094,3.796875 -0.03957,1.119273 0.17014,3.007692 0.761719,3.5625 -0.499431,-0.166034 -1.628347,-0.300738 -2.382812,-0.33789 l -1.792969,-0.08984 -0.01953,-3.361328 c -0.02306,-3.784725 1.364817,-7.898644 3.191406,-9.460938 0.671448,-0.574303 2.308611,-1.150657 3.636718,-1.279297 2.885692,-0.279496 4.655327,0.716288 4.527344,3.134766 -0.12034,2.274365 -0.365185,4.063303 -0.04102,6.279297 0.229946,-2.916129 0.280689,-5.274782 1.287109,-6.916016 1.182346,-1.928175 3.624458,-3.408286 5.998047,-3.732422 0.209915,-0.02872 0.417947,-0.04859 0.623047,-0.0625 z m -3.332032,8.175782 c -0.998101,0.08636 -2.018905,0.776561 -2.496093,1.945312 -0.770771,1.88767 -0.02669,7.158581 1.185547,8.361328 1.234673,1.225172 3.35031,1.330991 4.248046,-0.08984 0.952347,-1.507318 0.758765,-7.185488 -0.916015,-9.263672 -0.544305,-0.675353 -1.245162,-1.020299 -2.021485,-0.953125 z m 25.861329,3.964843 c 3.121942,0.06606 5.162319,2.953165 5.064453,7.308594 -0.07389,3.290729 -1.373267,2.880291 -3.103516,-0.978516 -0.476666,-1.063037 -1.607447,-2.730703 -2.513672,-3.707031 -2.070557,-2.230817 -2.07711,-2.40479 -0.08594,-2.597656 0.217428,-0.02106 0.430542,-0.0298 0.638672,-0.02539 z M 32.339844,46.212891 c -1.717576,0.04592 -3.565521,2.634645 -3.238282,5.226562 0.139087,1.101411 0.270715,1.002726 0.916016,-0.683594 0.448415,-1.17177 1.44849,-2.290287 2.466797,-2.759765 1.257883,-0.579923 1.521773,-0.94606 0.996094,-1.378906 -0.353991,-0.291515 -0.744274,-0.414891 -1.140625,-0.404297 z M 22.126953,48.5 C 21.902978,48.4958 21.691614,48.5088 21.5,48.53711 c -0.574843,0.08462 -0.966362,0.300932 -0.941406,0.558594 0.03326,0.343559 0.452552,0.587232 0.929687,0.541016 0.477075,-0.04622 1.094873,0.557914 1.375,1.34375 0.74019,2.076083 1.691807,1.6499 1.259766,-0.564453 C 23.816489,48.844564 23.484129,48.524435 22.126953,48.5 Z m 67.472656,1.251953 c 0.331389,-0.05299 1.122612,0.444545 2.392579,1.490235 2.812841,2.316049 3.227408,4.763169 1.378906,8.144531 -0.700615,1.281498 -1.329552,2.335141 -1.398438,2.341797 -0.06894,0.0068 -0.373766,-1.926771 -0.677734,-4.296875 -0.30395,-2.370097 -0.900054,-5.008922 -1.324219,-5.865235 C 89.397625,50.4093 89.26827,49.804935 89.599609,49.751953 Z m -0.80664,22.335938 c 0.586624,-0.05681 -0.01974,4.467075 -0.710938,5.30664 -0.396521,0.481614 -1.988489,1.125281 -3.537109,1.429688 l -2.814453,0.552734 1.890625,-1.84375 c 1.039854,-1.015052 2.564504,-2.648874 3.388672,-3.630859 0.824163,-0.981997 1.627025,-1.799324 1.783203,-1.814453 z"
       transform="matrix(0.26458334,0,0,0.26458334,50.948503,44.433615)"
       id="path4397"
       inkscape:connector-curvature="0" />
    <path
       style="fill:#183c16;fill-opacity:1;stroke:none;stroke-width:0.23263302px;stroke-linecap:butt;stroke-linejoin:miter;stroke-opacity:1"
       d="m 60.084294,62.07084 c 0.836444,-0.382352 2.093593,-0.09308 2.996245,0.367948 1.49994,0.766094 3.237061,3.584862 3.237061,3.584862 0,0 -1.827287,-2.197193 -3.149629,-2.760876 -1.099503,-0.468685 -2.863406,0.579955 -3.523402,-0.322677 -0.215883,-0.295248 0.118038,-0.722209 0.439725,-0.869257 z"
       id="path3977"
       inkscape:connector-curvature="0"
       sodipodi:nodetypes="sscsss" />
    <path
       sodipodi:nodetypes="sscsss"
       inkscape:connector-curvature="0"
       id="path3979"
       d="m 57.6117,61.93688 c -0.73927,-0.377649 -1.72233,-0.102497 -2.390638,0.342185 -1.110531,0.738925 -2.110405,3.478864 -2.110405,3.478864 0,0 1.165577,-2.133102 2.161171,-2.675573 0.827819,-0.45105 2.422714,0.581731 2.827549,-0.295078 0.13242,-0.286802 -0.203363,-0.705159 -0.487674,-0.8504 z"
       style="fill:#183c16;fill-opacity:1;stroke:none;stroke-width:0.20745303px;stroke-linecap:butt;stroke-linejoin:miter;stroke-opacity:1" />
    <path
       style="fill:#1a1a1a;fill-opacity:0.92964825;stroke:none;stroke-width:0.26458335px;stroke-linecap:butt;stroke-linejoin:miter;stroke-opacity:1"
       d="m 69.440214,50.974143 c 0.312495,1.402806 0.469087,4.274167 -0.41761,5.261869 -0.53213,0.592746 -2.516222,1.400397 -3.624842,0.317382 -0.976591,-0.954035 -1.998238,-1.69632 -3.290755,-2.054634 -0.220113,-0.06102 -1.959712,-0.353624 -2.42213,-0.350794 -0.52979,-0.825677 -0.586471,-2.656446 -0.451019,-3.558026 1.511869,0.273068 2.900233,0.42268 4.326377,0.485547 0.04874,0.52462 0.378626,0.533886 0.584089,0.02092 1.614352,0.04482 3.303804,-0.0132 5.29589,-0.122265 z"
       id="path3981"
       inkscape:connector-curvature="0"
       sodipodi:nodetypes="cssscccccc" />
  </g>
</svg>
