<?xml version="1.0" encoding="UTF-8" standalone="no"?>
<!-- Generator: Adobe Illustrator 18.0.0, SVG Export Plug-In . SVG Version: 6.00 Build 0)  -->

<svg
   xmlns:dc="http://purl.org/dc/elements/1.1/"
   xmlns:cc="http://creativecommons.org/ns#"
   xmlns:rdf="http://www.w3.org/1999/02/22-rdf-syntax-ns#"
   xmlns:svg="http://www.w3.org/2000/svg"
   xmlns="http://www.w3.org/2000/svg"
   xmlns:sodipodi="http://sodipodi.sourceforge.net/DTD/sodipodi-0.dtd"
   xmlns:inkscape="http://www.inkscape.org/namespaces/inkscape"
   version="1.1"
   id="Layer_1"
   x="0px"
   y="0px"
   viewBox="0 0 1122.5197 793.70079"
   enable-background="new 0 0 1400 980"
   xml:space="preserve"
   sodipodi:docname="BAMBOO.svg"
   width="297mm"
   height="210mm"
   inkscape:version="0.92.4 (5da689c313, 2019-01-14)"><metadata
   id="metadata1075"><rdf:RDF><cc:Work
       rdf:about=""><dc:format>image/svg+xml</dc:format><dc:type
         rdf:resource="http://purl.org/dc/dcmitype/StillImage" /><dc:title></dc:title></cc:Work></rdf:RDF></metadata><defs
   id="defs1073">
	
	

		
		
		
		
		
		
		
		
	
			
			
			
			
			
			
			
			
			
		
			
			
			
		
			
			
			
			
			
			
			
			
			
			
			
			
			
			
			
			
			
			
			
			
			
			
			
			
		
			
			
			
			
			
			
			
			
			
			
			
			
			
			
			
			
			
			
			
			
			
			
			
		
			
			
		
			
			
			
		
			
			
			
			
			
			
			
		
			
			
		
				
				
				
				
				
				
				
				
				
				
				
			
				
				
				
				
				
				
				
				
				
				
				
			
				
				
				
				
				
				
				
				
				
				
				
			
				
				
				
			
				
				
				
			
				
				
				
			
				
				
				
			
				
				
				
				
				
				
				
				
				
			
				
				
				
				
				
				
				
				
				
				
			
				
				
				
				
				
				
				
				
				
				
				
			
				
				
				
				
				
				
				
				
				
				
				
			
				
				
				
				
			
				
				
				
				
				
				
				
				
				
				
				
				
				
				
				
				
				
				
				
				
				
				
				
				
			
				
				
				
				
				
				
				
				
				
				
				
				
				
				
				
				
				
				
				
				
				
				
				
				
			
				
				
				
			
				
				
				
			
				
				
				
			
				
				
				
			
				
				
				
			
				
				
				
			
				
				
				
			
				
				
				
			
				
				
				
			
				
				
				
			
				
				
				
			
				
				
				
			
				
				
				
			
				
				
				
			
				
				
				
				
				
				
			
				
				
				
			
				
				
				
				
				
				
				
				
				
			
				
				
				
				
				
				
				
				
				
				
				
				
				
				
				
				
				
				
				
				
				
				
				
				
				
				
				
				
			
				
				
				
			
				
				
				
				
				
				
			
				
				
				
				
				
				
			
				
				
				
				
				
				
			
				
				
				
				
				
				
			
				
				
				
			
				
				
				
			
				
				
				
			
				
				
				
			
				
				
			
					
					
					
					
					
					
					
					
					
					
					
					
					
					
					
					
					
					
					
					
					
				
					
					
					
					
					
					
					
					
					
					
					
					
					
					
					
					
					
					
					
					
					
				
					
					
					
				
					
					
					
				
					
					
					
				
					
					
					
				
					
					
					
				
					
					
					
				
					
					
					
				
					
					
					
				
					
					
					
				
					
					
					
				
					
					
					
				
					
					
					
				
					
					
					
					
					
					
				
					
					
					
				
					
					
					
				
					
					
					
					
					
					
				
					
					
					
				
					
					
					
				
					
					
					
				
					
					
					
				
					
					
					
				
					
					
					
				
					
					
					
				
					
					
					
				
					
					
					
				
					
					
					
				
					
					
					
					
					
					
					
					
					
				
					
					
					
				
					
					
					
				
					
					
					
				
					
					
					
				
					
					
					
				
					
					
					
				
					
					
					
				
					
					
					
				
					
					
					
				
					
					
					
				
						
						
						
					
						
						
						
					
						
						
						
					
						
						
						
					
						
						
						
					
						
						
						
					</defs><sodipodi:namedview
   pagecolor="#ffffff"
   bordercolor="#666666"
   borderopacity="1"
   objecttolerance="10"
   gridtolerance="10"
   guidetolerance="10"
   inkscape:pageopacity="0"
   inkscape:pageshadow="2"
   inkscape:window-width="1366"
   inkscape:window-height="705"
   id="namedview1071"
   showgrid="false"
   inkscape:pagecheckerboard="true"
   units="mm"
   inkscape:zoom="0.34056571"
   inkscape:cx="794.53201"
   inkscape:cy="522.09263"
   inkscape:window-x="-8"
   inkscape:window-y="-8"
   inkscape:window-maximized="1"
   inkscape:current-layer="Layer_1" />
<rect
   style="fill:#2c2c30"
   y="-186.29921"
   x="0"
   id="rect2"
   height="980"
   width="1400" /><path
   d="m 232.8,-128.99921 c 0,0 18.1,2.4 29.2,0 0,0 -6.3,38.7 0,109.6 0,0 -10,6.9 -29.2,2.4 0,0 5.6,-65.4 0,-112 z"
   id="path4"
   inkscape:connector-curvature="0"
   style="fill:#7db241" /><path
   d="m 232.8,-13.39921 c 0,0 15.4,5.4 29.2,-2 0,0 -9.5,62.4 -6.3,104.2 0,0 -13.4,10.3 -31.6,0 0.1,-0.1 11.9,-60.8 8.7,-102.2 z"
   id="path6"
   inkscape:connector-curvature="0"
   style="fill:#7db241" /><path
   d="m 224.2,92.00079 c 0,0 16.6,10.9 31.6,0 0,0 -8.7,75.9 0,116.9 0,0 -15,10.3 -31.6,0 0,0 7.1,-55.6 0,-116.9 z"
   id="path8"
   inkscape:connector-curvature="0"
   style="fill:#7db241" /><path
   d="m 254,-127.99921 c -1.3,0.1 -2.6,0.1 -3.9,0.1 -0.3,17.5 -1.3,81.3 1.6,112 2.2,-0.3 4,-0.8 5.5,-1.3 -2.3,-13.2 -5.9,-45.5 -3.2,-110.8 z"
   id="path10"
   inkscape:connector-curvature="0"
   style="fill:#6da041" /><path
   d="m 252.5,-12.09921 c -1.7,17.8 -6.6,73.2 -6.6,104.9 2,-0.4 3.7,-0.9 5.1,-1.5 -1,-16.2 -1.1,-48.1 5.5,-104.4 -1.3,0.4 -2.7,0.7 -4,1 z"
   id="path12"
   inkscape:connector-curvature="0"
   style="fill:#6da041" /><path
   d="m 250.6,94.90079 c -1.3,0.6 -2.7,1 -4,1.3 -1.2,19.1 -5.2,89.1 -2.7,117 2.3,-0.3 4.3,-0.9 6,-1.5 -1.7,-8.8 -5.8,-40.5 0.7,-116.8 z"
   id="path14"
   inkscape:connector-curvature="0"
   style="fill:#6da041" /><path
   d="m 245.8,-15.49921 -2.6,-112.7 c -2.6,-0.1 -5,-0.3 -6.8,-0.5 1,13.8 4.3,65.2 0.2,112.4 3.4,0.7 6.5,0.9 9.2,0.8 z"
   id="path16"
   inkscape:connector-curvature="0"
   style="fill:#afd358" /><path
   d="m 238,93.20079 6,-104.7 c -2.4,-0.1 -4.6,-0.4 -6.4,-0.7 -0.4,20.5 -2,63.6 -8.6,103.3 3.3,1.2 6.3,1.9 9,2.1 z"
   id="path18"
   inkscape:connector-curvature="0"
   style="fill:#afd358" /><path
   d="m 237.8,213.40079 -0.7,-116.8 c -2.6,-0.3 -4.9,-1 -6.9,-1.7 0.7,11.2 3.6,66.5 -1.8,116.3 3.3,1.3 6.5,2 9.4,2.2 z"
   id="path20"
   inkscape:connector-curvature="0"
   style="fill:#afd358" /><path
   style="fill:#5ebb47"
   inkscape:connector-curvature="0"
   id="path22"
   d="m 269.5,-22.29921 c 0,0 15.3,-54.2 68.1,-68.3 0,0 -20.7,31.7 -66.6,70 0,0 27.6,-32.7 49.9,-56 0.1,0.1 -32.2,28.3 -51.4,54.3 z" /><path
   style="fill:#5ebb47"
   inkscape:connector-curvature="0"
   id="path24"
   d="m 271.7,-18.89921 c 0,0 40.6,-39.1 93.3,-24.5 0,0 -33.9,16.9 -92.8,26.8 0,0 40.4,-14.3 71.3,-23.1 0,0 -42.1,8 -71.8,20.8 z" /><path
   style="fill:#5ebb47"
   inkscape:connector-curvature="0"
   id="path26"
   d="m 271.6,-16.49921 c 0,0 56.2,-3.9 87.3,41.1 0,0 -36.8,-8.8 -88.4,-39.1 0,0 40.1,15 69.5,28.1 -0.1,0 -37.5,-20.9 -68.4,-30.1 z" /><path
   style="fill:#5ebb47"
   inkscape:connector-curvature="0"
   id="path30"
   d="m 262,89.00079 c 0,0 15.3,-54.2 68.1,-68.3 0,0 -20.7,31.7 -66.6,70 0,0 27.6,-32.7 49.9,-56 0.1,0.1 -32.2,28.3 -51.4,54.3 z" /><path
   style="fill:#5ebb47"
   inkscape:connector-curvature="0"
   id="path32"
   d="m 264.2,92.30079 c 0,0 40.6,-39.1 93.3,-24.5 0,0 -33.9,16.9 -92.8,26.8 0,0 40.4,-14.3 71.3,-23.1 0,0.1 -42.1,8.1 -71.8,20.8 z" /><path
   style="fill:#5ebb47"
   inkscape:connector-curvature="0"
   id="path34"
   d="m 264,94.70079 c 0,0 56.2,-3.9 87.3,41.1 0,0 -36.8,-8.8 -88.4,-39.1 0,0 40.1,15 69.5,28.1 0,0.1 -37.4,-20.8 -68.4,-30.1 z" /><path
   style="fill:#5ebb47"
   inkscape:connector-curvature="0"
   id="path40"
   d="m 199.1,-11.39921 c 0,0 7.2,-55.9 -36,-89.5 0,0 6.7,37.3 33.8,90.5 0,0 -12.6,-40.9 -24,-71 0.1,0 18.8,38.6 26.2,70 z" /><path
   style="fill:#5ebb47"
   inkscape:connector-curvature="0"
   id="path42"
   d="m 195.8,-9.09921 c 0,0 -22,-51.8 -76.3,-59.1 0,0 24.6,28.8 74.9,61 0,0 -31.6,-29 -56.6,-49.2 0.1,0 35.7,23.9 58,47.3 z" /><path
   style="fill:#5ebb47"
   inkscape:connector-curvature="0"
   id="path44"
   d="m 195,-6.89921 c 0,0 -50.2,-25.6 -96.4,3.7 0,0 37.4,6.3 96.6,-1.3 0,0 -42.8,-1.9 -75,-1.4 0,0 42.7,-4.6 74.8,-1 z" /><path
   d="m 199.7,-115.19921 c 0,0 18.1,2.4 29.2,0 0,0 -6.3,38.7 0,109.6 0,0 -10,6.9 -29.2,2.4 0,0 5.5,-65.5 0,-112 z"
   id="path48"
   inkscape:connector-curvature="0"
   style="fill:#7db241" /><path
   d="m 199.7,0.40079 c 0,0 15.4,5.4 29.2,-2 0,0 -9.5,62.4 -6.3,104.2 0,0 -13.4,10.3 -31.6,0 0,-0.1 11.9,-60.8 8.7,-102.2 z"
   id="path50"
   inkscape:connector-curvature="0"
   style="fill:#7db241" /><path
   d="m 191,105.70079 c 0,0 16.6,10.9 31.6,0 0,0 -8.7,75.9 0,116.9 0,0 -15,10.3 -31.6,0 0,0.1 7.1,-55.5 0,-116.9 z"
   id="path52"
   inkscape:connector-curvature="0"
   style="fill:#7db241" /><path
   d="m 220.9,-114.29921 c -1.3,0.1 -2.6,0.1 -3.9,0.1 -0.3,17.5 -1.3,81.3 1.6,112 2.2,-0.3 4,-0.8 5.5,-1.3 -2.3,-13.1 -5.9,-45.4 -3.2,-110.8 z"
   id="path54"
   inkscape:connector-curvature="0"
   style="fill:#6da041" /><path
   d="m 219.4,1.60079 c -1.7,17.8 -6.6,73.2 -6.6,104.9 2,-0.4 3.7,-0.9 5.1,-1.5 -1,-16.2 -1.1,-48.1 5.5,-104.4 -1.4,0.5 -2.7,0.8 -4,1 z"
   id="path56"
   inkscape:connector-curvature="0"
   style="fill:#6da041" /><path
   d="m 217.4,108.70079 c -1.3,0.6 -2.7,1 -4,1.3 -1.2,19.1 -5.2,89.1 -2.7,117 2.3,-0.3 4.3,-0.9 6,-1.5 -1.6,-8.8 -5.8,-40.6 0.7,-116.8 z"
   id="path58"
   inkscape:connector-curvature="0"
   style="fill:#6da041" /><path
   d="m 212.7,-1.69921 -2.6,-112.6 c -2.6,-0.1 -5,-0.3 -6.8,-0.5 1,13.8 4.3,65.2 0.2,112.4 3.4,0.5 6.5,0.8 9.2,0.7 z"
   id="path60"
   inkscape:connector-curvature="0"
   style="fill:#afd358" /><path
   d="m 204.9,107.00079 6,-104.7 c -2.4,-0.1 -4.6,-0.4 -6.4,-0.7 -0.4,20.5 -2,63.6 -8.6,103.3 3.2,1.2 6.3,1.8 9,2.1 z"
   id="path62"
   inkscape:connector-curvature="0"
   style="fill:#afd358" /><path
   d="m 204.7,227.20079 -0.7,-116.9 c -2.6,-0.3 -4.9,-1 -6.9,-1.7 0.7,11.2 3.6,66.5 -1.8,116.3 3.3,1.4 6.4,2.1 9.4,2.3 z"
   id="path64"
   inkscape:connector-curvature="0"
   style="fill:#afd358" /><path
   style="fill:#5ebb47"
   inkscape:connector-curvature="0"
   id="path66"
   d="m 187.9,99.10079 c 0,0 7.2,-55.9 -36,-89.5 0,0 6.7,37.3 33.8,90.5 0,0 -12.6,-40.9 -24,-71 0,0 18.7,38.6 26.2,70 z" /><path
   style="fill:#5ebb47"
   inkscape:connector-curvature="0"
   id="path68"
   d="m 184.5,101.30079 c 0,0 -22,-51.8 -76.3,-59.1 0,0 24.6,28.8 74.9,61 0,0 -31.6,-29 -56.6,-49.2 0.1,0.1 35.8,23.9 58,47.3 z" /><path
   style="fill:#5ebb47"
   inkscape:connector-curvature="0"
   id="path70"
   d="m 183.8,103.60079 c 0,0 -50.2,-25.6 -96.4,3.7 0,0 37.4,6.3 96.6,-1.3 0,0 -42.8,-1.9 -75,-1.4 0,0 42.7,-4.6 74.8,-1 z" /><path
   d="m 490.6,-75.99921 c -0.1,-7.2 -0.7,-14.3 -1,-21.4 -0.2,-3.9 0.3,-8.1 -0.3,-12 -7.4,1.3 -13.8,1.7 -13.8,1.7 6.4,19.7 11.5,43.5 15.1,63.9 0,-10.8 0.1,-21.5 0,-32.2 z"
   id="path78"
   inkscape:connector-curvature="0"
   style="fill:#7db241" /><path
   d="m 519,-24.29921 c -0.4,7.2 1.1,14.3 1.5,21.5 0,0.1 0,0.2 0,0.2 3.5,-1.8 5.1,-3.5 5.1,-3.5 -2.6,-8.7 -4.8,-17 -6.8,-24.7 0,1.4 0,2.8 -0.1,4.1 0.2,0.8 0.4,1.6 0.3,2.4 z"
   id="path80"
   inkscape:connector-curvature="0"
   style="fill:#7db241" /><path
   d="m 515.7,96.50079 c 2.2,-3.7 3.8,-7.3 5.3,-11.4 3.6,-10.2 8,-20.6 9.8,-31.3 0.1,-0.5 0.2,-1 0.4,-1.4 -3.8,-29 -5,-54.6 -5,-54.6 -2,1.7 -4.2,3 -6.3,4.1 0,3.8 -1,7.4 -1.6,11.1 -0.8,4.3 -0.6,9 -0.7,13.4 -0.2,9.2 -0.6,18.3 -1.1,27.5 -0.5,9 -1.1,18.1 -1.1,27.1 0,5.5 0,11 -0.3,16.5 0.3,-0.4 0.5,-0.7 0.6,-1 z"
   id="path82"
   inkscape:connector-curvature="0"
   style="fill:#7db241" /><path
   d="m 543.9,129.50079 c -1.6,6 -3.6,11.8 -5.5,17.7 -2.3,7.2 -4.4,14.5 -6,21.9 -1.3,6 -1.1,12.4 -3.5,18.2 -0.1,0.3 -0.3,0.7 -0.5,1 3.6,22.3 4.6,37 4.6,37 18.3,6.8 30.9,-6.2 30.9,-6.2 -10.4,-24.4 -16.7,-63.9 -20,-89.6 z"
   id="path84"
   inkscape:connector-curvature="0"
   style="fill:#7db241" /><path
   d="m 521.3,-2.99921 c -0.3,-0.8 -0.7,-1.7 -1,-2.7 0.1,1 0.2,2 0.2,2.9 0,0.1 0,0.2 0,0.2 0.3,-0.1 0.6,-0.2 0.8,-0.4 z"
   id="path86"
   inkscape:connector-curvature="0"
   style="fill:#6da041" /><path
   d="m 528.4,64.20079 c -2.5,-16.3 -4.9,-37 -7,-63 -0.4,0.2 -0.9,0.5 -1.3,0.7 0,3.4 -0.8,6.7 -1.4,10.1 1.6,14.6 4.2,37.8 7.3,59.8 0.8,-2.5 1.6,-5.1 2.4,-7.6 z"
   id="path88"
   inkscape:connector-curvature="0"
   style="fill:#6da041" /><path
   d="m 540.7,140.20079 c -0.8,2.3 -1.5,4.7 -2.3,7.1 0,0.1 0,0.1 -0.1,0.2 4.2,27.4 9.9,61.2 14.9,78.1 2.2,-0.8 4,-1.7 5.6,-2.6 -2.8,-7 -10.6,-29.8 -18.1,-82.8 z"
   id="path90"
   inkscape:connector-curvature="0"
   style="fill:#6da041" /><path
   d="m 490.6,-75.99921 c 0,-4.7 -0.3,-9.5 -0.6,-14.2 l -4.2,-18.7 c -2.6,0.4 -5,0.7 -6.8,0.8 2,7.2 6.8,25 11.6,47.2 0.1,-5.1 0.1,-10.1 0,-15.1 z"
   id="path92"
   inkscape:connector-curvature="0"
   style="fill:#afd358" /><path
   d="m 515.7,96.50079 c 2.1,-3.5 3.6,-6.9 5,-10.6 l -4.3,-30.5 c -0.5,8.5 -1,17.1 -1,25.6 0,5.5 0,11 -0.3,16.5 0.3,-0.4 0.5,-0.7 0.6,-1 z"
   id="path94"
   inkscape:connector-curvature="0"
   style="fill:#afd358" /><path
   d="m 534,162.50079 c -0.6,2.2 -1.1,4.4 -1.6,6.7 -0.7,3.1 -0.9,6.2 -1.4,9.3 2.7,15.4 5.1,32 6.6,48.1 3.5,0.7 6.7,0.8 9.6,0.4 z"
   id="path96"
   inkscape:connector-curvature="0"
   style="fill:#afd358" /><path
   d="m 567.8,-112.19921 c 0,0 17.3,5.9 28.6,5.8 0,0 -13.8,36.7 -21.6,107.5 0,0 -11.2,4.8 -29.1,-3.4 0.1,-0.1 18.4,-63.2 22.1,-109.9 z"
   id="path100"
   inkscape:connector-curvature="0"
   style="fill:#7db241" /><path
   d="m 545.1,1.10079 c 0,0 14,8.3 29,3.8 0,0 -21.6,59.3 -26.7,100.9 0,0 -15.2,7.4 -30.9,-6.2 -0.1,-0.1 23.5,-57.3 28.6,-98.5 z"
   id="path102"
   inkscape:connector-curvature="0"
   style="fill:#7db241" /><path
   d="m 546.7,108.90079 c -16.8,7.7 -30.9,-6.2 -30.9,-6.2 -1,12 -2.5,23.7 -4.2,34.8 0.7,4.9 0,9.9 -0.1,14.8 0,3.2 -0.2,6.3 -0.4,9.4 0.1,0.4 0.2,0.9 0.2,1.3 0,6.8 -0.1,13.7 -0.1,20.5 0.1,1.7 0.2,3.5 0.2,5.2 0,0.3 0,0.6 0,1 0.2,0.6 0.4,1.3 0.4,2.1 0.1,11.3 2.5,22.3 3.6,33.5 5,-0.4 8.4,-1.8 8.4,-1.8 -0.5,-41.9 22.9,-114.6 22.9,-114.6 z"
   id="path104"
   inkscape:connector-curvature="0"
   style="fill:#7db241" /><path
   d="m 588.4,-107.09921 c -1.3,-0.2 -2.6,-0.4 -3.8,-0.7 -3.8,17.1 -17.3,79.4 -20.5,110.1 2.2,0.1 4.1,0 5.7,-0.2 0.3,-13.3 3.1,-45.8 18.6,-109.2 z"
   id="path106"
   inkscape:connector-curvature="0"
   style="fill:#6da041" /><path
   d="m 564.1,6.20079 c -5.1,17.1 -20.9,70.5 -27.2,101.5 2,0 3.8,-0.2 5.3,-0.5 2.2,-16.1 8.4,-47.4 25.9,-101.2 -1.3,0.2 -2.7,0.2 -4,0.2 z"
   id="path108"
   inkscape:connector-curvature="0"
   style="fill:#6da041" /><path
   d="m 536.9,111.20079 c -4.2,15.8 -17.7,67.5 -23.5,99.6 0.7,4.8 1.4,9.7 1.8,14.5 0.7,-0.1 1.4,-0.1 2.1,-0.2 0.1,-8.9 2.3,-40.9 23.7,-114.4 -1.3,0.3 -2.7,0.4 -4.1,0.5 z"
   id="path110"
   inkscape:connector-curvature="0"
   style="fill:#6da041" /><path
   d="m 558.2,1.60079 19.7,-110.9 c -2.6,-0.7 -4.8,-1.3 -6.6,-1.8 -1.7,13.7 -8.6,64.7 -21.9,110.2 3.2,1.2 6.1,2 8.8,2.5 z"
   id="path112"
   inkscape:connector-curvature="0"
   style="fill:#afd358" /><path
   d="m 529.2,106.60079 26.5,-101.5 c -2.4,-0.6 -4.4,-1.3 -6.1,-1.9 -4.4,20 -14.5,61.9 -28.8,99.6 2.9,1.8 5.7,3 8.4,3.8 z"
   id="path114"
   inkscape:connector-curvature="0"
   style="fill:#afd358" /><path
   d="m 521.2,106.70079 c -0.9,6.7 -4.2,29.1 -9.9,56.3 0,0 0,0.1 0,0.1 0,6.8 -0.1,13.7 -0.1,20.5 0.1,1.8 0.2,3.5 0.2,5.3 0,0.3 0,0.6 0,0.9 0.2,0.4 0.3,0.9 0.4,1.5 l 15.9,-81.5 c -2.6,-1 -4.8,-2.1 -6.5,-3.1 z"
   id="path116"
   inkscape:connector-curvature="0"
   style="fill:#afd358" /><path
   d="m 596.5,-79.29921 c 0,0 11.4,-40.3 50.7,-50.8 0,0 -15.4,23.6 -49.5,52.1 0,0 20.6,-24.3 37.1,-41.6 -0.1,0 -24.1,21 -38.3,40.3 z"
   id="path120"
   inkscape:connector-curvature="0"
   style="fill:#5ebb47" /><path
   d="m 598.1,-76.79921 c 0,0 30.2,-29.1 69.4,-18.2 0,0 -25.2,12.6 -69.1,19.9 0,0 30,-10.6 53.1,-17.2 0,0 -31.4,6 -53.4,15.5 z"
   id="path122"
   inkscape:connector-curvature="0"
   style="fill:#5ebb47" /><path
   d="m 598,-74.99921 c 0,0 41.8,-2.9 64.9,30.6 0,0 -27.4,-6.6 -65.7,-29.1 0,0 29.8,11.1 51.7,20.9 -0.1,0 -27.9,-15.5 -50.9,-22.4 z"
   id="path124"
   inkscape:connector-curvature="0"
   style="fill:#5ebb47" /><path
   d="m 523.5,-51.99921 c 0,0 -11.2,-30.7 8.8,-55.3 0,0 1,22 -7.5,55.6 0,0 1.9,-24.8 4.4,-43.3 0.1,0 -5.6,24.3 -5.7,43 z"
   id="path128"
   inkscape:connector-curvature="0"
   style="fill:#5ebb47" /><path
   d="m 525.6,-51.19921 c 0,0 5.8,-32.2 35.6,-43.3 0,0 -10.2,19.5 -34.6,44.2 0,0 14.1,-20.5 25.7,-35.1 0,0 -17.1,18.1 -26.7,34.2 z"
   id="path130"
   inkscape:connector-curvature="0"
   style="fill:#5ebb47" /><path
   d="m 526.4,-49.99921 c 0,0 25.1,-20.9 55.1,-10.3 0,0 -20.3,8.4 -54.9,11.7 0,0 24,-6.6 42.3,-10.4 -0.1,0 -24.8,2.8 -42.5,9 z"
   id="path132"
   inkscape:connector-curvature="0"
   style="fill:#5ebb47" /><path
   d="m 550.9,104.30079 c 0,0 15.3,-54.2 68.1,-68.3 0,0 -20.7,31.7 -66.6,70 0,0 27.6,-32.7 49.9,-56 0,0.1 -32.3,28.3 -51.4,54.3 z"
   id="path136"
   inkscape:connector-curvature="0"
   style="fill:#5ebb47" /><path
   d="m 553.1,107.60079 c 0,0 40.6,-39.1 93.3,-24.5 0,0 -33.9,16.9 -92.8,26.8 0,0 40.4,-14.3 71.3,-23.1 0,0.1 -42.2,8.1 -71.8,20.8 z"
   id="path138"
   inkscape:connector-curvature="0"
   style="fill:#5ebb47" /><path
   d="m 552.9,110.00079 c 0,0 56.2,-3.9 87.3,41.1 0,0 -36.8,-8.8 -88.4,-39.1 0,0 40.1,15 69.5,28.1 0,0.1 -37.5,-20.8 -68.4,-30.1 z"
   id="path140"
   inkscape:connector-curvature="0"
   style="fill:#5ebb47" /><path
   d="m 577.9,10.70079 c 0,0 12,-42.5 53.5,-53.6 0,0 -16.3,24.9 -52.2,55 0,0 21.7,-25.7 39.1,-43.9 -0.1,-0.1 -25.4,22.1 -40.4,42.5 z"
   id="path144"
   inkscape:connector-curvature="0"
   style="fill:#5ebb47" /><path
   d="m 579.6,13.30079 c 0,0 31.9,-30.7 73.2,-19.2 0,0 -26.6,13.3 -72.9,21 0,0 31.7,-11.2 56,-18.1 0,0 -33.1,6.3 -56.3,16.3 z"
   id="path146"
   inkscape:connector-curvature="0"
   style="fill:#5ebb47" /><path
   d="m 579.4,15.20079 c 0,0 44.1,-3 68.5,32.3 0,0 -28.9,-6.9 -69.4,-30.7 0,0 31.5,11.8 54.5,22.1 0.1,0 -29.3,-16.5 -53.6,-23.7 z"
   id="path148"
   inkscape:connector-curvature="0"
   style="fill:#5ebb47" /><path
   style="fill:#5ebb47"
   inkscape:connector-curvature="0"
   id="path152"
   d="m 489.1,-12.49921 c 0,0 7.2,-55.9 -36,-89.5 0,0 6.7,37.3 33.8,90.5 0,0 -12.6,-40.9 -24,-71 0.1,0 18.8,38.6 26.2,70 z" /><path
   style="fill:#5ebb47"
   inkscape:connector-curvature="0"
   id="path154"
   d="m 485.8,-10.19921 c 0,0 -22,-51.8 -76.3,-59.1 0,0 24.6,28.8 74.9,61 0,0 -31.6,-29 -56.6,-49.2 0.1,0 35.7,23.9 58,47.3 z" /><path
   style="fill:#5ebb47"
   inkscape:connector-curvature="0"
   id="path156"
   d="m 485,-7.99921 c 0,0 -50.2,-25.6 -96.4,3.7 0,0 37.4,6.3 96.6,-1.3 0,0 -42.8,-1.9 -75,-1.4 0.1,0 42.7,-4.6 74.8,-1 z" /><path
   d="m 489.7,-116.29921 c 0,0 18.1,2.4 29.2,0 0,0 -6.3,38.7 0,109.6 0,0 -10,6.9 -29.2,2.4 0,0 5.6,-65.5 0,-112 z"
   id="path160"
   inkscape:connector-curvature="0"
   style="fill:#7db241" /><path
   d="m 489.7,-0.69921 c 0,0 15.4,5.4 29.2,-2 0,0 -9.5,62.4 -6.3,104.2 0,0 -13.4,10.3 -31.6,0 0.1,-0.1 11.9,-60.8 8.7,-102.2 z"
   id="path162"
   inkscape:connector-curvature="0"
   style="fill:#7db241" /><path
   d="m 481.1,104.70079 c 0,0 16.6,10.9 31.6,0 0,0 -8.7,75.9 0,116.9 0,0 -15,10.3 -31.6,0 0,0 7.1,-55.6 0,-116.9 z"
   id="path164"
   inkscape:connector-curvature="0"
   style="fill:#7db241" /><path
   d="m 510.9,-115.39921 c -1.3,0.1 -2.6,0.1 -3.9,0.1 -0.3,17.5 -1.3,81.3 1.6,112 2.2,-0.3 4,-0.8 5.5,-1.3 -2.3,-13.1 -5.9,-45.4 -3.2,-110.8 z"
   id="path166"
   inkscape:connector-curvature="0"
   style="fill:#6da041" /><path
   d="m 509.4,0.50079 c -1.7,17.8 -6.6,73.2 -6.6,104.9 2,-0.4 3.7,-0.9 5.1,-1.5 -1,-16.2 -1.1,-48.1 5.5,-104.4 -1.3,0.5 -2.7,0.8 -4,1 z"
   id="path168"
   inkscape:connector-curvature="0"
   style="fill:#6da041" /><path
   d="m 507.5,107.60079 c -1.3,0.6 -2.7,1 -4,1.3 -1.2,19.1 -5.2,89.1 -2.7,117 2.3,-0.3 4.3,-0.9 6,-1.5 -1.7,-8.8 -5.8,-40.6 0.7,-116.8 z"
   id="path170"
   inkscape:connector-curvature="0"
   style="fill:#6da041" /><path
   d="m 502.7,-2.79921 -2.6,-112.7 c -2.6,-0.1 -5,-0.3 -6.8,-0.5 1,13.8 4.3,65.2 0.2,112.4 3.4,0.7 6.5,0.9 9.2,0.8 z"
   id="path172"
   inkscape:connector-curvature="0"
   style="fill:#afd358" /><path
   d="m 494.9,105.90079 6,-104.7 c -2.4,-0.1 -4.6,-0.4 -6.4,-0.7 -0.4,20.5 -2,63.6 -8.6,103.3 3.3,1.2 6.3,1.8 9,2.1 z"
   id="path174"
   inkscape:connector-curvature="0"
   style="fill:#afd358" /><path
   d="m 494.7,226.10079 -0.7,-116.9 c -2.6,-0.3 -4.9,-1 -6.9,-1.7 0.7,11.2 3.6,66.5 -1.8,116.3 3.3,1.4 6.5,2.1 9.4,2.3 z"
   id="path176"
   inkscape:connector-curvature="0"
   style="fill:#afd358" /><path
   style="fill:#5ebb47"
   inkscape:connector-curvature="0"
   id="path178"
   d="m 477.9,98.00079 c 0,0 7.2,-55.9 -36,-89.5 0,0 6.7,37.3 33.8,90.5 0,0 -12.6,-40.9 -24,-71 0.1,0 18.8,38.6 26.2,70 z" /><path
   style="fill:#5ebb47"
   inkscape:connector-curvature="0"
   id="path180"
   d="m 474.6,100.20079 c 0,0 -22,-51.8 -76.3,-59.1 0,0 24.6,28.8 74.9,61 0,0 -31.6,-29 -56.6,-49.2 0.1,0.1 35.7,23.9 58,47.3 z" /><path
   style="fill:#5ebb47"
   inkscape:connector-curvature="0"
   id="path182"
   d="m 473.8,102.50079 c 0,0 -50.2,-25.6 -96.4,3.7 0,0 37.4,6.3 96.6,-1.3 0,0 -42.8,-1.9 -75,-1.4 0,0 42.7,-4.6 74.8,-1 z" /><path
   style="fill:#7db241"
   inkscape:connector-curvature="0"
   id="path190"
   d="m 951.2,-111.49921 c 0,0 17.3,5.9 28.6,5.8 0,0 -13.8,36.7 -21.6,107.5 0,0 -11.2,4.8 -29.1,-3.4 0,-0.1 18.3,-63.2 22.1,-109.9 z" /><path
   style="fill:#7db241"
   inkscape:connector-curvature="0"
   id="path192"
   d="m 928.4,1.80079 c 0,0 14,8.3 29,3.8 0,0 -21.6,59.3 -26.7,100.9 0,0 -15.2,7.4 -30.9,-6.2 -0.1,-0.1 23.5,-57.3 28.6,-98.5 z" /><path
   style="fill:#7db241"
   inkscape:connector-curvature="0"
   id="path194"
   d="m 930,109.60079 c -16.8,7.7 -30.9,-6.2 -30.9,-6.2 -1.3,15.3 -3.3,30 -5.7,43.5 -0.2,12 -0.9,23.9 -1,35.9 1.2,8.8 1.4,17.7 1.4,26.5 0.1,0.8 0.2,1.5 0.4,2.3 0.9,4.8 1.9,9.6 2.3,14.5 6.2,0 10.6,-1.9 10.6,-1.9 -0.5,-41.9 22.9,-114.6 22.9,-114.6 z" /><path
   style="fill:#6da041"
   inkscape:connector-curvature="0"
   id="path196"
   d="m 971.8,-106.39921 c -1.3,-0.2 -2.6,-0.4 -3.8,-0.7 -3.8,17.1 -17.3,79.4 -20.5,110.1 2.2,0.1 4.1,0 5.7,-0.2 0.2,-13.3 3,-45.7 18.6,-109.2 z" /><path
   style="fill:#6da041"
   inkscape:connector-curvature="0"
   id="path198"
   d="m 947.4,6.90079 c -5.1,17.1 -20.9,70.5 -27.2,101.5 2,0 3.8,-0.2 5.3,-0.5 2.2,-16.1 8.4,-47.4 25.9,-101.2 -1.3,0.2 -2.6,0.3 -4,0.2 z" /><path
   style="fill:#6da041"
   inkscape:connector-curvature="0"
   id="path200"
   d="m 920.3,111.90079 c -4.5,17.1 -20,76.3 -24.7,107.2 0.4,2.3 0.7,4.7 0.9,7.1 1.6,0 3,-0.1 4.3,-0.3 0.1,-8.9 2.3,-40.9 23.7,-114.4 -1.5,0.3 -2.9,0.4 -4.2,0.4 z" /><path
   style="fill:#afd358"
   inkscape:connector-curvature="0"
   id="path202"
   d="m 941.5,2.40079 19.7,-110.9 c -2.6,-0.7 -4.8,-1.3 -6.6,-1.8 -1.7,13.7 -8.6,64.7 -21.9,110.2 3.2,1.2 6.1,2 8.8,2.5 z" /><path
   style="fill:#afd358"
   inkscape:connector-curvature="0"
   id="path204"
   d="m 912.5,107.30079 26.5,-101.5 c -2.4,-0.6 -4.4,-1.3 -6.1,-1.9 -4.4,20 -14.5,61.9 -28.8,99.6 2.9,1.9 5.7,3.1 8.4,3.8 z" /><path
   style="fill:#afd358"
   inkscape:connector-curvature="0"
   id="path206"
   d="m 893.7,198.90079 17.2,-88.5 c -2.5,-0.8 -4.6,-1.9 -6.4,-3 -1,7.4 -4.9,34.1 -11.9,65.2 -0.1,3.4 -0.2,6.9 -0.2,10.3 0.8,5.3 1.1,10.6 1.3,16 z" /><path
   style="fill:#5ebb47"
   inkscape:connector-curvature="0"
   id="path210"
   d="m 979.8,-78.49921 c 0,0 11.4,-40.3 50.7,-50.8 0,0 -15.4,23.6 -49.5,52.1 0,0 20.6,-24.3 37.1,-41.6 -0.1,0 -24.1,20.9 -38.3,40.3 z" /><path
   style="fill:#5ebb47"
   inkscape:connector-curvature="0"
   id="path212"
   d="m 981.4,-75.99921 c 0,0 30.2,-29.1 69.4,-18.2 0,0 -25.2,12.6 -69.1,19.9 0,0 30,-10.6 53.1,-17.2 0,0 -31.4,6 -53.4,15.5 z" /><path
   style="fill:#5ebb47"
   inkscape:connector-curvature="0"
   id="path214"
   d="m 981.3,-74.29921 c 0,0 41.8,-2.9 64.9,30.6 0,0 -27.4,-6.6 -65.7,-29.1 0,0 29.8,11.1 51.7,20.9 -0.1,0.1 -27.9,-15.5 -50.9,-22.4 z" /><path
   style="fill:#5ebb47"
   inkscape:connector-curvature="0"
   id="path218"
   d="m 934.2,105.10079 c 0,0 15.3,-54.2 68.1,-68.3 0,0 -20.7,31.7 -66.6,70 0,0 27.6,-32.7 49.9,-56 0.1,0.1 -32.3,28.2 -51.4,54.3 z" /><path
   style="fill:#5ebb47"
   inkscape:connector-curvature="0"
   id="path220"
   d="m 936.4,108.40079 c 0,0 40.6,-39.1 93.3,-24.5 0,0 -33.9,16.9 -92.8,26.8 0,0 40.4,-14.3 71.3,-23.1 0,0 -42.2,8 -71.8,20.8 z" /><path
   style="fill:#5ebb47"
   inkscape:connector-curvature="0"
   id="path222"
   d="m 936.2,110.80079 c 0,0 56.2,-3.9 87.3,41.1 0,0 -36.8,-8.8 -88.4,-39.1 0,0 40.1,15 69.5,28.1 0,0.1 -37.4,-20.9 -68.4,-30.1 z" /><path
   style="fill:#5ebb47"
   inkscape:connector-curvature="0"
   id="path226"
   d="m 961.2,11.50079 c 0,0 12,-42.5 53.5,-53.6 0,0 -16.3,24.9 -52.2,55 0,0 21.7,-25.7 39.1,-43.9 0,-0.1 -25.4,22 -40.4,42.5 z" /><path
   style="fill:#5ebb47"
   inkscape:connector-curvature="0"
   id="path228"
   d="m 962.9,14.10079 c 0,0 31.9,-30.7 73.2,-19.2 0,0 -26.6,13.3 -72.9,21 0,0 31.7,-11.2 56,-18.1 0,-0.1 -33.1,6.2 -56.3,16.3 z" /><path
   style="fill:#5ebb47"
   inkscape:connector-curvature="0"
   id="path230"
   d="m 962.8,15.90079 c 0,0 44.1,-3 68.5,32.3 0,0 -28.9,-6.9 -69.4,-30.7 0,0 31.5,11.8 54.5,22.1 0,0 -29.4,-16.4 -53.6,-23.7 z" /><path
   style="fill:#5ebb47"
   inkscape:connector-curvature="0"
   id="path236"
   d="m 794.2,-1.19921 c 0,0 -8.6,-55.7 -59.3,-76.1 0,0 16.7,34 57.6,77.6 0,0 -23.5,-35.8 -42.7,-61.6 -0.1,0.1 28.5,32 44.4,60.1 z" /><path
   style="fill:#5ebb47"
   inkscape:connector-curvature="0"
   id="path238"
   d="m 791.6,1.90079 c 0,0 -35.5,-43.7 -89.6,-35.7 0,0 31.6,20.9 88.9,37.9 0,0 -38.3,-19.1 -68,-31.6 0,0 40.8,13.1 68.7,29.4 z" /><path
   style="fill:#5ebb47"
   inkscape:connector-curvature="0"
   id="path240"
   d="m 791.5,4.30079 c 0,0 -55.3,-10.7 -91.6,30.2 0,0 37.6,-4.3 92.5,-28 0,0 -41.6,10 -72.4,19.5 -0.1,-0.1 39.6,-16.3 71.5,-21.7 z" /><path
   d="m 766,-101.09921 c 0,0 18.1,-2.8 28,-8.1 0,0 4.6,38.9 30.4,105.4 0,0 -7.7,9.4 -27.4,10.4 0.1,-0.1 -12.8,-64.5 -31,-107.7 z"
   id="path244"
   inkscape:connector-curvature="0"
   style="fill:#7db241" /><path
   d="m 798,9.90079 c 0,0 16.3,0.9 27.5,-10 0,0 8.2,62.5 22.8,101.8 0,0 -10,13.6 -30.3,8.7 0,0.1 -5.4,-61.6 -20,-100.5 z"
   id="path246"
   inkscape:connector-curvature="0"
   style="fill:#7db241" /><path
   d="m 863.8,169.30079 c -9.2,-32.5 -14.6,-64.5 -14.6,-64.5 -11.4,14.6 -30.3,8.7 -30.3,8.7 23.8,57 32.4,112.3 32.4,112.3 3,0.8 5.8,1.2 8.4,1.2 0.6,-19.1 6.1,-38.4 4.1,-57.7 z"
   id="path248"
   inkscape:connector-curvature="0"
   style="fill:#7db241" /><path
   d="m 786.7,-106.09921 c -1.2,0.4 -2.5,0.8 -3.7,1.2 4.5,16.9 21.2,78.5 32.6,107.2 2,-0.9 3.6,-1.9 4.9,-2.8 -5.9,-12 -18.4,-42.1 -33.8,-105.6 z"
   id="path250"
   inkscape:connector-curvature="0"
   style="fill:#6da041" /><path
   d="m 817.3,5.70079 c 3.3,17.6 14,72.1 22.7,102.6 1.8,-0.9 3.3,-1.9 4.5,-2.9 -5.5,-15.3 -14.4,-45.9 -23.7,-101.8 -1.1,0.8 -2.3,1.5 -3.5,2.1 z"
   id="path252"
   inkscape:connector-curvature="0"
   style="fill:#6da041" /><path
   d="m 863.9,186.80079 c -5.4,-17.6 -11.9,-42.7 -18.8,-77.8 -1.1,0.9 -2.3,1.7 -3.5,2.3 3.1,13.9 12.5,55.1 21.2,86.1 0.5,-3.5 0.8,-7 1.1,-10.6 z"
   id="path254"
   inkscape:connector-curvature="0"
   style="fill:#6da041" /><path
   d="m 809.9,4.40079 -33.6,-107.6 c -2.6,0.6 -4.9,1.1 -6.7,1.4 4.8,13 22.2,61.4 31.4,107.9 3.4,-0.3 6.3,-1 8.9,-1.7 z"
   id="path256"
   inkscape:connector-curvature="0"
   style="fill:#afd358" /><path
   d="m 832.6,110.90079 -23.3,-102.3 c -2.4,0.6 -4.5,0.9 -6.3,1.1 5.3,19.8 15.7,61.6 20.4,101.6 3.4,0.4 6.5,0.2 9.2,-0.4 z"
   id="path258"
   inkscape:connector-curvature="0"
   style="fill:#afd358" /><path
   d="m 861.1,211.00079 -28.5,-96.6 c -2.6,0.4 -5,0.4 -7.1,0.3 3.8,10.6 21.9,62.9 30.5,112.2 1.3,0.2 2.5,0.2 3.7,0.2 0.2,-5.4 0.7,-10.7 1.4,-16.1 z"
   id="path260"
   inkscape:connector-curvature="0"
   style="fill:#afd358" /><path
   style="fill:#5ebb47"
   inkscape:connector-curvature="0"
   id="path262"
   d="m 814,108.10079 c 0,0 -8.6,-55.7 -59.3,-76.1 0,0 16.7,34 57.6,77.6 0,0 -23.5,-35.8 -42.7,-61.6 -0.1,0 28.6,31.9 44.4,60.1 z" /><path
   style="fill:#5ebb47"
   inkscape:connector-curvature="0"
   id="path264"
   d="m 811.4,111.10079 c 0,0 -35.5,-43.7 -89.6,-35.7 0,0 31.6,20.9 88.9,37.9 0,0 -38.3,-19.1 -68,-31.6 0,0.1 40.9,13.1 68.7,29.4 z" /><path
   style="fill:#5ebb47"
   inkscape:connector-curvature="0"
   id="path266"
   d="m 811.3,113.50079 c 0,0 -55.3,-10.7 -91.6,30.2 0,0 37.6,-4.3 92.5,-28 0,0 -41.6,10 -72.4,19.5 0,0 39.7,-16.3 71.5,-21.7 z" /><path
   style="fill:#5ebb47"
   inkscape:connector-curvature="0"
   id="path272"
   d="m 873.8,-9.49921 c 0,0 6.4,-44.6 -27.6,-72.1 0,0 4.9,29.9 25.9,72.8 0,0 -9.6,-32.9 -18.3,-57.1 0,0 14.4,31.1 20,56.4 z" /><path
   style="fill:#5ebb47"
   inkscape:connector-curvature="0"
   id="path274"
   d="m 871.1,-7.79921 c 0,0 -17,-41.7 -60.2,-48.2 0,0 19.3,23.4 59.1,49.8 0,0 -24.9,-23.6 -44.6,-40.1 0,0 28.2,19.5 45.7,38.5 z" /><path
   style="fill:#5ebb47"
   inkscape:connector-curvature="0"
   id="path276"
   d="m 870.4,-5.99921 c 0,0 -39.8,-21.1 -77.2,1.7 0,0 29.8,5.5 77.3,0.2 0,0 -34.2,-2.1 -59.9,-2 0,-0.1 34.2,-3.2 59.8,0.1 z" /><path
   d="m 875.9,-115.29921 c 0,0 18.1,2.7 29.2,0.5 0,0 -6.9,38.5 -1.7,109.6 0,0 -10.1,6.7 -29.2,1.9 -0.1,0 6.5,-65.3 1.7,-112 z"
   id="path280"
   inkscape:connector-curvature="0"
   style="fill:#7db241" /><path
   d="m 874.1,0.30079 c 0,0 15.3,5.7 29.2,-1.6 0,0 -10.4,62.2 -8,104.1 0,0 -13.6,10 -31.5,-0.5 0,0 12.8,-60.6 10.3,-102 z"
   id="path282"
   inkscape:connector-curvature="0"
   style="fill:#7db241" /><path
   d="m 863.8,105.50079 c 0,0 16.4,11.1 31.5,0.5 0,0 -9.9,75.8 -1.8,116.9 0,0 -15.1,10 -31.5,-0.5 -0.1,0 7.9,-55.4 1.8,-116.9 z"
   id="path284"
   inkscape:connector-curvature="0"
   style="fill:#7db241" /><path
   d="m 897.1,-113.99921 c -1.3,0 -2.6,0.1 -3.9,0 -0.6,17.5 -2.6,81.3 -0.2,112 2.2,-0.3 4,-0.7 5.5,-1.2 -2,-13.2 -5.2,-45.5 -1.4,-110.8 z"
   id="path286"
   inkscape:connector-curvature="0"
   style="fill:#6da041" /><path
   d="m 893.7,1.90079 c -1.9,17.8 -7.7,73.1 -8.3,104.8 2,-0.4 3.7,-0.9 5.2,-1.4 -0.8,-16.2 -0.3,-48.1 7.1,-104.3 -1.3,0.3 -2.6,0.6 -4,0.9 z"
   id="path288"
   inkscape:connector-curvature="0"
   style="fill:#6da041" /><path
   d="m 890.1,108.80079 c -1.3,0.5 -2.7,0.9 -4,1.2 -1.5,19.1 -6.6,89 -4.5,116.9 2.3,-0.3 4.3,-0.8 6,-1.4 -1.5,-8.6 -5.2,-40.5 2.5,-116.7 z"
   id="path290"
   inkscape:connector-curvature="0"
   style="fill:#6da041" /><path
   d="m 887.1,-1.49921 -0.8,-112.7 c -2.6,-0.2 -5,-0.4 -6.8,-0.6 0.8,13.8 3.3,65.2 -1.5,112.4 3.3,0.6 6.4,0.8 9.1,0.9 z"
   id="path292"
   inkscape:connector-curvature="0"
   style="fill:#afd358" /><path
   d="m 877.6,107.00079 7.6,-104.6 c -2.4,-0.1 -4.6,-0.4 -6.4,-0.8 -0.7,20.5 -3,63.5 -10.2,103.2 3.2,1.2 6.2,1.9 9,2.2 z"
   id="path294"
   inkscape:connector-curvature="0"
   style="fill:#afd358" /><path
   d="m 875.5,227.10079 1.1,-116.8 c -2.6,-0.4 -4.9,-1.1 -6.9,-1.8 0.5,11.2 2.5,66.5 -3.6,116.2 3.3,1.5 6.4,2.2 9.4,2.4 z"
   id="path296"
   inkscape:connector-curvature="0"
   style="fill:#afd358" /><path
   style="fill:#5ebb47"
   inkscape:connector-curvature="0"
   id="path298"
   d="m 860.7,98.80079 c 0,0 8,-55.8 -34.5,-90.1 0,0 6.1,37.4 32.4,91 0,0 -12,-41.1 -22.9,-71.4 0,0.1 18,39 25,70.5 z" /><path
   style="fill:#5ebb47"
   inkscape:connector-curvature="0"
   id="path300"
   d="m 857.3,101.00079 c 0,0 -21.2,-52.2 -75.3,-60.3 0,0 24.1,29.2 73.9,62.2 0,0 -31.1,-29.4 -55.8,-50.1 0.1,0 35.3,24.5 57.2,48.2 z" /><path
   style="fill:#5ebb47"
   inkscape:connector-curvature="0"
   id="path302"
   d="m 856.5,103.20079 c 0,0 -49.8,-26.4 -96.5,2.2 0,0 37.3,6.9 96.6,0.2 0,0 -42.8,-2.6 -74.9,-2.5 0.1,-0.1 42.8,-4 74.8,0.1 z" /><path
   d="m 560.6,285.90079 c 0,0 -8.2,14.9 -2.1,30.1 0,0 -38.7,-6.3 -109.6,0 0,0 -6.9,-10 -2.4,-29.2 -0.1,0 67.6,4.6 114.1,-0.9 z"
   id="path310"
   inkscape:connector-curvature="0"
   style="fill:#7db241" /><path
   d="m 442.9,286.80079 c 0,0 -5.4,15.4 2,29.2 0,0 -62.4,-9.5 -104.2,-6.3 0,0 -10.3,-13.4 0,-31.6 0,0 60.8,11.9 102.2,8.7 z"
   id="path312"
   inkscape:connector-curvature="0"
   style="fill:#7db241" /><path
   d="m 337.5,278.10079 c 0,0 -10.9,16.6 0,31.6 0,0 -75.9,-8.7 -116.9,0 0,0 -10.3,-15 0,-31.6 0,0 55.6,7.1 116.9,0 z"
   id="path314"
   inkscape:connector-curvature="0"
   style="fill:#7db241" /><path
   d="m 556.5,308.00079 c -0.2,-1.3 -0.2,-2.6 -0.2,-3.9 -19,-0.4 -80.8,-1.3 -110.8,1.6 0.1,0.5 0.2,1 0.3,1.5 0,0 0,0.1 0,0.1 0.1,0.5 0.2,0.9 0.3,1.4 0,0 0,0 0,0 0.1,0.4 0.2,0.9 0.3,1.2 0,0 0,0.1 0,0.1 0.1,0.4 0.2,0.8 0.4,1.2 13,-2.3 45.1,-5.9 109.7,-3.2 z"
   id="path316"
   inkscape:connector-curvature="0"
   style="fill:#6da041" /><path
   d="m 441.6,306.50079 c -17.8,-1.7 -73.2,-6.6 -104.9,-6.6 0.4,2 0.9,3.7 1.5,5.1 16.2,-1 48.1,-1.1 104.4,5.5 -0.4,-1.4 -0.7,-2.7 -1,-4 z"
   id="path318"
   inkscape:connector-curvature="0"
   style="fill:#6da041" /><path
   d="m 334.6,304.50079 c -0.6,-1.3 -1,-2.7 -1.3,-4 -19.1,-1.2 -89.1,-5.2 -117,-2.7 0.3,2.3 0.9,4.3 1.5,6 8.7,-1.6 40.5,-5.8 116.8,0.7 z"
   id="path320"
   inkscape:connector-curvature="0"
   style="fill:#6da041" /><path
   d="m 445.6,290.80079 c -0.5,3.3 -0.7,6.2 -0.7,8.9 l 111.9,-2.4 c 0.5,-2.6 1.1,-4.9 1.8,-6.7 -16.5,1.1 -66.3,3.8 -113,0.2 z"
   id="path322"
   inkscape:connector-curvature="0"
   style="fill:#afd358" /><path
   d="m 902.3,292.60079 c 0,0 -8.2,14.9 -2.1,30.1 0,0 -38.7,-6.3 -109.6,0 0,0 -6.9,-10 -2.4,-29.2 0,0.1 67.6,4.6 114.1,-0.9 z"
   id="path324"
   inkscape:connector-curvature="0"
   style="fill:#7db241" /><path
   d="m 898.2,314.70079 c -0.2,-1.3 -0.2,-2.6 -0.2,-3.9 -19,-0.4 -80.8,-1.3 -110.8,1.6 0.1,0.5 0.2,1 0.3,1.5 0,0 0,0.1 0,0.1 0.1,0.5 0.2,0.9 0.3,1.4 0,0 0,0 0,0 0.1,0.4 0.2,0.9 0.3,1.2 0,0 0,0.1 0,0.1 0.1,0.4 0.2,0.8 0.4,1.2 13.1,-2.2 45.1,-5.9 109.7,-3.2 z"
   id="path326"
   inkscape:connector-curvature="0"
   style="fill:#6da041" /><path
   d="m 787.4,297.60079 c -0.5,3.3 -0.7,6.2 -0.7,8.9 l 111.9,-2.4 c 0.5,-2.6 1.1,-4.9 1.8,-6.7 -16.5,1 -66.4,3.8 -113,0.2 z"
   id="path328"
   inkscape:connector-curvature="0"
   style="fill:#afd358" /><path
   d="m 336.3,292.00079 104.7,6 c 0.1,-2.4 0.4,-4.6 0.7,-6.4 -20.5,-0.4 -63.6,-2 -103.3,-8.6 -1.2,3.2 -1.9,6.2 -2.1,9 z"
   id="path330"
   inkscape:connector-curvature="0"
   style="fill:#afd358" /><path
   d="m 786,293.70079 c 0,0 -5.4,15.4 2,29.2 0,0 -62.4,-9.5 -104.2,-6.3 0,0 -10.3,-13.4 0,-31.6 0.1,0 60.8,11.9 102.2,8.7 z"
   id="path332"
   inkscape:connector-curvature="0"
   style="fill:#7db241" /><path
   d="m 784.8,313.40079 c -17.8,-1.7 -73.2,-6.6 -104.9,-6.6 0.4,2 0.9,3.7 1.5,5.1 16.2,-1 48.1,-1.1 104.4,5.5 -0.5,-1.4 -0.8,-2.7 -1,-4 z"
   id="path334"
   inkscape:connector-curvature="0"
   style="fill:#6da041" /><path
   d="m 679.4,298.90079 104.7,6 c 0.1,-2.4 0.4,-4.6 0.7,-6.4 -20.5,-0.4 -63.6,-2 -103.3,-8.6 -1.2,3.2 -1.8,6.2 -2.1,9 z"
   id="path336"
   inkscape:connector-curvature="0"
   style="fill:#afd358" /><path
   d="m 216.1,291.80079 116.8,-0.7 c 0.3,-2.6 1,-4.9 1.7,-6.9 -11.2,0.7 -66.5,3.6 -116.3,-1.8 -1.3,3.3 -2,6.4 -2.2,9.4 z"
   id="path338"
   inkscape:connector-curvature="0"
   style="fill:#afd358" /><path
   d="m 681.1,285.00079 c 0,0 -10.9,16.6 0,31.6 0,0 -75.9,-8.7 -116.9,0 0,0 -10.3,-15 0,-31.6 0,0 55.5,7.1 116.9,0 z"
   id="path340"
   inkscape:connector-curvature="0"
   style="fill:#7db241" /><path
   d="m 678.2,311.40079 c -0.6,-1.3 -1,-2.7 -1.3,-4 -19.1,-1.2 -89.1,-5.2 -117,-2.7 0.3,2.3 0.9,4.3 1.5,6 8.7,-1.6 40.5,-5.8 116.8,0.7 z"
   id="path342"
   inkscape:connector-curvature="0"
   style="fill:#6da041" /><path
   d="m 559.7,298.70079 116.8,-0.7 c 0.3,-2.6 1,-4.9 1.7,-6.9 -11.2,0.7 -66.5,3.6 -116.3,-1.8 -1.3,3.3 -2,6.4 -2.2,9.4 z"
   id="path344"
   inkscape:connector-curvature="0"
   style="fill:#afd358" /><path
   d="m 217.6,278.10079 c 0,0 -10.9,16.6 0,31.6 0,0 -75.9,-8.7 -116.9,0 0,0 -10.3,-15 0,-31.6 0,0 55.5,7.1 116.9,0 z"
   id="path346"
   inkscape:connector-curvature="0"
   style="fill:#7db241" /><path
   d="m 214.7,304.50079 c -0.6,-1.3 -1,-2.7 -1.3,-4 -19.1,-1.2 -89.1,-5.2 -117,-2.7 0.3,2.3 0.9,4.3 1.5,6 8.7,-1.6 40.5,-5.8 116.8,0.7 z"
   id="path348"
   inkscape:connector-curvature="0"
   style="fill:#6da041" /><path
   d="m 96.2,291.80079 116.8,-0.7 c 0.3,-2.6 1,-4.9 1.7,-6.9 -11.2,0.7 -66.5,3.6 -116.3,-1.8 -1.3,3.3 -2,6.4 -2.2,9.4 z"
   id="path350"
   inkscape:connector-curvature="0"
   style="fill:#afd358" /><path
   d="m 1021.9,291.90079 c 0,0 -10.9,16.6 0,31.6 0,0 -75.9,-8.7 -116.9,0 0,0 -10.3,-15 0,-31.6 -0.1,0 55.5,7.1 116.9,0 z"
   id="path352"
   inkscape:connector-curvature="0"
   style="fill:#7db241" /><path
   d="m 1018.9,318.30079 c -0.6,-1.3 -1,-2.7 -1.3,-4 -19.1,-1.2 -89.1,-5.2 -117,-2.7 0.3,2.3 0.9,4.3 1.5,6 8.8,-1.6 40.6,-5.8 116.8,0.7 z"
   id="path354"
   inkscape:connector-curvature="0"
   style="fill:#6da041" /><path
   d="m 900.4,305.50079 116.8,-0.7 c 0.3,-2.6 1,-4.9 1.7,-6.9 -11.2,0.7 -66.5,3.6 -116.3,-1.8 -1.3,3.3 -2,6.5 -2.2,9.4 z"
   id="path356"
   inkscape:connector-curvature="0"
   style="fill:#afd358" /><path
   d="m 583.4,250.40079 c 0,0 -8.2,14.9 -2.1,30.1 0,0 -38.7,-6.3 -109.6,0 0,0 -6.9,-10 -2.4,-29.2 0,0.1 67.6,4.6 114.1,-0.9 z"
   id="path360"
   inkscape:connector-curvature="0"
   style="fill:#7db241" /><path
   d="m 465.7,251.40079 c 0,0 -5.4,15.4 2,29.2 0,0 -62.4,-9.5 -104.2,-6.3 0,0 -10.3,-13.4 0,-31.6 0.1,0 60.8,11.8 102.2,8.7 z"
   id="path362"
   inkscape:connector-curvature="0"
   style="fill:#7db241" /><path
   d="m 360.3,242.70079 c 0,0 -10.9,16.6 0,31.6 0,0 -75.9,-8.7 -116.9,0 0,0 -10.3,-15 0,-31.6 0,0 55.6,7.1 116.9,0 z"
   id="path364"
   inkscape:connector-curvature="0"
   style="fill:#7db241" /><path
   d="m 579.3,272.50079 c -0.2,-1.3 -0.2,-2.6 -0.2,-3.9 -19,-0.4 -80.8,-1.3 -110.8,1.6 0.1,0.5 0.2,1 0.3,1.5 0,0 0,0.1 0,0.1 0.1,0.5 0.2,0.9 0.3,1.4 0,0 0,0 0,0 0.1,0.4 0.2,0.9 0.3,1.2 0,0 0,0.1 0,0.1 0.1,0.4 0.2,0.8 0.4,1.2 13,-2.2 45.1,-5.9 109.7,-3.2 z"
   id="path366"
   inkscape:connector-curvature="0"
   style="fill:#6da041" /><path
   d="m 464.4,271.00079 c -17.8,-1.7 -73.2,-6.6 -104.9,-6.6 0.4,2 0.9,3.7 1.5,5.1 16.2,-1 48.1,-1.1 104.4,5.5 -0.4,-1.3 -0.7,-2.7 -1,-4 z"
   id="path368"
   inkscape:connector-curvature="0"
   style="fill:#6da041" /><path
   d="m 357.4,269.10079 c -0.6,-1.3 -1,-2.7 -1.3,-4 -19.1,-1.2 -89.1,-5.2 -117,-2.7 0.3,2.3 0.9,4.3 1.5,6 8.8,-1.6 40.5,-5.8 116.8,0.7 z"
   id="path370"
   inkscape:connector-curvature="0"
   style="fill:#6da041" /><path
   d="m 468.5,255.40079 c -0.5,3.3 -0.7,6.2 -0.7,8.9 l 111.9,-2.4 c 0.5,-2.6 1.1,-4.9 1.8,-6.7 -16.5,1 -66.4,3.8 -113,0.2 z"
   id="path372"
   inkscape:connector-curvature="0"
   style="fill:#afd358" /><path
   d="m 925.2,257.20079 c 0,0 -8.2,14.9 -2.1,30.1 0,0 -38.7,-6.3 -109.6,0 0,0 -6.9,-10 -2.4,-29.2 -0.1,0 67.5,4.6 114.1,-0.9 z"
   id="path374"
   inkscape:connector-curvature="0"
   style="fill:#7db241" /><path
   d="m 921,279.30079 c -0.2,-1.3 -0.2,-2.6 -0.2,-3.9 -19,-0.4 -80.8,-1.3 -110.8,1.6 0.1,0.5 0.2,1 0.3,1.5 0,0 0,0.1 0,0.1 0.1,0.5 0.2,0.9 0.3,1.4 0,0 0,0 0,0 0.1,0.4 0.2,0.9 0.3,1.2 0,0 0,0.1 0,0.1 0.1,0.4 0.2,0.8 0.4,1.2 13.1,-2.3 45.1,-5.9 109.7,-3.2 z"
   id="path376"
   inkscape:connector-curvature="0"
   style="fill:#6da041" /><path
   d="m 810.2,262.10079 c -0.5,3.3 -0.7,6.2 -0.7,8.9 l 111.9,-2.4 c 0.5,-2.6 1.1,-4.9 1.8,-6.7 -16.5,1 -66.3,3.8 -113,0.2 z"
   id="path378"
   inkscape:connector-curvature="0"
   style="fill:#afd358" /><path
   d="m 359.1,256.50079 104.7,6 c 0.1,-2.4 0.4,-4.6 0.7,-6.4 -20.5,-0.4 -63.6,-2 -103.3,-8.6 -1.2,3.3 -1.9,6.3 -2.1,9 z"
   id="path380"
   inkscape:connector-curvature="0"
   style="fill:#afd358" /><path
   d="m 808.9,258.20079 c 0,0 -5.4,15.4 2,29.2 0,0 -62.4,-9.5 -104.2,-6.3 0,0 -10.3,-13.4 0,-31.6 0,0.1 60.8,11.9 102.2,8.7 z"
   id="path382"
   inkscape:connector-curvature="0"
   style="fill:#7db241" /><path
   d="m 807.6,277.90079 c -17.8,-1.7 -73.2,-6.6 -104.9,-6.6 0.4,2 0.9,3.7 1.5,5.1 16.2,-1 48.1,-1.1 104.4,5.5 -0.5,-1.3 -0.8,-2.7 -1,-4 z"
   id="path384"
   inkscape:connector-curvature="0"
   style="fill:#6da041" /><path
   d="m 702.3,263.40079 104.7,6 c 0.1,-2.4 0.4,-4.6 0.7,-6.4 -20.5,-0.4 -63.6,-2 -103.3,-8.6 -1.3,3.3 -1.9,6.3 -2.1,9 z"
   id="path386"
   inkscape:connector-curvature="0"
   style="fill:#afd358" /><path
   d="m 238.9,256.30079 116.8,-0.7 c 0.3,-2.6 1,-4.9 1.7,-6.9 -11.2,0.7 -66.5,3.6 -116.3,-1.8 -1.3,3.3 -2,6.5 -2.2,9.4 z"
   id="path388"
   inkscape:connector-curvature="0"
   style="fill:#afd358" /><path
   d="m 703.9,249.60079 c 0,0 -10.9,16.6 0,31.6 0,0 -75.9,-8.7 -116.9,0 0,0 -10.3,-15 0,-31.6 0,0 55.6,7.1 116.9,0 z"
   id="path390"
   inkscape:connector-curvature="0"
   style="fill:#7db241" /><path
   d="m 701,276.00079 c -0.6,-1.3 -1,-2.7 -1.3,-4 -19.1,-1.2 -89.1,-5.2 -117,-2.7 0.3,2.3 0.9,4.3 1.5,6 8.7,-1.7 40.5,-5.8 116.8,0.7 z"
   id="path392"
   inkscape:connector-curvature="0"
   style="fill:#6da041" /><path
   d="m 582.5,263.20079 116.8,-0.7 c 0.3,-2.6 1,-4.9 1.7,-6.9 -11.2,0.7 -66.5,3.6 -116.3,-1.8 -1.3,3.3 -2,6.5 -2.2,9.4 z"
   id="path394"
   inkscape:connector-curvature="0"
   style="fill:#afd358" /><path
   d="m 240.4,242.70079 c 0,0 -10.9,16.6 0,31.6 0,0 -75.9,-8.7 -116.9,0 0,0 -10.3,-15 0,-31.6 0,0 55.6,7.1 116.9,0 z"
   id="path396"
   inkscape:connector-curvature="0"
   style="fill:#7db241" /><path
   d="m 237.5,269.10079 c -0.6,-1.3 -1,-2.7 -1.3,-4 -19.1,-1.2 -89.1,-5.2 -117,-2.7 0.3,2.3 0.9,4.3 1.5,6 8.7,-1.6 40.5,-5.8 116.8,0.7 z"
   id="path398"
   inkscape:connector-curvature="0"
   style="fill:#6da041" /><path
   d="m 119,256.30079 116.8,-0.7 c 0.3,-2.6 1,-4.9 1.7,-6.9 -11.2,0.7 -66.5,3.6 -116.3,-1.8 -1.3,3.3 -2,6.5 -2.2,9.4 z"
   id="path400"
   inkscape:connector-curvature="0"
   style="fill:#afd358" /><path
   d="m 1044.7,256.50079 c 0,0 -10.9,16.6 0,31.6 0,0 -75.9,-8.7 -116.9,0 0,0 -10.3,-15 0,-31.6 0,0 55.5,7 116.9,0 z"
   id="path402"
   inkscape:connector-curvature="0"
   style="fill:#7db241" /><path
   d="m 1041.8,282.80079 c -0.6,-1.3 -1,-2.7 -1.3,-4 -19.1,-1.2 -89.1,-5.2 -117,-2.7 0.3,2.3 0.9,4.3 1.5,6 8.7,-1.6 40.5,-5.7 116.8,0.7 z"
   id="path404"
   inkscape:connector-curvature="0"
   style="fill:#6da041" /><path
   d="m 923.3,270.10079 116.8,-0.7 c 0.3,-2.6 1,-4.9 1.7,-6.9 -11.2,0.7 -66.5,3.6 -116.3,-1.8 -1.4,3.3 -2,6.4 -2.2,9.4 z"
   id="path406"
   inkscape:connector-curvature="0"
   style="fill:#afd358" /><path
   d="m 192.9,470.10079 c 0,0 6.8,-53.4 -34.3,-85.5 0,0 6.4,35.6 32.3,86.5 0,0 -12,-39.1 -22.9,-67.9 0,0 17.8,36.9 24.9,66.9 z"
   id="path412"
   inkscape:connector-curvature="0"
   style="fill:#5ebb47" /><path
   d="m 190.4,472.20079 c 0,0 -21.1,-49.5 -72.9,-56.5 0,0 23.5,27.5 71.6,58.3 0,0 -30.2,-27.7 -54.1,-47 0,0.1 34.1,22.9 55.4,45.2 z"
   id="path414"
   inkscape:connector-curvature="0"
   style="fill:#5ebb47" /><path
   d="m 189.6,474.40079 c 0,0 -48,-24.4 -92.1,3.5 0,0 35.7,6 92.3,-1.3 0,0 -40.9,-1.8 -71.6,-1.3 0,0 40.7,-4.4 71.4,-0.9 z"
   id="path416"
   inkscape:connector-curvature="0"
   style="fill:#5ebb47" /><path
   style="fill:#7db241"
   inkscape:connector-curvature="0"
   id="path420"
   d="m 195.3,365.20079 c 0,0 19.1,2.5 30.8,0 0,0 -6.7,40.8 0,115.6 0,0 -10.6,7.2 -30.8,2.5 0,0 5.8,-69 0,-118.1 z" /><path
   style="fill:#7db241"
   inkscape:connector-curvature="0"
   id="path422"
   d="m 195.3,487.10079 c 0,0 16.2,5.7 30.8,-2.1 0,0 -10,65.8 -6.7,109.8 0,0 -14.1,10.8 -33.3,0 0,0 12.5,-64 9.2,-107.7 z" /><path
   style="fill:#7db241"
   inkscape:connector-curvature="0"
   id="path424"
   d="m 186.1,598.20079 c 0,0 17.5,11.5 33.3,0 0,0 -9.1,80 0,123.3 0,0 -15.8,10.8 -33.3,0 0,0 7.5,-58.6 0,-123.3 z" /><path
   style="fill:#6da041"
   inkscape:connector-curvature="0"
   id="path426"
   d="m 217.7,366.20079 c -1.4,0.1 -2.7,0.1 -4.1,0.1 -0.4,18.5 -1.4,85.7 1.7,118.1 2.3,-0.4 4.2,-0.9 5.8,-1.4 -2.5,-13.8 -6.4,-47.9 -3.4,-116.8 z" /><path
   style="fill:#6da041"
   inkscape:connector-curvature="0"
   id="path428"
   d="m 216,488.40079 c -1.7,18.8 -6.9,77.2 -7,110.6 2.1,-0.4 3.9,-1 5.4,-1.6 -1.1,-17.1 -1.2,-50.7 5.8,-110 -1.4,0.4 -2.8,0.8 -4.2,1 z" /><path
   style="fill:#6da041"
   inkscape:connector-curvature="0"
   id="path430"
   d="m 214,601.30079 c -1.4,0.6 -2.8,1 -4.2,1.4 -1.2,20.2 -5.4,94 -2.8,123.4 2.4,-0.3 4.5,-0.9 6.3,-1.6 -1.8,-9.3 -6.2,-42.8 0.7,-123.2 z" /><path
   style="fill:#afd358"
   inkscape:connector-curvature="0"
   id="path432"
   d="m 209,484.90079 -2.7,-118.8 c -2.8,-0.1 -5.3,-0.3 -7.2,-0.5 1.1,14.6 4.5,68.7 0.3,118.5 3.5,0.7 6.7,0.9 9.6,0.8 z" /><path
   style="fill:#afd358"
   inkscape:connector-curvature="0"
   id="path434"
   d="m 200.8,599.50079 6.3,-110.4 c -2.6,-0.1 -4.9,-0.4 -6.7,-0.7 -0.4,21.6 -2.1,67 -9,108.9 3.3,1.3 6.5,2 9.4,2.2 z" /><path
   style="fill:#afd358"
   inkscape:connector-curvature="0"
   id="path436"
   d="m 200.5,726.20079 -0.8,-123.2 c -2.7,-0.4 -5.2,-1 -7.3,-1.8 0.7,11.8 3.8,70.1 -1.9,122.6 3.6,1.5 6.9,2.2 10,2.4 z" /><path
   d="m 223.6,598.30079 c 0,0 -7.5,-58.9 37.9,-94.4 0,0 -7,39.3 -35.7,95.4 0,0 13.3,-43.2 25.3,-74.9 0,0.1 -19.7,40.8 -27.5,73.9 z"
   id="path438"
   inkscape:connector-curvature="0"
   style="fill:#5ebb47" /><path
   d="m 227.1,600.70079 c 0,0 23.2,-54.7 80.4,-62.3 0,0 -25.9,30.4 -79,64.4 0,0 33.3,-30.5 59.7,-51.9 0,-0.1 -37.6,25.1 -61.1,49.8 z"
   id="path440"
   inkscape:connector-curvature="0"
   style="fill:#5ebb47" /><path
   d="m 227.9,603.00079 c 0,0 52.9,-27 101.7,3.9 0,0 -39.4,6.6 -101.9,-1.4 0,0 45.1,-2 79,-1.4 0,0 -44.9,-4.9 -78.8,-1.1 z"
   id="path442"
   inkscape:connector-curvature="0"
   style="fill:#5ebb47" /><path
   style="fill:#7db241"
   inkscape:connector-curvature="0"
   id="path446"
   d="m 226.9,475.30079 c 0,0 16.1,-19.2 27.4,-40.9 l 2.7,1.7 c 0,0 -22.3,31.8 -29,44.5 z" /><path
   style="fill:#7db241"
   inkscape:connector-curvature="0"
   id="path448"
   d="m 254.6,433.60079 c 1,-1.3 14.1,-13.4 21.7,-24.9 l 1.6,0.8 c 0,0 -17.2,20.7 -20.7,26.2 z" /><path
   style="fill:#7db241"
   inkscape:connector-curvature="0"
   id="path450"
   d="m 276.4,408.40079 c 0.6,-1.4 3.8,-21.1 6.3,-30.3 0,0 -4.3,25 -4.8,30.9 z" /><path
   d="m 254.8,431.40079 c 0,0 11.4,-21.2 -2.6,-40.3 0,0 -2.6,15.7 1.5,40.4 0,0 0.5,-17.9 0,-31.4 0,0 2.5,17.8 1.1,31.3 z"
   id="path452"
   inkscape:connector-curvature="0"
   style="fill:#5ebb47" /><path
   d="m 253,431.80079 c 0,0 -2,-23.5 -24.8,-33.6 0,0 6.6,14.7 23.9,34.2 0,0 -9.6,-15.7 -17.6,-27.1 0.1,0.1 12.2,14.3 18.5,26.5 z"
   id="path454"
   inkscape:connector-curvature="0"
   style="fill:#5ebb47" /><path
   d="m 252.4,432.60079 c 0,0 -18.3,-16.8 -43,-11.4 0,0 15.5,7.5 42.7,12.4 0,0 -18.5,-6.5 -32.8,-10.5 0,-0.1 19.5,3.8 33.1,9.5 z"
   id="path456"
   inkscape:connector-curvature="0"
   style="fill:#5ebb47" /><path
   d="m 230.3,480.40079 c 0,0 10.4,-21.7 34.1,-21.7 0,0 -11.1,11.3 -33.5,22.6 0,0 14.2,-11 25.4,-18.5 -0.1,0.1 -16,8.6 -26,17.6 z"
   id="path460"
   inkscape:connector-curvature="0"
   style="fill:#5ebb47" /><path
   d="m 231,482.10079 c 0,0 20.2,-12.2 41.8,0.2 0,0 -15.7,3.4 -41.7,0.8 0,0 18.3,-1.5 32.2,-1.7 0,0.1 -18.7,-1.4 -32.3,0.7 z"
   id="path462"
   inkscape:connector-curvature="0"
   style="fill:#5ebb47" /><path
   d="m 230.8,483.20079 c 0,0 24.4,4.9 34.5,28 0,0 -15.2,-8.1 -35.2,-27.2 0,0 16.2,11.2 27.8,20.3 0.1,-0.1 -14.5,-13.5 -27.1,-21.1 z"
   id="path464"
   inkscape:connector-curvature="0"
   style="fill:#5ebb47" /><path
   d="m 278.2,408.40079 c 0,0 5.2,-10.9 17.1,-10.9 0,0 -5.6,5.7 -16.8,11.4 0,0 7.1,-5.5 12.7,-9.3 0,0 -8,4.2 -13,8.8 z"
   id="path468"
   inkscape:connector-curvature="0"
   style="fill:#5ebb47" /><path
   d="m 278.5,409.20079 c 0,0 10.1,-6.1 21,0.1 0,0 -7.9,1.7 -20.9,0.4 0,0 9.2,-0.8 16.2,-0.9 -0.1,0.1 -9.4,-0.6 -16.3,0.4 z"
   id="path470"
   inkscape:connector-curvature="0"
   style="fill:#5ebb47" /><path
   d="m 278.4,409.70079 c 0,0 12.2,2.4 17.3,14 0,0 -7.6,-4.1 -17.6,-13.7 0,0 8.1,5.6 14,10.2 0,0.1 -7.3,-6.6 -13.7,-10.5 z"
   id="path472"
   inkscape:connector-curvature="0"
   style="fill:#5ebb47" /><path
   style="fill:#7db241"
   inkscape:connector-curvature="0"
   id="path476"
   d="m 185.1,586.50079 c 0,0 -22.4,-26.6 -37.9,-56.8 l -3.7,2.3 c 0,0 30.9,44.1 40.2,61.7 z" /><path
   style="fill:#7db241"
   inkscape:connector-curvature="0"
   id="path478"
   d="m 146.8,528.60079 c -1.3,-1.8 -19.5,-18.6 -30.1,-34.6 l -2.2,1.1 c 0,0 23.9,28.7 28.7,36.4 z" /><path
   style="fill:#7db241"
   inkscape:connector-curvature="0"
   id="path480"
   d="m 116.5,493.70079 c -0.8,-2 -5.3,-29.3 -8.8,-42 0,0 6,34.7 6.7,42.8 z" /><path
   d="m 145.5,526.00079 c 0,0 -13.5,-25.2 3,-47.8 0,0 3.1,18.6 -1.8,48 0,0 -0.6,-21.3 0,-37.2 0.1,-0.1 -2.8,21 -1.2,37 z"
   id="path482"
   inkscape:connector-curvature="0"
   style="fill:#5ebb47" /><path
   d="m 147.6,526.50079 c 0,0 2.4,-27.9 29.4,-39.9 0,0 -7.8,17.5 -28.4,40.6 0,0 11.4,-18.6 20.9,-32.1 0.1,0 -14.4,16.8 -21.9,31.4 z"
   id="path484"
   inkscape:connector-curvature="0"
   style="fill:#5ebb47" /><path
   d="m 148.4,527.40079 c 0,0 21.7,-20 51,-13.5 0,0 -18.4,8.9 -50.7,14.7 0,0 22,-7.7 38.9,-12.5 0,-0.1 -23,4.5 -39.2,11.3 z"
   id="path486"
   inkscape:connector-curvature="0"
   style="fill:#5ebb47" /><path
   d="m 180.4,593.60079 c 0,0 -14.4,-30.1 -47.3,-30.1 0,0 15.5,15.7 46.5,31.4 0,0 -19.7,-15.2 -35.2,-25.6 0.1,0 22.1,11.7 36,24.3 z"
   id="path490"
   inkscape:connector-curvature="0"
   style="fill:#5ebb47" /><path
   d="m 179.5,595.90079 c 0,0 -28,-16.9 -57.9,0.3 0,0 21.8,4.7 57.9,1.1 0,0 -25.4,-2.1 -44.7,-2.4 -0.1,0.1 25.7,-1.9 44.7,1 z"
   id="path492"
   inkscape:connector-curvature="0"
   style="fill:#5ebb47" /><path
   d="m 179.8,597.30079 c 0,0 -33.8,6.7 -47.9,38.8 0,0 21.1,-11.3 48.8,-37.8 0,0 -22.4,15.5 -38.6,28.1 -0.1,0.1 20.2,-18.5 37.7,-29.1 z"
   id="path494"
   inkscape:connector-curvature="0"
   style="fill:#5ebb47" /><path
   d="m 114,493.60079 c 0,0 -7.2,-15.1 -23.7,-15.1 0,0 7.8,7.9 23.3,15.7 0,0 -9.9,-7.6 -17.7,-12.8 0.1,0 11.1,5.9 18.1,12.2 z"
   id="path498"
   inkscape:connector-curvature="0"
   style="fill:#5ebb47" /><path
   d="m 113.5,494.80079 c 0,0 -14,-8.5 -29.1,0.2 0,0 11,2.4 29,0.6 0,0 -12.8,-1 -22.4,-1.2 0.1,-0.1 13,-1.1 22.5,0.4 z"
   id="path500"
   inkscape:connector-curvature="0"
   style="fill:#5ebb47" /><path
   d="m 113.7,495.50079 c 0,0 -17,3.4 -24,19.5 0,0 10.6,-5.6 24.5,-18.9 0,0 -11.2,7.8 -19.4,14.1 -0.1,-0.1 10.1,-9.4 18.9,-14.7 z"
   id="path502"
   inkscape:connector-curvature="0"
   style="fill:#5ebb47" /><path
   d="m 501.7,367.60079 c 0,0 17.3,2.3 27.9,0 0,0 -6,36.9 0,104.7 0,0 -9.6,6.6 -27.9,2.3 0,0 5.3,-62.5 0,-107 z"
   id="path508"
   inkscape:connector-curvature="0"
   style="fill:#7db241" /><path
   d="m 501.7,478.00079 c 0,0 14.7,5.2 27.9,-1.9 0,0 -9,59.6 -6,99.5 0,0 -12.8,9.8 -30.1,0 -0.1,0 11.2,-58 8.2,-97.6 z"
   id="path510"
   inkscape:connector-curvature="0"
   style="fill:#7db241" /><path
   d="m 493.4,578.70079 c 0,0 15.8,10.4 30.1,0 0,0 -8.3,72.5 0,111.7 0,0 -14.3,9.8 -30.1,0 0,0 6.8,-53.1 0,-111.7 z"
   id="path512"
   inkscape:connector-curvature="0"
   style="fill:#7db241" /><path
   d="m 522,368.50079 c -1.2,0.1 -2.5,0.1 -3.7,0.1 -0.3,16.7 -1.3,77.6 1.5,107 2.1,-0.3 3.8,-0.8 5.3,-1.2 -2.3,-12.6 -5.8,-43.5 -3.1,-105.9 z"
   id="path514"
   inkscape:connector-curvature="0"
   style="fill:#6da041" /><path
   d="m 520.5,479.20079 c -1.6,17 -6.3,69.9 -6.3,100.2 1.9,-0.4 3.5,-0.9 4.9,-1.5 -1,-15.5 -1,-46 5.2,-99.7 -1.3,0.5 -2.5,0.8 -3.8,1 z"
   id="path516"
   inkscape:connector-curvature="0"
   style="fill:#6da041" /><path
   d="m 518.6,581.50079 c -1.3,0.5 -2.5,0.9 -3.8,1.2 -1.1,18.3 -4.9,85.1 -2.6,111.8 2.2,-0.3 4.1,-0.8 5.7,-1.4 -1.5,-8.4 -5.5,-38.8 0.7,-111.6 z"
   id="path518"
   inkscape:connector-curvature="0"
   style="fill:#6da041" /><path
   d="m 514.1,476.10079 -2.5,-107.6 c -2.5,-0.1 -4.8,-0.3 -6.5,-0.5 1,13.2 4.1,62.2 0.2,107.4 3.3,0.5 6.2,0.7 8.8,0.7 z"
   id="path520"
   inkscape:connector-curvature="0"
   style="fill:#afd358" /><path
   d="m 506.7,579.90079 5.7,-100 c -2.3,-0.1 -4.4,-0.4 -6.1,-0.7 -0.4,19.6 -1.9,60.7 -8.2,98.7 3.1,1.1 5.9,1.7 8.6,2 z"
   id="path522"
   inkscape:connector-curvature="0"
   style="fill:#afd358" /><path
   d="m 506.4,694.70079 -0.7,-111.6 c -2.5,-0.3 -4.7,-0.9 -6.6,-1.6 0.6,10.7 3.4,63.5 -1.7,111.1 3.2,1.2 6.2,1.9 9,2.1 z"
   id="path524"
   inkscape:connector-curvature="0"
   style="fill:#afd358" /><path
   style="fill:#7db241"
   inkscape:connector-curvature="0"
   id="path528"
   d="m 471.2,395.50079 c 0,0 17.3,2.3 27.9,0 0,0 -6,36.9 0,104.7 0,0 -9.6,6.6 -27.9,2.3 0,0 5.3,-62.5 0,-107 z" /><path
   style="fill:#7db241"
   inkscape:connector-curvature="0"
   id="path530"
   d="m 471.2,505.90079 c 0,0 14.7,5.2 27.9,-1.9 0,0 -9,59.6 -6,99.5 0,0 -12.8,9.8 -30.1,0 -0.1,0 11.2,-58 8.2,-97.6 z" /><path
   style="fill:#7db241"
   inkscape:connector-curvature="0"
   id="path532"
   d="m 462.9,606.60079 c 0,0 15.8,10.4 30.1,0 0,0 -8.3,72.5 0,111.7 0,0 -14.3,9.8 -30.1,0 0,0 6.8,-53.1 0,-111.7 z" /><path
   style="fill:#6da041"
   inkscape:connector-curvature="0"
   id="path534"
   d="m 491.4,396.40079 c -1.2,0.1 -2.5,0.1 -3.7,0.1 -0.3,16.7 -1.3,77.6 1.5,107 2.1,-0.3 3.8,-0.8 5.3,-1.2 -2.2,-12.6 -5.7,-43.5 -3.1,-105.9 z" /><path
   style="fill:#6da041"
   inkscape:connector-curvature="0"
   id="path536"
   d="m 490,507.10079 c -1.6,17 -6.3,69.9 -6.3,100.2 1.9,-0.4 3.5,-0.9 4.9,-1.5 -1,-15.5 -1,-46 5.2,-99.7 -1.3,0.5 -2.6,0.8 -3.8,1 z" /><path
   style="fill:#6da041"
   inkscape:connector-curvature="0"
   id="path538"
   d="m 488.1,609.40079 c -1.3,0.5 -2.5,0.9 -3.8,1.2 -1.1,18.3 -4.9,85.1 -2.6,111.8 2.2,-0.3 4.1,-0.8 5.7,-1.4 -1.5,-8.4 -5.5,-38.8 0.7,-111.6 z" /><path
   style="fill:#afd358"
   inkscape:connector-curvature="0"
   id="path540"
   d="m 483.6,504.00079 -2.5,-107.6 c -2.5,-0.1 -4.8,-0.3 -6.5,-0.5 1,13.2 4.1,62.2 0.2,107.4 3.3,0.5 6.2,0.7 8.8,0.7 z" /><path
   style="fill:#afd358"
   inkscape:connector-curvature="0"
   id="path542"
   d="m 476.2,607.80079 5.7,-100 c -2.3,-0.1 -4.4,-0.4 -6.1,-0.7 -0.4,19.6 -1.9,60.7 -8.2,98.7 3,1.1 5.9,1.7 8.6,2 z" /><path
   style="fill:#afd358"
   inkscape:connector-curvature="0"
   id="path544"
   d="m 475.9,722.60079 -0.7,-111.6 c -2.5,-0.3 -4.7,-0.9 -6.6,-1.6 0.6,10.7 3.4,63.5 -1.7,111.1 3.2,1.2 6.2,1.9 9,2.1 z" /><path
   d="m 531,461.30079 c 0,0 -6.8,-53.4 34.3,-85.5 0,0 -6.4,35.6 -32.3,86.5 0,0 12,-39.1 22.9,-67.8 0.1,-0.1 -17.8,36.7 -24.9,66.8 z"
   id="path546"
   inkscape:connector-curvature="0"
   style="fill:#5ebb47" /><path
   d="m 534.2,463.40079 c 0,0 21.1,-49.5 72.8,-56.5 0,0 -23.5,27.5 -71.6,58.3 0,0 30.1,-27.7 54,-47 0.1,0 -33.9,22.8 -55.2,45.2 z"
   id="path548"
   inkscape:connector-curvature="0"
   style="fill:#5ebb47" /><path
   d="m 535,465.50079 c 0,0 47.9,-24.4 92.1,3.5 0,0 -35.7,6 -92.3,-1.3 0,0 40.9,-1.8 71.6,-1.3 0,0.1 -40.8,-4.3 -71.4,-0.9 z"
   id="path550"
   inkscape:connector-curvature="0"
   style="fill:#5ebb47" /><path
   d="m 522.7,670.90079 c 0,0 25,-29.7 42.4,-63.4 l 4.2,2.6 c 0,0 -34.5,49.2 -44.9,68.9 z"
   id="path554"
   inkscape:connector-curvature="0"
   style="fill:#7db241" /><path
   d="m 565.6,606.30079 c 1.5,-2 21.8,-20.8 33.6,-38.6 l 2.5,1.2 c 0,0 -26.7,32 -32.1,40.6 z"
   id="path556"
   inkscape:connector-curvature="0"
   style="fill:#7db241" /><path
   d="m 599.3,567.30079 c 0.9,-2.2 5.9,-32.7 9.8,-46.9 0,0 -6.7,38.7 -7.4,47.8 z"
   id="path558"
   inkscape:connector-curvature="0"
   style="fill:#7db241" /><path
   style="fill:#5ebb47"
   inkscape:connector-curvature="0"
   id="path560"
   d="m 566,602.80079 c 0,0 17.7,-32.8 -4,-62.4 0,0 -4,24.3 2.3,62.6 0,0 0.8,-27.7 -0.1,-48.6 0,0 3.9,27.6 1.8,48.4 z" /><path
   style="fill:#5ebb47"
   inkscape:connector-curvature="0"
   id="path562"
   d="m 563.2,603.50079 c 0,0 -3.1,-36.4 -38.4,-52.1 0,0 10.1,22.8 37.1,53 0,0 -14.9,-24.3 -27.3,-41.9 0,0 18.8,22 28.6,41 z" /><path
   style="fill:#5ebb47"
   inkscape:connector-curvature="0"
   id="path564"
   d="m 562.2,604.70079 c 0,0 -28.3,-26.1 -66.5,-17.7 0,0 24,11.6 66.1,19.1 0,0 -28.7,-10 -50.8,-16.3 0,0.1 30.1,6.1 51.2,14.9 z" /><path
   style="fill:#5ebb47"
   inkscape:connector-curvature="0"
   id="path568"
   d="m 528,678.80079 c 0,0 16.1,-33.6 52.8,-33.6 0,0 -17.3,17.6 -51.9,35 0,0 21.9,-17 39.3,-28.6 -0.1,0 -24.6,13.2 -40.2,27.2 z" /><path
   style="fill:#5ebb47"
   inkscape:connector-curvature="0"
   id="path570"
   d="m 529.1,681.40079 c 0,0 31.3,-18.9 64.7,0.3 0,0 -24.4,5.2 -64.6,1.3 0,0 28.4,-2.3 49.9,-2.7 0,0.1 -28.9,-2.1 -50,1.1 z" /><path
   style="fill:#5ebb47"
   inkscape:connector-curvature="0"
   id="path572"
   d="m 528.7,683.00079 c 0,0 37.8,7.5 53.5,43.3 0,0 -23.5,-12.6 -54.4,-42.1 0,0 25,17.3 43.1,31.4 -0.1,-0.1 -22.6,-20.8 -42.2,-32.6 z" /><path
   style="fill:#5ebb47"
   inkscape:connector-curvature="0"
   id="path576"
   d="m 602.1,567.20079 c 0,0 8.1,-16.9 26.5,-16.8 0,0 -8.7,8.8 -26,17.6 0,0 11,-8.5 19.7,-14.3 0,-0.1 -12.3,6.5 -20.2,13.5 z" /><path
   style="fill:#5ebb47"
   inkscape:connector-curvature="0"
   id="path578"
   d="m 602.7,568.50079 c 0,0 15.7,-9.5 32.5,0.2 0,0 -12.2,2.6 -32.4,0.6 0,0 14.2,-1.2 25,-1.3 0,0 -14.5,-1.1 -25.1,0.5 z" /><path
   style="fill:#5ebb47"
   inkscape:connector-curvature="0"
   id="path580"
   d="m 602.5,569.30079 c 0,0 18.9,3.8 26.8,21.7 0,0 -11.8,-6.3 -27.3,-21.1 0,0 12.6,8.7 21.6,15.7 0,0 -11.3,-10.4 -21.1,-16.3 z" /><path
   style="fill:#7db241"
   inkscape:connector-curvature="0"
   id="path586"
   d="m 462,596.00079 c 0,0 -20.3,-24.1 -34.4,-51.4 l -3.4,2.1 c 0,0 28,39.9 36.4,55.9 z" /><path
   style="fill:#7db241"
   inkscape:connector-curvature="0"
   id="path588"
   d="m 427.2,543.60079 c -1.2,-1.6 -17.7,-16.9 -27.3,-31.3 l -2,1 c 0,0 21.6,26 26,32.9 z" /><path
   style="fill:#7db241"
   inkscape:connector-curvature="0"
   id="path590"
   d="m 399.8,511.90079 c -0.8,-1.8 -4.8,-26.5 -8,-38 0,0 5.4,31.4 6,38.8 z" /><path
   d="m 426.1,541.10079 c 0,0 -12.3,-22.8 2.8,-43.3 0,0 2.8,16.9 -1.6,43.4 0,0 -0.5,-19.3 0,-33.7 0,0 -2.7,19.2 -1.2,33.6 z"
   id="path592"
   inkscape:connector-curvature="0"
   style="fill:#5ebb47" /><path
   d="m 428,541.60079 c 0,0 2.2,-25.3 26.7,-36.1 0,0 -7,15.8 -25.7,36.8 0,0 10.3,-16.9 18.9,-29.1 0,-0.1 -13.1,15.2 -19.9,28.4 z"
   id="path594"
   inkscape:connector-curvature="0"
   style="fill:#5ebb47" /><path
   d="m 428.7,542.40079 c 0,0 19.7,-18.1 46.2,-12.3 0,0 -16.7,8 -45.9,13.3 0,0 19.9,-7 35.2,-11.3 0,0 -20.9,4.2 -35.5,10.3 z"
   id="path596"
   inkscape:connector-curvature="0"
   style="fill:#5ebb47" /><path
   d="m 457.7,602.40079 c 0,0 -13.1,-27.3 -42.8,-27.2 0,0 14,14.2 42.1,28.4 0,0 -17.8,-13.8 -31.9,-23.2 0.1,0 20,10.6 32.6,22 z"
   id="path600"
   inkscape:connector-curvature="0"
   style="fill:#5ebb47" /><path
   d="m 456.8,604.50079 c 0,0 -25.4,-15.3 -52.5,0.3 0,0 19.8,4.2 52.4,1 0,0 -23,-1.9 -40.5,-2.2 0.1,0.1 23.5,-1.7 40.6,0.9 z"
   id="path602"
   inkscape:connector-curvature="0"
   style="fill:#5ebb47" /><path
   d="m 457.1,605.80079 c 0,0 -30.6,6.1 -43.4,35.2 0,0 19.1,-10.2 44.2,-34.2 0,0 -20.3,14 -35,25.5 0.1,-0.1 18.4,-17 34.2,-26.5 z"
   id="path604"
   inkscape:connector-curvature="0"
   style="fill:#5ebb47" /><path
   d="m 397.6,511.80079 c 0,0 -6.6,-13.7 -21.5,-13.7 0,0 7,7.1 21.1,14.3 0,0 -8.9,-6.9 -16,-11.6 0,0 10,5.3 16.4,11 z"
   id="path608"
   inkscape:connector-curvature="0"
   style="fill:#5ebb47" /><path
   d="m 397.1,512.90079 c 0,0 -12.7,-7.7 -26.3,0.1 0,0 9.9,2.1 26.3,0.5 0,0 -11.6,-0.9 -20.3,-1.1 0,0.1 11.7,-0.8 20.3,0.5 z"
   id="path610"
   inkscape:connector-curvature="0"
   style="fill:#5ebb47" /><path
   d="m 397.3,513.50079 c 0,0 -15.4,3.1 -21.8,17.6 0,0 9.6,-5.1 22.2,-17.2 0,0 -10.2,7 -17.5,12.8 -0.1,0.1 9.1,-8.4 17.1,-13.2 z"
   id="path612"
   inkscape:connector-curvature="0"
   style="fill:#5ebb47" /><path
   style="fill:#7db241"
   inkscape:connector-curvature="0"
   id="path616"
   d="m 469.1,495.50079 c 0,0 -14.6,-17.4 -24.8,-37.1 l -2.4,1.5 c 0,0 20.2,28.8 26.3,40.3 z" /><path
   style="fill:#7db241"
   inkscape:connector-curvature="0"
   id="path618"
   d="m 444,457.70079 c -0.9,-1.2 -12.8,-12.2 -19.7,-22.6 l -1.5,0.7 c 0,0 15.6,18.7 18.8,23.8 z" /><path
   style="fill:#7db241"
   inkscape:connector-curvature="0"
   id="path620"
   d="m 424.3,434.90079 c -0.5,-1.3 -3.5,-19.1 -5.7,-27.4 0,0 3.9,22.7 4.4,28 z" /><path
   d="m 443.8,455.70079 c 0,0 -10.3,-19.2 2.3,-36.5 0,0 2.3,14.2 -1.3,36.6 0,0 -0.5,-16.2 0,-28.4 0,0 -2.3,16.1 -1,28.3 z"
   id="path622"
   inkscape:connector-curvature="0"
   style="fill:#5ebb47" /><path
   d="m 445.4,456.10079 c 0,0 1.8,-21.3 22.5,-30.5 0,0 -5.9,13.3 -21.7,31 0,0 8.7,-14.2 16,-24.5 0,0 -11.1,12.9 -16.8,24 z"
   id="path624"
   inkscape:connector-curvature="0"
   style="fill:#5ebb47" /><path
   d="m 446,456.80079 c 0,0 16.6,-15.3 38.9,-10.3 0,0 -14,6.8 -38.7,11.2 0,0 16.8,-5.9 29.7,-9.5 0,-0.1 -17.6,3.4 -29.9,8.6 z"
   id="path626"
   inkscape:connector-curvature="0"
   style="fill:#5ebb47" /><path
   d="m 466,500.10079 c 0,0 -9.4,-19.7 -30.9,-19.6 0,0 10.1,10.3 30.4,20.5 0,0 -12.8,-9.9 -23,-16.7 0,0 14.4,7.6 23.5,15.8 z"
   id="path630"
   inkscape:connector-curvature="0"
   style="fill:#5ebb47" /><path
   d="m 465.4,501.70079 c 0,0 -18.3,-11.1 -37.9,0.2 0,0 14.3,3.1 37.8,0.8 0,0 -16.6,-1.4 -29.2,-1.6 0,0 16.9,-1.3 29.3,0.6 z"
   id="path632"
   inkscape:connector-curvature="0"
   style="fill:#5ebb47" /><path
   d="m 465.6,502.60079 c 0,0 -22.1,4.4 -31.3,25.4 0,0 13.8,-7.4 31.9,-24.7 0,0 -14.6,10.1 -25.2,18.4 -0.1,-0.1 13.2,-12.2 24.6,-19.1 z"
   id="path634"
   inkscape:connector-curvature="0"
   style="fill:#5ebb47" /><path
   d="m 422.6,434.80079 c 0,0 -4.7,-9.9 -15.5,-9.9 0,0 5.1,5.2 15.2,10.3 0,0 -6.4,-5 -11.5,-8.4 0,0.1 7.3,3.9 11.8,8 z"
   id="path638"
   inkscape:connector-curvature="0"
   style="fill:#5ebb47" /><path
   d="m 422.3,435.60079 c 0,0 -9.2,-5.6 -19,0.1 0,0 7.2,1.5 19,0.4 0,0 -8.3,-0.7 -14.7,-0.8 0,0 8.5,-0.6 14.7,0.3 z"
   id="path640"
   inkscape:connector-curvature="0"
   style="fill:#5ebb47" /><path
   d="m 422.4,436.10079 c 0,0 -11.1,2.2 -15.7,12.7 0,0 6.9,-3.7 16,-12.4 0,0 -7.3,5.1 -12.7,9.2 0,0 6.7,-6.1 12.4,-9.5 z"
   id="path642"
   inkscape:connector-curvature="0"
   style="fill:#5ebb47" /><path
   style="fill:#7db241"
   inkscape:connector-curvature="0"
   id="path648"
   d="m 720.1,440.10079 c -0.8,-1.5 -6.7,-22.7 -10.5,-32.5 0,0 7.7,27 8.9,33.3 z" /><path
   d="m 718.1,440.30079 c 0,0 -7,-11.4 -20,-10 0,0 6.8,5.6 19.8,10.5 0,0 -8.4,-5.2 -15,-8.7 -0.1,0 9.1,3.8 15.2,8.2 z"
   id="path650"
   inkscape:connector-curvature="0"
   style="fill:#5ebb47" /><path
   d="m 717.8,441.20079 c 0,0 -11.8,-5.5 -23,2.6 0,0 8.9,0.9 23,-2 0,0 -10.2,0.2 -17.9,0.9 0.1,0.1 10.3,-1.8 17.9,-1.5 z"
   id="path652"
   inkscape:connector-curvature="0"
   style="fill:#5ebb47" /><path
   d="m 718,441.80079 c 0,0 -13.1,4.1 -17.4,17.4 0,0 7.9,-5.4 17.8,-17 0,0 -8.2,7.1 -14.1,12.8 -0.1,0 7.2,-8.3 13.7,-13.2 z"
   id="path654"
   inkscape:connector-curvature="0"
   style="fill:#5ebb47" /><path
   style="fill:#5ebb47"
   inkscape:connector-curvature="0"
   id="path658"
   d="m 817.2,711.40079 c 0,0 -4,-52.4 -49.7,-75 0,0 13.1,32.8 48,76.3 0,0 -19.2,-35 -35.3,-60.4 -0.1,0 24.3,31.8 37,59.1 z" /><path
   style="fill:#5ebb47"
   inkscape:connector-curvature="0"
   id="path660"
   d="m 814.6,714.10079 c 0,0 -29.9,-43.2 -80.8,-39.6 0,0 27.9,21.7 80,41.7 0,0 -34.3,-20.5 -61,-34.3 -0.1,-0.1 37,15 61.8,32.2 z" /><path
   style="fill:#5ebb47"
   inkscape:connector-curvature="0"
   id="path662"
   d="m 814.3,716.30079 c 0,0 -50.7,-13.9 -87.4,21.5 0,0 35.3,-1.3 88,-19.4 0,0 -39.5,6.3 -68.8,12.9 0.1,0 38.2,-12.3 68.2,-15 z" /><path
   d="m 763.4,413.00079 c 0,0 17,-1.3 26.7,-5.5 0,0 1.5,36.5 20.7,100.2 0,0 -7.9,8.2 -26.2,7.7 -0.1,0 -7.4,-60.9 -21.2,-102.4 z"
   id="path666"
   inkscape:connector-curvature="0"
   style="fill:#7db241" /><path
   d="m 785.2,518.70079 c 0,0 15.1,2.1 26.3,-7.3 0,0 3.1,58.8 13.9,96.4 0,0 -10.3,11.9 -28.8,5.9 -0.1,-0.1 -0.7,-57.8 -11.4,-95 z"
   id="path668"
   inkscape:connector-curvature="0"
   style="fill:#7db241" /><path
   d="m 834.9,671.70079 c -6.2,-30.9 -8.9,-61.1 -8.9,-61.1 -11.6,12.8 -28.8,5.9 -28.8,5.9 18.1,54.7 22,106.9 22,106.9 2.7,1 5.3,1.5 7.8,1.7 1.9,-17.8 8.3,-35.3 7.9,-53.4 z"
   id="path670"
   inkscape:connector-curvature="0"
   style="fill:#7db241" /><path
   d="m 783,409.90079 c -1.2,0.3 -2.3,0.6 -3.5,0.8 3,16.1 14.1,74.5 22.6,102.1 1.9,-0.7 3.5,-1.5 4.8,-2.2 -4.7,-11.6 -14.2,-40.5 -23.9,-100.7 z"
   id="path672"
   inkscape:connector-curvature="0"
   style="fill:#6da041" /><path
   d="m 803.4,516.10079 c 1.8,16.6 7.8,68.1 13.7,97.1 1.7,-0.7 3.2,-1.6 4.4,-2.4 -4,-14.6 -10.1,-43.8 -14.7,-96.4 -1.1,0.7 -2.2,1.3 -3.4,1.7 z"
   id="path674"
   inkscape:connector-curvature="0"
   style="fill:#6da041" /><path
   d="m 833.7,688.00079 c -3.7,-16.8 -8,-40.6 -11.9,-73.7 -1.1,0.8 -2.3,1.4 -3.4,1.9 1.9,13.1 7.6,52.2 13.5,81.6 0.7,-3.2 1.3,-6.5 1.8,-9.8 z"
   id="path676"
   inkscape:connector-curvature="0"
   style="fill:#6da041" /><path
   d="m 796.7,514.40079 -23.6,-102.5 c -2.4,0.4 -4.6,0.6 -6.3,0.8 3.5,12.4 16.2,58.7 21.4,102.7 3.2,-0.1 6,-0.5 8.5,-1 z"
   id="path678"
   inkscape:connector-curvature="0"
   style="fill:#afd358" /><path
   d="m 810.1,615.10079 -14.3,-96.8 c -2.2,0.4 -4.3,0.5 -6,0.6 3.5,18.8 10.2,58.5 11.6,96 3.2,0.5 6.1,0.5 8.7,0.2 z"
   id="path680"
   inkscape:connector-curvature="0"
   style="fill:#afd358" /><path
   d="m 829.4,710.30079 -19.6,-91.9 c -2.4,0.2 -4.7,0 -6.6,-0.3 2.7,10.1 15.8,60.1 20.3,106.6 1.2,0.2 2.3,0.4 3.4,0.5 0.6,-5 1.5,-10 2.5,-14.9 z"
   id="path682"
   inkscape:connector-curvature="0"
   style="fill:#afd358" /><path
   style="fill:#5ebb47"
   inkscape:connector-curvature="0"
   id="path684"
   d="m 793,611.10079 c 0,0 -4,-52.4 -49.7,-75 0,0 13.1,32.8 48,76.3 0,0 -19.2,-35 -35.3,-60.4 -0.1,0.1 24.3,31.8 37,59.1 z" /><path
   style="fill:#5ebb47"
   inkscape:connector-curvature="0"
   id="path686"
   d="m 790.4,613.80079 c 0,0 -29.9,-43.2 -80.8,-39.6 0,0 27.9,21.7 80,41.7 0,0 -34.3,-20.5 -61,-34.3 -0.1,-0.1 37,15 61.8,32.2 z" /><path
   style="fill:#5ebb47"
   inkscape:connector-curvature="0"
   id="path688"
   d="m 790.1,616.00079 c 0,0 -50.7,-13.9 -87.4,21.5 0,0 35.3,-1.3 88,-19.4 0,0 -39.5,6.3 -68.8,12.9 0.1,0 38.2,-12.3 68.2,-15 z" /><path
   style="fill:#5ebb47"
   inkscape:connector-curvature="0"
   id="path692"
   d="m 871.9,608.00079 c 0,0 4.6,-41.8 41.8,-58.6 0,0 -11.4,25.9 -40.4,59.7 0,0 16.3,-27.5 29.9,-47.3 -0.1,0 -20.4,24.7 -31.3,46.2 z" /><path
   style="fill:#5ebb47"
   inkscape:connector-curvature="0"
   id="path694"
   d="m 873.9,610.20079 c 0,0 25.1,-33.7 65.7,-29.5 0,0 -22.9,16.6 -65.1,31.1 0,0 28,-15.5 49.7,-25.7 0,0 -30,11 -50.3,24.1 z" /><path
   style="fill:#5ebb47"
   inkscape:connector-curvature="0"
   id="path696"
   d="m 874.1,612.00079 c 0,0 40.9,-9.7 69.3,19.6 0,0 -28.2,-2 -69.9,-17.9 0,0 31.4,6.1 54.6,12.2 0,-0.1 -30.1,-10.9 -54,-13.9 z" /><path
   d="m 866.7,407.80079 c 0,0 16.7,3.8 27.1,2.5 0,0 -9.2,35.4 -9.5,101.9 0,0 -9.9,5.5 -27.3,-0.3 0,0 10.8,-60.4 9.7,-104.1 z"
   id="path700"
   inkscape:connector-curvature="0"
   style="fill:#7db241" /><path
   d="m 856.6,515.20079 c 0,0 13.8,6.4 27.3,0.7 0,0 -14.2,57.1 -14.9,96.2 0,0 -13.3,8.4 -29.3,-2.7 0,-0.1 16.3,-55.5 16.9,-94.2 z"
   id="path702"
   inkscape:connector-curvature="0"
   style="fill:#7db241" /><path
   d="m 839.4,612.30079 c 0,0 14.4,11.5 29.3,2.7 0,0 -14.6,69.8 -10.1,108.6 0,0 -14.8,8.2 -29.3,-2.7 0,0.1 11.4,-50.9 10.1,-108.6 z"
   id="path704"
   inkscape:connector-curvature="0"
   style="fill:#7db241" /><path
   d="m 886.3,410.50079 c -1.2,-0.1 -2.4,-0.1 -3.6,-0.2 -1.8,16.3 -8.3,75.4 -8.2,104.2 2.1,-0.1 3.8,-0.4 5.2,-0.7 -1.1,-12.5 -1.7,-42.8 6.6,-103.3 z"
   id="path706"
   inkscape:connector-curvature="0"
   style="fill:#6da041" /><path
   d="m 874.8,518.10079 c -3.1,16.4 -12.4,67.4 -15.2,96.9 1.9,-0.2 3.5,-0.6 4.9,-1 0.5,-15.1 3.2,-44.8 14.1,-96.5 -1.3,0.3 -2.5,0.5 -3.8,0.6 z"
   id="path708"
   inkscape:connector-curvature="0"
   style="fill:#6da041" /><path
   d="m 863.7,617.30079 c -1.3,0.4 -2.6,0.7 -3.8,0.8 -2.7,17.7 -12.5,82.3 -12.6,108.5 2.1,-0.1 4.1,-0.4 5.7,-0.9 -0.8,-8.2 -1.9,-38.1 10.7,-108.4 z"
   id="path710"
   inkscape:connector-curvature="0"
   style="fill:#6da041" /><path
   d="m 868.9,514.40079 7.4,-104.9 c -2.4,-0.4 -4.6,-0.7 -6.3,-1.1 -0.2,12.9 -1.7,60.9 -9.5,104.4 3,0.9 5.8,1.4 8.4,1.6 z"
   id="path712"
   inkscape:connector-curvature="0"
   style="fill:#afd358" /><path
   d="m 852.2,614.70079 14.6,-96.8 c -2.3,-0.3 -4.3,-0.7 -5.9,-1.2 -2.1,19 -7.3,58.9 -16.9,95.2 2.9,1.5 5.7,2.3 8.2,2.8 z"
   id="path714"
   inkscape:connector-curvature="0"
   style="fill:#afd358" /><path
   d="m 841.6,726.30079 9.5,-108.6 c -2.4,-0.5 -4.5,-1.3 -6.2,-2.2 -0.3,10.5 -2.4,62.1 -11.7,107.9 2.8,1.6 5.7,2.5 8.4,2.9 z"
   id="path716"
   inkscape:connector-curvature="0"
   style="fill:#afd358" /><path
   style="fill:#5ebb47"
   inkscape:connector-curvature="0"
   id="path718"
   d="m 793.2,415.50079 c 0,0 -1.2,-33.6 26.3,-51.2 0,0 -6,21.8 -25,51.9 0,0 9.7,-23.6 18.1,-40.9 0,0 -13.3,21.9 -19.4,40.2 z" /><path
   style="fill:#5ebb47"
   inkscape:connector-curvature="0"
   id="path720"
   d="m 795.1,417.00079 c 0,0 15.9,-29.6 48.5,-30.9 0,0 -16.2,15.8 -47.8,32.1 0,0 20.3,-15.5 36.3,-26.1 -0.1,0 -22.5,12.2 -37,24.9 z" /><path
   style="fill:#5ebb47"
   inkscape:connector-curvature="0"
   id="path722"
   d="m 795.4,418.30079 c 0,0 31.2,-12.4 57.1,7.5 0,0 -22.5,1.7 -57.3,-6.1 0,0 25.5,1.2 44.6,3.3 -0.1,0 -25.1,-5 -44.4,-4.7 z" /><path
   style="fill:#7db241"
   inkscape:connector-curvature="0"
   id="path726"
   d="m 886.1,506.30079 c 0,0 19.1,-28.3 31.1,-59.3 l 3.9,1.9 c 0,0 -25.6,46.2 -32.8,64.3 z" /><path
   style="fill:#7db241"
   inkscape:connector-curvature="0"
   id="path728"
   d="m 917.5,445.90079 c 1.1,-1.9 17.1,-20.2 25.8,-36.9 l 2.3,0.8 c 0,0 -20.3,30.4 -24.2,38.4 z" /><path
   style="fill:#7db241"
   inkscape:connector-curvature="0"
   id="path730"
   d="m 943.4,408.70079 c 0.6,-2 2.2,-29.1 4.2,-41.8 0,0 -2.3,34.5 -2.1,42.5 z" /><path
   d="m 917.6,442.80079 c 0,0 12.4,-30.3 -9.3,-54.2 0,0 -1.3,21.6 7.8,54.5 0,0 -1.9,-24.3 -4.6,-42.4 0.1,0 6,23.7 6.1,42.1 z"
   id="path732"
   inkscape:connector-curvature="0"
   style="fill:#5ebb47" /><path
   d="m 915.2,443.70079 c 0,0 -6.1,-31.5 -38.4,-41.9 0,0 11,19 37.3,42.8 0,0 -15.2,-19.9 -27.7,-34.1 0,0 18.5,17.5 28.8,33.2 z"
   id="path734"
   inkscape:connector-curvature="0"
   style="fill:#5ebb47" /><path
   d="m 914.4,444.80079 c 0,0 -27.2,-20.2 -59.8,-9.3 0,0 22,7.9 59.5,10.6 0,0 -26,-6.1 -45.9,-9.6 0.2,0.1 27,2.5 46.2,8.3 z"
   id="path736"
   inkscape:connector-curvature="0"
   style="fill:#5ebb47" /><path
   d="m 891.4,512.70079 c 0,0 11,-30.9 43,-34.2 0,0 -13.4,16.9 -42.1,35.4 0,0 17.6,-16.9 31.7,-28.6 0,0 -20.3,13.7 -32.6,27.4 z"
   id="path740"
   inkscape:connector-curvature="0"
   style="fill:#5ebb47" /><path
   d="m 892.6,514.90079 c 0,0 25.6,-19.4 56.5,-5.7 0,0 -20.8,6.8 -56.3,7.1 0,0 24.6,-4.6 43.4,-6.9 0,0 -25.5,0.7 -43.6,5.5 z"
   id="path742"
   inkscape:connector-curvature="0"
   style="fill:#5ebb47" /><path
   d="m 892.4,516.30079 c 0,0 33.7,3.1 50.7,32.9 0,0 -21.7,-8.8 -51.5,-31.8 0,0 23.5,12.8 40.6,23.4 0,0 -21.6,-16 -39.8,-24.5 z"
   id="path744"
   inkscape:connector-curvature="0"
   style="fill:#5ebb47" /><path
   d="m 945.9,408.30079 c 0,0 5.5,-15.5 21.6,-17.2 0,0 -6.7,8.5 -21.1,17.8 0,0 8.8,-8.5 15.9,-14.4 -0.1,0.1 -10.3,7 -16.4,13.8 z"
   id="path748"
   inkscape:connector-curvature="0"
   style="fill:#5ebb47" /><path
   d="m 946.5,409.40079 c 0,0 12.8,-9.7 28.4,-2.9 0,0 -10.4,3.4 -28.3,3.6 0,0 12.3,-2.3 21.8,-3.5 -0.1,0.1 -12.8,0.4 -21.9,2.8 z"
   id="path750"
   inkscape:connector-curvature="0"
   style="fill:#5ebb47" /><path
   d="m 946.4,410.20079 c 0,0 16.9,1.5 25.5,16.5 0,0 -10.9,-4.4 -25.8,-15.9 0,0 11.8,6.4 20.3,11.8 -0.1,-0.1 -10.9,-8.2 -20,-12.4 z"
   id="path752"
   inkscape:connector-curvature="0"
   style="fill:#5ebb47" /><path
   d="m 782.1,507.80079 c 0,0 -20,-19.2 -34.8,-41.8 l -2.8,2.1 c 0,0 28.1,32.3 37,45.4 z"
   id="path758"
   inkscape:connector-curvature="0"
   style="fill:#7db241" /><path
   d="m 746.9,465.20079 c -1.2,-1.3 -17,-13.1 -26.7,-24.9 l -1.7,1 c 0,0 21.3,20.7 25.8,26.4 z"
   id="path760"
   inkscape:connector-curvature="0"
   style="fill:#7db241" /><path
   style="fill:#5ebb47"
   inkscape:connector-curvature="0"
   id="path762"
   d="m 745.7,463.20079 c 0,0 -12.8,-18.8 -1.6,-38.1 0,0 4,14.5 2.6,38.1 0,0 -2.3,-16.8 -3.1,-29.5 0.1,0 -0.5,17 2.1,29.5 z" /><path
   style="fill:#5ebb47"
   inkscape:connector-curvature="0"
   id="path764"
   d="m 747.4,463.40079 c 0,0 -0.4,-22.3 19.9,-34 0,0 -4.7,14.5 -19.1,34.5 0,0 7.5,-15.7 13.9,-27.2 0.1,0.1 -9.9,14.6 -14.7,26.7 z" /><path
   style="fill:#5ebb47"
   inkscape:connector-curvature="0"
   id="path766"
   d="m 748.2,464.10079 c 0,0 15.5,-17.6 39.2,-15 0,0 -13.8,8.6 -38.9,15.9 0,0 16.8,-7.9 29.7,-13.2 0,0 -17.9,5.6 -30,12.3 z" /><path
   style="fill:#5ebb47"
   inkscape:connector-curvature="0"
   id="path770"
   d="m 779,513.80079 c 0,0 -13.9,-22.6 -39.9,-19.8 0,0 13.5,11.1 39.4,20.9 0,0 -16.8,-10.4 -30,-17.3 0,0 18.4,7.4 30.5,16.2 z" /><path
   style="fill:#5ebb47"
   inkscape:connector-curvature="0"
   id="path772"
   d="m 778.4,515.70079 c 0,0 -23.6,-11.1 -45.8,5.1 0,0 17.7,1.9 45.9,-3.9 0,0 -20.3,0.5 -35.6,1.9 0,0 20.3,-3.8 35.5,-3.1 z" /><path
   style="fill:#5ebb47"
   inkscape:connector-curvature="0"
   id="path774"
   d="m 778.8,516.80079 c 0,0 -26.2,8.2 -34.7,34.7 0,0 15.7,-10.7 35.4,-34 0,0 -16.4,14.1 -28.2,25.5 0.1,0.1 14.5,-16.4 27.5,-26.2 z" /><path
   style="fill:#7db241"
   inkscape:connector-curvature="0"
   id="path778"
   d="m 855.9,507.30079 c 0,0 -12.5,-12 -21.8,-26.2 l -1.7,1.3 c 0,0 17.7,20.2 23.2,28.5 z" /><path
   style="fill:#7db241"
   inkscape:connector-curvature="0"
   id="path780"
   d="m 833.8,480.60079 c -0.8,-0.8 -10.7,-8.2 -16.8,-15.6 l -1.1,0.7 c 0,0 13.4,13 16.2,16.5 z" /><path
   style="fill:#7db241"
   inkscape:connector-curvature="0"
   id="path782"
   d="m 817,464.80079 c -0.5,-0.9 -4.2,-14.3 -6.6,-20.4 0,0 4.8,16.9 5.6,20.9 z" /><path
   d="m 833.5,479.00079 c 0,0 -9.4,-13.8 -1.2,-27.9 0,0 2.9,10.6 1.9,27.9 0,0 -1.7,-12.3 -2.3,-21.6 0,0 -0.4,12.5 1.6,21.6 z"
   id="path784"
   inkscape:connector-curvature="0"
   style="fill:#5ebb47" /><path
   d="m 834.7,479.20079 c 0,0 -0.3,-16.3 14.6,-24.9 0,0 -3.4,10.6 -14,25.3 0,0 5.5,-11.5 10.2,-19.9 0,-0.1 -7.3,10.6 -10.8,19.5 z"
   id="path786"
   inkscape:connector-curvature="0"
   style="fill:#5ebb47" /><path
   d="m 835.2,479.70079 c 0,0 11.4,-12.9 28.7,-11 0,0 -10.1,6.3 -28.5,11.6 0,0 12.3,-5.8 21.8,-9.6 0.1,0 -13,4.1 -22,9 z"
   id="path788"
   inkscape:connector-curvature="0"
   style="fill:#5ebb47" /><path
   d="m 853.9,511.00079 c 0,0 -8.7,-14.2 -25,-12.4 0,0 8.5,7 24.7,13.1 0,0 -10.6,-6.5 -18.8,-10.9 0,0.1 11.5,4.7 19.1,10.2 z"
   id="path792"
   inkscape:connector-curvature="0"
   style="fill:#5ebb47" /><path
   d="m 853.6,512.20079 c 0,0 -14.8,-6.9 -28.7,3.2 0,0 11.1,1.2 28.8,-2.5 0,0 -12.7,0.3 -22.3,1.2 -0.1,0 12.6,-2.3 22.2,-1.9 z"
   id="path794"
   inkscape:connector-curvature="0"
   style="fill:#5ebb47" /><path
   d="m 853.8,512.90079 c 0,0 -16.4,5.1 -21.7,21.8 0,0 9.9,-6.7 22.2,-21.3 0,0 -10.3,8.9 -17.7,16 0,0 9.1,-10.3 17.2,-16.5 z"
   id="path796"
   inkscape:connector-curvature="0"
   style="fill:#5ebb47" /><path
   d="m 815.7,464.90079 c 0,0 -4.4,-7.1 -12.6,-6.2 0,0 4.3,3.5 12.4,6.6 0,0 -5.3,-3.3 -9.4,-5.4 0,-0.1 5.8,2.3 9.6,5 z"
   id="path800"
   inkscape:connector-curvature="0"
   style="fill:#5ebb47" /><path
   d="m 815.5,465.50079 c 0,0 -7.4,-3.5 -14.4,1.6 0,0 5.6,0.6 14.4,-1.2 0,0 -6.4,0.2 -11.2,0.6 0,0 6.4,-1.2 11.2,-1 z"
   id="path802"
   inkscape:connector-curvature="0"
   style="fill:#5ebb47" /><path
   d="m 815.6,465.90079 c 0,0 -8.2,2.6 -10.9,10.9 0,0 4.9,-3.4 11.1,-10.7 0,0 -5.2,4.4 -8.9,8 0.1,0 4.7,-5.1 8.7,-8.2 z"
   id="path804"
   inkscape:connector-curvature="0"
   style="fill:#5ebb47" /><path
   style="fill:#7db241"
   inkscape:connector-curvature="0"
   id="path814"
   d="m 1179.9,266.50079 c 0,0 14.9,8.2 30.1,2.1 0,0 -6.3,38.7 0,109.6 0,0 -10,6.9 -29.2,2.4 0.1,0 4.7,-67.6 -0.9,-114.1 z" /><path
   style="fill:#7db241"
   inkscape:connector-curvature="0"
   id="path816"
   d="m 1180.9,384.20079 c 0,0 15.4,5.4 29.2,-2 0,0 -9.5,62.4 -6.3,104.2 0,0 -13.4,10.3 -31.6,0 0,-0.1 11.8,-60.8 8.7,-102.2 z" /><path
   style="fill:#7db241"
   inkscape:connector-curvature="0"
   id="path818"
   d="m 1172.2,489.60079 c 0,0 16.6,10.9 31.6,0 0,0 -8.7,75.9 0,116.9 0,0 -15,10.3 -31.6,0 0.1,0 7.1,-55.6 0,-116.9 z" /><path
   style="fill:#6da041"
   inkscape:connector-curvature="0"
   id="path820"
   d="m 1202,270.60079 c -1.3,0.2 -2.6,0.2 -3.9,0.2 -0.4,19 -1.2,80.8 1.6,110.8 0.5,-0.1 1,-0.2 1.5,-0.3 0,0 0.1,0 0.1,0 0.5,-0.1 0.9,-0.2 1.4,-0.3 0,0 0,0 0,0 0.4,-0.1 0.9,-0.2 1.2,-0.3 0,0 0.1,0 0.1,0 0.4,-0.1 0.8,-0.2 1.2,-0.4 -2.2,-13 -5.9,-45.1 -3.2,-109.7 z" /><path
   style="fill:#6da041"
   inkscape:connector-curvature="0"
   id="path822"
   d="m 1200.6,385.40079 c -1.7,17.8 -6.6,73.2 -6.6,104.9 2,-0.4 3.7,-0.9 5.1,-1.5 -1,-16.2 -1.1,-48.1 5.4,-104.4 -1.3,0.5 -2.6,0.8 -3.9,1 z" /><path
   style="fill:#6da041"
   inkscape:connector-curvature="0"
   id="path824"
   d="m 1198.6,492.50079 c -1.3,0.6 -2.7,1 -4,1.3 -1.2,19.1 -5.1,89.1 -2.7,117 2.3,-0.3 4.3,-0.9 6,-1.5 -1.6,-8.8 -5.8,-40.5 0.7,-116.8 z" /><path
   style="fill:#afd358"
   inkscape:connector-curvature="0"
   id="path826"
   d="m 1184.9,381.40079 c 3.3,0.5 6.2,0.7 8.9,0.7 l -2.5,-111.9 c -2.6,-0.5 -4.9,-1.1 -6.7,-1.8 1.1,16.5 3.9,66.4 0.3,113 z" /><path
   style="fill:#7db241"
   inkscape:connector-curvature="0"
   id="path828"
   d="m 1186.6,-75.29921 c 0,0 14.9,8.2 30.1,2.1 0,0 -6.3,38.7 0,109.6 0,0 -10,6.9 -29.2,2.4 0,0.1 4.6,-67.5 -0.9,-114.1 z" /><path
   style="fill:#6da041"
   inkscape:connector-curvature="0"
   id="path830"
   d="m 1208.7,-71.19921 c -1.3,0.2 -2.6,0.2 -3.9,0.2 -0.4,19 -1.2,80.8 1.6,110.8 0.5,-0.1 1,-0.2 1.5,-0.3 0,0 0.1,0 0.1,0 0.5,-0.1 0.9,-0.2 1.4,-0.3 0,0 0,0 0,0 0.4,-0.1 0.9,-0.2 1.2,-0.3 0,0 0.1,0 0.1,0 0.4,-0.1 0.8,-0.2 1.2,-0.4 -2.3,-13 -5.9,-45 -3.2,-109.7 z" /><path
   style="fill:#afd358"
   inkscape:connector-curvature="0"
   id="path832"
   d="m 1191.6,39.70079 c 3.3,0.5 6.2,0.7 8.9,0.7 l -2.5,-111.9 c -2.6,-0.5 -4.9,-1.1 -6.7,-1.8 1.1,16.5 3.9,66.3 0.3,113 z" /><path
   style="fill:#afd358"
   inkscape:connector-curvature="0"
   id="path834"
   d="m 1186.1,490.80079 6,-104.7 c -2.4,-0.1 -4.6,-0.4 -6.4,-0.7 -0.4,20.5 -2,63.6 -8.5,103.3 3.1,1.2 6.1,1.9 8.9,2.1 z" /><path
   style="fill:#7db241"
   inkscape:connector-curvature="0"
   id="path836"
   d="m 1187.7,41.00079 c 0,0 15.4,5.4 29.2,-2 0,0 -9.5,62.4 -6.3,104.2 0,0 -13.4,10.3 -31.6,0 0,0 11.9,-60.8 8.7,-102.2 z" /><path
   style="fill:#6da041"
   inkscape:connector-curvature="0"
   id="path838"
   d="m 1207.4,42.30079 c -1.7,17.8 -6.6,73.2 -6.6,104.9 2,-0.4 3.7,-0.9 5.1,-1.5 -1,-16.2 -1.1,-48.1 5.4,-104.4 -1.3,0.4 -2.6,0.8 -3.9,1 z" /><path
   style="fill:#afd358"
   inkscape:connector-curvature="0"
   id="path840"
   d="m 1192.9,147.60079 6,-104.7 c -2.4,-0.1 -4.6,-0.4 -6.4,-0.7 -0.4,20.5 -2,63.6 -8.5,103.3 3.1,1.3 6.1,1.9 8.9,2.1 z" /><path
   style="fill:#afd358"
   inkscape:connector-curvature="0"
   id="path842"
   d="m 1185.9,611.00079 -0.7,-116.8 c -2.6,-0.3 -4.9,-1 -6.9,-1.7 0.7,11.2 3.6,66.5 -1.8,116.3 3.3,1.3 6.4,2 9.4,2.2 z" /><path
   style="fill:#7db241"
   inkscape:connector-curvature="0"
   id="path844"
   d="m 1179,146.00079 c 0,0 16.6,10.9 31.6,0 0,0 -8.7,75.9 0,116.9 0,0 -15,10.3 -31.6,0 0.1,0 7.1,-55.6 0,-116.9 z" /><path
   style="fill:#6da041"
   inkscape:connector-curvature="0"
   id="path846"
   d="m 1205.4,148.90079 c -1.3,0.6 -2.7,1 -4,1.3 -1.2,19.1 -5.1,89.1 -2.7,117 2.3,-0.3 4.3,-0.9 6,-1.5 -1.6,-8.7 -5.7,-40.5 0.7,-116.8 z" /><path
   style="fill:#afd358"
   inkscape:connector-curvature="0"
   id="path848"
   d="m 1192.7,267.40079 -0.7,-116.8 c -2.6,-0.3 -4.9,-1 -6.9,-1.7 0.7,11.2 3.6,66.5 -1.8,116.3 3.3,1.3 6.5,2 9.4,2.2 z" /><path
   style="fill:#7db241"
   inkscape:connector-curvature="0"
   id="path850"
   d="m 1172.3,609.50079 c 0,0 16.6,10.9 31.6,0 0,0 -8.7,75.9 0,116.9 0,0 -15,10.3 -31.6,0 0,0 7.1,-55.6 0,-116.9 z" /><path
   style="fill:#6da041"
   inkscape:connector-curvature="0"
   id="path852"
   d="m 1198.6,612.40079 c -1.3,0.6 -2.7,1 -4,1.3 -1.2,19.1 -5.1,89.1 -2.7,117 2.3,-0.3 4.3,-0.9 6,-1.5 -1.5,-8.7 -5.7,-40.5 0.7,-116.8 z" /><path
   style="fill:#afd358"
   inkscape:connector-curvature="0"
   id="path854"
   d="m 1185.9,730.90079 -0.7,-116.8 c -2.6,-0.3 -4.9,-1 -6.9,-1.7 0.7,11.2 3.6,66.5 -1.8,116.3 3.3,1.3 6.5,2 9.4,2.2 z" /><path
   style="fill:#7db241"
   inkscape:connector-curvature="0"
   id="path858"
   d="m 1144.5,243.70079 c 0,0 14.9,8.2 30.1,2.1 0,0 -6.3,38.7 0,109.6 0,0 -10,6.9 -29.2,2.4 0,0 4.6,-67.6 -0.9,-114.1 z" /><path
   style="fill:#7db241"
   inkscape:connector-curvature="0"
   id="path860"
   d="m 1145.4,361.40079 c 0,0 15.4,5.4 29.2,-2 0,0 -9.5,62.4 -6.3,104.2 0,0 -13.4,10.3 -31.6,0 0.1,-0.1 11.9,-60.8 8.7,-102.2 z" /><path
   style="fill:#7db241"
   inkscape:connector-curvature="0"
   id="path862"
   d="m 1136.8,466.70079 c 0,0 16.6,10.9 31.6,0 0,0 -8.7,75.9 0,116.9 0,0 -15,10.3 -31.6,0 0,0.1 7.1,-55.5 0,-116.9 z" /><path
   style="fill:#6da041"
   inkscape:connector-curvature="0"
   id="path864"
   d="m 1166.5,247.80079 c -1.3,0.2 -2.6,0.2 -3.9,0.2 -0.4,19 -1.2,80.8 1.6,110.8 0.5,-0.1 1,-0.2 1.5,-0.3 0,0 0.1,0 0.1,0 0.5,-0.1 0.9,-0.2 1.4,-0.3 0,0 0,0 0,0 0.4,-0.1 0.9,-0.2 1.2,-0.3 0,0 0.1,0 0.1,0 0.4,-0.1 0.8,-0.2 1.2,-0.4 -2.2,-13.1 -5.8,-45.1 -3.2,-109.7 z" /><path
   style="fill:#6da041"
   inkscape:connector-curvature="0"
   id="path866"
   d="m 1165.1,362.60079 c -1.7,17.8 -6.6,73.2 -6.6,104.9 2,-0.4 3.7,-0.9 5.1,-1.5 -1,-16.2 -1.1,-48.1 5.4,-104.4 -1.3,0.5 -2.6,0.8 -3.9,1 z" /><path
   style="fill:#6da041"
   inkscape:connector-curvature="0"
   id="path868"
   d="m 1163.2,469.60079 c -1.3,0.6 -2.7,1 -4,1.3 -1.2,19.1 -5.1,89.1 -2.7,117 2.3,-0.3 4.3,-0.9 6,-1.5 -1.6,-8.7 -5.8,-40.5 0.7,-116.8 z" /><path
   style="fill:#afd358"
   inkscape:connector-curvature="0"
   id="path870"
   d="m 1149.4,358.60079 c 3.3,0.5 6.2,0.7 8.9,0.7 l -2.5,-111.9 c -2.6,-0.5 -4.9,-1.1 -6.7,-1.8 1.1,16.5 3.9,66.4 0.3,113 z" /><path
   style="fill:#7db241"
   inkscape:connector-curvature="0"
   id="path872"
   d="m 1151.1,-98.09921 c 0,0 14.9,8.2 30.1,2.1 0,0 -6.3,38.7 0,109.6 0,0 -10,6.9 -29.2,2.4 0.1,0 4.7,-67.6 -0.9,-114.1 z" /><path
   style="fill:#6da041"
   inkscape:connector-curvature="0"
   id="path874"
   d="m 1173.2,-93.99921 c -1.3,0.2 -2.6,0.2 -3.9,0.2 -0.4,19 -1.2,80.8 1.6,110.8 0.5,-0.1 1,-0.2 1.5,-0.3 0,0 0.1,0 0.1,0 0.5,-0.1 0.9,-0.2 1.4,-0.3 0,0 0,0 0,0 0.4,-0.1 0.9,-0.2 1.2,-0.3 0,0 0.1,0 0.1,0 0.4,-0.1 0.8,-0.2 1.2,-0.4 -2.2,-13 -5.9,-45.1 -3.2,-109.7 z" /><path
   style="fill:#afd358"
   inkscape:connector-curvature="0"
   id="path876"
   d="m 1156.1,16.90079 c 3.3,0.5 6.2,0.7 8.9,0.7 l -2.5,-111.9 c -2.6,-0.5 -4.9,-1.1 -6.7,-1.8 1.1,16.5 3.9,66.3 0.3,113 z" /><path
   style="fill:#afd358"
   inkscape:connector-curvature="0"
   id="path878"
   d="m 1150.6,468.00079 6,-104.7 c -2.4,-0.1 -4.6,-0.4 -6.4,-0.7 -0.4,20.5 -2,63.6 -8.5,103.3 3.2,1.2 6.2,1.8 8.9,2.1 z" /><path
   style="fill:#7db241"
   inkscape:connector-curvature="0"
   id="path880"
   d="m 1152.2,18.20079 c 0,0 15.4,5.4 29.2,-2 0,0 -9.5,62.4 -6.3,104.2 0,0 -13.4,10.3 -31.6,0 0.1,0 11.9,-60.8 8.7,-102.2 z" /><path
   style="fill:#6da041"
   inkscape:connector-curvature="0"
   id="path882"
   d="m 1171.9,19.50079 c -1.7,17.8 -6.6,73.2 -6.6,104.9 2,-0.4 3.7,-0.9 5.1,-1.5 -1,-16.2 -1.1,-48.1 5.4,-104.4 -1.3,0.4 -2.6,0.7 -3.9,1 z" /><path
   style="fill:#afd358"
   inkscape:connector-curvature="0"
   id="path884"
   d="m 1157.4,124.80079 6,-104.7 c -2.4,-0.1 -4.6,-0.4 -6.4,-0.7 -0.4,20.5 -2,63.6 -8.5,103.3 3.2,1.3 6.2,1.9 8.9,2.1 z" /><path
   style="fill:#afd358"
   inkscape:connector-curvature="0"
   id="path886"
   d="m 1150.4,588.20079 -0.7,-116.8 c -2.6,-0.3 -4.9,-1 -6.9,-1.7 0.7,11.2 3.6,66.5 -1.8,116.3 3.3,1.3 6.5,2 9.4,2.2 z" /><path
   style="fill:#7db241"
   inkscape:connector-curvature="0"
   id="path888"
   d="m 1143.6,123.20079 c 0,0 16.6,10.9 31.6,0 0,0 -8.7,75.9 0,116.9 0,0 -15,10.3 -31.6,0 0,0 7.1,-55.6 0,-116.9 z" /><path
   style="fill:#6da041"
   inkscape:connector-curvature="0"
   id="path890"
   d="m 1170,126.10079 c -1.3,0.6 -2.7,1 -4,1.3 -1.2,19.1 -5.1,89.1 -2.7,117 2.3,-0.3 4.3,-0.9 6,-1.5 -1.6,-8.8 -5.8,-40.5 0.7,-116.8 z" /><path
   style="fill:#afd358"
   inkscape:connector-curvature="0"
   id="path892"
   d="m 1157.2,244.60079 -0.7,-116.8 c -2.6,-0.3 -4.9,-1 -6.9,-1.7 0.7,11.2 3.6,66.5 -1.8,116.3 3.3,1.3 6.5,2 9.4,2.2 z" /><path
   style="fill:#7db241"
   inkscape:connector-curvature="0"
   id="path894"
   d="m 1136.8,586.70079 c 0,0 16.6,10.9 31.6,0 0,0 -8.7,75.9 0,116.9 0,0 -15,10.3 -31.6,0 0,0 7.1,-55.6 0,-116.9 z" /><path
   style="fill:#6da041"
   inkscape:connector-curvature="0"
   id="path896"
   d="m 1163.2,589.60079 c -1.3,0.6 -2.7,1 -4,1.3 -1.2,19.1 -5.1,89.1 -2.7,117 2.3,-0.3 4.3,-0.9 6,-1.5 -1.6,-8.8 -5.8,-40.5 0.7,-116.8 z" /><path
   style="fill:#afd358"
   inkscape:connector-curvature="0"
   id="path898"
   d="m 1150.5,708.10079 -0.7,-116.8 c -2.6,-0.3 -4.9,-1 -6.9,-1.7 0.7,11.2 3.6,66.5 -1.8,116.3 3.3,1.3 6.4,2 9.4,2.2 z" /><path
   d="m 1138.3,454.10079 c 0,0 1.7,-57.1 -45.2,-86.8 0,0 10.4,37 43.2,88 0,0 -16.8,-40.1 -31.3,-69.3 0,-0.1 22.7,37.1 33.3,68.1 z"
   id="path904"
   inkscape:connector-curvature="0"
   style="fill:#5ebb47" /><path
   d="m 1135.2,456.60079 c 0,0 -27.4,-50.1 -82.9,-52.1 0,0 27.7,26.7 81.7,54.2 0,0 -34.7,-26.1 -62,-44 0,0 38.4,20.5 63.2,41.9 z"
   id="path906"
   inkscape:connector-curvature="0"
   style="fill:#5ebb47" /><path
   d="m 1134.6,459.00079 c 0,0 -53.2,-20.8 -97,13.3 0,0 38.3,2.6 97.4,-11 0,0 -43.4,2.3 -75.8,6.1 0,0 42.6,-8.9 75.4,-8.4 z"
   id="path908"
   inkscape:connector-curvature="0"
   style="fill:#5ebb47" /><path
   d="m 1204.6,597.70079 c 0,0 -1.6,-52.5 41.5,-79.9 0,0 -9.6,34 -39.7,81 0,0 15.4,-36.9 28.7,-63.8 0.2,0.1 -20.7,34.2 -30.5,62.7 z"
   id="path912"
   inkscape:connector-curvature="0"
   style="fill:#5ebb47" /><path
   d="m 1207.5,600.10079 c 0,0 25.2,-46.1 76.2,-47.9 0,0 -25.5,24.5 -75.1,49.9 0,0 31.9,-24 57,-40.5 0,-0.1 -35.3,18.8 -58.1,38.5 z"
   id="path914"
   inkscape:connector-curvature="0"
   style="fill:#5ebb47" /><path
   d="m 1208,602.20079 c 0,0 48.9,-19.2 89.2,12.2 0,0 -35.3,2.5 -89.6,-10 0,0 39.9,2.1 69.7,5.6 0.1,0 -39.1,-8.2 -69.3,-7.8 z"
   id="path916"
   inkscape:connector-curvature="0"
   style="fill:#5ebb47" /><path
   d="m 1210.1,134.60079 c 0,0 9,-41.1 47.7,-53.9 0,0 -14,24.5 -46.5,55.1 0,0 19.1,-25.6 34.7,-43.9 0,0 -22.8,22.5 -35.9,42.7 z"
   id="path920"
   inkscape:connector-curvature="0"
   style="fill:#5ebb47" /><path
   d="m 1211.8,137.00079 c 0,0 28.5,-30.9 68.4,-22.4 0,0 -24.5,14.1 -68,24.1 0,0 29.5,-12.4 52.1,-20.4 0.1,0 -30.9,7.9 -52.5,18.7 z"
   id="path922"
   inkscape:connector-curvature="0"
   style="fill:#5ebb47" /><path
   d="m 1211.8,138.80079 c 0,0 41.7,-5.4 66.8,26.8 0,0 -27.8,-4.9 -67.6,-25.2 0,0 30.6,9.4 53,17.9 0.1,-0.1 -28.7,-14 -52.2,-19.5 z"
   id="path924"
   inkscape:connector-curvature="0"
   style="fill:#5ebb47" /><path
   d="m 1183,-92.09921 c 0,0 2.3,-33.5 31.5,-48.2 0,0 -8.3,21 -30.4,49 0,0 12.2,-22.5 22.3,-38.7 0.1,0 -15.4,20.4 -23.4,37.9 z"
   id="path928"
   inkscape:connector-curvature="0"
   style="fill:#5ebb47" /><path
   d="m 1184.7,-90.39921 c 0,0 19,-27.7 51.5,-25.7 0,0 -17.8,14 -51,26.9 0,0 21.8,-13.2 38.8,-22.2 0.1,0.1 -23.5,9.9 -39.3,21 z"
   id="path930"
   inkscape:connector-curvature="0"
   style="fill:#5ebb47" /><path
   d="m 1184.9,-88.99921 c 0,0 32.3,-9.1 56,13.4 0,0 -22.6,-0.7 -56.4,-12.1 0,0 25.3,3.9 44,8 0,0 -24.4,-7.6 -43.6,-9.3 z"
   id="path932"
   inkscape:connector-curvature="0"
   style="fill:#5ebb47" /><path
   d="m 1216.8,24.30079 c 0,0 22,-26.1 37.2,-55.7 l 3.7,2.3 c 0,0 -30.3,43.2 -39.4,60.5 z"
   id="path936"
   inkscape:connector-curvature="0"
   style="fill:#7db241" /><path
   d="m 1254.4,-32.39921 c 1.3,-1.8 19.2,-18.3 29.5,-33.9 l 2.2,1.1 c 0,0 -23.4,28.1 -28.2,35.7 z"
   id="path938"
   inkscape:connector-curvature="0"
   style="fill:#7db241" /><path
   d="m 1284.1,-66.69921 c 0.8,-1.9 5.2,-28.7 8.6,-41.2 0,0 -5.9,34 -6.5,42 z"
   id="path940"
   inkscape:connector-curvature="0"
   style="fill:#7db241" /><path
   style="fill:#5ebb47"
   inkscape:connector-curvature="0"
   id="path942"
   d="m 1254.8,-35.49921 c 0,0 15.5,-28.9 -3.5,-54.8 0,0 -3.5,21.3 2,55 0,0 0.7,-24.4 -0.1,-42.7 0.1,0 3.5,24.2 1.6,42.5 z" /><path
   style="fill:#5ebb47"
   inkscape:connector-curvature="0"
   id="path944"
   d="m 1252.4,-34.89921 c 0,0 -2.8,-32 -33.8,-45.7 0,0 8.9,20 32.6,46.5 0,0 -13.1,-21.3 -24,-36.8 0,0 16.6,19.3 25.2,36 z" /><path
   style="fill:#5ebb47"
   inkscape:connector-curvature="0"
   id="path946"
   d="m 1251.5,-33.79921 c 0,0 -24.9,-22.9 -58.4,-15.5 0,0 21.1,10.2 58.1,16.8 0,0 -25.2,-8.8 -44.6,-14.3 -0.1,-0.1 26.4,5.2 44.9,13 z" /><path
   style="fill:#5ebb47"
   inkscape:connector-curvature="0"
   id="path950"
   d="m 1221.4,31.20079 c 0,0 14.1,-29.6 46.3,-29.5 0,0 -15.2,15.4 -45.6,30.8 0,0 19.3,-14.9 34.5,-25.1 0.1,0 -21.5,11.5 -35.2,23.8 z" /><path
   style="fill:#5ebb47"
   inkscape:connector-curvature="0"
   id="path952"
   d="m 1222.4,33.50079 c 0,0 27.4,-16.6 56.8,0.3 0,0 -21.4,4.6 -56.8,1.1 0,0 24.9,-2 43.9,-2.3 0,0 -25.4,-1.9 -43.9,0.9 z" /><path
   style="fill:#5ebb47"
   inkscape:connector-curvature="0"
   id="path954"
   d="m 1222.1,34.90079 c 0,0 33.2,6.6 47,38.1 0,0 -20.7,-11 -47.8,-37 0,0 22,15.2 37.9,27.6 -0.1,-0.1 -19.9,-18.3 -37.1,-28.7 z" /><path
   style="fill:#5ebb47"
   inkscape:connector-curvature="0"
   id="path958"
   d="m 1286.6,-66.79921 c 0,0 7.1,-14.8 23.3,-14.8 0,0 -7.6,7.7 -22.9,15.4 0,0 9.7,-7.5 17.3,-12.6 0,0 -10.9,5.8 -17.7,12 z" /><path
   style="fill:#5ebb47"
   inkscape:connector-curvature="0"
   id="path960"
   d="m 1287,-65.59921 c 0,0 13.8,-8.3 28.5,0.1 0,0 -10.7,2.3 -28.5,0.6 0,0 12.5,-1 22,-1.2 0.1,0 -12.7,-1 -22,0.5 z" /><path
   style="fill:#5ebb47"
   inkscape:connector-curvature="0"
   id="path962"
   d="m 1286.9,-64.99921 c 0,0 16.6,3.3 23.6,19.1 0,0 -10.4,-5.5 -24,-18.6 0,0 11,7.6 19,13.8 0,0.1 -10,-9.1 -18.6,-14.3 z" /><path
   d="m 1082.2,144.40079 c -0.7,-1.8 -4.8,-26.4 -7.9,-37.8 0,0 5.4,31.3 6,38.6 z"
   id="path968"
   inkscape:connector-curvature="0"
   style="fill:#7db241" /><path
   style="fill:#5ebb47"
   inkscape:connector-curvature="0"
   id="path970"
   d="m 1079.9,144.40079 c 0,0 -6.5,-13.6 -21.4,-13.6 0,0 7,7.1 21,14.2 0,0 -8.9,-6.9 -15.9,-11.6 0,0 10,5.3 16.3,11 z" /><path
   style="fill:#5ebb47"
   inkscape:connector-curvature="0"
   id="path972"
   d="m 1079.4,145.40079 c 0,0 -12.7,-7.7 -26.2,0.1 0,0 9.9,2.1 26.2,0.5 0,0 -11.5,-0.9 -20.2,-1.1 0,0.1 11.7,-0.8 20.2,0.5 z" /><path
   style="fill:#5ebb47"
   inkscape:connector-curvature="0"
   id="path974"
   d="m 1079.6,146.10079 c 0,0 -15.3,3.1 -21.7,17.6 0,0 9.5,-5.1 22.1,-17.1 0,0 -10.1,7 -17.5,12.7 0,0 9.2,-8.5 17.1,-13.2 z" /><path
   d="m 1144,228.10079 c 0,0 -20.2,-24 -34.2,-51.2 l -3.4,2.1 c 0,0 27.9,39.7 36.3,55.6 z"
   id="path978"
   inkscape:connector-curvature="0"
   style="fill:#7db241" /><path
   d="m 1109.4,175.90079 c -1.2,-1.6 -17.6,-16.8 -27.2,-31.2 l -2,1 c 0,0 21.5,25.9 25.9,32.8 z"
   id="path980"
   inkscape:connector-curvature="0"
   style="fill:#7db241" /><path
   style="fill:#5ebb47"
   inkscape:connector-curvature="0"
   id="path982"
   d="m 1108.3,173.50079 c 0,0 -12.2,-22.7 2.7,-43.1 0,0 2.8,16.8 -1.6,43.2 0,0 -0.5,-19.2 0,-33.6 0.1,0.1 -2.6,19.1 -1.1,33.5 z" /><path
   style="fill:#5ebb47"
   inkscape:connector-curvature="0"
   id="path984"
   d="m 1110.2,174.00079 c 0,0 2.2,-25.1 26.5,-36 0,0 -7,15.7 -25.6,36.6 0,0 10.3,-16.8 18.8,-29 0.1,0.1 -12.9,15.3 -19.7,28.4 z" /><path
   style="fill:#5ebb47"
   inkscape:connector-curvature="0"
   id="path986"
   d="m 1110.9,174.80079 c 0,0 19.6,-18 46,-12.2 0,0 -16.6,8 -45.7,13.2 0,0 19.8,-6.9 35.1,-11.3 0,0.1 -20.8,4.2 -35.4,10.3 z" /><path
   style="fill:#5ebb47"
   inkscape:connector-curvature="0"
   id="path990"
   d="m 1139.8,234.50079 c 0,0 -13,-27.2 -42.6,-27.1 0,0 13.9,14.2 41.9,28.3 0,0 -17.7,-13.7 -31.7,-23.1 0,0 19.8,10.5 32.4,21.9 z" /><path
   style="fill:#5ebb47"
   inkscape:connector-curvature="0"
   id="path992"
   d="m 1138.9,236.60079 c 0,0 -25.2,-15.3 -52.3,0.3 0,0 19.7,4.2 52.2,1 0,0 -22.9,-1.9 -40.3,-2.1 0,0 23.4,-1.8 40.4,0.8 z" /><path
   style="fill:#5ebb47"
   inkscape:connector-curvature="0"
   id="path994"
   d="m 1139.2,237.90079 c 0,0 -30.5,6.1 -43.2,35 0,0 19,-10.2 44,-34.1 0,0 -20.2,14 -34.8,25.4 0,0 18.2,-16.8 34,-26.3 z" /><path
   d="m 1137.5,687.60079 c 0,0 -27.1,-32.2 -45.9,-68.6 l -4.5,2.8 c 0,0 37.3,53.2 48.6,74.5 z"
   id="path1000"
   inkscape:connector-curvature="0"
   style="fill:#7db241" /><path
   d="m 1091.1,617.70079 c -1.6,-2.2 -23.6,-22.5 -36.4,-41.8 l -2.7,1.3 c 0,0 28.9,34.6 34.7,43.9 z"
   id="path1002"
   inkscape:connector-curvature="0"
   style="fill:#7db241" /><path
   d="m 1054.6,575.50079 c -1,-2.4 -6.4,-35.4 -10.6,-50.7 0,0 7.3,41.9 8.1,51.8 z"
   id="path1004"
   inkscape:connector-curvature="0"
   style="fill:#7db241" /><path
   style="fill:#5ebb47"
   inkscape:connector-curvature="0"
   id="path1006"
   d="m 1090.7,614.00079 c 0,0 -19.1,-35.5 4.3,-67.5 0,0 4.3,26.3 -2.5,67.7 0,0 -0.9,-30 0.1,-52.6 0,0 -4.3,29.8 -1.9,52.4 z" /><path
   style="fill:#5ebb47"
   inkscape:connector-curvature="0"
   id="path1008"
   d="m 1093.7,614.70079 c 0,0 3.4,-39.4 41.6,-56.3 0,0 -11,24.7 -40.1,57.3 0,0 16.1,-26.3 29.5,-45.3 -0.1,-0.1 -20.4,23.8 -31,44.3 z" /><path
   style="fill:#5ebb47"
   inkscape:connector-curvature="0"
   id="path1010"
   d="m 1094.8,616.00079 c 0,0 30.7,-28.2 72,-19.1 0,0 -26,12.5 -71.6,20.7 0,0 31.1,-10.9 54.9,-17.7 0.1,0.1 -32.5,6.5 -55.3,16.1 z" /><path
   style="fill:#5ebb47"
   inkscape:connector-curvature="0"
   id="path1014"
   d="m 1131.8,696.20079 c 0,0 -17.4,-36.4 -57.1,-36.3 0,0 18.7,19 56.2,37.9 0,0 -23.8,-18.4 -42.5,-30.9 0,-0.1 26.6,14.1 43.4,29.3 z" /><path
   style="fill:#5ebb47"
   inkscape:connector-curvature="0"
   id="path1016"
   d="m 1130.7,699.00079 c 0,0 -33.8,-20.5 -70,0.4 0,0 26.4,5.7 69.9,1.4 0,0 -30.7,-2.5 -54,-2.9 0,0 31.2,-2.4 54.1,1.1 z" /><path
   style="fill:#5ebb47"
   inkscape:connector-curvature="0"
   id="path1018"
   d="m 1131,700.70079 c 0,0 -40.9,8.2 -57.9,46.9 0,0 25.4,-13.6 58.9,-45.6 0,0 -27.1,18.7 -46.6,34 0.1,0 24.5,-22.5 45.6,-35.3 z" /><path
   style="fill:#5ebb47"
   inkscape:connector-curvature="0"
   id="path1022"
   d="m 1051.5,575.40079 c 0,0 -8.7,-18.3 -28.7,-18.2 0,0 9.4,9.5 28.2,19 0,0 -11.9,-9.2 -21.3,-15.5 0,0 13.4,7.1 21.8,14.7 z" /><path
   style="fill:#5ebb47"
   inkscape:connector-curvature="0"
   id="path1024"
   d="m 1051,576.90079 c 0,0 -17,-10.3 -35.1,0.2 0,0 13.2,2.8 35.1,0.7 0,0 -15.4,-1.3 -27.1,-1.4 -0.1,-0.1 15.6,-1.3 27.1,0.5 z" /><path
   style="fill:#5ebb47"
   inkscape:connector-curvature="0"
   id="path1026"
   d="m 1051.2,577.70079 c 0,0 -20.5,4.1 -29,23.5 0,0 12.8,-6.8 29.6,-22.9 0,0 -13.6,9.4 -23.4,17 -0.1,0.1 12.1,-11.2 22.8,-17.6 z" /><path
   d="m 1272.4,284.20079 c 0.7,-1.8 4.8,-26.4 7.9,-37.9 0,0 -5.4,31.3 -6,38.6 z"
   id="path1032"
   inkscape:connector-curvature="0"
   style="fill:#7db241" /><path
   style="fill:#5ebb47"
   inkscape:connector-curvature="0"
   id="path1034"
   d="m 1274.7,284.10079 c 0,0 6.5,-13.6 21.4,-13.6 0,0 -7,7.1 -21,14.2 0,0 8.9,-6.9 15.9,-11.6 0,0 -10,5.3 -16.3,11 z" /><path
   style="fill:#5ebb47"
   inkscape:connector-curvature="0"
   id="path1036"
   d="m 1275.1,285.20079 c 0,0 12.7,-7.7 26.2,0.1 0,0 -9.9,2.1 -26.2,0.5 0,0 11.5,-0.9 20.2,-1.1 0.1,0 -11.6,-0.9 -20.2,0.5 z" /><path
   style="fill:#5ebb47"
   inkscape:connector-curvature="0"
   id="path1038"
   d="m 1275,285.80079 c 0,0 15.3,3 21.7,17.6 0,0 -9.5,-5.1 -22.1,-17.1 0,0 10.1,7 17.5,12.7 0,0 -9.2,-8.4 -17.1,-13.2 z" /><path
   d="m 1210.6,367.80079 c 0,0 20.2,-24 34.2,-51.2 l 3.4,2.1 c 0,0 -27.9,39.7 -36.2,55.6 z"
   id="path1042"
   inkscape:connector-curvature="0"
   style="fill:#7db241" /><path
   d="m 1245.2,315.70079 c 1.2,-1.6 17.6,-16.8 27.1,-31.2 l 2,1 c 0,0 -21.5,25.9 -25.9,32.8 z"
   id="path1044"
   inkscape:connector-curvature="0"
   style="fill:#7db241" /><path
   style="fill:#5ebb47"
   inkscape:connector-curvature="0"
   id="path1046"
   d="m 1246.3,313.30079 c 0,0 12.2,-22.7 -2.8,-43.1 0,0 -2.8,16.8 1.6,43.2 0,0 0.5,-19.2 -0.1,-33.6 0.1,0 2.8,19.1 1.3,33.5 z" /><path
   style="fill:#5ebb47"
   inkscape:connector-curvature="0"
   id="path1048"
   d="m 1244.4,313.70079 c 0,0 -2.2,-25.1 -26.5,-36 0,0 7,15.7 25.6,36.6 0,0 -10.3,-16.8 -18.9,-28.9 0,0 13,15.2 19.8,28.3 z" /><path
   style="fill:#5ebb47"
   inkscape:connector-curvature="0"
   id="path1050"
   d="m 1243.7,314.60079 c 0,0 -19.6,-18 -46,-12.2 0,0 16.6,8 45.7,13.2 0,0 -19.8,-6.9 -35.1,-11.3 0,0 20.8,4.2 35.4,10.3 z" /><path
   style="fill:#5ebb47"
   inkscape:connector-curvature="0"
   id="path1054"
   d="m 1214.8,374.20079 c 0,0 13,-27.2 42.6,-27.1 0,0 -13.9,14.2 -41.9,28.3 0,0 17.7,-13.7 31.7,-23.1 0,0 -19.8,10.6 -32.4,21.9 z" /><path
   style="fill:#5ebb47"
   inkscape:connector-curvature="0"
   id="path1056"
   d="m 1215.7,376.40079 c 0,0 25.2,-15.3 52.3,0.3 0,0 -19.7,4.2 -52.2,1 0,0 22.9,-1.9 40.3,-2.2 0,0 -23.4,-1.8 -40.4,0.9 z" /><path
   style="fill:#5ebb47"
   inkscape:connector-curvature="0"
   id="path1058"
   d="m 1215.4,377.60079 c 0,0 30.5,6.1 43.2,35 0,0 -19,-10.1 -44,-34 0,0 20.2,14 34.8,25.3 0,0 -18.2,-16.8 -34,-26.3 z" />
</svg>