<?xml version="1.0" encoding="UTF-8" standalone="no"?>
<!-- Generator: Adobe Illustrator 18.0.0, SVG Export Plug-In . SVG Version: 6.00 Build 0)  -->

<svg
   xmlns:dc="http://purl.org/dc/elements/1.1/"
   xmlns:cc="http://creativecommons.org/ns#"
   xmlns:rdf="http://www.w3.org/1999/02/22-rdf-syntax-ns#"
   xmlns:svg="http://www.w3.org/2000/svg"
   xmlns="http://www.w3.org/2000/svg"
   xmlns:sodipodi="http://sodipodi.sourceforge.net/DTD/sodipodi-0.dtd"
   xmlns:inkscape="http://www.inkscape.org/namespaces/inkscape"
   version="1.1"
   id="Layer_1"
   x="0px"
   y="0px"
   viewBox="0 0 1122.5197 793.70079"
   enable-background="new 0 0 1400 980"
   xml:space="preserve"
   sodipodi:docname="yoshi.svg"
   width="297mm"
   height="210mm"
   inkscape:version="0.92.4 (5da689c313, 2019-01-14)"><metadata
   id="metadata1075"><rdf:RDF><cc:Work
       rdf:about=""><dc:format>image/svg+xml</dc:format><dc:type
         rdf:resource="http://purl.org/dc/dcmitype/StillImage" /><dc:title /></cc:Work></rdf:RDF></metadata><defs
   id="defs1073" /><sodipodi:namedview
   pagecolor="#ffffff"
   bordercolor="#666666"
   borderopacity="1"
   objecttolerance="10"
   gridtolerance="10"
   guidetolerance="10"
   inkscape:pageopacity="0"
   inkscape:pageshadow="2"
   inkscape:window-width="1366"
   inkscape:window-height="705"
   id="namedview1071"
   showgrid="false"
   inkscape:pagecheckerboard="true"
   units="mm"
   inkscape:zoom="0.34056571"
   inkscape:cx="426.56418"
   inkscape:cy="488.39377"
   inkscape:window-x="-8"
   inkscape:window-y="-8"
   inkscape:window-maximized="1"
   inkscape:current-layer="Layer_1"
   inkscape:snap-global="false"
   inkscape:snap-bbox="true"
   inkscape:bbox-paths="true"
   inkscape:bbox-nodes="true"
   inkscape:snap-bbox-edge-midpoints="true"
   inkscape:snap-bbox-midpoints="true"
   inkscape:object-paths="true"
   inkscape:snap-intersection-paths="true"
   inkscape:snap-smooth-nodes="true"
   inkscape:snap-midpoints="true" />

<g
   id="g4479"
   transform="matrix(1.841058,0,0,1.841058,-539.93217,-322.42816)"><path
     inkscape:connector-curvature="0"
     id="path4459"
     d="m 457.50791,466.66146 c -0.18588,-0.0214 -0.29473,0.0625 -0.3457,0.20899 -0.10194,0.29305 0.0268,0.83571 0.23242,1.28515 0.23916,0.5228 0.60774,1.43979 1.20899,2.35742 0.56067,0.8557 1.40276,1.63227 2.48828,2.31641 1.08552,0.68414 2.41523,1.27534 3.94922,1.76367 1.53399,0.48834 3.27165,0.87235 5.17773,1.14063 1.90608,0.26828 3.97985,0.42133 6.18164,0.44531 3.61926,0.0394 5.46976,0.0445 6.41602,-0.27149 0.47313,-0.158 0.72096,-0.39501 0.84961,-0.75 0.12864,-0.35496 0.13867,-0.82715 0.13867,-1.45117 0,-0.62139 -0.0116,-1.09086 -0.14258,-1.44726 -0.13102,-0.35641 -0.38239,-0.59976 -0.85742,-0.76563 -0.95006,-0.33172 -2.80023,-0.35679 -6.4043,-0.37304 -2.26615,-0.0102 -4.66101,-0.2053 -6.91797,-0.54688 -2.25695,-0.34158 -4.37599,-0.82964 -6.09179,-1.42187 -1.99814,-0.68968 -4.17649,-1.37877 -5.07422,-2.06641 -0.35949,-0.27536 -0.62271,-0.40237 -0.8086,-0.42383 z m 88.5293,4.61719 c -0.46074,-0.006 -1.17649,0.1163 -2.21484,0.34375 -1.83563,0.40207 -7.8318,0.78414 -13.16797,1.24609 -2.96787,0.25694 -6.55057,0.45638 -9.76563,0.86524 -2.56555,0.32626 -4.76755,1.18057 -6.36914,1.46484 -1.84202,0.32695 -3.92052,0.49624 -6.08203,0.52539 -2.1615,0.0292 -4.40643,-0.0828 -6.58203,-0.31836 -2.1756,-0.23558 -4.28172,-0.59525 -6.16601,-1.0625 -1.8843,-0.46725 -3.54637,-1.04118 -4.83399,-1.70703 -1.27375,-0.65868 -2.01473,-0.99052 -2.4375,-1 -0.21139,-0.005 -0.34294,0.0708 -0.42187,0.22656 -0.0789,0.15578 -0.10547,0.39193 -0.10547,0.70703 0,0.66928 0.37004,1.4169 1.0039,2.17188 0.63387,0.75498 1.53168,1.51636 2.58789,2.2168 1.05622,0.70043 2.27007,1.34006 3.53711,1.8457 1.26705,0.50564 2.58716,0.87824 3.85352,1.04883 2.66542,0.35905 5.30549,0.8195 5.86719,1.02344 0.43255,0.15701 1.39702,0.19003 2.68554,0.12695 1.28853,-0.0631 2.90099,-0.2213 4.62696,-0.44922 3.45192,-0.45585 7.36031,-1.18708 10.05078,-1.9707 2.80852,-0.818 8.55286,-1.84216 12.76562,-2.27735 4.36161,-0.45056 7.06797,-0.84723 8.79102,-1.41211 0.86152,-0.28244 1.47751,-0.60828 1.93164,-1.00195 0.45413,-0.39367 0.74604,-0.85602 0.96094,-1.41602 0.15762,-0.41075 0.22076,-0.70696 0.14843,-0.90234 -0.0723,-0.19538 -0.2801,-0.28992 -0.66406,-0.29492 z"
     style="opacity:1;fill:#d6aa31;fill-opacity:1;stroke:none;stroke-width:13;stroke-miterlimit:4;stroke-dasharray:none;stroke-opacity:1" /><path
     inkscape:connector-curvature="0"
     id="path4453"
     d="m 466.02745,435.37826 c -0.48203,-0.0357 -0.95446,0.0295 -1.43555,0.19726 -0.48109,0.16772 -0.97025,0.43711 -1.48828,0.8125 -1.03607,0.75078 -2.18452,1.92205 -3.59571,3.5293 -0.9916,1.12938 -1.77996,2.13678 -2.39453,3.13477 -0.61457,0.99798 -1.05557,1.98607 -1.35547,3.08007 -0.29989,1.094 -0.45828,2.29352 -0.50585,3.71094 -0.0476,1.41743 0.0158,3.05323 0.1582,5.02149 0.14051,1.94258 0.39686,3.61022 0.80469,5.05468 0.40782,1.44447 0.96754,2.66648 1.71679,3.7168 0.74926,1.05032 1.68677,1.92932 2.85156,2.68945 1.16481,0.76014 2.55649,1.4007 4.21094,1.97461 1.29599,0.44957 3.12047,0.83023 5.12696,1.125 2.00648,0.29477 4.19533,0.503 6.22265,0.60742 2.02732,0.10443 3.89151,0.10584 5.25,-0.0156 0.67925,-0.0607 1.23251,-0.15152 1.61524,-0.27539 0.38272,-0.12387 0.5957,-0.28121 0.5957,-0.47266 0,-0.4754 -0.80446,-2.42996 -1.78711,-4.34179 -0.46397,-0.9027 -0.84969,-2.22478 -1.14453,-3.75977 -0.29484,-1.53499 -0.49972,-3.28299 -0.60156,-5.03906 -0.10185,-1.75608 -0.0994,-3.51999 0.0156,-5.08594 0.11501,-1.56595 0.3435,-2.93382 0.69922,-3.89844 0.15085,-0.40906 0.23602,-0.75798 0.24219,-1.06836 0.006,-0.31037 -0.0669,-0.5831 -0.23242,-0.83593 -0.33114,-0.50568 -1.0326,-0.93654 -2.2129,-1.45899 -0.81432,-0.36045 -2.05236,-1.12747 -3.39257,-2.07226 -1.34022,-0.9448 -2.7826,-2.06737 -4.00196,-3.14063 -1.13236,-0.99668 -2.09701,-1.76645 -2.96679,-2.30078 -0.86979,-0.53433 -1.64471,-0.83321 -2.39453,-0.88867 z m 37.47265,3.0957 c -1.55196,-0.0181 -3.07673,0.13181 -4.54687,0.45117 -1.47015,0.31937 -2.88598,0.80737 -4.22266,1.46485 -1.33668,0.65747 -2.59258,1.48428 -3.74414,2.48047 -1.15156,0.99618 -2.19848,2.16254 -3.11328,3.49804 -0.57915,0.84549 -1.05477,1.81817 -1.43164,2.88086 -0.37687,1.06269 -0.6548,2.21601 -0.83985,3.41797 -0.18504,1.20196 -0.27758,2.4535 -0.28125,3.7168 -0.004,1.26329 0.0808,2.53844 0.24805,3.78515 0.16727,1.24671 0.41835,2.465 0.7461,3.61719 0.32774,1.15219 0.73315,2.23705 1.21093,3.2168 0.47778,0.97975 1.02717,1.85461 1.64453,2.58398 0.61737,0.72938 1.30233,1.31377 2.04883,1.71485 1.05799,0.56842 2.23172,1.0711 3.59766,1.49218 1.36594,0.42109 2.92343,0.76035 4.74805,1.00196 1.8246,0.2416 3.91757,0.38601 6.35156,0.41601 2.43398,0.03 5.21022,-0.0538 8.40429,-0.26758 1.71492,-0.11475 4.63235,-1.15944 6.55469,-1.31445 2.75749,-0.22236 6.6498,-0.82366 9.87891,-1.1543 2.72289,-0.27879 4.89654,-0.53988 6.66015,-0.86718 1.76362,-0.32731 3.11711,-0.72085 4.19922,-1.25977 1.08212,-0.53891 1.89193,-1.22505 2.57032,-2.13867 0.67838,-0.91362 1.22492,-2.05444 1.77734,-3.50586 0.61916,-1.62681 0.91447,-2.64929 0.84375,-3.69727 -0.0707,-1.04797 -0.50748,-2.12143 -1.35352,-3.85351 -0.81937,-1.67749 -1.40108,-2.64115 -2.10742,-3.1582 -0.35317,-0.25853 -0.73803,-0.40636 -1.19922,-0.47461 -0.46118,-0.0683 -0.99814,-0.0574 -1.6582,-0.002 l -3.06445,0.25586 2.79492,-1.55859 c 1.23369,-0.6884 2.16624,-1.58821 2.79687,-2.57813 0.63064,-0.98991 0.95997,-2.07073 0.98243,-3.12304 0.0224,-1.05232 -0.26072,-2.07558 -0.85157,-2.95117 -0.29542,-0.4378 -0.66748,-0.83872 -1.11718,-1.1875 -0.44971,-0.3488 -0.9774,-0.64513 -1.58204,-0.875 -0.65242,-0.24807 -2.22142,-0.46248 -4.20703,-0.63086 -1.98561,-0.16839 -4.38771,-0.29147 -6.70898,-0.35352 -2.32127,-0.062 -4.56131,-0.0631 -6.2207,0.008 -1.6594,0.071 -2.73829,0.2147 -2.73829,0.44531 0,0.26135 1.37935,2.64951 3.06446,5.30665 1.07294,1.69185 1.84842,2.98432 2.32031,3.88281 0.47189,0.89848 0.64092,1.40307 0.49805,1.51953 -0.14288,0.11646 -0.59779,-0.15437 -1.36914,-0.80859 -0.77136,-0.65422 -1.85988,-1.69191 -3.27344,-3.10547 -1.36212,-1.36212 -2.80009,-2.55698 -4.28711,-3.58399 -1.48702,-1.02701 -3.0237,-1.88681 -4.58398,-2.57812 -1.5603,-0.69131 -3.14462,-1.21334 -4.72657,-1.56836 -1.58194,-0.35503 -3.16093,-0.5424 -4.71289,-0.56055 z"
     style="opacity:1;fill:#c6602e;fill-opacity:1;stroke:none;stroke-width:13;stroke-miterlimit:4;stroke-dasharray:none;stroke-opacity:1" /><path
     inkscape:connector-curvature="0"
     id="path4447"
     d="m 512.63487,298.4349 c -0.58603,-0.0105 -1.21243,-0.008 -1.89063,0.002 -2.30453,0.0346 -4.42076,0.24304 -6.40625,0.65039 -1.98548,0.40735 -3.83977,1.01275 -5.61914,1.84571 -1.77936,0.83295 -3.48374,1.8937 -5.16992,3.20507 -1.68618,1.31137 -3.35462,2.87419 -5.06055,4.7168 -1.54077,1.66422 -2.86273,3.30557 -3.98047,4.96484 -1.11773,1.65928 -2.03179,3.33662 -2.75976,5.07032 -0.72798,1.7337 -1.26913,3.5246 -1.64063,5.41211 -0.37149,1.88751 -0.57278,3.87148 -0.62109,5.99218 -0.0527,2.3138 0.009,3.72788 0.38672,4.82422 0.18883,0.54817 0.4567,1.01717 0.82812,1.47852 0.37143,0.46135 0.84715,0.916 1.45118,1.43554 1.15813,0.9962 1.77624,1.59671 1.91015,1.94727 0.067,0.17528 0.0118,0.28822 -0.15625,0.35742 -0.168,0.0692 -0.44901,0.0937 -0.83789,0.0937 -0.51487,0 -1.24077,-0.18075 -1.99414,-0.4707 -0.75337,-0.28995 -1.5342,-0.6891 -2.16211,-1.12891 -0.54452,-0.3814 -0.97492,-0.65844 -1.39258,-0.79101 -0.41765,-0.13257 -0.82187,-0.12141 -1.3164,0.0762 -0.98907,0.39516 -2.33636,1.53266 -4.85547,3.73633 -1.45244,1.27055 -3.38208,2.6895 -5.32031,3.95117 -1.93824,1.26167 -3.88507,2.36605 -5.37305,3.00977 -1.48799,0.6437 -2.84249,1.30951 -3.82617,1.86523 -0.98369,0.55572 -1.59657,1.00136 -1.60157,1.20117 -0.007,0.30168 0.44089,0.62378 1.23047,0.94141 0.78959,0.31763 1.92012,0.62985 3.28125,0.91601 2.72226,0.57233 6.36281,1.03526 10.01953,1.19727 3.78851,0.16784 6.88958,0.37408 6.89258,0.45898 0.003,0.085 -1.52671,1.05858 -3.40039,2.16407 -0.67941,0.40086 -1.26765,0.82186 -1.80273,1.32226 -0.53509,0.5004 -1.01733,1.07956 -1.48438,1.79688 -0.93408,1.43463 -1.80806,3.42115 -2.92773,6.42773 -0.79102,2.12409 -1.54384,4.46275 -2.22656,6.875 -0.68273,2.41225 -1.29602,4.89738 -1.81055,7.31641 -0.51453,2.41903 -0.93034,4.77158 -1.2168,6.91601 -0.28646,2.14444 -0.4429,4.08146 -0.4414,5.66992 l 0.004,4.25 1.9336,-3.16992 c 0.53172,-0.87198 1.41326,-1.91109 2.40625,-2.88281 0.99298,-0.97172 2.09741,-1.87603 3.07226,-2.47852 1.09168,-0.67469 2.20607,-1.18461 3.35352,-1.52929 1.14744,-0.34469 2.32819,-0.5242 3.54882,-0.53907 1.22065,-0.0149 2.48171,0.13443 3.79297,0.44922 1.31127,0.3148 2.67248,0.79519 4.0918,1.43946 2.15926,0.98015 3.24365,1.46954 3.92773,1.45312 0.34205,-0.008 0.58407,-0.14283 0.81055,-0.40625 0.22648,-0.26342 0.43707,-0.65506 0.7168,-1.17773 0.41286,-0.77144 0.61191,-1.60839 0.59375,-2.68946 -0.0182,-1.08106 -0.25354,-2.40624 -0.70899,-4.15039 -0.33477,-1.28196 -0.64763,-3.33999 -0.91406,-5.74218 -0.26643,-2.4022 -0.48707,-5.14904 -0.63672,-7.81055 -0.14964,-2.66151 -0.22847,-5.23697 -0.21289,-7.29688 0.0156,-2.0599 0.12623,-3.60377 0.35547,-4.20117 0.15465,-0.40299 0.60362,-0.84688 1.20117,-1.23633 0.59756,-0.38944 1.34369,-0.72446 2.09571,-0.9121 1.38801,-0.34637 2.86949,-0.82492 4.41015,-1.41211 1.54066,-0.58719 3.14004,-1.28208 4.76367,-2.06446 3.24728,-1.56475 6.59081,-3.47528 9.75196,-5.54687 3.16114,-2.07159 6.14058,-4.30435 8.6582,-6.51758 1.25881,-1.10662 2.40306,-2.20965 3.39649,-3.2832 0.99341,-1.07356 1.83578,-2.11844 2.49414,-3.11328 0.86362,-1.30503 1.64108,-2.73677 2.32031,-4.25 0.67923,-1.51324 1.25988,-3.1081 1.72851,-4.73829 0.46864,-1.63018 0.82675,-3.29531 1.0586,-4.95117 0.23185,-1.65586 0.33777,-3.30231 0.30664,-4.89258 -0.0415,-2.11881 -0.12262,-3.80459 -0.31446,-5.1914 -0.19182,-1.38681 -0.49409,-2.47529 -0.97656,-3.39844 -0.48247,-0.92315 -1.14516,-1.68036 -2.05859,-2.4082 -0.91343,-0.72785 -2.0778,-1.42568 -3.5625,-2.22657 -1.94844,-1.05103 -3.45204,-1.73829 -4.98047,-2.17187 -1.52843,-0.43358 -3.08171,-0.61349 -5.13281,-0.65039 z m -8.50977,115.46094 -2.75586,2.29492 c -0.75775,0.6311 -1.71138,1.74862 -2.63672,3.04101 -0.92533,1.2924 -1.82238,2.75968 -2.46875,4.08985 -0.77731,1.59965 -1.6512,2.97561 -2.66015,4.15234 -1.00895,1.17673 -2.15357,2.15473 -3.47071,2.95508 -1.31713,0.80035 -2.80595,1.42401 -4.50781,1.89453 -1.70186,0.47052 -3.61616,0.78739 -5.7793,0.97461 l -6.6875,0.58008 5.06836,3.30664 c 2.78752,1.81892 5.41566,3.31136 5.8418,3.31836 0.42614,0.006 2.61876,-1.32156 4.8711,-2.95313 1.54178,-1.11687 3.09141,-2.02827 4.65624,-2.73437 1.56485,-0.70611 3.14405,-1.20755 4.74805,-1.50586 1.604,-0.29831 3.2333,-0.39362 4.89258,-0.28711 1.65928,0.10651 3.34941,0.41547 5.08008,0.92383 1.69243,0.49713 4.45169,0.95542 7.81445,1.32422 3.36276,0.36879 7.32901,0.64808 11.4375,0.78711 l 13.63477,0.46093 5.54687,-4.27734 c 2.28118,-1.75992 5.45455,-4.79861 7.90039,-7.39649 1.22292,-1.29892 2.26251,-2.48754 2.91992,-3.35156 0.65742,-0.86402 0.93168,-1.40284 0.61915,-1.40234 -0.18764,2.8e-4 -2.86962,0.98498 -5.95899,2.1875 -1.99962,0.77835 -4.17595,1.35785 -6.80664,1.78516 -2.63069,0.42729 -5.71574,0.70237 -9.5332,0.86914 -4.63355,0.20242 -7.51578,0.24268 -9.87696,-0.008 -1.18059,-0.12524 -2.23023,-0.32201 -3.30468,-0.60937 -1.07446,-0.28736 -2.17292,-0.66442 -3.44922,-1.14649 -1.62455,-0.61359 -3.6203,-1.5669 -5.52735,-2.60937 -1.90704,-1.04247 -3.72537,-2.17411 -4.99414,-3.14258 z"
     style="opacity:1;fill:#ffffff;fill-opacity:1;stroke:none;stroke-width:13;stroke-miterlimit:4;stroke-dasharray:none;stroke-opacity:1" /><path
     inkscape:connector-curvature="0"
     id="path4445"
     d="m 446.43565,385.22982 c -1.12287,-0.0171 -2.19344,0.1062 -3.12109,0.37305 -0.92766,0.26685 -1.71237,0.67721 -2.26563,1.23047 -0.52049,0.52048 -0.92103,1.45521 -1.19922,2.60156 -0.27819,1.14635 -0.4332,2.50488 -0.46094,3.87305 -0.0277,1.36816 0.0719,2.74571 0.30274,3.93164 0.23087,1.18592 0.5922,2.17967 1.08984,2.77929 0.50019,0.60269 1.01865,1.04684 1.53906,1.34766 0.52041,0.30082 1.04205,0.45817 1.55274,0.48828 0.51069,0.0301 1.00943,-0.0679 1.48047,-0.27734 0.47104,-0.20944 0.91496,-0.52945 1.3164,-0.94727 0.40145,-0.41782 0.76059,-0.9323 1.0625,-1.52734 0.30192,-0.59504 0.5463,-1.27063 0.71875,-2.01172 0.17246,-0.7411 0.27406,-1.54831 0.28711,-2.4043 0.0131,-0.85599 -0.062,-1.76145 -0.23828,-2.70117 -0.22554,-1.20222 -0.27046,-2.05737 -0.17773,-2.58008 0.0927,-0.52271 0.32349,-0.7133 0.65234,-0.58789 0.32885,0.12542 0.75545,0.56643 1.23828,1.3086 0.48283,0.74215 1.0215,1.78576 1.57617,3.11328 0.58277,1.39476 0.89277,2.4629 0.94336,3.52343 0.0506,1.06054 -0.15822,2.11349 -0.60937,3.48047 -0.39217,1.18829 -0.58582,2.22983 -0.61133,3.08008 -0.0255,0.85025 0.11793,1.50859 0.39844,1.92969 0.28051,0.4211 0.69874,0.60503 1.22461,0.50586 0.52586,-0.0992 1.15857,-0.48084 1.86914,-1.19141 0.36127,-0.36126 0.66844,-1.41063 0.88476,-2.90234 0.21633,-1.49172 0.3418,-3.42579 0.3418,-5.5586 0,-3.49724 -0.0263,-5.32201 -0.43164,-6.49609 -0.20267,-0.58704 -0.49905,-1.01064 -0.93555,-1.40039 -0.43649,-0.38976 -1.01284,-0.74522 -1.77148,-1.19336 -0.97609,-0.57659 -2.07942,-1.01416 -3.21875,-1.3125 -1.13933,-0.29834 -2.31464,-0.45746 -3.4375,-0.47461 z m -12.42578,9.32813 c -0.66878,0 -2.56044,1.12197 -4.45508,2.48828 -1.89464,1.36631 -3.79225,2.97696 -4.47461,3.95117 -0.64155,0.91594 -1.07527,1.81931 -1.32617,2.69141 -0.25091,0.87209 -0.31826,1.71194 -0.22852,2.5 0.0897,0.78804 0.33641,1.52564 0.7168,2.18945 0.38039,0.66381 0.89458,1.25454 1.51562,1.7539 0.62104,0.49937 1.34847,0.90645 2.16016,1.20118 0.81169,0.29472 1.70781,0.47745 2.66016,0.52734 0.95234,0.0499 1.9609,-0.0324 3.0039,-0.26758 1.043,-0.23514 2.11947,-0.62321 3.20313,-1.18359 0.99125,-0.5126 1.75285,-0.99259 2.29297,-1.47852 0.54011,-0.48593 0.85894,-0.97713 0.96289,-1.51367 0.10395,-0.53653 -0.007,-1.11878 -0.32422,-1.7832 -0.31724,-0.66442 -0.84099,-1.41167 -1.56445,-2.28125 -0.67519,-0.81155 -1.35545,-1.87882 -1.90625,-2.94336 -0.55081,-1.06454 -0.97215,-2.12635 -1.13282,-2.92969 -0.32133,-1.60668 -0.81874,-2.92187 -1.10351,-2.92187 z m 11.76953,12.28515 -2.01953,2.56641 c -0.55537,0.70604 -1.51453,1.58006 -2.61133,2.41797 -1.0968,0.83791 -2.33125,1.63972 -3.43945,2.20507 l -4.0293,2.05665 2.12109,2.69726 c 1.26553,1.60885 2.48915,2.84848 3.74219,3.77344 1.25304,0.92496 2.53551,1.53525 3.92188,1.88476 1.7581,0.44322 2.89866,0.64179 4.05468,0.53907 1.15603,-0.10273 2.32753,-0.50676 4.14844,-1.26758 1.03327,-0.43173 1.81241,-0.7696 2.35742,-1.08789 0.54502,-0.31829 0.85552,-0.61728 0.95313,-0.96875 0.0976,-0.35147 -0.0172,-0.75584 -0.32617,-1.28711 -0.30896,-0.53128 -0.81166,-1.18917 -1.48633,-2.04688 -0.5617,-0.71408 -1.07304,-1.62659 -1.44336,-2.52148 -0.37032,-0.89489 -0.59961,-1.77215 -0.59961,-2.41602 0,-0.65447 -0.2942,-1.47118 -0.77539,-2.27148 -0.48119,-0.8003 -1.14937,-1.58419 -1.89649,-2.17188 z"
     style="opacity:1;fill:#3c9539;fill-opacity:1;stroke:none;stroke-width:13;stroke-miterlimit:4;stroke-dasharray:none;stroke-opacity:1" /><path
     inkscape:connector-curvature="0"
     id="path4439"
     d="m 484.64659,237.28255 c -1.29509,0 -2.66734,0.16692 -4.02735,0.46485 -1.36001,0.29793 -2.70776,0.7264 -3.95508,1.24805 -1.24731,0.52164 -2.39455,1.13744 -3.35156,1.80859 -0.95701,0.67115 -1.72381,1.3981 -2.21289,2.14453 -1.11195,1.69706 -1.61146,2.65588 -1.46094,2.94727 0.15053,0.29138 0.9511,-0.0847 2.4375,-1.0586 0.93054,-0.6097 1.93026,-0.99616 3.16407,-1.18554 1.2338,-0.18939 2.70168,-0.18166 4.57226,-0.002 1.56012,0.14991 3.01251,0.4584 4.35938,0.92578 1.34686,0.46739 2.58847,1.09291 3.72265,1.87891 1.13418,0.786 2.16193,1.73214 3.08399,2.83789 0.92205,1.10575 1.73872,2.37218 2.44922,3.79883 0.71049,1.42665 1.31495,3.01303 1.81445,4.76172 0.4995,1.74868 0.89258,3.65861 1.18164,5.73047 0.28906,2.07185 0.47355,4.30695 0.55273,6.70312 0.0792,2.39617 0.0539,4.95416 -0.0762,7.67578 -0.22057,4.61347 -0.32387,6.95366 -0.082,8.14063 0.12091,0.59348 0.32814,0.89793 0.65039,1.05468 0.32225,0.1568 0.75908,0.16602 1.33985,0.16602 0.6482,0 1.23675,0.13018 1.66406,0.33984 0.4273,0.20967 0.69336,0.49881 0.69336,0.81641 0,0.37262 -0.31062,0.61172 -0.9043,0.71094 -0.59368,0.0992 -1.47042,0.0585 -2.60156,-0.125 -1.00286,-0.16274 -2.47859,-0.14851 -4.19922,0 -1.72063,0.14851 -3.68626,0.43104 -5.66797,0.80469 -1.98171,0.37365 -3.97953,0.83888 -5.76562,1.35156 -1.7861,0.51268 -3.36036,1.07306 -4.49415,1.63867 -0.75558,0.37694 -1.3257,0.65808 -1.77734,0.81641 -0.45164,0.15832 -0.7846,0.19298 -1.0664,0.0781 -0.28184,-0.11484 -0.51166,-0.37971 -0.75782,-0.82226 -0.24615,-0.44256 -0.50888,-1.06191 -0.85351,-1.88672 -0.50279,-1.20334 -1.36836,-2.52887 -2.50391,-3.89649 -1.13554,-1.36761 -2.54112,-2.77826 -4.125,-4.15039 -1.58388,-1.37213 -3.34556,-2.70498 -5.19336,-3.92187 -1.8478,-1.21689 -3.78168,-2.31686 -5.70898,-3.21875 -2.19879,-1.02894 -4.46772,-1.83702 -6.77539,-2.43164 -2.30767,-0.59463 -4.65381,-0.97522 -7.00782,-1.15235 -2.35401,-0.17712 -4.71492,-0.14932 -7.05273,0.0742 -2.33781,0.22356 -4.65305,0.64258 -6.91211,1.25 -2.25906,0.60743 -4.4623,1.40248 -6.58008,2.37695 -2.11778,0.97448 -4.1505,2.12842 -6.06445,3.45313 -1.91395,1.32471 -3.70984,2.8204 -5.35742,4.47851 -1.64758,1.65815 -3.14618,3.47841 -4.46485,5.45313 -1.24281,1.86112 -2.28341,3.68451 -3.13476,5.52344 -0.85135,1.83893 -1.51409,3.69371 -2,5.61328 -0.48591,1.91957 -0.79492,3.90478 -0.94141,6.00781 -0.14648,2.10303 -0.1298,4.32358 0.0371,6.71289 0.22387,3.20455 0.75628,6.24554 1.56836,9.10352 0.81208,2.85798 1.90471,5.53268 3.24805,8.0039 1.34334,2.47123 2.93627,4.73893 4.7539,6.78321 1.81764,2.04428 3.85878,3.86621 6.09375,5.44336 2.23498,1.57714 4.66441,2.91067 7.25977,3.98046 2.59536,1.06982 5.35707,1.87419 8.25586,2.39649 2.89878,0.5223 5.93483,0.76267 9.08008,0.69727 3.14525,-0.0654 6.39961,-0.43561 9.73437,-1.12891 1.65842,-0.34479 3.5228,-0.89913 5.4668,-1.60156 1.944,-0.70243 3.96852,-1.55322 5.94336,-2.49219 1.97484,-0.93897 3.9014,-1.96512 5.65234,-3.01953 1.75094,-1.05441 3.32535,-2.1368 4.59766,-3.18555 1.39199,-1.14739 2.3293,-2.10755 2.90234,-3.02734 0.57304,-0.91979 0.78182,-1.79921 0.71875,-2.78321 -0.15338,-2.39311 -0.12222,-3.85757 0.0918,-4.39062 0.10701,-0.26653 0.25871,-0.30135 0.45703,-0.10156 0.19832,0.19978 0.44314,0.63382 0.73242,1.30078 0.26115,0.60209 0.46371,1.04504 0.63477,1.29492 0.17105,0.24988 0.31009,0.30724 0.44336,0.13867 0.26652,-0.33713 0.51028,-1.57794 0.93945,-3.98633 0.53087,-2.97909 1.34794,-5.79619 2.42969,-8.42383 1.08174,-2.62761 2.42878,-5.06551 4.01953,-7.2832 1.59074,-2.21768 3.42455,-4.21555 5.48242,-5.96484 1.02893,-0.87465 2.11409,-1.68701 3.25195,-2.4336 1.13786,-0.74658 2.32876,-1.42784 3.57032,-2.03906 2.54639,-1.25357 5.06435,-2.19551 7.53125,-2.82617 2.4669,-0.63066 4.88263,-0.94944 7.22656,-0.95703 2.34393,-0.008 4.61549,0.29647 6.79297,0.91211 2.17747,0.61564 4.26097,1.54221 6.22851,2.78125 1.12553,0.70879 1.84802,0.96534 2.20703,0.86133 0.17951,-0.052 0.26856,-0.19271 0.27149,-0.41407 0.003,-0.22135 -0.0805,-0.52249 -0.24414,-0.89062 -0.32726,-0.73626 -0.97687,-1.7437 -1.91016,-2.93164 -0.93329,-1.18795 -2.1503,-2.55655 -3.60937,-4.01563 -1.53549,-1.53549 -3.00727,-3.2356 -4.14258,-4.73828 -1.13532,-1.50268 -1.93417,-2.80793 -2.1211,-3.55273 -0.18693,-0.7448 -0.72524,-1.90418 -1.4414,-3.17188 -0.71616,-1.2677 -1.61017,-2.64372 -2.50977,-3.82226 -1.26695,-1.6598 -2.122,-3.08191 -2.72265,-4.69336 -0.60066,-1.61146 -0.94692,-3.41225 -1.19922,-5.82617 -0.1718,-1.64369 -0.47771,-3.39413 -0.89649,-5.18555 -0.41878,-1.79142 -0.95029,-3.62356 -1.57031,-5.42969 -0.62001,-1.80613 -1.32996,-3.58757 -2.10547,-5.27539 -0.7755,-1.68782 -1.6167,-3.28226 -2.50195,-4.71875 -0.732,-1.18782 -1.74858,-2.36426 -2.9375,-3.46094 -1.18892,-1.09668 -2.54948,-2.11409 -3.9707,-2.98242 -1.42123,-0.86833 -2.90312,-1.58707 -4.33204,-2.08984 -1.42891,-0.50277 -2.80558,-0.78906 -4.01757,-0.78907 z m -22.06055,2.22852 c -1.5943,-0.016 -3.34343,0.2392 -4.90625,0.71094 -0.78141,0.23586 -1.516,0.52568 -2.16211,0.86328 -0.64611,0.33759 -1.20305,0.72258 -1.62891,1.14844 l -2.04297,2.04297 4.08008,-0.54688 c 1.33349,-0.17886 2.60968,-0.17867 3.79492,-0.004 1.18526,0.17477 2.2796,0.52412 3.24805,1.04297 1.35009,0.72306 2.12014,1.08349 2.69727,1.07227 0.28856,-0.006 0.52843,-0.10495 0.76953,-0.29688 0.2411,-0.19193 0.48262,-0.47733 0.77344,-0.85742 0.70212,-0.91765 1.27734,-2.0244 1.27734,-2.45898 0,-0.43458 -0.98704,-1.31638 -2.19141,-1.96094 -0.93916,-0.50263 -2.25962,-0.74136 -3.70898,-0.75586 z m 33.40039,117.41602 c -0.30922,0.006 -0.70289,0.0866 -1.20313,0.2207 -1.26382,0.3387 -3.101,0.62286 -4.08398,0.63086 -0.38777,0.003 -0.69334,0.0727 -0.93359,0.28516 -0.24025,0.21246 -0.41457,0.56718 -0.54102,1.14257 -0.25289,1.15079 -0.3125,3.18152 -0.3125,6.70508 0,2.23299 0.12982,4.86674 0.33789,7.31055 0.20807,2.4438 0.49438,4.69765 0.81055,6.17187 l 1.15039,5.35938 1.89062,-3.68555 c 0.52011,-1.01379 1.28916,-2.16885 2.10938,-3.21289 0.82022,-1.04404 1.6916,-1.97706 2.41602,-2.54687 l 2.63476,-2.07032 -1.58984,-5.35547 c -0.87454,-2.94489 -1.58985,-6.70289 -1.58985,-8.35156 0,-0.97883 -0.0412,-1.63463 -0.19922,-2.04297 -0.15796,-0.40833 -0.43265,-0.56919 -0.89648,-0.56054 z m 74.69727,16.5 c -0.60536,0.0331 -1.65357,0.33781 -2.92188,0.83203 -1.26831,0.49422 -2.75671,1.17791 -4.24414,1.9707 -1.47419,0.78574 -2.59719,1.39516 -3.45312,1.92578 -0.85595,0.53062 -1.44546,0.98248 -1.84961,1.45117 -0.40416,0.4687 -0.62335,0.95472 -0.74219,1.55469 -0.11885,0.59997 -0.13672,1.31384 -0.13672,2.23828 0,1.35853 -0.0975,2.60157 -0.3125,3.77149 -0.21503,1.16992 -0.5479,2.26704 -1.01563,3.33398 -0.46772,1.06694 -1.07003,2.10277 -1.82812,3.15234 -0.75809,1.04959 -1.67169,2.11262 -2.75781,3.23047 -0.93497,0.96228 -2.08588,1.87164 -3.37305,2.69532 -1.28717,0.82367 -2.71095,1.56259 -4.1875,2.17968 -1.47655,0.6171 -3.00666,1.11254 -4.50977,1.45508 -1.50311,0.34254 -2.97884,0.53125 -4.3457,0.53125 -1.54304,0 -3.23973,-0.21522 -4.98437,-0.60351 -1.74465,-0.3883 -3.53723,-0.94904 -5.27539,-1.64258 -1.73817,-0.69355 -3.42171,-1.51979 -4.94532,-2.43555 -1.52361,-0.91575 -2.8873,-1.92164 -3.98828,-2.97656 -1.20691,-1.15642 -2.10962,-2.0242 -2.80273,-2.54688 -0.69311,-0.52268 -1.1774,-0.69999 -1.54492,-0.47265 -0.36753,0.22733 -0.61946,0.85755 -0.84961,1.95117 -0.23016,1.09362 -0.43776,2.65038 -0.71875,4.72656 -0.17418,1.28691 -0.57059,2.90075 -1.06836,4.46289 -0.49778,1.56214 -1.09692,3.07257 -1.67774,4.15625 l -2.11133,3.94141 3.42579,2.87695 c 1.21332,1.01881 2.50409,1.94633 3.86328,2.78125 1.35919,0.83493 2.78703,1.57815 4.27539,2.22656 1.48836,0.64842 3.03783,1.20284 4.63867,1.66211 1.60084,0.45928 3.2526,0.82234 4.94922,1.08985 1.69662,0.26751 3.43718,0.4386 5.21289,0.51172 1.77571,0.0731 3.58768,0.0477 5.42578,-0.0762 1.8381,-0.12391 3.70215,-0.34635 5.58594,-0.66992 1.88379,-0.32356 3.78642,-0.7476 5.69922,-1.27343 2.58353,-0.71025 4.66282,-1.35098 6.38476,-2.03321 1.72195,-0.68223 3.08574,-1.40677 4.23828,-2.2832 1.15254,-0.87643 2.09343,-1.90441 2.96875,-3.19727 0.87532,-1.29285 1.6859,-2.84975 2.57617,-4.78125 1.45808,-3.16332 2.81234,-6.89798 3.97266,-10.74023 1.16032,-3.84225 2.12714,-7.7925 2.8125,-11.38477 0.68536,-3.59226 1.0879,-6.82688 1.1211,-9.24023 0.0166,-1.20668 -0.0586,-2.20754 -0.23829,-2.94531 -0.17967,-0.73778 -0.46324,-1.21248 -0.86132,-1.36524 -0.0956,-0.037 -0.2333,-0.05 -0.40625,-0.041 z m -67.29102,3.76953 c -0.63589,0 -1.24235,0.15296 -1.875,0.52343 -0.63265,0.37049 -1.2916,0.95899 -2.0332,1.83204 -1.48321,1.74609 -3.29641,4.62889 -5.88868,9.17773 -1.89195,3.31994 -2.93372,5.28114 -3.35351,6.61523 -0.2099,0.66706 -0.26334,1.1783 -0.19141,1.62305 0.0719,0.44475 0.27011,0.8233 0.56641,1.22852 0.66446,0.9087 1.07749,1.59398 1.26172,2.05469 0.18423,0.46068 0.14037,0.69629 -0.11133,0.70703 -0.2517,0.0107 -0.71018,-0.20337 -1.35352,-0.64453 -0.64333,-0.44117 -1.47221,-1.1089 -2.46289,-2.00391 -1.22804,-1.10946 -2.42559,-2.09062 -3.58398,-2.9375 -1.15839,-0.84688 -2.2773,-1.56033 -3.34766,-2.13477 -1.07035,-0.57444 -2.09269,-1.00863 -3.05664,-1.30078 -0.96395,-0.29215 -1.86982,-0.4414 -2.70898,-0.4414 -0.98157,0 -2.00619,0.28129 -3.00195,0.77539 -0.99577,0.4941 -1.96272,1.20013 -2.83204,2.05078 -0.86931,0.85065 -1.63996,1.84636 -2.24218,2.91601 -0.60222,1.06966 -1.036,2.21413 -1.23047,3.36524 -0.14868,0.88004 -0.28882,1.57195 -0.46485,2.125 -0.17602,0.55304 -0.38838,0.96749 -0.67773,1.28906 -0.28936,0.32157 -0.65586,0.55071 -1.14453,0.73633 -0.48867,0.18562 -1.09907,0.32745 -1.87305,0.47265 -0.96349,0.18075 -1.79255,0.45894 -2.49414,0.84375 -0.70159,0.38482 -1.27482,0.87666 -1.72851,1.48438 -0.45372,0.60772 -0.78797,1.33022 -1.00782,2.17969 -0.21984,0.84946 -0.32617,1.82549 -0.32617,2.93554 0,0.90152 0.10334,1.68839 0.31055,2.36133 0.20721,0.67294 0.519,1.23105 0.9375,1.67969 0.4185,0.44864 0.94229,0.787 1.57617,1.01562 0.63388,0.22863 1.37713,0.34843 2.23047,0.36133 0.89563,0.0136 1.70665,0.27624 2.46875,0.81446 0.7621,0.53821 1.47528,1.35194 2.17773,2.46679 0.6141,0.97462 1.30926,1.86731 2.06836,2.67383 0.7591,0.80652 1.58269,1.52781 2.45508,2.1582 0.87239,0.63039 1.79212,1.169 2.74609,1.61524 0.95398,0.44624 1.94148,0.79867 2.94532,1.05273 1.00384,0.25407 2.02488,0.41098 3.04687,0.46485 1.02199,0.0539 2.0443,0.006 3.05274,-0.14844 1.00843,-0.15436 2.00363,-0.4165 2.96679,-0.78711 0.96316,-0.37061 1.89508,-0.85044 2.78125,-1.44531 0.9543,-0.64062 2.05137,-1.67491 3.05078,-2.82617 0.99942,-1.15128 1.90119,-2.41955 2.46289,-3.5254 0.5617,-1.10585 1.32511,-2.31925 2.10352,-3.38476 0.77841,-1.06551 1.57183,-1.98312 2.19141,-2.49414 0.61957,-0.51103 1.54555,-1.71092 2.53711,-3.23242 0.99155,-1.52151 2.0487,-3.36464 2.93359,-5.16211 0.66373,-1.34824 1.24616,-2.8138 1.74609,-4.34766 0.49994,-1.53386 0.91818,-3.1356 1.25391,-4.75391 0.67145,-3.2366 1.01326,-6.54057 1.02539,-9.50781 0.006,-1.48362 -0.0711,-2.88394 -0.23047,-4.14844 -0.15938,-1.26449 -0.40131,-2.3937 -0.72656,-3.33789 -0.32525,-0.94418 -0.73309,-1.70387 -1.22461,-2.22656 -0.49152,-0.52269 -1.0664,-0.80859 -1.72461,-0.80859 z"
     style="opacity:1;fill:#3c9539;fill-opacity:1;stroke:none;stroke-width:13;stroke-miterlimit:4;stroke-dasharray:none;stroke-opacity:1" /><path
     sodipodi:nodetypes="cccscccccccsc"
     inkscape:connector-curvature="0"
     id="path4433"
     d="m 518.11534,363.99154 c -0.1495,0.14956 -0.15844,0.5401 -0.0547,1.11523 0.10374,0.57514 0.31949,1.33459 0.62305,2.22071 0.6071,1.77223 1.56073,4.05225 2.64648,6.38086 1.08575,2.32861 2.30447,4.70558 3.44141,6.67382 1.13694,1.96825 2.19245,3.52763 2.95312,4.21875 0.96858,0.88004 2.08721,1.5627 3.26953,2.04297 1.18232,0.48028 2.42839,0.75764 3.65039,0.82813 1.222,0.0705 2.4202,-0.0667 3.50782,-0.41602 1.08761,-0.34932 2.06458,-0.91029 2.84375,-1.68945 0.61186,-0.61187 1.08898,-1.47867 1.42773,-2.49805 0.7013,-3.32124 1.31985,-7.40934 0.0822,-10.44445 -4.62949,-11.35295 -14.32822,-11.68617 -24.39079,-8.4325 z"
     style="opacity:1;fill:#d40000;fill-opacity:1;stroke:none;stroke-width:13;stroke-miterlimit:4;stroke-dasharray:none;stroke-opacity:1" /><path
     inkscape:connector-curvature="0"
     id="path4431"
     d="m 501.87901,357.49349 0.71484,4.47266 c 0.23121,1.44592 0.66052,2.80918 1.26172,4.03516 0.60121,1.22597 1.37431,2.31467 2.29102,3.21093 0.83068,0.81214 1.73764,2.15854 2.57617,3.76367 0.83853,1.60514 1.60862,3.46902 2.16797,5.31641 0.54622,1.80405 1.14721,3.48082 1.80664,5.0332 0.65943,1.55239 1.37774,2.97975 2.15625,4.28516 0.7785,1.30541 1.61804,2.48963 2.52148,3.55273 0.90344,1.06311 1.87005,2.00655 2.9043,2.83204 1.03424,0.82548 2.13573,1.53244 3.30664,2.125 1.17091,0.59255 2.41116,1.06929 3.72461,1.43359 1.31345,0.3643 2.70026,0.61709 4.16211,0.75781 1.46185,0.14072 2.99912,0.16997 4.61523,0.0918 2.91417,-0.14097 4.76686,-0.33809 6.30469,-0.83399 0.76892,-0.24794 1.45879,-0.57105 2.16406,-0.99804 0.70527,-0.42699 1.42533,-0.95877 2.25391,-1.625 1.29132,-1.03831 2.39864,-2.21507 3.29687,-3.45313 0.89823,-1.23806 1.5876,-2.53728 2.03907,-3.82226 0.45147,-1.28499 0.66614,-2.55528 0.61718,-3.73438 -0.0489,-1.17909 -0.36178,-2.26712 -0.96484,-3.1875 -0.48691,-0.74313 -0.94779,-1.31664 -1.37891,-1.7207 -0.43111,-0.40406 -0.83249,-0.63797 -1.19726,-0.70117 -0.36478,-0.0632 -0.69453,0.0428 -0.98242,0.32226 -0.2879,0.27944 -0.5339,0.73159 -0.73438,1.35547 -0.6504,2.024 -1.31004,3.68984 -2.03906,5.05078 -0.72903,1.36095 -1.52811,2.41616 -2.45703,3.21875 -0.92892,0.8026 -1.9882,1.35223 -3.23828,1.70117 -1.25009,0.34895 -2.6903,0.49805 -4.38282,0.49805 -0.96916,0 -2.11045,-0.17953 -3.31054,-0.49023 -1.20009,-0.3107 -2.45953,-0.7535 -3.66602,-1.27735 -1.20649,-0.52385 -2.3593,-1.12812 -3.34765,-1.76757 -0.98836,-0.63946 -1.81173,-1.31319 -2.35743,-1.97071 -0.7163,-0.86311 -3.21333,-6.25477 -5.54883,-11.98047 -1.097,-2.68945 -2.05977,-4.87382 -2.9746,-6.6582 -0.91484,-1.78438 -1.78253,-3.16869 -2.69141,-4.25977 -0.90889,-1.09107 -1.85834,-1.8885 -2.9375,-2.49804 -1.07916,-0.60955 -2.28724,-1.0313 -3.71289,-1.3711 z"
     style="opacity:1;fill:#ffffff;fill-opacity:1;stroke:none;stroke-width:13;stroke-miterlimit:4;stroke-dasharray:none;stroke-opacity:1" /><path
     inkscape:connector-curvature="0"
     id="path4427"
     d="m 515.23643,269.96224 c -0.86794,0 -1.52102,0.0195 -1.96094,0.11328 -0.43991,0.0938 -0.66643,0.26249 -0.68554,0.5625 -0.0191,0.30002 0.16998,0.73087 0.56445,1.34961 0.39447,0.61874 0.99409,1.42467 1.79492,2.47461 0.70098,0.91903 1.4698,2.14748 2.14453,3.38477 0.67473,1.23729 1.25538,2.48342 1.57813,3.4414 0.58579,1.73873 1.16099,3.10015 1.70508,4.07618 0.54408,0.97603 1.05676,1.56602 1.51757,1.76172 0.23041,0.0978 0.4486,0.0986 0.65039,-0.002 0.2018,-0.10055 0.3867,-0.30236 0.55469,-0.60351 0.33598,-0.60231 0.59997,-1.60744 0.76953,-3.02539 0.2394,-2.00184 0.19878,-3.84811 -0.0918,-5.49219 -0.29058,-1.64408 -0.83194,-3.08615 -1.5918,-4.27735 -0.37993,-0.59559 -0.81296,-1.12921 -1.29883,-1.59375 -0.48587,-0.46453 -1.02319,-0.86005 -1.60742,-1.18164 -0.58423,-0.32158 -1.21563,-0.56763 -1.89063,-0.73437 -0.67499,-0.16674 -1.39416,-0.25391 -2.15234,-0.25391 z m 17.24609,29.97852 c -0.29062,0.018 -0.4067,0.29368 -0.34961,0.82617 0.0571,0.53249 0.28737,1.32185 0.68555,2.36914 0.29467,0.77505 0.58924,2.32661 0.82617,4.20313 0.23693,1.87651 0.41622,4.07799 0.48047,6.15039 0.12849,4.1448 0.33099,7.53708 0.45117,7.53711 0.12017,3e-5 1.38409,-1.71615 2.8086,-3.8125 0.93968,-1.38287 1.62457,-2.68897 2.05469,-3.93946 0.43009,-1.25049 0.6061,-2.44523 0.52343,-3.60742 -0.0827,-1.16219 -0.42285,-2.2922 -1.02148,-3.41016 -0.59864,-1.11795 -1.45642,-2.224 -2.57422,-3.34179 -1.00936,-1.00936 -1.83427,-1.76197 -2.48047,-2.25782 -0.6462,-0.49581 -1.11367,-0.73484 -1.4043,-0.71679 z m -5.13086,38.44726 c -0.2723,0 -1.79492,1.27565 -3.38281,2.83399 -1.58789,1.55832 -4.49498,4.12573 -6.46094,5.70508 l -3.57617,2.87109 4.95703,-0.48437 c 1.36299,-0.13336 2.75773,-0.41175 3.90821,-0.75196 1.15047,-0.3402 2.05667,-0.74222 2.43945,-1.125 0.33364,-0.33363 0.69634,-1.06568 1.03711,-1.97656 0.34077,-0.91089 0.65938,-2.00113 0.9043,-3.04883 0.24492,-1.04769 0.41679,-2.05281 0.46289,-2.79687 0.0461,-0.74407 -0.0334,-1.22657 -0.28907,-1.22657 z"
     style="opacity:1;fill:#ea5105;fill-opacity:1;stroke:none;stroke-width:13;stroke-miterlimit:4;stroke-dasharray:none;stroke-opacity:1" /><path
     sodipodi:nodetypes="cccccccccccsccccccccsscssccccccccssccc"
     inkscape:connector-curvature="0"
     id="path4409"
     d="m 479.46104,245.28451 c -0.35667,-0.0103 -0.71851,-0.009 -1.08594,0.006 -1.03853,0.0407 -2.09675,0.20552 -3.13672,0.47851 -1.03996,0.273 -2.06146,0.65473 -3.02734,1.12891 -0.96589,0.47417 -1.8751,1.0413 -2.69141,1.68555 -0.8163,0.64424 -1.53964,1.36524 -2.13086,2.14843 -0.50323,0.66665 -0.91,1.41968 -1.25195,2.25391 -0.39203,1.40777 -1.07399,2.17874 -1.00586,-1.36133 0.15642,-1.03902 0.0919,-1.94337 -0.16992,-2.7168 -0.26187,-0.77342 -0.72042,-1.416 -1.35742,-1.92773 -0.63701,-0.51173 -1.45094,-0.89257 -2.41992,-1.14648 -0.96899,-0.25392 -2.09375,-0.38086 -3.35157,-0.38086 -1.15781,0 -2.46743,0.18076 -3.64453,0.4707 -1.17709,0.28994 -2.22166,0.68907 -2.84961,1.12891 -0.85411,0.59824 -1.68777,1.47736 -2.46679,2.56054 -0.77903,1.08319 -1.50427,2.37139 -2.14063,3.78907 -0.63636,1.41767 -1.18326,2.96467 -1.60937,4.5664 -0.42612,1.60173 -0.73062,3.25724 -0.87891,4.89258 l -0.52734,5.81055 3.08203,0.45312 c 1.29705,0.19036 3.19702,0.6791 4.05859,0.98242 3.47683,1.22404 5.3048,1.99652 8.39258,3.94137 2.68605,1.69182 5.18489,3.82251 7.50976,6.06836 2.32488,2.24585 4.37906,4.61444 5.88868,6.80859 1.69724,2.46685 3.23855,4.48438 3.42382,4.48438 0.18527,0 1.88517,-0.63348 3.7793,-1.4082 0.94707,-0.38737 2.47961,-0.82111 4.18555,-1.20704 1.70594,-0.38592 3.58527,-0.72402 5.22656,-0.92187 l 5.96875,-0.71875 -0.36719,-13.95703 c -0.16491,-6.26704 -0.32192,-9.88673 -0.73047,-12.50977 -0.20427,-1.31152 -0.47214,-2.37242 -0.83398,-3.39258 -0.36184,-1.02015 -0.81849,-1.99873 -1.40234,-3.14062 -0.73613,-1.43971 -1.54772,-2.7038 -2.4336,-3.79297 -0.88588,-1.08917 -1.84678,-2.00328 -2.88281,-2.74219 -1.03603,-0.73891 -2.14741,-1.30248 -3.33398,-1.6914 -1.18658,-0.38893 -2.44764,-0.60336 -3.78516,-0.64258 z"
     style="opacity:1;fill:#ffffff;fill-opacity:1;stroke:none;stroke-width:13;stroke-miterlimit:4;stroke-dasharray:none;stroke-opacity:1" /><path
     style="fill:#191d16;stroke-width:1.02127659"
     d="m 484.2227,233.23963 c -3.627,-0.02 -7.3211,0.5884 -10.0859,1.83007 -3.4459,1.54753 -4.594,1.63457 -7.666,0.57618 -3.8374,-1.3221 -10.0472,-0.67056 -14.0313,1.47265 -4.7973,2.58067 -10.8091,13.8799 -13.5332,25.43946 -1.2499,5.3042 -1.3045,5.36132 -5.1386,5.36132 -2.1317,0 -6.7955,0.9026 -10.3653,2.00586 -17.8987,5.53164 -28.1481,19.18969 -29.2265,38.94727 -0.9791,17.93671 6.8178,32.88976 20.9082,40.10351 5.7971,2.96794 16.6583,4.92591 25.3164,4.56446 6.4704,-0.27012 8.6858,0.0239 10.6484,1.41211 1.363,0.9641 4.9239,2.29957 7.9141,2.96875 2.9902,0.66917 5.4375,1.56643 5.4375,1.99218 0,0.42576 -0.9548,2.99435 -2.1211,5.70899 -1.1664,2.71466 -2.6908,7.69424 -3.3887,11.06445 -0.8876,4.2862 -1.7081,6.0556 -2.7305,5.88867 -0.8038,-0.13127 -3.7777,-0.77779 -6.6093,-1.43554 -6.2903,-1.46118 -9.9418,-0.072 -13.4297,5.10937 -1.2721,1.88971 -4.1526,4.34492 -6.4004,5.45703 -6.4015,3.16718 -10.2559,8.19804 -10.2559,13.38282 0,5.03225 2.0318,8.41902 6.1094,10.17968 1.5892,0.68618 4.4384,3.31414 6.332,5.8418 1.8937,2.52766 5.0395,5.42565 6.9903,6.43945 4.8131,2.50134 13.7479,1.94752 18.0547,-1.11914 l 3.1425,-2.23633 1.7383,2.65235 c 0.956,1.45902 1.3505,2.97301 0.877,3.36523 -0.4736,0.39222 -2.5371,1.94104 -4.586,3.43946 -7.3029,5.34086 -10.217,17.36659 -6.3105,26.04492 0.94,2.08834 1.7717,5.52094 1.8496,7.62695 0.3106,8.39688 9.6012,13.20655 25.0371,12.96289 6.106,-0.0964 9.8636,0.37111 12.6699,1.57422 2.1944,0.94076 5.8291,2.02426 8.0782,2.4082 5.8917,1.0058 22.1093,-0.39132 26.6699,-2.29687 2.1422,-0.89508 6.0216,-1.62981 8.6211,-1.63281 10.1223,-0.0122 17.3526,-4.50921 15.9882,-9.94532 -0.3287,-1.30966 -0.087,-4.08701 0.5372,-6.17187 0.9272,-3.09791 0.8123,-4.63086 -0.627,-8.38672 -0.9686,-2.52766 -1.7049,-6.20397 -1.6367,-8.16992 0.068,-1.96596 -0.3838,-4.84339 -1.0039,-6.39258 -1.0152,-2.53629 -0.8349,-3.03902 1.8086,-5.05078 12.0475,-9.16835 19.9861,-22.51831 25.0097,-42.06055 2.5207,-9.80556 3.0239,-22.07233 1.0059,-24.50391 -2.2062,-2.65825 -7.2504,-1.89765 -14.8477,2.23633 -6.7388,3.66689 -7.2453,3.78513 -10.2832,2.40821 -1.9428,-0.88062 -4.1109,-3.17433 -5.5312,-5.85157 -3.3501,-6.31499 -9.0257,-9.9262 -16.4453,-10.46289 -3.295,-0.23834 -7.3904,0.0558 -9.1016,0.65235 -2.6979,0.94049 -3.6723,0.71732 -7.3281,-1.66993 l -4.2149,-2.75195 8.0704,-0.61133 c 4.4393,-0.33599 9.0861,-1.15276 10.3261,-1.8164 3.7848,-2.02554 5.4953,-6.69145 5.2481,-14.3125 l -0.2227,-6.88477 5.4102,-5.03906 c 11.9969,-11.17449 11.0567,-22.15356 -2.543,-29.71094 -4.2319,-2.35167 -6.0563,-3.95831 -5.8984,-5.19531 1.6244,-12.72941 1.5096,-15.06214 -0.9141,-18.64258 -2.8051,-4.14399 -8.1474,-7.14448 -12.7246,-7.14648 -2.9648,-10e-4 -3.2859,-0.35607 -4.4023,-4.85352 -2.8744,-11.57891 -9.2063,-21.09619 -16.5176,-24.82617 -2.4908,-1.27068 -6.0507,-1.91944 -9.6778,-1.93945 z m 0.4239,4.04296 c 4.8479,0 12.3298,4.57097 15.2578,9.32227 3.541,5.74597 6.387,14.03463 7.0742,20.60938 0.5046,4.82784 1.388,7.19993 3.9219,10.51953 1.7992,2.35708 3.5773,5.50454 3.9511,6.99414 0.3739,1.4896 3.1928,5.22003 6.2637,8.29101 5.8363,5.8363 7.7873,10.22581 3.2852,7.39063 -7.8702,-4.95615 -17.5937,-4.9245 -27.7793,0.0898 -9.9325,4.88972 -16.6305,14.22815 -18.7539,26.14453 -0.8584,4.81677 -0.973,4.96112 -2.0176,2.55274 -1.1571,-2.66782 -1.588,-1.59482 -1.2813,3.1914 0.1262,1.96799 -0.8371,3.51576 -3.621,5.81055 -5.0893,4.19498 -15.0265,8.91969 -21.6602,10.29883 -26.6781,5.54638 -48.2032,-9.64291 -49.9941,-35.2793 -0.6677,-9.55726 1.0678,-16.41294 6.039,-23.85742 10.5494,-15.79778 32.6246,-21.73345 50.2149,-13.50195 7.7092,3.60757 15.5201,10.37414 17.5312,15.1875 1.3785,3.29927 1.4327,3.32223 4.4551,1.81445 4.5351,-2.26242 16.1155,-4.44589 20.1269,-3.79492 2.2623,0.36711 3.5059,0.15929 3.5059,-0.58594 0,-0.6352 -1.061,-1.15625 -2.3574,-1.15625 -2.3231,0 -2.3494,-0.1344 -1.9082,-9.36133 1.0409,-21.773 -4.607,-33.11325 -17.0879,-34.3125 -3.7412,-0.35948 -5.8753,-0.0319 -7.7363,1.1875 -2.9729,1.94786 -3.2005,1.50545 -0.9766,-1.88867 1.9563,-2.98574 8.3665,-5.66602 13.5469,-5.66602 z m -22.0606,2.22852 c 1.4494,0.0145 2.7698,0.25323 3.709,0.75586 1.2044,0.64456 2.1914,1.52636 2.1914,1.96094 0,0.43458 -0.5752,1.54133 -1.2773,2.45898 -1.1633,1.52035 -1.5401,1.52811 -4.2403,0.082 -1.9369,-1.03771 -4.376,-1.39678 -7.0429,-1.03906 l -4.0801,0.54688 2.043,-2.04297 c 1.7034,-1.70342 5.5086,-2.75463 8.6972,-2.72266 z m 16.875,5.77344 c 5.3501,0.15687 9.4911,3.11032 12.4356,8.86914 2.3354,4.56756 2.6369,6.50889 2.9668,19.04297 l 0.3672,13.95703 -5.9688,0.71875 c -3.2826,0.3957 -7.518,1.35418 -9.4121,2.12891 -1.8941,0.77472 -3.594,1.4082 -3.7793,1.4082 -0.1853,0 -1.7266,-2.01753 -3.4238,-4.48438 -3.0193,-4.3883 -8.2198,-9.47817 -13.3985,-12.87695 -0.819,-0.53755 -2.3174,-1.33789 -2.9601,-1.78272 1.2984,0.0956 2.5512,-2.31613 2.7199,-4.17626 0.6009,-6.62686 -0.7867,-9.9699 -3.709,-10.38282 -2.6726,-0.37764 -4.473,0.91434 -5.1639,6.12159 -0.2556,1.92673 -0.2088,5.22092 0.7202,6.27823 -0.8349,-0.37038 -2.7612,-0.79149 -4.0582,-0.98185 l -3.0821,-0.45312 0.5274,-5.81055 c 0.5931,-6.54135 3.6792,-13.4156 7.0957,-15.80859 1.2559,-0.87967 4.1785,-1.59961 6.4941,-1.59961 5.0313,0 7.9245,2.01578 7.2988,6.17187 -0.5884,3.90844 -1.3102,6.95591 -1.121,10.83789 0.8851,-4.99863 1.3656,-9.06413 3.3786,-11.7307 2.3649,-3.13277 6.8324,-5.2784 10.9866,-5.44117 0.3674,-0.0144 0.7293,-0.0163 1.0859,-0.006 z m -7.123,13.5664 c -1.7385,-0.0178 -3.6169,1.00243 -4.6367,2.94141 -1.6472,3.13167 -1.2446,12.36077 0.648,14.64112 1.9277,2.32284 5.5636,2.8582 7.352,0.55419 1.8972,-2.4443 2.5122,-12.28438 -0.033,-16.15429 -0.8272,-1.25762 -1.9779,-1.96858 -3.3301,-1.98243 z m 42.8984,11.11133 c 6.0655,0 9.5904,5.52587 8.6328,13.53321 -0.6782,5.6718 -2.8541,4.74787 -5.1972,-2.20704 -0.6455,-1.91596 -2.3207,-4.98811 -3.7227,-6.82617 -3.2033,-4.19977 -3.1846,-4.5 0.2871,-4.5 z M 434.17,284.24744 c -2.9745,-0.20805 -6.6023,3.95449 -6.4707,8.48633 0.056,1.92577 0.3005,1.77751 1.6973,-1.02735 0.9706,-1.94901 2.8851,-3.71294 4.7226,-4.35351 2.2698,-0.79126 2.7868,-1.37923 1.9512,-2.21485 -0.5627,-0.56274 -1.214,-0.84261 -1.9004,-0.89062 z m -19.1152,2.20312 c -1.0071,0.05 -1.7188,0.35739 -1.7188,0.80664 0,0.59901 0.6818,1.08789 1.5137,1.08789 0.8318,0 1.7999,1.14848 2.1523,2.55274 0.9312,3.70992 2.6473,3.13157 2.2715,-0.76563 -0.2666,-2.7657 -0.7887,-3.37329 -3.1289,-3.64257 -0.3862,-0.0444 -0.7541,-0.0558 -1.0898,-0.0391 z m 97.5801,11.98438 c 4.1022,0.0738 6.2164,0.72019 10.1132,2.82226 5.9388,3.20353 6.7462,4.74934 6.9121,13.22461 0.1246,6.36107 -1.9595,13.61194 -5.414,18.83204 -5.2669,7.95872 -22.3705,19.16665 -33.4746,21.9375 -1.5041,0.37531 -2.9876,1.34244 -3.2969,2.14843 -0.917,2.38958 0.069,19.92292 1.4082,25.05078 0.9109,3.48829 0.941,5.29698 0.1152,6.83985 -1.1189,2.09069 -1.1365,2.09116 -5.455,0.13086 -5.6773,-2.57708 -10.4204,-2.51911 -14.7872,0.17968 -1.9497,1.20497 -4.415,3.61737 -5.4785,5.36133 l -1.9336,3.16992 v -4.25 c -0.01,-6.35387 2.5313,-18.28098 5.6953,-26.77734 2.2394,-6.01316 3.4972,-7.9434 6.2149,-9.54687 1.8737,-1.10549 3.4034,-2.07907 3.4004,-2.16407 0,-0.0849 -3.1041,-0.29114 -6.8926,-0.45898 -7.3134,-0.32401 -14.5603,-1.84797 -14.5313,-3.05469 0.01,-0.39962 2.4518,-1.77899 5.4278,-3.0664 2.976,-1.28743 7.7885,-4.41983 10.6933,-6.96094 5.0383,-4.40733 5.3864,-4.54709 7.5645,-3.02149 1.2558,0.87961 3.1265,1.59961 4.1562,1.59961 1.5556,0 1.4003,-0.40607 -0.916,-2.39844 -2.4161,-2.07822 -2.7714,-3.11068 -2.666,-7.73828 0.1932,-8.4828 2.8389,-14.78257 9.002,-21.43945 6.8237,-7.37044 13.0377,-10.27968 22.2558,-10.41797 0.6782,-0.0102 1.3046,-0.0125 1.8907,-0.002 z m 19.8476,1.50586 c 0.5813,-0.0361 1.8661,0.95589 3.8848,2.97461 4.4712,4.47119 4.7763,8.76738 1.0176,14.29883 -1.4246,2.09635 -2.6885,3.81253 -2.8086,3.8125 -0.1202,-3e-5 -0.3227,-3.39231 -0.4512,-7.53711 -0.1285,-4.14479 -0.7173,-8.80342 -1.3067,-10.35352 -0.7963,-2.09458 -0.9171,-3.15923 -0.3359,-3.19531 z m -5.1309,38.44726 c 1.0228,0 -0.7806,7.71429 -2.1152,9.04883 -0.7655,0.76556 -3.6217,1.61025 -6.3476,1.87696 l -4.9571,0.48437 3.5762,-2.87109 c 1.966,-1.57935 4.873,-4.14676 6.4609,-5.70508 1.5879,-1.55834 3.1105,-2.83399 3.3828,-2.83399 z m -31.3652,18.53907 c 0.9277,-0.0173 1.0957,0.64585 1.0957,2.60351 0,1.64867 0.7153,5.40667 1.5899,8.35156 l 1.5898,5.35547 -2.6348,2.07032 c -1.4488,1.13963 -3.4851,3.73218 -4.5254,5.75976 l -1.8906,3.68555 -1.1504,-5.35938 c -0.6323,-2.94844 -1.1484,-9.01645 -1.1484,-13.48242 0,-7.04712 0.236,-8.12061 1.7871,-8.13281 0.983,-0.008 2.8202,-0.29216 4.084,-0.63086 0.5002,-0.13406 0.8939,-0.21494 1.2031,-0.2207 z m 5.8926,0.5664 2.9629,0.70703 c 5.7026,1.35917 7.9283,4.02928 12.3164,14.78711 2.3355,5.7257 4.8325,11.11736 5.5488,11.98047 2.1828,2.63009 8.805,5.50586 12.6817,5.50586 6.77,0 9.5156,-2.37277 12.1171,-10.46875 0.802,-2.49551 2.3454,-2.22837 4.293,0.74414 2.4122,3.68152 0.177,10.04403 -4.9883,14.19727 -3.3143,2.66495 -4.8943,3.1751 -10.7226,3.45703 -12.9289,0.62539 -20.8275,-5.67894 -25.1973,-20.11133 -1.1187,-3.69479 -3.0828,-7.4558 -4.7441,-9.08008 -1.8334,-1.79252 -3.0903,-4.35425 -3.5528,-7.24609 z m 39.7187,14.80078 c 1.96117,4.19844 1.846,10.6248 -0.6015,13.07227 -3.1167,3.11666 -9.3972,2.75451 -13.2715,-0.76563 -3.0427,-2.76451 -10.8054,-19.41291 -9.6094,-20.60937 11.63146,-2.86087 18.79772,-1.72614 23.4824,8.30273 z m 29.086,1.13282 c 0.1729,-0.009 0.3107,0.004 0.4062,0.041 3.1847,1.22209 -0.9743,23.0225 -6.8066,35.67578 -3.5612,7.72598 -5.8338,9.45394 -16.168,12.29493 -15.3023,4.20679 -29.9438,1.89847 -39.6504,-6.25196 l -3.4258,-2.87695 2.1114,-3.94141 c 1.1616,-2.16736 2.3977,-6.04533 2.7461,-8.61914 1.124,-8.30472 1.0884,-8.28388 5.916,-3.6582 4.4039,4.21968 13.0212,7.6582 19.1933,7.6582 5.4675,0 12.6762,-3.01221 16.4161,-6.86133 4.3444,-4.47141 5.914,-8.05418 5.914,-13.48828 0,-3.69776 0.2849,-4.02698 6.1817,-7.16992 2.9748,-1.58558 5.9553,-2.73662 7.166,-2.80273 z m -67.291,3.76953 c 5.2656,0 5.1907,18.34497 -0.1192,29.13086 -1.7698,3.59495 -4.2315,7.37248 -5.4707,8.39453 -1.2391,1.02204 -3.1715,3.6672 -4.2949,5.8789 -1.1234,2.2117 -3.6051,5.07034 -5.5137,6.35157 -7.0894,4.75902 -17.1497,2.21297 -22.0625,-5.58399 -1.4049,-2.22971 -2.8552,-3.25415 -4.6465,-3.28125 -3.4133,-0.0516 -5.0546,-1.81189 -5.0546,-5.41797 0,-4.44022 1.7026,-6.72036 5.5566,-7.44336 3.0959,-0.5808 3.5654,-1.10286 4.1602,-4.62304 0.7779,-4.60443 5.3803,-9.10742 9.3066,-9.10742 3.3566,0 7.7851,2.37661 12.6973,6.81445 3.9627,3.58006 5.3238,3.52152 2.666,-0.11328 -1.1852,-1.62086 -0.8054,-2.82692 2.9785,-9.4668 5.1845,-9.09768 7.2533,-11.5332 9.7969,-11.5332 z m -56.9571,8.0332 c 2.2458,0.0343 4.7041,0.63393 6.6563,1.78711 3.0346,1.79256 3.1387,2.09536 3.1387,9.08984 0,4.26562 -0.5041,7.73841 -1.2266,8.46094 -2.8423,2.84229 -4.4495,0.42894 -2.8809,-4.32422 0.9023,-2.73397 0.8316,-4.21437 -0.334,-7.0039 -2.2186,-5.31006 -4.1912,-6.06277 -3.289,-1.25391 1.4103,7.51776 -3.7172,12.85473 -7.7188,8.0332 -1.9905,-2.3985 -1.8143,-11.1036 0.2676,-13.18554 1.1065,-1.10651 3.141,-1.63778 5.3867,-1.60352 z m -12.4257,9.32813 c 0.2847,0 0.7821,1.31519 1.1035,2.92187 0.3213,1.60668 1.6887,4.24995 3.039,5.87305 2.8939,3.47832 2.5979,5.00625 -1.3672,7.05664 -8.6692,4.48305 -16.8374,-2.0846 -11.705,-9.41211 1.3647,-1.94842 7.5921,-6.43945 8.9297,-6.43945 z m 11.7695,12.28515 2.6719,2.10156 c 1.4942,1.17537 2.6718,3.13441 2.6718,4.44336 0,1.28774 0.9196,3.50933 2.043,4.9375 2.6987,3.43083 2.635,3.66371 -1.498,5.39063 -3.6419,1.52165 -4.687,1.61495 -8.2032,0.72851 -2.7727,-0.69903 -5.133,-2.4405 -7.664,-5.6582 l -2.1211,-2.69726 4.0293,-2.05665 c 2.2164,-1.13073 4.94,-3.21096 6.0508,-4.62304 z m 58.3457,7.05274 4.6133,3.52148 c 2.5375,1.93693 7.2724,4.52476 10.5215,5.75195 5.1051,1.92826 7.3637,2.16852 16.6308,1.76368 7.6349,-0.33354 12.3406,-1.0976 16.3399,-2.6543 3.0893,-1.20252 5.7713,-2.18722 5.9589,-2.1875 1.2502,-0.002 -6.8771,8.63055 -11.4394,12.15039 l -5.5469,4.27734 -13.6348,-0.46093 c -8.2169,-0.27805 -15.867,-1.11707 -19.2519,-2.11133 -6.9227,-2.03342 -13.2098,-0.86399 -19.377,3.60351 -2.2523,1.63157 -4.4449,2.95913 -4.8711,2.95313 -0.4261,-0.007 -3.0542,-1.49944 -5.8418,-3.31836 l -5.0683,-3.30664 6.6875,-0.58008 c 8.6525,-0.74888 13.3087,-3.57796 16.418,-9.97656 1.2927,-2.66033 3.5899,-5.86866 5.1054,-7.13086 z m -38.0977,21.48242 c 1.4997,0.11092 3.0966,1.19609 5.3614,3.18945 2.4387,2.14652 5.7658,4.49198 7.3945,5.21289 2.3606,1.0449 2.8065,1.72701 2.2031,3.36328 -1.4229,3.85847 -0.8246,14.17244 1.0313,17.78321 0.9826,1.91183 1.7871,3.86639 1.7871,4.34179 0,1.53161 -13.6266,0.82951 -18.8106,-0.96875 -6.6178,-2.29566 -9.0219,-5.66519 -9.584,-13.43554 -0.5694,-7.87303 0.1313,-10.42977 4.0977,-14.94727 2.8224,-3.21451 4.5914,-4.68168 6.5195,-4.53906 z m 37.4727,3.0957 c 6.2078,0.0726 12.8621,2.84256 18.3105,8.29102 5.6543,5.65424 6.116,5.27913 1.8243,-1.48828 -1.6852,-2.65714 -3.0645,-5.0453 -3.0645,-5.30665 0,-0.9225 17.2653,-0.46095 19.875,0.53126 4.8371,1.83903 4.7063,7.96124 -0.2285,10.71484 l -2.7949,1.55859 3.0644,-0.25586 c 2.6403,-0.22188 3.3261,0.27979 4.9649,3.63477 1.692,3.46417 1.7481,4.29716 0.5097,7.55078 -2.2096,5.80567 -4.316,6.65655 -15.2075,7.77174 -3.2291,0.33064 -7.1205,0.93182 -9.878,1.15418 -1.9223,0.15501 -4.8408,1.19922 -6.5557,1.31397 -12.7763,0.85496 -18.869,-0.36852 -23.101,-2.64223 -5.972,-3.20859 -7.9788,-18.16968 -3.3457,-24.9336 3.6592,-5.34201 9.4191,-7.96707 15.627,-7.89453 z m -45.1837,28.61106 c 0.8978,0.68764 3.0762,1.377 5.0743,2.06668 3.4316,1.18446 8.4775,1.94835 13.0098,1.96875 7.2081,0.0325 7.4043,0.10037 7.4043,2.58593 0,2.49606 -0.1658,2.55146 -7.4043,2.47266 -8.8072,-0.0959 -15.5542,-2.24323 -17.7969,-5.66602 -0.6012,-0.91763 -0.9692,-1.83427 -1.2083,-2.35707 -0.4112,-0.89888 -0.5168,-2.17238 0.9211,-1.07093 z m 87.7208,4.19363 c 0.7679,0.01 0.8309,0.37576 0.5156,1.19726 -0.8595,2.23999 -2.9604,2.92896 -11.6836,3.83008 -4.2127,0.43519 -9.9571,1.45935 -12.7656,2.27735 -5.3809,1.56724 -15.6331,2.92107 -17.3633,2.29297 -0.5617,-0.20393 -3.2017,-0.66439 -5.8672,-1.02344 -5.0654,-0.68234 -10.9824,-4.6061 -10.9824,-7.28321 0,-1.26042 0.4174,-1.25096 2.9649,0.0664 5.1504,2.66341 16.2959,3.87028 23.664,2.5625 1.6016,-0.28427 3.8043,-1.13939 6.3698,-1.46565 3.2151,-0.40886 6.7962,-0.60769 9.7641,-0.86463 5.3362,-0.46195 11.3332,-0.84382 13.1689,-1.24589 1.0383,-0.22745 1.7541,-0.34977 2.2148,-0.34375 z"
     id="path4397"
     inkscape:connector-curvature="0"
     sodipodi:nodetypes="cccccscscsccscsccccscsccccscscssccccccccssssscsscccscccsccccccccsscccscsccsssssccsscccssccsccccscccccccssssscssscccsscsccccccssssscscccsccssscccscsscccccccccccccsccccscsscccccscccscccccscscccsccscscccccsccssscccsccsccssscsscssssccsccscssscssssssccsccsscccsccscsccsscccsccccccsccsccccccccccccccccscssccsssccssccscscccsssscsscccccssccccccscssccccc" /></g></svg>