<svg width="383.85" height="189.69" version="1.1" viewBox="0 0 383.85 189.69" xmlns="http://www.w3.org/2000/svg">
 <g transform="matrix(.41876 0 0 .41876 588.25 -299.75)">
  <g shape-rendering="auto">
   <path d="m-1017.8 715.8-6.5527 14.236-22.68 49.246-0.055 0.11719-116.27-25.125 0.9668 29.195-32.32-30.18-23.775 20.379-2.3828 2.043-16.48 14.133-8.8984-42.287-37.652 13.252-117.5 41.357-3.3105 184.51 170.48 20.656 6.9082-35.445 71.572 17.707 0.3769 11.756 19.957 0.3926-10.965 6.3398 15.525 29.721 56.889 108.91 72.772-9.8828 1.2812-2.9844 52.012 10.691 5.1758-10.113 43.031 13.811 3.0996-6.3906 4.666 9.1542 36.928-17.209c0.24389 0.092 0.51714 0.2167 0.76172 0.3183 2.5314 1.052 4.9822 1.8461 7.2715 2.5313 2.2893 0.6852 4.3852 1.235 5.9473 1.6269 0.78106 0.196 1.4264 0.3515 1.8906 0.461 0.23212 0.055 0.42004 0.1 0.55664 0.1308 0.0683 0.016 0.12225 0.027 0.16797 0.037 0.0214 0 0.0404 0.01 0.0625 0.014l5.2383 0.2383 36.164-4.7442 28.611 34.387 34.682-30.564 4.0781 11.111 38.047-2.0351c20.327-1.0868 38.07-3.8216 54.08-10.908 16.88-7.472 32.015-21.356 37.678-40.836 3.435-11.816 3.162-23.107 1.6172-33.043-1.5021-9.6615-4.5584-21.101-12.646-31.705-0.3946-0.5173-0.88481-0.963-1.3008-1.4629l-11.641-61.377 130.69 32.332 4.9688-165.58-87.205-81.426-17.775 15.236-79.4-3.502-9.2891-17.01-25.861 5.9648-59.705 13.768 0.61719 6.209-22.143-20.676-23.773 20.396-2.377 2.0371-16.271 13.955-53.908-16.055-2.2324-5.2266-29.602 8.3418-2.9609 0.83398-9.2422 2.6055 8.4024-14.457zm113.19 248.28-31.105 0.56641-3.4922 8.2578-29.297-16.055 37.065-16.779z" color="#000000" color-rendering="auto" dominant-baseline="auto" fill="#fff" image-rendering="auto" solid-color="#000000" style="font-feature-settings:normal;font-variant-alternates:normal;font-variant-caps:normal;font-variant-ligatures:normal;font-variant-numeric:normal;font-variant-position:normal;isolation:auto;mix-blend-mode:normal;shape-padding:0;text-decoration-color:#000000;text-decoration-line:none;text-decoration-style:solid;text-indent:0;text-orientation:mixed;text-transform:none;white-space:normal"/>
   <path d="m-979.13 968.15-11.195 36.807-22.844-32.109-22.709 35.314-15.072-37.949-75.522 43.666 8.8711 16.982 52.012 99.574 53.92-7.3222 2.7558-6.4199 52.816 10.857 5.7832-11.299 42.766 13.725 10.504-21.65 0.14649-0.025 11.717 22.988 31.674-14.76c0.39624 0.5129 0.56278 0.8926 1.1094 1.4844 2.7735 3.0025 17.298 6.264 17.301 6.2636l44.359-5.8183 24.027 28.877 39.551-34.855 7.8125 21.289 26.982-1.4433c19.417-1.0381 35.288-3.6618 48.809-9.6465 13.52-5.9848 25.217-17.103 29.346-31.307 2.6851-9.2366 2.5332-17.971 1.1992-26.551-1.334-8.5798-3.5772-16.821-9.75-24.914-0.95104-1.2469-2.0827-2.5179-3.3516-3.7617l-11.65-61.42h-16.562c-17.438 0-32.644 4.2981-46.004 7.6621l-0.7129 0.17968-0.69921 0.23243c-10.547 3.4975-19.959 8.2322-27.594 15.117-15.549-11.469-36.17-16.845-61.633-20.861-7.1183-1.1228-15.995-2.2592-23.424-3.082-3.7146-0.41141-7.0203-0.74123-9.7188-0.94922-1.3492-0.10399-2.4948-0.182-3.8359-0.21289-0.67057-0.0154-1.3196-0.0416-2.6406 0.0508-0.66052 0.0462-1.438 0.0774-3.0957 0.43945-1.6576 0.36204-4.6484-1.1046-11.219 6.7988h2e-3c-4.2291 5.0864-3.4494 5.955-3.748 6.9219-0.29866 0.9669-0.39192 1.4368-0.47461 1.8262-0.16538 0.77879-0.21283 1.1322-0.26367 1.4727-0.10169 0.68093-0.15436 1.1547-0.2168 1.709-0.12489 1.1085-0.25408 2.4132-0.4043 4.0352-0.30043 3.244-0.67736 7.6775-1.1094 12.969-0.13751 1.6842-0.32542 4.2835-0.47266 6.125l-18.244-36.713-55.896 1.0195-6.1602 14.568zm252.93 32.086 0.18945 0.1563c-0.0335-0.028-0.0719-0.05-0.10547-0.078-0.0306-0.025-0.0533-0.053-0.084-0.078z" color="#000000" color-rendering="auto" dominant-baseline="auto" fill="#0a5500" image-rendering="auto" solid-color="#000000" style="font-feature-settings:normal;font-variant-alternates:normal;font-variant-caps:normal;font-variant-ligatures:normal;font-variant-numeric:normal;font-variant-position:normal;isolation:auto;mix-blend-mode:normal;shape-padding:0;text-decoration-color:#000000;text-decoration-line:none;text-decoration-style:solid;text-indent:0;text-orientation:mixed;text-transform:none;white-space:normal"/>
   <path d="m-1010.8 736.31-8.7383 18.982-1.5274 3.3203-16.49 35.793 4.7676 3.4492-115.01-24.854 0.8496 25.627 0.1465 4.4746 0.5137 15.99-48.92-45.678-13.586 11.645-2.3808 2.041-35.707 30.619-10.592-50.332-129.19 45.471-2.8809 160.55 143.19 17.35 7.2539-37.223 97.906 24.221 0.2852 8.873 44.396 0.87305 39.809-23.957-4.7364-31.086 34.162-8.1777-0.455 45.318 87.107-43.463-5.3809-44.018 71.639 97.988 20.119-52.055-2.4258 19.68 124.09 30.699 1.0801 11.982 77.869-51.703-2.7461-70.506 22.473 4.7266-9.2188 74.801 135.58 33.541 4.207-140.23-72.436-67.635-13.586 11.645-2.3809 2.041-15.006 12.869 1.8711-16.945-73.09-3.2246-2.5566 1.873-9.002-16.484-14.777 3.4082-46.844 10.803 2.0449 20.576 1.2051 12.117-41.432-38.684-13.586 11.656-2.377 2.0371-22.479 19.277-53.436-15.912-6.0293 16.652-8.8496-20.719-19.875 5.6016-39.691 11.189-0.75586-6.1816 14.635-25.184zm-17.77 64.598 2.502 1.8125-0.076 8.0137-0.055 5.4531z" color="#000000" color-rendering="auto" dominant-baseline="auto" fill="#5a2500" image-rendering="auto" solid-color="#000000" style="font-feature-settings:normal;font-variant-alternates:normal;font-variant-caps:normal;font-variant-ligatures:normal;font-variant-numeric:normal;font-variant-position:normal;isolation:auto;mix-blend-mode:normal;shape-padding:0;text-decoration-color:#000000;text-decoration-line:none;text-decoration-style:solid;text-indent:0;text-orientation:mixed;text-transform:none;white-space:normal"/>
  </g>
  <g fill="#f60" shape-rendering="auto">
   <path d="m-1001.3 763.65-1.5293 3.3223-9.6114 20.863 24.504 17.732-18.109 2.3066-0.029 3.0508-1.2657 126.18 45.215-22.561-13.512-110.54-8.5352 1.0879 14.596-25.115zm301.55 24.43-29.695 6.8476 0.30469 3.0645 4.7305 47.613 9.873 109.58 40.541-26.918-2.627-67.404 4.8008-16.352 39.182 8.2403 5.5977-50.69-44.723-1.9727-15.307 11.209zm-427.14 9.8808 0.1485 4.4844 5.2792 164.56 19.645 0.38711 23.391-14.076-5.491-36.028 51.332-12.287-13.914-89.668zm-68.818 2.2793-2.379 2.0391-46.557 39.924 23.74 28.113 28.764-23.43 7.7832 7.8242-49.301 22.602-6.8105 55.264 94.31 23.332 3.1934-106.42zm405.88 0-2.377 2.0391-46.557 39.924 23.738 28.113 28.764-23.43 7.7832 7.8242-49.301 22.602-6.8106 55.264 94.312 23.332 3.1934-106.42zm213.55 0-2.3789 2.0391-46.557 39.924 23.738 28.113 28.766-23.43 7.7832 7.8242-49.301 22.602-6.8106 55.264 94.311 23.332 3.1934-106.42zm-331.23 10.174-2.959 0.834-51.826 14.611 82.535 112.89 44.023-113.9-33.025-9.834-16.877 46.604zm-179.67 30.414 9.8067 3.295 4.8926 23.186-10.217 4.3203zm-112.1 53.398 14.494 0.7851-2.5606 13.715-15.291-4.6993zm405.88 0 14.496 0.7851-2.5625 13.715-15.291-4.6993zm213.55 0 14.494 0.7851-2.5625 13.713-15.289-4.6973z" color="#000000" color-rendering="auto" dominant-baseline="auto" image-rendering="auto" solid-color="#000000" style="font-feature-settings:normal;font-variant-alternates:normal;font-variant-caps:normal;font-variant-ligatures:normal;font-variant-numeric:normal;font-variant-position:normal;isolation:auto;mix-blend-mode:normal;shape-padding:0;text-decoration-color:#000000;text-decoration-line:none;text-decoration-style:solid;text-indent:0;text-orientation:mixed;text-transform:none;white-space:normal"/>
   <path d="m-1272.3 793.82-5.3172 1.8721-89.249 31.413-2.3095 128.62 106.8 12.939 12.566-64.481-62.208 5.69 4.6656-39.982 50.072-4.7128z" color="#000000" color-rendering="auto" dominant-baseline="auto" image-rendering="auto" solid-color="#000000" style="font-feature-settings:normal;font-variant-alternates:normal;font-variant-caps:normal;font-variant-ligatures:normal;font-variant-numeric:normal;font-variant-position:normal;isolation:auto;mix-blend-mode:normal;shape-padding:0;text-decoration-color:#000000;text-decoration-line:none;text-decoration-style:solid;text-indent:0;text-orientation:mixed;text-transform:none;white-space:normal"/>
  </g>
  <path d="m-793.99 1083.3-0.0999 15.436-43.616 5.7211c-0.77458 0.1016 7.5266-110.78 8.1768-111.56 0.4737-0.56981 22.19 1.8354 35.437 3.9249 25.378 4.003 45.738 10.978 55.251 18.927 7.5072 6.119 9.7672 15.457 9.2473 21.487-1.6572 19.225-12.516 31.184-27.793 37.184l24.643 16.326-31.759 27.99zm27.898-45.742c-0.10702-6.7323-26.294-8.599-32-8.9971v14.176c6.2839 0.8691 32.083 0.062 32-5.1787zm46.202 36.713c7.9587 0.4121 16.108 1.3279 24.398 1.4042 21.987 0.1494 19.909-6.6794-3.22-10.584-11.334-1.9134-14.834-3.1813-19.412-7.034-4.4329-3.7301-7.0263-10.044-7.6811-18.702-1.403-18.551 7.9578-30.136 30.351-37.561 13.554-3.4129 27.164-7.0564 41.121-7.0564l6.9663 36.727-13.262 0.5061c-10.184 0.3886-14.156 0.9425-17.113 2.3866-9.4054 4.5931-3.2515 8.2685 15.649 9.3467 14.106 0.8046 19.003 2.5489 23.422 8.3433 5.7318 7.5148 8.221 23.525 5.2478 33.753-4.6843 16.113-23.942 24.638-60.017 26.566l-12.23 0.6538zm-379.99-52.659 38.885-22.483 20.887 52.59 27.769-43.184 29.301 41.186 15.875-52.195 43.072 23.602-42.885 83.779-35.558-7.3097-8.5069-26.654-14.547 33.885-28.784 3.9089zm147.22 72.893 40.28-95.268 30.254-0.55193 44.03 88.602-38.044 17.729-9.6645-18.963-24.784 4.3565-7.3886 15.229zm61.36-39.754-4.4263-14.014-5.8375 13.903z" fill="#2eff19"/>
  <path d="m-793.99 1083.3-0.0999 15.436-43.616 5.7211c-0.77458 0.1016 7.5266-110.78 8.1768-111.56 0.4737-0.56981 22.19 1.8354 35.437 3.9249 25.378 4.003 45.738 10.978 55.251 18.927 7.5072 6.119 9.7672 15.457 9.2473 21.487-1.6572 19.225-12.516 31.184-27.793 37.184l24.643 16.326-31.759 27.99zm27.898-45.742c-0.10702-6.7323-26.294-8.599-32-8.9971v14.176c6.2839 0.8691 32.083 0.062 32-5.1787zm46.202 36.713c7.9587 0.4121 16.108 1.3279 24.398 1.4042 21.987 0.1494 19.909-6.6794-3.22-10.584-11.334-1.9134-14.834-3.1813-19.412-7.034-4.4329-3.7301-7.0263-10.044-7.6811-18.702-1.403-18.551 7.9578-30.136 30.351-37.561 13.554-3.4129 27.164-7.0564 41.121-7.0564l6.9663 36.727-13.262 0.5061c-10.184 0.3886-14.156 0.9425-17.113 2.3866-9.4054 4.5931-3.2515 8.2685 15.649 9.3467 14.106 0.8046 19.003 2.5489 23.422 8.3433 5.7318 7.5148 8.221 23.525 5.2478 33.753-4.6843 16.113-23.942 24.638-60.017 26.566l-12.23 0.6538zm-379.99-52.659 38.885-22.483 20.887 52.59 27.769-43.184 29.301 41.186 15.875-52.195 43.072 23.602-42.885 83.779-35.558-7.3097-8.5069-26.654-14.547 33.885-28.784 3.9089zm147.22 72.893 40.28-95.268 30.254-0.55193 44.03 88.602-38.044 17.729-9.6645-18.963-24.784 4.3565-7.3886 15.229zm61.36-39.754-4.4263-14.014-5.8375 13.903z" fill="#3ded2b"/>
  <path d="m-965.9 885.6c-13.924 0.0708-27.546 0.24121-40.965 0.50391l-0.5118 51.01 45.215-22.561-3.5391-28.953c-0.0654 3.1e-4 -0.13383-3.3e-4 -0.19922 0zm-69.541 1.2363c-30.299 0.96645-59.592 2.542-88.471 4.9004l2.414 75.277 19.645 0.38671 23.391-14.076-5.4902-36.027 51.332-12.287zm117.95 0.36133 37.699 51.564 18.184-47.049c-19.483-1.8447-38.238-3.4267-55.883-4.5156zm-226.83 6.3398c-13.724 1.3089-27.396 2.815-41.072 4.5215l-1.9942 10.676-15.291-4.6992 1.334-3.8945c-11.898 1.6259-23.826 3.412-35.822 5.377l-3.3359 27.066 94.31 23.332zm314.35 1.3066-4.6504 37.74 94.312 23.332 1.5527-51.74c-13.79-1.329-27.502-2.7176-41.127-4.1309l-1.623 8.6894-15.291-4.6992 1.9024-5.5547c-11.808-1.2347-23.579-2.4594-35.076-3.6367zm110.97 11.172 4.4316 49.174 40.541-26.918-0.72656-18.664c-14.664-1.0266-29.448-2.2562-44.246-3.5918zm-531.53 1.7539c-38.076 6.6231-77.033 15.046-118.26 25.678l-0.4004 22.285 106.8 12.939zm725.15 1.8184c-28.621 3.1747-60.175 3.8167-93.223 2.877l-2.4785 20.119 94.311 23.332z" color="#000000" color-rendering="auto" dominant-baseline="auto" fill="#ff822f" image-rendering="auto" shape-rendering="auto" solid-color="#000000" style="font-feature-settings:normal;font-variant-alternates:normal;font-variant-caps:normal;font-variant-ligatures:normal;font-variant-numeric:normal;font-variant-position:normal;isolation:auto;mix-blend-mode:normal;shape-padding:0;text-decoration-color:#000000;text-decoration-line:none;text-decoration-style:solid;text-indent:0;text-orientation:mixed;text-transform:none;white-space:normal"/>
  <path d="m-828.41 992.8c-0.665-0.0153-1.056 0.0108-1.1152 0.082-0.31758 0.38196-2.4614 27.066-4.4805 54.219 35.565-1.6335 69.962-4.2238 104.23-8.0625 0.0715-0.5989 0.13461-1.2047 0.1875-1.8183 0.51985-6.0308-1.7389-15.367-9.2461-21.486-9.5125-7.9494-29.874-14.925-55.252-18.928-11.591-1.8283-29.665-3.8986-34.32-4.0059zm174.08 1.9199c-13.957 0-27.567 3.6437-41.121 7.0566-22.091 7.3254-31.492 18.702-30.395 36.818 25.798-2.9635 51.557-6.6354 77.721-11.168zm-312.83 2.7891-15.268 50.195c15.518 0.9882 30.202 1.6011 43.854 1.709l14.486-28.301zm85.043 1.1602-30.256 0.55078-21.227 50.207c0.58934-9e-4 1.198 0.01 1.7832 0 11.029-0.056 21.879-0.1672 32.584-0.3418l3.5137-8.3691 2.6055 8.2519c12.013-0.2244 23.85-0.5294 35.531-0.9277zm-178.87 0.44335-38.885 22.482 8.4316 16.142c16.214 1.6947 32.222 3.3465 47.721 4.8516zm48.656 9.4063-22.457 34.922c17.423 1.6415 34.269 3.0737 50.232 4.1191zm214.25 20.025c5.7056 0.3981 31.893 2.2657 32 8.998 0.0833 5.2407-25.716 6.0469-32 5.1778z" fill="#5af049"/>
 </g>
</svg>
