<?xml version="1.0" encoding="UTF-8" standalone="no"?>
<svg
   xmlns:dc="http://purl.org/dc/elements/1.1/"
   xmlns:cc="http://creativecommons.org/ns#"
   xmlns:rdf="http://www.w3.org/1999/02/22-rdf-syntax-ns#"
   xmlns:svg="http://www.w3.org/2000/svg"
   xmlns="http://www.w3.org/2000/svg"
   xmlns:xlink="http://www.w3.org/1999/xlink"
   xmlns:sodipodi="http://sodipodi.sourceforge.net/DTD/sodipodi-0.dtd"
   xmlns:inkscape="http://www.inkscape.org/namespaces/inkscape"
   width="171.98398"
   height="171.98398"
   version="1.1"
   viewBox="0 0 45.504138 45.504574"
   id="svg352"
   sodipodi:docname="borderbamboo.svg"
   inkscape:version="0.92.4 (5da689c313, 2019-01-14)">
  <metadata
     id="metadata356">
    <rdf:RDF>
      <cc:Work
         rdf:about="">
        <dc:format>image/svg+xml</dc:format>
        <dc:type
           rdf:resource="http://purl.org/dc/dcmitype/StillImage" />
        <dc:title></dc:title>
      </cc:Work>
    </rdf:RDF>
  </metadata>
  <sodipodi:namedview
     pagecolor="#ffffff"
     bordercolor="#666666"
     borderopacity="1"
     objecttolerance="10"
     gridtolerance="10"
     guidetolerance="10"
     inkscape:pageopacity="0"
     inkscape:pageshadow="2"
     inkscape:window-width="1920"
     inkscape:window-height="1027"
     id="namedview354"
     showgrid="false"
     inkscape:pagecheckerboard="true"
     inkscape:showpageshadow="false"
     inkscape:snap-global="false"
     fit-margin-top="0"
     fit-margin-left="0"
     fit-margin-right="0"
     fit-margin-bottom="0"
     inkscape:zoom="2.8284271"
     inkscape:cx="17.555352"
     inkscape:cy="89.277753"
     inkscape:window-x="-8"
     inkscape:window-y="-8"
     inkscape:window-maximized="1"
     inkscape:current-layer="svg352"
     showguides="true"
     inkscape:guide-bbox="true"
     inkscape:snap-bbox="true"
     inkscape:bbox-paths="true"
     inkscape:bbox-nodes="true"
     inkscape:snap-bbox-edge-midpoints="true"
     inkscape:snap-bbox-midpoints="true"
     inkscape:object-paths="true"
     inkscape:snap-intersection-paths="true"
     inkscape:snap-smooth-nodes="true"
     inkscape:snap-midpoints="true" />
  <defs
     id="defs60">
    <linearGradient
       id="linearGradient8789"
       x1="300.29999"
       x2="300.29999"
       y1="63.365002"
       y2="36.063"
       gradientTransform="matrix(0.09285155,0,0,0.11340379,-4.9264496,-2.5907742)"
       gradientUnits="userSpaceOnUse"
       xlink:href="#verde" />
    <linearGradient
       id="verde">
      <stop
         stop-color="#1d3209"
         offset="0"
         id="stop3" />
      <stop
         stop-color="#3a6712"
         offset=".11087"
         id="stop5" />
      <stop
         stop-color="#5b9e1c"
         offset=".54248"
         id="stop7" />
      <stop
         stop-color="#1d3209"
         offset="1"
         id="stop9" />
    </linearGradient>
    <linearGradient
       id="linearGradient37826"
       x2="1"
       gradientTransform="matrix(-4.7740987,-7.9390645,-6.0642212,4.2752861,-16.00281,67.666947)"
       gradientUnits="userSpaceOnUse"
       xlink:href="#linearGradient390" />
    <linearGradient
       id="linearGradient390"
       x2="1"
       gradientTransform="matrix(26.775,-54.019,41.594,24.529,-18.224,325.91)"
       gradientUnits="userSpaceOnUse">
      <stop
         stop-color="#2e954b"
         offset="0"
         id="stop13" />
      <stop
         stop-color="#54c04c"
         offset=".3447"
         id="stop15" />
      <stop
         stop-color="#b6de36"
         offset=".99882"
         id="stop17" />
      <stop
         stop-color="#b6de36"
         offset="1"
         id="stop19" />
    </linearGradient>
    <linearGradient
       id="linearGradient37804"
       x2="1"
       gradientTransform="matrix(-9.7556254,-8.3105018,-6.0712075,8.2760922,-12.991029,81.017092)"
       gradientUnits="userSpaceOnUse"
       xlink:href="#linearGradient390" />
    <clipPath
       id="clipPath14464">
      <path
         d="m 658.13,882.58 c -1.418,2.141 -35.367,54.012 -70.656,157.32 -32.473,95.01 -71.981,253.23 -75.805,467.31 -3.469,189.25 28.695,370.32 95.457,538.1 67.441,169.39 159.39,290.49 222.4,361.89 l 2.399,-4.02 c -62.281,-70.49 -145.9,-196.24 -212.55,-363.66 -65.977,-165.83 -97.75,-344.87 -94.391,-532.05 3.84,-211.98 42.899,-368.51 75.036,-462.48 34.656,-101.53 68.64,-153.42 68.996,-153.91 l -10.883,-8.5"
         id="path23"
         inkscape:connector-curvature="0" />
    </clipPath>
    <linearGradient
       id="linearGradient14470"
       x1="0.0085663004"
       x2="1"
       y1="-0.016419001"
       gradientTransform="matrix(-358.76,-1479.2,-1479.2,358.76,857.44,2400.4)"
       gradientUnits="userSpaceOnUse">
      <stop
         stop-color="#54c04c"
         offset="0"
         id="stop26" />
      <stop
         stop-color="#2e954b"
         offset="1"
         id="stop28" />
    </linearGradient>
    <linearGradient
       id="linearGradient15228"
       x2="1"
       gradientTransform="matrix(30.214,-48.635,48.635,30.214,-76.181,263.46)"
       gradientUnits="userSpaceOnUse">
      <stop
         stop-color="#2e954b"
         offset="0"
         id="stop31" />
      <stop
         stop-color="#7ecd42"
         offset=".5843"
         id="stop33" />
      <stop
         stop-color="#e6df20"
         offset=".99882"
         id="stop35" />
      <stop
         stop-color="#e6df20"
         offset="1"
         id="stop37" />
    </linearGradient>
    <linearGradient
       id="linearGradient37844"
       x2="1"
       gradientTransform="matrix(-4.5069158,-7.494376,-5.72443,4.0357916,-15.071178,58.001717)"
       gradientUnits="userSpaceOnUse"
       xlink:href="#linearGradient390" />
    <linearGradient
       id="linearGradient37850"
       x2="1"
       gradientTransform="matrix(-1.9956069,-5.6714204,-4.4142205,1.9238373,-12.937778,50.966562)"
       gradientUnits="userSpaceOnUse"
       xlink:href="#linearGradient390" />
    <linearGradient
       id="linearGradient37856"
       x2="1"
       gradientTransform="matrix(3.0390417,-3.4765785,2.6003237,2.6298378,-9.2311322,44.237002)"
       gradientUnits="userSpaceOnUse"
       xlink:href="#linearGradient390" />
    <linearGradient
       id="linearGradient37862"
       x1="0.0015632"
       x2="1"
       y1="-0.0087237004"
       gradientTransform="matrix(5.1176605,-7.7870953,5.9228443,4.5407753,-14.255028,61.958882)"
       gradientUnits="userSpaceOnUse"
       xlink:href="#linearGradient390" />
    <linearGradient
       id="linearGradient37868"
       x2="1"
       gradientTransform="matrix(4.8646157,-3.5332186,2.5394357,4.0911365,-11.063594,48.480758)"
       gradientUnits="userSpaceOnUse"
       xlink:href="#linearGradient390" />
    <linearGradient
       id="linearGradient8768"
       x1="300.29999"
       x2="300.29999"
       y1="63.365002"
       y2="36.063"
       gradientTransform="matrix(0.09285155,0,0,0.11340379,-21.437152,-9.3150132)"
       gradientUnits="userSpaceOnUse"
       xlink:href="#verde" />
    <linearGradient
       id="linearGradient3985"
       x1="300.29999"
       x2="300.29999"
       y1="63.365002"
       y2="36.063"
       gradientTransform="matrix(0.17403621,0,0,0.21255828,18.612202,-5.0906021)"
       gradientUnits="userSpaceOnUse"
       xlink:href="#verde" />
    <linearGradient
       id="linearGradient3993"
       x1="300.29999"
       x2="300.29999"
       y1="63.365002"
       y2="36.063"
       gradientTransform="matrix(0.09285155,0,0,0.11340379,9.8818728,-2.7239032)"
       gradientUnits="userSpaceOnUse"
       xlink:href="#verde" />
    <linearGradient
       id="linearGradient4003"
       x1="300.29999"
       x2="300.29999"
       y1="63.365002"
       y2="36.063"
       gradientTransform="matrix(0,0.09285155,-0.11340379,0,47.844579,-19.674893)"
       gradientUnits="userSpaceOnUse"
       xlink:href="#verde" />
    <linearGradient
       id="linearGradient4007"
       x1="300.29999"
       x2="300.29999"
       y1="63.365002"
       y2="36.063"
       gradientTransform="matrix(0,0.09285155,-0.11340379,0,47.904584,-4.8537067)"
       gradientUnits="userSpaceOnUse"
       xlink:href="#verde" />
    <linearGradient
       id="linearGradient4011"
       x1="300.29999"
       x2="300.29999"
       y1="63.365002"
       y2="36.063"
       gradientTransform="matrix(0,0.09285155,-0.11340379,0,47.99031,9.9267608)"
       gradientUnits="userSpaceOnUse"
       xlink:href="#verde" />
    <linearGradient
       id="linearGradient4019"
       x1="300.29999"
       x2="300.29999"
       y1="63.365002"
       y2="36.063"
       gradientTransform="matrix(0,-0.09285155,0.11340379,0,-2.5223305,35.482089)"
       gradientUnits="userSpaceOnUse"
       xlink:href="#verde" />
    <linearGradient
       id="linearGradient4021"
       x1="300.29999"
       x2="300.29999"
       y1="63.365002"
       y2="36.063"
       gradientTransform="matrix(0,-0.09285155,0.11340379,0,-2.4366068,50.265128)"
       gradientUnits="userSpaceOnUse"
       xlink:href="#verde" />
    <linearGradient
       id="linearGradient4023"
       x1="300.29999"
       x2="300.29999"
       y1="63.365002"
       y2="36.063"
       gradientTransform="matrix(0,-0.09285155,0.11340379,0,-2.3757431,65.082461)"
       gradientUnits="userSpaceOnUse"
       xlink:href="#verde" />
    <linearGradient
       id="linearGradient4033"
       x1="300.29999"
       x2="300.29999"
       y1="63.365002"
       y2="36.063"
       gradientTransform="matrix(-0.09285155,0,0,-0.11340379,35.491383,48.134896)"
       gradientUnits="userSpaceOnUse"
       xlink:href="#verde" />
    <linearGradient
       id="linearGradient4035"
       x1="300.29999"
       x2="300.29999"
       y1="63.365002"
       y2="36.063"
       gradientTransform="matrix(-0.09285155,0,0,-0.11340379,50.312998,48.0406)"
       gradientUnits="userSpaceOnUse"
       xlink:href="#verde" />
    <linearGradient
       id="linearGradient4037"
       x1="300.29999"
       x2="300.29999"
       y1="63.365002"
       y2="36.063"
       gradientTransform="matrix(-0.17403621,0,0,-0.21255828,122.1494,89.811874)"
       gradientUnits="userSpaceOnUse"
       xlink:href="#verde" />
    <linearGradient
       id="linearGradient4039"
       x1="300.29999"
       x2="300.29999"
       y1="63.365002"
       y2="36.063"
       gradientTransform="matrix(-0.09285155,0,0,-0.11340379,65.122179,47.918186)"
       gradientUnits="userSpaceOnUse"
       xlink:href="#verde" />
    <linearGradient
       id="linearGradient4204"
       x1="0.0085663004"
       x2="1"
       y1="-0.016419001"
       gradientTransform="matrix(-5.3939535,42.798675,-42.798675,-5.3939535,-19.654824,42.712533)"
       gradientUnits="userSpaceOnUse"
       xlink:href="#linearGradient14470" />
    <linearGradient
       id="linearGradient4206"
       x2="1"
       gradientTransform="matrix(5.2203901,-10.993973,10.993973,5.2203901,-13.986578,73.631881)"
       gradientUnits="userSpaceOnUse"
       xlink:href="#linearGradient15228" />
    <linearGradient
       inkscape:collect="always"
       xlink:href="#verde"
       id="linearGradient4064"
       gradientUnits="userSpaceOnUse"
       gradientTransform="matrix(0.09285155,0,0,0.11340379,-21.437152,-9.3150132)"
       x1="300.29999"
       y1="63.365002"
       x2="300.29999"
       y2="36.063" />
    <linearGradient
       inkscape:collect="always"
       xlink:href="#verde"
       id="linearGradient4074"
       gradientUnits="userSpaceOnUse"
       gradientTransform="matrix(0.09285155,0,0,0.11340379,-21.437152,-9.3150132)"
       x1="300.29999"
       y1="63.365002"
       x2="300.29999"
       y2="36.063" />
    <linearGradient
       inkscape:collect="always"
       xlink:href="#verde"
       id="linearGradient4116"
       gradientUnits="userSpaceOnUse"
       gradientTransform="matrix(0.09285155,0,0,0.11340379,-21.437152,-9.3150132)"
       x1="300.29999"
       y1="63.365002"
       x2="300.29999"
       y2="36.063" />
    <linearGradient
       inkscape:collect="always"
       xlink:href="#verde"
       id="linearGradient4118"
       gradientUnits="userSpaceOnUse"
       gradientTransform="matrix(0.09285155,0,0,0.11340379,-21.437152,-9.3150132)"
       x1="300.29999"
       y1="63.365002"
       x2="300.29999"
       y2="36.063" />
    <linearGradient
       inkscape:collect="always"
       xlink:href="#verde"
       id="linearGradient4120"
       gradientUnits="userSpaceOnUse"
       gradientTransform="matrix(0.09285155,0,0,0.11340379,-21.437152,-9.3150132)"
       x1="300.29999"
       y1="63.365002"
       x2="300.29999"
       y2="36.063" />
    <linearGradient
       inkscape:collect="always"
       xlink:href="#verde"
       id="linearGradient4148"
       gradientUnits="userSpaceOnUse"
       gradientTransform="matrix(0.09285155,0,0,0.11340379,-21.437152,-9.3150132)"
       x1="300.29999"
       y1="63.365002"
       x2="300.29999"
       y2="36.063" />
    <linearGradient
       inkscape:collect="always"
       xlink:href="#verde"
       id="linearGradient4150"
       gradientUnits="userSpaceOnUse"
       gradientTransform="matrix(0.09285155,0,0,0.11340379,-21.437152,-9.3150132)"
       x1="300.29999"
       y1="63.365002"
       x2="300.29999"
       y2="36.063" />
    <linearGradient
       inkscape:collect="always"
       xlink:href="#verde"
       id="linearGradient4152"
       gradientUnits="userSpaceOnUse"
       gradientTransform="matrix(0.09285155,0,0,0.11340379,-21.437152,-9.3150132)"
       x1="300.29999"
       y1="63.365002"
       x2="300.29999"
       y2="36.063" />
    <linearGradient
       inkscape:collect="always"
       xlink:href="#verde"
       id="linearGradient4212"
       gradientUnits="userSpaceOnUse"
       gradientTransform="matrix(0.09285155,0,0,0.11340379,-21.437152,-9.3150132)"
       x1="300.29999"
       y1="63.365002"
       x2="300.29999"
       y2="36.063" />
    <linearGradient
       inkscape:collect="always"
       xlink:href="#verde"
       id="linearGradient4214"
       gradientUnits="userSpaceOnUse"
       gradientTransform="matrix(0.09285155,0,0,0.11340379,-21.437152,-9.3150132)"
       x1="300.29999"
       y1="63.365002"
       x2="300.29999"
       y2="36.063" />
    <linearGradient
       inkscape:collect="always"
       xlink:href="#verde"
       id="linearGradient4216"
       gradientUnits="userSpaceOnUse"
       gradientTransform="matrix(0.09285155,0,0,0.11340379,-21.437152,-9.3150132)"
       x1="300.29999"
       y1="63.365002"
       x2="300.29999"
       y2="36.063" />
  </defs>
  <path
     style="fill:#bcdba1;stroke-width:0.45777458"
     inkscape:connector-curvature="0"
     id="path62"
     d="M 2.4803346,3.8822344 H 42.237935 V 42.763999 H 2.4803346 Z" />
  <text
     id="text66"
     xml:space="preserve"
     style="font-size:18.90999985px;line-height:1.25;font-family:'Arial Rounded MT Bold';font-variant-ligatures:normal;font-variant-position:normal;font-variant-caps:normal;font-variant-numeric:normal;font-variant-alternates:normal;font-feature-settings:normal;text-indent:0;text-decoration:none;text-decoration-line:none;text-decoration-style:solid;text-decoration-color:#000000;letter-spacing:0px;word-spacing:0px;text-transform:none;text-orientation:mixed;dominant-baseline:auto;white-space:normal;shape-padding:0;fill:#4d4d4d;stroke-width:0.47275001"
     word-spacing="0px"
     letter-spacing="0px"
     font-size="18.91px"
     dominant-baseline="auto"
     y="111.81448"
     x="19.143011"><tspan
       style="stroke-width:0.47275001"
       id="tspan64"
       y="128.85536"
       x="19.143011" /></text>
  <g
     id="g4088"
     transform="translate(-0.14939514,0.48841321)">
    <g
       transform="translate(31.593542,6.0193342)"
       id="g4072">
      <path
         inkscape:connector-curvature="0"
         style="fill:url(#linearGradient4074);stroke-width:0.42861813"
         id="path4066"
         d="m -1.1310257,-1.8653732 c 0.37903985,-0.2263399 0.73302255,-0.3713502 1.55515489,-0.3722887 0.82213291,0 11.13849981,-0.00651 11.69527481,-0.00729 0.556217,-3.388e-4 0.923821,0.2463321 1.139244,0.3749791 0.07288,0.043786 0.150207,0.072421 0.224961,0.06902 0.145678,-0.00663 0.285888,-0.1254114 0.39452,-0.42419 0.164286,-0.4519345 0.347189,-2.1603961 -0.0886,-2.9419384 -0.108353,-0.1940658 -0.196968,-0.2582721 -0.276085,-0.2632966 -0.27487,-0.017456 -0.351651,0.2388637 -0.494882,0.2388637 -0.215286,0 -12.30579711,-0.015395 -12.91229195,-0.015395 -0.6070468,4.338e-4 -1.0375937,0.065344 -1.18919585,-0.1123227 -0.060587,-0.070792 -0.1733346,-0.1162812 -0.2845912,-0.1111461 -0.1677758,0.00774 -0.332162,0.130106 -0.3091735,0.4504057 0.038018,0.5324297 0.4531073,1.5566932 0.10143,2.6510509 -0.067242,0.2092441 0.010907,0.5182883 0.2335729,0.5279684 0.05961,0.00259 0.1305373,-0.016484 0.2106579,-0.06442 z"
         sodipodi:nodetypes="ccccsccssccscsscc" />
      <path
         style="fill:#1d3209;stroke-width:0.43451744"
         inkscape:connector-curvature="0"
         id="path4068"
         d="m -0.95484995,-1.9849164 c -0.20434795,-0.00868 -0.44112645,-0.1261595 -0.39988055,-0.3173313 0.1326273,-0.6147145 0.1462188,-1.1467039 0.029575,-1.7762637 -0.073431,-0.396338 -0.2204469,-0.7750123 -0.1601704,-1.0418662 0.027342,-0.1210484 0.195568,-0.1738635 0.4771062,-0.068629 -0.206034,-0.2347377 -0.6550255,-0.3493079 -0.6193645,0.1609516 0.036133,0.5120349 0.4097976,1.8661076 0.092645,2.7586349 -0.052401,0.1474663 -0.014545,0.3137157 0.080261,0.3852159 0.044807,0.033792 0.1024278,0.062534 0.1661821,0.045887 0.1218315,-0.031812 0.2071878,-0.1032268 0.33364615,-0.1465992 z"
         sodipodi:nodetypes="ccccccsssc" />
      <path
         style="fill:#1d3209;stroke-width:0.43884522"
         inkscape:connector-curvature="0"
         id="path4070"
         d="m 13.401647,-2.0308034 c 0.373767,-0.2611901 0.371989,-1.223059 0.362769,-1.6004398 -0.0106,-0.4338913 -0.133633,-1.3596923 -0.244023,-1.5043272 -0.07555,-0.098962 -0.138471,-0.1334763 -0.362535,-0.050999 0.159509,-0.1117769 0.215402,-0.2360894 0.352521,-0.1930671 0.08939,0.028048 0.236144,0.2652155 0.287874,0.4522927 0.176372,0.4018958 0.201571,1.0364653 0.174992,1.5596495 -0.02295,0.4517425 -0.06344,1.1101632 -0.339814,1.438568 -0.06338,0.075307 -0.121505,0.089134 -0.186301,0.093885 -0.07545,0.00553 -0.302741,-0.1714273 -0.532084,-0.2870646 0.30466,0.096595 0.379356,0.1664464 0.486601,0.091503 z"
         sodipodi:nodetypes="scccccssscs" />
    </g>
    <g
       id="g4062"
       transform="translate(16.741804,6.0193342)">
      <path
         sodipodi:nodetypes="ccccsccssccscsscc"
         d="m -1.1310257,-1.8653732 c 0.37903985,-0.2263399 0.73302255,-0.3713502 1.55515489,-0.3722887 0.82213291,0 11.13849981,-0.00651 11.69527481,-0.00729 0.556217,-3.388e-4 0.923821,0.2463321 1.139244,0.3749791 0.07288,0.043786 0.150207,0.072421 0.224961,0.06902 0.145678,-0.00663 0.285888,-0.1254114 0.39452,-0.42419 0.164286,-0.4519345 0.347189,-2.1603961 -0.0886,-2.9419384 -0.108353,-0.1940658 -0.196968,-0.2582721 -0.276085,-0.2632966 -0.27487,-0.017456 -0.351651,0.2388637 -0.494882,0.2388637 -0.215286,0 -12.30579711,-0.015395 -12.91229195,-0.015395 -0.6070468,4.338e-4 -1.0375937,0.065344 -1.18919585,-0.1123227 -0.060587,-0.070792 -0.1733346,-0.1162812 -0.2845912,-0.1111461 -0.1677758,0.00774 -0.332162,0.130106 -0.3091735,0.4504057 0.038018,0.5324297 0.4531073,1.5566932 0.10143,2.6510509 -0.067242,0.2092441 0.010907,0.5182883 0.2335729,0.5279684 0.05961,0.00259 0.1305373,-0.016484 0.2106579,-0.06442 z"
         id="path4056"
         style="fill:url(#linearGradient4064);stroke-width:0.42861813"
         inkscape:connector-curvature="0" />
      <path
         sodipodi:nodetypes="ccccccsssc"
         d="m -0.95484995,-1.9849164 c -0.20434795,-0.00868 -0.44112645,-0.1261595 -0.39988055,-0.3173313 0.1326273,-0.6147145 0.1462188,-1.1467039 0.029575,-1.7762637 -0.073431,-0.396338 -0.2204469,-0.7750123 -0.1601704,-1.0418662 0.027342,-0.1210484 0.195568,-0.1738635 0.4771062,-0.068629 -0.206034,-0.2347377 -0.6550255,-0.3493079 -0.6193645,0.1609516 0.036133,0.5120349 0.4097976,1.8661076 0.092645,2.7586349 -0.052401,0.1474663 -0.014545,0.3137157 0.080261,0.3852159 0.044807,0.033792 0.1024278,0.062534 0.1661821,0.045887 0.1218315,-0.031812 0.2071878,-0.1032268 0.33364615,-0.1465992 z"
         id="path4058"
         inkscape:connector-curvature="0"
         style="fill:#1d3209;stroke-width:0.43451744" />
      <path
         sodipodi:nodetypes="scccccssscs"
         d="m 13.401647,-2.0308034 c 0.373767,-0.2611901 0.371989,-1.223059 0.362769,-1.6004398 -0.0106,-0.4338913 -0.133633,-1.3596923 -0.244023,-1.5043272 -0.07555,-0.098962 -0.138471,-0.1334763 -0.362535,-0.050999 0.159509,-0.1117769 0.215402,-0.2360894 0.352521,-0.1930671 0.08939,0.028048 0.236144,0.2652155 0.287874,0.4522927 0.176372,0.4018958 0.201571,1.0364653 0.174992,1.5596495 -0.02295,0.4517425 -0.06344,1.1101632 -0.339814,1.438568 -0.06338,0.075307 -0.121505,0.089134 -0.186301,0.093885 -0.07545,0.00553 -0.302741,-0.1714273 -0.532084,-0.2870646 0.30466,0.096595 0.379356,0.1664464 0.486601,0.091503 z"
         id="path4060"
         inkscape:connector-curvature="0"
         style="fill:#1d3209;stroke-width:0.43884522" />
    </g>
    <g
       transform="translate(1.8280281,6.0193342)"
       id="g4054">
      <path
         inkscape:connector-curvature="0"
         style="fill:url(#linearGradient8768);stroke-width:0.42861813"
         id="path168"
         d="m -1.1310257,-1.8653732 c 0.37903985,-0.2263399 0.73302255,-0.3713502 1.55515489,-0.3722887 0.82213291,0 11.13849981,-0.00651 11.69527481,-0.00729 0.556217,-3.388e-4 0.923821,0.2463321 1.139244,0.3749791 0.07288,0.043786 0.150207,0.072421 0.224961,0.06902 0.145678,-0.00663 0.285888,-0.1254114 0.39452,-0.42419 0.164286,-0.4519345 0.347189,-2.1603961 -0.0886,-2.9419384 -0.108353,-0.1940658 -0.196968,-0.2582721 -0.276085,-0.2632966 -0.27487,-0.017456 -0.351651,0.2388637 -0.494882,0.2388637 -0.215286,0 -12.30579711,-0.015395 -12.91229195,-0.015395 -0.6070468,4.338e-4 -1.0375937,0.065344 -1.18919585,-0.1123227 -0.060587,-0.070792 -0.1733346,-0.1162812 -0.2845912,-0.1111461 -0.1677758,0.00774 -0.332162,0.130106 -0.3091735,0.4504057 0.038018,0.5324297 0.4531073,1.5566932 0.10143,2.6510509 -0.067242,0.2092441 0.010907,0.5182883 0.2335729,0.5279684 0.05961,0.00259 0.1305373,-0.016484 0.2106579,-0.06442 z"
         sodipodi:nodetypes="ccccsccssccscsscc" />
      <path
         style="fill:#1d3209;stroke-width:0.43451744"
         inkscape:connector-curvature="0"
         id="path314"
         d="m -0.95484995,-1.9849164 c -0.20434795,-0.00868 -0.44112645,-0.1261595 -0.39988055,-0.3173313 0.1326273,-0.6147145 0.1462188,-1.1467039 0.029575,-1.7762637 -0.073431,-0.396338 -0.2204469,-0.7750123 -0.1601704,-1.0418662 0.027342,-0.1210484 0.195568,-0.1738635 0.4771062,-0.068629 -0.206034,-0.2347377 -0.6550255,-0.3493079 -0.6193645,0.1609516 0.036133,0.5120349 0.4097976,1.8661076 0.092645,2.7586349 -0.052401,0.1474663 -0.014545,0.3137157 0.080261,0.3852159 0.044807,0.033792 0.1024278,0.062534 0.1661821,0.045887 0.1218315,-0.031812 0.2071878,-0.1032268 0.33364615,-0.1465992 z"
         sodipodi:nodetypes="ccccccsssc" />
      <path
         style="fill:#1d3209;stroke-width:0.43884522"
         inkscape:connector-curvature="0"
         id="path330"
         d="m 13.401647,-2.0308034 c 0.373767,-0.2611901 0.371989,-1.223059 0.362769,-1.6004398 -0.0106,-0.4338913 -0.133633,-1.3596923 -0.244023,-1.5043272 -0.07555,-0.098962 -0.138471,-0.1334763 -0.362535,-0.050999 0.159509,-0.1117769 0.215402,-0.2360894 0.352521,-0.1930671 0.08939,0.028048 0.236144,0.2652155 0.287874,0.4522927 0.176372,0.4018958 0.201571,1.0364653 0.174992,1.5596495 -0.02295,0.4517425 -0.06344,1.1101632 -0.339814,1.438568 -0.06338,0.075307 -0.121505,0.089134 -0.186301,0.093885 -0.07545,0.00553 -0.302741,-0.1714273 -0.532084,-0.2870646 0.30466,0.096595 0.379356,0.1664464 0.486601,0.091503 z"
         sodipodi:nodetypes="scccccssscs" />
    </g>
  </g>
  <g
     id="g4114"
     transform="matrix(-1,0,0,1,45.653535,40.153633)">
    <g
       id="g4096"
       transform="translate(31.593542,6.0193342)">
      <path
         sodipodi:nodetypes="ccccsccssccscsscc"
         d="m -1.1310257,-1.8653732 c 0.37903985,-0.2263399 0.73302255,-0.3713502 1.55515489,-0.3722887 0.82213291,0 11.13849981,-0.00651 11.69527481,-0.00729 0.556217,-3.388e-4 0.923821,0.2463321 1.139244,0.3749791 0.07288,0.043786 0.150207,0.072421 0.224961,0.06902 0.145678,-0.00663 0.285888,-0.1254114 0.39452,-0.42419 0.164286,-0.4519345 0.347189,-2.1603961 -0.0886,-2.9419384 -0.108353,-0.1940658 -0.196968,-0.2582721 -0.276085,-0.2632966 -0.27487,-0.017456 -0.351651,0.2388637 -0.494882,0.2388637 -0.215286,0 -12.30579711,-0.015395 -12.91229195,-0.015395 -0.6070468,4.338e-4 -1.0375937,0.065344 -1.18919585,-0.1123227 -0.060587,-0.070792 -0.1733346,-0.1162812 -0.2845912,-0.1111461 -0.1677758,0.00774 -0.332162,0.130106 -0.3091735,0.4504057 0.038018,0.5324297 0.4531073,1.5566932 0.10143,2.6510509 -0.067242,0.2092441 0.010907,0.5182883 0.2335729,0.5279684 0.05961,0.00259 0.1305373,-0.016484 0.2106579,-0.06442 z"
         id="path4090"
         style="fill:url(#linearGradient4116);stroke-width:0.42861813"
         inkscape:connector-curvature="0" />
      <path
         sodipodi:nodetypes="ccccccsssc"
         d="m -0.95484995,-1.9849164 c -0.20434795,-0.00868 -0.44112645,-0.1261595 -0.39988055,-0.3173313 0.1326273,-0.6147145 0.1462188,-1.1467039 0.029575,-1.7762637 -0.073431,-0.396338 -0.2204469,-0.7750123 -0.1601704,-1.0418662 0.027342,-0.1210484 0.195568,-0.1738635 0.4771062,-0.068629 -0.206034,-0.2347377 -0.6550255,-0.3493079 -0.6193645,0.1609516 0.036133,0.5120349 0.4097976,1.8661076 0.092645,2.7586349 -0.052401,0.1474663 -0.014545,0.3137157 0.080261,0.3852159 0.044807,0.033792 0.1024278,0.062534 0.1661821,0.045887 0.1218315,-0.031812 0.2071878,-0.1032268 0.33364615,-0.1465992 z"
         id="path4092"
         inkscape:connector-curvature="0"
         style="fill:#1d3209;stroke-width:0.43451744" />
      <path
         sodipodi:nodetypes="scccccssscs"
         d="m 13.401647,-2.0308034 c 0.373767,-0.2611901 0.371989,-1.223059 0.362769,-1.6004398 -0.0106,-0.4338913 -0.133633,-1.3596923 -0.244023,-1.5043272 -0.07555,-0.098962 -0.138471,-0.1334763 -0.362535,-0.050999 0.159509,-0.1117769 0.215402,-0.2360894 0.352521,-0.1930671 0.08939,0.028048 0.236144,0.2652155 0.287874,0.4522927 0.176372,0.4018958 0.201571,1.0364653 0.174992,1.5596495 -0.02295,0.4517425 -0.06344,1.1101632 -0.339814,1.438568 -0.06338,0.075307 -0.121505,0.089134 -0.186301,0.093885 -0.07545,0.00553 -0.302741,-0.1714273 -0.532084,-0.2870646 0.30466,0.096595 0.379356,0.1664464 0.486601,0.091503 z"
         id="path4094"
         inkscape:connector-curvature="0"
         style="fill:#1d3209;stroke-width:0.43884522" />
    </g>
    <g
       transform="translate(16.741804,6.0193342)"
       id="g4104">
      <path
         inkscape:connector-curvature="0"
         style="fill:url(#linearGradient4118);stroke-width:0.42861813"
         id="path4098"
         d="m -1.1310257,-1.8653732 c 0.37903985,-0.2263399 0.73302255,-0.3713502 1.55515489,-0.3722887 0.82213291,0 11.13849981,-0.00651 11.69527481,-0.00729 0.556217,-3.388e-4 0.923821,0.2463321 1.139244,0.3749791 0.07288,0.043786 0.150207,0.072421 0.224961,0.06902 0.145678,-0.00663 0.285888,-0.1254114 0.39452,-0.42419 0.164286,-0.4519345 0.347189,-2.1603961 -0.0886,-2.9419384 -0.108353,-0.1940658 -0.196968,-0.2582721 -0.276085,-0.2632966 -0.27487,-0.017456 -0.351651,0.2388637 -0.494882,0.2388637 -0.215286,0 -12.30579711,-0.015395 -12.91229195,-0.015395 -0.6070468,4.338e-4 -1.0375937,0.065344 -1.18919585,-0.1123227 -0.060587,-0.070792 -0.1733346,-0.1162812 -0.2845912,-0.1111461 -0.1677758,0.00774 -0.332162,0.130106 -0.3091735,0.4504057 0.038018,0.5324297 0.4531073,1.5566932 0.10143,2.6510509 -0.067242,0.2092441 0.010907,0.5182883 0.2335729,0.5279684 0.05961,0.00259 0.1305373,-0.016484 0.2106579,-0.06442 z"
         sodipodi:nodetypes="ccccsccssccscsscc" />
      <path
         style="fill:#1d3209;stroke-width:0.43451744"
         inkscape:connector-curvature="0"
         id="path4100"
         d="m -0.95484995,-1.9849164 c -0.20434795,-0.00868 -0.44112645,-0.1261595 -0.39988055,-0.3173313 0.1326273,-0.6147145 0.1462188,-1.1467039 0.029575,-1.7762637 -0.073431,-0.396338 -0.2204469,-0.7750123 -0.1601704,-1.0418662 0.027342,-0.1210484 0.195568,-0.1738635 0.4771062,-0.068629 -0.206034,-0.2347377 -0.6550255,-0.3493079 -0.6193645,0.1609516 0.036133,0.5120349 0.4097976,1.8661076 0.092645,2.7586349 -0.052401,0.1474663 -0.014545,0.3137157 0.080261,0.3852159 0.044807,0.033792 0.1024278,0.062534 0.1661821,0.045887 0.1218315,-0.031812 0.2071878,-0.1032268 0.33364615,-0.1465992 z"
         sodipodi:nodetypes="ccccccsssc" />
      <path
         style="fill:#1d3209;stroke-width:0.43884522"
         inkscape:connector-curvature="0"
         id="path4102"
         d="m 13.401647,-2.0308034 c 0.373767,-0.2611901 0.371989,-1.223059 0.362769,-1.6004398 -0.0106,-0.4338913 -0.133633,-1.3596923 -0.244023,-1.5043272 -0.07555,-0.098962 -0.138471,-0.1334763 -0.362535,-0.050999 0.159509,-0.1117769 0.215402,-0.2360894 0.352521,-0.1930671 0.08939,0.028048 0.236144,0.2652155 0.287874,0.4522927 0.176372,0.4018958 0.201571,1.0364653 0.174992,1.5596495 -0.02295,0.4517425 -0.06344,1.1101632 -0.339814,1.438568 -0.06338,0.075307 -0.121505,0.089134 -0.186301,0.093885 -0.07545,0.00553 -0.302741,-0.1714273 -0.532084,-0.2870646 0.30466,0.096595 0.379356,0.1664464 0.486601,0.091503 z"
         sodipodi:nodetypes="scccccssscs" />
    </g>
    <g
       id="g4112"
       transform="translate(1.8280281,6.0193342)">
      <path
         sodipodi:nodetypes="ccccsccssccscsscc"
         d="m -1.1310257,-1.8653732 c 0.37903985,-0.2263399 0.73302255,-0.3713502 1.55515489,-0.3722887 0.82213291,0 11.13849981,-0.00651 11.69527481,-0.00729 0.556217,-3.388e-4 0.923821,0.2463321 1.139244,0.3749791 0.07288,0.043786 0.150207,0.072421 0.224961,0.06902 0.145678,-0.00663 0.285888,-0.1254114 0.39452,-0.42419 0.164286,-0.4519345 0.347189,-2.1603961 -0.0886,-2.9419384 -0.108353,-0.1940658 -0.196968,-0.2582721 -0.276085,-0.2632966 -0.27487,-0.017456 -0.351651,0.2388637 -0.494882,0.2388637 -0.215286,0 -12.30579711,-0.015395 -12.91229195,-0.015395 -0.6070468,4.338e-4 -1.0375937,0.065344 -1.18919585,-0.1123227 -0.060587,-0.070792 -0.1733346,-0.1162812 -0.2845912,-0.1111461 -0.1677758,0.00774 -0.332162,0.130106 -0.3091735,0.4504057 0.038018,0.5324297 0.4531073,1.5566932 0.10143,2.6510509 -0.067242,0.2092441 0.010907,0.5182883 0.2335729,0.5279684 0.05961,0.00259 0.1305373,-0.016484 0.2106579,-0.06442 z"
         id="path4106"
         style="fill:url(#linearGradient4120);stroke-width:0.42861813"
         inkscape:connector-curvature="0" />
      <path
         sodipodi:nodetypes="ccccccsssc"
         d="m -0.95484995,-1.9849164 c -0.20434795,-0.00868 -0.44112645,-0.1261595 -0.39988055,-0.3173313 0.1326273,-0.6147145 0.1462188,-1.1467039 0.029575,-1.7762637 -0.073431,-0.396338 -0.2204469,-0.7750123 -0.1601704,-1.0418662 0.027342,-0.1210484 0.195568,-0.1738635 0.4771062,-0.068629 -0.206034,-0.2347377 -0.6550255,-0.3493079 -0.6193645,0.1609516 0.036133,0.5120349 0.4097976,1.8661076 0.092645,2.7586349 -0.052401,0.1474663 -0.014545,0.3137157 0.080261,0.3852159 0.044807,0.033792 0.1024278,0.062534 0.1661821,0.045887 0.1218315,-0.031812 0.2071878,-0.1032268 0.33364615,-0.1465992 z"
         id="path4108"
         inkscape:connector-curvature="0"
         style="fill:#1d3209;stroke-width:0.43451744" />
      <path
         sodipodi:nodetypes="scccccssscs"
         d="m 13.401647,-2.0308034 c 0.373767,-0.2611901 0.371989,-1.223059 0.362769,-1.6004398 -0.0106,-0.4338913 -0.133633,-1.3596923 -0.244023,-1.5043272 -0.07555,-0.098962 -0.138471,-0.1334763 -0.362535,-0.050999 0.159509,-0.1117769 0.215402,-0.2360894 0.352521,-0.1930671 0.08939,0.028048 0.236144,0.2652155 0.287874,0.4522927 0.176372,0.4018958 0.201571,1.0364653 0.174992,1.5596495 -0.02295,0.4517425 -0.06344,1.1101632 -0.339814,1.438568 -0.06338,0.075307 -0.121505,0.089134 -0.186301,0.093885 -0.07545,0.00553 -0.302741,-0.1714273 -0.532084,-0.2870646 0.30466,0.096595 0.379356,0.1664464 0.486601,0.091503 z"
         id="path4110"
         inkscape:connector-curvature="0"
         style="fill:#1d3209;stroke-width:0.43884522" />
    </g>
  </g>
  <g
     id="g4146"
     transform="rotate(90,22.49161,22.342432)">
    <g
       id="g4128"
       transform="translate(31.593542,6.0193342)">
      <path
         sodipodi:nodetypes="ccccsccssccscsscc"
         d="m -1.1310257,-1.8653732 c 0.37903985,-0.2263399 0.73302255,-0.3713502 1.55515489,-0.3722887 0.82213291,0 11.13849981,-0.00651 11.69527481,-0.00729 0.556217,-3.388e-4 0.923821,0.2463321 1.139244,0.3749791 0.07288,0.043786 0.150207,0.072421 0.224961,0.06902 0.145678,-0.00663 0.285888,-0.1254114 0.39452,-0.42419 0.164286,-0.4519345 0.347189,-2.1603961 -0.0886,-2.9419384 -0.108353,-0.1940658 -0.196968,-0.2582721 -0.276085,-0.2632966 -0.27487,-0.017456 -0.351651,0.2388637 -0.494882,0.2388637 -0.215286,0 -12.30579711,-0.015395 -12.91229195,-0.015395 -0.6070468,4.338e-4 -1.0375937,0.065344 -1.18919585,-0.1123227 -0.060587,-0.070792 -0.1733346,-0.1162812 -0.2845912,-0.1111461 -0.1677758,0.00774 -0.332162,0.130106 -0.3091735,0.4504057 0.038018,0.5324297 0.4531073,1.5566932 0.10143,2.6510509 -0.067242,0.2092441 0.010907,0.5182883 0.2335729,0.5279684 0.05961,0.00259 0.1305373,-0.016484 0.2106579,-0.06442 z"
         id="path4122"
         style="fill:url(#linearGradient4148);stroke-width:0.42861813"
         inkscape:connector-curvature="0" />
      <path
         sodipodi:nodetypes="ccccccsssc"
         d="m -0.95484995,-1.9849164 c -0.20434795,-0.00868 -0.44112645,-0.1261595 -0.39988055,-0.3173313 0.1326273,-0.6147145 0.1462188,-1.1467039 0.029575,-1.7762637 -0.073431,-0.396338 -0.2204469,-0.7750123 -0.1601704,-1.0418662 0.027342,-0.1210484 0.195568,-0.1738635 0.4771062,-0.068629 -0.206034,-0.2347377 -0.6550255,-0.3493079 -0.6193645,0.1609516 0.036133,0.5120349 0.4097976,1.8661076 0.092645,2.7586349 -0.052401,0.1474663 -0.014545,0.3137157 0.080261,0.3852159 0.044807,0.033792 0.1024278,0.062534 0.1661821,0.045887 0.1218315,-0.031812 0.2071878,-0.1032268 0.33364615,-0.1465992 z"
         id="path4124"
         inkscape:connector-curvature="0"
         style="fill:#1d3209;stroke-width:0.43451744" />
      <path
         sodipodi:nodetypes="scccccssscs"
         d="m 13.401647,-2.0308034 c 0.373767,-0.2611901 0.371989,-1.223059 0.362769,-1.6004398 -0.0106,-0.4338913 -0.133633,-1.3596923 -0.244023,-1.5043272 -0.07555,-0.098962 -0.138471,-0.1334763 -0.362535,-0.050999 0.159509,-0.1117769 0.215402,-0.2360894 0.352521,-0.1930671 0.08939,0.028048 0.236144,0.2652155 0.287874,0.4522927 0.176372,0.4018958 0.201571,1.0364653 0.174992,1.5596495 -0.02295,0.4517425 -0.06344,1.1101632 -0.339814,1.438568 -0.06338,0.075307 -0.121505,0.089134 -0.186301,0.093885 -0.07545,0.00553 -0.302741,-0.1714273 -0.532084,-0.2870646 0.30466,0.096595 0.379356,0.1664464 0.486601,0.091503 z"
         id="path4126"
         inkscape:connector-curvature="0"
         style="fill:#1d3209;stroke-width:0.43884522" />
    </g>
    <g
       transform="translate(16.741804,6.0193342)"
       id="g4136">
      <path
         inkscape:connector-curvature="0"
         style="fill:url(#linearGradient4150);stroke-width:0.42861813"
         id="path4130"
         d="m -1.1310257,-1.8653732 c 0.37903985,-0.2263399 0.73302255,-0.3713502 1.55515489,-0.3722887 0.82213291,0 11.13849981,-0.00651 11.69527481,-0.00729 0.556217,-3.388e-4 0.923821,0.2463321 1.139244,0.3749791 0.07288,0.043786 0.150207,0.072421 0.224961,0.06902 0.145678,-0.00663 0.285888,-0.1254114 0.39452,-0.42419 0.164286,-0.4519345 0.347189,-2.1603961 -0.0886,-2.9419384 -0.108353,-0.1940658 -0.196968,-0.2582721 -0.276085,-0.2632966 -0.27487,-0.017456 -0.351651,0.2388637 -0.494882,0.2388637 -0.215286,0 -12.30579711,-0.015395 -12.91229195,-0.015395 -0.6070468,4.338e-4 -1.0375937,0.065344 -1.18919585,-0.1123227 -0.060587,-0.070792 -0.1733346,-0.1162812 -0.2845912,-0.1111461 -0.1677758,0.00774 -0.332162,0.130106 -0.3091735,0.4504057 0.038018,0.5324297 0.4531073,1.5566932 0.10143,2.6510509 -0.067242,0.2092441 0.010907,0.5182883 0.2335729,0.5279684 0.05961,0.00259 0.1305373,-0.016484 0.2106579,-0.06442 z"
         sodipodi:nodetypes="ccccsccssccscsscc" />
      <path
         style="fill:#1d3209;stroke-width:0.43451744"
         inkscape:connector-curvature="0"
         id="path4132"
         d="m -0.95484995,-1.9849164 c -0.20434795,-0.00868 -0.44112645,-0.1261595 -0.39988055,-0.3173313 0.1326273,-0.6147145 0.1462188,-1.1467039 0.029575,-1.7762637 -0.073431,-0.396338 -0.2204469,-0.7750123 -0.1601704,-1.0418662 0.027342,-0.1210484 0.195568,-0.1738635 0.4771062,-0.068629 -0.206034,-0.2347377 -0.6550255,-0.3493079 -0.6193645,0.1609516 0.036133,0.5120349 0.4097976,1.8661076 0.092645,2.7586349 -0.052401,0.1474663 -0.014545,0.3137157 0.080261,0.3852159 0.044807,0.033792 0.1024278,0.062534 0.1661821,0.045887 0.1218315,-0.031812 0.2071878,-0.1032268 0.33364615,-0.1465992 z"
         sodipodi:nodetypes="ccccccsssc" />
      <path
         style="fill:#1d3209;stroke-width:0.43884522"
         inkscape:connector-curvature="0"
         id="path4134"
         d="m 13.401647,-2.0308034 c 0.373767,-0.2611901 0.371989,-1.223059 0.362769,-1.6004398 -0.0106,-0.4338913 -0.133633,-1.3596923 -0.244023,-1.5043272 -0.07555,-0.098962 -0.138471,-0.1334763 -0.362535,-0.050999 0.159509,-0.1117769 0.215402,-0.2360894 0.352521,-0.1930671 0.08939,0.028048 0.236144,0.2652155 0.287874,0.4522927 0.176372,0.4018958 0.201571,1.0364653 0.174992,1.5596495 -0.02295,0.4517425 -0.06344,1.1101632 -0.339814,1.438568 -0.06338,0.075307 -0.121505,0.089134 -0.186301,0.093885 -0.07545,0.00553 -0.302741,-0.1714273 -0.532084,-0.2870646 0.30466,0.096595 0.379356,0.1664464 0.486601,0.091503 z"
         sodipodi:nodetypes="scccccssscs" />
    </g>
    <g
       id="g4144"
       transform="translate(1.8280281,6.0193342)">
      <path
         sodipodi:nodetypes="ccccsccssccscsscc"
         d="m -1.1310257,-1.8653732 c 0.37903985,-0.2263399 0.73302255,-0.3713502 1.55515489,-0.3722887 0.82213291,0 11.13849981,-0.00651 11.69527481,-0.00729 0.556217,-3.388e-4 0.923821,0.2463321 1.139244,0.3749791 0.07288,0.043786 0.150207,0.072421 0.224961,0.06902 0.145678,-0.00663 0.285888,-0.1254114 0.39452,-0.42419 0.164286,-0.4519345 0.347189,-2.1603961 -0.0886,-2.9419384 -0.108353,-0.1940658 -0.196968,-0.2582721 -0.276085,-0.2632966 -0.27487,-0.017456 -0.351651,0.2388637 -0.494882,0.2388637 -0.215286,0 -12.30579711,-0.015395 -12.91229195,-0.015395 -0.6070468,4.338e-4 -1.0375937,0.065344 -1.18919585,-0.1123227 -0.060587,-0.070792 -0.1733346,-0.1162812 -0.2845912,-0.1111461 -0.1677758,0.00774 -0.332162,0.130106 -0.3091735,0.4504057 0.038018,0.5324297 0.4531073,1.5566932 0.10143,2.6510509 -0.067242,0.2092441 0.010907,0.5182883 0.2335729,0.5279684 0.05961,0.00259 0.1305373,-0.016484 0.2106579,-0.06442 z"
         id="path4138"
         style="fill:url(#linearGradient4152);stroke-width:0.42861813"
         inkscape:connector-curvature="0" />
      <path
         sodipodi:nodetypes="ccccccsssc"
         d="m -0.95484995,-1.9849164 c -0.20434795,-0.00868 -0.44112645,-0.1261595 -0.39988055,-0.3173313 0.1326273,-0.6147145 0.1462188,-1.1467039 0.029575,-1.7762637 -0.073431,-0.396338 -0.2204469,-0.7750123 -0.1601704,-1.0418662 0.027342,-0.1210484 0.195568,-0.1738635 0.4771062,-0.068629 -0.206034,-0.2347377 -0.6550255,-0.3493079 -0.6193645,0.1609516 0.036133,0.5120349 0.4097976,1.8661076 0.092645,2.7586349 -0.052401,0.1474663 -0.014545,0.3137157 0.080261,0.3852159 0.044807,0.033792 0.1024278,0.062534 0.1661821,0.045887 0.1218315,-0.031812 0.2071878,-0.1032268 0.33364615,-0.1465992 z"
         id="path4140"
         inkscape:connector-curvature="0"
         style="fill:#1d3209;stroke-width:0.43451744" />
      <path
         sodipodi:nodetypes="scccccssscs"
         d="m 13.401647,-2.0308034 c 0.373767,-0.2611901 0.371989,-1.223059 0.362769,-1.6004398 -0.0106,-0.4338913 -0.133633,-1.3596923 -0.244023,-1.5043272 -0.07555,-0.098962 -0.138471,-0.1334763 -0.362535,-0.050999 0.159509,-0.1117769 0.215402,-0.2360894 0.352521,-0.1930671 0.08939,0.028048 0.236144,0.2652155 0.287874,0.4522927 0.176372,0.4018958 0.201571,1.0364653 0.174992,1.5596495 -0.02295,0.4517425 -0.06344,1.1101632 -0.339814,1.438568 -0.06338,0.075307 -0.121505,0.089134 -0.186301,0.093885 -0.07545,0.00553 -0.302741,-0.1714273 -0.532084,-0.2870646 0.30466,0.096595 0.379356,0.1664464 0.486601,0.091503 z"
         id="path4142"
         inkscape:connector-curvature="0"
         style="fill:#1d3209;stroke-width:0.43884522" />
    </g>
  </g>
  <g
     transform="matrix(0,-1,-1,0,5.2964715,45.653752)"
     id="g4210">
    <g
       transform="translate(31.593542,6.0193342)"
       id="g4192">
      <path
         inkscape:connector-curvature="0"
         style="fill:url(#linearGradient4212);stroke-width:0.42861813"
         id="path4186"
         d="m -1.1310257,-1.8653732 c 0.37903985,-0.2263399 0.73302255,-0.3713502 1.55515489,-0.3722887 0.82213291,0 11.13849981,-0.00651 11.69527481,-0.00729 0.556217,-3.388e-4 0.923821,0.2463321 1.139244,0.3749791 0.07288,0.043786 0.150207,0.072421 0.224961,0.06902 0.145678,-0.00663 0.285888,-0.1254114 0.39452,-0.42419 0.164286,-0.4519345 0.347189,-2.1603961 -0.0886,-2.9419384 -0.108353,-0.1940658 -0.196968,-0.2582721 -0.276085,-0.2632966 -0.27487,-0.017456 -0.351651,0.2388637 -0.494882,0.2388637 -0.215286,0 -12.30579711,-0.015395 -12.91229195,-0.015395 -0.6070468,4.338e-4 -1.0375937,0.065344 -1.18919585,-0.1123227 -0.060587,-0.070792 -0.1733346,-0.1162812 -0.2845912,-0.1111461 -0.1677758,0.00774 -0.332162,0.130106 -0.3091735,0.4504057 0.038018,0.5324297 0.4531073,1.5566932 0.10143,2.6510509 -0.067242,0.2092441 0.010907,0.5182883 0.2335729,0.5279684 0.05961,0.00259 0.1305373,-0.016484 0.2106579,-0.06442 z"
         sodipodi:nodetypes="ccccsccssccscsscc" />
      <path
         style="fill:#1d3209;stroke-width:0.43451744"
         inkscape:connector-curvature="0"
         id="path4188"
         d="m -0.95484995,-1.9849164 c -0.20434795,-0.00868 -0.44112645,-0.1261595 -0.39988055,-0.3173313 0.1326273,-0.6147145 0.1462188,-1.1467039 0.029575,-1.7762637 -0.073431,-0.396338 -0.2204469,-0.7750123 -0.1601704,-1.0418662 0.027342,-0.1210484 0.195568,-0.1738635 0.4771062,-0.068629 -0.206034,-0.2347377 -0.6550255,-0.3493079 -0.6193645,0.1609516 0.036133,0.5120349 0.4097976,1.8661076 0.092645,2.7586349 -0.052401,0.1474663 -0.014545,0.3137157 0.080261,0.3852159 0.044807,0.033792 0.1024278,0.062534 0.1661821,0.045887 0.1218315,-0.031812 0.2071878,-0.1032268 0.33364615,-0.1465992 z"
         sodipodi:nodetypes="ccccccsssc" />
      <path
         style="fill:#1d3209;stroke-width:0.43884522"
         inkscape:connector-curvature="0"
         id="path4190"
         d="m 13.401647,-2.0308034 c 0.373767,-0.2611901 0.371989,-1.223059 0.362769,-1.6004398 -0.0106,-0.4338913 -0.133633,-1.3596923 -0.244023,-1.5043272 -0.07555,-0.098962 -0.138471,-0.1334763 -0.362535,-0.050999 0.159509,-0.1117769 0.215402,-0.2360894 0.352521,-0.1930671 0.08939,0.028048 0.236144,0.2652155 0.287874,0.4522927 0.176372,0.4018958 0.201571,1.0364653 0.174992,1.5596495 -0.02295,0.4517425 -0.06344,1.1101632 -0.339814,1.438568 -0.06338,0.075307 -0.121505,0.089134 -0.186301,0.093885 -0.07545,0.00553 -0.302741,-0.1714273 -0.532084,-0.2870646 0.30466,0.096595 0.379356,0.1664464 0.486601,0.091503 z"
         sodipodi:nodetypes="scccccssscs" />
    </g>
    <g
       id="g4200"
       transform="translate(16.741804,6.0193342)">
      <path
         sodipodi:nodetypes="ccccsccssccscsscc"
         d="m -1.1310257,-1.8653732 c 0.37903985,-0.2263399 0.73302255,-0.3713502 1.55515489,-0.3722887 0.82213291,0 11.13849981,-0.00651 11.69527481,-0.00729 0.556217,-3.388e-4 0.923821,0.2463321 1.139244,0.3749791 0.07288,0.043786 0.150207,0.072421 0.224961,0.06902 0.145678,-0.00663 0.285888,-0.1254114 0.39452,-0.42419 0.164286,-0.4519345 0.347189,-2.1603961 -0.0886,-2.9419384 -0.108353,-0.1940658 -0.196968,-0.2582721 -0.276085,-0.2632966 -0.27487,-0.017456 -0.351651,0.2388637 -0.494882,0.2388637 -0.215286,0 -12.30579711,-0.015395 -12.91229195,-0.015395 -0.6070468,4.338e-4 -1.0375937,0.065344 -1.18919585,-0.1123227 -0.060587,-0.070792 -0.1733346,-0.1162812 -0.2845912,-0.1111461 -0.1677758,0.00774 -0.332162,0.130106 -0.3091735,0.4504057 0.038018,0.5324297 0.4531073,1.5566932 0.10143,2.6510509 -0.067242,0.2092441 0.010907,0.5182883 0.2335729,0.5279684 0.05961,0.00259 0.1305373,-0.016484 0.2106579,-0.06442 z"
         id="path4194"
         style="fill:url(#linearGradient4214);stroke-width:0.42861813"
         inkscape:connector-curvature="0" />
      <path
         sodipodi:nodetypes="ccccccsssc"
         d="m -0.95484995,-1.9849164 c -0.20434795,-0.00868 -0.44112645,-0.1261595 -0.39988055,-0.3173313 0.1326273,-0.6147145 0.1462188,-1.1467039 0.029575,-1.7762637 -0.073431,-0.396338 -0.2204469,-0.7750123 -0.1601704,-1.0418662 0.027342,-0.1210484 0.195568,-0.1738635 0.4771062,-0.068629 -0.206034,-0.2347377 -0.6550255,-0.3493079 -0.6193645,0.1609516 0.036133,0.5120349 0.4097976,1.8661076 0.092645,2.7586349 -0.052401,0.1474663 -0.014545,0.3137157 0.080261,0.3852159 0.044807,0.033792 0.1024278,0.062534 0.1661821,0.045887 0.1218315,-0.031812 0.2071878,-0.1032268 0.33364615,-0.1465992 z"
         id="path4196"
         inkscape:connector-curvature="0"
         style="fill:#1d3209;stroke-width:0.43451744" />
      <path
         sodipodi:nodetypes="scccccssscs"
         d="m 13.401647,-2.0308034 c 0.373767,-0.2611901 0.371989,-1.223059 0.362769,-1.6004398 -0.0106,-0.4338913 -0.133633,-1.3596923 -0.244023,-1.5043272 -0.07555,-0.098962 -0.138471,-0.1334763 -0.362535,-0.050999 0.159509,-0.1117769 0.215402,-0.2360894 0.352521,-0.1930671 0.08939,0.028048 0.236144,0.2652155 0.287874,0.4522927 0.176372,0.4018958 0.201571,1.0364653 0.174992,1.5596495 -0.02295,0.4517425 -0.06344,1.1101632 -0.339814,1.438568 -0.06338,0.075307 -0.121505,0.089134 -0.186301,0.093885 -0.07545,0.00553 -0.302741,-0.1714273 -0.532084,-0.2870646 0.30466,0.096595 0.379356,0.1664464 0.486601,0.091503 z"
         id="path4198"
         inkscape:connector-curvature="0"
         style="fill:#1d3209;stroke-width:0.43884522" />
    </g>
    <g
       transform="translate(1.8280281,6.0193342)"
       id="g4208">
      <path
         inkscape:connector-curvature="0"
         style="fill:url(#linearGradient4216);stroke-width:0.42861813"
         id="path4202"
         d="m -1.1310257,-1.8653732 c 0.37903985,-0.2263399 0.73302255,-0.3713502 1.55515489,-0.3722887 0.82213291,0 11.13849981,-0.00651 11.69527481,-0.00729 0.556217,-3.388e-4 0.923821,0.2463321 1.139244,0.3749791 0.07288,0.043786 0.150207,0.072421 0.224961,0.06902 0.145678,-0.00663 0.285888,-0.1254114 0.39452,-0.42419 0.164286,-0.4519345 0.347189,-2.1603961 -0.0886,-2.9419384 -0.108353,-0.1940658 -0.196968,-0.2582721 -0.276085,-0.2632966 -0.27487,-0.017456 -0.351651,0.2388637 -0.494882,0.2388637 -0.215286,0 -12.30579711,-0.015395 -12.91229195,-0.015395 -0.6070468,4.338e-4 -1.0375937,0.065344 -1.18919585,-0.1123227 -0.060587,-0.070792 -0.1733346,-0.1162812 -0.2845912,-0.1111461 -0.1677758,0.00774 -0.332162,0.130106 -0.3091735,0.4504057 0.038018,0.5324297 0.4531073,1.5566932 0.10143,2.6510509 -0.067242,0.2092441 0.010907,0.5182883 0.2335729,0.5279684 0.05961,0.00259 0.1305373,-0.016484 0.2106579,-0.06442 z"
         sodipodi:nodetypes="ccccsccssccscsscc" />
      <path
         style="fill:#1d3209;stroke-width:0.43451744"
         inkscape:connector-curvature="0"
         id="path4204"
         d="m -0.95484995,-1.9849164 c -0.20434795,-0.00868 -0.44112645,-0.1261595 -0.39988055,-0.3173313 0.1326273,-0.6147145 0.1462188,-1.1467039 0.029575,-1.7762637 -0.073431,-0.396338 -0.2204469,-0.7750123 -0.1601704,-1.0418662 0.027342,-0.1210484 0.195568,-0.1738635 0.4771062,-0.068629 -0.206034,-0.2347377 -0.6550255,-0.3493079 -0.6193645,0.1609516 0.036133,0.5120349 0.4097976,1.8661076 0.092645,2.7586349 -0.052401,0.1474663 -0.014545,0.3137157 0.080261,0.3852159 0.044807,0.033792 0.1024278,0.062534 0.1661821,0.045887 0.1218315,-0.031812 0.2071878,-0.1032268 0.33364615,-0.1465992 z"
         sodipodi:nodetypes="ccccccsssc" />
      <path
         style="fill:#1d3209;stroke-width:0.43884522"
         inkscape:connector-curvature="0"
         id="path4206"
         d="m 13.401647,-2.0308034 c 0.373767,-0.2611901 0.371989,-1.223059 0.362769,-1.6004398 -0.0106,-0.4338913 -0.133633,-1.3596923 -0.244023,-1.5043272 -0.07555,-0.098962 -0.138471,-0.1334763 -0.362535,-0.050999 0.159509,-0.1117769 0.215402,-0.2360894 0.352521,-0.1930671 0.08939,0.028048 0.236144,0.2652155 0.287874,0.4522927 0.176372,0.4018958 0.201571,1.0364653 0.174992,1.5596495 -0.02295,0.4517425 -0.06344,1.1101632 -0.339814,1.438568 -0.06338,0.075307 -0.121505,0.089134 -0.186301,0.093885 -0.07545,0.00553 -0.302741,-0.1714273 -0.532084,-0.2870646 0.30466,0.096595 0.379356,0.1664464 0.486601,0.091503 z"
         sodipodi:nodetypes="scccccssscs" />
    </g>
  </g>
  <g
     id="g4037"
     transform="matrix(0.93533627,0,0,0.92014745,0.00398168,0.00431764)">
    <path
       d="m 4.8140611,1.0251523 c -0.038579,0.00123 -0.07767,0.010469 -0.1148062,0.027989 -0.6398985,0.3113103 -1.1847196,0.706933 -1.703146,1.1913086 l -0.00245,-1.12e-4 C 2.456249,2.7608388 1.9954634,3.3075406 1.5718102,3.9296595 1.3626976,4.2386932 1.2445473,4.4485442 1.2287417,4.4773392 c -0.06882,0.125252 -0.039289,0.2776292 0.062,0.3693571 l -0.00112,1.76e-4 c 8.003e-4,4.658e-4 0.00299,0.00187 0.00384,0.00277 0.00117,9.07e-4 0.00197,0.00224 0.0032,0.00315 l 0.00112,-1.756e-4 C 1.4495598,4.9781723 1.6536232,4.9354481 1.7362999,4.7906912 1.9404582,4.4800271 2.1136533,4.1892334 2.3092908,3.923857 2.5123362,3.65084 2.7885873,3.3121849 3.0867745,2.9980913 3.5578757,2.4846864 4.0709466,2.1124382 4.6630823,1.7442011 4.7710707,1.6825226 4.851855,1.6425861 4.9487452,1.5974323 5.0978092,1.5264642 5.1629086,1.3485496 5.0938825,1.1981025 5.042366,1.0857358 4.929761,1.0210182 4.8140094,1.0251848 Z"
       id="path234"
       inkscape:connector-curvature="0"
       style="fill:#c59726;stroke-width:0.42861813" />
    <path
       d="M 5.0281546,1.1002728 C 5.0487058,1.2297254 4.9830563,1.3623779 4.8595756,1.4209225 4.4721184,1.6046134 4.0981854,1.8497065 3.7537101,2.1243058 3.4914302,2.3390513 3.2161405,2.5938587 2.9819424,2.8383735 2.7215432,3.1136312 2.4659259,3.4489198 2.2242997,3.7422222 1.9515575,4.0733195 1.8188912,4.4905513 1.5120823,4.7193363 1.4399372,4.7488506 1.3827649,4.7469619 1.278295,4.721257 1.3363765,4.8450029 1.405736,4.8607977 1.5455291,4.8845121 1.7301014,4.8696322 1.7969209,4.7133412 1.8418912,4.6403542 1.8840391,4.5719497 2.2281863,4.0524792 2.3531588,3.8816476 2.5762928,3.5819751 2.8698811,3.2379234 3.1134035,2.9781324 3.3373826,2.7439834 3.6427804,2.4673561 3.8790261,2.2717634 4.2402758,1.9985214 4.5946057,1.7547221 4.9829619,1.5711666 5.051717,1.5386647 5.103034,1.4822253 5.1271383,1.4103716 5.1592775,1.2702355 5.1157424,1.1721794 5.0280517,1.1002888 Z"
       id="path236"
       inkscape:connector-curvature="0"
       style="fill:#9f5a1b;stroke-width:0.42861813" />
    <path
       d="M 4.6417256,1.0967398 C 3.7753789,1.5069384 2.9686909,2.2873267 2.3910733,2.9518577 2.0684045,3.3283521 1.7533404,3.7250178 1.5121351,4.0596593 1.4352882,4.1748758 1.2667593,4.4154596 1.264249,4.4850849 1.2634488,4.5078339 1.278478,4.5338699 1.31122,4.5486599 1.390417,4.5844269 1.441565,4.5036839 1.4538002,4.4855729 1.5063411,4.407793 1.7056407,4.1242849 1.9329495,3.827511 2.1201777,3.5830869 2.4050269,3.2376049 2.6697663,2.9418008 2.9141488,2.6687823 3.185587,2.4019558 3.4198352,2.1881648 3.8272524,1.833972 4.2564787,1.5012282 4.7145402,1.2881308 c 0.048673,-0.022653 0.075378,-0.084482 0.051276,-0.1366759 -0.030818,-0.066739 -0.086592,-0.07245 -0.1241007,-0.05469 z"
       id="path238"
       inkscape:connector-curvature="0"
       style="fill:#e0c97e;stroke-width:0.42861813" />
    <path
       d="M 4.8429415,0.97546023 C 4.7909608,0.97296337 4.7385336,0.98375965 4.6912105,1.005961 4.3810393,1.1514301 4.0707609,1.3347896 3.7680089,1.5509836 l -0.050674,0.036466 0.00133,2.876e-4 C 3.464367,1.7730628 3.2121407,1.982932 2.9666219,2.2151368 c -0.00235,0.00203 -0.0048,0.00427 -0.00718,0.00654 l -0.046309,0.042884 0.00224,1.024e-4 C 2.6824654,2.4881482 2.4523802,2.7331736 2.230643,2.9960227 c -0.00235,0.00288 -0.00469,0.00536 -0.00702,0.00809 l -0.037784,0.045493 0.00133,6.08e-5 C 1.9613198,3.3212035 1.7477097,3.6041625 1.553264,3.8910898 l -0.028298,0.041721 9.07e-4,4.11e-5 C 1.3326301,4.2228338 1.2217667,4.4189019 1.2099148,4.4405414 1.1426499,4.5620028 1.1595389,4.7103081 1.2458558,4.812471 l -0.00627,0.00144 0.039934,0.033324 c 8.536e-4,9.07e-4 0.00165,0.00181 0.00256,0.00267 l 0.00876,0.00727 0.00155,-3.574e-4 c 0.013647,0.010836 0.0269,0.020711 0.040601,0.028463 0.042388,0.023267 0.090033,0.037597 0.1382869,0.040281 l 0.00886,1.83e-4 c 0.1174702,0.00283 0.2257349,-0.058717 0.2837727,-0.1587964 l 0.00117,-1.74e-4 0.00578,-0.00994 C 1.7784924,4.7413834 1.9737122,4.394869 2.326042,3.920881 l 0.00687,-0.00968 C 2.5692512,3.5926849 2.8204589,3.2927381 3.0807456,3.0173252 l 4.705e-4,2.13e-5 0.00632,-0.00747 C 3.3346076,2.7504021 3.5911409,2.5128455 3.8498323,2.304037 l 6.936e-4,3.15e-5 0.00671,-0.00613 C 4.1161578,2.0900033 4.3824967,1.9096014 4.646622,1.7600818 l 2.262e-4,1.07e-5 0.0073,-0.00453 C 4.763947,1.6949013 4.8629275,1.6427082 4.9591614,1.5979279 5.0395349,1.5602935 5.0996278,1.491755 5.1291201,1.4068301 5.1564523,1.3263462 5.1521148,1.2401701 5.1167745,1.1634716 5.0665971,1.0547663 4.9616988,0.98271305 4.8431222,0.97576594 Z m -0.00261,0.0524273 c 0.1015969,0.00595 0.1907878,0.066204 0.2330905,0.1583598 0.029413,0.064014 0.033084,0.1357683 0.010441,0.2026944 C 5.059753,1.4607907 5.008621,1.5176232 4.9396865,1.549732 4.8455415,1.594158 4.7472539,1.645456 4.6394383,1.7051433 L 3.8450047,1.5589634 C 4.1297478,1.3593512 4.4201057,1.189808 4.7096318,1.0533895 c 0.040862,-0.019322 0.086189,-0.027842 0.1306576,-0.025503 z m -1.054184,0.5727421 0.3210159,0.059063 0.4616958,0.085693 C 4.3232523,1.8882708 4.0768783,2.0572474 3.8357273,2.2503368 L 3.0356699,2.2179469 C 3.2809998,1.9895823 3.533042,1.7819486 3.7861368,1.6006867 Z M 3.7744527,2.3005478 C 3.5327112,2.4991362 3.2928375,2.7222937 3.0612692,2.965599 L 2.2977043,2.9935607 C 2.5205422,2.7322636 2.7504941,2.4883693 2.9830906,2.2675513 L 3.1298242,2.27342 Z M 3.0106414,3.019829 C 2.7648943,3.281809 2.5273062,3.5670414 2.3034535,3.8685386 l -0.511442,0.00826 -0.1712904,0.00256 c 0.1938705,-0.2835512 0.40615,-0.563967 0.6317211,-0.832004 z M 2.2637816,3.9215116 C 1.9537092,4.3428424 1.771575,4.6565929 1.7363271,4.718822 L 1.3034872,4.8016396 C 1.2126191,4.7167653 1.1895342,4.577916 1.250082,4.4672637 1.2626624,4.4440717 1.3780486,4.2387135 1.5850479,3.9318699 Z M 1.6944821,4.7798907 c -0.052946,0.061148 -0.130481,0.095389 -0.2131556,0.093551 l -0.00756,5.112e-4 c -0.03876,-0.00176 -0.076453,-0.012687 -0.1112562,-0.03016 l 0.1315438,-0.02546 z"
       id="path240"
       inkscape:connector-curvature="0"
       style="fill:#8d7129;stroke-width:0.42861813" />
    <path
       d="m 1.5125886,1.119699 c 0.038552,0.00187 0.077487,0.011743 0.1143314,0.02987 0.6347025,0.3217757 1.1729555,0.726291 1.6833604,1.2191138 l 0.00245,-7.15e-5 c 0.528854,0.5252555 0.9806023,1.0794505 1.3939858,1.7084422 0.2040105,0.3124263 0.3187,0.5241889 0.3340306,0.5532395 0.066754,0.1263655 0.034727,0.278238 -0.068057,0.3682906 l 0.00112,1.942e-4 c -8.003e-4,4.524e-4 -0.00304,0.00181 -0.00389,0.00267 -0.00117,9.07e-4 -0.00203,0.00219 -0.00325,0.00309 l -0.00112,-1.942e-4 C 4.8117024,5.1274134 4.6083678,5.0813452 4.5280792,4.9352497 4.3290485,4.6212745 4.1606503,4.3276761 3.9693962,4.0591231 3.77086,3.782808 3.5002055,3.4396627 3.2072153,3.1207152 2.7446056,2.5996431 2.2377145,2.2190203 1.6517036,1.8411105 1.5447422,1.7776671 1.4646242,1.7364096 1.3684884,1.6896712 1.2206091,1.6162649 1.1584397,1.4373047 1.2299263,1.2880112 1.2832834,1.1765052 1.3969335,1.113645 1.5126019,1.1197114 Z"
       id="path244"
       inkscape:connector-curvature="0"
       style="fill:#c59726;stroke-width:0.42861903" />
    <path
       d="m 1.2972904,1.1912944 c -0.022675,0.1290982 0.040787,0.2628113 0.1632913,0.3233747 0.38439,0.1900281 0.7542496,0.4412284 1.0941703,0.7214467 0.2587197,0.2190233 0.5297892,0.478317 0.7599417,0.7266443 0.2558451,0.2794965 0.5059239,0.6189381 0.7427026,0.9161687 0.2672699,0.3355309 0.3930682,0.7548856 0.69608,0.9886782 0.071651,0.030699 0.1288469,0.029744 0.2337255,0.00574 C 4.9270961,4.9961188 4.8574863,5.0107724 4.7173225,5.0321879 4.533019,5.014283 4.4687743,4.8569126 4.4250082,4.7831974 4.3839913,4.7141094 4.0484167,4.1890573 3.9262654,4.0161967 3.7080809,3.7129005 3.4201804,3.3640744 3.1809555,3.1003193 2.9608508,2.8625237 2.6600349,2.5809193 2.4270324,2.3814735 2.0703171,2.1023366 1.7200366,1.8527518 1.3347461,1.6628448 1.266533,1.6292172 1.2161497,1.5719439 1.1932283,1.4997039 1.1633939,1.3590588 1.2085365,1.2617307 1.2973928,1.1912892 Z"
       id="path246"
       inkscape:connector-curvature="0"
       style="fill:#9f5a1b;stroke-width:0.42861903" />
    <path
       d="M 1.6837253,1.1941065 C 2.5432226,1.6184748 3.336991,2.4120046 3.9036208,3.0859303 4.2200656,3.467673 4.5285753,3.8694589 4.764254,4.2080159 c 0.074945,0.1164633 0.2395018,0.3597819 0.2408686,0.4294397 4.423e-4,0.022755 -0.015029,0.048545 -0.048011,0.062795 -0.079773,0.034465 -0.1295895,-0.04711 -0.1415254,-0.06542 C 4.7643308,4.5561986 4.5697102,4.2694559 4.3473039,3.9689894 4.1641139,3.7215238 3.8849748,3.3714108 3.6251273,3.0712991 3.38526,2.7943048 3.1182383,2.5230571 2.887531,2.3054482 2.485983,1.9446131 2.0622776,1.6048663 1.6077758,1.3842761 1.5594817,1.360828 1.5337949,1.2985685 1.5587508,1.2467767 c 0.03191,-0.066224 0.087772,-0.071018 0.1249836,-0.052644 z"
       id="path248"
       inkscape:connector-curvature="0"
       style="fill:#e0c97e;stroke-width:0.42861903" />
    <path
       d="m 1.4845277,1.0695393 c 0.052018,-0.00164 0.104258,0.010013 0.1512103,0.032988 0.3077415,0.1505422 0.6149682,0.3389719 0.9141302,0.5601079 l 0.050065,0.037293 -0.00133,2.662e-4 c 0.2512254,0.1894759 0.4999725,0.4034585 0.7416463,0.6396637 0.00235,0.00208 0.00475,0.00437 0.00707,0.00665 l 0.0456,0.043642 -0.00224,6.56e-5 c 0.2292075,0.2272794 0.4552391,0.4760501 0.6726314,0.7425052 0.00229,0.00293 0.00464,0.00544 0.00689,0.0082 l 0.037032,0.046112 -0.00133,3.95e-5 c 0.2213675,0.2752145 0.4303041,0.561643 0.6200131,0.851725 l 0.02761,0.04218 -9.07e-4,2.61e-5 c 0.1884558,0.2931162 0.2960857,0.490979 0.3075809,0.5128101 0.065262,0.1225497 0.045941,0.2705579 -0.042041,0.3712899 l 0.00625,0.00155 -0.040473,0.032662 c -8.536e-4,9.07e-4 -0.00165,0.00176 -0.00256,0.00267 l -0.00888,0.00712 -0.00155,-3.831e-4 c -0.013823,0.010612 -0.027236,0.020268 -0.041065,0.027791 -0.042767,0.022568 -0.090638,0.036114 -0.1389298,0.038003 l -0.00886,3.79e-5 C 4.6645831,5.075461 4.5573432,5.0121382 4.5009562,4.9111192 l -0.00117,-1.926e-4 -0.00562,-0.010041 C 4.4867859,4.885323 4.2972796,4.5356485 3.9527786,4.0559391 l -0.00671,-0.0098 C 3.7149894,3.7237934 3.4687397,3.4197614 3.2130104,3.1401118 l -4.717e-4,1.39e-5 -0.0062,-0.00758 C 2.9635627,2.8690529 2.7109635,2.6273157 2.4557347,2.4142876 l -6.936e-4,1.97e-5 -0.0066,-0.00624 C 2.192964,2.1959115 1.9296224,2.011161 1.6679871,1.8573246 l -2.268e-4,7e-6 -0.00723,-0.00469 C 1.5517467,1.7901856 1.4536359,1.7363744 1.3581504,1.6900196 1.2784049,1.6510727 1.2194455,1.5815547 1.1913517,1.4961571 1.1653448,1.4152346 1.1710977,1.3291418 1.2076918,1.2530332 1.2596469,1.1451663 1.3657147,1.0748449 1.4843895,1.0698455 Z m 0.00176,0.052464 c -0.1016812,0.00428 -0.1918496,0.063063 -0.2356594,0.1545121 -0.03046,0.063522 -0.035307,0.1352064 -0.013765,0.2024959 0.022925,0.072235 0.073119,0.1299 0.1415174,0.1631361 0.093403,0.045963 0.1908353,0.098871 0.2976564,0.1603202 L 2.4727438,1.6693495 C 2.1913159,1.4650887 1.9037799,1.290801 1.6165324,1.1496469 1.5759957,1.129656 1.530812,1.1203936 1.4863107,1.1220021 Z m 1.0446362,0.5899742 -0.3219427,0.053785 -0.4630418,0.0781 c 0.243229,0.1468988 0.4867963,0.3198986 0.724745,0.5169217 L 3.2711676,2.3415348 C 3.0296198,2.109172 2.7810193,1.8974281 2.5309346,1.7120352 Z m 2.012e-4,0.7000165 c 0.2384492,0.2025316 0.4746272,0.4295976 0.7021696,0.6766728 l 0.7630047,0.040494 C 3.7777904,2.8642384 3.5518736,2.616601 3.3229333,2.391994 L 3.1761224,2.395464 Z M 3.2830256,3.1437205 C 3.524439,3.4097009 3.7573124,3.6987964 3.9761852,4.003929 L 4.487424,4.020585 4.6586493,4.025965 C 4.4694604,3.7392723 4.2618129,3.4554085 4.0406726,3.1837035 Z m 0.7319565,0.9138261 c 0.3031132,0.426365 0.4800723,0.7430649 0.5142937,0.8058643 l 0.4314229,0.089913 C 5.0529483,4.8699529 5.0783096,4.7315011 5.0195869,4.6198692 5.0073906,4.5964691 4.8953896,4.3892484 4.6934555,4.0790463 Z M 4.570113,4.9251587 c 0.051933,0.062009 0.1288975,0.097519 0.2115913,0.097038 l 0.00755,6.402e-4 c 0.038781,-0.00112 0.076652,-0.011433 0.1117369,-0.02833 l -0.131109,-0.02762 z"
       id="path250"
       inkscape:connector-curvature="0"
       style="fill:#8d7129;stroke-width:0.42861903" />
  </g>
  <g
     transform="matrix(0.93533627,0,0,0.92014745,39.561959,0.00431764)"
     id="g4234">
    <path
       style="fill:#c59726;stroke-width:0.42861813"
       inkscape:connector-curvature="0"
       id="path4218"
       d="m 4.8140611,1.0251523 c -0.038579,0.00123 -0.07767,0.010469 -0.1148062,0.027989 -0.6398985,0.3113103 -1.1847196,0.706933 -1.703146,1.1913086 l -0.00245,-1.12e-4 C 2.456249,2.7608388 1.9954634,3.3075406 1.5718102,3.9296595 1.3626976,4.2386932 1.2445473,4.4485442 1.2287417,4.4773392 c -0.06882,0.125252 -0.039289,0.2776292 0.062,0.3693571 l -0.00112,1.76e-4 c 8.003e-4,4.658e-4 0.00299,0.00187 0.00384,0.00277 0.00117,9.07e-4 0.00197,0.00224 0.0032,0.00315 l 0.00112,-1.756e-4 C 1.4495598,4.9781723 1.6536232,4.9354481 1.7362999,4.7906912 1.9404582,4.4800271 2.1136533,4.1892334 2.3092908,3.923857 2.5123362,3.65084 2.7885873,3.3121849 3.0867745,2.9980913 3.5578757,2.4846864 4.0709466,2.1124382 4.6630823,1.7442011 4.7710707,1.6825226 4.851855,1.6425861 4.9487452,1.5974323 5.0978092,1.5264642 5.1629086,1.3485496 5.0938825,1.1981025 5.042366,1.0857358 4.929761,1.0210182 4.8140094,1.0251848 Z" />
    <path
       style="fill:#9f5a1b;stroke-width:0.42861813"
       inkscape:connector-curvature="0"
       id="path4220"
       d="M 5.0281546,1.1002728 C 5.0487058,1.2297254 4.9830563,1.3623779 4.8595756,1.4209225 4.4721184,1.6046134 4.0981854,1.8497065 3.7537101,2.1243058 3.4914302,2.3390513 3.2161405,2.5938587 2.9819424,2.8383735 2.7215432,3.1136312 2.4659259,3.4489198 2.2242997,3.7422222 1.9515575,4.0733195 1.8188912,4.4905513 1.5120823,4.7193363 1.4399372,4.7488506 1.3827649,4.7469619 1.278295,4.721257 1.3363765,4.8450029 1.405736,4.8607977 1.5455291,4.8845121 1.7301014,4.8696322 1.7969209,4.7133412 1.8418912,4.6403542 1.8840391,4.5719497 2.2281863,4.0524792 2.3531588,3.8816476 2.5762928,3.5819751 2.8698811,3.2379234 3.1134035,2.9781324 3.3373826,2.7439834 3.6427804,2.4673561 3.8790261,2.2717634 4.2402758,1.9985214 4.5946057,1.7547221 4.9829619,1.5711666 5.051717,1.5386647 5.103034,1.4822253 5.1271383,1.4103716 5.1592775,1.2702355 5.1157424,1.1721794 5.0280517,1.1002888 Z" />
    <path
       style="fill:#e0c97e;stroke-width:0.42861813"
       inkscape:connector-curvature="0"
       id="path4222"
       d="M 4.6417256,1.0967398 C 3.7753789,1.5069384 2.9686909,2.2873267 2.3910733,2.9518577 2.0684045,3.3283521 1.7533404,3.7250178 1.5121351,4.0596593 1.4352882,4.1748758 1.2667593,4.4154596 1.264249,4.4850849 1.2634488,4.5078339 1.278478,4.5338699 1.31122,4.5486599 1.390417,4.5844269 1.441565,4.5036839 1.4538002,4.4855729 1.5063411,4.407793 1.7056407,4.1242849 1.9329495,3.827511 2.1201777,3.5830869 2.4050269,3.2376049 2.6697663,2.9418008 2.9141488,2.6687823 3.185587,2.4019558 3.4198352,2.1881648 3.8272524,1.833972 4.2564787,1.5012282 4.7145402,1.2881308 c 0.048673,-0.022653 0.075378,-0.084482 0.051276,-0.1366759 -0.030818,-0.066739 -0.086592,-0.07245 -0.1241007,-0.05469 z" />
    <path
       style="fill:#8d7129;stroke-width:0.42861813"
       inkscape:connector-curvature="0"
       id="path4224"
       d="M 4.8429415,0.97546023 C 4.7909608,0.97296337 4.7385336,0.98375965 4.6912105,1.005961 4.3810393,1.1514301 4.0707609,1.3347896 3.7680089,1.5509836 l -0.050674,0.036466 0.00133,2.876e-4 C 3.464367,1.7730628 3.2121407,1.982932 2.9666219,2.2151368 c -0.00235,0.00203 -0.0048,0.00427 -0.00718,0.00654 l -0.046309,0.042884 0.00224,1.024e-4 C 2.6824654,2.4881482 2.4523802,2.7331736 2.230643,2.9960227 c -0.00235,0.00288 -0.00469,0.00536 -0.00702,0.00809 l -0.037784,0.045493 0.00133,6.08e-5 C 1.9613198,3.3212035 1.7477097,3.6041625 1.553264,3.8910898 l -0.028298,0.041721 9.07e-4,4.11e-5 C 1.3326301,4.2228338 1.2217667,4.4189019 1.2099148,4.4405414 1.1426499,4.5620028 1.1595389,4.7103081 1.2458558,4.812471 l -0.00627,0.00144 0.039934,0.033324 c 8.536e-4,9.07e-4 0.00165,0.00181 0.00256,0.00267 l 0.00876,0.00727 0.00155,-3.574e-4 c 0.013647,0.010836 0.0269,0.020711 0.040601,0.028463 0.042388,0.023267 0.090033,0.037597 0.1382869,0.040281 l 0.00886,1.83e-4 c 0.1174702,0.00283 0.2257349,-0.058717 0.2837727,-0.1587964 l 0.00117,-1.74e-4 0.00578,-0.00994 C 1.7784924,4.7413834 1.9737122,4.394869 2.326042,3.920881 l 0.00687,-0.00968 C 2.5692512,3.5926849 2.8204589,3.2927381 3.0807456,3.0173252 l 4.705e-4,2.13e-5 0.00632,-0.00747 C 3.3346076,2.7504021 3.5911409,2.5128455 3.8498323,2.304037 l 6.936e-4,3.15e-5 0.00671,-0.00613 C 4.1161578,2.0900033 4.3824967,1.9096014 4.646622,1.7600818 l 2.262e-4,1.07e-5 0.0073,-0.00453 C 4.763947,1.6949013 4.8629275,1.6427082 4.9591614,1.5979279 5.0395349,1.5602935 5.0996278,1.491755 5.1291201,1.4068301 5.1564523,1.3263462 5.1521148,1.2401701 5.1167745,1.1634716 5.0665971,1.0547663 4.9616988,0.98271305 4.8431222,0.97576594 Z m -0.00261,0.0524273 c 0.1015969,0.00595 0.1907878,0.066204 0.2330905,0.1583598 0.029413,0.064014 0.033084,0.1357683 0.010441,0.2026944 C 5.059753,1.4607907 5.008621,1.5176232 4.9396865,1.549732 4.8455415,1.594158 4.7472539,1.645456 4.6394383,1.7051433 L 3.8450047,1.5589634 C 4.1297478,1.3593512 4.4201057,1.189808 4.7096318,1.0533895 c 0.040862,-0.019322 0.086189,-0.027842 0.1306576,-0.025503 z m -1.054184,0.5727421 0.3210159,0.059063 0.4616958,0.085693 C 4.3232523,1.8882708 4.0768783,2.0572474 3.8357273,2.2503368 L 3.0356699,2.2179469 C 3.2809998,1.9895823 3.533042,1.7819486 3.7861368,1.6006867 Z M 3.7744527,2.3005478 C 3.5327112,2.4991362 3.2928375,2.7222937 3.0612692,2.965599 L 2.2977043,2.9935607 C 2.5205422,2.7322636 2.7504941,2.4883693 2.9830906,2.2675513 L 3.1298242,2.27342 Z M 3.0106414,3.019829 C 2.7648943,3.281809 2.5273062,3.5670414 2.3034535,3.8685386 l -0.511442,0.00826 -0.1712904,0.00256 c 0.1938705,-0.2835512 0.40615,-0.563967 0.6317211,-0.832004 z M 2.2637816,3.9215116 C 1.9537092,4.3428424 1.771575,4.6565929 1.7363271,4.718822 L 1.3034872,4.8016396 C 1.2126191,4.7167653 1.1895342,4.577916 1.250082,4.4672637 1.2626624,4.4440717 1.3780486,4.2387135 1.5850479,3.9318699 Z M 1.6944821,4.7798907 c -0.052946,0.061148 -0.130481,0.095389 -0.2131556,0.093551 l -0.00756,5.112e-4 c -0.03876,-0.00176 -0.076453,-0.012687 -0.1112562,-0.03016 l 0.1315438,-0.02546 z" />
    <path
       style="fill:#c59726;stroke-width:0.42861903"
       inkscape:connector-curvature="0"
       id="path4226"
       d="m 1.5125886,1.119699 c 0.038552,0.00187 0.077487,0.011743 0.1143314,0.02987 0.6347025,0.3217757 1.1729555,0.726291 1.6833604,1.2191138 l 0.00245,-7.15e-5 c 0.528854,0.5252555 0.9806023,1.0794505 1.3939858,1.7084422 0.2040105,0.3124263 0.3187,0.5241889 0.3340306,0.5532395 0.066754,0.1263655 0.034727,0.278238 -0.068057,0.3682906 l 0.00112,1.942e-4 c -8.003e-4,4.524e-4 -0.00304,0.00181 -0.00389,0.00267 -0.00117,9.07e-4 -0.00203,0.00219 -0.00325,0.00309 l -0.00112,-1.942e-4 C 4.8117024,5.1274134 4.6083678,5.0813452 4.5280792,4.9352497 4.3290485,4.6212745 4.1606503,4.3276761 3.9693962,4.0591231 3.77086,3.782808 3.5002055,3.4396627 3.2072153,3.1207152 2.7446056,2.5996431 2.2377145,2.2190203 1.6517036,1.8411105 1.5447422,1.7776671 1.4646242,1.7364096 1.3684884,1.6896712 1.2206091,1.6162649 1.1584397,1.4373047 1.2299263,1.2880112 1.2832834,1.1765052 1.3969335,1.113645 1.5126019,1.1197114 Z" />
    <path
       style="fill:#9f5a1b;stroke-width:0.42861903"
       inkscape:connector-curvature="0"
       id="path4228"
       d="m 1.2972904,1.1912944 c -0.022675,0.1290982 0.040787,0.2628113 0.1632913,0.3233747 0.38439,0.1900281 0.7542496,0.4412284 1.0941703,0.7214467 0.2587197,0.2190233 0.5297892,0.478317 0.7599417,0.7266443 0.2558451,0.2794965 0.5059239,0.6189381 0.7427026,0.9161687 0.2672699,0.3355309 0.3930682,0.7548856 0.69608,0.9886782 0.071651,0.030699 0.1288469,0.029744 0.2337255,0.00574 C 4.9270961,4.9961188 4.8574863,5.0107724 4.7173225,5.0321879 4.533019,5.014283 4.4687743,4.8569126 4.4250082,4.7831974 4.3839913,4.7141094 4.0484167,4.1890573 3.9262654,4.0161967 3.7080809,3.7129005 3.4201804,3.3640744 3.1809555,3.1003193 2.9608508,2.8625237 2.6600349,2.5809193 2.4270324,2.3814735 2.0703171,2.1023366 1.7200366,1.8527518 1.3347461,1.6628448 1.266533,1.6292172 1.2161497,1.5719439 1.1932283,1.4997039 1.1633939,1.3590588 1.2085365,1.2617307 1.2973928,1.1912892 Z" />
    <path
       style="fill:#e0c97e;stroke-width:0.42861903"
       inkscape:connector-curvature="0"
       id="path4230"
       d="M 1.6837253,1.1941065 C 2.5432226,1.6184748 3.336991,2.4120046 3.9036208,3.0859303 4.2200656,3.467673 4.5285753,3.8694589 4.764254,4.2080159 c 0.074945,0.1164633 0.2395018,0.3597819 0.2408686,0.4294397 4.423e-4,0.022755 -0.015029,0.048545 -0.048011,0.062795 -0.079773,0.034465 -0.1295895,-0.04711 -0.1415254,-0.06542 C 4.7643308,4.5561986 4.5697102,4.2694559 4.3473039,3.9689894 4.1641139,3.7215238 3.8849748,3.3714108 3.6251273,3.0712991 3.38526,2.7943048 3.1182383,2.5230571 2.887531,2.3054482 2.485983,1.9446131 2.0622776,1.6048663 1.6077758,1.3842761 1.5594817,1.360828 1.5337949,1.2985685 1.5587508,1.2467767 c 0.03191,-0.066224 0.087772,-0.071018 0.1249836,-0.052644 z" />
    <path
       style="fill:#8d7129;stroke-width:0.42861903"
       inkscape:connector-curvature="0"
       id="path4232"
       d="m 1.4845277,1.0695393 c 0.052018,-0.00164 0.104258,0.010013 0.1512103,0.032988 0.3077415,0.1505422 0.6149682,0.3389719 0.9141302,0.5601079 l 0.050065,0.037293 -0.00133,2.662e-4 c 0.2512254,0.1894759 0.4999725,0.4034585 0.7416463,0.6396637 0.00235,0.00208 0.00475,0.00437 0.00707,0.00665 l 0.0456,0.043642 -0.00224,6.56e-5 c 0.2292075,0.2272794 0.4552391,0.4760501 0.6726314,0.7425052 0.00229,0.00293 0.00464,0.00544 0.00689,0.0082 l 0.037032,0.046112 -0.00133,3.95e-5 c 0.2213675,0.2752145 0.4303041,0.561643 0.6200131,0.851725 l 0.02761,0.04218 -9.07e-4,2.61e-5 c 0.1884558,0.2931162 0.2960857,0.490979 0.3075809,0.5128101 0.065262,0.1225497 0.045941,0.2705579 -0.042041,0.3712899 l 0.00625,0.00155 -0.040473,0.032662 c -8.536e-4,9.07e-4 -0.00165,0.00176 -0.00256,0.00267 l -0.00888,0.00712 -0.00155,-3.831e-4 c -0.013823,0.010612 -0.027236,0.020268 -0.041065,0.027791 -0.042767,0.022568 -0.090638,0.036114 -0.1389298,0.038003 l -0.00886,3.79e-5 C 4.6645831,5.075461 4.5573432,5.0121382 4.5009562,4.9111192 l -0.00117,-1.926e-4 -0.00562,-0.010041 C 4.4867859,4.885323 4.2972796,4.5356485 3.9527786,4.0559391 l -0.00671,-0.0098 C 3.7149894,3.7237934 3.4687397,3.4197614 3.2130104,3.1401118 l -4.717e-4,1.39e-5 -0.0062,-0.00758 C 2.9635627,2.8690529 2.7109635,2.6273157 2.4557347,2.4142876 l -6.936e-4,1.97e-5 -0.0066,-0.00624 C 2.192964,2.1959115 1.9296224,2.011161 1.6679871,1.8573246 l -2.268e-4,7e-6 -0.00723,-0.00469 C 1.5517467,1.7901856 1.4536359,1.7363744 1.3581504,1.6900196 1.2784049,1.6510727 1.2194455,1.5815547 1.1913517,1.4961571 1.1653448,1.4152346 1.1710977,1.3291418 1.2076918,1.2530332 1.2596469,1.1451663 1.3657147,1.0748449 1.4843895,1.0698455 Z m 0.00176,0.052464 c -0.1016812,0.00428 -0.1918496,0.063063 -0.2356594,0.1545121 -0.03046,0.063522 -0.035307,0.1352064 -0.013765,0.2024959 0.022925,0.072235 0.073119,0.1299 0.1415174,0.1631361 0.093403,0.045963 0.1908353,0.098871 0.2976564,0.1603202 L 2.4727438,1.6693495 C 2.1913159,1.4650887 1.9037799,1.290801 1.6165324,1.1496469 1.5759957,1.129656 1.530812,1.1203936 1.4863107,1.1220021 Z m 1.0446362,0.5899742 -0.3219427,0.053785 -0.4630418,0.0781 c 0.243229,0.1468988 0.4867963,0.3198986 0.724745,0.5169217 L 3.2711676,2.3415348 C 3.0296198,2.109172 2.7810193,1.8974281 2.5309346,1.7120352 Z m 2.012e-4,0.7000165 c 0.2384492,0.2025316 0.4746272,0.4295976 0.7021696,0.6766728 l 0.7630047,0.040494 C 3.7777904,2.8642384 3.5518736,2.616601 3.3229333,2.391994 L 3.1761224,2.395464 Z M 3.2830256,3.1437205 C 3.524439,3.4097009 3.7573124,3.6987964 3.9761852,4.003929 L 4.487424,4.020585 4.6586493,4.025965 C 4.4694604,3.7392723 4.2618129,3.4554085 4.0406726,3.1837035 Z m 0.7319565,0.9138261 c 0.3031132,0.426365 0.4800723,0.7430649 0.5142937,0.8058643 l 0.4314229,0.089913 C 5.0529483,4.8699529 5.0783096,4.7315011 5.0195869,4.6198692 5.0073906,4.5964691 4.8953896,4.3892484 4.6934555,4.0790463 Z M 4.570113,4.9251587 c 0.051933,0.062009 0.1288975,0.097519 0.2115913,0.097038 l 0.00755,6.402e-4 c 0.038781,-0.00112 0.076652,-0.011433 0.1117369,-0.02833 l -0.131109,-0.02762 z" />
  </g>
  <g
     id="g4252"
     transform="matrix(0.93533627,0,0,-0.92014745,39.561959,45.325966)">
    <path
       d="m 4.8140611,1.0251523 c -0.038579,0.00123 -0.07767,0.010469 -0.1148062,0.027989 -0.6398985,0.3113103 -1.1847196,0.706933 -1.703146,1.1913086 l -0.00245,-1.12e-4 C 2.456249,2.7608388 1.9954634,3.3075406 1.5718102,3.9296595 1.3626976,4.2386932 1.2445473,4.4485442 1.2287417,4.4773392 c -0.06882,0.125252 -0.039289,0.2776292 0.062,0.3693571 l -0.00112,1.76e-4 c 8.003e-4,4.658e-4 0.00299,0.00187 0.00384,0.00277 0.00117,9.07e-4 0.00197,0.00224 0.0032,0.00315 l 0.00112,-1.756e-4 C 1.4495598,4.9781723 1.6536232,4.9354481 1.7362999,4.7906912 1.9404582,4.4800271 2.1136533,4.1892334 2.3092908,3.923857 2.5123362,3.65084 2.7885873,3.3121849 3.0867745,2.9980913 3.5578757,2.4846864 4.0709466,2.1124382 4.6630823,1.7442011 4.7710707,1.6825226 4.851855,1.6425861 4.9487452,1.5974323 5.0978092,1.5264642 5.1629086,1.3485496 5.0938825,1.1981025 5.042366,1.0857358 4.929761,1.0210182 4.8140094,1.0251848 Z"
       id="path4236"
       inkscape:connector-curvature="0"
       style="fill:#c59726;stroke-width:0.42861813" />
    <path
       d="M 5.0281546,1.1002728 C 5.0487058,1.2297254 4.9830563,1.3623779 4.8595756,1.4209225 4.4721184,1.6046134 4.0981854,1.8497065 3.7537101,2.1243058 3.4914302,2.3390513 3.2161405,2.5938587 2.9819424,2.8383735 2.7215432,3.1136312 2.4659259,3.4489198 2.2242997,3.7422222 1.9515575,4.0733195 1.8188912,4.4905513 1.5120823,4.7193363 1.4399372,4.7488506 1.3827649,4.7469619 1.278295,4.721257 1.3363765,4.8450029 1.405736,4.8607977 1.5455291,4.8845121 1.7301014,4.8696322 1.7969209,4.7133412 1.8418912,4.6403542 1.8840391,4.5719497 2.2281863,4.0524792 2.3531588,3.8816476 2.5762928,3.5819751 2.8698811,3.2379234 3.1134035,2.9781324 3.3373826,2.7439834 3.6427804,2.4673561 3.8790261,2.2717634 4.2402758,1.9985214 4.5946057,1.7547221 4.9829619,1.5711666 5.051717,1.5386647 5.103034,1.4822253 5.1271383,1.4103716 5.1592775,1.2702355 5.1157424,1.1721794 5.0280517,1.1002888 Z"
       id="path4238"
       inkscape:connector-curvature="0"
       style="fill:#9f5a1b;stroke-width:0.42861813" />
    <path
       d="M 4.6417256,1.0967398 C 3.7753789,1.5069384 2.9686909,2.2873267 2.3910733,2.9518577 2.0684045,3.3283521 1.7533404,3.7250178 1.5121351,4.0596593 1.4352882,4.1748758 1.2667593,4.4154596 1.264249,4.4850849 1.2634488,4.5078339 1.278478,4.5338699 1.31122,4.5486599 1.390417,4.5844269 1.441565,4.5036839 1.4538002,4.4855729 1.5063411,4.407793 1.7056407,4.1242849 1.9329495,3.827511 2.1201777,3.5830869 2.4050269,3.2376049 2.6697663,2.9418008 2.9141488,2.6687823 3.185587,2.4019558 3.4198352,2.1881648 3.8272524,1.833972 4.2564787,1.5012282 4.7145402,1.2881308 c 0.048673,-0.022653 0.075378,-0.084482 0.051276,-0.1366759 -0.030818,-0.066739 -0.086592,-0.07245 -0.1241007,-0.05469 z"
       id="path4240"
       inkscape:connector-curvature="0"
       style="fill:#e0c97e;stroke-width:0.42861813" />
    <path
       d="M 4.8429415,0.97546023 C 4.7909608,0.97296337 4.7385336,0.98375965 4.6912105,1.005961 4.3810393,1.1514301 4.0707609,1.3347896 3.7680089,1.5509836 l -0.050674,0.036466 0.00133,2.876e-4 C 3.464367,1.7730628 3.2121407,1.982932 2.9666219,2.2151368 c -0.00235,0.00203 -0.0048,0.00427 -0.00718,0.00654 l -0.046309,0.042884 0.00224,1.024e-4 C 2.6824654,2.4881482 2.4523802,2.7331736 2.230643,2.9960227 c -0.00235,0.00288 -0.00469,0.00536 -0.00702,0.00809 l -0.037784,0.045493 0.00133,6.08e-5 C 1.9613198,3.3212035 1.7477097,3.6041625 1.553264,3.8910898 l -0.028298,0.041721 9.07e-4,4.11e-5 C 1.3326301,4.2228338 1.2217667,4.4189019 1.2099148,4.4405414 1.1426499,4.5620028 1.1595389,4.7103081 1.2458558,4.812471 l -0.00627,0.00144 0.039934,0.033324 c 8.536e-4,9.07e-4 0.00165,0.00181 0.00256,0.00267 l 0.00876,0.00727 0.00155,-3.574e-4 c 0.013647,0.010836 0.0269,0.020711 0.040601,0.028463 0.042388,0.023267 0.090033,0.037597 0.1382869,0.040281 l 0.00886,1.83e-4 c 0.1174702,0.00283 0.2257349,-0.058717 0.2837727,-0.1587964 l 0.00117,-1.74e-4 0.00578,-0.00994 C 1.7784924,4.7413834 1.9737122,4.394869 2.326042,3.920881 l 0.00687,-0.00968 C 2.5692512,3.5926849 2.8204589,3.2927381 3.0807456,3.0173252 l 4.705e-4,2.13e-5 0.00632,-0.00747 C 3.3346076,2.7504021 3.5911409,2.5128455 3.8498323,2.304037 l 6.936e-4,3.15e-5 0.00671,-0.00613 C 4.1161578,2.0900033 4.3824967,1.9096014 4.646622,1.7600818 l 2.262e-4,1.07e-5 0.0073,-0.00453 C 4.763947,1.6949013 4.8629275,1.6427082 4.9591614,1.5979279 5.0395349,1.5602935 5.0996278,1.491755 5.1291201,1.4068301 5.1564523,1.3263462 5.1521148,1.2401701 5.1167745,1.1634716 5.0665971,1.0547663 4.9616988,0.98271305 4.8431222,0.97576594 Z m -0.00261,0.0524273 c 0.1015969,0.00595 0.1907878,0.066204 0.2330905,0.1583598 0.029413,0.064014 0.033084,0.1357683 0.010441,0.2026944 C 5.059753,1.4607907 5.008621,1.5176232 4.9396865,1.549732 4.8455415,1.594158 4.7472539,1.645456 4.6394383,1.7051433 L 3.8450047,1.5589634 C 4.1297478,1.3593512 4.4201057,1.189808 4.7096318,1.0533895 c 0.040862,-0.019322 0.086189,-0.027842 0.1306576,-0.025503 z m -1.054184,0.5727421 0.3210159,0.059063 0.4616958,0.085693 C 4.3232523,1.8882708 4.0768783,2.0572474 3.8357273,2.2503368 L 3.0356699,2.2179469 C 3.2809998,1.9895823 3.533042,1.7819486 3.7861368,1.6006867 Z M 3.7744527,2.3005478 C 3.5327112,2.4991362 3.2928375,2.7222937 3.0612692,2.965599 L 2.2977043,2.9935607 C 2.5205422,2.7322636 2.7504941,2.4883693 2.9830906,2.2675513 L 3.1298242,2.27342 Z M 3.0106414,3.019829 C 2.7648943,3.281809 2.5273062,3.5670414 2.3034535,3.8685386 l -0.511442,0.00826 -0.1712904,0.00256 c 0.1938705,-0.2835512 0.40615,-0.563967 0.6317211,-0.832004 z M 2.2637816,3.9215116 C 1.9537092,4.3428424 1.771575,4.6565929 1.7363271,4.718822 L 1.3034872,4.8016396 C 1.2126191,4.7167653 1.1895342,4.577916 1.250082,4.4672637 1.2626624,4.4440717 1.3780486,4.2387135 1.5850479,3.9318699 Z M 1.6944821,4.7798907 c -0.052946,0.061148 -0.130481,0.095389 -0.2131556,0.093551 l -0.00756,5.112e-4 c -0.03876,-0.00176 -0.076453,-0.012687 -0.1112562,-0.03016 l 0.1315438,-0.02546 z"
       id="path4242"
       inkscape:connector-curvature="0"
       style="fill:#8d7129;stroke-width:0.42861813" />
    <path
       d="m 1.5125886,1.119699 c 0.038552,0.00187 0.077487,0.011743 0.1143314,0.02987 0.6347025,0.3217757 1.1729555,0.726291 1.6833604,1.2191138 l 0.00245,-7.15e-5 c 0.528854,0.5252555 0.9806023,1.0794505 1.3939858,1.7084422 0.2040105,0.3124263 0.3187,0.5241889 0.3340306,0.5532395 0.066754,0.1263655 0.034727,0.278238 -0.068057,0.3682906 l 0.00112,1.942e-4 c -8.003e-4,4.524e-4 -0.00304,0.00181 -0.00389,0.00267 -0.00117,9.07e-4 -0.00203,0.00219 -0.00325,0.00309 l -0.00112,-1.942e-4 C 4.8117024,5.1274134 4.6083678,5.0813452 4.5280792,4.9352497 4.3290485,4.6212745 4.1606503,4.3276761 3.9693962,4.0591231 3.77086,3.782808 3.5002055,3.4396627 3.2072153,3.1207152 2.7446056,2.5996431 2.2377145,2.2190203 1.6517036,1.8411105 1.5447422,1.7776671 1.4646242,1.7364096 1.3684884,1.6896712 1.2206091,1.6162649 1.1584397,1.4373047 1.2299263,1.2880112 1.2832834,1.1765052 1.3969335,1.113645 1.5126019,1.1197114 Z"
       id="path4244"
       inkscape:connector-curvature="0"
       style="fill:#c59726;stroke-width:0.42861903" />
    <path
       d="m 1.2972904,1.1912944 c -0.022675,0.1290982 0.040787,0.2628113 0.1632913,0.3233747 0.38439,0.1900281 0.7542496,0.4412284 1.0941703,0.7214467 0.2587197,0.2190233 0.5297892,0.478317 0.7599417,0.7266443 0.2558451,0.2794965 0.5059239,0.6189381 0.7427026,0.9161687 0.2672699,0.3355309 0.3930682,0.7548856 0.69608,0.9886782 0.071651,0.030699 0.1288469,0.029744 0.2337255,0.00574 C 4.9270961,4.9961188 4.8574863,5.0107724 4.7173225,5.0321879 4.533019,5.014283 4.4687743,4.8569126 4.4250082,4.7831974 4.3839913,4.7141094 4.0484167,4.1890573 3.9262654,4.0161967 3.7080809,3.7129005 3.4201804,3.3640744 3.1809555,3.1003193 2.9608508,2.8625237 2.6600349,2.5809193 2.4270324,2.3814735 2.0703171,2.1023366 1.7200366,1.8527518 1.3347461,1.6628448 1.266533,1.6292172 1.2161497,1.5719439 1.1932283,1.4997039 1.1633939,1.3590588 1.2085365,1.2617307 1.2973928,1.1912892 Z"
       id="path4246"
       inkscape:connector-curvature="0"
       style="fill:#9f5a1b;stroke-width:0.42861903" />
    <path
       d="M 1.6837253,1.1941065 C 2.5432226,1.6184748 3.336991,2.4120046 3.9036208,3.0859303 4.2200656,3.467673 4.5285753,3.8694589 4.764254,4.2080159 c 0.074945,0.1164633 0.2395018,0.3597819 0.2408686,0.4294397 4.423e-4,0.022755 -0.015029,0.048545 -0.048011,0.062795 -0.079773,0.034465 -0.1295895,-0.04711 -0.1415254,-0.06542 C 4.7643308,4.5561986 4.5697102,4.2694559 4.3473039,3.9689894 4.1641139,3.7215238 3.8849748,3.3714108 3.6251273,3.0712991 3.38526,2.7943048 3.1182383,2.5230571 2.887531,2.3054482 2.485983,1.9446131 2.0622776,1.6048663 1.6077758,1.3842761 1.5594817,1.360828 1.5337949,1.2985685 1.5587508,1.2467767 c 0.03191,-0.066224 0.087772,-0.071018 0.1249836,-0.052644 z"
       id="path4248"
       inkscape:connector-curvature="0"
       style="fill:#e0c97e;stroke-width:0.42861903" />
    <path
       d="m 1.4845277,1.0695393 c 0.052018,-0.00164 0.104258,0.010013 0.1512103,0.032988 0.3077415,0.1505422 0.6149682,0.3389719 0.9141302,0.5601079 l 0.050065,0.037293 -0.00133,2.662e-4 c 0.2512254,0.1894759 0.4999725,0.4034585 0.7416463,0.6396637 0.00235,0.00208 0.00475,0.00437 0.00707,0.00665 l 0.0456,0.043642 -0.00224,6.56e-5 c 0.2292075,0.2272794 0.4552391,0.4760501 0.6726314,0.7425052 0.00229,0.00293 0.00464,0.00544 0.00689,0.0082 l 0.037032,0.046112 -0.00133,3.95e-5 c 0.2213675,0.2752145 0.4303041,0.561643 0.6200131,0.851725 l 0.02761,0.04218 -9.07e-4,2.61e-5 c 0.1884558,0.2931162 0.2960857,0.490979 0.3075809,0.5128101 0.065262,0.1225497 0.045941,0.2705579 -0.042041,0.3712899 l 0.00625,0.00155 -0.040473,0.032662 c -8.536e-4,9.07e-4 -0.00165,0.00176 -0.00256,0.00267 l -0.00888,0.00712 -0.00155,-3.831e-4 c -0.013823,0.010612 -0.027236,0.020268 -0.041065,0.027791 -0.042767,0.022568 -0.090638,0.036114 -0.1389298,0.038003 l -0.00886,3.79e-5 C 4.6645831,5.075461 4.5573432,5.0121382 4.5009562,4.9111192 l -0.00117,-1.926e-4 -0.00562,-0.010041 C 4.4867859,4.885323 4.2972796,4.5356485 3.9527786,4.0559391 l -0.00671,-0.0098 C 3.7149894,3.7237934 3.4687397,3.4197614 3.2130104,3.1401118 l -4.717e-4,1.39e-5 -0.0062,-0.00758 C 2.9635627,2.8690529 2.7109635,2.6273157 2.4557347,2.4142876 l -6.936e-4,1.97e-5 -0.0066,-0.00624 C 2.192964,2.1959115 1.9296224,2.011161 1.6679871,1.8573246 l -2.268e-4,7e-6 -0.00723,-0.00469 C 1.5517467,1.7901856 1.4536359,1.7363744 1.3581504,1.6900196 1.2784049,1.6510727 1.2194455,1.5815547 1.1913517,1.4961571 1.1653448,1.4152346 1.1710977,1.3291418 1.2076918,1.2530332 1.2596469,1.1451663 1.3657147,1.0748449 1.4843895,1.0698455 Z m 0.00176,0.052464 c -0.1016812,0.00428 -0.1918496,0.063063 -0.2356594,0.1545121 -0.03046,0.063522 -0.035307,0.1352064 -0.013765,0.2024959 0.022925,0.072235 0.073119,0.1299 0.1415174,0.1631361 0.093403,0.045963 0.1908353,0.098871 0.2976564,0.1603202 L 2.4727438,1.6693495 C 2.1913159,1.4650887 1.9037799,1.290801 1.6165324,1.1496469 1.5759957,1.129656 1.530812,1.1203936 1.4863107,1.1220021 Z m 1.0446362,0.5899742 -0.3219427,0.053785 -0.4630418,0.0781 c 0.243229,0.1468988 0.4867963,0.3198986 0.724745,0.5169217 L 3.2711676,2.3415348 C 3.0296198,2.109172 2.7810193,1.8974281 2.5309346,1.7120352 Z m 2.012e-4,0.7000165 c 0.2384492,0.2025316 0.4746272,0.4295976 0.7021696,0.6766728 l 0.7630047,0.040494 C 3.7777904,2.8642384 3.5518736,2.616601 3.3229333,2.391994 L 3.1761224,2.395464 Z M 3.2830256,3.1437205 C 3.524439,3.4097009 3.7573124,3.6987964 3.9761852,4.003929 L 4.487424,4.020585 4.6586493,4.025965 C 4.4694604,3.7392723 4.2618129,3.4554085 4.0406726,3.1837035 Z m 0.7319565,0.9138261 c 0.3031132,0.426365 0.4800723,0.7430649 0.5142937,0.8058643 l 0.4314229,0.089913 C 5.0529483,4.8699529 5.0783096,4.7315011 5.0195869,4.6198692 5.0073906,4.5964691 4.8953896,4.3892484 4.6934555,4.0790463 Z M 4.570113,4.9251587 c 0.051933,0.062009 0.1288975,0.097519 0.2115913,0.097038 l 0.00755,6.402e-4 c 0.038781,-0.00112 0.076652,-0.011433 0.1117369,-0.02833 l -0.131109,-0.02762 z"
       id="path4250"
       inkscape:connector-curvature="0"
       style="fill:#8d7129;stroke-width:0.42861903" />
  </g>
  <g
     transform="matrix(0.93533627,0,0,-0.92014745,0.02736815,45.325966)"
     id="g4270">
    <path
       style="fill:#c59726;stroke-width:0.42861813"
       inkscape:connector-curvature="0"
       id="path4254"
       d="m 4.8140611,1.0251523 c -0.038579,0.00123 -0.07767,0.010469 -0.1148062,0.027989 -0.6398985,0.3113103 -1.1847196,0.706933 -1.703146,1.1913086 l -0.00245,-1.12e-4 C 2.456249,2.7608388 1.9954634,3.3075406 1.5718102,3.9296595 1.3626976,4.2386932 1.2445473,4.4485442 1.2287417,4.4773392 c -0.06882,0.125252 -0.039289,0.2776292 0.062,0.3693571 l -0.00112,1.76e-4 c 8.003e-4,4.658e-4 0.00299,0.00187 0.00384,0.00277 0.00117,9.07e-4 0.00197,0.00224 0.0032,0.00315 l 0.00112,-1.756e-4 C 1.4495598,4.9781723 1.6536232,4.9354481 1.7362999,4.7906912 1.9404582,4.4800271 2.1136533,4.1892334 2.3092908,3.923857 2.5123362,3.65084 2.7885873,3.3121849 3.0867745,2.9980913 3.5578757,2.4846864 4.0709466,2.1124382 4.6630823,1.7442011 4.7710707,1.6825226 4.851855,1.6425861 4.9487452,1.5974323 5.0978092,1.5264642 5.1629086,1.3485496 5.0938825,1.1981025 5.042366,1.0857358 4.929761,1.0210182 4.8140094,1.0251848 Z" />
    <path
       style="fill:#9f5a1b;stroke-width:0.42861813"
       inkscape:connector-curvature="0"
       id="path4256"
       d="M 5.0281546,1.1002728 C 5.0487058,1.2297254 4.9830563,1.3623779 4.8595756,1.4209225 4.4721184,1.6046134 4.0981854,1.8497065 3.7537101,2.1243058 3.4914302,2.3390513 3.2161405,2.5938587 2.9819424,2.8383735 2.7215432,3.1136312 2.4659259,3.4489198 2.2242997,3.7422222 1.9515575,4.0733195 1.8188912,4.4905513 1.5120823,4.7193363 1.4399372,4.7488506 1.3827649,4.7469619 1.278295,4.721257 1.3363765,4.8450029 1.405736,4.8607977 1.5455291,4.8845121 1.7301014,4.8696322 1.7969209,4.7133412 1.8418912,4.6403542 1.8840391,4.5719497 2.2281863,4.0524792 2.3531588,3.8816476 2.5762928,3.5819751 2.8698811,3.2379234 3.1134035,2.9781324 3.3373826,2.7439834 3.6427804,2.4673561 3.8790261,2.2717634 4.2402758,1.9985214 4.5946057,1.7547221 4.9829619,1.5711666 5.051717,1.5386647 5.103034,1.4822253 5.1271383,1.4103716 5.1592775,1.2702355 5.1157424,1.1721794 5.0280517,1.1002888 Z" />
    <path
       style="fill:#e0c97e;stroke-width:0.42861813"
       inkscape:connector-curvature="0"
       id="path4258"
       d="M 4.6417256,1.0967398 C 3.7753789,1.5069384 2.9686909,2.2873267 2.3910733,2.9518577 2.0684045,3.3283521 1.7533404,3.7250178 1.5121351,4.0596593 1.4352882,4.1748758 1.2667593,4.4154596 1.264249,4.4850849 1.2634488,4.5078339 1.278478,4.5338699 1.31122,4.5486599 1.390417,4.5844269 1.441565,4.5036839 1.4538002,4.4855729 1.5063411,4.407793 1.7056407,4.1242849 1.9329495,3.827511 2.1201777,3.5830869 2.4050269,3.2376049 2.6697663,2.9418008 2.9141488,2.6687823 3.185587,2.4019558 3.4198352,2.1881648 3.8272524,1.833972 4.2564787,1.5012282 4.7145402,1.2881308 c 0.048673,-0.022653 0.075378,-0.084482 0.051276,-0.1366759 -0.030818,-0.066739 -0.086592,-0.07245 -0.1241007,-0.05469 z" />
    <path
       style="fill:#8d7129;stroke-width:0.42861813"
       inkscape:connector-curvature="0"
       id="path4260"
       d="M 4.8429415,0.97546023 C 4.7909608,0.97296337 4.7385336,0.98375965 4.6912105,1.005961 4.3810393,1.1514301 4.0707609,1.3347896 3.7680089,1.5509836 l -0.050674,0.036466 0.00133,2.876e-4 C 3.464367,1.7730628 3.2121407,1.982932 2.9666219,2.2151368 c -0.00235,0.00203 -0.0048,0.00427 -0.00718,0.00654 l -0.046309,0.042884 0.00224,1.024e-4 C 2.6824654,2.4881482 2.4523802,2.7331736 2.230643,2.9960227 c -0.00235,0.00288 -0.00469,0.00536 -0.00702,0.00809 l -0.037784,0.045493 0.00133,6.08e-5 C 1.9613198,3.3212035 1.7477097,3.6041625 1.553264,3.8910898 l -0.028298,0.041721 9.07e-4,4.11e-5 C 1.3326301,4.2228338 1.2217667,4.4189019 1.2099148,4.4405414 1.1426499,4.5620028 1.1595389,4.7103081 1.2458558,4.812471 l -0.00627,0.00144 0.039934,0.033324 c 8.536e-4,9.07e-4 0.00165,0.00181 0.00256,0.00267 l 0.00876,0.00727 0.00155,-3.574e-4 c 0.013647,0.010836 0.0269,0.020711 0.040601,0.028463 0.042388,0.023267 0.090033,0.037597 0.1382869,0.040281 l 0.00886,1.83e-4 c 0.1174702,0.00283 0.2257349,-0.058717 0.2837727,-0.1587964 l 0.00117,-1.74e-4 0.00578,-0.00994 C 1.7784924,4.7413834 1.9737122,4.394869 2.326042,3.920881 l 0.00687,-0.00968 C 2.5692512,3.5926849 2.8204589,3.2927381 3.0807456,3.0173252 l 4.705e-4,2.13e-5 0.00632,-0.00747 C 3.3346076,2.7504021 3.5911409,2.5128455 3.8498323,2.304037 l 6.936e-4,3.15e-5 0.00671,-0.00613 C 4.1161578,2.0900033 4.3824967,1.9096014 4.646622,1.7600818 l 2.262e-4,1.07e-5 0.0073,-0.00453 C 4.763947,1.6949013 4.8629275,1.6427082 4.9591614,1.5979279 5.0395349,1.5602935 5.0996278,1.491755 5.1291201,1.4068301 5.1564523,1.3263462 5.1521148,1.2401701 5.1167745,1.1634716 5.0665971,1.0547663 4.9616988,0.98271305 4.8431222,0.97576594 Z m -0.00261,0.0524273 c 0.1015969,0.00595 0.1907878,0.066204 0.2330905,0.1583598 0.029413,0.064014 0.033084,0.1357683 0.010441,0.2026944 C 5.059753,1.4607907 5.008621,1.5176232 4.9396865,1.549732 4.8455415,1.594158 4.7472539,1.645456 4.6394383,1.7051433 L 3.8450047,1.5589634 C 4.1297478,1.3593512 4.4201057,1.189808 4.7096318,1.0533895 c 0.040862,-0.019322 0.086189,-0.027842 0.1306576,-0.025503 z m -1.054184,0.5727421 0.3210159,0.059063 0.4616958,0.085693 C 4.3232523,1.8882708 4.0768783,2.0572474 3.8357273,2.2503368 L 3.0356699,2.2179469 C 3.2809998,1.9895823 3.533042,1.7819486 3.7861368,1.6006867 Z M 3.7744527,2.3005478 C 3.5327112,2.4991362 3.2928375,2.7222937 3.0612692,2.965599 L 2.2977043,2.9935607 C 2.5205422,2.7322636 2.7504941,2.4883693 2.9830906,2.2675513 L 3.1298242,2.27342 Z M 3.0106414,3.019829 C 2.7648943,3.281809 2.5273062,3.5670414 2.3034535,3.8685386 l -0.511442,0.00826 -0.1712904,0.00256 c 0.1938705,-0.2835512 0.40615,-0.563967 0.6317211,-0.832004 z M 2.2637816,3.9215116 C 1.9537092,4.3428424 1.771575,4.6565929 1.7363271,4.718822 L 1.3034872,4.8016396 C 1.2126191,4.7167653 1.1895342,4.577916 1.250082,4.4672637 1.2626624,4.4440717 1.3780486,4.2387135 1.5850479,3.9318699 Z M 1.6944821,4.7798907 c -0.052946,0.061148 -0.130481,0.095389 -0.2131556,0.093551 l -0.00756,5.112e-4 c -0.03876,-0.00176 -0.076453,-0.012687 -0.1112562,-0.03016 l 0.1315438,-0.02546 z" />
    <path
       style="fill:#c59726;stroke-width:0.42861903"
       inkscape:connector-curvature="0"
       id="path4262"
       d="m 1.5125886,1.119699 c 0.038552,0.00187 0.077487,0.011743 0.1143314,0.02987 0.6347025,0.3217757 1.1729555,0.726291 1.6833604,1.2191138 l 0.00245,-7.15e-5 c 0.528854,0.5252555 0.9806023,1.0794505 1.3939858,1.7084422 0.2040105,0.3124263 0.3187,0.5241889 0.3340306,0.5532395 0.066754,0.1263655 0.034727,0.278238 -0.068057,0.3682906 l 0.00112,1.942e-4 c -8.003e-4,4.524e-4 -0.00304,0.00181 -0.00389,0.00267 -0.00117,9.07e-4 -0.00203,0.00219 -0.00325,0.00309 l -0.00112,-1.942e-4 C 4.8117024,5.1274134 4.6083678,5.0813452 4.5280792,4.9352497 4.3290485,4.6212745 4.1606503,4.3276761 3.9693962,4.0591231 3.77086,3.782808 3.5002055,3.4396627 3.2072153,3.1207152 2.7446056,2.5996431 2.2377145,2.2190203 1.6517036,1.8411105 1.5447422,1.7776671 1.4646242,1.7364096 1.3684884,1.6896712 1.2206091,1.6162649 1.1584397,1.4373047 1.2299263,1.2880112 1.2832834,1.1765052 1.3969335,1.113645 1.5126019,1.1197114 Z" />
    <path
       style="fill:#9f5a1b;stroke-width:0.42861903"
       inkscape:connector-curvature="0"
       id="path4264"
       d="m 1.2972904,1.1912944 c -0.022675,0.1290982 0.040787,0.2628113 0.1632913,0.3233747 0.38439,0.1900281 0.7542496,0.4412284 1.0941703,0.7214467 0.2587197,0.2190233 0.5297892,0.478317 0.7599417,0.7266443 0.2558451,0.2794965 0.5059239,0.6189381 0.7427026,0.9161687 0.2672699,0.3355309 0.3930682,0.7548856 0.69608,0.9886782 0.071651,0.030699 0.1288469,0.029744 0.2337255,0.00574 C 4.9270961,4.9961188 4.8574863,5.0107724 4.7173225,5.0321879 4.533019,5.014283 4.4687743,4.8569126 4.4250082,4.7831974 4.3839913,4.7141094 4.0484167,4.1890573 3.9262654,4.0161967 3.7080809,3.7129005 3.4201804,3.3640744 3.1809555,3.1003193 2.9608508,2.8625237 2.6600349,2.5809193 2.4270324,2.3814735 2.0703171,2.1023366 1.7200366,1.8527518 1.3347461,1.6628448 1.266533,1.6292172 1.2161497,1.5719439 1.1932283,1.4997039 1.1633939,1.3590588 1.2085365,1.2617307 1.2973928,1.1912892 Z" />
    <path
       style="fill:#e0c97e;stroke-width:0.42861903"
       inkscape:connector-curvature="0"
       id="path4266"
       d="M 1.6837253,1.1941065 C 2.5432226,1.6184748 3.336991,2.4120046 3.9036208,3.0859303 4.2200656,3.467673 4.5285753,3.8694589 4.764254,4.2080159 c 0.074945,0.1164633 0.2395018,0.3597819 0.2408686,0.4294397 4.423e-4,0.022755 -0.015029,0.048545 -0.048011,0.062795 -0.079773,0.034465 -0.1295895,-0.04711 -0.1415254,-0.06542 C 4.7643308,4.5561986 4.5697102,4.2694559 4.3473039,3.9689894 4.1641139,3.7215238 3.8849748,3.3714108 3.6251273,3.0712991 3.38526,2.7943048 3.1182383,2.5230571 2.887531,2.3054482 2.485983,1.9446131 2.0622776,1.6048663 1.6077758,1.3842761 1.5594817,1.360828 1.5337949,1.2985685 1.5587508,1.2467767 c 0.03191,-0.066224 0.087772,-0.071018 0.1249836,-0.052644 z" />
    <path
       style="fill:#8d7129;stroke-width:0.42861903"
       inkscape:connector-curvature="0"
       id="path4268"
       d="m 1.4845277,1.0695393 c 0.052018,-0.00164 0.104258,0.010013 0.1512103,0.032988 0.3077415,0.1505422 0.6149682,0.3389719 0.9141302,0.5601079 l 0.050065,0.037293 -0.00133,2.662e-4 c 0.2512254,0.1894759 0.4999725,0.4034585 0.7416463,0.6396637 0.00235,0.00208 0.00475,0.00437 0.00707,0.00665 l 0.0456,0.043642 -0.00224,6.56e-5 c 0.2292075,0.2272794 0.4552391,0.4760501 0.6726314,0.7425052 0.00229,0.00293 0.00464,0.00544 0.00689,0.0082 l 0.037032,0.046112 -0.00133,3.95e-5 c 0.2213675,0.2752145 0.4303041,0.561643 0.6200131,0.851725 l 0.02761,0.04218 -9.07e-4,2.61e-5 c 0.1884558,0.2931162 0.2960857,0.490979 0.3075809,0.5128101 0.065262,0.1225497 0.045941,0.2705579 -0.042041,0.3712899 l 0.00625,0.00155 -0.040473,0.032662 c -8.536e-4,9.07e-4 -0.00165,0.00176 -0.00256,0.00267 l -0.00888,0.00712 -0.00155,-3.831e-4 c -0.013823,0.010612 -0.027236,0.020268 -0.041065,0.027791 -0.042767,0.022568 -0.090638,0.036114 -0.1389298,0.038003 l -0.00886,3.79e-5 C 4.6645831,5.075461 4.5573432,5.0121382 4.5009562,4.9111192 l -0.00117,-1.926e-4 -0.00562,-0.010041 C 4.4867859,4.885323 4.2972796,4.5356485 3.9527786,4.0559391 l -0.00671,-0.0098 C 3.7149894,3.7237934 3.4687397,3.4197614 3.2130104,3.1401118 l -4.717e-4,1.39e-5 -0.0062,-0.00758 C 2.9635627,2.8690529 2.7109635,2.6273157 2.4557347,2.4142876 l -6.936e-4,1.97e-5 -0.0066,-0.00624 C 2.192964,2.1959115 1.9296224,2.011161 1.6679871,1.8573246 l -2.268e-4,7e-6 -0.00723,-0.00469 C 1.5517467,1.7901856 1.4536359,1.7363744 1.3581504,1.6900196 1.2784049,1.6510727 1.2194455,1.5815547 1.1913517,1.4961571 1.1653448,1.4152346 1.1710977,1.3291418 1.2076918,1.2530332 1.2596469,1.1451663 1.3657147,1.0748449 1.4843895,1.0698455 Z m 0.00176,0.052464 c -0.1016812,0.00428 -0.1918496,0.063063 -0.2356594,0.1545121 -0.03046,0.063522 -0.035307,0.1352064 -0.013765,0.2024959 0.022925,0.072235 0.073119,0.1299 0.1415174,0.1631361 0.093403,0.045963 0.1908353,0.098871 0.2976564,0.1603202 L 2.4727438,1.6693495 C 2.1913159,1.4650887 1.9037799,1.290801 1.6165324,1.1496469 1.5759957,1.129656 1.530812,1.1203936 1.4863107,1.1220021 Z m 1.0446362,0.5899742 -0.3219427,0.053785 -0.4630418,0.0781 c 0.243229,0.1468988 0.4867963,0.3198986 0.724745,0.5169217 L 3.2711676,2.3415348 C 3.0296198,2.109172 2.7810193,1.8974281 2.5309346,1.7120352 Z m 2.012e-4,0.7000165 c 0.2384492,0.2025316 0.4746272,0.4295976 0.7021696,0.6766728 l 0.7630047,0.040494 C 3.7777904,2.8642384 3.5518736,2.616601 3.3229333,2.391994 L 3.1761224,2.395464 Z M 3.2830256,3.1437205 C 3.524439,3.4097009 3.7573124,3.6987964 3.9761852,4.003929 L 4.487424,4.020585 4.6586493,4.025965 C 4.4694604,3.7392723 4.2618129,3.4554085 4.0406726,3.1837035 Z m 0.7319565,0.9138261 c 0.3031132,0.426365 0.4800723,0.7430649 0.5142937,0.8058643 l 0.4314229,0.089913 C 5.0529483,4.8699529 5.0783096,4.7315011 5.0195869,4.6198692 5.0073906,4.5964691 4.8953896,4.3892484 4.6934555,4.0790463 Z M 4.570113,4.9251587 c 0.051933,0.062009 0.1288975,0.097519 0.2115913,0.097038 l 0.00755,6.402e-4 c 0.038781,-0.00112 0.076652,-0.011433 0.1117369,-0.02833 l -0.131109,-0.02762 z" />
  </g>
</svg>
