<?xml version="1.0" encoding="UTF-8" standalone="no"?>
<svg
   xmlns:dc="http://purl.org/dc/elements/1.1/"
   xmlns:cc="http://creativecommons.org/ns#"
   xmlns:rdf="http://www.w3.org/1999/02/22-rdf-syntax-ns#"
   xmlns:svg="http://www.w3.org/2000/svg"
   xmlns="http://www.w3.org/2000/svg"
   xmlns:xlink="http://www.w3.org/1999/xlink"
   xmlns:sodipodi="http://sodipodi.sourceforge.net/DTD/sodipodi-0.dtd"
   xmlns:inkscape="http://www.inkscape.org/namespaces/inkscape"
   width="171.4599"
   height="171.62381"
   version="1.1"
   viewBox="0 0 45.365475 45.409278"
   id="svg352"
   sodipodi:docname="borderbamboo.svg"
   inkscape:version="0.92.4 (5da689c313, 2019-01-14)">
  <metadata
     id="metadata356">
    <rdf:RDF>
      <cc:Work
         rdf:about="">
        <dc:format>image/svg+xml</dc:format>
        <dc:type
           rdf:resource="http://purl.org/dc/dcmitype/StillImage" />
        <dc:title></dc:title>
      </cc:Work>
    </rdf:RDF>
  </metadata>
  <sodipodi:namedview
     pagecolor="#ffffff"
     bordercolor="#666666"
     borderopacity="1"
     objecttolerance="10"
     gridtolerance="10"
     guidetolerance="10"
     inkscape:pageopacity="0"
     inkscape:pageshadow="2"
     inkscape:window-width="1366"
     inkscape:window-height="705"
     id="namedview354"
     showgrid="false"
     inkscape:pagecheckerboard="true"
     inkscape:showpageshadow="false"
     inkscape:snap-global="false"
     fit-margin-top="0"
     fit-margin-left="0"
     fit-margin-right="0"
     fit-margin-bottom="0"
     inkscape:zoom="0.95295774"
     inkscape:cx="178.41362"
     inkscape:cy="15.844051"
     inkscape:window-x="-8"
     inkscape:window-y="-8"
     inkscape:window-maximized="1"
     inkscape:current-layer="svg352" />
  <defs
     id="defs60">
    <linearGradient
       id="linearGradient8789"
       x1="300.29999"
       x2="300.29999"
       y1="63.365002"
       y2="36.063"
       gradientTransform="matrix(0.09285155,0,0,0.11340379,-4.9264496,-2.5907742)"
       gradientUnits="userSpaceOnUse"
       xlink:href="#verde" />
    <linearGradient
       id="verde">
      <stop
         stop-color="#1d3209"
         offset="0"
         id="stop3" />
      <stop
         stop-color="#3a6712"
         offset=".11087"
         id="stop5" />
      <stop
         stop-color="#5b9e1c"
         offset=".54248"
         id="stop7" />
      <stop
         stop-color="#1d3209"
         offset="1"
         id="stop9" />
    </linearGradient>
    <linearGradient
       id="linearGradient37826"
       x2="1"
       gradientTransform="matrix(-4.7740987,-7.9390645,-6.0642212,4.2752861,-16.00281,67.666947)"
       gradientUnits="userSpaceOnUse"
       xlink:href="#linearGradient390" />
    <linearGradient
       id="linearGradient390"
       x2="1"
       gradientTransform="matrix(26.775,-54.019,41.594,24.529,-18.224,325.91)"
       gradientUnits="userSpaceOnUse">
      <stop
         stop-color="#2e954b"
         offset="0"
         id="stop13" />
      <stop
         stop-color="#54c04c"
         offset=".3447"
         id="stop15" />
      <stop
         stop-color="#b6de36"
         offset=".99882"
         id="stop17" />
      <stop
         stop-color="#b6de36"
         offset="1"
         id="stop19" />
    </linearGradient>
    <linearGradient
       id="linearGradient37804"
       x2="1"
       gradientTransform="matrix(-9.7556254,-8.3105018,-6.0712075,8.2760922,-12.991029,81.017092)"
       gradientUnits="userSpaceOnUse"
       xlink:href="#linearGradient390" />
    <clipPath
       id="clipPath14464">
      <path
         d="m 658.13,882.58 c -1.418,2.141 -35.367,54.012 -70.656,157.32 -32.473,95.01 -71.981,253.23 -75.805,467.31 -3.469,189.25 28.695,370.32 95.457,538.1 67.441,169.39 159.39,290.49 222.4,361.89 l 2.399,-4.02 c -62.281,-70.49 -145.9,-196.24 -212.55,-363.66 -65.977,-165.83 -97.75,-344.87 -94.391,-532.05 3.84,-211.98 42.899,-368.51 75.036,-462.48 34.656,-101.53 68.64,-153.42 68.996,-153.91 l -10.883,-8.5"
         id="path23"
         inkscape:connector-curvature="0" />
    </clipPath>
    <linearGradient
       id="linearGradient14470"
       x1="0.0085663004"
       x2="1"
       y1="-0.016419001"
       gradientTransform="matrix(-358.76,-1479.2,-1479.2,358.76,857.44,2400.4)"
       gradientUnits="userSpaceOnUse">
      <stop
         stop-color="#54c04c"
         offset="0"
         id="stop26" />
      <stop
         stop-color="#2e954b"
         offset="1"
         id="stop28" />
    </linearGradient>
    <linearGradient
       id="linearGradient15228"
       x2="1"
       gradientTransform="matrix(30.214,-48.635,48.635,30.214,-76.181,263.46)"
       gradientUnits="userSpaceOnUse">
      <stop
         stop-color="#2e954b"
         offset="0"
         id="stop31" />
      <stop
         stop-color="#7ecd42"
         offset=".5843"
         id="stop33" />
      <stop
         stop-color="#e6df20"
         offset=".99882"
         id="stop35" />
      <stop
         stop-color="#e6df20"
         offset="1"
         id="stop37" />
    </linearGradient>
    <linearGradient
       id="linearGradient37844"
       x2="1"
       gradientTransform="matrix(-4.5069158,-7.494376,-5.72443,4.0357916,-15.071178,58.001717)"
       gradientUnits="userSpaceOnUse"
       xlink:href="#linearGradient390" />
    <linearGradient
       id="linearGradient37850"
       x2="1"
       gradientTransform="matrix(-1.9956069,-5.6714204,-4.4142205,1.9238373,-12.937778,50.966562)"
       gradientUnits="userSpaceOnUse"
       xlink:href="#linearGradient390" />
    <linearGradient
       id="linearGradient37856"
       x2="1"
       gradientTransform="matrix(3.0390417,-3.4765785,2.6003237,2.6298378,-9.2311322,44.237002)"
       gradientUnits="userSpaceOnUse"
       xlink:href="#linearGradient390" />
    <linearGradient
       id="linearGradient37862"
       x1="0.0015632"
       x2="1"
       y1="-0.0087237004"
       gradientTransform="matrix(5.1176605,-7.7870953,5.9228443,4.5407753,-14.255028,61.958882)"
       gradientUnits="userSpaceOnUse"
       xlink:href="#linearGradient390" />
    <linearGradient
       id="linearGradient37868"
       x2="1"
       gradientTransform="matrix(4.8646157,-3.5332186,2.5394357,4.0911365,-11.063594,48.480758)"
       gradientUnits="userSpaceOnUse"
       xlink:href="#linearGradient390" />
    <linearGradient
       id="linearGradient8768"
       x1="300.29999"
       x2="300.29999"
       y1="63.365002"
       y2="36.063"
       gradientTransform="matrix(0.09285155,0,0,0.11340379,-19.751836,-2.5097653)"
       gradientUnits="userSpaceOnUse"
       xlink:href="#verde" />
    <linearGradient
       id="linearGradient3985"
       x1="300.29999"
       x2="300.29999"
       y1="63.365002"
       y2="36.063"
       gradientTransform="matrix(0.17403621,0,0,0.21255828,18.612202,-5.0906021)"
       gradientUnits="userSpaceOnUse"
       xlink:href="#verde" />
    <linearGradient
       id="linearGradient3993"
       x1="300.29999"
       x2="300.29999"
       y1="63.365002"
       y2="36.063"
       gradientTransform="matrix(0.09285155,0,0,0.11340379,9.8818728,-2.7239032)"
       gradientUnits="userSpaceOnUse"
       xlink:href="#verde" />
    <linearGradient
       id="linearGradient4003"
       x1="300.29999"
       x2="300.29999"
       y1="63.365002"
       y2="36.063"
       gradientTransform="matrix(0,0.09285155,-0.11340379,0,47.844579,-19.674893)"
       gradientUnits="userSpaceOnUse"
       xlink:href="#verde" />
    <linearGradient
       id="linearGradient4007"
       x1="300.29999"
       x2="300.29999"
       y1="63.365002"
       y2="36.063"
       gradientTransform="matrix(0,0.09285155,-0.11340379,0,47.904584,-4.8537067)"
       gradientUnits="userSpaceOnUse"
       xlink:href="#verde" />
    <linearGradient
       id="linearGradient4011"
       x1="300.29999"
       x2="300.29999"
       y1="63.365002"
       y2="36.063"
       gradientTransform="matrix(0,0.09285155,-0.11340379,0,47.99031,9.9267608)"
       gradientUnits="userSpaceOnUse"
       xlink:href="#verde" />
    <linearGradient
       id="linearGradient4019"
       x1="300.29999"
       x2="300.29999"
       y1="63.365002"
       y2="36.063"
       gradientTransform="matrix(0,-0.09285155,0.11340379,0,-2.5223305,35.482089)"
       gradientUnits="userSpaceOnUse"
       xlink:href="#verde" />
    <linearGradient
       id="linearGradient4021"
       x1="300.29999"
       x2="300.29999"
       y1="63.365002"
       y2="36.063"
       gradientTransform="matrix(0,-0.09285155,0.11340379,0,-2.4366068,50.265128)"
       gradientUnits="userSpaceOnUse"
       xlink:href="#verde" />
    <linearGradient
       id="linearGradient4023"
       x1="300.29999"
       x2="300.29999"
       y1="63.365002"
       y2="36.063"
       gradientTransform="matrix(0,-0.09285155,0.11340379,0,-2.3757431,65.082461)"
       gradientUnits="userSpaceOnUse"
       xlink:href="#verde" />
    <linearGradient
       id="linearGradient4033"
       x1="300.29999"
       x2="300.29999"
       y1="63.365002"
       y2="36.063"
       gradientTransform="matrix(-0.09285155,0,0,-0.11340379,35.491383,48.134896)"
       gradientUnits="userSpaceOnUse"
       xlink:href="#verde" />
    <linearGradient
       id="linearGradient4035"
       x1="300.29999"
       x2="300.29999"
       y1="63.365002"
       y2="36.063"
       gradientTransform="matrix(-0.09285155,0,0,-0.11340379,50.312998,48.0406)"
       gradientUnits="userSpaceOnUse"
       xlink:href="#verde" />
    <linearGradient
       id="linearGradient4037"
       x1="300.29999"
       x2="300.29999"
       y1="63.365002"
       y2="36.063"
       gradientTransform="matrix(-0.17403621,0,0,-0.21255828,122.1494,89.811874)"
       gradientUnits="userSpaceOnUse"
       xlink:href="#verde" />
    <linearGradient
       id="linearGradient4039"
       x1="300.29999"
       x2="300.29999"
       y1="63.365002"
       y2="36.063"
       gradientTransform="matrix(-0.09285155,0,0,-0.11340379,65.122179,47.918186)"
       gradientUnits="userSpaceOnUse"
       xlink:href="#verde" />
    <linearGradient
       id="linearGradient4204"
       x1="0.0085663004"
       x2="1"
       y1="-0.016419001"
       gradientTransform="matrix(-5.3939535,42.798675,-42.798675,-5.3939535,-19.654824,42.712533)"
       gradientUnits="userSpaceOnUse"
       xlink:href="#linearGradient14470" />
    <linearGradient
       id="linearGradient4206"
       x2="1"
       gradientTransform="matrix(5.2203901,-10.993973,10.993973,5.2203901,-13.986578,73.631881)"
       gradientUnits="userSpaceOnUse"
       xlink:href="#linearGradient15228" />
  </defs>
  <path
     style="fill:#bcdba1;stroke-width:0.45777458"
     inkscape:connector-curvature="0"
     id="path62"
     d="M 3.1910017,3.3938212 H 42.948602 V 42.275586 H 3.1910017 Z" />
  <text
     id="text66"
     xml:space="preserve"
     style="font-size:18.90999985px;line-height:1.25;font-family:'Arial Rounded MT Bold';font-variant-ligatures:normal;font-variant-position:normal;font-variant-caps:normal;font-variant-numeric:normal;font-variant-alternates:normal;font-feature-settings:normal;text-indent:0;text-decoration:none;text-decoration-line:none;text-decoration-style:solid;text-decoration-color:#000000;letter-spacing:0px;word-spacing:0px;text-transform:none;text-orientation:mixed;dominant-baseline:auto;white-space:normal;shape-padding:0;fill:#4d4d4d;stroke-width:0.47275001"
     word-spacing="0px"
     letter-spacing="0px"
     font-size="18.91px"
     dominant-baseline="auto"
     y="111.32607"
     x="19.292406"><tspan
       style="stroke-width:0.47275001"
       id="tspan64"
       y="128.36694"
       x="19.292406" /></text>
  <path
     style="fill:#f7921e;stroke-width:0.14777027"
     inkscape:connector-curvature="0"
     id="path78"
     d="M 39.564435,42.597388" />
  <path
     inkscape:connector-curvature="0"
     style="fill:url(#linearGradient4011);stroke-width:0.42861813"
     id="path112"
     d="m 40.978115,29.738777 c 0,0 -0.662299,0.114364 -0.435303,0.493767 0.22634,0.37904 0.37135,0.733023 0.372289,1.555156 0,0.822132 0.0065,11.138499 0.0073,11.695274 3.42e-4,0.556218 -0.04812,0.910171 -0.176792,1.125594 -0.129117,0.214918 -0.09692,0.455107 0.355174,0.619482 0.451933,0.164285 1.994746,0.345651 2.776286,-0.09013 0.581162,-0.32448 0.01515,-0.480481 0.01515,-0.695518 0,-0.215291 -0.0078,-12.366062 -0.0078,-12.972556 -4.32e-4,-0.607053 -0.06534,-1.037599 0.112327,-1.189201 0.177544,-0.151954 0.193438,-0.631998 -0.339259,-0.593765 -0.532431,0.03802 -1.581776,0.342431 -2.679251,0.05194" />
  <path
     inkscape:connector-curvature="0"
     style="fill:url(#linearGradient4007);stroke-width:0.42861813"
     id="path114"
     d="m 40.888105,14.958738 c 0,0 -0.662299,0.114363 -0.435303,0.493768 0.22634,0.37904 0.37135,0.733022 0.372289,1.555155 0,0.822132 0.0065,11.138499 0.0073,11.695274 3.42e-4,0.556218 -0.04812,0.910171 -0.176792,1.125594 -0.129117,0.214918 -0.09692,0.455107 0.355174,0.619482 0.451933,0.164285 1.994746,0.34565 2.776287,-0.09013 0.581161,-0.324482 0.01515,-0.480481 0.01515,-0.695519 0,-0.215291 -0.0078,-12.366062 -0.0078,-12.972557 -4.32e-4,-0.607051 -0.06534,-1.037598 0.112327,-1.189201 0.177544,-0.151953 0.193438,-0.631997 -0.339259,-0.593764 -0.532431,0.03802 -1.581771,0.342431 -2.67925,0.05194" />
  <path
     inkscape:connector-curvature="0"
     style="fill:url(#linearGradient3993);stroke-width:0.42861813"
     id="path116"
     d="m 29.692603,4.2904325 c 0,0 0.114363,0.6623009 0.493767,0.4353048 0.37904,-0.2263405 0.733023,-0.3713508 1.555156,-0.3722893 0.822132,0 11.138497,-0.00651 11.695272,-0.00729 0.556214,-3.382e-4 0.910172,0.048145 1.125591,0.1767926 0.214922,0.1291168 0.455107,0.096923 0.619484,-0.3551702 0.164287,-0.451935 0.345651,-1.9947458 -0.09013,-2.7762886 -0.324481,-0.5811631 -0.480482,-0.015131 -0.695516,-0.015131 -0.215291,0 -12.36606,0.00784 -12.972554,0.00784 -0.607053,4.284e-4 -1.0376,0.065338 -1.189202,-0.1123279 -0.151954,-0.1775465 -0.631997,-0.1934397 -0.593765,0.33926 0.03802,0.5324291 0.342432,1.5817721 0.05194,2.6792491" />
  <path
     inkscape:connector-curvature="0"
     style="fill:url(#linearGradient8789);stroke-width:0.42861813"
     id="path166"
     d="m 14.885995,4.4235616 c 0,0 0.114364,0.6623009 0.493768,0.4353047 0.37904,-0.2263404 0.733022,-0.3713507 1.555155,-0.3722892 0.822132,0 11.138499,-0.00651 11.695274,-0.00729 0.556218,-3.382e-4 0.910171,0.048145 1.125594,0.1767921 0.214918,0.1291173 0.455107,0.096924 0.619482,-0.3551697 0.164285,-0.451935 0.345651,-1.9947464 -0.09013,-2.7762886 -0.324481,-0.58116316 -0.480481,-0.015131 -0.695519,-0.015131 -0.215291,0 -12.366062,0.00784 -12.972556,0.00784 -0.607052,4.284e-4 -1.037599,0.065338 -1.189201,-0.112328 -0.151954,-0.1775465 -0.631998,-0.1934396 -0.593765,0.3392596 0.03802,0.5324296 0.342431,1.5817726 0.05194,2.6792496" />
  <path
     inkscape:connector-curvature="0"
     style="fill:url(#linearGradient8768);stroke-width:0.42861813"
     id="path168"
     d="m 0.06052246,4.5045706 c 0,0 0.11436813,0.6623003 0.49376803,0.4353041 C 0.9333304,4.7135348 1.2873131,4.5685245 2.1094454,4.567586 c 0.8221329,0 11.1384996,-0.00651 11.6952746,-0.00729 0.556217,-3.388e-4 0.910171,0.048145 1.125594,0.176792 0.214917,0.1291168 0.455106,0.096924 0.619481,-0.3551702 0.164286,-0.4519345 0.345655,-1.9947458 -0.09013,-2.7762881 -0.324481,-0.5811632 -0.480481,-0.015131 -0.695519,-0.015131 -0.215286,0 -12.3660609,0.00784 -12.9725557,0.00784 C 1.1845435,1.5987725 0.75399657,1.6636825 0.60239434,1.486016 0.45044065,1.3084695 -0.02960312,1.2925766 0.00862962,1.8252756 0.04664815,2.3577053 0.35106124,3.4070482 0.06056125,4.5045247" />
  <path
     inkscape:connector-curvature="0"
     style="fill:url(#linearGradient4003);stroke-width:0.42861813"
     id="path170"
     d="m 40.8281,0.1375514 c 0,0 -0.662304,0.11436391 -0.435308,0.49376814 0.226345,0.37903986 0.37135,0.73302256 0.372289,1.55515536 0,0.8221324 0.0065,11.1384991 0.0073,11.6952741 3.42e-4,0.556217 -0.04812,0.910171 -0.176792,1.125594 -0.129116,0.214917 -0.09692,0.455106 0.355169,0.619482 0.451938,0.164285 1.994746,0.34565 2.776292,-0.09013 0.581162,-0.324481 0.01515,-0.480481 0.01515,-0.695519 0,-0.21529 -0.0078,-12.3660609 -0.0078,-12.9725557 -4.27e-4,-0.6070518 -0.06533,-1.03759874 0.112332,-1.18920097 0.177545,-0.15195372 0.193438,-0.63199746 -0.339259,-0.59376472 -0.53243,0.03801853 -1.581776,0.34243162 -2.67925,0.0519359" />
  <path
     inkscape:connector-curvature="0"
     style="fill:url(#linearGradient4019);stroke-width:0.42861813"
     id="path172"
     d="m 4.4920053,15.670501 c 0,0 0.6623009,-0.114364 0.4353047,-0.493768 -0.2263404,-0.37904 -0.3713508,-0.733022 -0.3722892,-1.555155 0,-0.822132 -0.00651,-11.1384991 -0.00729,-11.6952742 C 4.5473947,1.3700861 4.5958776,1.0161331 4.724525,0.80070965 4.8536423,0.58579195 4.8214487,0.34560288 4.3693553,0.18122785 3.9174202,0.01694281 2.3746094,-0.16442265 1.5930667,0.27135337 c -0.5811631,0.3244811 -0.015131,0.48048096 -0.015131,0.69551871 0,0.21529062 0.00784,12.36606192 0.00784,12.97255592 4.284e-4,0.607052 0.065338,1.037599 -0.1123281,1.189202 -0.1775464,0.151953 -0.1934394,0.631997 0.3392597,0.593764 0.5324296,-0.03802 1.5817726,-0.342431 2.6792496,-0.05194" />
  <path
     inkscape:connector-curvature="0"
     style="fill:url(#linearGradient4021);stroke-width:0.42861813"
     id="path174"
     d="m 4.5777289,30.450969 c 0,0 0.6623009,-0.114364 0.4353048,-0.493768 -0.2263405,-0.37904 -0.3713508,-0.733023 -0.3722893,-1.555155 0,-0.822133 -0.00651,-11.1385 -0.00729,-11.695274 -3.382e-4,-0.556218 0.048145,-0.910171 0.1767921,-1.125594 0.1291173,-0.214918 0.096924,-0.455107 -0.3551697,-0.619482 -0.451935,-0.164285 -1.9947458,-0.345651 -2.7762886,0.09013 -0.5811631,0.324481 -0.015131,0.480481 -0.015131,0.695519 0,0.215291 0.00784,12.366061 0.00784,12.972556 4.284e-4,0.607052 0.065338,1.037599 -0.112328,1.189201 -0.1775465,0.151954 -0.1934395,0.631998 0.3392596,0.593765 0.5324296,-0.03802 1.5817726,-0.342432 2.6792496,-0.05194" />
  <path
     inkscape:connector-curvature="0"
     style="fill:url(#linearGradient4023);stroke-width:0.42861813"
     id="path176"
     d="m 4.6385927,45.271727 c 0,0 0.6623009,-0.114364 0.4353048,-0.493768 -0.2263405,-0.37904 -0.3713508,-0.733023 -0.3722893,-1.555156 0,-0.822132 -0.00651,-11.138499 -0.00729,-11.695274 -3.382e-4,-0.556218 0.048145,-0.91017 0.1767921,-1.125594 0.1291173,-0.214918 0.096924,-0.455107 -0.3551697,-0.619482 -0.451935,-0.164285 -1.9947464,-0.34565 -2.7762886,0.09013 -0.5811632,0.324481 -0.015131,0.480481 -0.015131,0.695519 0,0.21529 0.00784,12.366061 0.00784,12.972556 4.284e-4,0.607052 0.065338,1.037599 -0.112328,1.189201 -0.1775465,0.151954 -0.1934395,0.631997 0.3392596,0.593765 0.5324296,-0.03802 1.5817726,-0.342432 2.6792496,-0.05194" />
  <path
     inkscape:connector-curvature="0"
     style="fill:url(#linearGradient4033);stroke-width:0.42861813"
     id="path224"
     d="m 15.676795,41.118417 c 0,0 -0.114364,-0.6623 -0.493768,-0.435304 -0.37904,0.22634 -0.733023,0.37135 -1.555155,0.372288 -0.822133,0 -11.138499,0.0065 -11.6952741,0.0073 -0.5562177,3.39e-4 -0.9101707,-0.04814 -1.12559413,-0.176792 -0.2149177,-0.129117 -0.45510672,-0.09692 -0.61948175,0.35517 -0.16428509,0.451935 -0.34565056,1.994746 0.0901255,2.776288 0.32448106,0.581164 0.48048086,0.01513 0.69551861,0.01513 0.21529057,0 12.36606087,-0.0078 12.97255587,-0.0078 0.607052,-4.28e-4 1.037599,-0.06534 1.189201,0.112328 0.151954,0.177547 0.631998,0.19344 0.593765,-0.339259 -0.03802,-0.53243 -0.342432,-1.581773 -0.05193,-2.679249" />
  <path
     inkscape:connector-curvature="0"
     style="fill:url(#linearGradient4035);stroke-width:0.42861813"
     id="path226"
     d="m 30.502268,41.028407 c 0,0 -0.114364,-0.6623 -0.493768,-0.435304 -0.37904,0.22634 -0.733023,0.37135 -1.555156,0.372289 -0.822132,0 -11.138499,0.0065 -11.695274,0.0073 -0.556218,3.39e-4 -0.910171,-0.04814 -1.125594,-0.176792 -0.214918,-0.129117 -0.455107,-0.09692 -0.619482,0.35517 -0.164285,0.451935 -0.34565,1.994746 0.09013,2.776288 0.324481,0.581163 0.480481,0.01513 0.695518,0.01513 0.215291,0 12.366062,-0.0078 12.972557,-0.0078 0.607052,-4.29e-4 1.037598,-0.06534 1.189201,0.112328 0.151953,0.177546 0.631997,0.193439 0.593764,-0.33926 -0.03802,-0.53243 -0.342431,-1.581773 -0.05194,-2.679249" />
  <path
     inkscape:connector-curvature="0"
     style="fill:url(#linearGradient4039);stroke-width:0.42861813"
     id="path230"
     d="m 45.311443,40.905993 c 0,0 -0.114365,-0.662301 -0.493766,-0.435304 -0.379038,0.22634 -0.733022,0.37135 -1.555158,0.372289 -0.822131,0 -11.138495,0.0065 -11.695269,0.0073 -0.556218,3.38e-4 -0.910171,-0.04814 -1.125595,-0.176792 -0.214917,-0.129118 -0.455106,-0.09692 -0.619482,0.355169 -0.164284,0.451935 -0.345654,1.994747 0.09013,2.776289 0.324481,0.581163 0.480481,0.01513 0.695519,0.01513 0.215286,0 12.366057,-0.0078 12.972555,-0.0078 0.607048,-4.29e-4 1.037598,-0.06534 1.189197,0.112328 0.151957,0.177546 0.632001,0.193439 0.593769,-0.33926 -0.03804,-0.532429 -0.342434,-1.581772 -0.05191,-2.679249" />
  <path
     style="fill:#c59726;stroke-width:0.42861813"
     inkscape:connector-curvature="0"
     id="path234"
     d="m 4.8140611,1.0251523 c -0.038579,0.00123 -0.07767,0.010469 -0.1148062,0.027989 -0.6398985,0.3113103 -1.1847196,0.706933 -1.703146,1.1913086 l -0.00245,-1.12e-4 C 2.456249,2.7608388 1.9954634,3.3075406 1.5718102,3.9296595 1.3626976,4.2386932 1.2445473,4.4485442 1.2287417,4.4773392 c -0.06882,0.125252 -0.039289,0.2776292 0.062,0.3693571 l -0.00112,1.76e-4 c 8.003e-4,4.658e-4 0.00299,0.00187 0.00384,0.00277 0.00117,9.07e-4 0.00197,0.00224 0.0032,0.00315 l 0.00112,-1.756e-4 C 1.4495598,4.9781723 1.6536232,4.9354481 1.7362999,4.7906912 1.9404582,4.4800271 2.1136533,4.1892334 2.3092908,3.923857 2.5123362,3.65084 2.7885873,3.3121849 3.0867745,2.9980913 3.5578757,2.4846864 4.0709466,2.1124382 4.6630823,1.7442011 4.7710707,1.6825226 4.851855,1.6425861 4.9487452,1.5974323 5.0978092,1.5264642 5.1629086,1.3485496 5.0938825,1.1981025 5.042366,1.0857358 4.929761,1.0210182 4.8140094,1.0251848 Z" />
  <path
     style="fill:#9f5a1b;stroke-width:0.42861813"
     inkscape:connector-curvature="0"
     id="path236"
     d="M 5.0281546,1.1002728 C 5.0487058,1.2297254 4.9830563,1.3623779 4.8595756,1.4209225 4.4721184,1.6046134 4.0981854,1.8497065 3.7537101,2.1243058 3.4914302,2.3390513 3.2161405,2.5938587 2.9819424,2.8383735 2.7215432,3.1136312 2.4659259,3.4489198 2.2242997,3.7422222 1.9515575,4.0733195 1.8188912,4.4905513 1.5120823,4.7193363 1.4399372,4.7488506 1.3827649,4.7469619 1.278295,4.721257 1.3363765,4.8450029 1.405736,4.8607977 1.5455291,4.8845121 1.7301014,4.8696322 1.7969209,4.7133412 1.8418912,4.6403542 1.8840391,4.5719497 2.2281863,4.0524792 2.3531588,3.8816476 2.5762928,3.5819751 2.8698811,3.2379234 3.1134035,2.9781324 3.3373826,2.7439834 3.6427804,2.4673561 3.8790261,2.2717634 4.2402758,1.9985214 4.5946057,1.7547221 4.9829619,1.5711666 5.051717,1.5386647 5.103034,1.4822253 5.1271383,1.4103716 5.1592775,1.2702355 5.1157424,1.1721794 5.0280517,1.1002888 Z" />
  <path
     style="fill:#e0c97e;stroke-width:0.42861813"
     inkscape:connector-curvature="0"
     id="path238"
     d="M 4.6417256,1.0967398 C 3.7753789,1.5069384 2.9686909,2.2873267 2.3910733,2.9518577 2.0684045,3.3283521 1.7533404,3.7250178 1.5121351,4.0596593 1.4352882,4.1748758 1.2667593,4.4154596 1.264249,4.4850849 1.2634488,4.5078339 1.278478,4.5338699 1.31122,4.5486599 1.390417,4.5844269 1.441565,4.5036839 1.4538002,4.4855729 1.5063411,4.407793 1.7056407,4.1242849 1.9329495,3.827511 2.1201777,3.5830869 2.4050269,3.2376049 2.6697663,2.9418008 2.9141488,2.6687823 3.185587,2.4019558 3.4198352,2.1881648 3.8272524,1.833972 4.2564787,1.5012282 4.7145402,1.2881308 c 0.048673,-0.022653 0.075378,-0.084482 0.051276,-0.1366759 -0.030818,-0.066739 -0.086592,-0.07245 -0.1241007,-0.05469 z" />
  <path
     style="fill:#8d7129;stroke-width:0.42861813"
     inkscape:connector-curvature="0"
     id="path240"
     d="M 4.8429415,0.97546023 C 4.7909608,0.97296337 4.7385336,0.98375965 4.6912105,1.005961 4.3810393,1.1514301 4.0707609,1.3347896 3.7680089,1.5509836 l -0.050674,0.036466 0.00133,2.876e-4 C 3.464367,1.7730628 3.2121407,1.982932 2.9666219,2.2151368 c -0.00235,0.00203 -0.0048,0.00427 -0.00718,0.00654 l -0.046309,0.042884 0.00224,1.024e-4 C 2.6824654,2.4881482 2.4523802,2.7331736 2.230643,2.9960227 c -0.00235,0.00288 -0.00469,0.00536 -0.00702,0.00809 l -0.037784,0.045493 0.00133,6.08e-5 C 1.9613198,3.3212035 1.7477097,3.6041625 1.553264,3.8910898 l -0.028298,0.041721 9.07e-4,4.11e-5 C 1.3326301,4.2228338 1.2217667,4.4189019 1.2099148,4.4405414 1.1426499,4.5620028 1.1595389,4.7103081 1.2458558,4.812471 l -0.00627,0.00144 0.039934,0.033324 c 8.536e-4,9.07e-4 0.00165,0.00181 0.00256,0.00267 l 0.00876,0.00727 0.00155,-3.574e-4 c 0.013647,0.010836 0.0269,0.020711 0.040601,0.028463 0.042388,0.023267 0.090033,0.037597 0.1382869,0.040281 l 0.00886,1.83e-4 c 0.1174702,0.00283 0.2257349,-0.058717 0.2837727,-0.1587964 l 0.00117,-1.74e-4 0.00578,-0.00994 C 1.7784924,4.7413834 1.9737122,4.394869 2.326042,3.920881 l 0.00687,-0.00968 C 2.5692512,3.5926849 2.8204589,3.2927381 3.0807456,3.0173252 l 4.705e-4,2.13e-5 0.00632,-0.00747 C 3.3346076,2.7504021 3.5911409,2.5128455 3.8498323,2.304037 l 6.936e-4,3.15e-5 0.00671,-0.00613 C 4.1161578,2.0900033 4.3824967,1.9096014 4.646622,1.7600818 l 2.262e-4,1.07e-5 0.0073,-0.00453 C 4.763947,1.6949013 4.8629275,1.6427082 4.9591614,1.5979279 5.0395349,1.5602935 5.0996278,1.491755 5.1291201,1.4068301 5.1564523,1.3263462 5.1521148,1.2401701 5.1167745,1.1634716 5.0665971,1.0547663 4.9616988,0.98271305 4.8431222,0.97576594 Z m -0.00261,0.0524273 c 0.1015969,0.00595 0.1907878,0.066204 0.2330905,0.1583598 0.029413,0.064014 0.033084,0.1357683 0.010441,0.2026944 C 5.059753,1.4607907 5.008621,1.5176232 4.9396865,1.549732 4.8455415,1.594158 4.7472539,1.645456 4.6394383,1.7051433 L 3.8450047,1.5589634 C 4.1297478,1.3593512 4.4201057,1.189808 4.7096318,1.0533895 c 0.040862,-0.019322 0.086189,-0.027842 0.1306576,-0.025503 z m -1.054184,0.5727421 0.3210159,0.059063 0.4616958,0.085693 C 4.3232523,1.8882708 4.0768783,2.0572474 3.8357273,2.2503368 L 3.0356699,2.2179469 C 3.2809998,1.9895823 3.533042,1.7819486 3.7861368,1.6006867 Z M 3.7744527,2.3005478 C 3.5327112,2.4991362 3.2928375,2.7222937 3.0612692,2.965599 L 2.2977043,2.9935607 C 2.5205422,2.7322636 2.7504941,2.4883693 2.9830906,2.2675513 L 3.1298242,2.27342 Z M 3.0106414,3.019829 C 2.7648943,3.281809 2.5273062,3.5670414 2.3034535,3.8685386 l -0.511442,0.00826 -0.1712904,0.00256 c 0.1938705,-0.2835512 0.40615,-0.563967 0.6317211,-0.832004 z M 2.2637816,3.9215116 C 1.9537092,4.3428424 1.771575,4.6565929 1.7363271,4.718822 L 1.3034872,4.8016396 C 1.2126191,4.7167653 1.1895342,4.577916 1.250082,4.4672637 1.2626624,4.4440717 1.3780486,4.2387135 1.5850479,3.9318699 Z M 1.6944821,4.7798907 c -0.052946,0.061148 -0.130481,0.095389 -0.2131556,0.093551 l -0.00756,5.112e-4 c -0.03876,-0.00176 -0.076453,-0.012687 -0.1112562,-0.03016 l 0.1315438,-0.02546 z" />
  <path
     style="fill:#c59726;stroke-width:0.42861903"
     inkscape:connector-curvature="0"
     id="path244"
     d="m 1.5125886,1.119699 c 0.038552,0.00187 0.077487,0.011743 0.1143314,0.02987 0.6347025,0.3217757 1.1729555,0.726291 1.6833604,1.2191138 l 0.00245,-7.15e-5 c 0.528854,0.5252555 0.9806023,1.0794505 1.3939858,1.7084422 0.2040105,0.3124263 0.3187,0.5241889 0.3340306,0.5532395 0.066754,0.1263655 0.034727,0.278238 -0.068057,0.3682906 l 0.00112,1.942e-4 c -8.003e-4,4.524e-4 -0.00304,0.00181 -0.00389,0.00267 -0.00117,9.07e-4 -0.00203,0.00219 -0.00325,0.00309 l -0.00112,-1.942e-4 C 4.8117024,5.1274134 4.6083678,5.0813452 4.5280792,4.9352497 4.3290485,4.6212745 4.1606503,4.3276761 3.9693962,4.0591231 3.77086,3.782808 3.5002055,3.4396627 3.2072153,3.1207152 2.7446056,2.5996431 2.2377145,2.2190203 1.6517036,1.8411105 1.5447422,1.7776671 1.4646242,1.7364096 1.3684884,1.6896712 1.2206091,1.6162649 1.1584397,1.4373047 1.2299263,1.2880112 1.2832834,1.1765052 1.3969335,1.113645 1.5126019,1.1197114 Z" />
  <path
     style="fill:#9f5a1b;stroke-width:0.42861903"
     inkscape:connector-curvature="0"
     id="path246"
     d="m 1.2972904,1.1912944 c -0.022675,0.1290982 0.040787,0.2628113 0.1632913,0.3233747 0.38439,0.1900281 0.7542496,0.4412284 1.0941703,0.7214467 0.2587197,0.2190233 0.5297892,0.478317 0.7599417,0.7266443 0.2558451,0.2794965 0.5059239,0.6189381 0.7427026,0.9161687 0.2672699,0.3355309 0.3930682,0.7548856 0.69608,0.9886782 0.071651,0.030699 0.1288469,0.029744 0.2337255,0.00574 C 4.9270961,4.9961188 4.8574863,5.0107724 4.7173225,5.0321879 4.533019,5.014283 4.4687743,4.8569126 4.4250082,4.7831974 4.3839913,4.7141094 4.0484167,4.1890573 3.9262654,4.0161967 3.7080809,3.7129005 3.4201804,3.3640744 3.1809555,3.1003193 2.9608508,2.8625237 2.6600349,2.5809193 2.4270324,2.3814735 2.0703171,2.1023366 1.7200366,1.8527518 1.3347461,1.6628448 1.266533,1.6292172 1.2161497,1.5719439 1.1932283,1.4997039 1.1633939,1.3590588 1.2085365,1.2617307 1.2973928,1.1912892 Z" />
  <path
     style="fill:#e0c97e;stroke-width:0.42861903"
     inkscape:connector-curvature="0"
     id="path248"
     d="M 1.6837253,1.1941065 C 2.5432226,1.6184748 3.336991,2.4120046 3.9036208,3.0859303 4.2200656,3.467673 4.5285753,3.8694589 4.764254,4.2080159 c 0.074945,0.1164633 0.2395018,0.3597819 0.2408686,0.4294397 4.423e-4,0.022755 -0.015029,0.048545 -0.048011,0.062795 -0.079773,0.034465 -0.1295895,-0.04711 -0.1415254,-0.06542 C 4.7643308,4.5561986 4.5697102,4.2694559 4.3473039,3.9689894 4.1641139,3.7215238 3.8849748,3.3714108 3.6251273,3.0712991 3.38526,2.7943048 3.1182383,2.5230571 2.887531,2.3054482 2.485983,1.9446131 2.0622776,1.6048663 1.6077758,1.3842761 1.5594817,1.360828 1.5337949,1.2985685 1.5587508,1.2467767 c 0.03191,-0.066224 0.087772,-0.071018 0.1249836,-0.052644 z" />
  <path
     style="fill:#8d7129;stroke-width:0.42861903"
     inkscape:connector-curvature="0"
     id="path250"
     d="m 1.4845277,1.0695393 c 0.052018,-0.00164 0.104258,0.010013 0.1512103,0.032988 0.3077415,0.1505422 0.6149682,0.3389719 0.9141302,0.5601079 l 0.050065,0.037293 -0.00133,2.662e-4 c 0.2512254,0.1894759 0.4999725,0.4034585 0.7416463,0.6396637 0.00235,0.00208 0.00475,0.00437 0.00707,0.00665 l 0.0456,0.043642 -0.00224,6.56e-5 c 0.2292075,0.2272794 0.4552391,0.4760501 0.6726314,0.7425052 0.00229,0.00293 0.00464,0.00544 0.00689,0.0082 l 0.037032,0.046112 -0.00133,3.95e-5 c 0.2213675,0.2752145 0.4303041,0.561643 0.6200131,0.851725 l 0.02761,0.04218 -9.07e-4,2.61e-5 c 0.1884558,0.2931162 0.2960857,0.490979 0.3075809,0.5128101 0.065262,0.1225497 0.045941,0.2705579 -0.042041,0.3712899 l 0.00625,0.00155 -0.040473,0.032662 c -8.536e-4,9.07e-4 -0.00165,0.00176 -0.00256,0.00267 l -0.00888,0.00712 -0.00155,-3.831e-4 c -0.013823,0.010612 -0.027236,0.020268 -0.041065,0.027791 -0.042767,0.022568 -0.090638,0.036114 -0.1389298,0.038003 l -0.00886,3.79e-5 C 4.6645831,5.075461 4.5573432,5.0121382 4.5009562,4.9111192 l -0.00117,-1.926e-4 -0.00562,-0.010041 C 4.4867859,4.885323 4.2972796,4.5356485 3.9527786,4.0559391 l -0.00671,-0.0098 C 3.7149894,3.7237934 3.4687397,3.4197614 3.2130104,3.1401118 l -4.717e-4,1.39e-5 -0.0062,-0.00758 C 2.9635627,2.8690529 2.7109635,2.6273157 2.4557347,2.4142876 l -6.936e-4,1.97e-5 -0.0066,-0.00624 C 2.192964,2.1959115 1.9296224,2.011161 1.6679871,1.8573246 l -2.268e-4,7e-6 -0.00723,-0.00469 C 1.5517467,1.7901856 1.4536359,1.7363744 1.3581504,1.6900196 1.2784049,1.6510727 1.2194455,1.5815547 1.1913517,1.4961571 1.1653448,1.4152346 1.1710977,1.3291418 1.2076918,1.2530332 1.2596469,1.1451663 1.3657147,1.0748449 1.4843895,1.0698455 Z m 0.00176,0.052464 c -0.1016812,0.00428 -0.1918496,0.063063 -0.2356594,0.1545121 -0.03046,0.063522 -0.035307,0.1352064 -0.013765,0.2024959 0.022925,0.072235 0.073119,0.1299 0.1415174,0.1631361 0.093403,0.045963 0.1908353,0.098871 0.2976564,0.1603202 L 2.4727438,1.6693495 C 2.1913159,1.4650887 1.9037799,1.290801 1.6165324,1.1496469 1.5759957,1.129656 1.530812,1.1203936 1.4863107,1.1220021 Z m 1.0446362,0.5899742 -0.3219427,0.053785 -0.4630418,0.0781 c 0.243229,0.1468988 0.4867963,0.3198986 0.724745,0.5169217 L 3.2711676,2.3415348 C 3.0296198,2.109172 2.7810193,1.8974281 2.5309346,1.7120352 Z m 2.012e-4,0.7000165 c 0.2384492,0.2025316 0.4746272,0.4295976 0.7021696,0.6766728 l 0.7630047,0.040494 C 3.7777904,2.8642384 3.5518736,2.616601 3.3229333,2.391994 L 3.1761224,2.395464 Z M 3.2830256,3.1437205 C 3.524439,3.4097009 3.7573124,3.6987964 3.9761852,4.003929 L 4.487424,4.020585 4.6586493,4.025965 C 4.4694604,3.7392723 4.2618129,3.4554085 4.0406726,3.1837035 Z m 0.7319565,0.9138261 c 0.3031132,0.426365 0.4800723,0.7430649 0.5142937,0.8058643 l 0.4314229,0.089913 C 5.0529483,4.8699529 5.0783096,4.7315011 5.0195869,4.6198692 5.0073906,4.5964691 4.8953896,4.3892484 4.6934555,4.0790463 Z M 4.570113,4.9251587 c 0.051933,0.062009 0.1288975,0.097519 0.2115913,0.097038 l 0.00755,6.402e-4 c 0.038781,-0.00112 0.076652,-0.011433 0.1117369,-0.02833 l -0.131109,-0.02762 z" />
  <path
     style="fill:#c59726;stroke-width:0.42861813"
     inkscape:connector-curvature="0"
     id="path254"
     d="m 43.868292,0.86546087 c -0.03857,0.001232 -0.07767,0.0104692 -0.114808,0.0279889 C 43.113587,1.2047604 42.568769,1.6003829 42.050338,2.0847586 l -0.0027,-1.121e-4 c -0.537407,0.5165009 -0.998191,1.0632027 -1.421843,1.6853216 -0.209112,0.3090337 -0.327265,0.5188847 -0.343068,0.5476798 -0.06882,0.125252 -0.03927,0.2776291 0.062,0.369357 l -0.0011,1.76e-4 c 5.34e-4,4.658e-4 0.0032,0.00187 0.0037,0.00277 0.0011,9.07e-4 0.0021,0.00224 0.0032,0.00315 l 0.0011,-1.755e-4 c 0.151775,0.1255534 0.355841,0.082829 0.438515,-0.061928 0.204161,-0.3106641 0.377358,-0.6014578 0.572993,-0.8668342 0.203047,-0.2730169 0.479298,-0.6116721 0.777486,-0.9257657 0.471097,-0.5134049 0.984171,-0.885653 1.576308,-1.2538902 0.107984,-0.061678 0.188769,-0.101615 0.285661,-0.1467688 0.149066,-0.070968 0.21416,-0.2488829 0.145139,-0.3993297 -0.05154,-0.11236679 -0.164121,-0.17708435 -0.279873,-0.17291778 z" />
  <path
     style="fill:#9f5a1b;stroke-width:0.42861813"
     inkscape:connector-curvature="0"
     id="path256"
     d="m 44.082387,0.94058141 c 0.02054,0.12945249 -0.04508,0.26210529 -0.168581,0.32064949 -0.387457,0.1836911 -0.761389,0.4287842 -1.105866,0.7033836 -0.262278,0.2147454 -0.537568,0.4695528 -0.771767,0.7140676 -0.2604,0.2752577 -0.516014,0.6105463 -0.757644,0.9038487 -0.27274,0.3310973 -0.405405,0.7483291 -0.712216,0.9771141 -0.07215,0.029514 -0.129319,0.027626 -0.233787,0.00192 0.05808,0.1237459 0.127441,0.1395407 0.267234,0.1632551 0.184571,-0.01488 0.251394,-0.1711709 0.296364,-0.2441579 0.04215,-0.068404 0.386294,-0.587875 0.511265,-0.7587065 0.223134,-0.2996719 0.516724,-0.6437236 0.760248,-0.9035146 0.223977,-0.234149 0.529374,-0.5107763 0.765621,-0.706369 0.361251,-0.273242 0.715576,-0.5170413 1.103935,-0.7005968 0.06876,-0.032502 0.120074,-0.088941 0.144178,-0.1607949 0.03212,-0.1401362 -0.01142,-0.2381923 -0.09909,-0.31008284 z" />
  <path
     style="fill:#e0c97e;stroke-width:0.42861813"
     inkscape:connector-curvature="0"
     id="path258"
     d="M 43.695955,0.93704845 C 42.829611,1.3472471 42.02292,2.1276353 41.445307,2.7921663 c -0.322672,0.3764944 -0.637736,0.7731601 -0.87894,1.1078016 -0.07685,0.1152165 -0.245376,0.3558003 -0.247889,0.4254256 -0.0011,0.022749 0.01425,0.048785 0.047,0.063575 0.0792,0.035767 0.130344,-0.044976 0.142578,-0.063087 0.05255,-0.07778 0.251842,-0.3612875 0.479153,-0.6580615 0.187227,-0.2444241 0.472073,-0.5899061 0.736815,-0.8857102 0.244384,-0.2730185 0.515822,-0.539845 0.750069,-0.753636 0.407416,-0.3541928 0.836642,-0.6869366 1.294705,-0.9000342 0.04866,-0.022654 0.07538,-0.084481 0.05127,-0.13667571 -0.03084,-0.0667387 -0.08659,-0.0724497 -0.124101,-0.0546898 z" />
  <path
     style="fill:#8d7129;stroke-width:0.42861813"
     inkscape:connector-curvature="0"
     id="path260"
     d="m 43.897171,0.81576885 c -0.05197,-0.002497 -0.104404,0.008299 -0.151727,0.0305007 -0.310172,0.14546917 -0.62045,0.32882875 -0.923206,0.54502265 l -0.05068,0.036466 0.0011,2.876e-4 c -0.254302,0.1853256 -0.506528,0.3951948 -0.752048,0.6273996 -0.0021,0.00203 -0.0048,0.00427 -0.0072,0.00654 l -0.04631,0.042884 0.0021,1.024e-4 c -0.232913,0.2234851 -0.462993,0.4685104 -0.684734,0.7313595 -0.0021,0.00288 -0.0048,0.00536 -0.007,0.00809 l -0.03777,0.045493 0.0011,6.08e-5 c -0.22586,0.2715428 -0.43947,0.5545018 -0.633916,0.8414292 l -0.02828,0.041721 0.0011,4.11e-5 c -0.19324,0.2899817 -0.304105,0.4860498 -0.315955,0.5076893 -0.06727,0.1214614 -0.05036,0.2697667 0.03596,0.3719297 l -0.0063,0.00144 0.03991,0.033323 c 0.0011,9.07e-4 0.0016,0.00181 0.0027,0.00267 l 0.0087,0.00727 0.0016,-3.574e-4 c 0.01366,0.010836 0.02689,0.020711 0.0406,0.028463 0.04242,0.023267 0.09003,0.037597 0.138288,0.040281 l 0.0089,1.829e-4 c 0.11747,0.00283 0.225732,-0.058717 0.283773,-0.1587964 l 0.0011,-1.739e-4 0.0058,-0.00994 c 0.0076,-0.01544 0.202855,-0.3619545 0.555185,-0.8359425 l 0.0069,-0.00968 c 0.236338,-0.3185127 0.487545,-0.6184595 0.747833,-0.8938724 l 4.69e-4,2.13e-5 0.0063,-0.00747 c 0.247072,-0.2594698 0.503604,-0.4970264 0.762296,-0.7058349 l 5.34e-4,3.15e-5 0.0067,-0.00613 C 43.169708,1.9303119 43.436051,1.74991 43.700175,1.6003904 l 2.24e-4,1.07e-5 0.0073,-0.00453 c 0.109793,-0.060656 0.208777,-0.1128493 0.305007,-0.1576297 0.08037,-0.037634 0.140465,-0.1061728 0.169958,-0.1910975 0.02732,-0.080484 0.02299,-0.1666601 -0.01232,-0.2433588 -0.0502,-0.10870531 -0.155073,-0.18075854 -0.273653,-0.18770564 z m -0.0027,0.0524273 c 0.101597,0.005946 0.190786,0.0662043 0.233094,0.15835975 0.0294,0.064014 0.03308,0.135768 0.01046,0.2026943 -0.02412,0.071849 -0.07524,0.1286816 -0.144178,0.1607904 -0.09414,0.044426 -0.19243,0.095724 -0.300243,0.1554113 L 42.899219,1.3992721 c 0.284745,-0.1996125 0.575101,-0.3691556 0.864626,-0.50557406 0.04087,-0.0193224 0.08619,-0.0278422 0.130659,-0.0255027 z m -1.05418,0.57274215 0.321018,0.059063 0.461697,0.085693 C 43.377428,1.7285794 43.131055,1.897556 42.889904,2.0906454 l -0.800059,-0.03239 c 0.245333,-0.2283646 0.497373,-0.4359983 0.750469,-0.6172602 z m -0.01168,0.6999181 c -0.241713,0.1985884 -0.481583,0.4217459 -0.713152,0.6650512 l -0.763566,0.027962 c 0.22284,-0.2612971 0.452792,-0.5051914 0.685384,-0.7260094 l 0.146734,0.00587 z m -0.763812,0.7192812 c -0.245744,0.26198 -0.48333,0.5472124 -0.707184,0.8487096 l -0.511441,0.00826 -0.171292,0.00256 C 40.868752,3.436116 41.081029,3.1557002 41.3066,2.8876632 Z M 41.317972,3.7618202 C 41.007896,4.183151 40.825764,4.4969015 40.790514,4.5591306 l -0.432838,0.082818 C 40.266806,4.5570746 40.243722,4.418225 40.304276,4.3075728 40.316866,4.2843808 40.43224,4.0790225 40.63924,3.7721789 Z M 40.74867,4.6201993 c -0.05293,0.061148 -0.130482,0.095389 -0.213157,0.093551 l -0.0076,5.111e-4 c -0.03879,-0.00176 -0.07645,-0.012687 -0.111255,-0.03016 l 0.131544,-0.025459 z" />
  <path
     style="fill:#c59726;stroke-width:0.42861903"
     inkscape:connector-curvature="0"
     id="path264"
     d="m 40.568047,0.95999588 c 0.03857,0.001867 0.07749,0.0117433 0.114333,0.0298701 0.634706,0.32177562 1.172957,0.72629102 1.683364,1.21911382 l 0.0027,-7.15e-5 c 0.528856,0.5252554 0.980607,1.0794505 1.393988,1.7084422 0.204012,0.3124263 0.318697,0.5241889 0.334031,0.5532395 0.06675,0.1263655 0.03473,0.2782379 -0.06806,0.3682905 l 0.0011,1.942e-4 c -0.0011,4.525e-4 -0.0032,0.00181 -0.0037,0.00267 -0.0011,9.07e-4 -0.0021,0.00219 -0.0032,0.00309 l -0.0011,-1.942e-4 C 43.867625,4.9676874 43.66429,4.9216191 43.584001,4.7755236 43.384967,4.4615485 43.216572,4.16795 43.025316,3.8993971 42.826778,3.6230819 42.556124,3.2799367 42.263137,2.9609891 41.800529,2.4399171 41.293633,2.0592943 40.707621,1.6813844 40.600661,1.617941 40.520543,1.5766835 40.424408,1.5299452 40.276528,1.4565389 40.214362,1.2775788 40.285848,1.1282851 40.339205,1.0167792 40.452855,0.95391894 40.568522,0.95998537 Z" />
  <path
     style="fill:#9f5a1b;stroke-width:0.42861903"
     inkscape:connector-curvature="0"
     id="path266"
     d="m 40.352751,1.0315913 c -0.02267,0.129098 0.04076,0.262811 0.163294,0.3233747 0.38439,0.1900281 0.754246,0.4412284 1.094167,0.7214467 0.258719,0.2190233 0.529789,0.478317 0.759944,0.7266443 0.255843,0.2794965 0.505925,0.6189381 0.7427,0.9161687 0.267272,0.3355309 0.39307,0.7548855 0.696082,0.9886782 0.07165,0.030699 0.128845,0.029744 0.233724,0.00574 C 43.982552,4.8364204 43.912947,4.851074 43.772781,4.8724894 43.588483,4.8545798 43.524236,4.6972095 43.480472,4.6234943 43.439444,4.5544063 43.103877,4.0293542 42.981728,3.8564936 42.76354,3.5531974 42.475643,3.2043712 42.236419,2.9406162 42.01631,2.7028206 41.715496,2.4212162 41.482493,2.2217704 41.125777,1.9426335 40.775501,1.6930487 40.39021,1.5031417 40.321994,1.469514 40.271614,1.4122408 40.248689,1.3400008 40.218865,1.1993557 40.264001,1.1020275 40.352853,1.0315861 Z" />
  <path
     style="fill:#e0c97e;stroke-width:0.42861903"
     inkscape:connector-curvature="0"
     id="path268"
     d="m 40.73919,1.0344034 c 0.859493,0.4243682 1.653261,1.2178981 2.21989,1.8918238 0.316446,0.3817427 0.624958,0.7835286 0.860635,1.1220855 0.07494,0.1164634 0.239502,0.359782 0.240868,0.4294398 4.42e-4,0.022755 -0.01505,0.048545 -0.04802,0.062795 -0.07977,0.034465 -0.129586,-0.04711 -0.141521,-0.06542 C 43.819774,4.3964955 43.625167,4.1097527 43.40276,3.8092863 43.219571,3.5618207 42.940434,3.2117077 42.680583,2.911596 42.440719,2.6346017 42.173693,2.3633539 41.942989,2.1457451 41.541441,1.7849099 41.117737,1.4451632 40.663232,1.2245733 c -0.04828,-0.02345 -0.07398,-0.085708 -0.04903,-0.1374995 0.03191,-0.066224 0.08778,-0.071018 0.124982,-0.052645 z" />
  <path
     style="fill:#8d7129;stroke-width:0.42861903"
     inkscape:connector-curvature="0"
     id="path270"
     d="m 40.53999,0.90983623 c 0.05202,-0.001643 0.104255,0.0100125 0.15121,0.032988 0.307744,0.15054247 0.61497,0.33897197 0.91413,0.56010777 l 0.05004,0.037293 -0.0011,2.662e-4 c 0.251229,0.1894759 0.499976,0.4034585 0.74165,0.6396637 0.0021,0.00208 0.0048,0.00437 0.007,0.00665 l 0.04562,0.043642 -0.0021,6.56e-5 c 0.22921,0.2272794 0.455241,0.4760501 0.672633,0.7425052 0.0021,0.00293 0.0048,0.00544 0.0069,0.0082 l 0.03703,0.046112 -0.0011,3.95e-5 c 0.221367,0.2752145 0.430304,0.561643 0.620012,0.851725 l 0.02758,0.04218 -0.0011,2.61e-5 c 0.18846,0.2931162 0.296087,0.490979 0.307584,0.51281 0.06526,0.1225498 0.04594,0.270558 -0.04204,0.37129 l 0.0062,0.00155 -0.04049,0.032662 c -0.0011,9.07e-4 -0.0016,0.00176 -0.0027,0.00267 l -0.0089,0.00712 -0.0016,-3.831e-4 c -0.01382,0.010612 -0.02726,0.020268 -0.04108,0.027791 -0.04279,0.022568 -0.09064,0.036114 -0.138934,0.038002 l -0.0089,3.79e-5 C 43.720278,4.9157579 43.613041,4.8524351 43.556653,4.751416 l -0.0011,-1.926e-4 -0.0056,-0.010041 C 43.542653,4.7256204 43.3531,4.3759454 43.008601,3.896236 l -0.0067,-0.0098 c -0.2311,-0.3223458 -0.47735,-0.6263777 -0.733082,-0.9060273 l -4.69e-4,1.39e-5 -0.0062,-0.00758 C 42.019383,2.7093498 41.766784,2.4676125 41.511554,2.2545844 l -5.34e-4,1.98e-5 -0.0066,-0.00624 C 41.248929,2.0362084 40.985584,1.8514578 40.723952,1.6976215 l -2.29e-4,6.9e-6 -0.0073,-0.00469 C 40.607683,1.6304825 40.509574,1.5766712 40.414085,1.5303165 40.33434,1.4913696 40.27538,1.4218516 40.247291,1.336454 40.221251,1.255531 40.227021,1.1694386 40.263621,1.0933302 40.315591,0.98546317 40.421644,0.91514175 40.54032,0.91014241 Z m 0.0016,0.0524635 c -0.101683,0.004279 -0.191853,0.063063 -0.23566,0.15451177 -0.03046,0.063523 -0.03532,0.1352069 -0.01376,0.2024963 0.02294,0.072235 0.07312,0.1299 0.141516,0.1631361 0.0934,0.045963 0.190834,0.098871 0.297655,0.1603202 L 41.528045,1.5096464 C 41.246614,1.3053856 40.959079,1.1310978 40.671833,0.98994382 c -0.04055,-0.0199909 -0.08572,-0.0292534 -0.130221,-0.0276448 z m 1.044635,0.58997427 -0.321941,0.053785 -0.463046,0.0781 c 0.243231,0.1468995 0.486798,0.3198993 0.724747,0.5169224 l 0.800481,-0.019249 C 42.084921,1.9494689 41.836317,1.737725 41.586236,1.5523321 Z m 1.97e-4,0.7000169 c 0.238451,0.2025316 0.474629,0.4295976 0.702175,0.6766727 l 0.763001,0.040494 C 42.833079,2.7045364 42.607166,2.4568989 42.378223,2.2322919 l -0.146809,0.00347 z m 0.751904,0.7317265 c 0.241412,0.2659803 0.474287,0.5550759 0.693158,0.8602085 l 0.511239,0.016656 0.171227,0.00538 C 43.524759,3.5795692 43.317114,3.2957053 43.09597,3.0240004 Z m 0.731955,0.913826 c 0.303114,0.4263651 0.480071,0.7430649 0.514296,0.8058643 l 0.431419,0.089913 c 0.09225,-0.083371 0.117615,-0.2218227 0.05889,-0.3334545 -0.01222,-0.023395 -0.124198,-0.2306208 -0.326129,-0.5408229 z m 0.555132,0.8676122 c 0.05191,0.062009 0.128898,0.097519 0.211593,0.097038 l 0.0075,6.403e-4 c 0.03879,-0.00112 0.07665,-0.011433 0.11174,-0.02833 l -0.131112,-0.02762 z" />
  <path
     style="fill:#c59726;stroke-width:0.42861792"
     inkscape:connector-curvature="0"
     id="path274"
     d="m 44.085546,44.254019 c -0.03857,-0.0012 -0.07766,-0.01047 -0.114803,-0.02799 -0.639902,-0.31131 -1.18472,-0.706932 -1.703146,-1.191307 l -0.0027,1.12e-4 c -0.537403,-0.516501 -0.998192,-1.063202 -1.421843,-1.68532 -0.209113,-0.309033 -0.327266,-0.518884 -0.343069,-0.547679 -0.06882,-0.125252 -0.03927,-0.27763 0.062,-0.369357 l -0.0011,-1.77e-4 c 5.33e-4,-4.65e-4 0.0032,-0.0019 0.0037,-0.0028 0.0011,-9.07e-4 0.0021,-0.0022 0.0032,-0.0031 l 0.0011,1.76e-4 c 0.151781,-0.125553 0.355841,-0.08283 0.438521,0.06193 0.204156,0.310664 0.377352,0.601457 0.572988,0.866833 0.203046,0.273017 0.479297,0.611671 0.777486,0.925764 0.471102,0.513405 0.984171,0.885653 1.576307,1.253889 0.10799,0.06168 0.18877,0.101615 0.285662,0.146769 0.149065,0.07097 0.214165,0.248882 0.145138,0.399329 -0.05154,0.112367 -0.164121,0.177085 -0.279873,0.172918 z" />
  <path
     style="fill:#9f5a1b;stroke-width:0.42861792"
     inkscape:connector-curvature="0"
     id="path276"
     d="m 44.299642,44.178899 c 0.02054,-0.129453 -0.04508,-0.262106 -0.168582,-0.32065 -0.387457,-0.18369 -0.761389,-0.428783 -1.105861,-0.703382 -0.262283,-0.214745 -0.537573,-0.469553 -0.771772,-0.714067 -0.260394,-0.275258 -0.516014,-0.610546 -0.757639,-0.903848 -0.272745,-0.331097 -0.40541,-0.748328 -0.71222,-0.977113 -0.07214,-0.02951 -0.129315,-0.02763 -0.233788,-0.0019 0.05808,-0.123746 0.127441,-0.13954 0.267234,-0.163254 0.184576,0.01488 0.251394,0.17117 0.296364,0.244156 0.04215,0.0684 0.386294,0.587876 0.511266,0.758707 0.223133,0.299672 0.516723,0.643723 0.760247,0.903514 0.223977,0.234149 0.529379,0.510775 0.765621,0.706368 0.361251,0.273242 0.715582,0.517041 1.103935,0.700596 0.06875,0.0325 0.120074,0.08894 0.144178,0.160795 0.03212,0.140136 -0.01142,0.238192 -0.09908,0.310083 z" />
  <path
     style="fill:#e0c97e;stroke-width:0.42861792"
     inkscape:connector-curvature="0"
     id="path278"
     d="m 43.913214,44.182431 c -0.866349,-0.410197 -1.673034,-1.190585 -2.250653,-1.855114 -0.322667,-0.376495 -0.637731,-0.773161 -0.87894,-1.107801 -0.07685,-0.115217 -0.245376,-0.3558 -0.247883,-0.425426 -0.0011,-0.02274 0.01424,-0.04878 0.04695,-0.06358 0.0792,-0.03577 0.130344,0.04498 0.142583,0.06309 0.05255,0.07778 0.251837,0.361287 0.479148,0.658061 0.187227,0.244424 0.472078,0.589905 0.736815,0.885709 0.244384,0.273018 0.515822,0.539844 0.750069,0.753635 0.407421,0.354193 0.836642,0.686936 1.294705,0.900033 0.04866,0.02265 0.07538,0.08448 0.05127,0.136675 -0.03084,0.06674 -0.0866,0.07245 -0.124101,0.05469 z" />
  <path
     style="fill:#8d7129;stroke-width:0.42861792"
     inkscape:connector-curvature="0"
     id="path280"
     d="m 44.114431,44.303711 c -0.05196,0.0025 -0.10441,-0.0083 -0.151733,-0.0305 -0.310172,-0.145469 -0.62045,-0.328828 -0.923201,-0.545022 l -0.05068,-0.03647 0.0011,-2.88e-4 c -0.254301,-0.185325 -0.506528,-0.395193 -0.752048,-0.627398 -0.0021,-0.002 -0.0048,-0.0043 -0.0072,-0.0065 l -0.04631,-0.04288 0.0021,-1.03e-4 c -0.232908,-0.223484 -0.462993,-0.468509 -0.684729,-0.731358 -0.0021,-0.0029 -0.0048,-0.0054 -0.007,-0.0081 l -0.03777,-0.04549 0.0011,-6.1e-5 C 41.232205,41.958 41.018595,41.675041 40.824149,41.388113 l -0.02828,-0.04172 0.0011,-4.1e-5 c -0.193246,-0.289982 -0.304111,-0.48605 -0.315961,-0.507689 -0.06727,-0.121462 -0.05036,-0.269767 0.03596,-0.37193 l -0.0063,-0.0014 0.03991,-0.03332 c 0.0011,-9.07e-4 0.0016,-0.0018 0.0027,-0.0027 l 0.0087,-0.0073 0.0016,3.57e-4 c 0.01366,-0.01084 0.02689,-0.02071 0.0406,-0.02846 0.04241,-0.02327 0.09004,-0.0376 0.138288,-0.04028 l 0.0089,-1.83e-4 c 0.11747,-0.0028 0.225737,0.05872 0.283773,0.158796 l 0.0011,1.74e-4 0.0058,0.0099 c 0.0076,0.01544 0.202855,0.361954 0.555185,0.835941 l 0.0069,0.0097 c 0.236338,0.318513 0.487546,0.618459 0.747833,0.893872 l 4.7e-4,-2.1e-5 0.0063,0.0075 c 0.247073,0.25947 0.503604,0.497026 0.762297,0.705834 l 5.33e-4,-3.1e-5 0.0067,0.0061 c 0.258927,0.207935 0.525265,0.388337 0.789389,0.537856 l 2.29e-4,-10e-6 0.0073,0.0045 c 0.109793,0.06066 0.208777,0.11285 0.305007,0.15763 0.08037,0.03763 0.14047,0.106172 0.169963,0.191097 0.02732,0.08048 0.023,0.16666 -0.01238,0.243359 -0.05015,0.108705 -0.155073,0.180759 -0.273647,0.187706 z m -0.0027,-0.05243 c 0.101593,-0.0059 0.190786,-0.0662 0.233089,-0.15836 0.0294,-0.06401 0.03308,-0.135768 0.01046,-0.202694 -0.02412,-0.07185 -0.07524,-0.128682 -0.144173,-0.16079 -0.09414,-0.04443 -0.192435,-0.09572 -0.300248,-0.155411 l -0.794409,0.146181 c 0.284739,0.199611 0.575101,0.369154 0.864625,0.505572 0.04087,0.01932 0.08619,0.02784 0.130659,0.0255 z m -1.054179,-0.572741 0.321012,-0.05906 0.461697,-0.08569 C 43.594687,43.3909 43.348314,43.221923 43.107158,43.028834 l -0.800054,0.03239 c 0.245328,0.228365 0.497373,0.435998 0.750464,0.61726 z m -0.01168,-0.699917 c -0.241715,-0.198588 -0.48159,-0.421745 -0.713159,-0.66505 l -0.763566,-0.02796 c 0.22284,0.261297 0.452792,0.505191 0.68539,0.726009 l 0.146734,-0.0059 z M 42.28206,42.259342 c -0.24575,-0.26198 -0.483336,-0.547212 -0.70719,-0.848709 l -0.511441,-0.0083 -0.171292,-0.0026 c 0.19387,0.283551 0.406152,0.563967 0.631724,0.832003 z M 41.535198,41.35766 c -0.31007,-0.42133 -0.492208,-0.73508 -0.527453,-0.79731 l -0.432843,-0.08282 c -0.09086,0.08487 -0.113949,0.223723 -0.0534,0.334375 0.01259,0.02319 0.127969,0.22855 0.334969,0.535394 z m -0.569302,-0.858378 c -0.05293,-0.06115 -0.130477,-0.09539 -0.213151,-0.09355 l -0.0076,-5.11e-4 c -0.03873,0.0018 -0.07645,0.01269 -0.111255,0.03016 l 0.131545,0.02546 z" />
  <path
     style="fill:#c59726;stroke-width:0.42861813"
     inkscape:connector-curvature="0"
     id="path284"
     d="m 40.784875,44.154555 c 0.03857,-0.0019 0.07749,-0.01175 0.114333,-0.02988 0.634673,-0.321824 1.172892,-0.726381 1.683261,-1.219242 l 0.0027,7.2e-5 c 0.528813,-0.525296 0.980516,-1.079525 1.393855,-1.708547 0.203985,-0.312442 0.318654,-0.524213 0.333982,-0.553265 0.06675,-0.12637 0.03468,-0.27824 -0.06808,-0.368284 l 0.0011,-1.95e-4 c -5.34e-4,-4.52e-4 -0.0032,-0.0018 -0.0037,-0.0027 -0.0011,-9.07e-4 -0.0021,-0.0022 -0.0032,-0.0031 l -0.0011,1.95e-4 c -0.153824,-0.123033 -0.357153,-0.07695 -0.437432,0.06915 -0.199007,0.313989 -0.367381,0.607601 -0.558615,0.876168 -0.198512,0.276329 -0.469139,0.619495 -0.762105,0.938465 -0.462571,0.521107 -0.969429,0.901768 -1.555409,1.279723 -0.10696,0.06345 -0.187073,0.104715 -0.283202,0.151461 -0.147876,0.07342 -0.21003,0.252382 -0.138534,0.401669 0.05337,0.111502 0.167024,0.174353 0.282691,0.168278 z" />
  <path
     style="fill:#9f5a1b;stroke-width:0.42861813"
     inkscape:connector-curvature="0"
     id="path286"
     d="m 40.569573,44.082977 c -0.02267,-0.129096 0.04076,-0.262814 0.163268,-0.323387 0.384373,-0.190058 0.754213,-0.441286 1.094113,-0.72153 0.258698,-0.219043 0.529746,-0.478357 0.75988,-0.726702 0.255822,-0.279516 0.505877,-0.618975 0.742631,-0.916224 0.267245,-0.335551 0.393011,-0.754915 0.696001,-0.98873 0.07165,-0.0307 0.128845,-0.02976 0.233724,-0.0058 -0.06011,-0.122771 -0.129725,-0.137419 -0.269891,-0.158824 -0.184299,0.01792 -0.248534,0.175295 -0.292293,0.249013 -0.04103,0.06909 -0.376547,0.594167 -0.49868,0.767038 -0.218161,0.303312 -0.506037,0.65216 -0.74524,0.915933 -0.220087,0.237812 -0.52088,0.519439 -0.753867,0.718902 -0.356689,0.279165 -0.70695,0.528776 -1.092225,0.718713 -0.06821,0.03363 -0.11859,0.09091 -0.141505,0.163151 -0.02982,0.140647 0.01531,0.237972 0.104186,0.308406 z" />
  <path
     style="fill:#e0c97e;stroke-width:0.42861813"
     inkscape:connector-curvature="0"
     id="path288"
     d="m 40.956006,44.080135 c 0.859461,-0.424435 1.653171,-1.218024 2.219747,-1.891993 0.316414,-0.381766 0.624889,-0.783575 0.860544,-1.12215 0.07493,-0.116468 0.23947,-0.359799 0.240835,-0.429457 4.38e-4,-0.02275 -0.01505,-0.04854 -0.04802,-0.06279 -0.07978,-0.03446 -0.129587,0.04712 -0.141521,0.06543 -0.05127,0.07864 -0.245846,0.365393 -0.468227,0.665876 -0.183173,0.247479 -0.462283,0.597613 -0.722107,0.897744 -0.239848,0.277013 -0.506848,0.54828 -0.737536,0.765907 -0.40152,0.360865 -0.825198,0.700644 -1.279681,0.921269 -0.04828,0.02345 -0.07397,0.08571 -0.04903,0.137503 0.03191,0.06622 0.08778,0.07101 0.124988,0.05264 z" />
  <path
     style="fill:#8d7129;stroke-width:0.42861813"
     inkscape:connector-curvature="0"
     id="path290"
     d="m 40.756822,44.204717 c 0.05202,0.0017 0.104255,-0.01002 0.151205,-0.033 0.307728,-0.150566 0.614939,-0.339019 0.914082,-0.560177 l 0.05004,-0.0373 -0.0011,-2.65e-4 c 0.251213,-0.189496 0.499945,-0.403497 0.741597,-0.639721 0.0021,-0.0021 0.0048,-0.0044 0.007,-0.0067 l 0.04562,-0.04364 -0.0021,-6.6e-5 c 0.229189,-0.227297 0.455203,-0.476084 0.672575,-0.742555 0.0021,-0.0029 0.0048,-0.0054 0.0069,-0.0082 l 0.03703,-0.04611 -0.0011,-3.9e-5 c 0.221346,-0.275231 0.430262,-0.561676 0.619949,-0.851771 l 0.02758,-0.04218 -0.0011,-2.7e-5 c 0.188433,-0.29313 0.296044,-0.491 0.307541,-0.512832 0.06525,-0.122555 0.04594,-0.270561 -0.04209,-0.371286 l 0.0062,-0.0015 -0.04049,-0.03266 c -0.0011,-9.07e-4 -0.0016,-0.0018 -0.0027,-0.0027 l -0.0089,-0.0071 -0.0016,3.84e-4 c -0.01382,-0.01061 -0.02726,-0.02027 -0.04108,-0.02779 -0.04279,-0.02257 -0.09064,-0.0361 -0.138934,-0.03799 l -0.0089,-3.7e-5 c -0.117502,-8.53e-4 -0.224734,0.06243 -0.281116,0.163456 l -0.0011,1.93e-4 -0.0056,0.01004 c -0.0074,0.01556 -0.196858,0.365252 -0.541319,0.844987 l -0.0067,0.0098 c -0.231051,0.322367 -0.47728,0.626417 -0.732985,0.906086 l -4.7e-4,-1.3e-5 -0.0062,0.0076 c -0.242756,0.26351 -0.49534,0.505266 -0.750548,0.718314 l -5.34e-4,-2.1e-5 -0.0066,0.0062 c -0.25546,0.212179 -0.518788,0.396949 -0.78041,0.550806 l -2.29e-4,-7e-6 -0.0072,0.0047 c -0.108779,0.06246 -0.206882,0.116278 -0.302366,0.16264 -0.07974,0.03896 -0.138694,0.108475 -0.166783,0.193875 -0.02598,0.08092 -0.02022,0.167017 0.01638,0.243122 0.05196,0.107863 0.158039,0.178176 0.276714,0.183166 z m 0.0016,-0.05247 c -0.101678,-0.0043 -0.191853,-0.06305 -0.235671,-0.154493 -0.03046,-0.06352 -0.03532,-0.135205 -0.01376,-0.202495 0.02294,-0.07224 0.07311,-0.129905 0.141505,-0.163147 0.0934,-0.04597 0.190829,-0.09889 0.297645,-0.160342 l 0.796714,0.133055 c -0.28141,0.204282 -0.568934,0.378592 -0.85617,0.519767 -0.04055,0.02 -0.08572,0.02926 -0.130221,0.02765 z m 1.044592,-0.590054 -0.321947,-0.05376 -0.463046,-0.07806 c 0.243215,-0.146918 0.486767,-0.319936 0.7247,-0.516977 l 0.800486,0.01919 c -0.241529,0.232381 -0.490117,0.444144 -0.740183,0.629556 z m 1.44e-4,-0.700016 c 0.238435,-0.20255 0.474591,-0.429633 0.702116,-0.676725 l 0.763,-0.04055 c -0.218497,0.264938 -0.444394,0.512592 -0.673316,0.737216 l -0.146814,-0.0035 z m 0.751845,-0.731783 c 0.24139,-0.265998 0.474239,-0.555112 0.693088,-0.860261 l 0.511239,-0.01669 0.171222,-0.0054 c -0.189164,0.28671 -0.396788,0.57059 -0.61791,0.842312 z m 0.731881,-0.913881 c 0.303081,-0.426388 0.480017,-0.743101 0.514231,-0.805903 l 0.431414,-0.08995 c 0.09226,0.08336 0.11763,0.221813 0.05892,0.33345 -0.01222,0.0234 -0.124182,0.230629 -0.326092,0.540846 z m 0.555062,-0.867653 c 0.05191,-0.06201 0.128892,-0.09753 0.211582,-0.09705 l 0.0076,-6.4e-4 c 0.03879,0.0011 0.07665,0.01142 0.111741,0.02832 l -0.131107,0.02763 z" />
  <path
     style="fill:#c59726;stroke-width:0.42861792"
     inkscape:connector-curvature="0"
     id="path294"
     d="m 4.9137154,44.543594 c -0.038579,-0.0012 -0.07767,-0.01047 -0.1148062,-0.02799 C 4.1590108,44.204296 3.6141896,43.808673 3.0957633,43.324298 l -0.00245,1.12e-4 C 2.5559039,42.80791 2.0951183,42.261209 1.6714645,41.639091 1.462352,41.330057 1.3442016,41.120207 1.3283961,41.091411 c -0.06882,-0.125251 -0.039288,-0.277629 0.062,-0.369357 l -0.00112,-1.76e-4 c 8.003e-4,-4.65e-4 0.00299,-0.0019 0.00384,-0.0028 0.00117,-9.07e-4 0.00197,-0.0022 0.0032,-0.0031 l 0.00112,1.76e-4 c 0.1517753,-0.125553 0.3558381,-0.08283 0.4385154,0.06193 0.2041583,0.310664 0.3773539,0.601458 0.5729909,0.866833 0.203046,0.273017 0.4792971,0.611672 0.7774843,0.925765 0.4711012,0.513405 0.9841721,0.885653 1.5763078,1.253889 0.1079884,0.06168 0.1887727,0.101615 0.2856623,0.146768 0.1490646,0.07097 0.214164,0.248883 0.1451384,0.39933 -0.051516,0.112366 -0.1641215,0.177084 -0.2798737,0.172918 z" />
  <path
     style="fill:#9f5a1b;stroke-width:0.42861792"
     inkscape:connector-curvature="0"
     id="path296"
     d="M 5.1278084,44.468473 C 5.1483596,44.339021 5.0827101,44.206368 4.9592294,44.147824 4.5717727,43.964133 4.1978392,43.71904 3.8533644,43.444441 3.591084,43.229696 3.3157943,42.974889 3.0815962,42.730375 2.821197,42.455117 2.5655797,42.119829 2.3239529,41.826527 2.0512108,41.49543 1.9185445,41.078199 1.6117355,40.849414 c -0.072145,-0.02952 -0.1293174,-0.02763 -0.2337872,-0.0019 0.058081,-0.123746 0.127441,-0.139541 0.2672341,-0.163255 0.1845723,0.01488 0.2513918,0.171171 0.296362,0.244157 0.042148,0.0684 0.3862952,0.587875 0.5112682,0.758707 0.223134,0.299672 0.5167223,0.643723 0.7602447,0.903513 0.2239791,0.234149 0.5293774,0.510776 0.7656226,0.706369 0.3612497,0.273242 0.7155796,0.517041 1.1039358,0.700596 0.068755,0.0325 0.1200721,0.08894 0.1441764,0.160795 0.032139,0.140135 -0.011396,0.238192 -0.099086,0.310082 z" />
  <path
     style="fill:#e0c97e;stroke-width:0.42861792"
     inkscape:connector-curvature="0"
     id="path298"
     d="M 4.7413799,44.472006 C 3.8750333,44.061808 3.0683447,43.281421 2.4907276,42.616891 2.1680583,42.240397 1.8529942,41.843731 1.6117894,41.509091 1.5349424,41.393874 1.366413,41.153291 1.3639028,41.083665 c -8.002e-4,-0.02274 0.014229,-0.04879 0.046971,-0.06358 0.079197,-0.03577 0.130345,0.04498 0.1425802,0.06309 0.052541,0.07778 0.251841,0.361288 0.4791498,0.658061 0.1872282,0.244424 0.4720775,0.589906 0.7368168,0.885709 0.2443825,0.273018 0.5158212,0.539845 0.7500695,0.753635 0.4074172,0.354193 0.836643,0.686937 1.2947044,0.900033 0.048673,0.02265 0.075378,0.08448 0.051277,0.136676 -0.030821,0.06674 -0.086594,0.07245 -0.1241018,0.05469 z" />
  <path
     style="fill:#8d7129;stroke-width:0.42861792"
     inkscape:connector-curvature="0"
     id="path300"
     d="m 4.9425959,44.593286 c -0.051981,0.0025 -0.104408,-0.0083 -0.1517311,-0.0305 -0.3101711,-0.14547 -0.6204495,-0.328829 -0.9232016,-0.545023 l -0.050674,-0.03647 0.00133,-2.88e-4 c -0.2542979,-0.185321 -0.5065241,-0.39519 -0.752043,-0.627395 -0.00235,-0.002 -0.0048,-0.0043 -0.00718,-0.0065 l -0.046309,-0.04288 0.00224,-1.03e-4 C 2.7821243,43.080604 2.552039,42.835579 2.3303013,42.572729 c -0.00235,-0.0029 -0.00469,-0.0054 -0.00702,-0.0081 l -0.037784,-0.04549 0.00133,-6.1e-5 C 2.0609347,42.247544 1.847324,41.964585 1.6528784,41.677658 l -0.028298,-0.04172 9.07e-4,-4.1e-5 C 1.4322444,41.345914 1.3213809,41.149846 1.3095288,41.128206 1.2422643,41.006745 1.2591539,40.85844 1.3454719,40.756277 l -0.00627,-0.0014 0.039934,-0.03332 c 8.536e-4,-9.07e-4 0.00165,-0.0018 0.00256,-0.0027 l 0.00876,-0.0073 0.00155,3.57e-4 c 0.013647,-0.01084 0.0269,-0.02071 0.040601,-0.02846 0.042388,-0.02327 0.090032,-0.0376 0.1382864,-0.04028 l 0.00886,-1.83e-4 c 0.1174702,-0.0028 0.2257349,0.05872 0.2837727,0.158797 l 0.00117,1.74e-4 0.00578,0.0099 c 0.00763,0.01544 0.2028549,0.361955 0.5551847,0.835942 l 0.00687,0.0097 c 0.2363381,0.318512 0.4875458,0.618459 0.7478319,0.893871 l 4.711e-4,-2.1e-5 0.00632,0.0075 c 0.2470692,0.25947 0.5036031,0.497026 0.762294,0.705834 l 6.935e-4,-3.1e-5 0.00671,0.0061 c 0.2589256,0.207935 0.5252644,0.388336 0.7893897,0.537855 l 2.262e-4,-10e-6 0.0073,0.0045 c 0.1097949,0.06066 0.2087754,0.112849 0.3050094,0.15763 0.080374,0.03763 0.1404663,0.106172 0.1699587,0.191097 0.027332,0.08048 0.022995,0.16666 -0.012346,0.243359 -0.050177,0.108705 -0.1550757,0.180758 -0.2736518,0.187705 z m -0.00261,-0.05243 c 0.1015969,-0.0059 0.1907873,-0.06621 0.23309,-0.15836 0.029413,-0.06401 0.033084,-0.135768 0.010441,-0.202694 -0.02411,-0.07185 -0.075242,-0.128682 -0.1441765,-0.16079 -0.094145,-0.04443 -0.1924327,-0.09572 -0.3002482,-0.155411 l -0.7944107,0.14618 c 0.2847431,0.199612 0.575101,0.369154 0.8646265,0.505573 0.040862,0.01932 0.086189,0.02784 0.1306582,0.0255 z m -1.0541841,-0.57274 0.3210154,-0.05906 0.4616958,-0.08569 C 4.4229061,43.680474 4.1765321,43.511498 3.9353811,43.318409 l -0.8000569,0.03239 c 0.24533,0.228364 0.4973721,0.435998 0.7504669,0.617259 z M 3.8741071,43.268198 C 3.6323495,43.069611 3.3924759,42.846454 3.1609075,42.603149 l -0.7635643,-0.02796 c 0.2228374,0.261296 0.4527892,0.50519 0.6853862,0.726008 l 0.1467336,-0.0059 z M 3.1102952,42.548918 C 2.8645326,42.286939 2.6269445,42.001707 2.4030913,41.70021 l -0.5114415,-0.0083 -0.1712904,-0.0026 c 0.1938705,0.28355 0.4061501,0.563966 0.6317212,0.832002 z M 2.3634349,41.647236 C 2.053363,41.225906 1.8712283,40.912155 1.8359803,40.849926 L 1.403141,40.767106 c -0.090868,0.08487 -0.1139532,0.223724 -0.053405,0.334376 0.01258,0.02319 0.1279665,0.22855 0.3349664,0.535393 z M 1.7941354,40.788858 c -0.052946,-0.06115 -0.130481,-0.09539 -0.2131556,-0.09355 l -0.00756,-5.11e-4 c -0.03876,0.0018 -0.076453,0.01269 -0.1112562,0.03016 l 0.1315438,0.02546 z" />
  <path
     style="fill:#c59726;stroke-width:0.42861813"
     inkscape:connector-curvature="0"
     id="path304"
     d="m 1.6156153,44.445578 c 0.038552,-0.0019 0.077486,-0.01175 0.1143287,-0.02988 0.6346758,-0.321824 1.1728968,-0.72638 1.6832623,-1.219242 l 0.00245,7.2e-5 c 0.5288123,-0.525296 0.9805163,-1.079525 1.3938497,-1.708547 0.203986,-0.312442 0.3186589,-0.524213 0.3339869,-0.553265 0.066745,-0.12637 0.034705,-0.27824 -0.068085,-0.368284 l 0.00112,-1.94e-4 c -8.003e-4,-4.53e-4 -0.00304,-0.0018 -0.00389,-0.0027 -0.00117,-9.07e-4 -0.00203,-0.0022 -0.00325,-0.0031 l -0.00112,1.94e-4 c -0.1538262,-0.123033 -0.3571571,-0.07695 -0.4374346,0.06915 -0.1990056,0.313989 -0.3673803,0.607601 -0.5586136,0.876168 -0.1985143,0.27633 -0.469141,0.619496 -0.7621067,0.938465 -0.4625675,0.521107 -0.9694283,0.901768 -1.5554088,1.279723 -0.1069566,0.06345 -0.1870708,0.104715 -0.2832028,0.151461 -0.1478732,0.07342 -0.2100287,0.252382 -0.1385303,0.401669 0.053366,0.111502 0.1670202,0.174353 0.2826875,0.168278 z" />
  <path
     style="fill:#9f5a1b;stroke-width:0.42861813"
     inkscape:connector-curvature="0"
     id="path306"
     d="m 1.4003117,44.374 c -0.022685,-0.129096 0.040766,-0.262814 0.1632663,-0.323387 0.384374,-0.190058 0.7542139,-0.441286 1.0941121,-0.72153 0.2587016,-0.219043 0.5297509,-0.478357 0.7598835,-0.726702 0.2558227,-0.279516 0.5058743,-0.618975 0.7426296,-0.916224 0.2672432,-0.335551 0.3930084,-0.754914 0.6960016,-0.98873 0.071649,-0.0307 0.1288447,-0.02975 0.2337243,-0.0058 -0.060115,-0.122772 -0.1297255,-0.13742 -0.269891,-0.158825 -0.1843013,0.01792 -0.2485337,0.175295 -0.292294,0.249013 -0.041012,0.06909 -0.3765446,0.594168 -0.4986824,0.767038 -0.21816,0.303312 -0.5060328,0.65216 -0.7452369,0.915933 -0.2200855,0.237812 -0.5208789,0.519439 -0.753866,0.718903 -0.3566929,0.279164 -0.7069526,0.528775 -1.0922282,0.718712 -0.06821,0.03363 -0.1185889,0.09091 -0.1415046,0.163151 -0.029824,0.140647 0.015328,0.237972 0.1041882,0.308406 z" />
  <path
     style="fill:#e0c97e;stroke-width:0.42861813"
     inkscape:connector-curvature="0"
     id="path308"
     d="m 1.7867462,44.371158 c 0.8594621,-0.424434 1.6531675,-1.218024 2.2197434,-1.891992 0.3164149,-0.381767 0.6248926,-0.783576 0.8605446,-1.122151 0.074936,-0.116468 0.239473,-0.359799 0.2408345,-0.429456 4.407e-4,-0.02276 -0.015035,-0.04855 -0.048017,-0.06279 -0.079776,-0.03446 -0.1295857,0.04712 -0.14152,0.06543 -0.05125,0.07864 -0.2458464,0.365393 -0.4682292,0.665876 -0.1831703,0.247479 -0.4622816,0.597613 -0.7221057,0.897744 -0.2398453,0.277013 -0.5068452,0.548281 -0.7375349,0.765907 -0.4015191,0.360866 -0.8251974,0.700644 -1.2796816,0.921269 -0.048294,0.02345 -0.073973,0.08571 -0.049014,0.137503 0.031915,0.06622 0.087777,0.07101 0.1249869,0.05264 z" />
  <path
     style="fill:#8d7129;stroke-width:0.42861813"
     inkscape:connector-curvature="0"
     id="path310"
     d="m 1.5875581,44.49574 c 0.052018,0.0017 0.104257,-0.01002 0.1512077,-0.033 0.3077292,-0.150566 0.6149404,-0.339019 0.9140848,-0.560177 l 0.050065,-0.0373 -0.00133,-2.65e-4 c 0.2512098,-0.189496 0.4999399,-0.403497 0.741595,-0.63972 0.00235,-0.0021 0.00475,-0.0044 0.00707,-0.0067 l 0.045594,-0.04364 -0.00224,-6.5e-5 c 0.2291895,-0.227297 0.4552013,-0.476085 0.6725727,-0.742556 0.00229,-0.0029 0.00464,-0.0054 0.00689,-0.0082 l 0.037026,-0.04611 -0.00133,-3.9e-5 c 0.2213462,-0.275232 0.4302598,-0.561676 0.6199459,-0.851772 l 0.027604,-0.04218 -9.07e-4,-2.6e-5 c 0.1884329,-0.293131 0.2960468,-0.491001 0.3075404,-0.512833 0.065252,-0.122554 0.04592,-0.270561 -0.042073,-0.371286 l 0.00625,-0.0015 -0.040478,-0.03266 c -8.536e-4,-9.07e-4 -0.00165,-0.0018 -0.00256,-0.0027 l -0.00888,-0.0071 -0.00155,3.83e-4 c -0.013823,-0.01061 -0.027242,-0.02027 -0.041065,-0.02779 -0.042767,-0.02257 -0.090641,-0.0361 -0.1389325,-0.03799 l -0.00886,-3.6e-5 c -0.1175058,-8.5e-4 -0.2247408,0.06244 -0.2811199,0.163459 l -0.00117,1.93e-4 -0.00562,0.01004 c -0.00738,0.01556 -0.1968555,0.365252 -0.5413186,0.844987 l -0.00671,0.0098 c -0.231052,0.322367 -0.4772772,0.626417 -0.7329846,0.906087 l -4.717e-4,-1.4e-5 -0.0062,0.0076 c -0.2427558,0.26351 -0.4953357,0.505266 -0.750547,0.718314 l -6.936e-4,-2e-5 -0.0066,0.0062 c -0.2554604,0.212179 -0.518787,0.396949 -0.7804096,0.550806 l -2.267e-4,-7e-6 -0.00723,0.0047 c -0.1087796,0.06246 -0.2068862,0.116278 -0.3023679,0.16264 -0.079742,0.03895 -0.1386962,0.108476 -0.1667832,0.193875 -0.025998,0.08092 -0.020242,0.167017 0.016358,0.243122 0.051965,0.107863 0.1580362,0.178176 0.276711,0.183166 z m 0.00176,-0.05246 c -0.1016806,-0.0043 -0.1918533,-0.06305 -0.2356706,-0.154493 -0.030464,-0.06352 -0.035319,-0.135204 -0.013781,-0.202495 0.02292,-0.07224 0.073109,-0.129905 0.1415046,-0.163146 0.093399,-0.04597 0.1908273,-0.09888 0.2976436,-0.160343 l 0.7967144,0.133055 c -0.2814113,0.204282 -0.5689329,0.378592 -0.8561692,0.519768 -0.040537,0.02 -0.085718,0.02926 -0.1302191,0.02765 z M 2.6339063,43.853226 2.3119604,43.799466 1.8489138,43.721406 C 2.09213,43.574487 2.3356833,43.401469 2.5736161,43.204428 l 0.8004827,0.01919 c -0.2415286,0.232377 -0.4901115,0.44414 -0.7401812,0.629552 z m 1.462e-4,-0.700015 c 0.2384332,-0.20255 0.474593,-0.429634 0.7021163,-0.676726 l 0.7629998,-0.04055 c -0.2184972,0.264938 -0.4443943,0.512592 -0.6733164,0.737217 l -0.146811,-0.0035 z m 0.7518424,-0.731783 c 0.241392,-0.265999 0.4742425,-0.555112 0.6930912,-0.860261 l 0.5112362,-0.01669 0.1712247,-0.0054 c -0.1891616,0.286709 -0.3967862,0.570589 -0.6179051,0.84231 z M 4.1177788,41.507547 C 4.4208584,41.081159 4.5977924,40.764446 4.632009,40.701644 l 0.4314149,-0.08995 c 0.092256,0.08336 0.117628,0.221813 0.058914,0.333449 -0.012196,0.0234 -0.1241791,0.23063 -0.3260892,0.540847 z m 0.5550626,-0.867654 c 0.051927,-0.06201 0.1288895,-0.09753 0.2115833,-0.09705 l 0.00755,-6.4e-4 c 0.038781,0.0011 0.076652,0.01142 0.1117385,0.02832 l -0.1311063,0.02763 z" />
  <path
     style="fill:#1d3209;stroke-width:0.42861813"
     inkscape:connector-curvature="0"
     id="path314"
     d="M 0.60658193,4.7608841 C 0.40223394,4.7524315 0.23294264,4.5709675 0.27418858,4.3849514 0.40681591,3.7868152 0.42040734,3.2691731 0.30376322,2.656592 0.23033235,2.2709429 0.08331635,1.9024811 0.1435929,1.642824 0.17093466,1.5250402 0.33455946,1.4572327 0.58695549,1.5954476 0.4882876,1.3297297 -0.03432647,1.2361586 0.00133455,1.7326568 0.0374671,2.2308826 0.43398171,3.5403964 0.10164837,4.4034619 0.04153038,4.5595907 0.25045597,4.9763957 0.60660332,4.7608697 Z" />
  <path
     style="fill:#1d3209;stroke-width:0.42861813"
     inkscape:connector-curvature="0"
     id="path316"
     d="m 4.7087024,30.542611 c 0.084626,-0.147068 0.1910525,-0.295241 0.032171,-0.40041 -0.3697177,-0.244737 -1.1929299,-0.291097 -1.5529263,-0.281877 -0.4139037,0.0106 -1.2803256,0.159026 -1.4182977,0.269416 -0.094403,0.07555 -0.081776,0.162331 0.081498,0.353859 -0.1608564,-0.05973 -0.3098094,-0.213233 -0.2687696,-0.350353 0.026756,-0.08939 0.2096157,-0.17107 0.3880755,-0.253167 0.3833817,-0.176372 0.9865505,-0.229769 1.4856331,-0.203191 0.4309326,0.02295 0.9754923,0.08735 1.3140146,0.332145 0.1566341,0.113262 0.2248962,0.265259 -0.061442,0.533587 z" />
  <path
     style="fill:#1d3209;stroke-width:0.42861813"
     inkscape:connector-curvature="0"
     id="path318"
     d="m 4.6253055,15.680788 c 0.084626,-0.147067 0.1910524,-0.29524 0.032171,-0.40041 -0.3697177,-0.244737 -1.1929298,-0.291097 -1.5529263,-0.281877 -0.4139037,0.0106 -1.2803255,0.159026 -1.4182977,0.269416 -0.094403,0.07555 -0.081776,0.162331 0.081498,0.353859 -0.1608563,-0.05973 -0.3098094,-0.213233 -0.2687695,-0.350352 0.026756,-0.08939 0.2096157,-0.17107 0.3880755,-0.253168 0.3833816,-0.176372 0.9865505,-0.229769 1.4856331,-0.203191 0.4309325,0.02295 0.9754922,0.08735 1.3140145,0.332145 0.1566341,0.113263 0.2248962,0.265259 -0.061442,0.533587 z" />
  <path
     style="fill:#1d3209;stroke-width:0.42861813"
     inkscape:connector-curvature="0"
     id="path320"
     d="m 15.763805,40.972687 c -0.147068,-0.08462 -0.295237,-0.191052 -0.400411,-0.03219 -0.244737,0.369722 -0.291096,1.19293 -0.281876,1.552926 0.01059,0.413904 0.159025,1.280325 0.269416,1.418298 0.07555,0.0944 0.16233,0.08178 0.353863,-0.0815 -0.05973,0.160856 -0.213238,0.309809 -0.350357,0.26877 -0.08939,-0.02675 -0.17107,-0.209616 -0.253167,-0.38808 -0.176377,-0.383382 -0.229774,-0.98655 -0.203191,-1.485633 0.02293,-0.430933 0.08735,-0.975493 0.332144,-1.314015 0.113263,-0.156634 0.265259,-0.224896 0.533587,0.06144 z" />
  <path
     style="fill:#1d3209;stroke-width:0.42861813"
     inkscape:connector-curvature="0"
     id="path324"
     d="m 30.532694,40.87599 c -0.147067,-0.08462 -0.295237,-0.191052 -0.400411,-0.03219 -0.244736,0.369722 -0.291096,1.19293 -0.281876,1.552926 0.01059,0.413904 0.159026,1.280325 0.269416,1.418298 0.07555,0.0944 0.162331,0.08178 0.353863,-0.0815 -0.05973,0.160856 -0.213237,0.30981 -0.350357,0.26877 -0.08939,-0.02675 -0.17107,-0.209616 -0.253167,-0.38808 -0.176377,-0.383382 -0.229774,-0.98655 -0.203191,-1.485633 0.02293,-0.430933 0.08735,-0.975492 0.332145,-1.314015 0.113262,-0.156634 0.265258,-0.224896 0.533586,0.06144 z" />
  <path
     style="fill:#1d3209;stroke-width:0.42861813"
     inkscape:connector-curvature="0"
     id="path326"
     d="m 43.699839,14.891873 c 0.08463,0.147068 0.191053,0.295241 0.03217,0.400411 -0.369718,0.244736 -1.192932,0.291096 -1.552929,0.281876 -0.413903,-0.0106 -1.280327,-0.159026 -1.418295,-0.269416 -0.09441,-0.07555 -0.08177,-0.16233 0.0815,-0.353859 -0.16085,0.05973 -0.309803,0.213234 -0.26877,0.350353 0.02673,0.08939 0.209619,0.17107 0.388081,0.253167 0.383381,0.176372 0.986551,0.229769 1.485678,0.203191 0.430929,-0.02295 0.975491,-0.08735 1.314014,-0.332144 0.15663,-0.113263 0.224894,-0.265259 -0.06144,-0.533587 z" />
  <path
     style="fill:#1d3209;stroke-width:0.42861813"
     inkscape:connector-curvature="0"
     id="path328"
     d="m 43.729844,29.725489 c 0.08463,0.147068 0.191053,0.295241 0.03217,0.400411 -0.369718,0.244737 -1.192926,0.291096 -1.552923,0.281876 -0.413904,-0.0106 -1.280327,-0.159025 -1.418301,-0.269416 -0.0944,-0.07555 -0.08177,-0.16233 0.0815,-0.353859 -0.160851,0.05973 -0.309809,0.213234 -0.268771,0.350353 0.02673,0.08939 0.20962,0.17107 0.388081,0.253168 0.383382,0.176372 0.986551,0.229769 1.485674,0.20319 0.430933,-0.02295 0.97549,-0.08735 1.314013,-0.332144 0.156636,-0.113263 0.224899,-0.265259 -0.06144,-0.533587 z" />
  <path
     style="fill:#1d3209;stroke-width:0.42861813"
     inkscape:connector-curvature="0"
     id="path330"
     d="m 14.810558,4.5620054 c 0.147067,0.084626 0.29524,0.191052 0.400411,0.032171 0.244737,-0.3697172 0.291096,-1.1929299 0.281876,-1.5529263 -0.0106,-0.4139037 -0.159026,-1.280325 -0.269416,-1.4182972 -0.07555,-0.094403 -0.162331,-0.081776 -0.353859,0.081497 0.05973,-0.1608558 0.213233,-0.3098094 0.350352,-0.268769 0.08939,0.026756 0.17107,0.2096157 0.253168,0.388075 0.176372,0.3833821 0.22977,0.9865504 0.203191,1.4856336 C 15.653331,3.740322 15.588931,4.2848812 15.344136,4.623404 15.230874,4.7800385 15.078877,4.8483 14.810549,4.561962 Z" />
  <path
     style="fill:#1d3209;stroke-width:0.42861813"
     inkscape:connector-curvature="0"
     id="path332"
     d="m 29.645031,4.4904259 c 0.147068,0.084626 0.295241,0.1910525 0.400411,0.032171 0.244737,-0.3697175 0.291096,-1.1929297 0.281876,-1.5529261 -0.01059,-0.4139037 -0.159025,-1.2803256 -0.269416,-1.4182977 -0.07555,-0.094403 -0.16233,-0.081776 -0.353859,0.081498 0.05973,-0.1608558 0.213234,-0.3098094 0.350353,-0.268769 0.08939,0.026756 0.17107,0.2096157 0.253172,0.3880749 0.176372,0.3833817 0.229769,0.9865505 0.203186,1.4856331 -0.02293,0.4309326 -0.08735,0.9754923 -0.33214,1.3140146 -0.113267,0.1566341 -0.265259,0.2248962 -0.533587,-0.061442 z" />
  <path
     style="fill:#1d3209;stroke-width:0.42861813"
     inkscape:connector-curvature="0"
     id="path336"
     d="m 44.467065,4.3620115 c 0.14707,0.084627 0.295244,0.1910525 0.400411,0.032171 0.244736,-0.3697172 0.291098,-1.1929299 0.281879,-1.5529263 -0.01062,-0.4139037 -0.159026,-1.280325 -0.269416,-1.4182972 -0.07555,-0.094403 -0.162334,-0.081776 -0.353862,0.081497 0.05973,-0.1608558 0.213237,-0.3098093 0.350357,-0.2687691 0.08939,0.026754 0.171067,0.2096158 0.25317,0.3880751 0.176371,0.3833816 0.229771,0.9865504 0.203186,1.4856336 -0.02294,0.4309325 -0.08735,0.9754917 -0.332142,1.3140145 -0.113266,0.1566341 -0.265255,0.2248957 -0.533583,-0.061443 z" />
  <path
     style="fill:#1d3209;stroke-width:0.42861813"
     inkscape:connector-curvature="0"
     id="path338"
     d="m 43.854143,44.506386 c 0.08463,0.147067 0.191053,0.29524 0.03217,0.400411 -0.369718,0.244736 -1.192926,0.291095 -1.552923,0.281876 -0.413904,-0.01058 -1.280327,-0.159026 -1.4183,-0.269417 -0.0944,-0.07555 -0.08177,-0.16233 0.0815,-0.353858 -0.160851,0.05973 -0.309809,0.213233 -0.268771,0.350352 0.02673,0.08939 0.20962,0.17107 0.388082,0.253172 0.383381,0.176372 0.98655,0.22977 1.485673,0.203186 0.430933,-0.02293 0.97549,-0.08735 1.314013,-0.33214 0.156636,-0.113266 0.2249,-0.265259 -0.06144,-0.533587 z" />
  <path
     style="fill:#1d3209;stroke-width:0.42861813"
     inkscape:connector-curvature="0"
     id="path340"
     d="M 4.5318666,0.88831921 C 4.6164933,0.74125178 4.7229191,0.59307848 4.5640378,0.48790839 4.1943201,0.24317175 3.3711079,0.1968124 3.0111115,0.20603198 2.5972078,0.21663192 1.7307859,0.3650579 1.5928138,0.47544849 1.4984109,0.55100104 1.5110382,0.63777906 1.6743114,0.82930704 1.5134556,0.76957911 1.364502,0.61607382 1.4055424,0.47895456 1.4322983,0.38956625 1.6151581,0.30788451 1.7936174,0.22578699 2.176999,0.04941494 2.7801678,-0.00398232 3.2792504,0.0225963 3.7101835,0.04554453 4.2547427,0.10994865 4.593265,0.35474104 4.7498996,0.4680034 4.8181612,0.61999998 4.5318229,0.8883278 Z" />
  <path
     style="fill:#1d3209;stroke-width:0.42861813"
     inkscape:connector-curvature="0"
     id="path342"
     d="m 0.92247346,41.075555 c -0.14706743,-0.08462 -0.29523642,-0.191052 -0.40041072,-0.03219 -0.24473669,0.369721 -0.29109599,1.19293 -0.28187641,1.552926 0.0105866,0.413904 0.15902587,1.280325 0.26941646,1.418297 0.0755525,0.0944 0.16233052,0.08178 0.35386282,-0.0815 -0.0597322,0.160856 -0.21323749,0.309809 -0.3503567,0.268769 C 0.42372061,44.175107 0.34203881,43.992242 0.25994129,43.813778 0.08356497,43.430396 0.03016771,42.827228 0.05675059,42.328144 0.07968175,41.897212 0.144103,41.352653 0.38889534,41.01413 0.5021577,40.857496 0.65415423,40.789234 0.92248205,41.07557 Z" />
  <path
     style="fill:#1d3209;stroke-width:0.42861813"
     inkscape:connector-curvature="0"
     id="path344"
     d="m 44.741384,40.597389 c 0.204348,0.0084 0.373639,0.189916 0.332393,0.375936 -0.132627,0.598137 -0.146221,1.115779 -0.02956,1.72836 0.07344,0.385649 0.22045,0.75411 0.160173,1.013767 -0.02737,0.117785 -0.190968,0.185592 -0.443365,0.04738 0.09867,0.265717 0.621283,0.359289 0.585622,-0.137205 -0.03612,-0.498226 -0.432646,-1.80774 -0.100312,-2.670805 0.06012,-0.156125 -0.148809,-0.572934 -0.504954,-0.357408 z" />
</svg>
