<svg width="495.42" height="350.23" version="1.1" viewBox="0 0 131.08 92.666" xmlns="http://www.w3.org/2000/svg" xmlns:xlink="http://www.w3.org/1999/xlink">
 <defs>
  <linearGradient id="linearGradient8789" x1="300.3" x2="300.3" y1="63.365" y2="36.063" gradientTransform="matrix(.21663 0 0 .26458 31.202 15.053)" gradientUnits="userSpaceOnUse" xlink:href="#verde"/>
  <linearGradient id="verde">
   <stop stop-color="#1d3209" offset="0"/>
   <stop stop-color="#3a6712" offset=".11087"/>
   <stop stop-color="#5b9e1c" offset=".54248"/>
   <stop stop-color="#1d3209" offset="1"/>
  </linearGradient>
  <linearGradient id="linearGradient37826" x2="1" gradientTransform="matrix(-18.122 -39.636 -30.608 16.781 -82.454 234.51)" gradientUnits="userSpaceOnUse" xlink:href="#linearGradient390"/>
  <linearGradient id="linearGradient390" x2="1" gradientTransform="matrix(26.775 -54.019 41.594 24.529 -18.224 325.91)" gradientUnits="userSpaceOnUse">
   <stop stop-color="#2e954b" offset="0"/>
   <stop stop-color="#54c04c" offset=".3447"/>
   <stop stop-color="#b6de36" offset=".99882"/>
   <stop stop-color="#b6de36" offset="1"/>
  </linearGradient>
  <linearGradient id="linearGradient37804" x2="1" gradientTransform="matrix(-41.213 -44.005 -32.755 35.48 -75.43 298.51)" gradientUnits="userSpaceOnUse" xlink:href="#linearGradient390"/>
  <clipPath id="clipPath14464">
   <path d="m658.13 882.58c-1.418 2.141-35.367 54.012-70.656 157.32-32.473 95.01-71.981 253.23-75.805 467.31-3.469 189.25 28.695 370.32 95.457 538.1 67.441 169.39 159.39 290.49 222.4 361.89l2.399-4.02c-62.281-70.49-145.9-196.24-212.55-363.66-65.977-165.83-97.75-344.87-94.391-532.05 3.84-211.98 42.899-368.51 75.036-462.48 34.656-101.53 68.64-153.42 68.996-153.91l-10.883-8.5"/>
  </clipPath>
  <linearGradient id="linearGradient14470" x1=".0085663" x2="1" y1="-.016419" gradientTransform="matrix(-358.76 -1479.2 -1479.2 358.76 857.44 2400.4)" gradientUnits="userSpaceOnUse">
   <stop stop-color="#54c04c" offset="0"/>
   <stop stop-color="#2e954b" offset="1"/>
  </linearGradient>
  <linearGradient id="linearGradient15228" x2="1" gradientTransform="matrix(30.214 -48.635 48.635 30.214 -76.181 263.46)" gradientUnits="userSpaceOnUse">
   <stop stop-color="#2e954b" offset="0"/>
   <stop stop-color="#7ecd42" offset=".5843"/>
   <stop stop-color="#e6df20" offset=".99882"/>
   <stop stop-color="#e6df20" offset="1"/>
  </linearGradient>
  <linearGradient id="linearGradient37844" x2="1" gradientTransform="matrix(-17.108 -37.416 -28.893 15.841 -72.991 189.82)" gradientUnits="userSpaceOnUse" xlink:href="#linearGradient390"/>
  <linearGradient id="linearGradient37850" x2="1" gradientTransform="matrix(-6.3317 -27.567 -21.652 6.6606 -59.3 158.06)" gradientUnits="userSpaceOnUse" xlink:href="#linearGradient390"/>
  <linearGradient id="linearGradient37856" x2="1" gradientTransform="matrix(16.044 -14.646 10.766 13.668 -38.416 128.56)" gradientUnits="userSpaceOnUse" xlink:href="#linearGradient390"/>
  <linearGradient id="linearGradient37862" x1=".0015632" x2="1" y1="-.0087237" gradientTransform="matrix(28.039 -33.698 25.288 24.357 -71.267 208.75)" gradientUnits="userSpaceOnUse" xlink:href="#linearGradient390"/>
  <linearGradient id="linearGradient37868" x2="1" gradientTransform="matrix(24.608 -13.946 9.7091 20.467 -49.225 147.43)" gradientUnits="userSpaceOnUse" xlink:href="#linearGradient390"/>
  <linearGradient id="linearGradient8768" x1="300.3" x2="300.3" y1="63.365" y2="36.063" gradientTransform="matrix(.21663 0 0 .26458 -3.3868 15.242)" gradientUnits="userSpaceOnUse" xlink:href="#verde"/>
  <linearGradient id="linearGradient3985" x1="300.3" x2="300.3" y1="63.365" y2="36.063" gradientTransform="matrix(.21663 0 0 .26458 65.863 14.761)" gradientUnits="userSpaceOnUse" xlink:href="#verde"/>
  <linearGradient id="linearGradient3993" x1="300.3" x2="300.3" y1="63.365" y2="36.063" gradientTransform="matrix(.21663 0 0 .26458 100.45 14.548)" gradientUnits="userSpaceOnUse" xlink:href="#verde"/>
  <linearGradient id="linearGradient4003" x1="300.3" x2="300.3" y1="63.365" y2="36.063" gradientTransform="matrix(0 .21663 -.26458 0 189.02 -25)" gradientUnits="userSpaceOnUse" xlink:href="#verde"/>
  <linearGradient id="linearGradient4007" x1="300.3" x2="300.3" y1="63.365" y2="36.063" gradientTransform="matrix(0 .21663 -.26458 0 189.16 9.579)" gradientUnits="userSpaceOnUse" xlink:href="#verde"/>
  <linearGradient id="linearGradient4011" x1="300.3" x2="300.3" y1="63.365" y2="36.063" gradientTransform="matrix(0 .21663 -.26458 0 189.36 44.063)" gradientUnits="userSpaceOnUse" xlink:href="#verde"/>
  <linearGradient id="linearGradient4019" x1="300.3" x2="300.3" y1="63.365" y2="36.063" gradientTransform="matrix(0 -.21663 .26458 0 36.811 103.88)" gradientUnits="userSpaceOnUse" xlink:href="#verde"/>
  <linearGradient id="linearGradient4021" x1="300.3" x2="300.3" y1="63.365" y2="36.063" gradientTransform="matrix(0 -.21663 .26458 0 37.011 138.37)" gradientUnits="userSpaceOnUse" xlink:href="#verde"/>
  <linearGradient id="linearGradient4023" x1="300.3" x2="300.3" y1="63.365" y2="36.063" gradientTransform="matrix(0 -.21663 .26458 0 37.153 172.94)" gradientUnits="userSpaceOnUse" xlink:href="#verde"/>
  <linearGradient id="linearGradient4033" x1="300.3" x2="300.3" y1="63.365" y2="36.063" gradientTransform="matrix(-.21663 0 0 -.26458 125.5 133.4)" gradientUnits="userSpaceOnUse" xlink:href="#verde"/>
  <linearGradient id="linearGradient4035" x1="300.3" x2="300.3" y1="63.365" y2="36.063" gradientTransform="matrix(-.21663 0 0 -.26458 160.08 133.18)" gradientUnits="userSpaceOnUse" xlink:href="#verde"/>
  <linearGradient id="linearGradient4037" x1="300.3" x2="300.3" y1="63.365" y2="36.063" gradientTransform="matrix(-.21663 0 0 -.26458 194.74 132.89)" gradientUnits="userSpaceOnUse" xlink:href="#verde"/>
  <linearGradient id="linearGradient4039" x1="300.3" x2="300.3" y1="63.365" y2="36.063" gradientTransform="matrix(-.21663 0 0 -.26458 229.33 132.7)" gradientUnits="userSpaceOnUse" xlink:href="#verde"/>
  <linearGradient id="linearGradient4204" x1=".0085663" x2="1" y1="-.016419" gradientTransform="matrix(-358.76 -1479.2 -1479.2 358.76 857.44 2400.4)" gradientUnits="userSpaceOnUse" xlink:href="#linearGradient14470"/>
  <linearGradient id="linearGradient4206" x2="1" gradientTransform="matrix(30.214 -48.635 48.635 30.214 -76.181 263.46)" gradientUnits="userSpaceOnUse" xlink:href="#linearGradient15228"/>
 </defs>
 <g transform="translate(-41.437 -12.258)">
  <path d="m55.11 26.328h101.22v72.878h-101.22z" fill="#bcdba1"/>
  <text x="68.420998" y="131.29288" dominant-baseline="auto" fill="#4d4d4d" font-family="'Arial Rounded MT Bold'" font-size="18.91px" letter-spacing="0px" stroke-width=".47275" word-spacing="0px" style="font-feature-settings:normal;font-variant-alternates:normal;font-variant-caps:normal;font-variant-ligatures:normal;font-variant-numeric:normal;font-variant-position:normal;line-height:1.25;shape-padding:0;text-decoration-color:#000000;text-decoration-line:none;text-decoration-style:solid;text-indent:0;text-orientation:mixed;text-transform:none;white-space:normal" xml:space="preserve"><tspan x="68.420998" y="148.33374" stroke-width=".47275"/></text>
  <g transform="matrix(.80338 0 0 .80338 14.828 3.0175)">
   <g transform="matrix(-.34397 -.023322 -.023322 .34397 162.39 9.3453)">
    <path d="m-94.609 221.12c-4.6021-12.13-8.0819-26.903-8.0819-26.903s8.6953 7.088 14.878 18.613c6.1876 11.53 6.8312 18.592 4.5346 20.925-1.2975 1.318-6.7289-0.50631-11.33-12.635z" fill="url(#linearGradient37826)"/>
    <path d="m-97.267 286.3c-11.375-13.883-18.451-32.882-18.451-32.882s10.534 6.6252 23.715 19.019c13.19 12.398 17.142 21.376 15.157 25.446-1.1215 2.2997-9.0477 2.2977-20.421-11.583z" fill="url(#linearGradient37804)"/>
    <g transform="matrix(.13333 0 0 -.13333 -148.26 449.33)" clip-path="url(#clipPath14464)">
     <path d="m658.13 882.58c-1.418 2.141-35.367 54.012-70.656 157.32-32.473 95.01-71.981 253.23-75.805 467.31-3.469 189.25 28.695 370.32 95.457 538.1 67.441 169.39 159.39 290.49 222.4 361.89l2.8719-3.0842c-62.281-70.49-146.37-197.18-213.02-364.6-65.977-165.83-97.75-344.87-94.391-532.05 3.84-211.98 42.899-368.51 75.036-462.48 34.656-101.53 68.64-153.42 68.996-153.91l-10.883-8.5" fill="url(#linearGradient4204)"/>
    </g>
    <path d="m-58.593 248.1c8.464-15.077 9.6401-29.193 9.6401-29.193s-14.231 8.948-22.837 24.487c-7.2557 13.112-6.1805 19.654-4.5891 21.248 2.3539 2.3579 9.3219-1.464 17.785-16.541z" fill="url(#linearGradient4206)"/>
    <path d="m-42.928 319.62" fill="#f7921e"/>
    <g fill="#31994b">
     <path d="m-71.928 302.99c-14.114-16.687-24.85-27.968-37.275-41.951 12.822 15.47 26.983 31.744 38.466 46.411z"/>
     <path d="m-77.409 266.42c8.9798-19.926 15.823-27.037 24.922-42.774-9.4471 16.9-17.648 29.879-24.654 47.139z"/>
     <path d="m-79.18 240.25c-8.9798-19.926-11.581-25.446-20.68-41.183 9.4471 16.9 13.405 28.288 20.411 45.548z"/>
    </g>
    <g>
     <path d="m-84.465 177.18c-4.3444-11.451-7.6293-25.396-7.6293-25.396s8.2083 6.6911 14.045 17.571c5.8411 10.884 6.4486 17.55 4.2806 19.753-1.2248 1.2442-6.3521-0.47795-10.696-11.927z" fill="url(#linearGradient37844)"/>
     <path d="m-72.296 192.18c-5.0871-15.542-9.752-23.053-17.414-36.305 7.9554 14.232 13.138 27.285 16.563 39.169z" fill="#47b14c"/>
     <path d="m-65.274 147.95c-1.3376-8.313-1.616-18.159-1.616-18.159s4.5994 5.6436 7.0208 13.779c2.424 8.1391 1.9089 12.712 0.14361 13.894-0.99728 0.66799-4.211-1.2026-5.5485-9.5145z" fill="url(#linearGradient37850)"/>
     <path d="m-59.159 159.74c-1.2705-11.171-3.3703-16.875-6.6925-26.861 3.3836 10.686 5.0637 20.195 5.7223 28.671z" fill="#4eb94c"/>
     <path d="m-30.228 124.79c4.4772-4.6664 8.9551-10.764 8.9551-10.764s-5.3712 1.5551-10.455 5.6357c-5.0874 4.0819-6.7601 7.1954-6.1617 8.7136 0.33806 0.85769 3.1853 1.0804 7.6619-3.5854z" fill="url(#linearGradient37856)"/>
     <path d="m-39.008 129.91c5.6835-6.5008 9.2703-9.5289 15.732-14.385-6.8065 5.2716-11.474 10.087-15.594 15.153z" fill="#54c04c"/>
     <path d="m-55.937 198.95c7.6648-10.562 16.616-21.157 16.616-21.157s-13.238 1.3851-22.278 10.943c-9.0457 9.5616-11.784 15.458-9.8927 18.675 1.1655 1.982 7.8908 2.0991 15.555-8.4615z" fill="url(#linearGradient37862)"/>
     <path d="m-75.958 213.46c12.025-18.389 19.813-24.368 32.521-32.847-14.462 9.2924-24.005 20.833-33.411 37.155z" fill="#42ac4c"/>
     <path d="m-37.738 145.01c7.0346-4.6271 14.484-11.071 14.484-11.071s-7.2684 0.4188-14.904 4.1266c-7.6399 3.7084-10.665 7.1764-10.345 9.2768 0.18078 1.1866 3.7306 2.2937 10.764-2.3328z" fill="url(#linearGradient37868)"/>
     <path d="m-53.092 150.18c9.0969-6.6064 17.253-10.629 26.862-14.922-10.167 4.7208-20.845 11.621-27.542 16.86z" fill="#4fbb4c"/>
    </g>
   </g>
   <g>
    <path d="m173 90.286s-1.5452 0.26682-1.0156 1.152c0.52807 0.88433 0.86639 1.7102 0.86858 3.6283 0 1.9181 0.0152 25.987 0.017 27.286 7.9e-4 1.2977-0.11233 2.1235-0.41247 2.6261-0.30124 0.50142-0.22613 1.0618 0.82864 1.4453 1.0544 0.38329 4.6539 0.80643 6.4773-0.21027 1.3559-0.75704 0.0353-1.121 0.0353-1.6227 0-0.50229-0.0183-28.851-0.0183-30.266-1e-3 -1.4163-0.15244-2.4208 0.26207-2.7745 0.41423-0.35452 0.45131-1.4745-0.79152-1.3853-1.2422 0.0887-3.6904 0.79892-6.2509 0.12117" fill="url(#linearGradient4011)"/>
    <path d="m172.79 55.803s-1.5452 0.26682-1.0156 1.152c0.52807 0.88433 0.86639 1.7102 0.86858 3.6283 0 1.9181 0.0152 25.987 0.017 27.286 7.9e-4 1.2977-0.11233 2.1235-0.41247 2.6261-0.30124 0.50142-0.22613 1.0618 0.82864 1.4453 1.0544 0.38329 4.6539 0.80643 6.4773-0.21027 1.3559-0.75704 0.0353-1.121 0.0353-1.6227 0-0.50229-0.0183-28.851-0.0183-30.266-1e-3 -1.4163-0.15244-2.4208 0.26207-2.7745 0.41423-0.35452 0.45131-1.4745-0.79152-1.3853-1.2422 0.0887-3.6904 0.79892-6.2509 0.12117" fill="url(#linearGradient4007)"/>
    <path d="m146.67 30.913s0.26682 1.5452 1.152 1.0156c0.88433-0.52807 1.7102-0.86639 3.6283-0.86858 1.9181 0 25.987-0.0152 27.286-0.017 1.2977-7.9e-4 2.1235 0.11233 2.6261 0.41247 0.50142 0.30124 1.0618 0.22613 1.4453-0.82864 0.38329-1.0544 0.80643-4.6539-0.21027-6.4773-0.75704-1.3559-1.121-0.0353-1.6227-0.0353-0.50229 0-28.851 0.0183-30.266 0.0183-1.4163 1e-3 -2.4208 0.15244-2.7745-0.26207-0.35452-0.41423-1.4745-0.45131-1.3853 0.79152 0.0887 1.2422 0.79892 3.6904 0.12117 6.2509" fill="url(#linearGradient3993)"/>
   </g>
   <g transform="matrix(-.08561 .25035 .25035 .08561 89.572 21.564)">
    <path d="m-94.609 221.12c-4.6021-12.13-8.0819-26.903-8.0819-26.903s8.6953 7.088 14.878 18.613c6.1876 11.53 6.8312 18.592 4.5346 20.925-1.2975 1.318-6.7289-0.50631-11.33-12.635z" fill="url(#linearGradient37826)"/>
    <path d="m-97.267 286.3c-11.375-13.883-18.451-32.882-18.451-32.882s10.534 6.6252 23.715 19.019c13.19 12.398 17.142 21.376 15.157 25.446-1.1215 2.2997-9.0477 2.2977-20.421-11.583z" fill="url(#linearGradient37804)"/>
    <g transform="matrix(.13333 0 0 -.13333 -148.26 449.33)" clip-path="url(#clipPath14464)">
     <path d="m658.13 882.58c-1.418 2.141-35.367 54.012-70.656 157.32-32.473 95.01-71.981 253.23-75.805 467.31-3.469 189.25 28.695 370.32 95.457 538.1 67.441 169.39 159.39 290.49 222.4 361.89l2.8719-3.0842c-62.281-70.49-146.37-197.18-213.02-364.6-65.977-165.83-97.75-344.87-94.391-532.05 3.84-211.98 42.899-368.51 75.036-462.48 34.656-101.53 68.64-153.42 68.996-153.91l-10.883-8.5" fill="url(#linearGradient4204)"/>
    </g>
    <path d="m-58.593 248.1c8.464-15.077 9.6401-29.193 9.6401-29.193s-14.231 8.948-22.837 24.487c-7.2557 13.112-6.1805 19.654-4.5891 21.248 2.3539 2.3579 9.3219-1.464 17.785-16.541z" fill="url(#linearGradient4206)"/>
    <path d="m-42.928 319.62" fill="#f7921e"/>
    <g fill="#31994b">
     <path d="m-71.928 302.99c-14.114-16.687-24.85-27.968-37.275-41.951 12.822 15.47 26.983 31.744 38.466 46.411z"/>
     <path d="m-77.409 266.42c8.9798-19.926 15.823-27.037 24.922-42.774-9.4471 16.9-17.648 29.879-24.654 47.139z"/>
     <path d="m-79.18 240.25c-8.9798-19.926-11.581-25.446-20.68-41.183 9.4471 16.9 13.405 28.288 20.411 45.548z"/>
    </g>
    <g>
     <path d="m-84.465 177.18c-4.3444-11.451-7.6293-25.396-7.6293-25.396s8.2083 6.6911 14.045 17.571c5.8411 10.884 6.4486 17.55 4.2806 19.753-1.2248 1.2442-6.3521-0.47795-10.696-11.927z" fill="url(#linearGradient37844)"/>
     <path d="m-72.296 192.18c-5.0871-15.542-9.752-23.053-17.414-36.305 7.9554 14.232 13.138 27.285 16.563 39.169z" fill="#47b14c"/>
     <path d="m-65.274 147.95c-1.3376-8.313-1.616-18.159-1.616-18.159s4.5994 5.6436 7.0208 13.779c2.424 8.1391 1.9089 12.712 0.14361 13.894-0.99728 0.66799-4.211-1.2026-5.5485-9.5145z" fill="url(#linearGradient37850)"/>
     <path d="m-59.159 159.74c-1.2705-11.171-3.3703-16.875-6.6925-26.861 3.3836 10.686 5.0637 20.195 5.7223 28.671z" fill="#4eb94c"/>
     <path d="m-30.228 124.79c4.4772-4.6664 8.9551-10.764 8.9551-10.764s-5.3712 1.5551-10.455 5.6357c-5.0874 4.0819-6.7601 7.1954-6.1617 8.7136 0.33806 0.85769 3.1853 1.0804 7.6619-3.5854z" fill="url(#linearGradient37856)"/>
     <path d="m-39.008 129.91c5.6835-6.5008 9.2703-9.5289 15.732-14.385-6.8065 5.2716-11.474 10.087-15.594 15.153z" fill="#54c04c"/>
     <path d="m-55.937 198.95c7.6648-10.562 16.616-21.157 16.616-21.157s-13.238 1.3851-22.278 10.943c-9.0457 9.5616-11.784 15.458-9.8927 18.675 1.1655 1.982 7.8908 2.0991 15.555-8.4615z" fill="url(#linearGradient37862)"/>
     <path d="m-75.958 213.46c12.025-18.389 19.813-24.368 32.521-32.847-14.462 9.2924-24.005 20.833-33.411 37.155z" fill="#42ac4c"/>
     <path d="m-37.738 145.01c7.0346-4.6271 14.484-11.071 14.484-11.071s-7.2684 0.4188-14.904 4.1266c-7.6399 3.7084-10.665 7.1764-10.345 9.2768 0.18078 1.1866 3.7306 2.2937 10.764-2.3328z" fill="url(#linearGradient37868)"/>
     <path d="m-53.092 150.18c9.0969-6.6064 17.253-10.629 26.862-14.922-10.167 4.7208-20.845 11.621-27.542 16.86z" fill="#4fbb4c"/>
    </g>
   </g>
   <g>
    <path d="m112.09 31.126s0.26682 1.5452 1.152 1.0156c0.88433-0.52807 1.7102-0.86639 3.6283-0.86858 1.9181 0 25.987-0.0152 27.286-0.017 1.2977-7.9e-4 2.1235 0.11233 2.6261 0.41247 0.50142 0.30124 1.0618 0.22613 1.4453-0.82864 0.38329-1.0544 0.80643-4.6539-0.21027-6.4773-0.75704-1.3559-1.121-0.0353-1.6227-0.0353-0.50229 0-28.851 0.0183-30.266 0.0183-1.4163 1e-3 -2.4208 0.15244-2.7745-0.26207-0.35452-0.41423-1.4745-0.45131-1.3853 0.79152 0.0887 1.2422 0.79892 3.6904 0.12117 6.2509" fill="url(#linearGradient3985)"/>
    <path d="m77.426 31.418s0.26682 1.5452 1.152 1.0156c0.88433-0.52807 1.7102-0.86639 3.6283-0.86858 1.9181 0 25.987-0.0152 27.286-0.017 1.2977-7.9e-4 2.1235 0.11233 2.6261 0.41247 0.50142 0.30124 1.0618 0.22613 1.4453-0.82864 0.38329-1.0544 0.80643-4.6539-0.21027-6.4773-0.75704-1.3559-1.121-0.0353-1.6227-0.0353-0.50229 0-28.851 0.0183-30.266 0.0183-1.4163 1e-3 -2.4208 0.15244-2.7745-0.26207-0.35452-0.41423-1.4745-0.45131-1.3853 0.79152 0.0887 1.2422 0.79892 3.6904 0.12117 6.2509" fill="url(#linearGradient8789)"/>
    <path d="m42.837 31.607s0.26683 1.5452 1.152 1.0156c0.88433-0.52807 1.7102-0.86639 3.6283-0.86858 1.9181 0 25.987-0.0152 27.286-0.017 1.2977-7.9e-4 2.1235 0.11233 2.6261 0.41247 0.50142 0.30124 1.0618 0.22613 1.4453-0.82864 0.38329-1.0544 0.80644-4.6539-0.21027-6.4773-0.75704-1.3559-1.121-0.0353-1.6227-0.0353-0.50228 0-28.851 0.0183-30.266 0.0183-1.4163 1e-3 -2.4208 0.15244-2.7745-0.26207-0.35452-0.41423-1.4745-0.45131-1.3853 0.79152 0.0887 1.2422 0.79892 3.6904 0.12116 6.2509" fill="url(#linearGradient8768)"/>
    <path d="m172.65 21.224s-1.5452 0.26682-1.0156 1.152c0.52807 0.88433 0.86639 1.7102 0.86858 3.6283 0 1.9181 0.0152 25.987 0.017 27.286 7.9e-4 1.2977-0.11233 2.1235-0.41247 2.6261-0.30124 0.50142-0.22613 1.0618 0.82864 1.4453 1.0544 0.38329 4.6539 0.80643 6.4773-0.21027 1.3559-0.75704 0.0353-1.121 0.0353-1.6227 0-0.50229-0.0183-28.851-0.0183-30.266-1e-3 -1.4163-0.15244-2.4208 0.26207-2.7745 0.41423-0.35452 0.45131-1.4745-0.79152-1.3853-1.2422 0.0887-3.6904 0.79892-6.2509 0.12117" fill="url(#linearGradient4003)"/>
    <path d="m53.176 57.658s1.5452-0.26682 1.0156-1.152c-0.52807-0.88433-0.86639-1.7102-0.86858-3.6283 0-1.9181-0.0152-25.987-0.017-27.286-7.9e-4 -1.2977 0.11233-2.1235 0.41247-2.6261 0.30124-0.50142 0.22613-1.0618-0.82864-1.4453-1.0544-0.38329-4.6539-0.80643-6.4773 0.21027-1.3559 0.75704-0.0353 1.121-0.0353 1.6227 0 0.50229 0.0183 28.851 0.0183 30.266 1e-3 1.4163 0.15244 2.4208-0.26207 2.7745-0.41423 0.35452-0.45131 1.4745 0.79152 1.3853 1.2422-0.0887 3.6904-0.79892 6.2509-0.12117" fill="url(#linearGradient4019)"/>
    <path d="m53.376 92.142s1.5452-0.26682 1.0156-1.152c-0.52807-0.88433-0.86639-1.7102-0.86858-3.6283 0-1.9181-0.0152-25.987-0.017-27.286-7.9e-4 -1.2977 0.11233-2.1235 0.41247-2.6261 0.30124-0.50142 0.22613-1.0618-0.82864-1.4453-1.0544-0.38329-4.6539-0.80643-6.4773 0.21027-1.3559 0.75704-0.0353 1.121-0.0353 1.6227 0 0.50229 0.0183 28.851 0.0183 30.266 1e-3 1.4163 0.15244 2.4208-0.26207 2.7745-0.41423 0.35452-0.45131 1.4745 0.79152 1.3853 1.2422-0.0887 3.6904-0.79892 6.2509-0.12117" fill="url(#linearGradient4021)"/>
    <path d="m53.518 126.72s1.5452-0.26682 1.0156-1.152c-0.52807-0.88433-0.86639-1.7102-0.86858-3.6283 0-1.9181-0.0152-25.987-0.017-27.286-7.9e-4 -1.2977 0.11233-2.1235 0.41247-2.6261 0.30124-0.50142 0.22613-1.0618-0.82864-1.4453-1.0544-0.38329-4.6539-0.80643-6.4773 0.21027-1.3559 0.75704-0.0353 1.121-0.0353 1.6227 0 0.50229 0.0183 28.851 0.0183 30.266 1e-3 1.4163 0.15244 2.4208-0.26207 2.7745-0.41423 0.35452-0.45131 1.4745 0.79152 1.3853 1.2422-0.0887 3.6904-0.79892 6.2509-0.12117" fill="url(#linearGradient4023)"/>
   </g>
   <g transform="matrix(.26291 -.029722 .029722 .26291 56.013 30.891)">
    <path d="m-94.609 221.12c-4.6021-12.13-8.0819-26.903-8.0819-26.903s8.6953 7.088 14.878 18.613c6.1876 11.53 6.8312 18.592 4.5346 20.925-1.2975 1.318-6.7289-0.50631-11.33-12.635z" fill="url(#linearGradient37826)"/>
    <path d="m-97.267 286.3c-11.375-13.883-18.451-32.882-18.451-32.882s10.534 6.6252 23.715 19.019c13.19 12.398 17.142 21.376 15.157 25.446-1.1215 2.2997-9.0477 2.2977-20.421-11.583z" fill="url(#linearGradient37804)"/>
    <g transform="matrix(.13333 0 0 -.13333 -148.26 449.33)" clip-path="url(#clipPath14464)">
     <path d="m658.13 882.58c-1.418 2.141-35.367 54.012-70.656 157.32-32.473 95.01-71.981 253.23-75.805 467.31-3.469 189.25 28.695 370.32 95.457 538.1 67.441 169.39 159.39 290.49 222.4 361.89l2.8719-3.0842c-62.281-70.49-146.37-197.18-213.02-364.6-65.977-165.83-97.75-344.87-94.391-532.05 3.84-211.98 42.899-368.51 75.036-462.48 34.656-101.53 68.64-153.42 68.996-153.91l-10.883-8.5" fill="url(#linearGradient4204)"/>
    </g>
    <path d="m-58.593 248.1c8.464-15.077 9.6401-29.193 9.6401-29.193s-14.231 8.948-22.837 24.487c-7.2557 13.112-6.1805 19.654-4.5891 21.248 2.3539 2.3579 9.3219-1.464 17.785-16.541z" fill="url(#linearGradient4206)"/>
    <path d="m-42.928 319.62" fill="#f7921e"/>
    <g fill="#31994b">
     <path d="m-71.928 302.99c-14.114-16.687-24.85-27.968-37.275-41.951 12.822 15.47 26.983 31.744 38.466 46.411z"/>
     <path d="m-77.409 266.42c8.9798-19.926 15.823-27.037 24.922-42.774-9.4471 16.9-17.648 29.879-24.654 47.139z"/>
     <path d="m-79.18 240.25c-8.9798-19.926-11.581-25.446-20.68-41.183 9.4471 16.9 13.405 28.288 20.411 45.548z"/>
    </g>
    <g>
     <path d="m-84.465 177.18c-4.3444-11.451-7.6293-25.396-7.6293-25.396s8.2083 6.6911 14.045 17.571c5.8411 10.884 6.4486 17.55 4.2806 19.753-1.2248 1.2442-6.3521-0.47795-10.696-11.927z" fill="url(#linearGradient37844)"/>
     <path d="m-72.296 192.18c-5.0871-15.542-9.752-23.053-17.414-36.305 7.9554 14.232 13.138 27.285 16.563 39.169z" fill="#47b14c"/>
     <path d="m-65.274 147.95c-1.3376-8.313-1.616-18.159-1.616-18.159s4.5994 5.6436 7.0208 13.779c2.424 8.1391 1.9089 12.712 0.14361 13.894-0.99728 0.66799-4.211-1.2026-5.5485-9.5145z" fill="url(#linearGradient37850)"/>
     <path d="m-59.159 159.74c-1.2705-11.171-3.3703-16.875-6.6925-26.861 3.3836 10.686 5.0637 20.195 5.7223 28.671z" fill="#4eb94c"/>
     <path d="m-30.228 124.79c4.4772-4.6664 8.9551-10.764 8.9551-10.764s-5.3712 1.5551-10.455 5.6357c-5.0874 4.0819-6.7601 7.1954-6.1617 8.7136 0.33806 0.85769 3.1853 1.0804 7.6619-3.5854z" fill="url(#linearGradient37856)"/>
     <path d="m-39.008 129.91c5.6835-6.5008 9.2703-9.5289 15.732-14.385-6.8065 5.2716-11.474 10.087-15.594 15.153z" fill="#54c04c"/>
     <path d="m-55.937 198.95c7.6648-10.562 16.616-21.157 16.616-21.157s-13.238 1.3851-22.278 10.943c-9.0457 9.5616-11.784 15.458-9.8927 18.675 1.1655 1.982 7.8908 2.0991 15.555-8.4615z" fill="url(#linearGradient37862)"/>
     <path d="m-75.958 213.46c12.025-18.389 19.813-24.368 32.521-32.847-14.462 9.2924-24.005 20.833-33.411 37.155z" fill="#42ac4c"/>
     <path d="m-37.738 145.01c7.0346-4.6271 14.484-11.071 14.484-11.071s-7.2684 0.4188-14.904 4.1266c-7.6399 3.7084-10.665 7.1764-10.345 9.2768 0.18078 1.1866 3.7306 2.2937 10.764-2.3328z" fill="url(#linearGradient37868)"/>
     <path d="m-53.092 150.18c9.0969-6.6064 17.253-10.629 26.862-14.922-10.167 4.7208-20.845 11.621-27.542 16.86z" fill="#4fbb4c"/>
    </g>
   </g>
   <g>
    <path d="m79.271 117.03s-0.26682-1.5452-1.152-1.0156c-0.88433 0.52807-1.7102 0.86639-3.6283 0.86858-1.9181 0-25.987 0.0152-27.286 0.017-1.2977 7.9e-4 -2.1235-0.11233-2.6261-0.41247-0.50142-0.30124-1.0618-0.22613-1.4453 0.82864-0.38329 1.0544-0.80643 4.6539 0.21027 6.4773 0.75704 1.3559 1.121 0.0353 1.6227 0.0353 0.50229 0 28.851-0.0183 30.266-0.0183 1.4163-1e-3 2.4208-0.15244 2.7745 0.26207 0.35452 0.41423 1.4745 0.45131 1.3853-0.79152-0.0887-1.2422-0.79892-3.6904-0.12117-6.2509" fill="url(#linearGradient4033)"/>
    <path d="m113.86 116.82s-0.26682-1.5452-1.152-1.0156c-0.88433 0.52807-1.7102 0.86639-3.6283 0.86858-1.9181 0-25.987 0.0152-27.286 0.017-1.2977 7.9e-4 -2.1235-0.11233-2.6261-0.41247-0.50142-0.30124-1.0618-0.22613-1.4453 0.82864-0.38329 1.0544-0.80643 4.6539 0.21027 6.4773 0.75704 1.3559 1.121 0.0353 1.6227 0.0353 0.50229 0 28.851-0.0183 30.266-0.0183 1.4163-1e-3 2.4208-0.15244 2.7745 0.26207 0.35452 0.41423 1.4745 0.45131 1.3853-0.79152-0.0887-1.2422-0.79892-3.6904-0.12117-6.2509" fill="url(#linearGradient4035)"/>
    <path d="m148.52 116.53s-0.26682-1.5452-1.152-1.0156c-0.88433 0.52807-1.7102 0.86639-3.6283 0.86858-1.9181 0-25.987 0.0152-27.286 0.017-1.2977 7.9e-4 -2.1235-0.11233-2.6261-0.41247-0.50142-0.30124-1.0618-0.22613-1.4453 0.82864-0.38329 1.0544-0.80643 4.6539 0.21027 6.4773 0.75704 1.3559 1.121 0.0353 1.6227 0.0353 0.50229 0 28.851-0.0183 30.266-0.0183 1.4163-1e-3 2.4208-0.15244 2.7745 0.26207 0.35452 0.41423 1.4745 0.45131 1.3853-0.79152-0.0887-1.2422-0.79892-3.6904-0.12117-6.2509" fill="url(#linearGradient4037)"/>
    <path d="m183.11 116.34s-0.26683-1.5452-1.152-1.0156c-0.88433 0.52807-1.7102 0.86639-3.6283 0.86858-1.9181 0-25.987 0.0152-27.286 0.017-1.2977 7.9e-4 -2.1235-0.11233-2.6261-0.41247-0.50142-0.30124-1.0618-0.22613-1.4453 0.82864-0.38329 1.0544-0.80644 4.6539 0.21027 6.4773 0.75704 1.3559 1.121 0.0353 1.6227 0.0353 0.50228 0 28.851-0.0183 30.266-0.0183 1.4163-1e-3 2.4208-0.15244 2.7745 0.26207 0.35452 0.41423 1.4745 0.45131 1.3853-0.79152-0.0887-1.2422-0.79892-3.6904-0.12116-6.2509" fill="url(#linearGradient4039)"/>
   </g>
   <g transform="rotate(2.6252 -538.42 2391.2)">
    <path d="m-55.141-1.1568c-0.08978 7e-3 -0.1799 0.0327-0.26458 0.0775-1.4581 0.79393-2.6856 1.7742-3.8421 2.9585h-0.0057c-1.1973 1.2612-2.2128 2.5846-3.1337 4.0798-0.45434 0.74259-0.70728 1.2443-0.74104 1.3131-0.14701 0.29927-0.0619 0.65125 0.18397 0.85421l-0.0026 5.3e-4c0.0019 1e-3 0.0072 4e-3 0.0093 6e-3 0.0028 2e-3 0.0049 5e-3 0.0078 7e-3l0.0026-5.3e-4c0.36715 0.2764 0.83818 0.15502 1.0154-0.19119 0.44262-0.74586 0.8152-1.4421 1.2428-2.0815 0.44405-0.658 1.0517-1.4768 1.7131-2.2407 1.0431-1.2469 2.1991-2.1693 3.5398-3.0908 0.24509-0.15529 0.4291-0.257 0.65009-0.37259 0.33983-0.18133 0.47254-0.60294 0.29559-0.9462-0.13208-0.25638-0.40143-0.39518-0.67076-0.3731z" fill="#c59726"/>
    <path d="m-54.634-1.0046c0.06173 0.29951-0.0771 0.61569-0.35863 0.76533-0.88339 0.46952-1.7287 1.0807-2.5022 1.7575-0.58833 0.52852-1.2027 1.1518-1.7224 1.7467-0.57748 0.66935-1.1374 1.4781-1.6692 2.1875-0.60028 0.80081-0.86489 1.7874-1.5555 2.3534-0.16499 0.0765-0.29844 0.0782-0.54467 0.0294 0.14859 0.2822 0.31193 0.3116 0.64027 0.35193 0.42858-0.0544 0.56761-0.4258 0.66462-0.60071 0.09092-0.16393 0.83749-1.4114 1.1105-1.8229 0.48802-0.72227 1.1355-1.5555 1.6753-2.187 0.49699-0.56965 1.1792-1.247 1.7089-1.7281 0.81274-0.67543 1.6125-1.2815 2.498-1.7508 0.15677-0.0831 0.27034-0.22012 0.31884-0.39016 0.05993-0.33004-0.05202-0.55392-0.26407-0.7121z" fill="#9f5a1b"/>
    <path d="m-55.535-0.97154c-1.9753 1.0486-3.772 2.9536-5.0472 4.5641-0.71179 0.91195-1.4037 1.8701-1.9301 2.6758-0.16679 0.27674-0.53386 0.85546-0.53227 1.018 5.29e-4 0.0531 0.03838 0.11218 0.11627 0.14315 0.1884 0.0749 0.29898-0.11875 0.32556-0.16227 0.11414-0.18689 0.54834-0.86894 1.0464-1.5849 0.41024-0.58967 1.0372-1.4253 1.6226-2.143 0.54039-0.66242 1.1445-1.3133 1.6676-1.8366 0.91169-0.86903 1.8765-1.6904 2.9213-2.236 0.11102-0.058 0.16665-0.20495 0.1049-0.32402-0.07896-0.15225-0.20956-0.1596-0.29508-0.1142z" fill="#e0c97e"/>
    <path d="m-55.079-1.2757c-0.12142-2.7e-4 -0.24245 0.0305-0.35037 0.0873-0.70735 0.37218-1.4109 0.83268-2.0934 1.3689l-0.1142 0.0904 0.0031 5.3e-4c-0.57288 0.4591-1.1383 0.97518-1.6857 1.5426-0.0053 5e-3 -0.01074 0.0105-0.01603 0.016l-0.10335 0.1049h0.0052c-0.51894 0.54575-1.029 1.1414-1.5177 1.7777-0.0051 7e-3 -0.0104 0.013-0.0155 0.0196l-0.0832 0.11007h0.0031c-0.49737 0.657-0.96498 1.3393-1.3875 2.0288l-0.06149 0.10026h0.0021c-0.41939 0.69649-0.65682 1.1653-0.68213 1.217-0.14379 0.29027-0.08858 0.63411 0.12351 0.86299l-0.01447 4e-3 0.09663 0.0734c0.0021 2e-3 4e-3 4e-3 0.0062 6e-3l0.02119 0.016 0.0036-1e-3c0.03296 0.0238 0.06491 0.0454 0.09767 0.062 0.10128 0.0497 0.21385 0.078 0.3266 0.0791l0.02066-5.2e-4c0.27408-6e-3 0.51983-0.16097 0.6444-0.40042l0.0027-5.3e-4 0.01241-0.0238c0.01614-0.0368 0.4341-0.86526 1.2046-2.0076l0.01498-0.0233c0.51678-0.76759 1.0702-1.4935 1.6474-2.1632h0.0011l0.01394-0.0181c0.5481-0.63113 1.1206-1.2122 1.7012-1.7265h0.0016l0.01497-0.015c0.58124-0.51229 1.1827-0.9612 1.7823-1.3379h5.29e-4l0.01654-0.0114c0.24941-0.1531 0.47452-0.28532 0.69402-0.39997 0.1833-0.0963 0.31603-0.26246 0.37569-0.46354 0.0551-0.1905 0.03578-0.39088-0.05478-0.56586-0.12856-0.24799-0.38074-0.40471-0.65784-0.40823zm-5.29e-4 0.12247c0.23742 3e-3 0.45173 0.13391 0.56017 0.34417 0.07539 0.14605 0.09161 0.31289 0.04599 0.47129-0.04851 0.17003-0.16161 0.30795-0.31884 0.39015-0.21467 0.1136-0.43826 0.24366-0.68316 0.39429l-1.8671-0.2558c0.6423-0.49565 1.3009-0.92182 1.9611-1.2707 0.09317-0.0494 0.1979-0.0741 0.30179-0.0734zm-2.3957 1.4475 0.75448 0.10335 1.0852 0.15038c-0.55715 0.35926-1.1133 0.77941-1.6547 1.2552l-1.8681 0.01c0.54737-0.55845 1.1126-1.0693 1.6831-1.5188zm0.04754 1.6325c-0.54219 0.48867-1.0774 1.0344-1.5911 1.6262l-1.7766 0.14676c0.49143-0.6328 1.0013-1.2258 1.5198-1.7653l0.34261-2e-3zm-1.7033 1.758c-0.54475 0.63684-1.068 1.327-1.5575 2.0536l-1.1911 0.0739-0.39894 0.0243c0.42154-0.68157 0.88632-1.3578 1.3834-2.0066zm-1.6443 2.1813c-0.67764 1.0151-1.0686 1.7658-1.1441 1.9146l-0.99994 0.23927c-0.22085-0.1881-0.28949-0.50924-0.1602-0.7736 0.02684-0.0554 0.27382-0.54634 0.72347-1.2836zm-1.2351 2.0614c-0.11686 0.14817-0.29391 0.23626-0.48679 0.24081l-0.01757 2e-3c-0.09052 0-0.17954-0.0214-0.26252-0.0584l0.30386-0.0734z" fill="#8d7129"/>
   </g>
   <g transform="matrix(-.99957 .029395 .029395 .99957 -8.8585 26.487)">
    <path d="m-55.141-1.1568c-0.08978 7e-3 -0.1799 0.0327-0.26458 0.0775-1.4581 0.79393-2.6856 1.7742-3.8421 2.9585h-0.0057c-1.1973 1.2612-2.2128 2.5846-3.1337 4.0798-0.45434 0.74259-0.70728 1.2443-0.74104 1.3131-0.14701 0.29927-0.0619 0.65125 0.18397 0.85421l-0.0026 5.3e-4c0.0019 1e-3 0.0072 4e-3 0.0093 6e-3 0.0028 2e-3 0.0049 5e-3 0.0078 7e-3l0.0026-5.3e-4c0.36715 0.2764 0.83818 0.15502 1.0154-0.19119 0.44262-0.74586 0.8152-1.4421 1.2428-2.0815 0.44405-0.658 1.0517-1.4768 1.7131-2.2407 1.0431-1.2469 2.1991-2.1693 3.5398-3.0908 0.24509-0.15529 0.4291-0.257 0.65009-0.37259 0.33983-0.18133 0.47254-0.60294 0.29559-0.9462-0.13208-0.25638-0.40143-0.39518-0.67076-0.3731z" fill="#c59726"/>
    <path d="m-54.634-1.0046c0.06173 0.29951-0.0771 0.61569-0.35863 0.76533-0.88339 0.46952-1.7287 1.0807-2.5022 1.7575-0.58833 0.52852-1.2027 1.1518-1.7224 1.7467-0.57748 0.66935-1.1374 1.4781-1.6692 2.1875-0.60028 0.80081-0.86489 1.7874-1.5555 2.3534-0.16499 0.0765-0.29844 0.0782-0.54467 0.0294 0.14859 0.2822 0.31193 0.3116 0.64027 0.35193 0.42858-0.0544 0.56761-0.4258 0.66462-0.60071 0.09092-0.16393 0.83749-1.4114 1.1105-1.8229 0.48802-0.72227 1.1355-1.5555 1.6753-2.187 0.49699-0.56965 1.1792-1.247 1.7089-1.7281 0.81274-0.67543 1.6125-1.2815 2.498-1.7508 0.15677-0.0831 0.27034-0.22012 0.31884-0.39016 0.05993-0.33004-0.05202-0.55392-0.26407-0.7121z" fill="#9f5a1b"/>
    <path d="m-55.535-0.97154c-1.9753 1.0486-3.772 2.9536-5.0472 4.5641-0.71179 0.91195-1.4037 1.8701-1.9301 2.6758-0.16679 0.27674-0.53386 0.85546-0.53227 1.018 5.29e-4 0.0531 0.03838 0.11218 0.11627 0.14315 0.1884 0.0749 0.29898-0.11875 0.32556-0.16227 0.11414-0.18689 0.54834-0.86894 1.0464-1.5849 0.41024-0.58967 1.0372-1.4253 1.6226-2.143 0.54039-0.66242 1.1445-1.3133 1.6676-1.8366 0.91169-0.86903 1.8765-1.6904 2.9213-2.236 0.11102-0.058 0.16665-0.20495 0.1049-0.32402-0.07896-0.15225-0.20956-0.1596-0.29508-0.1142z" fill="#e0c97e"/>
    <path d="m-55.079-1.2757c-0.12142-2.7e-4 -0.24245 0.0305-0.35037 0.0873-0.70735 0.37218-1.4109 0.83268-2.0934 1.3689l-0.1142 0.0904 0.0031 5.3e-4c-0.57288 0.4591-1.1383 0.97518-1.6857 1.5426-0.0053 5e-3 -0.01074 0.0105-0.01603 0.016l-0.10335 0.1049h0.0052c-0.51894 0.54575-1.029 1.1414-1.5177 1.7777-0.0051 7e-3 -0.0104 0.013-0.0155 0.0196l-0.0832 0.11007h0.0031c-0.49737 0.657-0.96498 1.3393-1.3875 2.0288l-0.06149 0.10026h0.0021c-0.41939 0.69649-0.65682 1.1653-0.68213 1.217-0.14379 0.29027-0.08858 0.63411 0.12351 0.86299l-0.01447 4e-3 0.09663 0.0734c0.0021 2e-3 4e-3 4e-3 0.0062 6e-3l0.02119 0.016 0.0036-1e-3c0.03296 0.0238 0.06491 0.0454 0.09767 0.062 0.10128 0.0497 0.21385 0.078 0.3266 0.0791l0.02066-5.2e-4c0.27408-6e-3 0.51983-0.16097 0.6444-0.40042l0.0027-5.3e-4 0.01241-0.0238c0.01614-0.0368 0.4341-0.86526 1.2046-2.0076l0.01498-0.0233c0.51678-0.76759 1.0702-1.4935 1.6474-2.1632h0.0011l0.01394-0.0181c0.5481-0.63113 1.1206-1.2122 1.7012-1.7265h0.0016l0.01497-0.015c0.58124-0.51229 1.1827-0.9612 1.7823-1.3379h5.29e-4l0.01654-0.0114c0.24941-0.1531 0.47452-0.28532 0.69402-0.39997 0.1833-0.0963 0.31603-0.26246 0.37569-0.46354 0.0551-0.1905 0.03578-0.39088-0.05478-0.56586-0.12856-0.24799-0.38074-0.40471-0.65784-0.40823zm-5.29e-4 0.12247c0.23742 3e-3 0.45173 0.13391 0.56017 0.34417 0.07539 0.14605 0.09161 0.31289 0.04599 0.47129-0.04851 0.17003-0.16161 0.30795-0.31884 0.39015-0.21467 0.1136-0.43826 0.24366-0.68316 0.39429l-1.8671-0.2558c0.6423-0.49565 1.3009-0.92182 1.9611-1.2707 0.09317-0.0494 0.1979-0.0741 0.30179-0.0734zm-2.3957 1.4475 0.75448 0.10335 1.0852 0.15038c-0.55715 0.35926-1.1133 0.77941-1.6547 1.2552l-1.8681 0.01c0.54737-0.55845 1.1126-1.0693 1.6831-1.5188zm0.04754 1.6325c-0.54219 0.48867-1.0774 1.0344-1.5911 1.6262l-1.7766 0.14676c0.49143-0.6328 1.0013-1.2258 1.5198-1.7653l0.34261-2e-3zm-1.7033 1.758c-0.54475 0.63684-1.068 1.327-1.5575 2.0536l-1.1911 0.0739-0.39894 0.0243c0.42154-0.68157 0.88632-1.3578 1.3834-2.0066zm-1.6443 2.1813c-0.67764 1.0151-1.0686 1.7658-1.1441 1.9146l-0.99994 0.23927c-0.22085-0.1881-0.28949-0.50924-0.1602-0.7736 0.02684-0.0554 0.27382-0.54634 0.72347-1.2836zm-1.2351 2.0614c-0.11686 0.14817-0.29391 0.23626-0.48679 0.24081l-0.01757 2e-3c-0.09052 0-0.17954-0.0214-0.26252-0.0584l0.30386-0.0734z" fill="#8d7129"/>
   </g>
   <g transform="rotate(2.6252 -463.14 5136.4)">
    <path d="m-55.141-1.1568c-0.08978 7e-3 -0.1799 0.0327-0.26458 0.0775-1.4581 0.79393-2.6856 1.7742-3.8421 2.9585h-0.0057c-1.1973 1.2612-2.2128 2.5846-3.1337 4.0798-0.45434 0.74259-0.70728 1.2443-0.74104 1.3131-0.14701 0.29927-0.0619 0.65125 0.18397 0.85421l-0.0026 5.3e-4c0.0019 1e-3 0.0072 4e-3 0.0093 6e-3 0.0028 2e-3 0.0049 5e-3 0.0078 7e-3l0.0026-5.3e-4c0.36715 0.2764 0.83818 0.15502 1.0154-0.19119 0.44262-0.74586 0.8152-1.4421 1.2428-2.0815 0.44405-0.658 1.0517-1.4768 1.7131-2.2407 1.0431-1.2469 2.1991-2.1693 3.5398-3.0908 0.24509-0.15529 0.4291-0.257 0.65009-0.37259 0.33983-0.18133 0.47254-0.60294 0.29559-0.9462-0.13208-0.25638-0.40143-0.39518-0.67076-0.3731z" fill="#c59726"/>
    <path d="m-54.634-1.0046c0.06173 0.29951-0.0771 0.61569-0.35863 0.76533-0.88339 0.46952-1.7287 1.0807-2.5022 1.7575-0.58833 0.52852-1.2027 1.1518-1.7224 1.7467-0.57748 0.66935-1.1374 1.4781-1.6692 2.1875-0.60028 0.80081-0.86489 1.7874-1.5555 2.3534-0.16499 0.0765-0.29844 0.0782-0.54467 0.0294 0.14859 0.2822 0.31193 0.3116 0.64027 0.35193 0.42858-0.0544 0.56761-0.4258 0.66462-0.60071 0.09092-0.16393 0.83749-1.4114 1.1105-1.8229 0.48802-0.72227 1.1355-1.5555 1.6753-2.187 0.49699-0.56965 1.1792-1.247 1.7089-1.7281 0.81274-0.67543 1.6125-1.2815 2.498-1.7508 0.15677-0.0831 0.27034-0.22012 0.31884-0.39016 0.05993-0.33004-0.05202-0.55392-0.26407-0.7121z" fill="#9f5a1b"/>
    <path d="m-55.535-0.97154c-1.9753 1.0486-3.772 2.9536-5.0472 4.5641-0.71179 0.91195-1.4037 1.8701-1.9301 2.6758-0.16679 0.27674-0.53386 0.85546-0.53227 1.018 5.29e-4 0.0531 0.03838 0.11218 0.11627 0.14315 0.1884 0.0749 0.29898-0.11875 0.32556-0.16227 0.11414-0.18689 0.54834-0.86894 1.0464-1.5849 0.41024-0.58967 1.0372-1.4253 1.6226-2.143 0.54039-0.66242 1.1445-1.3133 1.6676-1.8366 0.91169-0.86903 1.8765-1.6904 2.9213-2.236 0.11102-0.058 0.16665-0.20495 0.1049-0.32402-0.07896-0.15225-0.20956-0.1596-0.29508-0.1142z" fill="#e0c97e"/>
    <path d="m-55.079-1.2757c-0.12142-2.7e-4 -0.24245 0.0305-0.35037 0.0873-0.70735 0.37218-1.4109 0.83268-2.0934 1.3689l-0.1142 0.0904 0.0031 5.3e-4c-0.57288 0.4591-1.1383 0.97518-1.6857 1.5426-0.0053 5e-3 -0.01074 0.0105-0.01603 0.016l-0.10335 0.1049h0.0052c-0.51894 0.54575-1.029 1.1414-1.5177 1.7777-0.0051 7e-3 -0.0104 0.013-0.0155 0.0196l-0.0832 0.11007h0.0031c-0.49737 0.657-0.96498 1.3393-1.3875 2.0288l-0.06149 0.10026h0.0021c-0.41939 0.69649-0.65682 1.1653-0.68213 1.217-0.14379 0.29027-0.08858 0.63411 0.12351 0.86299l-0.01447 4e-3 0.09663 0.0734c0.0021 2e-3 4e-3 4e-3 0.0062 6e-3l0.02119 0.016 0.0036-1e-3c0.03296 0.0238 0.06491 0.0454 0.09767 0.062 0.10128 0.0497 0.21385 0.078 0.3266 0.0791l0.02066-5.2e-4c0.27408-6e-3 0.51983-0.16097 0.6444-0.40042l0.0027-5.3e-4 0.01241-0.0238c0.01614-0.0368 0.4341-0.86526 1.2046-2.0076l0.01498-0.0233c0.51678-0.76759 1.0702-1.4935 1.6474-2.1632h0.0011l0.01394-0.0181c0.5481-0.63113 1.1206-1.2122 1.7012-1.7265h0.0016l0.01497-0.015c0.58124-0.51229 1.1827-0.9612 1.7823-1.3379h5.29e-4l0.01654-0.0114c0.24941-0.1531 0.47452-0.28532 0.69402-0.39997 0.1833-0.0963 0.31603-0.26246 0.37569-0.46354 0.0551-0.1905 0.03578-0.39088-0.05478-0.56586-0.12856-0.24799-0.38074-0.40471-0.65784-0.40823zm-5.29e-4 0.12247c0.23742 3e-3 0.45173 0.13391 0.56017 0.34417 0.07539 0.14605 0.09161 0.31289 0.04599 0.47129-0.04851 0.17003-0.16161 0.30795-0.31884 0.39015-0.21467 0.1136-0.43826 0.24366-0.68316 0.39429l-1.8671-0.2558c0.6423-0.49565 1.3009-0.92182 1.9611-1.2707 0.09317-0.0494 0.1979-0.0741 0.30179-0.0734zm-2.3957 1.4475 0.75448 0.10335 1.0852 0.15038c-0.55715 0.35926-1.1133 0.77941-1.6547 1.2552l-1.8681 0.01c0.54737-0.55845 1.1126-1.0693 1.6831-1.5188zm0.04754 1.6325c-0.54219 0.48867-1.0774 1.0344-1.5911 1.6262l-1.7766 0.14676c0.49143-0.6328 1.0013-1.2258 1.5198-1.7653l0.34261-2e-3zm-1.7033 1.758c-0.54475 0.63684-1.068 1.327-1.5575 2.0536l-1.1911 0.0739-0.39894 0.0243c0.42154-0.68157 0.88632-1.3578 1.3834-2.0066zm-1.6443 2.1813c-0.67764 1.0151-1.0686 1.7658-1.1441 1.9146l-0.99994 0.23927c-0.22085-0.1881-0.28949-0.50924-0.1602-0.7736 0.02684-0.0554 0.27382-0.54634 0.72347-1.2836zm-1.2351 2.0614c-0.11686 0.14817-0.29391 0.23626-0.48679 0.24081l-0.01757 2e-3c-0.09052 0-0.17954-0.0214-0.26252-0.0584l0.30386-0.0734z" fill="#8d7129"/>
   </g>
   <g transform="matrix(-.99957 .029395 .029395 .99957 116.96 25.92)">
    <path d="m-55.141-1.1568c-0.08978 7e-3 -0.1799 0.0327-0.26458 0.0775-1.4581 0.79393-2.6856 1.7742-3.8421 2.9585h-0.0057c-1.1973 1.2612-2.2128 2.5846-3.1337 4.0798-0.45434 0.74259-0.70728 1.2443-0.74104 1.3131-0.14701 0.29927-0.0619 0.65125 0.18397 0.85421l-0.0026 5.3e-4c0.0019 1e-3 0.0072 4e-3 0.0093 6e-3 0.0028 2e-3 0.0049 5e-3 0.0078 7e-3l0.0026-5.3e-4c0.36715 0.2764 0.83818 0.15502 1.0154-0.19119 0.44262-0.74586 0.8152-1.4421 1.2428-2.0815 0.44405-0.658 1.0517-1.4768 1.7131-2.2407 1.0431-1.2469 2.1991-2.1693 3.5398-3.0908 0.24509-0.15529 0.4291-0.257 0.65009-0.37259 0.33983-0.18133 0.47254-0.60294 0.29559-0.9462-0.13208-0.25638-0.40143-0.39518-0.67076-0.3731z" fill="#c59726"/>
    <path d="m-54.634-1.0046c0.06173 0.29951-0.0771 0.61569-0.35863 0.76533-0.88339 0.46952-1.7287 1.0807-2.5022 1.7575-0.58833 0.52852-1.2027 1.1518-1.7224 1.7467-0.57748 0.66935-1.1374 1.4781-1.6692 2.1875-0.60028 0.80081-0.86489 1.7874-1.5555 2.3534-0.16499 0.0765-0.29844 0.0782-0.54467 0.0294 0.14859 0.2822 0.31193 0.3116 0.64027 0.35193 0.42858-0.0544 0.56761-0.4258 0.66462-0.60071 0.09092-0.16393 0.83749-1.4114 1.1105-1.8229 0.48802-0.72227 1.1355-1.5555 1.6753-2.187 0.49699-0.56965 1.1792-1.247 1.7089-1.7281 0.81274-0.67543 1.6125-1.2815 2.498-1.7508 0.15677-0.0831 0.27034-0.22012 0.31884-0.39016 0.05993-0.33004-0.05202-0.55392-0.26407-0.7121z" fill="#9f5a1b"/>
    <path d="m-55.535-0.97154c-1.9753 1.0486-3.772 2.9536-5.0472 4.5641-0.71179 0.91195-1.4037 1.8701-1.9301 2.6758-0.16679 0.27674-0.53386 0.85546-0.53227 1.018 5.29e-4 0.0531 0.03838 0.11218 0.11627 0.14315 0.1884 0.0749 0.29898-0.11875 0.32556-0.16227 0.11414-0.18689 0.54834-0.86894 1.0464-1.5849 0.41024-0.58967 1.0372-1.4253 1.6226-2.143 0.54039-0.66242 1.1445-1.3133 1.6676-1.8366 0.91169-0.86903 1.8765-1.6904 2.9213-2.236 0.11102-0.058 0.16665-0.20495 0.1049-0.32402-0.07896-0.15225-0.20956-0.1596-0.29508-0.1142z" fill="#e0c97e"/>
    <path d="m-55.079-1.2757c-0.12142-2.7e-4 -0.24245 0.0305-0.35037 0.0873-0.70735 0.37218-1.4109 0.83268-2.0934 1.3689l-0.1142 0.0904 0.0031 5.3e-4c-0.57288 0.4591-1.1383 0.97518-1.6857 1.5426-0.0053 5e-3 -0.01074 0.0105-0.01603 0.016l-0.10335 0.1049h0.0052c-0.51894 0.54575-1.029 1.1414-1.5177 1.7777-0.0051 7e-3 -0.0104 0.013-0.0155 0.0196l-0.0832 0.11007h0.0031c-0.49737 0.657-0.96498 1.3393-1.3875 2.0288l-0.06149 0.10026h0.0021c-0.41939 0.69649-0.65682 1.1653-0.68213 1.217-0.14379 0.29027-0.08858 0.63411 0.12351 0.86299l-0.01447 4e-3 0.09663 0.0734c0.0021 2e-3 4e-3 4e-3 0.0062 6e-3l0.02119 0.016 0.0036-1e-3c0.03296 0.0238 0.06491 0.0454 0.09767 0.062 0.10128 0.0497 0.21385 0.078 0.3266 0.0791l0.02066-5.2e-4c0.27408-6e-3 0.51983-0.16097 0.6444-0.40042l0.0027-5.3e-4 0.01241-0.0238c0.01614-0.0368 0.4341-0.86526 1.2046-2.0076l0.01498-0.0233c0.51678-0.76759 1.0702-1.4935 1.6474-2.1632h0.0011l0.01394-0.0181c0.5481-0.63113 1.1206-1.2122 1.7012-1.7265h0.0016l0.01497-0.015c0.58124-0.51229 1.1827-0.9612 1.7823-1.3379h5.29e-4l0.01654-0.0114c0.24941-0.1531 0.47452-0.28532 0.69402-0.39997 0.1833-0.0963 0.31603-0.26246 0.37569-0.46354 0.0551-0.1905 0.03578-0.39088-0.05478-0.56586-0.12856-0.24799-0.38074-0.40471-0.65784-0.40823zm-5.29e-4 0.12247c0.23742 3e-3 0.45173 0.13391 0.56017 0.34417 0.07539 0.14605 0.09161 0.31289 0.04599 0.47129-0.04851 0.17003-0.16161 0.30795-0.31884 0.39015-0.21467 0.1136-0.43826 0.24366-0.68316 0.39429l-1.8671-0.2558c0.6423-0.49565 1.3009-0.92182 1.9611-1.2707 0.09317-0.0494 0.1979-0.0741 0.30179-0.0734zm-2.3957 1.4475 0.75448 0.10335 1.0852 0.15038c-0.55715 0.35926-1.1133 0.77941-1.6547 1.2552l-1.8681 0.01c0.54737-0.55845 1.1126-1.0693 1.6831-1.5188zm0.04754 1.6325c-0.54219 0.48867-1.0774 1.0344-1.5911 1.6262l-1.7766 0.14676c0.49143-0.6328 1.0013-1.2258 1.5198-1.7653l0.34261-2e-3zm-1.7033 1.758c-0.54475 0.63684-1.068 1.327-1.5575 2.0536l-1.1911 0.0739-0.39894 0.0243c0.42154-0.68157 0.88632-1.3578 1.3834-2.0066zm-1.6443 2.1813c-0.67764 1.0151-1.0686 1.7658-1.1441 1.9146l-0.99994 0.23927c-0.22085-0.1881-0.28949-0.50924-0.1602-0.7736 0.02684-0.0554 0.27382-0.54634 0.72347-1.2836zm-1.2351 2.0614c-0.11686 0.14817-0.29391 0.23626-0.48679 0.24081l-0.01757 2e-3c-0.09052 0-0.17954-0.0214-0.26252-0.0584l0.30386-0.0734z" fill="#8d7129"/>
   </g>
   <g transform="matrix(.99895 -.045803 -.045803 -.99895 235.28 120.47)">
    <path d="m-55.141-1.1568c-0.08978 7e-3 -0.1799 0.0327-0.26458 0.0775-1.4581 0.79393-2.6856 1.7742-3.8421 2.9585h-0.0057c-1.1973 1.2612-2.2128 2.5846-3.1337 4.0798-0.45434 0.74259-0.70728 1.2443-0.74104 1.3131-0.14701 0.29927-0.0619 0.65125 0.18397 0.85421l-0.0026 5.3e-4c0.0019 1e-3 0.0072 4e-3 0.0093 6e-3 0.0028 2e-3 0.0049 5e-3 0.0078 7e-3l0.0026-5.3e-4c0.36715 0.2764 0.83818 0.15502 1.0154-0.19119 0.44262-0.74586 0.8152-1.4421 1.2428-2.0815 0.44405-0.658 1.0517-1.4768 1.7131-2.2407 1.0431-1.2469 2.1991-2.1693 3.5398-3.0908 0.24509-0.15529 0.4291-0.257 0.65009-0.37259 0.33983-0.18133 0.47254-0.60294 0.29559-0.9462-0.13208-0.25638-0.40143-0.39518-0.67076-0.3731z" fill="#c59726"/>
    <path d="m-54.634-1.0046c0.06173 0.29951-0.0771 0.61569-0.35863 0.76533-0.88339 0.46952-1.7287 1.0807-2.5022 1.7575-0.58833 0.52852-1.2027 1.1518-1.7224 1.7467-0.57748 0.66935-1.1374 1.4781-1.6692 2.1875-0.60028 0.80081-0.86489 1.7874-1.5555 2.3534-0.16499 0.0765-0.29844 0.0782-0.54467 0.0294 0.14859 0.2822 0.31193 0.3116 0.64027 0.35193 0.42858-0.0544 0.56761-0.4258 0.66462-0.60071 0.09092-0.16393 0.83749-1.4114 1.1105-1.8229 0.48802-0.72227 1.1355-1.5555 1.6753-2.187 0.49699-0.56965 1.1792-1.247 1.7089-1.7281 0.81274-0.67543 1.6125-1.2815 2.498-1.7508 0.15677-0.0831 0.27034-0.22012 0.31884-0.39016 0.05993-0.33004-0.05202-0.55392-0.26407-0.7121z" fill="#9f5a1b"/>
    <path d="m-55.535-0.97154c-1.9753 1.0486-3.772 2.9536-5.0472 4.5641-0.71179 0.91195-1.4037 1.8701-1.9301 2.6758-0.16679 0.27674-0.53386 0.85546-0.53227 1.018 5.29e-4 0.0531 0.03838 0.11218 0.11627 0.14315 0.1884 0.0749 0.29898-0.11875 0.32556-0.16227 0.11414-0.18689 0.54834-0.86894 1.0464-1.5849 0.41024-0.58967 1.0372-1.4253 1.6226-2.143 0.54039-0.66242 1.1445-1.3133 1.6676-1.8366 0.91169-0.86903 1.8765-1.6904 2.9213-2.236 0.11102-0.058 0.16665-0.20495 0.1049-0.32402-0.07896-0.15225-0.20956-0.1596-0.29508-0.1142z" fill="#e0c97e"/>
    <path d="m-55.079-1.2757c-0.12142-2.7e-4 -0.24245 0.0305-0.35037 0.0873-0.70735 0.37218-1.4109 0.83268-2.0934 1.3689l-0.1142 0.0904 0.0031 5.3e-4c-0.57288 0.4591-1.1383 0.97518-1.6857 1.5426-0.0053 5e-3 -0.01074 0.0105-0.01603 0.016l-0.10335 0.1049h0.0052c-0.51894 0.54575-1.029 1.1414-1.5177 1.7777-0.0051 7e-3 -0.0104 0.013-0.0155 0.0196l-0.0832 0.11007h0.0031c-0.49737 0.657-0.96498 1.3393-1.3875 2.0288l-0.06149 0.10026h0.0021c-0.41939 0.69649-0.65682 1.1653-0.68213 1.217-0.14379 0.29027-0.08858 0.63411 0.12351 0.86299l-0.01447 4e-3 0.09663 0.0734c0.0021 2e-3 4e-3 4e-3 0.0062 6e-3l0.02119 0.016 0.0036-1e-3c0.03296 0.0238 0.06491 0.0454 0.09767 0.062 0.10128 0.0497 0.21385 0.078 0.3266 0.0791l0.02066-5.2e-4c0.27408-6e-3 0.51983-0.16097 0.6444-0.40042l0.0027-5.3e-4 0.01241-0.0238c0.01614-0.0368 0.4341-0.86526 1.2046-2.0076l0.01498-0.0233c0.51678-0.76759 1.0702-1.4935 1.6474-2.1632h0.0011l0.01394-0.0181c0.5481-0.63113 1.1206-1.2122 1.7012-1.7265h0.0016l0.01497-0.015c0.58124-0.51229 1.1827-0.9612 1.7823-1.3379h5.29e-4l0.01654-0.0114c0.24941-0.1531 0.47452-0.28532 0.69402-0.39997 0.1833-0.0963 0.31603-0.26246 0.37569-0.46354 0.0551-0.1905 0.03578-0.39088-0.05478-0.56586-0.12856-0.24799-0.38074-0.40471-0.65784-0.40823zm-5.29e-4 0.12247c0.23742 3e-3 0.45173 0.13391 0.56017 0.34417 0.07539 0.14605 0.09161 0.31289 0.04599 0.47129-0.04851 0.17003-0.16161 0.30795-0.31884 0.39015-0.21467 0.1136-0.43826 0.24366-0.68316 0.39429l-1.8671-0.2558c0.6423-0.49565 1.3009-0.92182 1.9611-1.2707 0.09317-0.0494 0.1979-0.0741 0.30179-0.0734zm-2.3957 1.4475 0.75448 0.10335 1.0852 0.15038c-0.55715 0.35926-1.1133 0.77941-1.6547 1.2552l-1.8681 0.01c0.54737-0.55845 1.1126-1.0693 1.6831-1.5188zm0.04754 1.6325c-0.54219 0.48867-1.0774 1.0344-1.5911 1.6262l-1.7766 0.14676c0.49143-0.6328 1.0013-1.2258 1.5198-1.7653l0.34261-2e-3zm-1.7033 1.758c-0.54475 0.63684-1.068 1.327-1.5575 2.0536l-1.1911 0.0739-0.39894 0.0243c0.42154-0.68157 0.88632-1.3578 1.3834-2.0066zm-1.6443 2.1813c-0.67764 1.0151-1.0686 1.7658-1.1441 1.9146l-0.99994 0.23927c-0.22085-0.1881-0.28949-0.50924-0.1602-0.7736 0.02684-0.0554 0.27382-0.54634 0.72347-1.2836zm-1.2351 2.0614c-0.11686 0.14817-0.29391 0.23626-0.48679 0.24081l-0.01757 2e-3c-0.09052 0-0.17954-0.0214-0.26252-0.0584l0.30386-0.0734z" fill="#8d7129"/>
   </g>
   <g transform="rotate(181.68 59.621 59.712)">
    <path d="m-55.141-1.1568c-0.08978 7e-3 -0.1799 0.0327-0.26458 0.0775-1.4581 0.79393-2.6856 1.7742-3.8421 2.9585h-0.0057c-1.1973 1.2612-2.2128 2.5846-3.1337 4.0798-0.45434 0.74259-0.70728 1.2443-0.74104 1.3131-0.14701 0.29927-0.0619 0.65125 0.18397 0.85421l-0.0026 5.3e-4c0.0019 1e-3 0.0072 4e-3 0.0093 6e-3 0.0028 2e-3 0.0049 5e-3 0.0078 7e-3l0.0026-5.3e-4c0.36715 0.2764 0.83818 0.15502 1.0154-0.19119 0.44262-0.74586 0.8152-1.4421 1.2428-2.0815 0.44405-0.658 1.0517-1.4768 1.7131-2.2407 1.0431-1.2469 2.1991-2.1693 3.5398-3.0908 0.24509-0.15529 0.4291-0.257 0.65009-0.37259 0.33983-0.18133 0.47254-0.60294 0.29559-0.9462-0.13208-0.25638-0.40143-0.39518-0.67076-0.3731z" fill="#c59726"/>
    <path d="m-54.634-1.0046c0.06173 0.29951-0.0771 0.61569-0.35863 0.76533-0.88339 0.46952-1.7287 1.0807-2.5022 1.7575-0.58833 0.52852-1.2027 1.1518-1.7224 1.7467-0.57748 0.66935-1.1374 1.4781-1.6692 2.1875-0.60028 0.80081-0.86489 1.7874-1.5555 2.3534-0.16499 0.0765-0.29844 0.0782-0.54467 0.0294 0.14859 0.2822 0.31193 0.3116 0.64027 0.35193 0.42858-0.0544 0.56761-0.4258 0.66462-0.60071 0.09092-0.16393 0.83749-1.4114 1.1105-1.8229 0.48802-0.72227 1.1355-1.5555 1.6753-2.187 0.49699-0.56965 1.1792-1.247 1.7089-1.7281 0.81274-0.67543 1.6125-1.2815 2.498-1.7508 0.15677-0.0831 0.27034-0.22012 0.31884-0.39016 0.05993-0.33004-0.05202-0.55392-0.26407-0.7121z" fill="#9f5a1b"/>
    <path d="m-55.535-0.97154c-1.9753 1.0486-3.772 2.9536-5.0472 4.5641-0.71179 0.91195-1.4037 1.8701-1.9301 2.6758-0.16679 0.27674-0.53386 0.85546-0.53227 1.018 5.29e-4 0.0531 0.03838 0.11218 0.11627 0.14315 0.1884 0.0749 0.29898-0.11875 0.32556-0.16227 0.11414-0.18689 0.54834-0.86894 1.0464-1.5849 0.41024-0.58967 1.0372-1.4253 1.6226-2.143 0.54039-0.66242 1.1445-1.3133 1.6676-1.8366 0.91169-0.86903 1.8765-1.6904 2.9213-2.236 0.11102-0.058 0.16665-0.20495 0.1049-0.32402-0.07896-0.15225-0.20956-0.1596-0.29508-0.1142z" fill="#e0c97e"/>
    <path d="m-55.079-1.2757c-0.12142-2.7e-4 -0.24245 0.0305-0.35037 0.0873-0.70735 0.37218-1.4109 0.83268-2.0934 1.3689l-0.1142 0.0904 0.0031 5.3e-4c-0.57288 0.4591-1.1383 0.97518-1.6857 1.5426-0.0053 5e-3 -0.01074 0.0105-0.01603 0.016l-0.10335 0.1049h0.0052c-0.51894 0.54575-1.029 1.1414-1.5177 1.7777-0.0051 7e-3 -0.0104 0.013-0.0155 0.0196l-0.0832 0.11007h0.0031c-0.49737 0.657-0.96498 1.3393-1.3875 2.0288l-0.06149 0.10026h0.0021c-0.41939 0.69649-0.65682 1.1653-0.68213 1.217-0.14379 0.29027-0.08858 0.63411 0.12351 0.86299l-0.01447 4e-3 0.09663 0.0734c0.0021 2e-3 4e-3 4e-3 0.0062 6e-3l0.02119 0.016 0.0036-1e-3c0.03296 0.0238 0.06491 0.0454 0.09767 0.062 0.10128 0.0497 0.21385 0.078 0.3266 0.0791l0.02066-5.2e-4c0.27408-6e-3 0.51983-0.16097 0.6444-0.40042l0.0027-5.3e-4 0.01241-0.0238c0.01614-0.0368 0.4341-0.86526 1.2046-2.0076l0.01498-0.0233c0.51678-0.76759 1.0702-1.4935 1.6474-2.1632h0.0011l0.01394-0.0181c0.5481-0.63113 1.1206-1.2122 1.7012-1.7265h0.0016l0.01497-0.015c0.58124-0.51229 1.1827-0.9612 1.7823-1.3379h5.29e-4l0.01654-0.0114c0.24941-0.1531 0.47452-0.28532 0.69402-0.39997 0.1833-0.0963 0.31603-0.26246 0.37569-0.46354 0.0551-0.1905 0.03578-0.39088-0.05478-0.56586-0.12856-0.24799-0.38074-0.40471-0.65784-0.40823zm-5.29e-4 0.12247c0.23742 3e-3 0.45173 0.13391 0.56017 0.34417 0.07539 0.14605 0.09161 0.31289 0.04599 0.47129-0.04851 0.17003-0.16161 0.30795-0.31884 0.39015-0.21467 0.1136-0.43826 0.24366-0.68316 0.39429l-1.8671-0.2558c0.6423-0.49565 1.3009-0.92182 1.9611-1.2707 0.09317-0.0494 0.1979-0.0741 0.30179-0.0734zm-2.3957 1.4475 0.75448 0.10335 1.0852 0.15038c-0.55715 0.35926-1.1133 0.77941-1.6547 1.2552l-1.8681 0.01c0.54737-0.55845 1.1126-1.0693 1.6831-1.5188zm0.04754 1.6325c-0.54219 0.48867-1.0774 1.0344-1.5911 1.6262l-1.7766 0.14676c0.49143-0.6328 1.0013-1.2258 1.5198-1.7653l0.34261-2e-3zm-1.7033 1.758c-0.54475 0.63684-1.068 1.327-1.5575 2.0536l-1.1911 0.0739-0.39894 0.0243c0.42154-0.68157 0.88632-1.3578 1.3834-2.0066zm-1.6443 2.1813c-0.67764 1.0151-1.0686 1.7658-1.1441 1.9146l-0.99994 0.23927c-0.22085-0.1881-0.28949-0.50924-0.1602-0.7736 0.02684-0.0554 0.27382-0.54634 0.72347-1.2836zm-1.2351 2.0614c-0.11686 0.14817-0.29391 0.23626-0.48679 0.24081l-0.01757 2e-3c-0.09052 0-0.17954-0.0214-0.26252-0.0584l0.30386-0.0734z" fill="#8d7129"/>
   </g>
   <g transform="matrix(.99895 -.045803 -.045803 -.99895 109.19 121.34)">
    <path d="m-55.141-1.1568c-0.08978 7e-3 -0.1799 0.0327-0.26458 0.0775-1.4581 0.79393-2.6856 1.7742-3.8421 2.9585h-0.0057c-1.1973 1.2612-2.2128 2.5846-3.1337 4.0798-0.45434 0.74259-0.70728 1.2443-0.74104 1.3131-0.14701 0.29927-0.0619 0.65125 0.18397 0.85421l-0.0026 5.3e-4c0.0019 1e-3 0.0072 4e-3 0.0093 6e-3 0.0028 2e-3 0.0049 5e-3 0.0078 7e-3l0.0026-5.3e-4c0.36715 0.2764 0.83818 0.15502 1.0154-0.19119 0.44262-0.74586 0.8152-1.4421 1.2428-2.0815 0.44405-0.658 1.0517-1.4768 1.7131-2.2407 1.0431-1.2469 2.1991-2.1693 3.5398-3.0908 0.24509-0.15529 0.4291-0.257 0.65009-0.37259 0.33983-0.18133 0.47254-0.60294 0.29559-0.9462-0.13208-0.25638-0.40143-0.39518-0.67076-0.3731z" fill="#c59726"/>
    <path d="m-54.634-1.0046c0.06173 0.29951-0.0771 0.61569-0.35863 0.76533-0.88339 0.46952-1.7287 1.0807-2.5022 1.7575-0.58833 0.52852-1.2027 1.1518-1.7224 1.7467-0.57748 0.66935-1.1374 1.4781-1.6692 2.1875-0.60028 0.80081-0.86489 1.7874-1.5555 2.3534-0.16499 0.0765-0.29844 0.0782-0.54467 0.0294 0.14859 0.2822 0.31193 0.3116 0.64027 0.35193 0.42858-0.0544 0.56761-0.4258 0.66462-0.60071 0.09092-0.16393 0.83749-1.4114 1.1105-1.8229 0.48802-0.72227 1.1355-1.5555 1.6753-2.187 0.49699-0.56965 1.1792-1.247 1.7089-1.7281 0.81274-0.67543 1.6125-1.2815 2.498-1.7508 0.15677-0.0831 0.27034-0.22012 0.31884-0.39016 0.05993-0.33004-0.05202-0.55392-0.26407-0.7121z" fill="#9f5a1b"/>
    <path d="m-55.535-0.97154c-1.9753 1.0486-3.772 2.9536-5.0472 4.5641-0.71179 0.91195-1.4037 1.8701-1.9301 2.6758-0.16679 0.27674-0.53386 0.85546-0.53227 1.018 5.29e-4 0.0531 0.03838 0.11218 0.11627 0.14315 0.1884 0.0749 0.29898-0.11875 0.32556-0.16227 0.11414-0.18689 0.54834-0.86894 1.0464-1.5849 0.41024-0.58967 1.0372-1.4253 1.6226-2.143 0.54039-0.66242 1.1445-1.3133 1.6676-1.8366 0.91169-0.86903 1.8765-1.6904 2.9213-2.236 0.11102-0.058 0.16665-0.20495 0.1049-0.32402-0.07896-0.15225-0.20956-0.1596-0.29508-0.1142z" fill="#e0c97e"/>
    <path d="m-55.079-1.2757c-0.12142-2.7e-4 -0.24245 0.0305-0.35037 0.0873-0.70735 0.37218-1.4109 0.83268-2.0934 1.3689l-0.1142 0.0904 0.0031 5.3e-4c-0.57288 0.4591-1.1383 0.97518-1.6857 1.5426-0.0053 5e-3 -0.01074 0.0105-0.01603 0.016l-0.10335 0.1049h0.0052c-0.51894 0.54575-1.029 1.1414-1.5177 1.7777-0.0051 7e-3 -0.0104 0.013-0.0155 0.0196l-0.0832 0.11007h0.0031c-0.49737 0.657-0.96498 1.3393-1.3875 2.0288l-0.06149 0.10026h0.0021c-0.41939 0.69649-0.65682 1.1653-0.68213 1.217-0.14379 0.29027-0.08858 0.63411 0.12351 0.86299l-0.01447 4e-3 0.09663 0.0734c0.0021 2e-3 4e-3 4e-3 0.0062 6e-3l0.02119 0.016 0.0036-1e-3c0.03296 0.0238 0.06491 0.0454 0.09767 0.062 0.10128 0.0497 0.21385 0.078 0.3266 0.0791l0.02066-5.2e-4c0.27408-6e-3 0.51983-0.16097 0.6444-0.40042l0.0027-5.3e-4 0.01241-0.0238c0.01614-0.0368 0.4341-0.86526 1.2046-2.0076l0.01498-0.0233c0.51678-0.76759 1.0702-1.4935 1.6474-2.1632h0.0011l0.01394-0.0181c0.5481-0.63113 1.1206-1.2122 1.7012-1.7265h0.0016l0.01497-0.015c0.58124-0.51229 1.1827-0.9612 1.7823-1.3379h5.29e-4l0.01654-0.0114c0.24941-0.1531 0.47452-0.28532 0.69402-0.39997 0.1833-0.0963 0.31603-0.26246 0.37569-0.46354 0.0551-0.1905 0.03578-0.39088-0.05478-0.56586-0.12856-0.24799-0.38074-0.40471-0.65784-0.40823zm-5.29e-4 0.12247c0.23742 3e-3 0.45173 0.13391 0.56017 0.34417 0.07539 0.14605 0.09161 0.31289 0.04599 0.47129-0.04851 0.17003-0.16161 0.30795-0.31884 0.39015-0.21467 0.1136-0.43826 0.24366-0.68316 0.39429l-1.8671-0.2558c0.6423-0.49565 1.3009-0.92182 1.9611-1.2707 0.09317-0.0494 0.1979-0.0741 0.30179-0.0734zm-2.3957 1.4475 0.75448 0.10335 1.0852 0.15038c-0.55715 0.35926-1.1133 0.77941-1.6547 1.2552l-1.8681 0.01c0.54737-0.55845 1.1126-1.0693 1.6831-1.5188zm0.04754 1.6325c-0.54219 0.48867-1.0774 1.0344-1.5911 1.6262l-1.7766 0.14676c0.49143-0.6328 1.0013-1.2258 1.5198-1.7653l0.34261-2e-3zm-1.7033 1.758c-0.54475 0.63684-1.068 1.327-1.5575 2.0536l-1.1911 0.0739-0.39894 0.0243c0.42154-0.68157 0.88632-1.3578 1.3834-2.0066zm-1.6443 2.1813c-0.67764 1.0151-1.0686 1.7658-1.1441 1.9146l-0.99994 0.23927c-0.22085-0.1881-0.28949-0.50924-0.1602-0.7736 0.02684-0.0554 0.27382-0.54634 0.72347-1.2836zm-1.2351 2.0614c-0.11686 0.14817-0.29391 0.23626-0.48679 0.24081l-0.01757 2e-3c-0.09052 0-0.17954-0.0214-0.26252-0.0584l0.30386-0.0734z" fill="#8d7129"/>
   </g>
   <g transform="rotate(181.68 -3.4146 61.073)">
    <path d="m-55.141-1.1568c-0.08978 7e-3 -0.1799 0.0327-0.26458 0.0775-1.4581 0.79393-2.6856 1.7742-3.8421 2.9585h-0.0057c-1.1973 1.2612-2.2128 2.5846-3.1337 4.0798-0.45434 0.74259-0.70728 1.2443-0.74104 1.3131-0.14701 0.29927-0.0619 0.65125 0.18397 0.85421l-0.0026 5.3e-4c0.0019 1e-3 0.0072 4e-3 0.0093 6e-3 0.0028 2e-3 0.0049 5e-3 0.0078 7e-3l0.0026-5.3e-4c0.36715 0.2764 0.83818 0.15502 1.0154-0.19119 0.44262-0.74586 0.8152-1.4421 1.2428-2.0815 0.44405-0.658 1.0517-1.4768 1.7131-2.2407 1.0431-1.2469 2.1991-2.1693 3.5398-3.0908 0.24509-0.15529 0.4291-0.257 0.65009-0.37259 0.33983-0.18133 0.47254-0.60294 0.29559-0.9462-0.13208-0.25638-0.40143-0.39518-0.67076-0.3731z" fill="#c59726"/>
    <path d="m-54.634-1.0046c0.06173 0.29951-0.0771 0.61569-0.35863 0.76533-0.88339 0.46952-1.7287 1.0807-2.5022 1.7575-0.58833 0.52852-1.2027 1.1518-1.7224 1.7467-0.57748 0.66935-1.1374 1.4781-1.6692 2.1875-0.60028 0.80081-0.86489 1.7874-1.5555 2.3534-0.16499 0.0765-0.29844 0.0782-0.54467 0.0294 0.14859 0.2822 0.31193 0.3116 0.64027 0.35193 0.42858-0.0544 0.56761-0.4258 0.66462-0.60071 0.09092-0.16393 0.83749-1.4114 1.1105-1.8229 0.48802-0.72227 1.1355-1.5555 1.6753-2.187 0.49699-0.56965 1.1792-1.247 1.7089-1.7281 0.81274-0.67543 1.6125-1.2815 2.498-1.7508 0.15677-0.0831 0.27034-0.22012 0.31884-0.39016 0.05993-0.33004-0.05202-0.55392-0.26407-0.7121z" fill="#9f5a1b"/>
    <path d="m-55.535-0.97154c-1.9753 1.0486-3.772 2.9536-5.0472 4.5641-0.71179 0.91195-1.4037 1.8701-1.9301 2.6758-0.16679 0.27674-0.53386 0.85546-0.53227 1.018 5.29e-4 0.0531 0.03838 0.11218 0.11627 0.14315 0.1884 0.0749 0.29898-0.11875 0.32556-0.16227 0.11414-0.18689 0.54834-0.86894 1.0464-1.5849 0.41024-0.58967 1.0372-1.4253 1.6226-2.143 0.54039-0.66242 1.1445-1.3133 1.6676-1.8366 0.91169-0.86903 1.8765-1.6904 2.9213-2.236 0.11102-0.058 0.16665-0.20495 0.1049-0.32402-0.07896-0.15225-0.20956-0.1596-0.29508-0.1142z" fill="#e0c97e"/>
    <path d="m-55.079-1.2757c-0.12142-2.7e-4 -0.24245 0.0305-0.35037 0.0873-0.70735 0.37218-1.4109 0.83268-2.0934 1.3689l-0.1142 0.0904 0.0031 5.3e-4c-0.57288 0.4591-1.1383 0.97518-1.6857 1.5426-0.0053 5e-3 -0.01074 0.0105-0.01603 0.016l-0.10335 0.1049h0.0052c-0.51894 0.54575-1.029 1.1414-1.5177 1.7777-0.0051 7e-3 -0.0104 0.013-0.0155 0.0196l-0.0832 0.11007h0.0031c-0.49737 0.657-0.96498 1.3393-1.3875 2.0288l-0.06149 0.10026h0.0021c-0.41939 0.69649-0.65682 1.1653-0.68213 1.217-0.14379 0.29027-0.08858 0.63411 0.12351 0.86299l-0.01447 4e-3 0.09663 0.0734c0.0021 2e-3 4e-3 4e-3 0.0062 6e-3l0.02119 0.016 0.0036-1e-3c0.03296 0.0238 0.06491 0.0454 0.09767 0.062 0.10128 0.0497 0.21385 0.078 0.3266 0.0791l0.02066-5.2e-4c0.27408-6e-3 0.51983-0.16097 0.6444-0.40042l0.0027-5.3e-4 0.01241-0.0238c0.01614-0.0368 0.4341-0.86526 1.2046-2.0076l0.01498-0.0233c0.51678-0.76759 1.0702-1.4935 1.6474-2.1632h0.0011l0.01394-0.0181c0.5481-0.63113 1.1206-1.2122 1.7012-1.7265h0.0016l0.01497-0.015c0.58124-0.51229 1.1827-0.9612 1.7823-1.3379h5.29e-4l0.01654-0.0114c0.24941-0.1531 0.47452-0.28532 0.69402-0.39997 0.1833-0.0963 0.31603-0.26246 0.37569-0.46354 0.0551-0.1905 0.03578-0.39088-0.05478-0.56586-0.12856-0.24799-0.38074-0.40471-0.65784-0.40823zm-5.29e-4 0.12247c0.23742 3e-3 0.45173 0.13391 0.56017 0.34417 0.07539 0.14605 0.09161 0.31289 0.04599 0.47129-0.04851 0.17003-0.16161 0.30795-0.31884 0.39015-0.21467 0.1136-0.43826 0.24366-0.68316 0.39429l-1.8671-0.2558c0.6423-0.49565 1.3009-0.92182 1.9611-1.2707 0.09317-0.0494 0.1979-0.0741 0.30179-0.0734zm-2.3957 1.4475 0.75448 0.10335 1.0852 0.15038c-0.55715 0.35926-1.1133 0.77941-1.6547 1.2552l-1.8681 0.01c0.54737-0.55845 1.1126-1.0693 1.6831-1.5188zm0.04754 1.6325c-0.54219 0.48867-1.0774 1.0344-1.5911 1.6262l-1.7766 0.14676c0.49143-0.6328 1.0013-1.2258 1.5198-1.7653l0.34261-2e-3zm-1.7033 1.758c-0.54475 0.63684-1.068 1.327-1.5575 2.0536l-1.1911 0.0739-0.39894 0.0243c0.42154-0.68157 0.88632-1.3578 1.3834-2.0066zm-1.6443 2.1813c-0.67764 1.0151-1.0686 1.7658-1.1441 1.9146l-0.99994 0.23927c-0.22085-0.1881-0.28949-0.50924-0.1602-0.7736 0.02684-0.0554 0.27382-0.54634 0.72347-1.2836zm-1.2351 2.0614c-0.11686 0.14817-0.29391 0.23626-0.48679 0.24081l-0.01757 2e-3c-0.09052 0-0.17954-0.0214-0.26252-0.0584l0.30386-0.0734z" fill="#8d7129"/>
   </g>
   <g fill="#1d3209">
    <path d="m44.111 32.205c-0.47676-0.01972-0.87173-0.44309-0.7755-0.87708 0.30943-1.3955 0.34114-2.6032 0.069-4.0324-0.17132-0.89975-0.51432-1.7594-0.37369-2.3652 0.06379-0.2748 0.44554-0.433 1.0344-0.11054-0.2302-0.61994-1.4495-0.83825-1.3663 0.32012 0.0843 1.1624 1.0094 4.2176 0.23404 6.2312-0.14026 0.36426 0.34718 1.3367 1.1781 0.83386z"/>
    <path d="m53.487 92.316c0.19744-0.34312 0.44574-0.68882 0.07506-0.93419-0.86258-0.57099-2.7832-0.67915-3.6231-0.65764-0.96567 0.02473-2.9871 0.37102-3.309 0.62857-0.22025 0.17627-0.19079 0.37873 0.19014 0.82558-0.37529-0.13935-0.72281-0.49749-0.62706-0.8174 0.06242-0.20855 0.48905-0.39912 0.90541-0.59066 0.89446-0.41149 2.3017-0.53607 3.4661-0.47406 1.0054 0.05354 2.2759 0.2038 3.0657 0.77492 0.36544 0.26425 0.5247 0.61887-0.14335 1.2449z"/>
    <path d="m53.487 57.682c0.19744-0.34312 0.44574-0.68882 0.07506-0.93419-0.86258-0.57099-2.7832-0.67915-3.6231-0.65764-0.96567 0.02473-2.9871 0.37102-3.309 0.62857-0.22025 0.17627-0.19079 0.37873 0.19014 0.82558-0.37529-0.13935-0.72281-0.49749-0.62706-0.8174 0.06242-0.20855 0.48905-0.39912 0.90541-0.59066 0.89446-0.41149 2.3017-0.53607 3.4661-0.47406 1.0054 0.05354 2.2759 0.2038 3.0657 0.77492 0.36544 0.26425 0.5247 0.61887-0.14335 1.2449z"/>
    <path d="m79.474 116.69c-0.34312-0.19743-0.68881-0.44574-0.93419-0.0751-0.57099 0.86259-0.67915 2.7832-0.65764 3.6231 0.0247 0.96567 0.37102 2.9871 0.62857 3.309 0.17627 0.22025 0.37873 0.19079 0.82559-0.19014-0.13936 0.37529-0.4975 0.72281-0.81741 0.62706-0.20855-0.0624-0.39912-0.48905-0.59066-0.90542-0.4115-0.89446-0.53608-2.3017-0.47406-3.4661 0.0535-1.0054 0.2038-2.2759 0.77492-3.0657 0.26425-0.36544 0.61887-0.5247 1.2449 0.14335z"/>
    <path d="m114.12 116.58c-0.34312-0.19743-0.68881-0.44574-0.93419-0.0751-0.57099 0.86259-0.67915 2.7832-0.65764 3.6231 0.0247 0.96567 0.37102 2.9871 0.62857 3.309 0.17627 0.22025 0.37873 0.19079 0.82559-0.19014-0.13936 0.37529-0.4975 0.72281-0.81741 0.62706-0.20855-0.0624-0.39912-0.48905-0.59066-0.90542-0.4115-0.89446-0.53608-2.3017-0.47406-3.4661 0.0535-1.0054 0.2038-2.2759 0.77492-3.0657 0.26425-0.36544 0.61887-0.5247 1.2449 0.14335z"/>
    <path d="m148.63 116.27c-0.34312-0.19743-0.68881-0.44574-0.93419-0.0751-0.57099 0.86259-0.67915 2.7832-0.65764 3.6231 0.0247 0.96567 0.37102 2.9871 0.62857 3.309 0.17627 0.22025 0.37873 0.19079 0.82559-0.19014-0.13936 0.37529-0.4975 0.72281-0.81741 0.62706-0.20855-0.0624-0.39912-0.48905-0.59066-0.90542-0.4115-0.89446-0.53608-2.3017-0.47406-3.4661 0.0535-1.0054 0.2038-2.2759 0.77492-3.0657 0.26425-0.36544 0.61887-0.5247 1.2449 0.14335z"/>
    <path d="m179.35 55.647c0.19744 0.34312 0.44574 0.68882 0.0751 0.93419-0.86258 0.57099-2.7832 0.67915-3.6231 0.65764-0.96567-0.02473-2.9871-0.37102-3.309-0.62857-0.22025-0.17627-0.19078-0.37873 0.19014-0.82558-0.37528 0.13935-0.7228 0.49749-0.62706 0.8174 0.0624 0.20855 0.48906 0.39912 0.90542 0.59066 0.89446 0.41149 2.3017 0.53607 3.4662 0.47406 1.0054-0.05354 2.2759-0.2038 3.0657-0.77492 0.36544-0.26425 0.5247-0.61887-0.14335-1.2449z"/>
    <path d="m179.42 90.255c0.19744 0.34312 0.44574 0.68882 0.0751 0.93419-0.86258 0.57099-2.7832 0.67915-3.6231 0.65764-0.96567-0.02473-2.9871-0.37102-3.309-0.62857-0.22025-0.17627-0.19078-0.37873 0.19014-0.82558-0.37528 0.13935-0.7228 0.49749-0.62706 0.8174 0.0624 0.20855 0.48906 0.39912 0.90542 0.59066 0.89446 0.41149 2.3017 0.53607 3.4662 0.47406 1.0054-0.05354 2.2759-0.2038 3.0657-0.77492 0.36544-0.26425 0.5247-0.61887-0.14335-1.2449z"/>
    <path d="m77.25 31.741c0.34312 0.19744 0.68882 0.44574 0.93419 0.07506 0.57099-0.86258 0.67915-2.7832 0.65764-3.6231-0.02473-0.96567-0.37102-2.9871-0.62857-3.309-0.17627-0.22025-0.37873-0.19079-0.82558 0.19014 0.13935-0.37529 0.49749-0.72281 0.8174-0.62706 0.20855 0.06242 0.39912 0.48905 0.59066 0.90541 0.41149 0.89446 0.53607 2.3017 0.47406 3.4661-0.05354 1.0054-0.2038 2.2759-0.77492 3.0657-0.26425 0.36544-0.61887 0.5247-1.2449-0.14335z"/>
    <path d="m111.86 31.574c0.34312 0.19744 0.68882 0.44574 0.93419 0.07506 0.57099-0.86258 0.67915-2.7832 0.65764-3.6231-0.0247-0.96567-0.37102-2.9871-0.62857-3.309-0.17627-0.22025-0.37873-0.19079-0.82558 0.19014 0.13935-0.37529 0.49749-0.72281 0.8174-0.62706 0.20855 0.06242 0.39912 0.48905 0.59067 0.90541 0.41149 0.89446 0.53607 2.3017 0.47405 3.4661-0.0535 1.0054-0.2038 2.2759-0.77491 3.0657-0.26426 0.36544-0.61887 0.5247-1.2449-0.14335z"/>
    <path d="m146.5 31.274c0.34312 0.19744 0.68882 0.44574 0.93419 0.07506 0.57099-0.86258 0.67915-2.7832 0.65764-3.6231-0.0247-0.96567-0.37102-2.9871-0.62857-3.309-0.17627-0.22025-0.37873-0.19079-0.82558 0.19014 0.13935-0.37529 0.49749-0.72281 0.8174-0.62706 0.20855 0.06242 0.39912 0.48905 0.59067 0.90541 0.41149 0.89446 0.53607 2.3017 0.47405 3.4661-0.0535 1.0054-0.2038 2.2759-0.77491 3.0657-0.26426 0.36544-0.61887 0.5247-1.2449-0.14335z"/>
    <path d="m181.14 31.08c0.34312 0.19744 0.68882 0.44574 0.93419 0.07506 0.57099-0.86258 0.67915-2.7832 0.65764-3.6231-0.0247-0.96567-0.37102-2.9871-0.62857-3.309-0.17627-0.22025-0.37873-0.19079-0.82558 0.19014 0.13935-0.37529 0.49749-0.72281 0.8174-0.62706 0.20855 0.06242 0.39912 0.48905 0.59067 0.90541 0.41149 0.89446 0.53607 2.3017 0.47405 3.4661-0.0535 1.0054-0.2038 2.2759-0.77491 3.0657-0.26426 0.36544-0.61887 0.5247-1.2449-0.14335z"/>
    <path d="m179.71 124.74c0.19744 0.34312 0.44574 0.68882 0.0751 0.93419-0.86258 0.57099-2.7832 0.67915-3.6231 0.65764-0.96567-0.0247-2.9871-0.37102-3.309-0.62857-0.22025-0.17627-0.19078-0.37873 0.19014-0.82558-0.37528 0.13935-0.7228 0.49749-0.62706 0.8174 0.0624 0.20855 0.48906 0.39912 0.90542 0.59067 0.89446 0.41149 2.3017 0.53607 3.4662 0.47405 1.0054-0.0535 2.2759-0.2038 3.0657-0.77491 0.36544-0.26426 0.5247-0.61887-0.14335-1.2449z"/>
    <path d="m53.269 23.17c0.19744-0.34312 0.44574-0.68882 0.07506-0.93419-0.86258-0.57099-2.7832-0.67915-3.6231-0.65764-0.96567 0.02473-2.9871 0.37102-3.309 0.62857-0.22025 0.17627-0.19079 0.37873 0.19014 0.82558-0.37529-0.13935-0.72281-0.49749-0.62706-0.8174 0.06242-0.20855 0.48905-0.39912 0.90541-0.59066 0.89446-0.41149 2.3017-0.53607 3.4661-0.47406 1.0054 0.05354 2.2759 0.2038 3.0657 0.77492 0.36544 0.26425 0.5247 0.61887-0.14335 1.2449z"/>
    <path d="m44.848 116.93c-0.34312-0.19743-0.68881-0.44574-0.93419-0.0751-0.57099 0.86259-0.67915 2.7832-0.65764 3.6231 0.0247 0.96567 0.37102 2.9871 0.62857 3.309 0.17627 0.22025 0.37873 0.19079 0.82559-0.19014-0.13936 0.37529-0.4975 0.72281-0.81741 0.62706-0.20855-0.0624-0.39912-0.48905-0.59066-0.90542-0.4115-0.89446-0.53608-2.3017-0.47406-3.4661 0.0535-1.0054 0.2038-2.2759 0.77492-3.0657 0.26425-0.36544 0.61887-0.5247 1.2449 0.14335z"/>
    <path d="m181.78 115.62c0.47676 0.0197 0.87173 0.44309 0.7755 0.87709-0.30943 1.3955-0.34114 2.6032-0.069 4.0324 0.17133 0.89975 0.51432 1.7594 0.37369 2.3652-0.0638 0.2748-0.44554 0.433-1.0344 0.11054 0.2302 0.61994 1.4495 0.83825 1.3663-0.32011-0.0843-1.1624-1.0094-4.2176-0.23404-6.2312 0.14026-0.36425-0.34718-1.3367-1.1781-0.83386z"/>
   </g>
  </g>
 </g>
</svg>
